<?xml version="1.0" standalone="no"?><!DOCTYPE svg PUBLIC "-//W3C//DTD SVG 1.1//EN" "http://www.w3.org/Graphics/SVG/1.1/DTD/svg11.dtd"><svg xmlns="http://www.w3.org/2000/svg" version="1.1" width="151.2px" height="71.4px" viewBox="0 -3 151.2 71.4" style="top:-3px"><desc>Over 70,000 employees in Macquarie Park with significant growth ahead.</desc><defs/><g id="Polygon22333"><path d="m.5 37.2h.7c0 .8.6 1.2 1.4 1.2h.1c.8 0 1.2-.4 1.2-1c0-.4-.2-.7-.9-.9l-.8-.1c-.8-.2-1.5-.6-1.5-1.5c0-1.1.9-1.6 1.9-1.6c1.4 0 2.1.8 2.1 1.7h-.7c-.1-.6-.5-1.1-1.3-1.1h-.1c-.8 0-1.2.4-1.2.9c0 .5.3.7 1 .9l.8.2c.8.2 1.5.5 1.5 1.4c0 1.1-.8 1.7-2.1 1.7c-1.4 0-2.1-.8-2.1-1.8zm5.6-4.8v-.9h.8v.9h-.8zm0 6.5v-5.5h.8v5.5h-.8zm2.1.7h.7c.1.7.8 1.1 1.7 1.1h.1c.9 0 1.8-.5 1.8-1.9v-.9c-.4.6-1 1-1.9 1c-1.3 0-2.3-1-2.3-2.8c0-1.7 1-2.8 2.3-2.8c.9 0 1.5.4 1.9 1c-.02-.04 0-.9 0-.9h.7v5.4c0 1.5-1 2.5-2.6 2.5c-1.5 0-2.3-.7-2.4-1.7zm2.6-1.3c1 0 1.7-.8 1.7-2.2c0-1.3-.7-2.2-1.7-2.2h-.1c-1 0-1.7.9-1.7 2.2c0 1.4.7 2.2 1.7 2.2h.1zm4.1.6v-5.5h.7s.04.9 0 .9c.4-.6 1.1-1 2-1c1.1 0 1.9.7 1.9 2c-.01-.02 0 3.6 0 3.6h-.7s-.02-3.4 0-3.4c0-1.1-.5-1.6-1.3-1.6h-.1c-1.2 0-1.8 1-1.8 2.2c.04.03 0 2.8 0 2.8h-.7zm6.2-6.5v-.9h.8v.9h-.8zm.1 6.5v-5.5h.7v5.5h-.7zm3.1 0V34h-1.2v-.6h1.2s.02-1.23 0-1.2c0-.7.3-1 1.1-1c-.04-.02 1.3 0 1.3 0v.6s-1.23-.02-1.2 0c-.4 0-.5.1-.5.4c.03.02 0 1.2 0 1.2h3.7v5.5h-.7V34h-3v4.9h-.7zm3.6-6.5v-.9h.9v.9h-.9zm2.3 3.7c0-1.6.9-2.8 2.5-2.8c1.2 0 2 .7 2.2 1.8h-.8c-.1-.7-.6-1.2-1.3-1.2h-.1c-1.2 0-1.8 1-1.8 2.2c0 1.2.6 2.3 1.8 2.3h.1c.7 0 1.2-.6 1.3-1.3h.8c-.2 1.2-1 1.9-2.2 1.9c-1.6 0-2.5-1.3-2.5-2.9zm5.8 1.3c0-1.2 1-1.6 1.9-1.7l1.7-.1v-.2c0-1-.5-1.5-1.4-1.5c-.7 0-1.3.3-1.4 1h-.7c0-1 .9-1.6 2.1-1.6c1.4 0 2.1.9 2.1 2.1v2.3c0 .3 0 .8.1 1.2h-.7v-.9c-.3.5-1 1-2 1c-1 0-1.7-.7-1.7-1.6zm1.9 1c.8 0 1.7-.7 1.7-1.5v-.7s-1.59.07-1.6.1c-.8 0-1.3.4-1.3 1c0 .6.5 1.1 1.1 1.1h.1zm4.1.5v-5.5h.7s.02.9 0 .9c.3-.6 1-1 1.9-1c1.1 0 2 .7 2 2c-.03-.02 0 3.6 0 3.6h-.7s-.04-3.4 0-3.4c0-1.1-.5-1.6-1.4-1.6c-1.2 0-1.8 1-1.8 2.2c.02.03 0 2.8 0 2.8h-.7zm7.8 0c-.7 0-1-.3-1-1V34h-1.3v-.6h1.3v-1.8h.7v1.8h1.4v.6h-1.4v3.8c0 .4.1.5.4.5c.05-.02 1.1 0 1.1 0v.6s-1.16-.02-1.2 0zm4.1.7h.7c.2.7.8 1.1 1.7 1.1h.2c.9 0 1.7-.5 1.7-1.9v-.9c-.3.6-.9 1-1.8 1c-1.4 0-2.4-1-2.4-2.8c0-1.7 1-2.8 2.4-2.8c.9 0 1.5.4 1.8 1c.03-.04 0-.9 0-.9h.7s.05 5.44 0 5.4c0 1.5-.9 2.5-2.5 2.5c-1.6 0-2.4-.7-2.5-1.7zm2.6-1.3c1 0 1.7-.8 1.7-2.2c0-1.3-.7-2.2-1.7-2.2h-.1c-1 0-1.7.9-1.7 2.2c0 1.4.7 2.2 1.7 2.2h.1zm4.2.6v-5.5h.6s.04 1.23 0 1.2c.3-.8 1-1.3 1.7-1.3c.04.03.5 0 .5 0v.7s-.4-.02-.4 0c-1.1 0-1.7.8-1.7 2.2v2.7h-.7zm3.5-2.8c0-1.7 1.1-2.8 2.5-2.8c1.4 0 2.5 1.1 2.5 2.8c0 1.7-1.1 2.9-2.5 2.9c-1.4 0-2.5-1.2-2.5-2.9zm2.6 2.3c1 0 1.7-.9 1.7-2.3c0-1.4-.7-2.2-1.7-2.2h-.1c-1 0-1.8.8-1.8 2.2c0 1.4.8 2.3 1.8 2.3h.1zm10.3-5h.7l-1.7 5.5h-1l-1.2-4.8l-1.3 4.8h-.9l-1.8-5.5h.7l1.6 4.8l1.2-4.8h.9l1.3 4.9l1.5-4.9zm3.8 5.5c-.7 0-1-.3-1-1V34h-1.3v-.6h1.3v-1.8h.7v1.8h1.4v.6h-1.4v3.8c0 .4.1.5.5.5c-.05-.02 1.1 0 1.1 0v.6s-1.26-.02-1.3 0zm2.4 0v-7.7h.7v3.1c.4-.6 1.1-1 2-1c1.2 0 1.9.8 1.9 1.9c-.05.05 0 3.7 0 3.7h-.8s.04-3.43 0-3.4c0-1.1-.4-1.6-1.3-1.6h-.1c-.8 0-1.7.7-1.7 2v3h-.7zm8.1-1.5c0-1.2 1.1-1.6 1.9-1.7c.03.01 1.8-.1 1.8-.1c0 0-.03-.24 0-.2c0-1-.6-1.5-1.4-1.5h-.1c-.7 0-1.3.3-1.3 1h-.7c0-1 .9-1.6 2.1-1.6c1.4 0 2.1.9 2.1 2.1v3.5h-.6c-.1-.3-.1-.6-.1-.9c-.2.5-1 1-1.9 1c-1 0-1.8-.7-1.8-1.6zm2 1c.7 0 1.7-.7 1.7-1.5c-.03 0 0-.7 0-.7c0 0-1.63.07-1.6.1c-.8 0-1.3.4-1.3 1c0 .6.4 1.1 1.1 1.1h.1zm4.1.5v-7.7h.7v3.1c.4-.6 1-1 2-1c1.2 0 1.8.8 1.8 1.9c.04.05 0 3.7 0 3.7h-.7s.02-3.43 0-3.4c0-1.1-.4-1.6-1.3-1.6h-.1c-.9 0-1.7.7-1.7 2v3h-.7zm5.9-2.8c0-1.9 1.2-2.8 2.5-2.8c1.3 0 2.2 1 2.2 2.4v.5s-3.95-.02-3.9 0c0 1.5.8 2.2 1.7 2.2c.8 0 1.3-.4 1.5-1.1h.7c-.2 1.1-1.1 1.7-2.2 1.7c-1.4 0-2.5-1-2.5-2.9zm4-.5c0-1-.6-1.7-1.5-1.7h-.1c-.7 0-1.5.4-1.6 1.7h3.2zm1.9 1.8c0-1.2 1-1.6 1.9-1.7l1.7-.1v-.2c0-1-.5-1.5-1.4-1.5c-.7 0-1.3.3-1.4 1h-.7c0-1 .9-1.6 2.1-1.6c1.4 0 2.1.9 2.1 2.1v2.3c0 .3 0 .8.1 1.2h-.7c0-.3-.1-.6-.1-.9c-.2.5-.9 1-1.9 1c-1 0-1.7-.7-1.7-1.6zm1.9 1c.7 0 1.7-.7 1.7-1.5v-.7s-1.6.07-1.6.1c-.8 0-1.3.4-1.3 1c0 .6.4 1.1 1.1 1.1h.1zm3.8-2.3c0-1.7 1-2.8 2.4-2.8c.7 0 1.5.4 1.9 1c-.03-.04 0-3.1 0-3.1h.7v7.7h-.7s-.03-.9 0-.9c-.4.6-1.2 1-1.9 1c-1.4 0-2.4-1.1-2.4-2.9zm2.5 2.3c1.2 0 1.8-1.1 1.8-2.3c0-1.2-.6-2.2-1.8-2.2c-1.2 0-1.8 1-1.8 2.2c0 1.2.6 2.3 1.8 2.3zm4.2.5v-1.1h1.1v1.1h-1.1z" stroke="none" fill="#192d39"/></g><g id="Polygon22332"><path d="m.8 17.2v-.9h.8v.9h-.8zm.1 6.5v-5.5h.7v5.5h-.7zm2.4 0v-5.5h.7s.03.95 0 1c.4-.7 1.1-1.1 2-1.1c1.1 0 1.9.7 1.9 2c-.02.03 0 3.6 0 3.6h-.7s-.03-3.35 0-3.3c0-1.1-.5-1.7-1.4-1.7C4.6 18.7 4 19.8 4 21c.03-.02 0 2.7 0 2.7h-.7zM18.7 16h1.2v7.7h-.7v-7l-2.7 7h-1.1l-2.7-7.1v7.1h-.7V16h1.3l2.7 7.2l2.7-7.2zm2.9 6.2c0-1.2 1-1.6 1.9-1.6c-.02-.04 1.7-.2 1.7-.2v-.2c0-.9-.5-1.5-1.4-1.5c-.7 0-1.3.4-1.4 1.1h-.7c.1-1 .9-1.7 2.1-1.7c1.4 0 2.1 1 2.1 2.1v2.3c0 .3 0 .8.1 1.2h-.7v-.8c-.3.5-1 .9-2 .9c-.9 0-1.7-.7-1.7-1.6zm1.9 1c.8 0 1.7-.6 1.7-1.5v-.7s-1.58.12-1.6.1c-.8.1-1.3.5-1.3 1.1c0 .6.5 1 1.1 1h.1zm3.8-2.2c0-1.6.9-2.9 2.5-2.9c1.2 0 2.1.7 2.2 1.9h-.7c-.2-.7-.7-1.3-1.4-1.3h-.1c-1.2 0-1.8 1.1-1.8 2.3c0 1.2.6 2.2 1.8 2.2h.1c.7 0 1.2-.5 1.4-1.2h.7c-.2 1.1-1 1.8-2.2 1.8c-1.6 0-2.5-1.2-2.5-2.8zm10 4.9s.04-3.05 0-3c-.3.6-1.1.9-1.8.9c-1.4 0-2.4-1.1-2.4-2.8c0-1.8 1-2.9 2.4-2.9c.7 0 1.5.4 1.8 1c.04.01 0-.9 0-.9h.8v7.7h-.8zm-1.7-2.7c1.2 0 1.7-1 1.7-2.2c0-1.2-.5-2.3-1.7-2.3h-.1c-1.2 0-1.7 1.1-1.7 2.3c0 1.2.5 2.2 1.7 2.2h.1zm4.2-1.3c-.05-.04 0-3.7 0-3.7h.7s-.03 3.44 0 3.4c0 1.1.4 1.6 1.3 1.6h.1c.8 0 1.6-.7 1.6-2v-3h.7v5.5h-.7v-1c-.3.7-.9 1.1-1.8 1.1c-1.3 0-1.9-.8-1.9-1.9zm5.9.3c0-1.2 1-1.6 1.8-1.6c.05-.04 1.8-.2 1.8-.2v-.2c0-.9-.5-1.5-1.4-1.5c-.7 0-1.3.4-1.4 1.1h-.7c0-1 .9-1.7 2.1-1.7c1.4 0 2.1 1 2.1 2.1v2.3c0 .3 0 .8.1 1.2h-.7c0-.2-.1-.6-.1-.8c-.2.5-.9.9-1.9.9c-1 0-1.7-.7-1.7-1.6zm1.9 1c.7 0 1.7-.6 1.7-1.5v-.7s-1.61.12-1.6.1c-.8.1-1.3.5-1.3 1.1c0 .6.4 1 1.1 1h.1zm4.1.5v-5.5h.7s-.05 1.28 0 1.3c.2-.9.9-1.3 1.7-1.3c-.04-.02.5 0 .5 0v.6s-.49.03-.5 0c-1 0-1.7.9-1.7 2.3v2.6h-.7zm3.9-6.5v-.9h.8v.9h-.8zm.1 6.5v-5.5h.7v5.5h-.7zm2.1-2.7c0-2 1.2-2.9 2.5-2.9c1.3 0 2.2 1.1 2.2 2.5v.4s-3.97.03-4 0c0 1.6.9 2.2 1.8 2.2c.8 0 1.3-.3 1.5-1h.7c-.3 1.1-1.1 1.6-2.2 1.6c-1.4 0-2.5-.9-2.5-2.8zm4-.6c-.1-.9-.6-1.7-1.5-1.7h-.1c-.7 0-1.5.4-1.7 1.7h3.3zm4.5 3.3V16s3.1.03 3.1 0c1.3 0 2.4.8 2.4 2.3c0 1.5-1.1 2.3-2.4 2.3c0-.04-2.3 0-2.3 0v3.1h-.8zm.8-3.9s2.13.05 2.1 0c1.1 0 1.8-.4 1.8-1.5c0-1-.7-1.6-1.8-1.6c.03.04-2.1 0-2.1 0v3.1zm5.7 2.4c0-1.2 1-1.6 1.8-1.6c.04-.04 1.8-.2 1.8-.2c0 0-.02-.19 0-.2c0-.9-.5-1.5-1.4-1.5c-.8 0-1.3.4-1.4 1.1h-.7c0-1 .9-1.7 2.1-1.7c1.4 0 2.1 1 2.1 2.1v2.3c0 .3 0 .8.1 1.2h-.7c-.1-.2-.1-.6-.1-.8c-.2.5-.9.9-1.9.9c-1 0-1.7-.7-1.7-1.6zm1.9 1c.7 0 1.7-.6 1.7-1.5c-.02.05 0-.7 0-.7c0 0-1.61.12-1.6.1c-.8.1-1.3.5-1.3 1.1c0 .6.4 1 1.1 1h.1zm4.1.5v-5.5h.6s.05 1.28 0 1.3c.3-.9 1-1.3 1.8-1.3c-.05-.02.4 0 .4 0v.6s-.39.03-.4 0c-1 0-1.7.9-1.7 2.3v2.6h-.7zm4 0V16h.7v5.1l2.9-2.9h1l-2.3 2.2l2.4 3.3h-.9l-2-2.8l-1.1 1.1v1.7h-.7zm14.5-5.5h.7l-1.7 5.5h-1L94.1 19l-1.3 4.7h-.9l-1.8-5.5h.7l1.6 4.9l1.2-4.9h.9l1.3 5l1.5-5zm1.8-1v-.9h.9v.9h-.9zm.1 6.5v-5.5h.7v5.5h-.7zm4.1 0c-.7 0-1-.2-1-1c-.03.04 0-3.9 0-3.9H101v-.6h1.3v-1.8h.7v1.8h1.4v.6H103s-.02 3.89 0 3.9c0 .3.1.4.4.4c.02.03 1.1 0 1.1 0v.6s-1.19.03-1.2 0zm2.4 0V16h.7s-.03 3.16 0 3.2c.3-.7 1-1.1 2-1.1c1.2 0 1.8.8 1.8 2c.02 0 0 3.6 0 3.6h-.7s.01-3.38 0-3.4c0-1-.4-1.6-1.3-1.6h-.1c-.9 0-1.7.8-1.7 2.1c-.03-.04 0 2.9 0 2.9h-.7z" stroke="none" fill="#192d39"/></g><g id="Polygon22331"><path d="m.6 4.7C.6 2.3 2.1.8 4.1.8c2 0 3.5 1.5 3.5 3.9c0 2.5-1.5 4-3.5 4c-2 0-3.5-1.5-3.5-4zM4.2 8c1.5 0 2.7-1.3 2.7-3.3c0-2-1.2-3.2-2.7-3.2h-.1c-1.6 0-2.7 1.2-2.7 3.2c0 2 1.1 3.3 2.7 3.3h.1zm8.7-4.9h.8l-2.1 5.5h-.9L8.6 3.1h.7l1.8 4.8l1.8-4.8zm1.4 2.7c0-1.9 1.2-2.8 2.4-2.8C18.1 3 19 4 19 5.4c-.03.05 0 .5 0 .5c0 0-3.99-.02-4 0c0 1.5.8 2.2 1.7 2.2h.1c.8 0 1.2-.4 1.4-1.1h.8c-.3 1.1-1.1 1.7-2.3 1.7c-1.3 0-2.4-1-2.4-2.9zm4-.5c-.1-1-.6-1.7-1.5-1.7h-.1c-.7 0-1.5.4-1.7 1.7h3.3zm2.1 3.3V3.1h.7v1.2c.2-.8.9-1.3 1.7-1.3c0 .03.5 0 .5 0v.7s-.44-.02-.4 0c-1.1 0-1.7.8-1.7 2.2c-.05.01 0 2.7 0 2.7h-.8zM25.9.9h5.2s-.04.86 0 .9c-2 1.2-3 3.2-3 6.6v.2h-.7s-.04-.34 0-.3c0-3.4 1.2-5.7 2.9-6.7c.02.02-4.4 0-4.4 0v-.7zm6 3.8c0-2.6 1-3.9 2.9-3.9c1.8 0 2.9 1.3 2.9 3.9c0 2.6-1.1 4-2.9 4c-1.9 0-2.9-1.4-2.9-4zM34.8 8c1 0 2.1-.7 2.1-3.3c0-2.5-1.1-3.2-2.1-3.2h-.1c-.9 0-2.1.7-2.1 3.2c0 2.6 1.2 3.3 2.1 3.3h.1zm3.8 1.8v-.4h.4c.4 0 .6-.2.6-.7c.02.04 0-.1 0-.1h-.6V7.5h1.1v1.3c0 .7-.4 1-1 1c-.03.04-.5 0-.5 0zm2.8-5.1c0-2.6 1.1-3.9 2.9-3.9c1.9 0 3 1.3 3 3.9c0 2.6-1.1 4-3 4c-1.8 0-2.9-1.4-2.9-4zm3 3.3c.9 0 2.1-.7 2.1-3.3c0-2.5-1.2-3.2-2.1-3.2h-.1c-.9 0-2.1.7-2.1 3.2c0 2.6 1.2 3.3 2.1 3.3h.1zm4.2-3.3c0-2.6 1.1-3.9 2.9-3.9c1.9 0 3 1.3 3 3.9c0 2.6-1.1 4-3 4c-1.8 0-2.9-1.4-2.9-4zm3 3.3c.9 0 2.1-.7 2.1-3.3c0-2.5-1.2-3.2-2.1-3.2h-.1c-.9 0-2.1.7-2.1 3.2c0 2.6 1.2 3.3 2.1 3.3h.1zm4.2-3.3c0-2.6 1.1-3.9 2.9-3.9c1.9 0 3 1.3 3 3.9c0 2.6-1.1 4-3 4c-1.8 0-2.9-1.4-2.9-4zm3 3.3c.9 0 2.1-.7 2.1-3.3c0-2.5-1.2-3.2-2.1-3.2h-.1c-.9 0-2.1.7-2.1 3.2c0 2.6 1.2 3.3 2.1 3.3h.1zm6.3-2.2c0-1.9 1.1-2.8 2.4-2.8c1.4 0 2.2 1 2.2 2.4c.03.05 0 .5 0 .5c0 0-3.93-.02-3.9 0c0 1.5.8 2.2 1.7 2.2h.1c.7 0 1.2-.4 1.4-1.1h.7c-.2 1.1-1.1 1.7-2.2 1.7c-1.4 0-2.4-1-2.4-2.9zm3.9-.5c0-1-.6-1.7-1.4-1.7h-.2c-.6 0-1.5.4-1.6 1.7h3.2zm2.2 3.3V3.1h.7s.01.86 0 .9c.3-.6 1-1 1.8-1c.8 0 1.5.4 1.8 1.1c.4-.7 1-1.1 1.9-1.1c1.1 0 1.9.7 1.9 2c-.02-.02 0 3.6 0 3.6h-.7s-.03-3.4 0-3.4c0-1.1-.4-1.6-1.3-1.6h-.1c-1.1 0-1.6 1-1.6 2.2v2.8h-.7s-.02-3.4 0-3.4c0-1.1-.4-1.6-1.3-1.6c-1.2 0-1.7 1-1.7 2.2v2.8h-.7zm9.8 2.2V3.1h.7s.01.86 0 .9c.3-.6 1.1-1 1.8-1C85 3 86 4.1 86 5.8c0 1.8-1 2.9-2.5 2.9c-.7 0-1.5-.4-1.8-1v3.1h-.7zm2.5-2.7c1.2 0 1.8-1.1 1.8-2.3c0-1.2-.6-2.2-1.8-2.2c-1.2 0-1.8 1-1.8 2.2c0 1.2.6 2.3 1.8 2.3zm4 .5V.9h.7v7.7h-.7zm2.1-2.8c0-1.7 1.1-2.8 2.5-2.8c1.4 0 2.6 1.1 2.6 2.8c0 1.7-1.2 2.9-2.6 2.9c-1.4 0-2.5-1.2-2.5-2.9zm2.6 2.3c1 0 1.7-.9 1.7-2.3c0-1.4-.7-2.2-1.7-2.2h-.1c-1 0-1.8.8-1.8 2.2c0 1.4.8 2.3 1.8 2.3h.1zm8.4-5l-2.3 5.3v1c0 .7-.3 1-1 1c-.05-.01-1.7 0-1.7 0v-.6h1.5c.4 0 .5-.1.5-.4c-.02-.05 0-1 0-1l-2.3-5.3h.7l1.9 4.4l1.9-4.4h.8zm.5 2.7c0-1.9 1.2-2.8 2.5-2.8c1.3 0 2.2 1 2.2 2.4v.5s-3.95-.02-3.9 0c0 1.5.8 2.2 1.7 2.2c.8 0 1.3-.4 1.5-1.1h.7c-.2 1.1-1.1 1.7-2.2 1.7c-1.4 0-2.5-1-2.5-2.9zm4-.5c0-1-.6-1.7-1.5-1.7h-.1c-.7 0-1.5.4-1.6 1.7h3.2zm1.9.5c0-1.9 1.2-2.8 2.4-2.8c1.4 0 2.2 1 2.2 2.4c.05.05 0 .5 0 .5c0 0-3.91-.02-3.9 0c0 1.5.8 2.2 1.7 2.2h.1c.7 0 1.2-.4 1.4-1.1h.7c-.2 1.1-1 1.7-2.2 1.7c-1.3 0-2.4-1-2.4-2.9zm3.9-.5c0-1-.6-1.7-1.4-1.7h-.1c-.7 0-1.5.4-1.7 1.7h3.2zm1.8 1.6h.8c0 .8.6 1.2 1.4 1.2h.1c.8 0 1.2-.4 1.2-1c0-.4-.2-.7-.9-.9l-.8-.1c-.9-.2-1.5-.6-1.5-1.5c0-1.1.9-1.6 1.9-1.6c1.4 0 2 .8 2.1 1.7h-.7c-.1-.6-.6-1.1-1.3-1.1h-.1c-.8 0-1.2.4-1.2.9c0 .5.3.7 1 .9l.8.2c.8.2 1.4.5 1.4 1.4c0 1.1-.8 1.7-2 1.7c-1.4 0-2.1-.8-2.2-1.8z" stroke="none" fill="#192d39"/></g></svg>