<?xml version="1.0" standalone="no"?><!DOCTYPE svg PUBLIC "-//W3C//DTD SVG 1.1//EN" "http://www.w3.org/Graphics/SVG/1.1/DTD/svg11.dtd"><svg xmlns="http://www.w3.org/2000/svg" version="1.1" width="95.1px" height="31.5px" viewBox="0 -3 95.1 31.5" style="top:-3px"><desc>Macquarie Shopping Centre</desc><defs/><g id="Polygon20779"><path d="m3.1 19.2h1.4c0 .9.7 1.5 1.9 1.5h.1c1 0 1.5-.5 1.5-1.1c0-.5-.3-.8-1.1-1l-1.3-.3C4.2 18 3.5 17.2 3.5 16c0-1.2 1.1-2.4 3-2.4c1.9 0 3 1.1 3 2.6H8.1c0-.8-.7-1.3-1.6-1.3h-.1c-.9 0-1.5.5-1.5 1.1c0 .5.3.8 1 1l1.3.2c1.4.3 2.2 1 2.2 2.3c0 1.4-1.2 2.4-3.1 2.4c-2.1 0-3.1-1-3.2-2.7zm7.7 2.6v-8h1.4s-.03 3.09 0 3.1c.3-.6.9-1 1.8-1c1.3 0 2 .9 2 2.2v3.7h-1.3s-.02-3.54 0-3.5c0-.8-.4-1.3-1.1-1.3c-.8 0-1.4.7-1.4 1.6c-.03.01 0 3.2 0 3.2h-1.4zm6.4-2.9c0-1.7 1.2-3 2.9-3c1.6 0 2.8 1.3 2.8 3c0 1.8-1.2 3-2.8 3c-1.7 0-2.9-1.2-2.9-3zm2.9 2c.9 0 1.5-.7 1.5-2c0-1.2-.6-1.9-1.5-1.9h-.1c-.8 0-1.4.7-1.4 1.9c0 1.3.6 2 1.4 2h.1zm4.1 3.2v-8h1.3s.04.73 0 .7c.3-.4 1-.9 1.8-.9c1.6 0 2.5 1.3 2.5 3c0 1.8-1 3-2.5 3c-.9 0-1.5-.4-1.8-.8c.04-.04 0 3 0 3h-1.3zm2.9-3.2c.8 0 1.4-.7 1.4-2c0-1.2-.6-1.9-1.4-1.9h-.1c-.8 0-1.5.7-1.5 1.9c0 1.3.7 2 1.5 2h.1zm4 3.2v-8h1.4s-.02.73 0 .7c.2-.4.9-.9 1.7-.9c1.6 0 2.6 1.3 2.6 3c0 1.8-1 3-2.6 3c-.8 0-1.5-.4-1.7-.8c-.02-.04 0 3 0 3h-1.4zm2.9-3.2c.8 0 1.4-.7 1.4-2c0-1.2-.6-1.9-1.4-1.9h-.1c-.7 0-1.4.7-1.4 1.9c0 1.3.7 2 1.4 2h.1zm4-5.7v-1.4h1.5v1.4H38zm.1 6.6v-5.7h1.3v5.7h-1.3zm2.9 0v-5.7h1.3s.04.79 0 .8c.4-.6 1-1 1.8-1c1.4 0 2.1.9 2.1 2.2c-.03-.03 0 3.7 0 3.7h-1.4s.04-3.54 0-3.5c0-.8-.3-1.3-1-1.3h-.1c-.7 0-1.4.7-1.4 1.6c.04.01 0 3.2 0 3.2H41zm6.3.7h1.3c.1.5.6.8 1.4.8h.1c.9 0 1.5-.5 1.5-1.5v-.8c-.3.5-.9.8-1.7.8c-1.3 0-2.5-1-2.5-2.9c0-2 1.2-3 2.5-3c.8 0 1.4.4 1.7.9v-.7h1.3s.03 5.81 0 5.8c0 1.3-1 2.5-2.9 2.5c-1.6 0-2.6-.8-2.7-1.9zm2.9-1.8c.8 0 1.4-.6 1.4-1.8c0-1.2-.6-1.9-1.4-1.9h-.1c-.7 0-1.4.6-1.4 1.9c0 1.2.7 1.8 1.4 1.8h.1zm6.3-2.9c0-2.4 1.4-4.2 3.8-4.2c2 0 3.2 1.2 3.3 2.8h-1.3c-.2-1-.9-1.5-1.9-1.5h-.1c-1.5 0-2.4 1.2-2.4 2.9c0 1.7.9 2.9 2.4 2.9h.1c1 0 1.7-.5 1.9-1.5h1.3c-.1 1.6-1.3 2.7-3.3 2.7c-2.4 0-3.8-1.7-3.8-4.1zm8.1 1.1c0-1.8 1.2-3 2.8-3c1.6 0 2.5 1.2 2.5 2.8v.6h-4c.1 1 .8 1.6 1.5 1.6h.1c.5 0 1-.4 1.1-.8h1.3c-.2 1.1-1.2 1.8-2.5 1.8c-1.5 0-2.8-1-2.8-3zm4-.6c0-.9-.6-1.3-1.2-1.3h-.1c-.6 0-1.2.4-1.3 1.3h2.6zm2.7 3.5v-5.7h1.3v.8c.3-.6 1-1 1.8-1c1.3 0 2 .9 2 2.2c.03-.03 0 3.7 0 3.7h-1.3v-3.5c0-.8-.3-1.3-1-1.3h-.1c-.8 0-1.4.7-1.4 1.6v3.2h-1.3zm8.7 0c-.9 0-1.4-.5-1.4-1.4c-.02.04 0-3.2 0-3.2h-1.2v-1.1h1.2v-1.9h1.3v1.9h1.3v1.1h-1.3v2.9c0 .5.1.6.6.6c-.03-.01.9 0 .9 0v1.1s-1.42.03-1.4 0zm2.5 0v-5.7h1.3v1.2c.2-.8.9-1.3 1.7-1.3h.4v1.2s-.52.05-.5 0c-1 0-1.6.6-1.6 1.7c.03-.03 0 2.9 0 2.9h-1.3zm4.1-2.9c0-1.8 1.1-3 2.7-3c1.6 0 2.6 1.2 2.6 2.8c0 .2-.1.4-.1.6h-3.9c0 1 .8 1.6 1.4 1.6h.1c.6 0 1-.4 1.1-.8h1.3c-.2 1.1-1.2 1.8-2.5 1.8c-1.4 0-2.7-1-2.7-3zm4-.6c-.1-.9-.6-1.3-1.3-1.3h-.1c-.6 0-1.2.4-1.3 1.3h2.7z" stroke="none" fill="#192d39"/></g><g id="Polygon20778"><path d="m26.9.9h2.2v8.1h-1.4V2.3L25.5 9h-1.6l-2.2-6.7v6.7h-1.4V.9h2.2l2.2 6.7L26.9.9zm3.7 6.5c0-1.3 1-1.8 2.1-1.8c-.04-.04 1.5-.2 1.5-.2c0 0-.02-.13 0-.1c0-.7-.4-1.1-1.1-1.1h-.1c-.5 0-1 .3-1 .8h-1.3c.1-1.1 1-1.9 2.4-1.9c1.5 0 2.4.9 2.4 2.1v3.8h-1.2c-.1-.2-.1-.6-.1-.8c-.3.5-.9.9-1.8.9c-1 0-1.8-.7-1.8-1.7zm2.2.6c.6 0 1.4-.5 1.4-1.2c-.02-.04 0-.4 0-.4c0 0-1.36.14-1.4.1c-.5.1-.9.3-.9.8c0 .4.3.7.8.7h.1zm3.9-1.9c0-1.8 1.1-3 2.8-3c1.4 0 2.4.7 2.5 2.1h-1.3c-.1-.6-.5-1-1.2-1h-.1c-.9 0-1.4.9-1.4 1.9c0 1 .5 1.9 1.4 1.9h.1c.7 0 1.1-.4 1.2-1h1.3c-.1 1.4-1.1 2.1-2.5 2.1c-1.7 0-2.8-1.2-2.8-3zm10.5 5.2s.02-3.07 0-3.1c-.2.5-.9.9-1.7.9c-1.6 0-2.6-1.3-2.6-3c0-1.7 1-3 2.6-3c.8 0 1.5.5 1.7.9c.02.01 0-.8 0-.8h1.3v8.1h-1.3zM45.8 8c.7 0 1.4-.7 1.4-1.9c0-1.2-.7-1.9-1.4-1.9h-.1c-.8 0-1.4.7-1.4 1.9c0 1.2.6 1.9 1.4 1.9h.1zm4.3-1c.03-.03 0-3.8 0-3.8h1.4s-.05 3.58 0 3.6c0 .8.3 1.2.9 1.2h.1c.7 0 1.3-.6 1.3-1.6c.04.01 0-3.2 0-3.2h1.4v5.8h-1.4s.04-.94 0-.9c-.2.6-.9 1-1.7 1c-1.3 0-2-.9-2-2.1zm6.4.4c0-1.3 1-1.8 2.1-1.8c-.01-.04 1.5-.2 1.5-.2v-.1c0-.7-.4-1.1-1-1.1h-.1c-.6 0-1 .3-1.1.8h-1.3c.1-1.1 1-1.9 2.4-1.9c1.5 0 2.4.9 2.4 2.1v2.5c0 .4 0 .9.1 1.3h-1.3v-.8c-.3.5-1 .9-1.8.9c-1.1 0-1.9-.7-1.9-1.7zm2.2.6c.7 0 1.4-.5 1.4-1.2v-.4s-1.33.14-1.3.1c-.5.1-1 .3-1 .8c0 .4.3.7.8.7h.1zM63 9V3.2h1.3s-.03 1.23 0 1.2c.2-.8.8-1.2 1.6-1.2c.05-.02.4 0 .4 0v1.2s-.46.02-.5 0c-1 0-1.5.6-1.5 1.6v3H63zm4.3-6.6V.9h1.4v1.5h-1.4zm.1 6.6V3.2h1.3v5.8h-1.3zM70 6.1c0-1.8 1.1-3 2.7-3c1.6 0 2.5 1.2 2.5 2.8v.6h-3.9c0 1 .7 1.5 1.4 1.5h.1c.6 0 1-.3 1.1-.8h1.3C75 8.4 74 9.1 72.7 9.1c-1.4 0-2.7-1-2.7-3zm3.9-.7c0-.8-.6-1.2-1.2-1.2h-.1c-.6 0-1.2.4-1.3 1.2h2.6z" stroke="none" fill="#192d39"/></g></svg>