<?xml version="1.0" standalone="no"?><!DOCTYPE svg PUBLIC "-//W3C//DTD SVG 1.1//EN" "http://www.w3.org/Graphics/SVG/1.1/DTD/svg11.dtd"><svg xmlns="http://www.w3.org/2000/svg" version="1.1" width="44px" height="11.5px" viewBox="0 -2 44 11.5" style="top:-2px"><desc>May 2024</desc><defs/><g id="Polygon23322"><path d="m11.1.6h.8v4.9h-.5V1L9.7 5.5h-.7L7.3.9v4.6h-.5V.6h.9l1.7 4.5L11.1.6zM13 4.5c0-.8.7-1 1.2-1.1c.01.04 1.1 0 1.1 0c0 0 .02-.18 0-.2c0-.6-.3-.9-.9-.9c-.4 0-.8.2-.9.6h-.4c0-.6.6-1 1.3-1c.9 0 1.4.6 1.4 1.3v2.3h-.4v-.6c-.2.3-.7.6-1.3.6c-.6 0-1.1-.4-1.1-1zm1.2.6c.5 0 1.1-.4 1.1-.9c.02 0 0-.5 0-.5l-1 .1c-.5 0-.8.3-.8.7c0 .4.3.6.7.6zM19.8 2l-1.5 3.3s.03.71 0 .7c0 .4-.2.6-.6.6c-.04.01-1.1 0-1.1 0v-.4s.99.03 1 0c.2 0 .3 0 .3-.2c-.03-.05 0-.6 0-.6L16.4 2h.5l1.2 2.8L19.3 2h.5zm2.3 3h2.6v.5h-3.2v-.5s1.95-2.03 2-2c.5-.6.6-.8.6-1.2c0-.5-.4-.9-1-.9c-.7 0-1.1.5-1.1 1.1h-.5c0-.9.7-1.5 1.6-1.5c.9 0 1.5.5 1.5 1.3c0 .6-.3 1-.7 1.4c-.03 0-1.8 1.8-1.8 1.8zm3.3-2c0-1.6.7-2.5 1.9-2.5c1.2 0 1.9.9 1.9 2.5c0 1.7-.7 2.5-1.9 2.5c-1.2 0-1.9-.8-1.9-2.5zm1.9 2.1c.6 0 1.4-.5 1.4-2.1c0-1.6-.8-2.1-1.4-2.1c-.6 0-1.4.5-1.4 2.1c0 1.6.8 2.1 1.4 2.1zm3.2-.1h2.6v.5H30v-.5l1.9-2c.6-.6.7-.8.7-1.2c0-.5-.4-.9-1-.9h-.1c-.6 0-1 .5-1 1.1h-.5c0-.9.6-1.5 1.5-1.5c.9 0 1.6.5 1.6 1.3c0 .6-.3 1-.8 1.4c.04 0-1.8 1.8-1.8 1.8zm5.5.5V4.3h-2.4v-.5L36 .6h.5v3.2h.8v.5h-.8v1.2h-.5zm-2-1.7h2V1.1l-2 2.7z" stroke="none" fill="#dcddce"/></g></svg>