<?xml version="1.0" standalone="no"?><!DOCTYPE svg PUBLIC "-//W3C//DTD SVG 1.1//EN" "http://www.w3.org/Graphics/SVG/1.1/DTD/svg11.dtd"><svg xmlns="http://www.w3.org/2000/svg" version="1.1" width="336.1px" height="146px" viewBox="0 -4 336.1 146" style="top:-4px"><desc>LIVE, WORK &amp; PLAY</desc><defs/><g id="Polygon21212"><path d="m78.9 87.1c0-4.8 3.3-8.1 8.8-11c-2.3-2.8-3.8-5.1-3.8-8c0-4.1 3.5-7.2 8.3-7.2c3.4 0 6.6 2.5 6.6 5.7c0 3.1-2.1 6.3-7.1 8.8c.3.5.6.9 1 1.3l9.1 10.3c1.6-3.2 1.8-7.2.2-10.4h4.1c0 3.5-.9 8-3.2 11.7l6 6.7H104s-3.34-3.78-3.3-3.8c-2.4 2.3-5.7 3.8-10 3.8c-8 0-11.8-3.7-11.8-7.9zm20.7 3l-9.3-10.8c-.7-.8-1.3-1.5-1.8-2.2c-4.2 2.4-6.1 5.4-6.1 9.2c0 4.4 3.4 7.3 8.8 7.3c3.5 0 6.4-1.4 8.4-3.5zm-8.7-15.7c3.5-1.9 5.4-4.6 5.4-7.1c0-3.3-1.5-5-4.6-5c-2.6 0-4.5 1.7-4.5 4.3c0 2.4 1.3 4.6 3.7 7.8zm70.8-4.2c0 5.6-6 9.4-18.1 9.4c.02-.02-4.7 0-4.7 0V95h-3.5V60.9s8.22-.04 8.2 0c12.1 0 18.1 3.7 18.1 9.3zm-22.8-8v16.1s4.72-.04 4.7 0c8.1 0 14.5-2.4 14.5-8.1c0-5.6-6.4-8-14.5-8c.02.04-4.7 0-4.7 0zm29.4-1.3h3.5v32.7l18.4-1.1l-.3 2.5h-21.6V60.9zM193.8 95l17.8-34.6L229.4 95h-3.9l-4.9-9.5h-20l-4.8 9.5h-2zm7.7-11.2h18.2l-9.1-17.6l-9.1 17.6zm57.8-22.9l-14 16.7V95h-3.5V78.1l-14.5-17.2h4.5l12.6 15l12.6-15h2.3z" stroke="none" fill="#192d39"/></g><g id="Polygon21211"><path d="m26.8 10.9h3.5v32.7l18.4-1.1l-.3 2.5H26.8V10.9zM59.2 45h-3.5V10.9h3.5V45zm10.5-34.1l14.7 28.8l14.9-28.8h2L83.5 45.4l-17.8-34.5h4zm61.2 0v2.5l-20.1-1.2v14.7h15.7l-.3 2.6l-15.4-1.2v15.4l20.4-1.2l-.3 2.5h-23.6V10.9h23.6zm9.3 38.6l-.5-.8c3.5-1.9 3.2-3.5 2-3.6c-1.7-.2-2.3-1.2-2.3-2.3c0-1.3 1.1-2.2 2.7-2.1c1.3.2 2.2 1.4 2.2 3.3c0 2.3-1.8 4.2-4.1 5.5zm66.4-38.6l-14.1 34.5l-7.9-19.2l-7.9 19.2l-14.2-34.5h3.8l11.4 27.6l6-14.6l-5.4-13h3.8l11.3 27.6l11.4-27.6h1.8zM243.4 28c0 9.4-7.8 17-17.2 17c-9.4 0-17.2-7.6-17.2-17c0-9.5 7.8-17.1 17.2-17.1c9.4 0 17.2 7.6 17.2 17.1zm-4.7-5.2c-3.4-8-11.6-12.2-18.5-9.4c-6.8 2.9-9.8 11.7-6.5 19.7c3.4 8 11.6 12.3 18.5 9.4c6.8-2.9 9.8-11.7 6.5-19.7zm36.6 19.9c1.61 2 3.2 2.1 3.2 2.1c0 0-.81.56-2.2.6c-2.8 0-4.1-.9-6.6-4.2c0 0-5.8-7.4-7.4-9.3c-1.4-1.8-2.4-2.3-3.5-2.3c-.01-.02-5.4 0-5.4 0V45h-3.5V10.9s8.17-.04 8.2 0c10.2 0 16.6 3.7 16.6 9.3c0 4.8-4.6 8.2-12.3 9.1c2.1.5 3.3 1.3 4.2 2.4l8.7 11zm-21.9-30.5v16.1s4.67-.04 4.7 0c6.8 0 13-2.4 13-8.1c0-5.6-6.2-8-13-8c-.03.04-4.7 0-4.7 0zm55.4 30.5c2.13 2.18 3.7 2.1 3.7 2.1c0 0-.79.56-2.2.6c-2.8 0-4.4-.9-7.4-4.2L293 31c-2.2-2.4-3.2-2.8-4.5-1.7h-.1c.03.04-1.2 1.2-1.2 1.2V45h-3.5V10.9h3.5v17.3l19.2-17.3h2.6l-18.5 16.6c2.4-.4 5.1 1.4 7 3.3c1.8 1.8 11.3 11.9 11.3 11.9z" stroke="none" fill="#192d39"/></g></svg>