<?xml version="1.0" standalone="no"?><!DOCTYPE svg PUBLIC "-//W3C//DTD SVG 1.1//EN" "http://www.w3.org/Graphics/SVG/1.1/DTD/svg11.dtd"><svg xmlns="http://www.w3.org/2000/svg" version="1.1" width="104.1px" height="18.5px" viewBox="0 -3 104.1 18.5" style="top:-3px"><desc>North Sydney CBD</desc><defs/><g id="Polygon20939"><path d="m8.5.9h1.4v8.1H8L4.6 2.7v6.3H3.2V.9h1.9l3.4 6.3V.9zm2.9 5.2c0-1.7 1.1-3 2.8-3c1.7 0 2.8 1.3 2.8 3c0 1.8-1.1 3-2.8 3c-1.7 0-2.8-1.2-2.8-3zM14.2 8c.9 0 1.5-.7 1.5-1.9c0-1.2-.6-1.9-1.5-1.9h-.1c-.8 0-1.4.7-1.4 1.9c0 1.2.6 1.9 1.4 1.9h.1zm4.1 1V3.2h1.3s.03 1.23 0 1.2c.3-.8.9-1.2 1.7-1.2c0-.02.4 0 .4 0v1.2s-.5.02-.5 0c-1 0-1.6.6-1.6 1.6c.05.04 0 3 0 3h-1.3zM25 9c-.9 0-1.4-.5-1.4-1.4c.02.01 0-3.3 0-3.3h-1.2V3.2h1.2V1.4h1.3v1.8h1.4v1.1h-1.4s.05 3 0 3c0 .4.2.6.6.6c.02-.04 1 0 1 0v1.1H25zm2.5 0V.9h1.4s-.03 3.16 0 3.2c.3-.6.9-1 1.8-1c1.3 0 2 .9 2 2.1v3.8h-1.3s-.02-3.56 0-3.6c0-.7-.4-1.2-1.1-1.2c-.8 0-1.4.6-1.4 1.6c-.03-.02 0 3.2 0 3.2h-1.4zM36 6.3h1.4c0 1 .7 1.6 1.9 1.6h.2c.9 0 1.4-.5 1.4-1.1c0-.5-.3-.9-1-1l-1.4-.3c-1.4-.3-2.1-1.1-2.1-2.3c0-1.2 1.1-2.4 3-2.4c1.9 0 3 1.1 3 2.6h-1.3C41 2.5 40.3 2 39.4 2h-.1c-.9 0-1.5.5-1.5 1.1c0 .6.4.9 1.1 1.1l1.2.2c1.4.3 2.2 1 2.2 2.3c0 1.4-1.1 2.4-3 2.4c-2.1 0-3.2-1-3.3-2.8zm13.5-3.1L47 8.7s.04 1.17 0 1.2c0 .9-.4 1.4-1.3 1.4c-.03-.04-2.1 0-2.1 0v-1.2h1.6c.5 0 .6-.1.6-.6c-.02.04 0-.8 0-.8l-2.5-5.5h1.5l1.6 3.9L48 3.2h1.5zm.3 2.9c0-1.7 1-3 2.6-3c.8 0 1.5.5 1.7.9c.02.01 0-3.1 0-3.1h1.3v8.1h-1.3s.02-.77 0-.8c-.2.5-.9.9-1.7.9c-1.6 0-2.6-1.3-2.6-3zM52.7 8c.7 0 1.4-.7 1.4-1.9c0-1.2-.7-1.9-1.4-1.9h-.1c-.8 0-1.4.7-1.4 1.9c0 1.2.6 1.9 1.4 1.9h.1zm4.4 1V3.2h1.3s-.01.86 0 .9c.3-.6 1-1 1.8-1c1.3 0 2 .9 2 2.1c.02.04 0 3.8 0 3.8h-1.3V5.4c0-.7-.3-1.2-1-1.2h-.1c-.8 0-1.4.6-1.4 1.6v3.2h-1.3zm6.4-2.9c0-1.8 1.1-3 2.7-3c1.6 0 2.6 1.2 2.6 2.8c0 .2-.1.4-.1.6h-3.9c0 1 .8 1.5 1.4 1.5h.1c.6 0 1-.3 1.1-.8h1.3c-.2 1.2-1.2 1.9-2.5 1.9c-1.4 0-2.7-1-2.7-3zm3.9-.7c0-.8-.6-1.2-1.2-1.2h-.1c-.6 0-1.2.4-1.3 1.2h2.6zm8-2.2L73 8.7s-.04 1.17 0 1.2c0 .9-.5 1.4-1.4 1.4c-.01-.04-2 0-2 0v-1.2h1.5c.5 0 .6-.1.6-.6v-.8l-2.5-5.5h1.5l1.6 3.9l1.6-3.9h1.5zM78.2 5c0-2.5 1.4-4.2 3.8-4.2c2 0 3.2 1.2 3.4 2.7H84c-.2-.9-.9-1.5-1.9-1.5h-.1c-1.5 0-2.4 1.2-2.4 3c0 1.7.9 2.9 2.4 2.9h.1c1 0 1.7-.6 1.9-1.5h1.4C85.2 8 84 9.1 82 9.1c-2.4 0-3.8-1.7-3.8-4.1zm8.7 4V.9s3.51.02 3.5 0c1.4 0 2.4.9 2.4 2.1c0 1-.5 1.7-1.3 1.9c.8.2 1.5.9 1.5 1.9c0 1.3-1.1 2.2-2.5 2.2h-3.6zm1.3-4.7h2c.8 0 1.2-.4 1.2-1.1c0-.7-.4-1-1.2-1c0-.04-2 0-2 0v2.1zm0 3.5s2.09-.03 2.1 0c.8 0 1.3-.4 1.3-1.2c0-.7-.5-1.1-1.3-1.1h-2.1v2.3zM94.6 9V.9s2.79.02 2.8 0c2.3 0 3.9 1.5 3.9 4.1c0 2.6-1.5 4-3.9 4h-2.8zm1.3-1.2s1.37-.03 1.4 0c1.6 0 2.7-.8 2.7-2.8c0-2-1.1-2.8-2.7-2.8c-.03-.04-1.4 0-1.4 0v5.6z" stroke="none" fill="#192d39"/></g></svg>