<?xml version="1.0" standalone="no"?><!DOCTYPE svg PUBLIC "-//W3C//DTD SVG 1.1//EN" "http://www.w3.org/Graphics/SVG/1.1/DTD/svg11.dtd"><svg xmlns="http://www.w3.org/2000/svg" version="1.1" width="255.1px" height="204.4px" viewBox="0 -3 255.1 204.4" style="top:-3px"><desc>Every 1, 1+MPR, 2, 2+MPR, 3 and 4 bed apartment showcases a palette of high quality finishes and market leading featu...</desc><defs/><g id="Polygon17874"><path d="m2.5 151.2c-.7 0-1.1-.3-1.1-1c.03-.01 0-3.9 0-3.9H.2v-.6h1.2v-1.8h.7v1.8h1.4v.6H2.1s.04 3.84 0 3.8c0 .4.2.5.5.5c-.02-.02 1.1 0 1.1 0v.6s-1.23-.02-1.2 0zm2.3 0v-7.7h.7s.04 3.12 0 3.1c.4-.6 1.1-1 2-1c1.2 0 1.9.8 1.9 2c-.01-.05 0 3.6 0 3.6h-.7s-.03-3.43 0-3.4c0-1.1-.5-1.6-1.3-1.6h-.2c-.8 0-1.7.7-1.7 2c.04.01 0 3 0 3h-.7zm6-2.8c0-1.9 1.2-2.8 2.4-2.8c1.4 0 2.3 1 2.3 2.4c-.04.05 0 .5 0 .5h-4c0 1.5.8 2.2 1.7 2.2h.1c.7 0 1.2-.4 1.4-1.1h.7c-.2 1.1-1 1.7-2.2 1.7c-1.3 0-2.4-1-2.4-2.9zm3.9-.5c0-1-.5-1.7-1.4-1.7h-.1c-.7 0-1.5.4-1.7 1.7h3.2zm4 .9h.8c0 1.1.9 1.8 2.1 1.8h.2c1.1 0 1.8-.7 1.8-1.5c0-.7-.5-1.1-1.5-1.3l-1.2-.2c-1.2-.3-1.8-.9-1.8-2c0-1.2 1-2.2 2.6-2.2c1.7 0 2.7.9 2.8 2.3h-.8c-.1-1-.9-1.6-1.9-1.6h-.1c-1.1 0-1.9.6-1.9 1.5c0 .7.5 1.1 1.3 1.2l1.2.2c1.3.3 2 .9 2 2.1c0 1.4-1 2.2-2.6 2.2c-1.9 0-3-.9-3-2.5zm12.1-3.1l-2.3 5.3s.02 1.04 0 1c0 .7-.3 1-1 1h-1.7v-.6h1.6c.3 0 .4-.1.4-.4v-1l-2.3-5.3h.8l1.8 4.4l1.9-4.4h.8zm.6 2.7c0-1.7 1-2.8 2.4-2.8c.7 0 1.5.4 1.8 1c.05-.04 0-3.1 0-3.1h.8v7.7h-.8s.05-.9 0-.9c-.3.6-1.1 1-1.8 1c-1.4 0-2.4-1.1-2.4-2.9zm2.5 2.3c1.2 0 1.7-1.1 1.7-2.3c0-1.2-.5-2.2-1.7-2.2h-.1c-1.1 0-1.7 1-1.7 2.2c0 1.2.6 2.3 1.7 2.3h.1zm4.2.5v-5.5h.7s.01.91 0 .9c.3-.6 1-1 1.9-1c1.1 0 2 .7 2 2c-.04-.01 0 3.6 0 3.6h-.8s.05-3.39 0-3.4c0-1.1-.4-1.6-1.3-1.6c-1.2 0-1.8 1-1.8 2.2v2.8h-.7zm6-2.8c0-1.9 1.1-2.8 2.4-2.8c1.4 0 2.2 1 2.2 2.4c.03.05 0 .5 0 .5h-3.9c0 1.5.8 2.2 1.7 2.2h.1c.7 0 1.2-.4 1.4-1.1h.7c-.2 1.1-1.1 1.7-2.2 1.7c-1.4 0-2.4-1-2.4-2.9zm3.9-.5c0-1-.6-1.7-1.4-1.7h-.2c-.6 0-1.5.4-1.6 1.7h3.2zm6.7-2.2l-2.3 5.3s.05 1.04 0 1c0 .7-.3 1-1 1h-1.7v-.6h1.6c.3 0 .4-.1.4-.4c.03-.05 0-1 0-1l-2.3-5.3h.8l1.9 4.4l1.9-4.4h.7zm3 1.6c0-2.2 1.3-3.9 3.5-3.9c1.7 0 2.9 1 3 2.4h-.8c-.1-.9-.8-1.7-2.2-1.7h-.1c-1.7 0-2.7 1.5-2.7 3.2c0 1.8 1 3.3 2.7 3.3h.1c1.4 0 2.1-.9 2.2-1.8h.8c-.1 1.4-1.3 2.5-3 2.5c-2.2 0-3.5-1.7-3.5-4zm8.1 3.9v-7.7s3.19-.02 3.2 0c1.2 0 2.1.7 2.1 2c0 .9-.6 1.6-1.2 1.8c.6.1 1.4.6 1.4 1.8c0 1.3-1 2.1-2.2 2.1c-.03-.02-3.3 0-3.3 0zm.7-4.3s2.41.03 2.4 0c.8 0 1.4-.5 1.4-1.3c0-.9-.6-1.4-1.4-1.4h-2.4v2.7zm0 3.6s2.4-.03 2.4 0c.9 0 1.6-.5 1.6-1.5c0-.9-.7-1.4-1.6-1.4c.01.04-2.4 0-2.4 0v2.9zm6.5.7v-7.7s2.63-.02 2.6 0c2.1 0 3.5 1.4 3.5 3.9c0 2.4-1.4 3.8-3.5 3.8c.03-.02-2.6 0-2.6 0zm.8-.7s1.72-.03 1.7 0c1.8 0 2.8-1.2 2.8-3.2c0-2-1-3.1-2.8-3.1h-1.7v6.3zm8.6-1h.7c0 .8.6 1.2 1.4 1.2h.1c.8 0 1.2-.4 1.2-1c0-.4-.2-.7-.9-.8l-.8-.2c-.8-.2-1.5-.6-1.5-1.5c0-1.1.9-1.6 1.9-1.6c1.4 0 2.1.8 2.1 1.7h-.7c-.1-.6-.5-1.1-1.3-1.1h-.1c-.8 0-1.2.4-1.2.9c0 .5.3.7 1 .9l.8.2c.8.2 1.5.5 1.5 1.4c0 1.1-.8 1.7-2.1 1.7c-1.4 0-2.1-.8-2.1-1.8zm5.6 1.7v-7.7h.8v5l2.9-2.8h1l-2.3 2.2l2.4 3.3h-.9l-2-2.8l-1.1 1v1.8h-.8zm10.8-5.5l-2.2 5.3s-.05 1.04 0 1c0 .7-.4 1-1.1 1h-1.7v-.6h1.6c.3 0 .4-.1.4-.4c.04-.05 0-1 0-1l-2.3-5.3h.8l1.9 4.4l1.9-4.4h.7zm1.1 5.5v-7.7h.7v7.7h-.7zm2.4-6.5v-.9h.8v.9h-.8zm.1 6.5v-5.5h.7v5.5h-.7zm2.4 0v-5.5h.7s.02.91 0 .9c.3-.6 1-1 1.9-1c1.1 0 2 .7 2 2c-.03-.01 0 3.6 0 3.6h-.7s-.05-3.39 0-3.4c0-1.1-.5-1.6-1.4-1.6c-1.2 0-1.8 1-1.8 2.2c.02.03 0 2.8 0 2.8h-.7zm6-2.8c0-1.9 1.2-2.8 2.4-2.8c1.4 0 2.2 1 2.2 2.4c.04.05 0 .5 0 .5h-3.9c0 1.5.8 2.2 1.7 2.2h.1c.7 0 1.2-.4 1.4-1.1h.7c-.2 1.1-1.1 1.7-2.2 1.7c-1.4 0-2.4-1-2.4-2.9zm3.9-.5c0-1-.6-1.7-1.4-1.7h-.1c-.7 0-1.5.4-1.7 1.7h3.2zm2.1 3.3v-1.1h1.1v1.1h-1.1z" stroke="none" fill="#dcddce"/></g><g id="Polygon17873"><path d="m.5 133.3c0-1.7 1.1-2.9 2.6-2.9c1.4 0 2.5 1.2 2.5 2.9c0 1.7-1.1 2.8-2.5 2.8c-1.5 0-2.6-1.1-2.6-2.8zm2.6 2.2c1 0 1.8-.8 1.8-2.2c0-1.4-.8-2.3-1.8-2.3h-.1c-1 0-1.7.9-1.7 2.3c0 1.4.7 2.2 1.7 2.2h.1zm4.4.5v-4.9H6.3v-.6h1.2s.03-1.18 0-1.2c0-.7.4-1 1.1-1c-.03.03 1.3 0 1.3 0v.6s-1.22.04-1.2 0c-.4 0-.5.1-.5.5c.04-.02 0 1.1 0 1.1h1.5v.6H8.2v4.9h-.7zm7.1 0c-.7 0-1.1-.2-1.1-1c.02.04 0-3.9 0-3.9h-1.2v-.6h1.2v-1.7h.7v1.7h1.4v.6h-1.4s.03 3.89 0 3.9c0 .3.1.4.5.4c-.03.03 1.1 0 1.1 0v.6s-1.24.03-1.2 0zm2.3 0v-7.7h.7s.03 3.17 0 3.2c.4-.7 1.1-1.1 2-1.1c1.2 0 1.9.8 1.9 2c-.02 0 0 3.6 0 3.6h-.7s-.04-3.38 0-3.4c0-1-.5-1.6-1.4-1.6h-.1c-.8 0-1.7.8-1.7 2.1c.03-.04 0 2.9 0 2.9h-.7zm6-2.7c0-2 1.2-2.9 2.4-2.9c1.4 0 2.3 1.1 2.3 2.5c-.05 0 0 .4 0 .4c0 0-4.01.04-4 0c0 1.6.8 2.2 1.7 2.2h.1c.7 0 1.2-.3 1.4-1h.7c-.2 1.1-1 1.6-2.2 1.6c-1.3 0-2.4-.9-2.4-2.8zm3.9-.6c0-.9-.6-1.7-1.4-1.7h-.1c-.7 0-1.5.4-1.7 1.7h3.2zm4.3-3.2v-.9h.9v.9h-.9zm.1 6.5v-5.5h.7v5.5h-.7zm2.1-2.7c0-1.8 1.1-2.9 2.5-2.9c.7 0 1.5.4 1.8 1c.02.01 0-3.1 0-3.1h.7v7.7h-.7s.02-.85 0-.8c-.3.6-1.1.9-1.8.9c-1.4 0-2.5-1.1-2.5-2.8zm2.6 2.2c1.2 0 1.7-1 1.7-2.2c0-1.2-.5-2.3-1.7-2.3h-.1c-1.2 0-1.7 1.1-1.7 2.3c0 1.2.5 2.2 1.7 2.2h.1zm8.9-5l-2.3 5.3s.04 1.09 0 1.1c0 .7-.3.9-1 .9c0 .05-1.7 0-1.7 0v-.6s1.59.04 1.6 0c.3 0 .4-.1.4-.4c.03 0 0-.9 0-.9l-2.3-5.4h.8l1.9 4.5l1.9-4.5h.7zm1.1 5.5v-7.7h.7v7.7h-.7zm2.4 0v-7.7h.8v7.7h-.8zm2.4-6.5v-.9h.9v.9h-.9zm.1 6.5v-5.5h.7v5.5h-.7zm2.1-2.7c0-1.6.9-2.9 2.6-2.9c1.1 0 2 .7 2.1 1.9h-.7c-.1-.7-.7-1.3-1.4-1.3h-.1c-1.2 0-1.8 1.1-1.8 2.3c0 1.2.6 2.2 1.8 2.2h.1c.7 0 1.2-.5 1.4-1.2h.7c-.2 1.1-1 1.8-2.1 1.8c-1.7 0-2.6-1.2-2.6-2.8zm8.5 2.7v-7.7h.7v7h4.7v.7h-5.4zm6.3-1.5c0-1.2 1-1.6 1.9-1.6c-.04-.03 1.7-.2 1.7-.2v-.2c0-.9-.5-1.5-1.4-1.5c-.7 0-1.3.4-1.4 1.1h-.7c0-1 .9-1.7 2.1-1.7c1.4 0 2.1 1 2.1 2.1v2.3c0 .4 0 .8.1 1.2h-.7v-.8c-.3.5-1 .9-2 .9c-1 0-1.7-.6-1.7-1.6zm1.9 1c.8 0 1.7-.6 1.7-1.4v-.8s-1.59.13-1.6.1c-.8.1-1.3.5-1.3 1.1c0 .6.5 1 1.1 1h.1zm4.1.5v-5.5h.7s.02.96 0 1c.3-.6 1-1.1 1.9-1.1c1.1 0 2 .7 2 2c-.03.04 0 3.6 0 3.6h-.7s-.04-3.34 0-3.3c0-1.1-.5-1.7-1.4-1.7c-1.2 0-1.8 1.1-1.8 2.3c.02-.02 0 2.7 0 2.7h-.7zm6-2.7c0-2 1.2-2.9 2.4-2.9c1.4 0 2.2 1.1 2.2 2.5c.04 0 0 .4 0 .4c0 0-3.92.04-3.9 0c0 1.6.8 2.2 1.7 2.2h.1c.7 0 1.2-.3 1.4-1h.7c-.2 1.1-1.1 1.6-2.2 1.6c-1.4 0-2.4-.9-2.4-2.8zm3.9-.6c0-.9-.6-1.7-1.4-1.7h-.1c-.7 0-1.5.4-1.7 1.7h3.2zm4.1-.5c0-2.3 1.3-4 3.5-4c1.7 0 2.9 1.1 3 2.5h-.8c-.1-.9-.8-1.8-2.1-1.8h-.1c-1.8 0-2.7 1.5-2.7 3.3c0 1.8.9 3.2 2.7 3.2h.1c1.3 0 2-.8 2.1-1.7h.8c-.1 1.4-1.3 2.4-3 2.4c-2.2 0-3.5-1.7-3.5-3.9zm7.6 1.1c0-1.7 1.2-2.9 2.6-2.9c1.4 0 2.5 1.2 2.5 2.9c0 1.7-1.1 2.8-2.5 2.8c-1.4 0-2.6-1.1-2.6-2.8zm2.6 2.2c1 0 1.8-.8 1.8-2.2c0-1.4-.8-2.3-1.8-2.3h-.1c-1 0-1.7.9-1.7 2.3c0 1.4.7 2.2 1.7 2.2h.1zm7.5-5h.7L104 136h-.9l-2.1-5.5h.8l1.8 4.9l1.8-4.9zm1.4 2.8c0-2 1.1-2.9 2.4-2.9c1.3 0 2.2 1.1 2.2 2.5c.02 0 0 .4 0 .4c0 0-3.94.04-3.9 0c0 1.6.8 2.2 1.7 2.2h.1c.7 0 1.2-.3 1.4-1h.7c-.2 1.1-1.1 1.6-2.2 1.6c-1.4 0-2.4-.9-2.4-2.8zm3.9-.6c0-.9-.6-1.7-1.5-1.7h-.1c-.7 0-1.5.4-1.6 1.7h3.2zm9.8-4.4h.7v7.7h-.9l-4.3-6.6v6.6h-.7v-7.7h.9l4.3 6.6v-6.6zm2.4 6.2c0-1.2 1-1.6 1.9-1.6c-.03-.03 1.7-.2 1.7-.2v-.2c0-.9-.5-1.5-1.4-1.5c-.7 0-1.3.4-1.4 1.1h-.7c.1-1 .9-1.7 2.1-1.7c1.4 0 2.1 1 2.1 2.1v2.3c0 .4 0 .8.1 1.2h-.7v-.8c-.3.5-1 .9-2 .9c-1 0-1.7-.6-1.7-1.6zm1.9 1c.8 0 1.7-.6 1.7-1.4v-.8s-1.59.13-1.6.1c-.8.1-1.3.5-1.3 1.1c0 .6.5 1 1.1 1h.1zm5.7.5c-.8 0-1.1-.2-1.1-1v-3.9h-1.3v-.6h1.3v-1.7h.7v1.7h1.4v.6h-1.4s.02 3.89 0 3.9c0 .3.1.4.5.4c-.04.03 1.1 0 1.1 0v.6s-1.25.03-1.2 0zm2.2-6.5v-.9h.9v.9h-.9zm.1 6.5v-5.5h.7v5.5h-.7zm2.1-2.7c0-1.7 1.1-2.9 2.5-2.9c1.5 0 2.6 1.2 2.6 2.9c0 1.7-1.1 2.8-2.6 2.8c-1.4 0-2.5-1.1-2.5-2.8zm2.6 2.2c1 0 1.8-.8 1.8-2.2c0-1.4-.8-2.3-1.8-2.3h-.1c-1 0-1.8.9-1.8 2.3c0 1.4.8 2.2 1.8 2.2h.1zm3.9.5v-5.5h.7v1c.3-.6 1-1.1 1.9-1.1c1.1 0 2 .7 2 2c-.04.04 0 3.6 0 3.6h-.7s-.05-3.34 0-3.3c0-1.1-.5-1.7-1.4-1.7c-1.2 0-1.8 1.1-1.8 2.3v2.7h-.7zm6-1.5c0-1.2 1-1.6 1.8-1.6c.05-.03 1.8-.2 1.8-.2c0 0-.02-.19 0-.2c0-.9-.5-1.5-1.4-1.5c-.8 0-1.3.4-1.4 1.1h-.7c0-1 .9-1.7 2.1-1.7c1.4 0 2.1 1 2.1 2.1v2.3c0 .4 0 .8.1 1.2h-.7c0-.2-.1-.6-.1-.8c-.2.5-.9.9-1.9.9c-1 0-1.7-.6-1.7-1.6zm1.9 1c.7 0 1.7-.6 1.7-1.4c-.02-.05 0-.8 0-.8c0 0-1.61.13-1.6.1c-.8.1-1.3.5-1.3 1.1c0 .6.4 1 1.1 1h.1zm4.1.5v-7.7h.7v7.7h-.7zm4.9 0v-7.7s3.03.03 3 0c1.4 0 2.5.8 2.5 2.3c0 1.5-1.1 2.3-2.5 2.3c.03-.04-2.3 0-2.3 0v3.1h-.7zm.7-3.8s2.17-.05 2.2 0c1 0 1.8-.5 1.8-1.6c0-1-.8-1.6-1.8-1.6c-.03.05-2.2 0-2.2 0v3.2zm5.7 2.3c0-1.2 1-1.6 1.9-1.6c-.02-.03 1.7-.2 1.7-.2c0 0 .02-.19 0-.2c0-.9-.5-1.5-1.4-1.5c-.7 0-1.3.4-1.4 1.1h-.7c.1-1 .9-1.7 2.1-1.7c1.4 0 2.1 1 2.1 2.1v2.3c0 .4 0 .8.1 1.2h-.7v-.8c-.2.5-1 .9-2 .9c-.9 0-1.7-.6-1.7-1.6zm1.9 1c.8 0 1.7-.6 1.7-1.4c.02-.05 0-.8 0-.8c0 0-1.57.13-1.6.1c-.8.1-1.3.5-1.3 1.1c0 .6.5 1 1.1 1h.1zm4.1.5v-5.5h.7v1.3c.2-.9.9-1.3 1.7-1.3c-.01-.02.5 0 .5 0v.6s-.45.04-.5 0c-1 0-1.7.9-1.7 2.3c.04-.04 0 2.6 0 2.6h-.7zm4 0v-7.7h.7v5.1l2.9-2.9h1l-2.3 2.2l2.4 3.3h-.9l-2-2.8l-1.1 1.1v1.7h-.7zm7.6-2.7c0-1.7 1.1-2.9 2.6-2.9c1.4 0 2.5 1.2 2.5 2.9c0 1.7-1.1 2.8-2.5 2.8c-1.5 0-2.6-1.1-2.6-2.8zm2.6 2.2c1 0 1.8-.8 1.8-2.2c0-1.4-.8-2.3-1.8-2.3h-.1c-1 0-1.7.9-1.7 2.3c0 1.4.7 2.2 1.7 2.2h.1zm3.9-1.3c-.03-.04 0-3.7 0-3.7h.7s-.02 3.44 0 3.4c0 1.1.4 1.6 1.3 1.6h.1c.8 0 1.6-.7 1.6-2v-3h.7v5.5h-.7v-1c-.3.7-.9 1.1-1.8 1.1c-1.3 0-1.9-.8-1.9-1.9zm7.8 1.8c-.7 0-1-.2-1-1v-3.9h-1.3v-.6h1.3v-1.7h.7v1.7h1.4v.6h-1.4v3.9c0 .3.1.4.4.4c.05.03 1.1 0 1.1 0v.6s-1.16.03-1.2 0zm6.2 0c-.8 0-1.1-.2-1.1-1v-3.9h-1.3v-.6h1.3v-1.7h.7v1.7h1.4v.6h-1.4s.02 3.89 0 3.9c0 .3.1.4.5.4c-.04.03 1.1 0 1.1 0v.6s-1.25.03-1.2 0zm1.8-2.7c0-1.7 1.1-2.9 2.5-2.9c1.5 0 2.6 1.2 2.6 2.9c0 1.7-1.1 2.8-2.6 2.8c-1.4 0-2.5-1.1-2.5-2.8zm2.6 2.2c1 0 1.7-.8 1.7-2.2c0-1.4-.7-2.3-1.7-2.3h-.1c-1 0-1.8.9-1.8 2.3c0 1.4.8 2.2 1.8 2.2h.1zm10.4-5h.7l-1.8 5.5h-1l-1.2-4.7l-1.2 4.7h-1l-1.8-5.5h.8l1.5 4.9l1.2-4.9h1l1.3 5l1.5-5zm1.4 4c0-1.2 1.1-1.6 1.9-1.6c.01-.03 1.8-.2 1.8-.2c0 0-.05-.19 0-.2c0-.9-.6-1.5-1.4-1.5h-.1c-.7 0-1.3.4-1.4 1.1h-.7c.1-1 1-1.7 2.1-1.7c1.5 0 2.2 1 2.2 2.1v3.5h-.6c-.1-.2-.1-.6-.1-.8c-.2.5-1 .9-1.9.9c-1 0-1.8-.6-1.8-1.6zm1.9 1c.8 0 1.8-.6 1.8-1.4c-.05-.05 0-.8 0-.8c0 0-1.65.13-1.6.1c-.8.1-1.4.5-1.4 1.1c0 .6.5 1 1.1 1h.1zm4.2.5v-5.5h.6v1.3c.3-.9 1-1.3 1.7-1.3c.02-.02.5 0 .5 0v.6s-.43.04-.4 0c-1.1 0-1.7.9-1.7 2.3c-.03-.04 0 2.6 0 2.6h-.7zm3.5-2.7c0-1.8 1-2.9 2.4-2.9c.8 0 1.5.4 1.9 1c-.02.01 0-3.1 0-3.1h.7v7.7h-.7s-.02-.85 0-.8c-.4.6-1.1.9-1.9.9c-1.4 0-2.4-1.1-2.4-2.8zm2.5 2.2c1.2 0 1.8-1 1.8-2.2c0-1.2-.6-2.3-1.8-2.3c-1.2 0-1.8 1.1-1.8 2.3c0 1.2.6 2.2 1.8 2.2zm3.9-1.1h.7c0 .7.6 1.1 1.4 1.1h.1c.8 0 1.2-.3 1.2-1c0-.4-.2-.6-.9-.8l-.8-.2c-.8-.2-1.5-.5-1.5-1.5c0-1 .9-1.6 1.9-1.6c1.4 0 2.1.9 2.1 1.8h-.7c-.1-.6-.5-1.2-1.3-1.2h-.1c-.8 0-1.2.5-1.2 1c0 .5.3.7 1 .9l.8.1c.8.2 1.5.6 1.5 1.5c0 1-.9 1.6-2.1 1.6c-1.4 0-2.1-.7-2.1-1.7z" stroke="none" fill="#dcddce"/></g><g id="Polygon17872"><path d="m7.5 115.4h.7l-1.8 5.5h-.9l-1.3-4.8l-1.2 4.8h-1l-1.7-5.5h.7l1.5 4.8l1.3-4.8h.9l1.3 4.9l1.5-4.9zm1.8-1v-.9h.8v.9h-.8zm0 6.5v-5.5h.8v5.5h-.8zm4.2 0c-.8 0-1.1-.3-1.1-1c.02-.01 0-3.9 0-3.9h-1.2v-.6h1.2v-1.8h.7v1.8h1.4v.6h-1.4s.03 3.84 0 3.8c0 .4.1.5.5.5c-.03-.02 1.1 0 1.1 0v.6s-1.24-.02-1.2 0zm2.3 0v-7.7h.7s.02 3.12 0 3.1c.4-.6 1.1-1 2-1c1.2 0 1.9.8 1.9 2c-.03-.05 0 3.6 0 3.6h-.7s-.04-3.43 0-3.4c0-1.1-.5-1.6-1.4-1.6h-.1c-.8 0-1.7.7-1.7 2c.02.01 0 3 0 3h-.7zm8.5 0v-5.5h.7s-.01.86 0 .9c.3-.6 1-1 1.8-1c.8 0 1.5.4 1.7 1.1c.4-.7 1.1-1.1 2-1.1c1.1 0 1.9.7 1.9 2c-.04-.01 0 3.6 0 3.6h-.8s.05-3.39 0-3.4c0-1.1-.4-1.6-1.2-1.6h-.1c-1.1 0-1.6 1-1.6 2.2c-.02.03 0 2.8 0 2.8h-.7s-.04-3.39 0-3.4c0-1.1-.5-1.6-1.3-1.6h-.1c-1.1 0-1.6 1-1.6 2.2v2.8h-.7zm9.4-2.8c0-1.7 1.2-2.8 2.6-2.8c1.4 0 2.5 1.1 2.5 2.8c0 1.7-1.1 2.9-2.5 2.9c-1.4 0-2.6-1.2-2.6-2.9zm2.6 2.3c1 0 1.8-.9 1.8-2.3c0-1.4-.8-2.2-1.8-2.2h-.1c-1 0-1.7.8-1.7 2.2c0 1.4.7 2.3 1.7 2.3h.1zm3.5-1.2h.8c0 .8.6 1.2 1.4 1.2h.1c.8 0 1.2-.4 1.2-1c0-.4-.2-.7-.9-.8l-.8-.2c-.9-.2-1.5-.6-1.5-1.5c0-1.1.9-1.6 1.9-1.6c1.4 0 2 .8 2.1 1.7h-.7c-.1-.6-.6-1.1-1.3-1.1h-.1c-.8 0-1.2.4-1.2.9c0 .5.3.7 1 .9l.8.2c.8.2 1.4.5 1.4 1.4c0 1.1-.8 1.7-2 1.7c-1.4 0-2.1-.8-2.2-1.8zm7.4 1.7c-.7 0-1-.3-1-1c-.03-.01 0-3.9 0-3.9h-1.3v-.6h1.3v-1.8h.7v1.8h1.4v.6h-1.4s-.02 3.84 0 3.8c0 .4.1.5.4.5c.02-.02 1.1 0 1.1 0v.6s-1.19-.02-1.2 0zm4.5 0v-5.5h.7v1.2c.2-.8.9-1.3 1.7-1.3c0 .03.5 0 .5 0v.7h-.4c-1.1 0-1.8.8-1.8 2.2c.05.01 0 2.7 0 2.7h-.7zm3.6-2.8c0-1.9 1.2-2.8 2.4-2.8c1.4 0 2.2 1 2.2 2.4c.04.05 0 .5 0 .5H56c0 1.5.8 2.2 1.7 2.2h.1c.7 0 1.2-.4 1.4-1.1h.7c-.2 1.1-1.1 1.7-2.2 1.7c-1.4 0-2.4-1-2.4-2.9zm3.9-.5c0-1-.6-1.7-1.4-1.7h-.1c-.7 0-1.5.4-1.7 1.7h3.2zm1.8 1.6h.7c.1.8.7 1.2 1.5 1.2h.1c.7 0 1.2-.4 1.2-1c0-.4-.2-.7-1-.8l-.8-.2c-.8-.2-1.5-.6-1.5-1.5c0-1.1 1-1.6 2-1.6c1.4 0 2 .8 2.1 1.7h-.7c-.1-.6-.6-1.1-1.3-1.1h-.1c-.8 0-1.2.4-1.2.9c0 .5.3.7 1 .9l.8.2c.8.2 1.4.5 1.4 1.4c0 1.1-.8 1.7-2 1.7c-1.4 0-2.1-.8-2.2-1.8zm5.7-4.8v-.9h.8v.9h-.8zm0 6.5v-5.5h.7v5.5h-.7zm2.2-2.8c0-1.7 1-2.8 2.4-2.8c.7 0 1.5.4 1.8 1c.05-.04 0-3.1 0-3.1h.8v7.7h-.8s.05-.9 0-.9c-.3.6-1.1 1-1.8 1c-1.4 0-2.4-1.1-2.4-2.9zm2.5 2.3c1.2 0 1.7-1.1 1.7-2.3c0-1.2-.5-2.2-1.7-2.2h-.1c-1.1 0-1.7 1-1.7 2.2c0 1.2.6 2.3 1.7 2.3h.1zm3.9-2.3c0-1.9 1.2-2.8 2.5-2.8c1.3 0 2.2 1 2.2 2.4c-.02.05 0 .5 0 .5h-4c0 1.5.8 2.2 1.7 2.2h.1c.8 0 1.2-.4 1.5-1.1h.7c-.3 1.1-1.1 1.7-2.2 1.7c-1.4 0-2.5-1-2.5-2.9zm4-.5c-.1-1-.6-1.7-1.5-1.7h-.1c-.7 0-1.5.4-1.7 1.7h3.3zm2.1 3.3v-5.5h.8s-.04.91 0 .9c.3-.6 1-1 1.9-1c1.1 0 1.9.7 1.9 2c.01-.01 0 3.6 0 3.6h-.7v-3.4c0-1.1-.4-1.6-1.3-1.6h-.1c-1.2 0-1.7 1-1.7 2.2c-.04.03 0 2.8 0 2.8h-.8zm6-2.8c0-1.6.9-2.8 2.5-2.8c1.2 0 2.1.7 2.2 1.8h-.7c-.1-.7-.7-1.2-1.4-1.2h-.1c-1.2 0-1.8 1-1.8 2.2c0 1.2.6 2.3 1.8 2.3h.1c.7 0 1.2-.6 1.4-1.3h.7c-.2 1.2-1 1.9-2.2 1.9c-1.6 0-2.5-1.2-2.5-2.9zm5.8 0c0-1.9 1.2-2.8 2.4-2.8c1.4 0 2.2 1 2.2 2.4c.04.05 0 .5 0 .5h-3.9c0 1.5.8 2.2 1.7 2.2h.1c.7 0 1.2-.4 1.4-1.1h.7c-.2 1.1-1.1 1.7-2.2 1.7c-1.4 0-2.4-1-2.4-2.9zm3.9-.5c0-1-.6-1.7-1.4-1.7h-.1c-.7 0-1.5.4-1.7 1.7h3.2zm1.8 1.6h.7c.1.8.7 1.2 1.5 1.2h.1c.7 0 1.2-.4 1.2-1c0-.4-.2-.7-1-.8l-.8-.2c-.8-.2-1.5-.6-1.5-1.5c0-1.1 1-1.6 2-1.6c1.4 0 2 .8 2.1 1.7h-.7c-.1-.6-.6-1.1-1.3-1.1h-.1c-.8 0-1.2.4-1.2.9c0 .5.3.7 1 .9l.8.2c.8.2 1.4.5 1.4 1.4c0 1.1-.8 1.7-2 1.7c-1.4 0-2.1-.8-2.2-1.8zm7.6-1.1c0-1.9 1.2-2.8 2.4-2.8c1.4 0 2.2 1 2.2 2.4c.05.05 0 .5 0 .5h-3.9c0 1.5.8 2.2 1.7 2.2h.1c.7 0 1.2-.4 1.4-1.1h.7c-.2 1.1-1 1.7-2.2 1.7c-1.3 0-2.4-1-2.4-2.9zm3.9-.5c0-1-.6-1.7-1.4-1.7h-.1c-.7 0-1.5.4-1.7 1.7h3.2zm2.2 3.3v-5.5h.7s.03.91 0 .9c.3-.6 1.1-1 2-1c1.1 0 1.9.7 1.9 2c-.02-.01 0 3.6 0 3.6h-.7s-.03-3.39 0-3.4c0-1.1-.5-1.6-1.4-1.6c-1.2 0-1.8 1-1.8 2.2c.03.03 0 2.8 0 2.8h-.7zm6.2-6.5v-.9h.9v.9h-.9zm-1.8 8.3v-.6h1.5c.3 0 .4-.1.4-.4v-6.3h.7s.02 6.31 0 6.3c0 .7-.3 1-1 1H117zm4-4.6c0-1.7 1.1-2.8 2.5-2.8c1.5 0 2.6 1.1 2.6 2.8c0 1.7-1.1 2.9-2.6 2.9c-1.4 0-2.5-1.2-2.5-2.9zm2.6 2.3c1 0 1.8-.9 1.8-2.3c0-1.4-.8-2.2-1.8-2.2h-.1c-1 0-1.8.8-1.8 2.2c0 1.4.8 2.3 1.8 2.3h.1zm8.4-5l-2.3 5.3s.02 1.04 0 1c0 .7-.3 1-1 1H127v-.6h1.6c.3 0 .4-.1.4-.4v-1l-2.3-5.3h.8l1.8 4.4l1.9-4.4h.8zm1-1v-.9h.9v.9h-.9zm.1 6.5v-5.5h.7v5.5h-.7zm2.4 0v-5.5h.7s.04.91 0 .9c.4-.6 1.1-1 2-1c1.1 0 1.9.7 1.9 2c-.01-.01 0 3.6 0 3.6h-.7s-.02-3.39 0-3.4c0-1.1-.5-1.6-1.3-1.6h-.1c-1.2 0-1.8 1-1.8 2.2c.04.03 0 2.8 0 2.8h-.7zm5.9.8h.7c.1.6.8 1 1.7 1h.1c.9 0 1.8-.5 1.8-1.9v-.9c-.4.6-1 1-1.9 1c-1.3 0-2.3-1-2.3-2.8c0-1.7 1-2.8 2.3-2.8c.9 0 1.5.4 1.9 1c-.03-.04 0-.9 0-.9h.7v5.4c0 1.5-1 2.5-2.6 2.5c-1.6 0-2.3-.7-2.4-1.6zm2.6-1.4c1 0 1.7-.8 1.7-2.2c0-1.3-.7-2.2-1.7-2.2h-.1c-1 0-1.7.9-1.7 2.2c0 1.4.7 2.2 1.7 2.2h.1zm6.3-1.3c-.01.01 0-3.6 0-3.6h.7s.01 3.39 0 3.4c0 1 .4 1.6 1.3 1.6h.1c.8 0 1.6-.8 1.6-2c.03-.05 0-3 0-3h.7v5.5h-.7s.03-1.05 0-1.1c-.3.8-.9 1.2-1.8 1.2c-1.2 0-1.9-.8-1.9-2zm6.2 1.9v-5.5h.7s-.01.91 0 .9c.3-.6 1-1 1.9-1c1.1 0 1.9.7 1.9 2c.04-.01 0 3.6 0 3.6h-.7s.03-3.39 0-3.4c0-1.1-.4-1.6-1.3-1.6h-.1c-1.1 0-1.7 1-1.7 2.2v2.8h-.7zm6.2-6.5v-.9h.8v.9h-.8zm0 6.5v-5.5h.7v5.5h-.7zm2.5 0v-5.5h.7s-.01.91 0 .9c.3-.6 1-1 1.9-1c1.1 0 1.9.7 1.9 2c.04-.01 0 3.6 0 3.6h-.7s.02-3.39 0-3.4c0-1.1-.4-1.6-1.3-1.6h-.1c-1.2 0-1.7 1-1.7 2.2v2.8h-.7zm7.8 0c-.7 0-1-.3-1-1c-.04-.01 0-3.9 0-3.9h-1.3v-.6h1.3v-1.8h.7v1.8h1.3v.6h-1.3s-.03 3.84 0 3.8c0 .4.1.5.4.5c.01-.02 1.1 0 1.1 0v.6s-1.2-.02-1.2 0zm1.9-2.8c0-1.9 1.2-2.8 2.4-2.8c1.4 0 2.3 1 2.3 2.4c-.03.05 0 .5 0 .5h-4c0 1.5.8 2.2 1.7 2.2h.1c.7 0 1.2-.4 1.4-1.1h.8c-.3 1.1-1.1 1.7-2.3 1.7c-1.3 0-2.4-1-2.4-2.9zm4-.5c-.1-1-.6-1.7-1.5-1.7h-.1c-.7 0-1.5.4-1.7 1.7h3.3zm2.1 3.3v-5.5h.7v1.2c.2-.8.9-1.3 1.7-1.3c0 .03.5 0 .5 0v.7h-.4c-1.1 0-1.8.8-1.8 2.2c.05.01 0 2.7 0 2.7h-.7zm4 0v-5.5h.7s-.03 1.24 0 1.2c.2-.8.9-1.3 1.7-1.3c-.02.03.5 0 .5 0v.7h-.5c-1 0-1.7.8-1.7 2.2c.03.01 0 2.7 0 2.7h-.7zm4-1.9c-.03.01 0-3.6 0-3.6h.7s-.02 3.39 0 3.4c0 1 .4 1.6 1.3 1.6h.1c.8 0 1.6-.8 1.6-2v-3h.7v5.5h-.7s.01-1.05 0-1.1c-.3.8-.9 1.2-1.8 1.2c-1.3 0-1.9-.8-1.9-2zm6.2 4.1v-7.7h.7s-.03.86 0 .9c.3-.6 1.1-1 1.8-1c1.4 0 2.5 1.1 2.5 2.8c0 1.8-1.1 2.9-2.5 2.9c-.7 0-1.5-.4-1.8-1c-.03 0 0 3.1 0 3.1h-.7zm2.5-2.7c1.2 0 1.7-1.1 1.7-2.3c0-1.2-.5-2.2-1.7-2.2h-.1c-1.2 0-1.7 1-1.7 2.2c0 1.2.5 2.3 1.7 2.3h.1zm5.4.5c-.7 0-1-.3-1-1c-.02-.01 0-3.9 0-3.9h-1.3v-.6h1.3v-1.8h.7v1.8h1.4v.6h-1.4v3.8c0 .4.1.5.4.5c.04-.02 1.1 0 1.1 0v.6s-1.17-.02-1.2 0zm1.9-2.8c0-1.9 1.2-2.8 2.5-2.8c1.3 0 2.2 1 2.2 2.4v.5h-4c0 1.5.9 2.2 1.8 2.2c.8 0 1.3-.4 1.5-1.1h.7c-.3 1.1-1.1 1.7-2.2 1.7c-1.4 0-2.5-1-2.5-2.9zm4-.5c-.1-1-.6-1.7-1.5-1.7h-.1c-.7 0-1.5.4-1.7 1.7h3.3zm1.9.5c0-1.7 1-2.8 2.4-2.8c.7 0 1.5.4 1.8 1c.04-.04 0-3.1 0-3.1h.8v7.7h-.8s.04-.9 0-.9c-.3.6-1.1 1-1.8 1c-1.4 0-2.4-1.1-2.4-2.9zm2.5 2.3c1.2 0 1.7-1.1 1.7-2.3c0-1.2-.5-2.2-1.7-2.2h-.1c-1.1 0-1.7 1-1.7 2.2c0 1.2.6 2.3 1.7 2.3h.1zm10.1-5h.8l-2.2 5.5h-.8l-2.2-5.5h.8l1.8 4.8l1.8-4.8zm1.8-1v-.9h.9v.9h-.9zm.1 6.5v-5.5h.7v5.5h-.7zm2.1-2.8c0-1.9 1.2-2.8 2.5-2.8c1.3 0 2.2 1 2.2 2.4v.5h-4c.1 1.5.9 2.2 1.8 2.2c.8 0 1.3-.4 1.5-1.1h.7c-.2 1.1-1.1 1.7-2.2 1.7c-1.4 0-2.5-1-2.5-2.9zm4-.5c0-1-.6-1.7-1.5-1.7h-.1c-.7 0-1.5.4-1.6 1.7h3.2zm8.7-2.2h.7l-1.8 5.5h-1l-1.2-4.8l-1.2 4.8h-1l-1.8-5.5h.8l1.5 4.8l1.2-4.8h1l1.3 4.9l1.5-4.9zm1.3 3.8h.7c.1.8.7 1.2 1.5 1.2h.1c.7 0 1.2-.4 1.2-1c0-.4-.2-.7-1-.8l-.8-.2c-.8-.2-1.4-.6-1.4-1.5c0-1.1.9-1.6 1.9-1.6c1.4 0 2 .8 2.1 1.7h-.7c-.1-.6-.6-1.1-1.3-1.1h-.1c-.8 0-1.2.4-1.2.9c0 .5.3.7 1 .9l.8.2c.8.2 1.4.5 1.4 1.4c0 1.1-.8 1.7-2 1.7c-1.4 0-2.1-.8-2.2-1.8z" stroke="none" fill="#dcddce"/></g><g id="Polygon17871"><path d="m.9 105.7v-5.5h.7v1c.3-.6 1-1.1 1.9-1.1c1.1 0 1.9.7 1.9 2c.04.04 0 3.6 0 3.6h-.7s.03-3.34 0-3.3c0-1.1-.4-1.7-1.3-1.7h-.1c-1.1 0-1.7 1.1-1.7 2.3v2.7h-.7zm5.9-2.7c0-1.7 1.1-2.9 2.6-2.9c1.4 0 2.5 1.2 2.5 2.9c0 1.7-1.1 2.8-2.5 2.8c-1.5 0-2.6-1.1-2.6-2.8zm2.6 2.2c1 0 1.8-.8 1.8-2.2c0-1.4-.8-2.3-1.8-2.3h-.1c-1 0-1.8.9-1.8 2.3c0 1.4.8 2.2 1.8 2.2h.1zm5.4.5c-.7 0-1-.2-1-1c-.03.04 0-3.9 0-3.9h-1.3v-.6h1.3v-1.7h.7v1.7h1.4v.6h-1.4v3.9c0 .3.1.4.4.4c.03.03 1.1 0 1.1 0v.6s-1.18.03-1.2 0zm2.4 0V98h.7s-.02 3.17 0 3.2c.4-.7 1-1.1 2-1.1c1.2 0 1.8.8 1.8 2c.03 0 0 3.6 0 3.6h-.7s.02-3.38 0-3.4c0-1-.4-1.6-1.3-1.6h-.1c-.9 0-1.7.8-1.7 2.1c-.02-.04 0 2.9 0 2.9h-.7zm6.2-6.5v-.9h.8v.9h-.8zm0 6.5v-5.5h.7v5.5h-.7zm2.5 0v-5.5h.7s-.03.96 0 1c.3-.6 1-1.1 1.9-1.1c1.1 0 1.9.7 1.9 2c.02.04 0 3.6 0 3.6h-.7s.01-3.34 0-3.3c0-1.1-.4-1.7-1.3-1.7h-.1c-1.2 0-1.7 1.1-1.7 2.3c-.03-.02 0 2.7 0 2.7h-.7zm5.8.8h.7c.1.7.8 1 1.7 1h.1c1 0 1.8-.5 1.8-1.9v-.9c-.3.6-.9 1-1.8 1c-1.4 0-2.4-1-2.4-2.7c0-1.8 1-2.9 2.4-2.9c.9 0 1.5.4 1.8 1v-.9h.7s.02 5.49 0 5.5c0 1.4-.9 2.5-2.5 2.5c-1.6 0-2.4-.7-2.5-1.7zm2.6-1.4c1 0 1.7-.7 1.7-2.1c0-1.4-.7-2.3-1.7-2.3h-.1c-1 0-1.7.9-1.7 2.3c0 1.4.7 2.1 1.7 2.1h.1zm7.1-.2v.8h-.7V98h.7v3.1c.3-.6 1.1-1 1.8-1c1.5 0 2.5 1.1 2.5 2.9c0 1.7-1 2.8-2.5 2.8c-.7 0-1.5-.3-1.8-.9zm1.8.3c1.2 0 1.8-1 1.8-2.2c0-1.2-.6-2.3-1.8-2.3c-1.2 0-1.8 1.1-1.8 2.3c0 1.2.6 2.2 1.8 2.2zm3.6-2.2c0-2 1.2-2.9 2.5-2.9c1.3 0 2.2 1.1 2.2 2.5v.4s-3.95.04-3.9 0c0 1.6.8 2.2 1.7 2.2c.8 0 1.3-.3 1.5-1h.7c-.2 1.1-1.1 1.6-2.2 1.6c-1.4 0-2.5-.9-2.5-2.8zm4-.6c0-.9-.6-1.7-1.5-1.7h-.1c-.7 0-1.5.4-1.6 1.7h3.2zm3.7 3.3c-.7 0-1-.2-1-1v-3.9h-1.3v-.6h1.3v-1.7h.7v1.7h1.4v.6h-1.4s.02 3.89 0 3.9c0 .3.1.4.5.4c-.04.03 1.1 0 1.1 0v.6s-1.25.03-1.3 0zm9.2-5.5h.7l-1.7 5.5h-1l-1.2-4.7l-1.3 4.7h-.9l-1.8-5.5h.7l1.6 4.9l1.2-4.9h.9l1.3 5l1.5-5zm1.4 2.8c0-2 1.2-2.9 2.5-2.9c1.3 0 2.2 1.1 2.2 2.5v.4s-3.96.04-4 0c.1 1.6.9 2.2 1.8 2.2c.8 0 1.3-.3 1.5-1h.7c-.3 1.1-1.1 1.6-2.2 1.6c-1.4 0-2.5-.9-2.5-2.8zm4-.6c-.1-.9-.6-1.7-1.5-1.7h-.1c-.7 0-1.5.4-1.6 1.7h3.2zm1.9.6c0-2 1.1-2.9 2.4-2.9c1.4 0 2.2 1.1 2.2 2.5c.04 0 0 .4 0 .4c0 0-3.92.04-3.9 0c0 1.6.8 2.2 1.7 2.2h.1c.7 0 1.2-.3 1.4-1h.7c-.2 1.1-1.1 1.6-2.2 1.6c-1.4 0-2.4-.9-2.4-2.8zm3.9-.6c0-.9-.6-1.7-1.4-1.7h-.2c-.6 0-1.4.4-1.6 1.7h3.2zm2.2 3.3v-5.5h.7s.02.96 0 1c.3-.6 1-1.1 1.9-1.1c1.1 0 2 .7 2 2c-.03.04 0 3.6 0 3.6h-.7s-.05-3.34 0-3.3c0-1.1-.5-1.7-1.4-1.7c-1.2 0-1.8 1.1-1.8 2.3c.02-.02 0 2.7 0 2.7h-.7zm13.2-5.5l-2.3 5.3s-.01 1.09 0 1.1c0 .7-.3.9-1.1.9c.05.05-1.6 0-1.6 0v-.6s1.54.04 1.5 0c.4 0 .5-.1.5-.4c-.02 0 0-.9 0-.9l-2.4-5.4h.8l1.9 4.5l1.9-4.5h.8zm.5 2.8c0-1.7 1.1-2.9 2.5-2.9c1.5 0 2.6 1.2 2.6 2.9c0 1.7-1.1 2.8-2.6 2.8c-1.4 0-2.5-1.1-2.5-2.8zm2.6 2.2c1 0 1.7-.8 1.7-2.2c0-1.4-.7-2.3-1.7-2.3h-.1c-1 0-1.8.9-1.8 2.3c0 1.4.8 2.2 1.8 2.2h.1zm3.8-1.3c.05-.04 0-3.7 0-3.7h.8s-.04 3.44 0 3.4c0 1.1.4 1.6 1.3 1.6h.1c.8 0 1.6-.7 1.6-2v-3h.7v5.5h-.7v-1c-.3.7-.9 1.1-1.9 1.1c-1.2 0-1.9-.8-1.9-1.9zm8.1.3c0-1.2 1.1-1.6 1.9-1.6c.03-.03 1.8-.2 1.8-.2c0 0-.03-.19 0-.2c0-.9-.6-1.5-1.4-1.5h-.1c-.7 0-1.3.4-1.3 1.1h-.7c0-1 .9-1.7 2.1-1.7c1.4 0 2.1 1 2.1 2.1v3.5h-.6c-.1-.2-.1-.6-.1-.8c-.2.5-1 .9-1.9.9c-1 0-1.8-.6-1.8-1.6zm2 1c.7 0 1.7-.6 1.7-1.4c-.03-.05 0-.8 0-.8c0 0-1.62.13-1.6.1c-.8.1-1.3.5-1.3 1.1c0 .6.4 1 1.1 1h.1zm4.1.5v-5.5h.7v1c.3-.6 1-1.1 1.9-1.1c1.1 0 1.9.7 1.9 2c.04.04 0 3.6 0 3.6h-.7s.03-3.34 0-3.3c0-1.1-.4-1.7-1.3-1.7h-.1c-1.1 0-1.7 1.1-1.7 2.3v2.7h-.7zm5.9-2.7c0-1.8 1.1-2.9 2.5-2.9c.7 0 1.5.4 1.8 1c.03.01 0-3.1 0-3.1h.7v7.7h-.7s.03-.85 0-.8c-.3.6-1.1.9-1.8.9c-1.4 0-2.5-1.1-2.5-2.8zm2.6 2.2c1.2 0 1.7-1 1.7-2.2c0-1.2-.5-2.3-1.7-2.3h-.1c-1.2 0-1.7 1.1-1.7 2.3c0 1.2.5 2.2 1.7 2.2h.1zm8 .5c-.7 0-1-.2-1-1c-.04.04 0-3.9 0-3.9h-1.3v-.6h1.3v-1.7h.7v1.7h1.3v.6h-1.3s-.03 3.89 0 3.9c0 .3.1.4.4.4c.01.03 1.1 0 1.1 0v.6s-1.2.03-1.2 0zm2.3 0V98h.8s-.04 3.17 0 3.2c.3-.7 1-1.1 1.9-1.1c1.3 0 1.9.8 1.9 2c.01 0 0 3.6 0 3.6h-.7v-3.4c0-1-.4-1.6-1.3-1.6h-.1c-.9 0-1.7.8-1.7 2.1c-.04-.04 0 2.9 0 2.9h-.8zm6-2.7c0-2 1.2-2.9 2.5-2.9c1.3 0 2.2 1.1 2.2 2.5v.4s-3.97.04-4 0c0 1.6.9 2.2 1.8 2.2c.8 0 1.3-.3 1.5-1h.7c-.3 1.1-1.1 1.6-2.2 1.6c-1.4 0-2.5-.9-2.5-2.8zm4-.6c-.1-.9-.6-1.7-1.5-1.7h-.1c-.7 0-1.5.4-1.7 1.7h3.3zm4.3 3.3V98h.7v7.7h-.7zm2.2-1.5c0-1.2 1-1.6 1.9-1.6c-.02-.03 1.7-.2 1.7-.2c0 0 .02-.19 0-.2c0-.9-.5-1.5-1.4-1.5c-.7 0-1.3.4-1.4 1.1h-.7c.1-1 .9-1.7 2.1-1.7c1.4 0 2.1 1 2.1 2.1v2.3c0 .4 0 .8.1 1.2h-.7v-.8c-.2.5-1 .9-2 .9c-.9 0-1.7-.6-1.7-1.6zm1.9 1c.8 0 1.7-.6 1.7-1.4c.02-.05 0-.8 0-.8c0 0-1.57.13-1.6.1c-.8.1-1.3.5-1.3 1.1c0 .6.5 1 1.1 1h.1zm4.1.5v-5.5h.7s.04.96 0 1c.4-.6 1.1-1.1 2-1.1c1.1 0 1.9.7 1.9 2c-.01.04 0 3.6 0 3.6h-.7s-.02-3.34 0-3.3c0-1.1-.5-1.7-1.3-1.7h-.1c-1.2 0-1.8 1.1-1.8 2.3c.04-.02 0 2.7 0 2.7h-.7zm6-2.7c0-1.8 1-2.9 2.4-2.9c.8 0 1.6.4 1.9 1c-.02.01 0-3.1 0-3.1h.7v7.7h-.7s-.02-.85 0-.8c-.3.6-1.1.9-1.9.9c-1.4 0-2.4-1.1-2.4-2.8zm2.5 2.2c1.2 0 1.8-1 1.8-2.2c0-1.2-.6-2.3-1.8-2.3c-1.2 0-1.8 1.1-1.8 2.3c0 1.2.6 2.2 1.8 2.2zm3.9-1.1h.7c0 .7.6 1.1 1.4 1.1h.1c.8 0 1.2-.3 1.2-1c0-.4-.2-.6-.9-.8l-.8-.2c-.8-.2-1.5-.5-1.5-1.5c0-1 .9-1.6 1.9-1.6c1.4 0 2.1.9 2.1 1.8h-.7c-.1-.6-.5-1.2-1.3-1.2h-.1c-.8 0-1.2.5-1.2 1c0 .5.3.7 1 .9l.8.1c.8.2 1.5.6 1.5 1.5c0 1-.8 1.6-2.1 1.6c-1.4 0-2.1-.7-2.1-1.7zm5.3-1.1c0-1.6.9-2.9 2.5-2.9c1.2 0 2.1.7 2.2 1.9h-.7c-.1-.7-.7-1.3-1.4-1.3h-.1c-1.2 0-1.8 1.1-1.8 2.3c0 1.2.6 2.2 1.8 2.2h.1c.7 0 1.2-.5 1.4-1.2h.7c-.2 1.1-1 1.8-2.2 1.8c-1.6 0-2.5-1.2-2.5-2.8zm5.8 1.2c0-1.2 1.1-1.6 1.9-1.6c0-.03 1.7-.2 1.7-.2c0 0 .04-.19 0-.2c0-.9-.5-1.5-1.3-1.5h-.1c-.7 0-1.3.4-1.4 1.1h-.7c.1-1 1-1.7 2.1-1.7c1.5 0 2.2 1 2.2 2.1v3.5h-.6c-.1-.2-.1-.6-.1-.8c-.2.5-1 .9-2 .9c-.9 0-1.7-.6-1.7-1.6zm1.9 1c.8 0 1.7-.6 1.7-1.4c.04-.05 0-.8 0-.8c0 0-1.55.13-1.6.1c-.7.1-1.3.5-1.3 1.1c0 .6.5 1 1.1 1h.1zm4.1 2.7v-7.7h.8s-.04.91 0 .9c.3-.6 1.1-1 1.8-1c1.4 0 2.5 1.1 2.5 2.9c0 1.7-1.1 2.8-2.5 2.8c-.7 0-1.5-.3-1.8-.9c-.04-.05 0 3 0 3h-.8zm2.6-2.7c1.2 0 1.7-1 1.7-2.2c0-1.2-.5-2.3-1.7-2.3h-.1c-1.2 0-1.7 1.1-1.7 2.3c0 1.2.5 2.2 1.7 2.2h.1zm3.6-2.2c0-2 1.2-2.9 2.5-2.9c1.3 0 2.2 1.1 2.2 2.5c-.02 0 0 .4 0 .4c0 0-3.98.04-4 0c0 1.6.9 2.2 1.8 2.2c.8 0 1.3-.3 1.5-1h.7c-.3 1.1-1.1 1.6-2.2 1.6c-1.4 0-2.5-.9-2.5-2.8zm4-.6c-.1-.9-.6-1.7-1.5-1.7h-.1c-.7 0-1.5.4-1.7 1.7h3.3zm5 2.5c.04-.05 0 .8 0 .8h-.7V98h.7s.04 3.11 0 3.1c.4-.6 1.2-1 1.9-1c1.4 0 2.4 1.1 2.4 2.9c0 1.7-1 2.8-2.4 2.8c-.7 0-1.5-.3-1.9-.9zm1.9.3c1.1 0 1.7-1 1.7-2.2c0-1.2-.6-2.3-1.7-2.3h-.1c-1.2 0-1.8 1.1-1.8 2.3c0 1.2.6 2.2 1.8 2.2h.1zm3.6-2.2c0-2 1.2-2.9 2.4-2.9c1.4 0 2.3 1.1 2.3 2.5c-.03 0 0 .4 0 .4c0 0-3.99.04-4 0c0 1.6.8 2.2 1.7 2.2h.1c.7 0 1.2-.3 1.4-1h.8c-.3 1.1-1.1 1.6-2.3 1.6c-1.3 0-2.4-.9-2.4-2.8zm4-.6c-.1-.9-.6-1.7-1.5-1.7h-.1c-.7 0-1.5.4-1.7 1.7h3.3zm6.6-2.2l-2.2 5.3s-.02 1.09 0 1.1c0 .7-.4.9-1.1.9c.03.05-1.6 0-1.6 0v-.6s1.52.04 1.5 0c.4 0 .5-.1.5-.4c-.04 0 0-.9 0-.9l-2.4-5.4h.8l1.9 4.5l1.9-4.5h.7zm.6 2.8c0-1.7 1.1-2.9 2.5-2.9c1.4 0 2.6 1.2 2.6 2.9c0 1.7-1.2 2.8-2.6 2.8c-1.4 0-2.5-1.1-2.5-2.8zm2.6 2.2c1 0 1.7-.8 1.7-2.2c0-1.4-.7-2.3-1.7-2.3h-.1c-1 0-1.8.9-1.8 2.3c0 1.4.8 2.2 1.8 2.2h.1zm3.9.5v-5.5h.7v1c.3-.6 1-1.1 1.9-1.1c1.1 0 1.9.7 1.9 2c.04.04 0 3.6 0 3.6h-.7s.03-3.34 0-3.3c0-1.1-.4-1.7-1.3-1.7h-.1c-1.1 0-1.7 1.1-1.7 2.3v2.7h-.7zm5.9-2.7c0-1.8 1.1-2.9 2.5-2.9c.7 0 1.5.4 1.8 1c.03.01 0-3.1 0-3.1h.7v7.7h-.7s.03-.85 0-.8c-.3.6-1.1.9-1.8.9c-1.4 0-2.5-1.1-2.5-2.8zm2.6 2.2c1.2 0 1.7-1 1.7-2.2c0-1.2-.5-2.3-1.7-2.3h-.1c-1.2 0-1.7 1.1-1.7 2.3c0 1.2.5 2.2 1.7 2.2h.1zm3.8 1.8v-.4s.29-.04.3 0c.4 0 .7-.3.7-.7c-.05 0 0-.2 0-.2h-.7v-1.1h1.1s.04 1.35 0 1.4c0 .6-.3 1-1 1h-.4z" stroke="none" fill="#dcddce"/></g><g id="Polygon17870"><path d="m1.1 90.6v-7.7h5.1v.7H1.8v2.9h3.8v.7H1.8v3.4h-.7zm6 0v-5.5h.7s-.03 1.24 0 1.2c.2-.8.9-1.3 1.7-1.3c-.02.03.5 0 .5 0v.7h-.5c-1 0-1.7.8-1.7 2.2c.03.01 0 2.7 0 2.7h-.7zm3.7-1.5c0-1.2 1-1.6 1.9-1.7c-.04.02 1.7-.1 1.7-.1v-.2c0-1-.5-1.5-1.4-1.5c-.7 0-1.3.3-1.4 1h-.7c0-1 .9-1.6 2.1-1.6c1.4 0 2.1.9 2.1 2.1v2.3c0 .3 0 .8.1 1.2h-.7c0-.3-.1-.6-.1-.9c-.2.5-.9 1-1.9 1c-1 0-1.7-.7-1.7-1.6zm1.9 1c.7 0 1.7-.7 1.7-1.5v-.7s-1.6.08-1.6.1c-.8 0-1.3.4-1.3 1c0 .6.5 1.1 1.1 1.1h.1zm4.1.5v-5.5h.7s.01.86 0 .9c.3-.6 1-1 1.8-1c.8 0 1.5.4 1.8 1.1c.4-.7 1-1.1 1.9-1.1c1.1 0 1.9.7 1.9 2c-.02-.01 0 3.6 0 3.6h-.7s-.03-3.39 0-3.4c0-1.1-.4-1.6-1.3-1.6h-.1c-1.1 0-1.6 1-1.6 2.2v2.8h-.7s-.02-3.39 0-3.4c0-1.1-.4-1.6-1.3-1.6c-1.2 0-1.7 1-1.7 2.2v2.8h-.7zm9.5-2.8c0-1.9 1.2-2.8 2.4-2.8c1.4 0 2.3 1 2.3 2.4c-.03.05 0 .5 0 .5h-4c0 1.5.8 2.2 1.7 2.2h.1c.7 0 1.2-.4 1.4-1.1h.8c-.3 1.1-1.1 1.7-2.3 1.7c-1.3 0-2.4-1-2.4-2.9zm4-.5c-.1-1-.6-1.7-1.5-1.7h-.1c-.7 0-1.5.4-1.7 1.7h3.3zm2.1 3.3v-7.7h.8v7.7h-.8zm2.2-2.8c0-1.9 1.2-2.8 2.5-2.8c1.3 0 2.2 1 2.2 2.4c-.02.05 0 .5 0 .5h-4c0 1.5.8 2.2 1.7 2.2h.1c.8 0 1.2-.4 1.5-1.1h.7c-.3 1.1-1.1 1.7-2.2 1.7c-1.4 0-2.5-1-2.5-2.9zm4-.5c-.1-1-.6-1.7-1.5-1.7h-.1c-.7 0-1.5.4-1.7 1.7h3.3zm1.8 1.6h.7c.1.8.6 1.2 1.4 1.2h.1c.8 0 1.3-.4 1.3-1c0-.4-.3-.7-1-.8l-.8-.2c-.8-.2-1.5-.6-1.5-1.5c0-1.1.9-1.6 2-1.6c1.3 0 2 .8 2 1.7h-.7c-.1-.6-.5-1.1-1.3-1.1h-.1c-.8 0-1.2.4-1.2.9c0 .5.3.7 1 .9l.9.2c.7.2 1.4.5 1.4 1.4c0 1.1-.8 1.7-2 1.7c-1.5 0-2.2-.8-2.2-1.8zm5.3 0h.7c.1.8.7 1.2 1.4 1.2h.1c.8 0 1.3-.4 1.3-1c0-.4-.3-.7-1-.8l-.8-.2c-.8-.2-1.5-.6-1.5-1.5c0-1.1.9-1.6 2-1.6c1.3 0 2 .8 2 1.7h-.7c0-.6-.5-1.1-1.3-1.1h-.1c-.8 0-1.2.4-1.2.9c0 .5.3.7 1 .9l.9.2c.8.2 1.4.5 1.4 1.4c0 1.1-.8 1.7-2 1.7c-1.5 0-2.2-.8-2.2-1.8zm7.4 2.5h.7c.2.6.8 1 1.7 1h.2c.9 0 1.7-.5 1.7-1.9v-.9c-.3.6-.9 1-1.8 1c-1.4 0-2.4-1-2.4-2.8c0-1.7 1-2.8 2.4-2.8c.9 0 1.5.4 1.8 1c.03-.04 0-.9 0-.9h.7s.04 5.44 0 5.4c0 1.5-.9 2.5-2.5 2.5c-1.6 0-2.4-.7-2.5-1.6zm2.6-1.4c1 0 1.7-.8 1.7-2.2c0-1.3-.7-2.2-1.7-2.2h-.1c-1 0-1.7.9-1.7 2.2c0 1.4.7 2.2 1.7 2.2h.1zm4.2.6v-7.7h.7v7.7h-.7zm2.1-1.5c0-1.2 1.1-1.6 1.9-1.7c.03.02 1.8-.1 1.8-.1c0 0-.03-.24 0-.2c0-1-.6-1.5-1.4-1.5h-.1c-.7 0-1.3.3-1.3 1h-.8c.1-1 1-1.6 2.2-1.6c1.4 0 2.1.9 2.1 2.1v3.5h-.6c-.1-.3-.1-.6-.1-.9c-.2.5-1 1-1.9 1c-1 0-1.8-.7-1.8-1.6zm2 1c.7 0 1.7-.7 1.7-1.5c-.03 0 0-.7 0-.7c0 0-1.63.08-1.6.1c-.8 0-1.3.4-1.3 1c0 .6.4 1.1 1.1 1.1h.1zm3.7-1.2h.7c.1.8.7 1.2 1.4 1.2h.1c.8 0 1.3-.4 1.3-1c0-.4-.3-.7-1-.8l-.8-.2c-.8-.2-1.5-.6-1.5-1.5c0-1.1.9-1.6 2-1.6c1.3 0 2 .8 2 1.7h-.7c0-.6-.5-1.1-1.3-1.1h-.1c-.8 0-1.2.4-1.2.9c0 .5.3.7 1 .9l.9.2c.8.2 1.4.5 1.4 1.4c0 1.1-.8 1.7-2 1.7c-1.5 0-2.2-.8-2.2-1.8zm5.3 0h.7c.1.8.7 1.2 1.4 1.2h.1c.8 0 1.3-.4 1.3-1c0-.4-.3-.7-1-.8l-.8-.2c-.8-.2-1.5-.6-1.5-1.5c0-1.1.9-1.6 2-1.6c1.4 0 2 .8 2 1.7h-.7c0-.6-.5-1.1-1.3-1.1h-.1c-.7 0-1.2.4-1.2.9c0 .5.3.7 1 .9l.9.2c.8.2 1.4.5 1.4 1.4c0 1.1-.8 1.7-2 1.7c-1.4 0-2.2-.8-2.2-1.8zm8.6.8c-.02 0 0 .9 0 .9h-.7v-7.7h.7s-.02 3.06 0 3.1c.3-.6 1.1-1 1.8-1c1.5 0 2.5 1.1 2.5 2.8c0 1.8-1 2.9-2.5 2.9c-.7 0-1.5-.4-1.8-1zm1.8.4c1.2 0 1.7-1.1 1.7-2.3c0-1.2-.5-2.2-1.7-2.2h-.1c-1.1 0-1.7 1-1.7 2.2c0 1.2.6 2.3 1.7 2.3h.1zm3.6-1c0-1.2 1-1.6 1.9-1.7c-.02.02 1.7-.1 1.7-.1c0 0 .02-.24 0-.2c0-1-.5-1.5-1.4-1.5c-.7 0-1.3.3-1.4 1h-.7c.1-1 .9-1.6 2.1-1.6c1.4 0 2.1.9 2.1 2.1v2.3c0 .3 0 .8.1 1.2h-.7v-.9c-.2.5-1 1-2 1c-.9 0-1.7-.7-1.7-1.6zm1.9 1c.8 0 1.7-.7 1.7-1.5c.02 0 0-.7 0-.7c0 0-1.58.08-1.6.1c-.8 0-1.3.4-1.3 1c0 .6.5 1.1 1.1 1.1h.1zm4.1.5v-7.7h.7v7.7h-.7zm2.2-2.8c0-1.6.9-2.8 2.5-2.8c1.2 0 2.1.7 2.2 1.8h-.8c-.1-.7-.6-1.2-1.3-1.2h-.1c-1.2 0-1.8 1-1.8 2.2c0 1.2.6 2.3 1.8 2.3h.1c.7 0 1.2-.6 1.3-1.3h.8c-.2 1.2-1 1.9-2.2 1.9c-1.6 0-2.5-1.2-2.5-2.9zm5.7 0c0-1.7 1.1-2.8 2.6-2.8c1.4 0 2.5 1.1 2.5 2.8c0 1.7-1.1 2.9-2.5 2.9c-1.5 0-2.6-1.2-2.6-2.9zm2.6 2.3c1 0 1.8-.9 1.8-2.3c0-1.4-.8-2.2-1.8-2.2h-.1c-1 0-1.7.8-1.7 2.2c0 1.4.7 2.3 1.7 2.3h.1zm3.9.5v-5.5h.7s.03.91 0 .9c.3-.6 1-1 2-1c1.1 0 1.9.7 1.9 2c-.02-.01 0 3.6 0 3.6h-.7s-.04-3.39 0-3.4c0-1.1-.5-1.6-1.4-1.6c-1.2 0-1.8 1-1.8 2.2c.03.03 0 2.8 0 2.8h-.7zm6.2-6.5v-.9h.8v.9h-.8zm.1 6.5v-5.5h.7v5.5h-.7zm2.1-2.8c0-1.9 1.2-2.8 2.5-2.8c1.3 0 2.2 1 2.2 2.4c-.02.05 0 .5 0 .5h-4c0 1.5.8 2.2 1.7 2.2h.1c.8 0 1.2-.4 1.5-1.1h.7c-.3 1.1-1.1 1.7-2.2 1.7c-1.4 0-2.5-1-2.5-2.9zm4-.5c-.1-1-.6-1.7-1.5-1.7h-.1c-.7 0-1.5.4-1.7 1.7h3.3zm1.8 1.6h.7c.1.8.6 1.2 1.4 1.2h.1c.8 0 1.3-.4 1.3-1c0-.4-.3-.7-1-.8l-.8-.2c-.8-.2-1.5-.6-1.5-1.5c0-1.1.9-1.6 2-1.6c1.3 0 2 .8 2 1.7h-.7c-.1-.6-.5-1.1-1.3-1.1h-.1c-.8 0-1.2.4-1.2.9c0 .5.3.7 1 .9l.9.2c.7.2 1.4.5 1.4 1.4c0 1.1-.8 1.7-2 1.7c-1.5 0-2.2-.8-2.2-1.8zm7.4 2.5h.7c.2.6.8 1 1.7 1h.1c1 0 1.8-.5 1.8-1.9v-.9c-.3.6-.9 1-1.8 1c-1.4 0-2.4-1-2.4-2.8c0-1.7 1-2.8 2.4-2.8c.9 0 1.5.4 1.8 1c.02-.04 0-.9 0-.9h.7s.03 5.44 0 5.4c0 1.5-.9 2.5-2.5 2.5c-1.6 0-2.4-.7-2.5-1.6zm2.6-1.4c1 0 1.7-.8 1.7-2.2c0-1.3-.7-2.2-1.7-2.2h-.1c-1 0-1.7.9-1.7 2.2c0 1.4.7 2.2 1.7 2.2h.1zm4.1-5.9v-.9h.8v.9h-.8zm.1 6.5v-5.5h.7v5.5h-.7zm6.2-5.5h.7l-2.1 5.5h-.9l-2.1-5.5h.8l1.8 4.8l1.8-4.8zm1.3 2.7c0-1.9 1.2-2.8 2.5-2.8c1.3 0 2.2 1 2.2 2.4v.5h-3.9c0 1.5.8 2.2 1.7 2.2c.8 0 1.3-.4 1.5-1.1h.7c-.2 1.1-1.1 1.7-2.2 1.7c-1.4 0-2.5-1-2.5-2.9zm4-.5c0-1-.6-1.7-1.5-1.7h-.1c-.7 0-1.5.4-1.6 1.7h3.2zm5.9 3.3c-.7 0-1-.3-1-1v-3.9h-1.3v-.6h1.3v-1.8h.7v1.8h1.4v.6h-1.4s.02 3.84 0 3.8c0 .4.1.5.5.5c-.04-.02 1.1 0 1.1 0v.6s-1.25-.02-1.3 0zm2.4 0v-7.7h.7v3.1c.4-.6 1.1-1 2-1c1.2 0 1.9.8 1.9 2c-.04-.05 0 3.6 0 3.6h-.8s.05-3.43 0-3.4c0-1.1-.4-1.6-1.3-1.6h-.1c-.8 0-1.7.7-1.7 2v3h-.7zm6-2.8c0-1.9 1.1-2.8 2.4-2.8c1.4 0 2.2 1 2.2 2.4c.04.05 0 .5 0 .5h-3.9c0 1.5.8 2.2 1.7 2.2h.1c.7 0 1.2-.4 1.4-1.1h.7c-.2 1.1-1.1 1.7-2.2 1.7c-1.4 0-2.4-1-2.4-2.9zm3.9-.5c0-1-.6-1.7-1.4-1.7h-.2c-.6 0-1.4.4-1.6 1.7h3.2zm3.9 1.6h.8c0 .8.6 1.2 1.4 1.2h.1c.8 0 1.2-.4 1.2-1c0-.4-.2-.7-.9-.8l-.8-.2c-.9-.2-1.5-.6-1.5-1.5c0-1.1.9-1.6 1.9-1.6c1.4 0 2 .8 2.1 1.7h-.7c-.1-.6-.5-1.1-1.3-1.1h-.1c-.8 0-1.2.4-1.2.9c0 .5.3.7 1 .9l.8.2c.8.2 1.4.5 1.4 1.4c0 1.1-.8 1.7-2 1.7c-1.4 0-2.1-.8-2.2-1.8zm5.4-1.1c0-1.9 1.2-2.8 2.5-2.8c1.3 0 2.2 1 2.2 2.4c-.02.05 0 .5 0 .5h-4c0 1.5.8 2.2 1.8 2.2c.8 0 1.3-.4 1.5-1.1h.7c-.3 1.1-1.1 1.7-2.2 1.7c-1.4 0-2.5-1-2.5-2.9zm4-.5c-.1-1-.6-1.7-1.5-1.7h-.1c-.7 0-1.5.4-1.7 1.7h3.3zm2.2 3.3v-5.5h.7s-.03.91 0 .9c.3-.6 1-1 1.9-1c1.1 0 1.9.7 1.9 2c.02-.01 0 3.6 0 3.6h-.7v-3.4c0-1.1-.4-1.6-1.3-1.6h-.1c-1.2 0-1.7 1-1.7 2.2c-.03.03 0 2.8 0 2.8h-.7zm5.8-1.7h.7c.1.8.7 1.2 1.4 1.2h.2c.7 0 1.2-.4 1.2-1c0-.4-.2-.7-1-.8l-.8-.2c-.8-.2-1.5-.6-1.5-1.5c0-1.1 1-1.6 2-1.6c1.4 0 2 .8 2.1 1.7h-.7c-.1-.6-.6-1.1-1.3-1.1h-.2c-.7 0-1.2.4-1.2.9c0 .5.3.7 1 .9l.9.2c.8.2 1.4.5 1.4 1.4c0 1.1-.8 1.7-2 1.7c-1.4 0-2.1-.8-2.2-1.8zm5.4-1.1c0-1.9 1.2-2.8 2.4-2.8c1.4 0 2.2 1 2.2 2.4c.05.05 0 .5 0 .5h-3.9c0 1.5.8 2.2 1.7 2.2h.1c.7 0 1.2-.4 1.4-1.1h.7c-.2 1.1-1.1 1.7-2.2 1.7c-1.4 0-2.4-1-2.4-2.9zm3.9-.5c0-1-.6-1.7-1.4-1.7h-.1c-.7 0-1.5.4-1.7 1.7h3.2zm6 3.3c-.7 0-1.1-.3-1.1-1c.04-.01 0-3.9 0-3.9h-1.2v-.6h1.2v-1.8h.8v1.8h1.3v.6h-1.3s-.05 3.84 0 3.8c0 .4.1.5.4.5c-.01-.02 1.1 0 1.1 0v.6s-1.22-.02-1.2 0zm2.3 0v-7.7h.7s.04 3.12 0 3.1c.4-.6 1.1-1 2-1c1.2 0 1.9.8 1.9 2c-.01-.05 0 3.6 0 3.6h-.7s-.02-3.43 0-3.4c0-1.1-.5-1.6-1.3-1.6h-.2c-.8 0-1.7.7-1.7 2c.04.01 0 3 0 3h-.7zm6-1.5c0-1.2 1-1.6 1.9-1.7c-.03.02 1.7-.1 1.7-.1v-.2c0-1-.5-1.5-1.4-1.5c-.7 0-1.3.3-1.4 1h-.7c.1-1 .9-1.6 2.1-1.6c1.4 0 2.1.9 2.1 2.1v2.3c0 .3 0 .8.1 1.2h-.7v-.9c-.3.5-1 1-2 1c-.9 0-1.7-.7-1.7-1.6zm1.9 1c.8 0 1.7-.7 1.7-1.5v-.7s-1.58.08-1.6.1c-.8 0-1.3.4-1.3 1c0 .6.5 1.1 1.1 1.1h.1zm5.7.5c-.8 0-1.1-.3-1.1-1c.02-.01 0-3.9 0-3.9h-1.2v-.6h1.2v-1.8h.7v1.8h1.4v.6h-1.4s.03 3.84 0 3.8c0 .4.1.5.5.5c-.03-.02 1.1 0 1.1 0v.6s-1.24-.02-1.2 0zm6.1 0c-.7 0-1.1-.3-1.1-1c.03-.01 0-3.9 0-3.9h-1.2v-.6h1.2v-1.8h.7v1.8h1.4v.6h-1.4s.05 3.84 0 3.8c0 .4.2.5.5.5c-.01-.02 1.1 0 1.1 0v.6s-1.22-.02-1.2 0zm2.3 0v-7.7h.7s.04 3.12 0 3.1c.4-.6 1.1-1 2-1c1.2 0 1.9.8 1.9 2c-.01-.05 0 3.6 0 3.6h-.7s-.02-3.43 0-3.4c0-1.1-.5-1.6-1.3-1.6h-.2c-.8 0-1.7.7-1.7 2c.04.01 0 3 0 3h-.7zm6-2.8c0-1.9 1.2-2.8 2.4-2.8c1.4 0 2.3 1 2.3 2.4c-.04.05 0 .5 0 .5h-4c0 1.5.8 2.2 1.7 2.2h.1c.7 0 1.2-.4 1.4-1.1h.8c-.3 1.1-1.1 1.7-2.3 1.7c-1.3 0-2.4-1-2.4-2.9zm3.9-.5c0-1-.5-1.7-1.4-1.7h-.1c-.7 0-1.5.4-1.7 1.7h3.2zm2.2 3.3v-5.5h.7v1.2c.2-.8.9-1.3 1.7-1.3c-.01.03.5 0 .5 0v.7h-.5c-1 0-1.7.8-1.7 2.2c.04.01 0 2.7 0 2.7h-.7zm3.6-2.8c0-1.9 1.1-2.8 2.4-2.8c1.4 0 2.2 1 2.2 2.4c.03.05 0 .5 0 .5h-3.9c0 1.5.8 2.2 1.7 2.2h.1c.7 0 1.2-.4 1.4-1.1h.7c-.2 1.1-1.1 1.7-2.2 1.7c-1.4 0-2.4-1-2.4-2.9zm3.9-.5c0-1-.6-1.7-1.4-1.7h-.2c-.6 0-1.4.4-1.6 1.7h3.2zm1.8-2.1v-.4h.4c.4 0 .6-.2.6-.7c.02.05 0-.1 0-.1h-.6v-1.1h1.1s.02 1.3 0 1.3c0 .7-.4 1-1 1c-.03.05-.5 0-.5 0zm2.2 3.7h.7c.1.8.7 1.2 1.4 1.2h.1c.8 0 1.3-.4 1.3-1c0-.4-.3-.7-1-.8l-.8-.2c-.8-.2-1.5-.6-1.5-1.5c0-1.1.9-1.6 2-1.6c1.3 0 2 .8 2 1.7h-.7c0-.6-.5-1.1-1.3-1.1h-.1c-.8 0-1.2.4-1.2.9c0 .5.3.7 1 .9l.9.2c.8.2 1.4.5 1.4 1.4c0 1.1-.8 1.7-2 1.7c-1.4 0-2.2-.8-2.2-1.8z" stroke="none" fill="#dcddce"/></g><g id="Polygon17869"><path d="m.9 71.4v-7.7h.7s-.01.86 0 .9c.3-.6 1.1-1 1.8-1c1.5 0 2.5 1.1 2.5 2.8c0 1.8-1 2.9-2.5 2.9c-.7 0-1.5-.4-1.8-1v3.1h-.7zm2.5-2.7c1.2 0 1.8-1.1 1.8-2.3c0-1.2-.6-2.2-1.8-2.2c-1.2 0-1.8 1-1.8 2.2c0 1.2.6 2.3 1.8 2.3zm3.9.5v-5.5h.7v1.2c.2-.8.9-1.3 1.7-1.3c-.01.03.5 0 .5 0v.7s-.45-.02-.5 0c-1 0-1.7.8-1.7 2.2c.04.01 0 2.7 0 2.7h-.7zm3.5-2.8c0-1.7 1.1-2.8 2.6-2.8c1.4 0 2.5 1.1 2.5 2.8c0 1.7-1.1 2.9-2.5 2.9c-1.5 0-2.6-1.2-2.6-2.9zm2.6 2.3c1 0 1.8-.9 1.8-2.3c0-1.4-.8-2.2-1.8-2.2h-.1c-1 0-1.7.8-1.7 2.2c0 1.4.7 2.3 1.7 2.3h.1zm7.5-5h.7l-2.1 5.5h-.9l-2.1-5.5h.8l1.8 4.8l1.8-4.8zm1.8-1v-.9h.8v.9h-.8zm0 6.5v-5.5h.8v5.5h-.8zm2.2-2.8c0-1.7 1-2.8 2.4-2.8c.7 0 1.5.4 1.9 1c-.03-.04 0-3.1 0-3.1h.7v7.7h-.7s-.03-.9 0-.9c-.4.6-1.2 1-1.9 1c-1.4 0-2.4-1.1-2.4-2.9zm2.5 2.3c1.2 0 1.8-1.1 1.8-2.3c0-1.2-.6-2.2-1.8-2.2c-1.2 0-1.8 1-1.8 2.2c0 1.2.6 2.3 1.8 2.3zm4.2-6v-.9h.8v.9h-.8zm0 6.5v-5.5h.7v5.5h-.7zm2.5 0v-5.5h.7s-.03.9 0 .9c.3-.6 1-1 1.9-1c1.1 0 1.9.7 1.9 2c.02-.02 0 3.6 0 3.6h-.7s.01-3.4 0-3.4c0-1.1-.4-1.6-1.3-1.6h-.1c-1.2 0-1.7 1-1.7 2.2c-.03.03 0 2.8 0 2.8h-.7zm5.8.7h.7c.1.7.8 1.1 1.7 1.1h.1c1 0 1.8-.5 1.8-1.9v-.9c-.3.6-.9 1-1.8 1c-1.4 0-2.4-1-2.4-2.8c0-1.7 1-2.8 2.4-2.8c.9 0 1.5.4 1.8 1v-.9h.7s.02 5.44 0 5.4c0 1.5-.9 2.5-2.5 2.5c-1.6 0-2.4-.7-2.5-1.7zm2.6-1.3c1 0 1.7-.8 1.7-2.2c0-1.3-.7-2.2-1.7-2.2h-.1c-1 0-1.7.9-1.7 2.2c0 1.4.7 2.2 1.7 2.2h.1zm6.4 2.8v-7.7h.7s-.01.86 0 .9c.3-.6 1.1-1 1.8-1c1.5 0 2.5 1.1 2.5 2.8c0 1.8-1 2.9-2.5 2.9c-.7 0-1.5-.4-1.8-1v3.1h-.7zm2.5-2.7c1.2 0 1.8-1.1 1.8-2.3c0-1.2-.6-2.2-1.8-2.2c-1.2 0-1.8 1-1.8 2.2c0 1.2.6 2.3 1.8 2.3zm3.9.5v-7.7h.8v7.7h-.8zm2.2-2.8c0-1.9 1.2-2.8 2.5-2.8c1.3 0 2.2 1 2.2 2.4c-.03.05 0 .5 0 .5c0 0-3.99-.02-4 0c0 1.5.8 2.2 1.7 2.2h.1c.8 0 1.2-.4 1.4-1.1h.8c-.3 1.1-1.1 1.7-2.2 1.7c-1.4 0-2.5-1-2.5-2.9zm4-.5c-.1-1-.6-1.7-1.5-1.7h-.1c-.7 0-1.5.4-1.7 1.7h3.3zm2.1 3.3v-5.5h.8s-.05.9 0 .9c.3-.6 1-1 1.9-1c1.1 0 1.9.7 1.9 2v3.6h-.7s-.01-3.4 0-3.4c0-1.1-.5-1.6-1.3-1.6h-.1c-1.2 0-1.7 1-1.7 2.2c-.05.03 0 2.8 0 2.8h-.8zm7.9 0c-.7 0-1.1-.3-1.1-1c.03-.01 0-3.9 0-3.9h-1.2v-.6h1.2v-1.8h.7v1.8h1.4v.6h-1.4s.04 3.84 0 3.8c0 .4.1.5.5.5c-.02-.02 1.1 0 1.1 0v.6s-1.23-.02-1.2 0zm7.2-5.5L76.5 69s-.04 1.04 0 1c0 .7-.4 1-1.1 1c.02-.01-1.7 0-1.7 0v-.6h1.6c.3 0 .4-.1.4-.4c.05-.05 0-1 0-1l-2.3-5.3h.8l1.9 4.4l1.9-4.4h.7zm2.9 2.7c0-1.7 1.1-2.8 2.6-2.8c1.4 0 2.5 1.1 2.5 2.8c0 1.7-1.1 2.9-2.5 2.9c-1.5 0-2.6-1.2-2.6-2.9zm2.6 2.3c1 0 1.8-.9 1.8-2.3c0-1.4-.8-2.2-1.8-2.2h-.1c-1 0-1.8.8-1.8 2.2c0 1.4.8 2.3 1.8 2.3h.1zm4.4.5v-4.9h-1.3v-.6h1.3v-1.2c0-.7.3-1 1.1-1c-.05-.02 1.3 0 1.3 0v.6s-1.24-.02-1.2 0c-.4 0-.5.1-.5.4c.02.02 0 1.2 0 1.2h1.5v.6h-1.5v4.9h-.7zm5.5 0v-5.5h.6v1.2c.3-.8 1-1.3 1.7-1.3c.02.03.5 0 .5 0v.7s-.43-.02-.4 0c-1.1 0-1.7.8-1.7 2.2c-.03.01 0 2.7 0 2.7h-.7zm3.5-2.8c0-1.7 1.1-2.8 2.5-2.8c1.4 0 2.5 1.1 2.5 2.8c0 1.7-1.1 2.9-2.5 2.9c-1.4 0-2.5-1.2-2.5-2.9zm2.5 2.3c1 0 1.8-.9 1.8-2.3c0-1.4-.8-2.2-1.8-2.2h-.1c-1 0-1.7.8-1.7 2.2c0 1.4.7 2.3 1.7 2.3h.1zm3.6-2.3c0-1.7 1.1-2.8 2.6-2.8c1.4 0 2.5 1.1 2.5 2.8c0 1.7-1.1 2.9-2.5 2.9c-1.5 0-2.6-1.2-2.6-2.9zm2.6 2.3c1 0 1.8-.9 1.8-2.3c0-1.4-.8-2.2-1.8-2.2h-.1c-1 0-1.7.8-1.7 2.2c0 1.4.7 2.3 1.7 2.3h.1zm3.9.5v-5.5h.7s.03.86 0 .9c.4-.6 1-1 1.9-1c.8 0 1.4.4 1.7 1.1c.4-.7 1-1.1 1.9-1.1c1.1 0 1.9.7 1.9 2v3.6h-.7s-.01-3.4 0-3.4c0-1.1-.4-1.6-1.3-1.6c-1.2 0-1.7 1-1.7 2.2c.02.03 0 2.8 0 2.8h-.7s.01-3.4 0-3.4c0-1.1-.4-1.6-1.3-1.6c-1.1 0-1.7 1-1.7 2.2c.03.03 0 2.8 0 2.8h-.7zm13.6 0c-.7 0-1-.3-1-1c-.04-.01 0-3.9 0-3.9h-1.3v-.6h1.3v-1.8h.7v1.8h1.3v.6h-1.3s-.03 3.84 0 3.8c0 .4.1.5.4.5c.01-.02 1.1 0 1.1 0v.6s-1.2-.02-1.2 0zm1.9-2.8c0-1.7 1.1-2.8 2.5-2.8c1.4 0 2.5 1.1 2.5 2.8c0 1.7-1.1 2.9-2.5 2.9c-1.4 0-2.5-1.2-2.5-2.9zm2.5 2.3c1 0 1.8-.9 1.8-2.3c0-1.4-.8-2.2-1.8-2.2h-.1c-1 0-1.7.8-1.7 2.2c0 1.4.7 2.3 1.7 2.3h.1zm6.1.5v-5.5h.7s.05.86 0 .9c.4-.6 1-1 1.9-1c.8 0 1.4.4 1.7 1.1c.4-.7 1.1-1.1 1.9-1.1c1.1 0 1.9.7 1.9 2c.02-.02 0 3.6 0 3.6h-.7v-3.4c0-1.1-.4-1.6-1.3-1.6c-1.1 0-1.7 1-1.7 2.2c.03.03 0 2.8 0 2.8h-.7s.02-3.4 0-3.4c0-1.1-.4-1.6-1.2-1.6h-.1c-1.1 0-1.7 1-1.7 2.2c.05.03 0 2.8 0 2.8h-.7zm9.5-2.8c0-1.7 1.1-2.8 2.5-2.8c1.5 0 2.6 1.1 2.6 2.8c0 1.7-1.1 2.9-2.6 2.9c-1.4 0-2.5-1.2-2.5-2.9zm2.6 2.3c1 0 1.7-.9 1.7-2.3c0-1.4-.7-2.2-1.7-2.2h-.1c-1 0-1.8.8-1.8 2.2c0 1.4.8 2.3 1.8 2.3h.1zm7.4-5h.8l-2.1 5.5h-.9l-2.1-5.5h.7l1.8 4.8l1.8-4.8zm1.4 2.7c0-1.9 1.2-2.8 2.5-2.8c1.3 0 2.2 1 2.2 2.4c-.02.05 0 .5 0 .5c0 0-3.98-.02-4 0c0 1.5.8 2.2 1.8 2.2c.8 0 1.2-.4 1.5-1.1h.7c-.3 1.1-1.1 1.7-2.2 1.7c-1.4 0-2.5-1-2.5-2.9zm4-.5c-.1-1-.6-1.7-1.5-1.7h-.1c-.7 0-1.5.4-1.7 1.7h3.3zm4 1.8c0-1.2 1.1-1.6 1.9-1.7l1.7-.1s.04-.24 0-.2c0-1-.5-1.5-1.3-1.5h-.1c-.7 0-1.3.3-1.4 1h-.7c.1-1 1-1.6 2.1-1.6c1.5 0 2.2.9 2.2 2.1v3.5h-.7v-.9c-.2.5-1 1-2 1c-.9 0-1.7-.7-1.7-1.6zm1.9 1c.8 0 1.7-.7 1.7-1.5c.04 0 0-.7 0-.7c0 0-1.56.07-1.6.1c-.7 0-1.3.4-1.3 1c0 .6.5 1.1 1.1 1.1h.1zm4.1.5v-5.5h.8s-.05.9 0 .9c.3-.6 1-1 1.9-1c1.1 0 1.9.7 1.9 2v3.6h-.7s-.01-3.4 0-3.4c0-1.1-.4-1.6-1.3-1.6h-.1c-1.2 0-1.7 1-1.7 2.2c-.05.03 0 2.8 0 2.8h-.8zm6-2.8c0-1.7 1-2.8 2.5-2.8c.7 0 1.5.4 1.8 1v-3.1h.7v7.7h-.7v-.9c-.3.6-1.1 1-1.8 1c-1.5 0-2.5-1.1-2.5-2.9zm2.5 2.3c1.2 0 1.8-1.1 1.8-2.3c0-1.2-.6-2.2-1.8-2.2c-1.2 0-1.8 1-1.8 2.2c0 1.2.6 2.3 1.8 2.3zm6.1-2.3c0-1.9 1.2-2.8 2.5-2.8c1.3 0 2.2 1 2.2 2.4v.5s-3.95-.02-3.9 0c0 1.5.8 2.2 1.7 2.2c.8 0 1.3-.4 1.5-1.1h.7c-.2 1.1-1.1 1.7-2.2 1.7c-1.4 0-2.5-1-2.5-2.9zm4-.5c0-1-.6-1.7-1.5-1.7h-.1c-.7 0-1.5.4-1.6 1.7h3.2zm2.2 3.3v-5.5h.7s-.01.9 0 .9c.3-.6 1-1 1.9-1c1.1 0 1.9.7 1.9 2c.04-.02 0 3.6 0 3.6h-.7s.03-3.4 0-3.4c0-1.1-.4-1.6-1.3-1.6h-.1c-1.1 0-1.7 1-1.7 2.2v2.8h-.7zm7.8 0c-.7 0-1-.3-1-1c-.03-.01 0-3.9 0-3.9h-1.3v-.6h1.3v-1.8h.7v1.8h1.4v.6h-1.4s-.02 3.84 0 3.8c0 .4.1.5.4.5c.02-.02 1.1 0 1.1 0v.6s-1.19-.02-1.2 0zm1.9-2.8c0-1.9 1.2-2.8 2.5-2.8c1.3 0 2.2 1 2.2 2.4c-.03.05 0 .5 0 .5c0 0-3.99-.02-4 0c0 1.5.8 2.2 1.7 2.2h.1c.8 0 1.2-.4 1.4-1.1h.8c-.3 1.1-1.1 1.7-2.2 1.7c-1.4 0-2.5-1-2.5-2.9zm4-.5c-.1-1-.6-1.7-1.5-1.7h-.1c-.7 0-1.5.4-1.7 1.7h3.3zm2.1 3.3v-5.5h.7v1.2c.3-.8.9-1.3 1.7-1.3c0 .03.5 0 .5 0v.7s-.44-.02-.4 0c-1.1 0-1.7.8-1.7 2.2c-.05.01 0 2.7 0 2.7h-.8zm6 0c-.7 0-1.1-.3-1.1-1c.02-.01 0-3.9 0-3.9h-1.2v-.6h1.2v-1.8h.7v1.8h1.4v.6h-1.4s.04 3.84 0 3.8c0 .4.1.5.5.5c-.02-.02 1.1 0 1.1 0v.6s-1.23-.02-1.2 0zm2.1-1.5c0-1.2 1-1.6 1.9-1.7l1.7-.1v-.2c0-1-.5-1.5-1.4-1.5c-.7 0-1.3.3-1.4 1h-.7c0-1 .9-1.6 2.1-1.6c1.4 0 2.1.9 2.1 2.1v2.3c0 .3 0 .8.1 1.2h-.7c0-.3-.1-.6-.1-.9c-.2.5-.9 1-1.9 1c-1 0-1.7-.7-1.7-1.6zm1.9 1c.7 0 1.7-.7 1.7-1.5v-.7s-1.61.07-1.6.1c-.8 0-1.3.4-1.3 1c0 .6.4 1.1 1.1 1.1h.1zm4-6v-.9h.9v.9h-.9zm.1 6.5v-5.5h.7v5.5h-.7zm2.4 0v-5.5h.7s.04.9 0 .9c.4-.6 1.1-1 2-1c1.1 0 1.9.7 1.9 2c-.01-.02 0 3.6 0 3.6h-.7s-.03-3.4 0-3.4c0-1.1-.5-1.6-1.3-1.6h-.1c-1.2 0-1.8 1-1.8 2.2c.04.03 0 2.8 0 2.8h-.7zm6.3 0v-1.1h1.1v1.1h-1.1z" stroke="none" fill="#dcddce"/></g><g id="Polygon17868"><path d="m1.5 54v-4.9H.2v-.6h1.3v-1.2c0-.7.3-1 1-1c.04.03 1.4 0 1.4 0v.6s-1.25.03-1.2 0c-.4 0-.5.1-.5.5c.01-.03 0 1.1 0 1.1h1.4v.6H2.2v4.9h-.7zm3.2-1.8c.04-.04 0-3.7 0-3.7h.8s-.04 3.44 0 3.4c0 1.1.4 1.6 1.3 1.6h.1c.8 0 1.6-.7 1.6-2c-.02 0 0-3 0-3h.7v5.5h-.7s-.02-1 0-1c-.3.7-1 1.1-1.9 1.1c-1.2 0-1.9-.8-1.9-1.9zm6.2 1.8v-5.5h.7s.05.95 0 1c.4-.7 1.1-1.1 2-1.1c1.1 0 1.9.7 1.9 2v3.6h-.7s-.02-3.35 0-3.3c0-1.1-.5-1.7-1.3-1.7h-.1c-1.2 0-1.8 1.1-1.8 2.3c.05-.02 0 2.7 0 2.7h-.7zm6-2.7c0-1.6.9-2.9 2.5-2.9c1.2 0 2.1.7 2.2 1.9h-.7c-.2-.7-.7-1.3-1.4-1.3h-.1c-1.2 0-1.8 1.1-1.8 2.3c0 1.2.6 2.2 1.8 2.2h.1c.7 0 1.2-.5 1.4-1.2h.7c-.2 1.1-1 1.8-2.2 1.8c-1.6 0-2.5-1.2-2.5-2.8zm7.7 2.7c-.7 0-1-.2-1-1v-3.9h-1.3v-.6h1.3v-1.8h.7v1.8h1.4v.6h-1.4v3.9c0 .3.1.4.5.4c-.05.03 1.1 0 1.1 0v.6s-1.26.03-1.3 0zm2.3-6.5v-.9h.9v.9h-.9zM27 54v-5.5h.7v5.5h-.7zm2.1-2.7c0-1.7 1.1-2.9 2.5-2.9c1.5 0 2.6 1.2 2.6 2.9c0 1.7-1.1 2.8-2.6 2.8c-1.4 0-2.5-1.1-2.5-2.8zm2.6 2.2c1 0 1.7-.8 1.7-2.2c0-1.4-.7-2.3-1.7-2.3h-.1c-1 0-1.8.9-1.8 2.3c0 1.4.8 2.2 1.8 2.2h.1zm3.9.5v-5.5h.7v1c.3-.7 1-1.1 1.9-1.1c1.1 0 2 .7 2 2c-.05.03 0 3.6 0 3.6h-.8s.04-3.35 0-3.3c0-1.1-.4-1.7-1.3-1.7c-1.2 0-1.8 1.1-1.8 2.3v2.7h-.7zm5.9-1.5c0-1.2 1.1-1.6 1.9-1.6c.03-.04 1.8-.2 1.8-.2c0 0-.03-.19 0-.2c0-.9-.6-1.5-1.4-1.5h-.1c-.7 0-1.3.4-1.3 1.1h-.7c0-1 .9-1.7 2.1-1.7c1.4 0 2.1 1 2.1 2.1v3.5h-.6c-.1-.2-.1-.6-.1-.8c-.2.5-1 .9-1.9.9c-1 0-1.8-.7-1.8-1.6zm2 1c.7 0 1.7-.6 1.7-1.5c-.03.05 0-.7 0-.7c0 0-1.62.12-1.6.1c-.8.1-1.3.5-1.3 1.1c0 .6.4 1 1.1 1h.1zm4.1.5v-7.7h.7v7.7h-.7zm4.7 0v-7.7h.7v7.7h-.7zm2.1-1.5c0-1.2 1.1-1.6 1.9-1.6c.01-.04 1.8-.2 1.8-.2c0 0-.05-.19 0-.2c0-.9-.6-1.5-1.4-1.5h-.1c-.7 0-1.3.4-1.4 1.1h-.7c.1-1 1-1.7 2.1-1.7c1.5 0 2.2 1 2.2 2.1v3.5h-.6c-.1-.2-.1-.6-.1-.8c-.2.5-1 .9-1.9.9c-1 0-1.8-.7-1.8-1.6zm1.9 1c.8 0 1.8-.6 1.8-1.5c-.05.05 0-.7 0-.7c0 0-1.64.12-1.6.1c-.8.1-1.4.5-1.4 1.1c0 .6.5 1 1.1 1h.1zm8.6-5l-2.2 5.3s-.03 1.09 0 1.1c0 .7-.4.9-1.1.9c.02.04-1.6 0-1.6 0v-.6s1.51.04 1.5 0c.3 0 .5-.1.5-.4c-.05 0 0-.9 0-.9l-2.4-5.4h.8l1.9 4.5l1.9-4.5h.7zm.6 2.8c0-1.7 1.1-2.9 2.5-2.9c1.4 0 2.5 1.2 2.5 2.9c0 1.7-1.1 2.8-2.5 2.8c-1.4 0-2.5-1.1-2.5-2.8zm2.6 2.2c1 0 1.7-.8 1.7-2.2c0-1.4-.7-2.3-1.7-2.3h-.1c-1 0-1.8.9-1.8 2.3c0 1.4.8 2.2 1.8 2.2h.1zm3.8-1.3c.02-.04 0-3.7 0-3.7h.7s.04 3.44 0 3.4c0 1.1.5 1.6 1.4 1.6h.1c.8 0 1.6-.7 1.6-2c-.04 0 0-3 0-3h.7v5.5h-.7s-.04-1 0-1c-.3.7-1 1.1-1.9 1.1c-1.2 0-1.9-.8-1.9-1.9zm7.9 1.8c-.7 0-1-.2-1-1c-.05.04 0-3.9 0-3.9h-1.3v-.6h1.3v-1.8h.7v1.8h1.3v.6h-1.3s-.04 3.89 0 3.9c0 .3.1.4.4.4c0 .03 1.1 0 1.1 0v.6s-1.21.03-1.2 0zm2-1.6h.7c.1.7.7 1.1 1.4 1.1h.1c.8 0 1.3-.3 1.3-1c0-.4-.2-.6-1-.8l-.8-.2c-.8-.2-1.5-.5-1.5-1.5c0-1 .9-1.6 2-1.6c1.4 0 2 .9 2.1 1.8h-.8c0-.6-.5-1.2-1.3-1.2h-.1c-.7 0-1.2.5-1.2 1c0 .5.3.7 1 .9l.9.1c.8.2 1.4.6 1.4 1.5c0 1-.8 1.6-2 1.6c-1.4 0-2.2-.7-2.2-1.7zm7.5-1.1c0-2 1.2-2.9 2.5-2.9c1.3 0 2.2 1.1 2.2 2.5v.4s-3.95.03-3.9 0c0 1.6.8 2.2 1.7 2.2c.8 0 1.3-.3 1.5-1h.7c-.2 1.1-1.1 1.6-2.2 1.6c-1.4 0-2.5-.9-2.5-2.8zm4-.6c0-.9-.6-1.7-1.5-1.7h-.1c-.7 0-1.5.4-1.6 1.7h3.2zm2.2 3.3v-5.5h.7v1c.3-.7 1-1.1 1.9-1.1c1.1 0 1.9.7 1.9 2c.05.03 0 3.6 0 3.6h-.7s.03-3.35 0-3.3c0-1.1-.4-1.7-1.3-1.7h-.1c-1.1 0-1.7 1.1-1.7 2.3v2.7h-.7zm5.8-1.6h.8c0 .7.6 1.1 1.4 1.1h.1c.8 0 1.2-.3 1.2-1c0-.4-.2-.6-.9-.8l-.8-.2c-.9-.2-1.5-.5-1.5-1.5c0-1 .9-1.6 1.9-1.6c1.4 0 2 .9 2.1 1.8h-.7c-.1-.6-.6-1.2-1.3-1.2h-.1c-.8 0-1.2.5-1.2 1c0 .5.3.7 1 .9l.8.1c.8.2 1.4.6 1.4 1.5c0 1-.8 1.6-2 1.6c-1.4 0-2.1-.7-2.2-1.7zm5.7-.2c-.03-.04 0-3.7 0-3.7h.7s-.01 3.44 0 3.4c0 1.1.4 1.6 1.3 1.6h.1c.8 0 1.6-.7 1.6-2v-3h.7v5.5h-.7v-1c-.3.7-.9 1.1-1.8 1.1c-1.2 0-1.9-.8-1.9-1.9zm6.2 1.8v-5.5h.6s.02 1.28 0 1.3c.3-.9 1-1.3 1.7-1.3c.02-.02.5 0 .5 0v.6s-.42.03-.4 0c-1.1 0-1.7.9-1.7 2.3c-.03-.04 0 2.6 0 2.6h-.7zm3.5-2.7c0-2 1.2-2.9 2.4-2.9c1.4 0 2.3 1.1 2.3 2.5c-.04 0 0 .4 0 .4c0 0-4 .03-4 0c0 1.6.8 2.2 1.7 2.2h.1c.7 0 1.2-.3 1.4-1h.8c-.3 1.1-1.1 1.6-2.3 1.6c-1.3 0-2.4-.9-2.4-2.8zm4-.6c-.1-.9-.6-1.7-1.5-1.7h-.1c-.7 0-1.5.4-1.7 1.7h3.3zm4 1.8c0-1.2 1-1.6 1.9-1.6c-.02-.04 1.7-.2 1.7-.2c0 0 .02-.19 0-.2c0-.9-.5-1.5-1.4-1.5c-.7 0-1.3.4-1.4 1.1h-.7c.1-1 .9-1.7 2.1-1.7c1.4 0 2.1 1 2.1 2.1v2.3c0 .3 0 .8.1 1.2h-.7v-.8c-.2.5-1 .9-2 .9c-.9 0-1.7-.7-1.7-1.6zm1.9 1c.8 0 1.7-.6 1.7-1.5c.02.05 0-.7 0-.7c0 0-1.58.12-1.6.1c-.8.1-1.3.5-1.3 1.1c0 .6.5 1 1.1 1h.1zm7 .5v-4.9h-1.3v-.6h1.3s-.05-1.18 0-1.2c0-.7.3-1 1-1c0 .03 1.4 0 1.4 0v.6s-1.29.03-1.3 0c-.3 0-.4.1-.4.5c-.03-.03 0 1.1 0 1.1h1.4v.6h-1.4v4.9h-.7zm2.8-2.7c0-2 1.2-2.9 2.4-2.9c1.4 0 2.3 1.1 2.3 2.5c-.05 0 0 .4 0 .4c0 0-4.01.03-4 0c0 1.6.8 2.2 1.7 2.2h.1c.7 0 1.2-.3 1.4-1h.7c-.2 1.1-1 1.6-2.2 1.6c-1.3 0-2.4-.9-2.4-2.8zm3.9-.6c0-.9-.6-1.7-1.4-1.7h-.1c-.7 0-1.5.4-1.7 1.7h3.2zm1.9.6c0-2 1.2-2.9 2.5-2.9c1.3 0 2.2 1.1 2.2 2.5v.4s-3.97.03-4 0c.1 1.6.9 2.2 1.8 2.2c.8 0 1.3-.3 1.5-1h.7c-.3 1.1-1.1 1.6-2.2 1.6c-1.4 0-2.5-.9-2.5-2.8zm4-.6c-.1-.9-.6-1.7-1.5-1.7h-.1c-.7 0-1.5.4-1.6 1.7h3.2zm2.2 3.3v-7.7h.7v7.7h-.7zm2.4-6.5v-.9h.8v.9h-.8zm0 6.5v-5.5h.7v5.5h-.7zm2.4 0v-5.5h.8s-.04.95 0 1c.3-.7 1-1.1 1.9-1.1c1.1 0 1.9.7 1.9 2c.01.03 0 3.6 0 3.6h-.7v-3.3c0-1.1-.4-1.7-1.3-1.7h-.1c-1.2 0-1.7 1.1-1.7 2.3c-.04-.02 0 2.7 0 2.7h-.8zm5.9.8h.7c.1.7.8 1 1.7 1h.1c1 0 1.8-.5 1.8-1.9v-.9c-.3.6-1 1-1.8 1c-1.4 0-2.4-1-2.4-2.7c0-1.8 1-2.9 2.4-2.9c.8 0 1.5.4 1.8 1c-.01.01 0-.9 0-.9h.7v5.5c0 1.4-.9 2.4-2.5 2.4c-1.6 0-2.4-.6-2.5-1.6zm2.6-1.4c1 0 1.7-.7 1.7-2.1c0-1.4-.7-2.3-1.7-2.3h-.1c-1 0-1.7.9-1.7 2.3c0 1.4.7 2.1 1.7 2.1h.1zm6-2.1c0-1.7 1.1-2.9 2.6-2.9c1.4 0 2.5 1.2 2.5 2.9c0 1.7-1.1 2.8-2.5 2.8c-1.5 0-2.6-1.1-2.6-2.8zm2.6 2.2c1 0 1.8-.8 1.8-2.2c0-1.4-.8-2.3-1.8-2.3h-.1c-1 0-1.7.9-1.7 2.3c0 1.4.7 2.2 1.7 2.2h.1zm4.4.5v-4.9h-1.3v-.6h1.3v-1.2c0-.7.3-1 1.1-1c-.04.03 1.3 0 1.3 0v.6s-1.23.03-1.2 0c-.4 0-.5.1-.5.5c.03-.03 0 1.1 0 1.1h1.5v.6h-1.5v4.9h-.7zm5-1.6h.7c.1.7.7 1.1 1.5 1.1h.1c.7 0 1.2-.3 1.2-1c0-.4-.2-.6-1-.8l-.8-.2c-.8-.2-1.5-.5-1.5-1.5c0-1 1-1.6 2-1.6c1.4 0 2 .9 2.1 1.8h-.7c-.1-.6-.6-1.2-1.3-1.2h-.1c-.8 0-1.2.5-1.2 1c0 .5.3.7 1 .9l.8.1c.8.2 1.4.6 1.4 1.5c0 1-.8 1.6-2 1.6c-1.4 0-2.1-.7-2.2-1.7zm5.7 3.8v-7.7h.7s.04.91 0 .9c.4-.6 1.2-1 1.9-1c1.4 0 2.4 1.1 2.4 2.9c0 1.7-1 2.8-2.4 2.8c-.7 0-1.5-.3-1.9-.9c.04-.05 0 3 0 3h-.7zm2.6-2.7c1.1 0 1.7-1 1.7-2.2c0-1.2-.6-2.3-1.7-2.3h-.1c-1.2 0-1.8 1.1-1.8 2.3c0 1.2.6 2.2 1.8 2.2h.1zm3.5-1c0-1.2 1.1-1.6 1.9-1.6c.04-.04 1.8-.2 1.8-.2c0 0-.02-.19 0-.2c0-.9-.6-1.5-1.4-1.5h-.1c-.7 0-1.3.4-1.3 1.1h-.7c0-1 .9-1.7 2.1-1.7c1.4 0 2.1 1 2.1 2.1v3.5h-.6c-.1-.2-.1-.6-.1-.8c-.2.5-.9.9-1.9.9c-1 0-1.8-.7-1.8-1.6zm2 1c.7 0 1.7-.6 1.7-1.5c-.02.05 0-.7 0-.7c0 0-1.62.12-1.6.1c-.8.1-1.3.5-1.3 1.1c0 .6.4 1 1.1 1h.1zm3.8-2.2c0-1.6.9-2.9 2.5-2.9c1.2 0 2 .7 2.1 1.9h-.7c-.1-.7-.6-1.3-1.4-1.3h-.1c-1.2 0-1.7 1.1-1.7 2.3c0 1.2.5 2.2 1.7 2.2h.1c.8 0 1.3-.5 1.4-1.2h.7c-.2 1.1-.9 1.8-2.1 1.8c-1.6 0-2.5-1.2-2.5-2.8zm5.7 0c0-2 1.2-2.9 2.5-2.9c1.3 0 2.2 1.1 2.2 2.5v.4s-3.97.03-4 0c.1 1.6.9 2.2 1.8 2.2c.8 0 1.3-.3 1.5-1h.7c-.3 1.1-1.1 1.6-2.2 1.6c-1.4 0-2.5-.9-2.5-2.8zm4-.6c-.1-.9-.6-1.7-1.5-1.7h-.1c-.7 0-1.5.4-1.6 1.7h3.2zm1.7 4.6v-.4s.3-.04.3 0c.4 0 .7-.3.7-.7c-.04-.01 0-.2 0-.2h-.6v-1.1h1.1s-.05 1.35 0 1.3c0 .7-.4 1.1-1.1 1.1h-.4z" stroke="none" fill="#dcddce"/></g><g id="Polygon17867"><path d="m.6 37.4c0-1.2 1-1.6 1.9-1.7l1.7-.1v-.2c0-1-.5-1.5-1.4-1.5c-.7 0-1.3.3-1.4 1h-.7c0-1 .9-1.6 2.1-1.6c1.4 0 2.1.9 2.1 2.1v2.3c0 .3 0 .8.1 1.2h-.7c0-.3-.1-.6-.1-.9c-.2.5-.9 1-1.9 1c-1 0-1.7-.7-1.7-1.6zm1.9 1c.7 0 1.7-.7 1.7-1.5v-.7s-1.6.07-1.6.1c-.8 0-1.3.4-1.3 1c0 .6.4 1.1 1.1 1.1h.1zm4.1.5v-5.5h.7s.01.9 0 .9c.3-.6 1-1 1.9-1c1.1 0 2 .7 2 2c-.04-.02 0 3.6 0 3.6h-.8s.05-3.4 0-3.4c0-1.1-.4-1.6-1.3-1.6c-1.2 0-1.8 1-1.8 2.2v2.8h-.7zm6-2.8c0-1.7 1-2.8 2.4-2.8c.7 0 1.5.4 1.9 1c-.05-.04 0-3.1 0-3.1h.7v7.7h-.7s-.05-.9 0-.9c-.4.6-1.2 1-1.9 1c-1.4 0-2.4-1.1-2.4-2.9zm2.5 2.3c1.2 0 1.8-1.1 1.8-2.3c0-1.2-.6-2.2-1.8-2.2h-.1c-1.1 0-1.7 1-1.7 2.2c0 1.2.6 2.3 1.7 2.3h.1zm6.4.5v-5.5h.7s.04.86 0 .9c.4-.6 1-1 1.9-1c.8 0 1.4.4 1.7 1.1c.4-.7 1-1.1 1.9-1.1c1.1 0 1.9.7 1.9 2c.01-.02 0 3.6 0 3.6h-.7v-3.4c0-1.1-.4-1.6-1.3-1.6c-1.1 0-1.7 1-1.7 2.2c.02.03 0 2.8 0 2.8h-.7s.01-3.4 0-3.4c0-1.1-.4-1.6-1.3-1.6c-1.1 0-1.7 1-1.7 2.2c.04.03 0 2.8 0 2.8h-.7zm9.5-1.5c0-1.2 1.1-1.6 1.9-1.7l1.7-.1s.04-.24 0-.2c0-1-.5-1.5-1.3-1.5h-.1c-.7 0-1.3.3-1.4 1h-.7c.1-1 1-1.6 2.1-1.6c1.5 0 2.2.9 2.2 2.1v3.5h-.7v-.9c-.2.5-1 1-2 1c-.9 0-1.7-.7-1.7-1.6zm1.9 1c.8 0 1.7-.7 1.7-1.5c.04 0 0-.7 0-.7c0 0-1.56.07-1.6.1c-.7 0-1.3.4-1.3 1c0 .6.5 1.1 1.1 1.1h.1zm4.1.5v-5.5h.7v1.2c.3-.8.9-1.3 1.7-1.3c.01.03.5 0 .5 0v.7s-.44-.02-.4 0c-1.1 0-1.7.8-1.7 2.2c-.04.01 0 2.7 0 2.7h-.8zm4 0v-7.7h.7v5l3-2.8h.9l-2.2 2.2l2.4 3.3h-.9l-2.1-2.8l-1.1 1v1.8h-.7zm5.2-2.8c0-1.9 1.2-2.8 2.5-2.8c1.3 0 2.2 1 2.2 2.4c-.02.05 0 .5 0 .5c0 0-3.98-.02-4 0c0 1.5.8 2.2 1.7 2.2h.1c.8 0 1.2-.4 1.5-1.1h.7c-.3 1.1-1.1 1.7-2.2 1.7c-1.4 0-2.5-1-2.5-2.9zm4-.5c-.1-1-.6-1.7-1.5-1.7h-.1c-.7 0-1.5.4-1.7 1.7h3.3zm3.7 3.3c-.7 0-1-.3-1-1c-.03-.01 0-3.9 0-3.9h-1.3v-.6h1.3v-1.8h.7v1.8h1.4v.6h-1.4v3.8c0 .4.1.5.4.5c.03-.02 1.1 0 1.1 0v.6s-1.18-.02-1.2 0zm1.6-3v-.6h2.7v.6h-2.7zm4.2 3v-7.7h.7v7.7h-.7zm2.2-2.8c0-1.9 1.1-2.8 2.4-2.8c1.4 0 2.2 1 2.2 2.4c.03.05 0 .5 0 .5c0 0-3.93-.02-3.9 0c0 1.5.8 2.2 1.7 2.2h.1c.7 0 1.2-.4 1.4-1.1h.7c-.2 1.1-1.1 1.7-2.2 1.7c-1.4 0-2.4-1-2.4-2.9zm3.9-.5c0-1-.6-1.7-1.4-1.7h-.2c-.6 0-1.4.4-1.6 1.7h3.2zm1.9 1.8c0-1.2 1-1.6 1.9-1.7l1.7-.1v-.2c0-1-.5-1.5-1.4-1.5c-.7 0-1.3.3-1.4 1h-.7c.1-1 .9-1.6 2.1-1.6c1.4 0 2.1.9 2.1 2.1v2.3c0 .3 0 .8.1 1.2h-.7v-.9c-.3.5-1 1-2 1c-.9 0-1.7-.7-1.7-1.6zm1.9 1c.8 0 1.7-.7 1.7-1.5v-.7s-1.58.07-1.6.1c-.8 0-1.3.4-1.3 1c0 .6.5 1.1 1.1 1.1h.1zm3.8-2.3c0-1.7 1-2.8 2.5-2.8c.7 0 1.5.4 1.8 1v-3.1h.7v7.7h-.7s-.01-.9 0-.9c-.3.6-1.1 1-1.8 1c-1.5 0-2.5-1.1-2.5-2.9zm2.5 2.3c1.2 0 1.8-1.1 1.8-2.3c0-1.2-.6-2.2-1.8-2.2c-1.2 0-1.8 1-1.8 2.2c0 1.2.6 2.3 1.8 2.3zm4.2-6v-.9h.8v.9h-.8zm0 6.5v-5.5h.8v5.5h-.8zm2.5 0v-5.5h.7s-.01.9 0 .9c.3-.6 1-1 1.9-1c1.1 0 1.9.7 1.9 2c.04-.02 0 3.6 0 3.6h-.7s.03-3.4 0-3.4c0-1.1-.4-1.6-1.3-1.6h-.1c-1.1 0-1.7 1-1.7 2.2v2.8h-.7zm5.8.7h.7c.2.7.8 1.1 1.7 1.1h.1c1 0 1.8-.5 1.8-1.9v-.9c-.3.6-.9 1-1.8 1c-1.4 0-2.4-1-2.4-2.8c0-1.7 1-2.8 2.4-2.8c.9 0 1.5.4 1.8 1c.02-.04 0-.9 0-.9h.7s.03 5.44 0 5.4c0 1.5-.9 2.5-2.5 2.5c-1.6 0-2.4-.7-2.5-1.7zm2.6-1.3c1 0 1.7-.8 1.7-2.2c0-1.3-.7-2.2-1.7-2.2h-.1c-1 0-1.7.9-1.7 2.2c0 1.4.7 2.2 1.7 2.2h.1zm7 .6V34h-1.3v-.6h1.3v-1.2c0-.7.3-1 1.1-1c-.05-.02 1.3 0 1.3 0v.6s-1.24-.02-1.2 0c-.4 0-.5.1-.5.4c.02.02 0 1.2 0 1.2h1.5v.6h-1.5v4.9h-.7zm2.8-2.8c0-1.9 1.2-2.8 2.5-2.8c1.3 0 2.2 1 2.2 2.4v.5s-3.95-.02-3.9 0c0 1.5.8 2.2 1.7 2.2c.8 0 1.3-.4 1.5-1.1h.7c-.2 1.1-1.1 1.7-2.2 1.7c-1.4 0-2.5-1-2.5-2.9zm4-.5c0-1-.6-1.7-1.5-1.7h-.1c-.7 0-1.5.4-1.6 1.7h3.2zm1.9 1.8c0-1.2 1-1.6 1.9-1.7l1.7-.1v-.2c0-1-.5-1.5-1.4-1.5c-.7 0-1.3.3-1.4 1h-.7c0-1 .9-1.6 2.1-1.6c1.4 0 2.1.9 2.1 2.1v2.3c0 .3 0 .8.1 1.2h-.7c0-.3-.1-.6-.1-.9c-.2.5-.9 1-1.9 1c-1 0-1.7-.7-1.7-1.6zm1.9 1c.7 0 1.7-.7 1.7-1.5v-.7s-1.6.07-1.6.1c-.8 0-1.3.4-1.3 1c0 .6.4 1.1 1.1 1.1h.1zm5.6.5c-.7 0-1-.3-1-1V34h-1.3v-.6h1.3v-1.8h.7v1.8h1.4v.6h-1.4v3.8c0 .4.1.5.4.5c.05-.02 1.1 0 1.1 0v.6s-1.16-.02-1.2 0zm2.3-1.9c-.02.01 0-3.6 0-3.6h.7s-.01 3.39 0 3.4c0 1 .4 1.6 1.3 1.6h.1c.8 0 1.6-.8 1.6-2.1c.02.05 0-2.9 0-2.9h.7v5.5h-.7s.02-1.05 0-1.1c-.3.8-.9 1.2-1.8 1.2c-1.2 0-1.9-.8-1.9-2zm6.2 1.9v-5.5h.6s.02 1.23 0 1.2c.3-.8 1-1.3 1.7-1.3c.03.03.5 0 .5 0v.7s-.42-.02-.4 0c-1.1 0-1.7.8-1.7 2.2c-.02.01 0 2.7 0 2.7h-.7zm3.5-2.8c0-1.9 1.2-2.8 2.4-2.8c1.4 0 2.3 1 2.3 2.4c-.03.05 0 .5 0 .5c0 0-3.99-.02-4 0c0 1.5.8 2.2 1.7 2.2h.1c.8 0 1.2-.4 1.4-1.1h.8c-.3 1.1-1.1 1.7-2.3 1.7c-1.3 0-2.4-1-2.4-2.9zm4-.5c-.1-1-.6-1.7-1.5-1.7h-.1c-.7 0-1.5.4-1.7 1.7h3.3zm1.8 1.6h.7c0 .8.6 1.2 1.4 1.2h.1c.8 0 1.2-.4 1.2-1c0-.4-.2-.7-.9-.9l-.8-.1c-.8-.2-1.5-.6-1.5-1.5c0-1.1.9-1.6 1.9-1.6c1.4 0 2.1.8 2.1 1.7h-.7c-.1-.6-.5-1.1-1.3-1.1h-.1c-.8 0-1.2.4-1.2.9c0 .5.3.7 1 .9l.9.2c.7.2 1.4.5 1.4 1.4c0 1.1-.8 1.7-2.1 1.7c-1.4 0-2.1-.8-2.1-1.8zm5.6 1.7v-1.1h1.1v1.1h-1.1zm5.2 0v-7.7h5.3v.7h-4.6v2.7h4v.7h-4v2.9h4.7v.7h-5.4zm6.4 0l2.1-2.8l-2-2.7h.8l1.7 2.1l1.6-2.1h.8l-2 2.7l2.1 2.8h-.9l-1.7-2.3l-1.7 2.3h-.8zm6.2 2.2v-7.7h.7s.03.86 0 .9c.4-.6 1.2-1 1.9-1c1.4 0 2.4 1.1 2.4 2.8c0 1.8-1 2.9-2.4 2.9c-.7 0-1.5-.4-1.9-1c.03 0 0 3.1 0 3.1h-.7zm2.5-2.7c1.2 0 1.8-1.1 1.8-2.3c0-1.2-.6-2.2-1.8-2.2c-1.2 0-1.8 1-1.8 2.2c0 1.2.6 2.3 1.8 2.3zm3.6-1c0-1.2 1.1-1.6 1.9-1.7c.03.01 1.8-.1 1.8-.1c0 0-.03-.24 0-.2c0-1-.6-1.5-1.4-1.5h-.1c-.7 0-1.3.3-1.3 1h-.8c.1-1 1-1.6 2.2-1.6c1.4 0 2.1.9 2.1 2.1v3.5h-.6c-.1-.3-.1-.6-.1-.9c-.2.5-1 1-1.9 1c-1 0-1.8-.7-1.8-1.6zm2 1c.7 0 1.7-.7 1.7-1.5c-.03 0 0-.7 0-.7c0 0-1.63.07-1.6.1c-.8 0-1.3.4-1.3 1c0 .6.4 1.1 1.1 1.1h.1zm4.1.5v-5.5h.7s-.01.9 0 .9c.3-.6 1-1 1.9-1c1.1 0 1.9.7 1.9 2c.04-.02 0 3.6 0 3.6h-.7s.02-3.4 0-3.4c0-1.1-.4-1.6-1.3-1.6h-.1c-1.2 0-1.7 1-1.7 2.2v2.8h-.7zm5.8-1.7h.7c.1.8.7 1.2 1.5 1.2h.1c.7 0 1.2-.4 1.2-1c0-.4-.2-.7-1-.9l-.8-.1c-.8-.2-1.4-.6-1.4-1.5c0-1.1.9-1.6 1.9-1.6c1.4 0 2 .8 2.1 1.7h-.7c-.1-.6-.6-1.1-1.3-1.1h-.1c-.8 0-1.2.4-1.2.9c0 .5.3.7 1 .9l.8.2c.8.2 1.4.5 1.4 1.4c0 1.1-.8 1.7-2 1.7c-1.4 0-2.1-.8-2.2-1.8zm5.7-4.8v-.9h.8v.9h-.8zm0 6.5v-5.5h.7v5.5h-.7zm6.2-5.5h.8l-2.1 5.5h-.9l-2.1-5.5h.7l1.8 4.8l1.8-4.8zm1.4 2.7c0-1.9 1.2-2.8 2.4-2.8c1.4 0 2.3 1 2.3 2.4c-.04.05 0 .5 0 .5c0 0-4-.02-4 0c0 1.5.8 2.2 1.7 2.2h.1c.7 0 1.2-.4 1.4-1.1h.8c-.3 1.1-1.1 1.7-2.3 1.7c-1.3 0-2.4-1-2.4-2.9zm4-.5c-.1-1-.6-1.7-1.5-1.7h-.1c-.7 0-1.5.4-1.7 1.7h3.3zm3.9 1.6h.7c.1.8.7 1.2 1.4 1.2h.1c.8 0 1.3-.4 1.3-1c0-.4-.3-.7-1-.9l-.8-.1c-.8-.2-1.5-.6-1.5-1.5c0-1.1.9-1.6 2-1.6c1.3 0 2 .8 2 1.7h-.7c0-.6-.5-1.1-1.3-1.1h-.1c-.8 0-1.2.4-1.2.9c0 .5.3.7 1 .9l.9.2c.8.2 1.4.5 1.4 1.4c0 1.1-.8 1.7-2 1.7c-1.5 0-2.2-.8-2.2-1.8zm9.6 3.9s.03-3.1 0-3.1c-.3.6-1.1 1-1.8 1c-1.4 0-2.5-1.1-2.5-2.9c0-1.7 1.1-2.8 2.5-2.8c.7 0 1.5.4 1.8 1c.03-.04 0-.9 0-.9h.7v7.7h-.7zm-1.7-2.7c1.2 0 1.7-1.1 1.7-2.3c0-1.2-.5-2.2-1.7-2.2h-.1c-1.2 0-1.7 1-1.7 2.2c0 1.2.5 2.3 1.7 2.3h.1zm4.1-1.4c.04.01 0-3.6 0-3.6h.8s-.04 3.39 0 3.4c0 1 .4 1.6 1.3 1.6h.1c.8 0 1.6-.8 1.6-2.1c-.02.05 0-2.9 0-2.9h.7v5.5h-.7s-.02-1.05 0-1.1c-.3.8-1 1.2-1.9 1.2c-1.2 0-1.9-.8-1.9-2zm5.9.4c0-1.2 1.1-1.6 1.9-1.7c.04.01 1.8-.1 1.8-.1c0 0-.02-.24 0-.2c0-1-.6-1.5-1.4-1.5h-.1c-.7 0-1.3.3-1.3 1h-.7c0-1 .9-1.6 2.1-1.6c1.4 0 2.1.9 2.1 2.1v3.5h-.6c-.1-.3-.1-.6-.1-.9c-.2.5-.9 1-1.9 1c-1 0-1.8-.7-1.8-1.6zm2 1c.7 0 1.7-.7 1.7-1.5c-.02 0 0-.7 0-.7c0 0-1.62.07-1.6.1c-.8 0-1.3.4-1.3 1c0 .6.4 1.1 1.1 1.1h.1zm4.1.5v-5.5h.6s.04 1.23 0 1.2c.3-.8 1-1.3 1.7-1.3c.05.03.5 0 .5 0v.7s-.4-.02-.4 0c-1.1 0-1.7.8-1.7 2.2v2.7h-.7zm3.5-2.8c0-1.9 1.2-2.8 2.5-2.8c1.3 0 2.2 1 2.2 2.4v.5s-3.97-.02-4 0c0 1.5.9 2.2 1.8 2.2c.8 0 1.3-.4 1.5-1.1h.7c-.3 1.1-1.1 1.7-2.2 1.7c-1.4 0-2.5-1-2.5-2.9zm4-.5c-.1-1-.6-1.7-1.5-1.7h-.1c-.7 0-1.5.4-1.7 1.7h3.3z" stroke="none" fill="#dcddce"/></g><g id="Polygon17866"><path d="m.5 22.1h.7c0 .7.6 1.1 1.4 1.1h.1c.8 0 1.2-.3 1.2-1c0-.4-.2-.6-.9-.8l-.8-.2c-.8-.2-1.5-.5-1.5-1.5c0-1 .9-1.6 1.9-1.6c1.4 0 2.1.9 2.1 1.8h-.7c-.1-.6-.5-1.2-1.3-1.2h-.1c-.8 0-1.2.5-1.2 1c0 .5.3.7 1 .9l.8.1c.8.2 1.5.6 1.5 1.5c0 1-.8 1.6-2.1 1.6c-1.4 0-2.1-.7-2.1-1.7zm5.6 1.6V16h.8s-.04 3.16 0 3.2c.3-.7 1-1.1 1.9-1.1c1.3 0 1.9.8 1.9 2c.01 0 0 3.6 0 3.6h-.7v-3.4c0-1-.4-1.6-1.3-1.6h-.1c-.9 0-1.7.8-1.7 2.1c-.04-.04 0 2.9 0 2.9h-.8zm6-2.7c0-1.7 1.1-2.9 2.5-2.9c1.4 0 2.5 1.2 2.5 2.9c0 1.7-1.1 2.8-2.5 2.8c-1.4 0-2.5-1.1-2.5-2.8zm2.6 2.2c1 0 1.7-.8 1.7-2.2c0-1.4-.7-2.3-1.7-2.3h-.1c-1 0-1.8.9-1.8 2.3c0 1.4.8 2.2 1.8 2.2h.1zm10.3-5h.7L24 23.7h-1L21.8 19l-1.3 4.7h-.9l-1.8-5.5h.8l1.5 4.9l1.2-4.9h.9l1.3 5l1.5-5zm1.4 2.8c0-1.6.9-2.9 2.6-2.9c1.1 0 2 .7 2.1 1.9h-.7c-.1-.7-.6-1.3-1.4-1.3h-.1c-1.2 0-1.8 1.1-1.8 2.3c0 1.2.6 2.2 1.8 2.2h.1c.8 0 1.2-.5 1.4-1.2h.7c-.2 1.1-1 1.8-2.1 1.8c-1.7 0-2.6-1.2-2.6-2.8zm5.8 1.2c0-1.2 1.1-1.6 1.9-1.6c.01-.04 1.8-.2 1.8-.2c0 0-.05-.19 0-.2c0-.9-.6-1.5-1.4-1.5h-.1c-.7 0-1.3.4-1.4 1.1h-.7c.1-1 1-1.7 2.1-1.7c1.5 0 2.2 1 2.2 2.1v3.5h-.6c-.1-.2-.1-.6-.1-.8c-.2.5-1 .9-1.9.9c-1 0-1.8-.7-1.8-1.6zm1.9 1c.8 0 1.8-.6 1.8-1.5c-.05.05 0-.7 0-.7c0 0-1.64.12-1.6.1c-.8.1-1.4.5-1.4 1.1c0 .6.5 1 1.1 1h.1zm3.8-1.1h.7c.1.7.6 1.1 1.4 1.1h.1c.8 0 1.3-.3 1.3-1c0-.4-.3-.6-1-.8l-.8-.2c-.8-.2-1.5-.5-1.5-1.5c0-1 .9-1.6 2-1.6c1.3 0 2 .9 2 1.8h-.7c-.1-.6-.5-1.2-1.3-1.2h-.1c-.8 0-1.2.5-1.2 1c0 .5.3.7 1 .9l.9.1c.7.2 1.4.6 1.4 1.5c0 1-.8 1.6-2 1.6c-1.5 0-2.2-.7-2.2-1.7zm5.3-1.1c0-2 1.2-2.9 2.5-2.9c1.3 0 2.2 1.1 2.2 2.5v.4s-3.96.03-4 0c.1 1.6.9 2.2 1.8 2.2c.8 0 1.3-.3 1.5-1h.7c-.2 1.1-1.1 1.6-2.2 1.6c-1.4 0-2.5-.9-2.5-2.8zm4-.6c0-.9-.6-1.7-1.5-1.7h-.1c-.7 0-1.5.4-1.6 1.7h3.2zm1.8 1.7h.7c.1.7.7 1.1 1.4 1.1h.1c.8 0 1.3-.3 1.3-1c0-.4-.3-.6-1-.8l-.8-.2c-.8-.2-1.5-.5-1.5-1.5c0-1 .9-1.6 2-1.6c1.4 0 2 .9 2 1.8h-.7c0-.6-.5-1.2-1.3-1.2h-.1c-.7 0-1.2.5-1.2 1c0 .5.3.7 1 .9l.9.1c.8.2 1.4.6 1.4 1.5c0 1-.8 1.6-2 1.6c-1.4 0-2.2-.7-2.2-1.7zm7.5.1c0-1.2 1.1-1.6 1.9-1.6c.04-.04 1.8-.2 1.8-.2c0 0-.02-.19 0-.2c0-.9-.6-1.5-1.4-1.5h-.1c-.7 0-1.3.4-1.3 1.1h-.7c0-1 .9-1.7 2.1-1.7c1.4 0 2.1 1 2.1 2.1v3.5h-.6c-.1-.2-.1-.6-.1-.8c-.2.5-.9.9-1.9.9c-1 0-1.8-.7-1.8-1.6zm2 1c.7 0 1.7-.6 1.7-1.5c-.02.05 0-.7 0-.7c0 0-1.62.12-1.6.1c-.8.1-1.3.5-1.3 1.1c0 .6.4 1 1.1 1h.1zm6.3 2.7v-7.7h.7s.01.91 0 .9c.3-.6 1.1-1 1.8-1c1.5 0 2.5 1.1 2.5 2.9c0 1.7-1 2.8-2.5 2.8c-.7 0-1.5-.3-1.8-.9v3h-.7zm2.5-2.7c1.2 0 1.8-1 1.8-2.2c0-1.2-.6-2.3-1.8-2.3c-1.2 0-1.8 1.1-1.8 2.3c0 1.2.6 2.2 1.8 2.2zm3.6-1c0-1.2 1.1-1.6 1.9-1.6c.01-.04 1.7-.2 1.7-.2c0 0 .05-.19 0-.2c0-.9-.5-1.5-1.3-1.5h-.1c-.7 0-1.3.4-1.4 1.1h-.7c.1-1 1-1.7 2.1-1.7c1.5 0 2.2 1 2.2 2.1v3.5h-.6c-.1-.2-.1-.6-.1-.8c-.2.5-1 .9-1.9.9c-1 0-1.8-.7-1.8-1.6zm1.9 1c.8 0 1.7-.6 1.7-1.5c.05.05 0-.7 0-.7c0 0-1.55.12-1.5.1c-.8.1-1.4.5-1.4 1.1c0 .6.5 1 1.1 1h.1zm4.2.5V16h.7v7.7h-.7zm2.1-2.7c0-2 1.2-2.9 2.5-2.9c1.3 0 2.2 1.1 2.2 2.5v.4s-3.97.03-4 0c.1 1.6.9 2.2 1.8 2.2c.8 0 1.3-.3 1.5-1h.7c-.3 1.1-1.1 1.6-2.2 1.6c-1.4 0-2.5-.9-2.5-2.8zm4-.6c-.1-.9-.6-1.7-1.5-1.7h-.1c-.7 0-1.5.4-1.6 1.7h3.2zm3.7 3.3c-.7 0-1-.2-1-1c-.02.04 0-3.9 0-3.9h-1.3v-.6h1.3v-1.8h.7v1.8h1.4v.6h-1.4v3.9c0 .3.1.4.4.4c.04.03 1.1 0 1.1 0v.6s-1.17.03-1.2 0zm4.2 0c-.7 0-1-.2-1-1v-3.9h-1.3v-.6h1.3v-1.8h.7v1.8h1.4v.6h-1.4v3.9c0 .3.1.4.4.4c.05.03 1.1 0 1.1 0v.6s-1.16.03-1.2 0zm1.9-2.7c0-2 1.2-2.9 2.5-2.9c1.3 0 2.2 1.1 2.2 2.5v.4s-3.96.03-4 0c.1 1.6.9 2.2 1.8 2.2c.8 0 1.3-.3 1.5-1h.7c-.3 1.1-1.1 1.6-2.2 1.6c-1.4 0-2.5-.9-2.5-2.8zm4-.6c0-.9-.6-1.7-1.5-1.7h-.1c-.7 0-1.5.4-1.6 1.7h3.2zm4 .6c0-1.7 1.1-2.9 2.5-2.9c1.4 0 2.6 1.2 2.6 2.9c0 1.7-1.2 2.8-2.6 2.8c-1.4 0-2.5-1.1-2.5-2.8zm2.6 2.2c1 0 1.7-.8 1.7-2.2c0-1.4-.7-2.3-1.7-2.3h-.1c-1 0-1.8.9-1.8 2.3c0 1.4.8 2.2 1.8 2.2h.1zm4.4.5v-4.9h-1.3v-.6h1.3V17c0-.7.3-1 1-1c.03.03 1.4 0 1.4 0v.6s-1.26.03-1.3 0c-.3 0-.4.1-.4.5v1.1h1.4v.6h-1.4v4.9h-.7zm5.4 0V16h.7s.04 3.16 0 3.2c.4-.7 1.1-1.1 2-1.1c1.2 0 1.9.8 1.9 2c-.01 0 0 3.6 0 3.6h-.7s-.02-3.38 0-3.4c0-1-.5-1.6-1.3-1.6h-.1c-.9 0-1.8.8-1.8 2.1c.04-.04 0 2.9 0 2.9h-.7zm6.2-6.5v-.9h.9v.9h-.9zm.1 6.5v-5.5h.7v5.5h-.7zm2 .8h.7c.2.7.8 1 1.7 1h.2c.9 0 1.7-.5 1.7-1.9v-.9c-.3.6-.9 1-1.8 1c-1.4 0-2.4-1-2.4-2.7c0-1.8 1-2.9 2.4-2.9c.9 0 1.5.4 1.8 1c.02.01 0-.9 0-.9h.7s.04 5.49 0 5.5c0 1.4-.9 2.4-2.5 2.4c-1.6 0-2.4-.6-2.5-1.6zm2.6-1.4c1 0 1.7-.7 1.7-2.1c0-1.4-.7-2.3-1.7-2.3h-.1c-1 0-1.7.9-1.7 2.3c0 1.4.7 2.1 1.7 2.1h.1zm4.2.6V16h.7s-.02 3.16 0 3.2c.4-.7 1-1.1 2-1.1c1.2 0 1.8.8 1.8 2c.03 0 0 3.6 0 3.6h-.7s.02-3.38 0-3.4c0-1-.4-1.6-1.3-1.6h-.1c-.9 0-1.7.8-1.7 2.1c-.02-.04 0 2.9 0 2.9h-.7zm6-3v-.6h2.7v.6h-2.7zm8.3 5.2v-3c-.3.6-1.1.9-1.9.9c-1.4 0-2.4-1.1-2.4-2.8c0-1.8 1-2.9 2.4-2.9c.8 0 1.6.4 1.9 1c-.01.01 0-.9 0-.9h.7v7.7h-.7zm-1.8-2.7c1.2 0 1.8-1 1.8-2.2c0-1.2-.6-2.3-1.8-2.3c-1.2 0-1.8 1.1-1.8 2.3c0 1.2.6 2.2 1.8 2.2zm4.2-1.3v-3.7h.7s.01 3.44 0 3.4c0 1.1.5 1.6 1.3 1.6h.1c.8 0 1.6-.7 1.6-2c.04 0 0-3 0-3h.8v5.5h-.8s.04-1 0-1c-.2.7-.9 1.1-1.8 1.1c-1.2 0-1.9-.8-1.9-1.9zm5.9.3c0-1.2 1-1.6 1.9-1.6c-.01-.04 1.7-.2 1.7-.2c0 0 .03-.19 0-.2c0-.9-.5-1.5-1.3-1.5h-.1c-.7 0-1.3.4-1.4 1.1h-.7c.1-1 .9-1.7 2.1-1.7c1.5 0 2.1 1 2.1 2.1v2.3c0 .3 0 .8.1 1.2h-.7v-.8c-.2.5-1 .9-2 .9c-.9 0-1.7-.7-1.7-1.6zm1.9 1c.8 0 1.7-.6 1.7-1.5c.03.05 0-.7 0-.7c0 0-1.56.12-1.6.1c-.7.1-1.3.5-1.3 1.1c0 .6.5 1 1.1 1h.1zm4.1.5V16h.8v7.7h-.8zm2.4-6.5v-.9h.9v.9h-.9zm.1 6.5v-5.5h.7v5.5h-.7zm4.1 0c-.7 0-1-.2-1-1c-.04.04 0-3.9 0-3.9h-1.3v-.6h1.3v-1.8h.7v1.8h1.3v.6h-1.3s-.03 3.89 0 3.9c0 .3.1.4.4.4c.01.03 1.1 0 1.1 0v.6s-1.2.03-1.2 0zm7.3-5.5l-2.3 5.3v1.1c0 .7-.3.9-1 .9c-.05.04-1.7 0-1.7 0v-.6s1.54.04 1.5 0c.4 0 .5-.1.5-.4c-.02 0 0-.9 0-.9l-2.3-5.4h.7l1.9 4.5l1.9-4.5h.8zm3.8 5.5v-4.9h-1.3v-.6h1.3V17c0-.7.3-1 1.1-1c-.04.03 1.3 0 1.3 0v.6s-1.23.03-1.2 0c-.4 0-.5.1-.5.5c.03-.03 0 1.1 0 1.1h3.7v5.5h-.7v-4.9h-3v4.9h-.7zm3.6-6.5v-.9h.9v.9h-.9zm2.6 6.5v-5.5h.7v1c.3-.7 1-1.1 1.9-1.1c1.1 0 1.9.7 1.9 2c.04.03 0 3.6 0 3.6h-.7s.02-3.35 0-3.3c0-1.1-.4-1.7-1.3-1.7h-.1c-1.2 0-1.7 1.1-1.7 2.3v2.7h-.7zm6.2-6.5v-.9h.8v.9h-.8zm0 6.5v-5.5h.7v5.5h-.7zm2.1-1.6h.7c.1.7.7 1.1 1.4 1.1h.1c.8 0 1.3-.3 1.3-1c0-.4-.3-.6-1-.8l-.8-.2c-.8-.2-1.5-.5-1.5-1.5c0-1 .9-1.6 2-1.6c1.3 0 2 .9 2 1.8h-.7c0-.6-.5-1.2-1.3-1.2h-.1c-.8 0-1.2.5-1.2 1c0 .5.3.7 1 .9l.9.1c.8.2 1.4.6 1.4 1.5c0 1-.8 1.6-2 1.6c-1.5 0-2.2-.7-2.2-1.7zm5.7 1.6V16h.7v3.2c.4-.7 1-1.1 2-1.1c1.2 0 1.8.8 1.8 2c.04 0 0 3.6 0 3.6h-.7s.03-3.38 0-3.4c0-1-.4-1.6-1.3-1.6h-.1c-.9 0-1.7.8-1.7 2.1v2.9h-.7zm5.9-2.7c0-2 1.2-2.9 2.5-2.9c1.3 0 2.2 1.1 2.2 2.5v.4s-3.95.03-3.9 0c0 1.6.8 2.2 1.7 2.2c.8 0 1.3-.3 1.5-1h.7c-.2 1.1-1.1 1.6-2.2 1.6c-1.4 0-2.5-.9-2.5-2.8zm4-.6c0-.9-.6-1.7-1.5-1.7h-.1c-.7 0-1.5.4-1.6 1.7h3.2zm1.8 1.7h.7c.1.7.7 1.1 1.4 1.1h.1c.8 0 1.3-.3 1.3-1c0-.4-.2-.6-1-.8l-.8-.2c-.8-.2-1.5-.5-1.5-1.5c0-1 .9-1.6 2-1.6c1.4 0 2 .9 2.1 1.8h-.8c0-.6-.5-1.2-1.3-1.2h-.1c-.7 0-1.2.5-1.2 1c0 .5.3.7 1 .9l.9.1c.8.2 1.4.6 1.4 1.5c0 1-.8 1.6-2 1.6c-1.4 0-2.1-.7-2.2-1.7z" stroke="none" fill="#dcddce"/></g><g id="Polygon17865"><path d="m1.1 8.6V.9h5.3v.7H1.8v2.7h4v.7h-4v2.9h4.8v.7H1.1zm10.4-5.5h.7l-2.1 5.5h-.9L7.1 3.1h.8l1.8 4.8l1.8-4.8zM13 5.8C13 3.9 14.2 3 15.5 3c1.3 0 2.2 1 2.2 2.4v.5s-3.97-.02-4 0c.1 1.5.9 2.2 1.8 2.2c.8 0 1.3-.4 1.5-1.1h.7c-.3 1.1-1.1 1.7-2.2 1.7c-1.4 0-2.5-1-2.5-2.9zm4-.5c-.1-1-.6-1.7-1.5-1.7h-.1c-.7 0-1.5.4-1.6 1.7h3.2zm2.3 3.3V3.1h.7s-.02 1.23 0 1.2c.2-.8.9-1.3 1.7-1.3c-.01.03.5 0 .5 0v.7s-.46-.02-.5 0c-1 0-1.7.8-1.7 2.2c.04.01 0 2.7 0 2.7h-.7zm9.2-5.5l-2.3 5.3v1c0 .7-.3 1-1 1c-.05-.01-1.7 0-1.7 0v-.6h1.5c.4 0 .5-.1.5-.4c-.02-.05 0-1 0-1l-2.4-5.3h.8l1.9 4.4l1.9-4.4h.8zm5-2.2h.5v7.7h-.7V2l-1.8 1.7v-.9l2-1.9zm2.2 8.9v-.4h.4c.4 0 .6-.2.6-.7c.03.04 0-.1 0-.1h-.6V7.5h1.1s.02 1.3 0 1.3c0 .7-.4 1-1 1c-.02.04-.5 0-.5 0zM42.9.9h.5v7.7h-.7V2l-1.9 1.7v-.9L42.9.9zm4.5 7.5V6.1H45v-.7h2.4V3.1h.7v2.3h2.4v.7h-2.4v2.3h-.7zM58.8.9h1.3v7.7h-.8V1.5l-2.7 7.1h-1.1l-2.7-7.1v7.1h-.7V.9h1.3L56.1 8L58.8.9zm3.5 7.7V.9s3.09-.02 3.1 0c1.3 0 2.4.8 2.4 2.3c0 1.4-1.1 2.2-2.4 2.2h-2.3v3.2h-.8zm.8-3.9h2.1c1.1 0 1.8-.5 1.8-1.5c0-1.1-.7-1.6-1.8-1.6h-2.1v3.1zm6.3 3.9V.9s3.1-.02 3.1 0c1.4 0 2.4.8 2.4 2c0 .9-.5 1.6-1.2 1.9c.8 0 1 .3 1 1c.05.03 0 2.8 0 2.8h-.7s-.02-2.77 0-2.8c0-.3-.2-.5-.5-.5c-.02.03-3.4 0-3.4 0v3.3h-.7zm.7-4s2.29.02 2.3 0c.9 0 1.7-.6 1.7-1.6c0-.9-.6-1.4-1.7-1.4h-2.3v3zm6.3 5.2v-.4h.3c.5 0 .7-.2.7-.7v-.1h-.6V7.5h1.1v1.3c0 .7-.4 1-1 1c-.04.04-.5 0-.5 0zm6.3-2h4v.8h-4.9v-.8s3.05-3.13 3.1-3.1c.8-.9 1-1.2 1-1.9c0-.7-.7-1.3-1.6-1.3h-.1c-1 0-1.6.6-1.6 1.6h-.8c.1-1.4 1-2.3 2.5-2.3c1.4 0 2.3.8 2.3 2c0 1-.4 1.6-1.1 2.2c0 .03-2.8 2.8-2.8 2.8zm5.1 2v-.4h.4c.4 0 .6-.2.6-.7c.03.04 0-.1 0-.1h-.6V7.5h1.1s.02 1.3 0 1.3c0 .7-.4 1-1 1c-.02.04-.5 0-.5 0zm6.3-2h4.1v.8h-5v-.8s3.07-3.13 3.1-3.1c.8-.9 1-1.2 1-1.9c0-.7-.7-1.3-1.5-1.3h-.2c-.9 0-1.6.6-1.6 1.6h-.7c0-1.4.9-2.3 2.4-2.3c1.4 0 2.4.8 2.4 2c0 1-.5 1.6-1.2 2.2c.02.03-2.8 2.8-2.8 2.8zm7.1.6V6.1h-2.3v-.7h2.3V3.1h.7v2.3h2.4v.7h-2.4v2.3h-.7zM112.6.9h1.3v7.7h-.8V1.5l-2.6 7.1h-1.1l-2.7-7.1v7.1h-.8V.9h1.3l2.7 7.1l2.7-7.1zm3.6 7.7V.9s3.03-.02 3 0c1.4 0 2.5.8 2.5 2.3c0 1.4-1.1 2.2-2.5 2.2h-2.3v3.2h-.7zm.7-3.9h2.2c1 0 1.8-.5 1.8-1.5c0-1.1-.8-1.6-1.8-1.6c-.03-.01-2.2 0-2.2 0v3.1zm6.3 3.9V.9s3.15-.02 3.1 0c1.4 0 2.4.8 2.4 2c0 .9-.5 1.6-1.2 1.9c.8 0 1.1.3 1.1 1v2.8h-.8s.02-2.77 0-2.8c0-.3-.1-.5-.5-.5c.03.03-3.3 0-3.3 0v3.3h-.8zm.8-4s2.24.02 2.2 0c.9 0 1.7-.6 1.7-1.6c0-.9-.6-1.4-1.7-1.4c.04-.01-2.2 0-2.2 0v3zm6.3 5.2v-.4h.3c.4 0 .6-.2.6-.7c.05.04 0-.1 0-.1h-.6V7.5h1.1s.04 1.3 0 1.3c0 .7-.3 1-1 1c0 .04-.4 0-.4 0zm5.3-3.2h.7c.2.9.8 1.4 1.8 1.4h.1c.9 0 1.7-.5 1.7-1.5c0-.9-.7-1.4-1.7-1.4h-.5v-.7s.62-.02.6 0c1 0 1.5-.7 1.5-1.4c0-1-.7-1.5-1.6-1.5h-.1c-.9 0-1.5.6-1.6 1.4h-.8c.1-1.2 1.1-2.1 2.4-2.1c1.4 0 2.5.7 2.5 2.1c0 .8-.6 1.5-1.3 1.8c.7.3 1.3.9 1.3 1.8c0 1.5-1.2 2.2-2.5 2.2c-1.5 0-2.4-.8-2.5-2.1zm8.8.5c0-1.2 1.1-1.6 1.9-1.7c.01.01 1.7-.1 1.7-.1c0 0 .05-.24 0-.2c0-1-.5-1.5-1.3-1.5h-.1c-.7 0-1.3.3-1.4 1h-.7c.1-1 1-1.6 2.1-1.6c1.5 0 2.2.9 2.2 2.1v3.5h-.6c-.1-.3-.1-.6-.1-.9c-.2.5-1 1-1.9 1c-1 0-1.8-.7-1.8-1.6zm1.9 1c.8 0 1.7-.7 1.7-1.5c.05 0 0-.7 0-.7c0 0-1.55.07-1.6.1c-.7 0-1.3.4-1.3 1c0 .6.5 1.1 1.1 1.1h.1zm4.3.5V3.1h.7s.03.9 0 .9c.3-.6 1.1-1 2-1c1.1 0 1.9.7 1.9 2c-.02-.02 0 3.6 0 3.6h-.7s-.04-3.4 0-3.4c0-1.1-.5-1.6-1.4-1.6c-1.2 0-1.8 1-1.8 2.2c.03.03 0 2.8 0 2.8h-.7zm6.1-2.8c0-1.7 1.1-2.8 2.5-2.8c.7 0 1.5.4 1.8 1c.03-.04 0-3.1 0-3.1h.7v7.7h-.7s.03-.9 0-.9c-.3.6-1.1 1-1.8 1c-1.4 0-2.5-1.1-2.5-2.9zm2.6 2.3c1.2 0 1.7-1.1 1.7-2.3c0-1.2-.5-2.2-1.7-2.2h-.1c-1.2 0-1.7 1-1.7 2.2c0 1.2.5 2.3 1.7 2.3h.1zm10 .5V6.7h-3.8v-.8l3.7-5h.8v5.1h1.3v.7H170v1.9h-.7zM166.2 6h3.1V1.8L166.2 6zm6.3-.4v-.6h2.8v.6h-2.8zm5.1 2.1c.01 0 0 .9 0 .9h-.7V.9h.7v3.1c.3-.6 1.1-1 1.8-1c1.5 0 2.5 1.1 2.5 2.8c0 1.8-1 2.9-2.5 2.9c-.7 0-1.5-.4-1.8-1zm1.8.4c1.2 0 1.8-1.1 1.8-2.3c0-1.2-.6-2.2-1.8-2.2c-1.2 0-1.8 1-1.8 2.2c0 1.2.6 2.3 1.8 2.3zm3.8-2.3c0-1.9 1.2-2.8 2.5-2.8c1.3 0 2.2 1 2.2 2.4v.5s-3.96-.02-4 0c.1 1.5.9 2.2 1.8 2.2c.8 0 1.3-.4 1.5-1.1h.7c-.3 1.1-1.1 1.7-2.2 1.7c-1.4 0-2.5-1-2.5-2.9zm4-.5c0-1-.6-1.7-1.5-1.7h-.1c-.7 0-1.5.4-1.6 1.7h3.2zm2 .5c0-1.7 1.1-2.8 2.5-2.8c.7 0 1.5.4 1.8 1c.02-.04 0-3.1 0-3.1h.7v7.7h-.7s.02-.9 0-.9c-.3.6-1.1 1-1.8 1c-1.4 0-2.5-1.1-2.5-2.9zm2.6 2.3c1.1 0 1.7-1.1 1.7-2.3c0-1.2-.6-2.2-1.7-2.2h-.1c-1.2 0-1.7 1-1.7 2.2c0 1.2.5 2.3 1.7 2.3h.1zm6.4-1c0-1.2 1-1.6 1.9-1.7l1.7-.1s.03-.24 0-.2c0-1-.5-1.5-1.3-1.5h-.1c-.7 0-1.3.3-1.4 1h-.7c.1-1 .9-1.6 2.1-1.6c1.5 0 2.1.9 2.1 2.1v2.3c0 .3 0 .8.1 1.2h-.7v-.9c-.2.5-1 1-2 1c-.9 0-1.7-.7-1.7-1.6zm1.9 1c.8 0 1.7-.7 1.7-1.5c.03 0 0-.7 0-.7c0 0-1.56.07-1.6.1c-.7 0-1.3.4-1.3 1c0 .6.5 1.1 1.1 1.1h.1zm4.3 2.7V3.1h.7s.02.86 0 .9c.3-.6 1.1-1 1.9-1c1.4 0 2.4 1.1 2.4 2.8c0 1.8-1 2.9-2.4 2.9c-.8 0-1.6-.4-1.9-1c.02 0 0 3.1 0 3.1h-.7zm2.5-2.7c1.2 0 1.8-1.1 1.8-2.3c0-1.2-.6-2.2-1.8-2.2c-1.2 0-1.8 1-1.8 2.2c0 1.2.6 2.3 1.8 2.3zm3.8-1c0-1.2 1-1.6 1.9-1.7l1.7-.1s.02-.24 0-.2c0-1-.5-1.5-1.4-1.5c-.7 0-1.3.3-1.4 1h-.7c.1-1 .9-1.6 2.1-1.6c1.4 0 2.1.9 2.1 2.1v2.3c0 .3 0 .8.1 1.2h-.7v-.9c-.2.5-1 1-2 1c-.9 0-1.7-.7-1.7-1.6zm1.9 1c.8 0 1.7-.7 1.7-1.5c.02 0 0-.7 0-.7c0 0-1.58.07-1.6.1c-.8 0-1.3.4-1.3 1c0 .6.5 1.1 1.1 1.1h.1zm4.3.5V3.1h.6s.05 1.23 0 1.2c.3-.8 1-1.3 1.8-1.3c-.05.03.4 0 .4 0v.7s-.39-.02-.4 0c-1 0-1.7.8-1.7 2.2v2.7h-.7zm6.1 0c-.7 0-1.1-.3-1.1-1c.04-.01 0-3.9 0-3.9h-1.2v-.6h1.2V1.3h.8v1.8h1.3v.6h-1.3s-.05 3.84 0 3.8c0 .4.1.5.4.5c-.01-.02 1.1 0 1.1 0v.6s-1.22-.02-1.2 0zm2.5 0V3.1h.7s.01.86 0 .9c.3-.6 1-1 1.8-1c.8 0 1.5.4 1.8 1.1c.3-.7 1-1.1 1.9-1.1c1.1 0 1.9.7 1.9 2c-.02-.02 0 3.6 0 3.6h-.7s-.04-3.4 0-3.4c0-1.1-.5-1.6-1.3-1.6h-.1c-1.1 0-1.6 1-1.6 2.2v2.8h-.7s-.02-3.4 0-3.4c0-1.1-.4-1.6-1.3-1.6h-.1c-1.1 0-1.6 1-1.6 2.2v2.8h-.7zm9.7-2.8c0-1.9 1.1-2.8 2.4-2.8c1.3 0 2.2 1 2.2 2.4c.03.05 0 .5 0 .5c0 0-3.93-.02-3.9 0c0 1.5.8 2.2 1.7 2.2h.1c.7 0 1.2-.4 1.4-1.1h.7c-.2 1.1-1.1 1.7-2.2 1.7c-1.4 0-2.4-1-2.4-2.9zm3.9-.5c0-1-.6-1.7-1.4-1.7h-.2c-.7 0-1.5.4-1.6 1.7h3.2zm2.4 3.3V3.1h.7s-.03.9 0 .9c.3-.6 1-1 1.9-1c1.1 0 1.9.7 1.9 2c.02-.02 0 3.6 0 3.6h-.7s.01-3.4 0-3.4c0-1.1-.4-1.6-1.3-1.6h-.1c-1.2 0-1.7 1-1.7 2.2c-.03.03 0 2.8 0 2.8h-.7zm8 0c-.8 0-1.1-.3-1.1-1V3.7h-1.3v-.6h1.3V1.3h.7v1.8h1.4v.6h-1.4s.03 3.84 0 3.8c0 .4.1.5.5.5c-.03-.02 1.1 0 1.1 0v.6s-1.24-.02-1.2 0z" stroke="none" fill="#dcddce"/></g></svg>