<?xml version="1.0" standalone="no"?><!DOCTYPE svg PUBLIC "-//W3C//DTD SVG 1.1//EN" "http://www.w3.org/Graphics/SVG/1.1/DTD/svg11.dtd"><svg xmlns="http://www.w3.org/2000/svg" version="1.1" width="595.3px" height="84px" viewBox="0 -4 595.3 84" style="top:-4px"><desc>SUSTAINABLE LIVING</desc><defs/><g id="Polygon22654"><path d="m14.5 45c-4.5 0-9.6-1.5-12.6-4.1v-4.7c2.9 4.7 7.8 7.4 12.7 7.4c6.1 0 9.8-2.7 9.8-6.4c0-4.1-2.1-6.5-10.7-10.1C4.9 23.3 2.4 21 2.4 17.6c0-3.7 4.2-6.7 13.3-6.7c5.1 0 9.1 1.8 11.7 4v4.6c-2.9-4.7-7.8-7.1-12.6-7.3c-6 0-9.1 1.7-9.1 4.4c.1 2.6 2.4 4.6 9.7 7.6c8.5 3.5 12.6 7 12.6 11.7c0 5.1-3.9 9.1-13.5 9.1zm23.1-34.1s.02 20.9 0 20.9c0 7 4.6 11.3 11.9 11.3c7.2 0 10.6-4.5 10.6-11.4c.02.04 0-20.8 0-20.8h1.8s-.04 20.84 0 20.8c0 8-4.5 13.3-14 13.3c-9.3 0-13.8-5.5-13.8-13.3c.04.04 0-20.8 0-20.8h3.5zm43 34.1c-4.5 0-9.6-1.5-12.6-4.1v-4.7c2.9 4.7 7.8 7.4 12.7 7.4c6.1 0 9.8-2.7 9.8-6.4c0-4.1-2.1-6.5-10.7-10.1c-8.8-3.8-11.3-6.1-11.3-9.5c0-3.7 4.2-6.7 13.3-6.7c5.1 0 9.2 1.8 11.7 4v4.6c-2.9-4.7-7.8-7.1-12.6-7.3c-6 0-9.1 1.7-9.1 4.4c.1 2.6 2.4 4.6 9.7 7.6c8.5 3.5 12.6 7 12.6 11.7c0 5.1-3.9 9.1-13.5 9.1zm49.5-31.6l-14.3-1.2V45h-3.5V12.2l-14.2 1.2v-2.5h32v2.5zM126.9 45l17.8-34.6L162.4 45h-3.9l-4.8-9.5h-20l-4.9 9.5h-1.9zm7.7-11.2h18.2l-9.1-17.6l-9.1 17.6zm37 11.2h-3.5V10.9h3.5V45zm8.1 0V10.9h1.4l28.1 28.7V10.9h1.7V45h-1.4l-28.1-28.7V45h-1.7zm35.9 0l17.8-34.6L251.2 45h-3.9l-4.9-9.5h-20l-4.8 9.5h-2zm7.7-11.2h18.2l-9.1-17.6l-9.1 17.6zm33.1-22.9s10.6-.04 10.6 0c9.9 0 14.3 4 14.3 8.3c0 3.1-2.4 6.2-7.4 7.6c7.5 1.2 11.2 4.5 11.2 8.8c0 5.6-6 9.4-18.1 9.4h-10.6V10.9zm3.5 32.8s7.1-.02 7.1 0c8 0 14.5-2.5 14.5-8.1c0-5.4-6.1-7.9-13.9-8h-7.7v16.1zm0-31.5v14.1s7.1-.02 7.1 0c7.3 0 10.6-2.8 10.6-7.1c0-4.3-3.3-7-10.6-7c0 .04-7.1 0-7.1 0zm31.2-1.3h3.4v32.7l18.5-1.1l-.3 2.5h-21.6V10.9zm51.4 0v2.5l-20.1-1.2v14.7h15.7l-.4 2.6l-15.3-1.2v15.4l20.4-1.2l-.3 2.5h-23.6V10.9h23.6zm25.6 0h3.5v32.7l18.4-1.1l-.3 2.5h-21.6V10.9zM399.9 45h-3.5V10.9h3.5V45zm9.9-34.1l14.8 28.8l14.8-28.8h2l-17.7 34.5l-17.9-34.5h4zm41 34.1h-3.4V10.9h3.4V45zm8.1 0V10.9h1.4l28.1 28.7V10.9h1.7V45h-1.3l-28.1-28.7V45h-1.8zm65.9-4.2c-3.1 2.6-7.2 4.2-11.6 4.2c-9.4 0-17.1-7.6-17.1-17c0-9.5 7.7-17.1 17.1-17.1c4.4 0 8.7 1.5 11.6 4v4.8c-3.9-6.5-11.7-9-17.7-6.5c-6.8 2.9-9.7 11.8-6.3 19.9c2.7 6.5 8.4 10.4 13.9 10.4c1.6 0 3.2-.3 4.7-.9c.6-.2 1.3-.6 2-1V28.8h3.4v12z" stroke="none" fill="#192d39"/></g></svg>