<?xml version="1.0" standalone="no"?><!DOCTYPE svg PUBLIC "-//W3C//DTD SVG 1.1//EN" "http://www.w3.org/Graphics/SVG/1.1/DTD/svg11.dtd"><svg xmlns="http://www.w3.org/2000/svg" version="1.1" width="202px" height="195.8px" viewBox="0 -1 202 195.8" style="top:-1px"><desc>Dedicated onsite building management to lease properties, inspect grounds and facilities and conduct all maintenance....</desc><defs/><g class="svg-tables"><g class="svg-table-background"/></g><g id="Polygon20245"><path d="m20.4 166.1h.7l-1.9 7.7h-1.1l-1.7-6.9l-1.7 6.9h-1.2l-1.9-7.7h.8l1.7 7.1l1.7-7.1h1.2l1.7 7.1l1.7-7.1zm1.4 6.2c0-1.2 1-1.6 1.9-1.6c-.04-.03 1.7-.2 1.7-.2v-.2c0-.9-.5-1.5-1.4-1.5c-.7 0-1.3.4-1.4 1.1h-.7c0-1 .9-1.7 2.1-1.7c1.4 0 2.1 1 2.1 2.1v2.3c0 .4 0 .9.1 1.2h-.7v-.8c-.3.5-1 1-2 1c-1 0-1.7-.7-1.7-1.7zm1.9 1c.8 0 1.7-.6 1.7-1.4v-.8s-1.6.13-1.6.1c-.8.1-1.3.5-1.3 1.1c0 .6.5 1 1.1 1h.1zm5.6.5c-.7 0-1-.2-1-.9v-4H27v-.6h1.3v-1.7h.7v1.7h1.4v.6H29s.02 3.9 0 3.9c0 .3.1.4.5.4c-.04.04 1.1 0 1.1 0v.6s-1.25.04-1.3 0zm1.9-2.7c0-1.9 1.2-2.9 2.5-2.9c1.3 0 2.2 1.1 2.2 2.5v.4s-3.95.05-4 0c.1 1.6.9 2.2 1.8 2.2c.8 0 1.3-.3 1.5-1h.7c-.2 1.1-1.1 1.7-2.2 1.7c-1.4 0-2.5-1-2.5-2.9zm4-.6c0-.9-.6-1.7-1.5-1.7h-.1c-.7 0-1.5.4-1.6 1.7h3.2zm2.2 3.3v-5.5h.6s.03 1.29 0 1.3c.3-.9 1-1.3 1.7-1.3h.5v.6s-.41.05-.4 0c-1.1 0-1.7.9-1.7 2.3v2.6h-.7zm7.7 0c-.7 0-1-.2-1-.9c-.04-.05 0-4 0-4h-1.3v-.6h1.3v-1.7h.7v1.7h1.4v.6h-1.4s-.02 3.9 0 3.9c0 .3.1.4.4.4c.02.04 1.1 0 1.1 0v.6s-1.19.04-1.2 0zm2.1-1.5c0-1.2 1-1.6 1.9-1.6c-.01-.03 1.7-.2 1.7-.2c0 0 .03-.18 0-.2c0-.9-.5-1.5-1.3-1.5h-.1c-.7 0-1.3.4-1.4 1.1h-.7c.1-1 .9-1.7 2.1-1.7c1.5 0 2.1 1 2.1 2.1v2.3c0 .4 0 .9.1 1.2h-.7v-.8c-.2.5-1 1-2 1c-.9 0-1.7-.7-1.7-1.7zm1.9 1c.8 0 1.7-.6 1.7-1.4c.03-.04 0-.8 0-.8c0 0-1.57.13-1.6.1c-.7.1-1.3.5-1.3 1.1c0 .6.5 1 1.1 1h.1zm4.1 2.7v-7.7h.7s.05.92 0 .9c.4-.6 1.2-1 1.9-1c1.4 0 2.4 1.1 2.4 2.9c0 1.8-1 2.9-2.4 2.9c-.7 0-1.5-.4-1.9-1c.05-.04 0 3 0 3h-.7zm2.6-2.7c1.1 0 1.7-1 1.7-2.2c0-1.2-.6-2.3-1.7-2.3h-.1c-1.2 0-1.8 1.1-1.8 2.3c0 1.2.6 2.2 1.8 2.2h.1zm6-5.9v-1h.8v1h-.8zm.1 6.4v-5.5h.7v5.5h-.7zm2.4 0v-5.5h.7s.02.96 0 1c.3-.6 1-1.1 1.9-1.1c1.1 0 2 .7 2 2c-.03.04 0 3.6 0 3.6h-.7s-.04-3.34 0-3.3c0-1.1-.5-1.7-1.4-1.7c-1.2 0-1.8 1.1-1.8 2.3c.02-.01 0 2.7 0 2.7h-.7zm5.9-1.6h.7c.1.8.6 1.1 1.4 1.1h.1c.8 0 1.3-.3 1.3-.9c0-.5-.3-.7-1-.9l-.8-.2c-.8-.1-1.5-.5-1.5-1.5c0-1 .9-1.6 2-1.6c1.3 0 2 .9 2 1.8h-.7c-.1-.6-.5-1.2-1.3-1.2h-.1c-.8 0-1.2.5-1.2 1c0 .5.3.7 1 .9l.9.1c.7.2 1.4.6 1.4 1.5c0 1-.8 1.7-2 1.7c-1.5 0-2.2-.8-2.2-1.8zm7.3 1.6c-.7 0-1-.2-1-.9v-4h-1.3v-.6h1.3v-1.7h.7v1.7h1.4v.6h-1.4v3.9c0 .3.1.4.5.4c-.05.04 1.1 0 1.1 0v.6s-1.26.04-1.3 0zm2.1-1.5c0-1.2 1.1-1.6 1.9-1.6c.03-.03 1.8-.2 1.8-.2c0 0-.04-.18 0-.2c0-.9-.6-1.5-1.4-1.5h-.1c-.7 0-1.3.4-1.3 1.1h-.8c.1-1 1-1.7 2.2-1.7c1.4 0 2.1 1 2.1 2.1v3.5h-.6c-.1-.2-.1-.5-.1-.8c-.2.5-1 1-1.9 1c-1 0-1.8-.7-1.8-1.7zm2 1c.7 0 1.7-.6 1.7-1.4c-.04-.04 0-.8 0-.8c0 0-1.63.13-1.6.1c-.8.1-1.4.5-1.4 1.1c0 .6.5 1 1.1 1h.2zm4.1.5v-7.7h.7v7.7h-.7zm2.4 0v-7.7h.7v7.7h-.7zm2.2-2.7c0-1.9 1.2-2.9 2.4-2.9c1.4 0 2.2 1.1 2.2 2.5c.04.01 0 .4 0 .4c0 0-3.92.05-3.9 0c0 1.6.8 2.2 1.7 2.2h.1c.7 0 1.2-.3 1.4-1h.7c-.2 1.1-1.1 1.7-2.2 1.7c-1.4 0-2.4-1-2.4-2.9zm3.9-.6c0-.9-.6-1.7-1.4-1.7h-.1c-.7 0-1.5.4-1.7 1.7h3.2zm1.9.6c0-1.8 1-2.9 2.5-2.9c.7 0 1.5.4 1.8 1v-3.1h.7v7.7h-.7v-.8c-.3.6-1.1 1-1.8 1c-1.5 0-2.5-1.1-2.5-2.9zm2.5 2.2c1.2 0 1.8-1 1.8-2.2c0-1.2-.6-2.3-1.8-2.3c-1.2 0-1.8 1.1-1.8 2.3c0 1.2.6 2.2 1.8 2.2zm6.1-2.2c0-1.7 1.1-2.9 2.6-2.9c1.4 0 2.5 1.2 2.5 2.9c0 1.7-1.1 2.9-2.5 2.9c-1.5 0-2.6-1.2-2.6-2.9zm2.6 2.2c1 0 1.8-.8 1.8-2.2c0-1.4-.8-2.3-1.8-2.3h-.1c-1 0-1.7.9-1.7 2.3c0 1.4.7 2.2 1.7 2.2h.1zm3.9.5v-5.5h.7s.03.96 0 1c.3-.6 1.1-1.1 2-1.1c1.1 0 1.9.7 1.9 2c-.02.04 0 3.6 0 3.6h-.7s-.03-3.34 0-3.3c0-1.1-.5-1.7-1.4-1.7c-1.2 0-1.8 1.1-1.8 2.3c.03-.01 0 2.7 0 2.7h-.7zm8.5 0v-5.5h.7v.9c.3-.6 1-1 1.8-1c.8 0 1.5.4 1.8 1.2c.3-.8 1-1.2 1.9-1.2c1.1 0 1.9.7 1.9 2c-.03.04 0 3.6 0 3.6h-.7s-.04-3.34 0-3.3c0-1.1-.5-1.7-1.3-1.7h-.1c-1.1 0-1.6 1.1-1.6 2.3c-.02-.01 0 2.7 0 2.7h-.7s-.03-3.34 0-3.3c0-1.1-.4-1.7-1.3-1.7h-.1c-1.1 0-1.6 1.1-1.6 2.3v2.7h-.7zm9.5-1.5c0-1.2 1-1.6 1.9-1.6c-.04-.03 1.7-.2 1.7-.2v-.2c0-.9-.5-1.5-1.4-1.5c-.7 0-1.3.4-1.4 1.1h-.7c0-1 .9-1.7 2.1-1.7c1.4 0 2.1 1 2.1 2.1v2.3c0 .4 0 .9.1 1.2h-.7v-.8c-.3.5-1 1-2 1c-1 0-1.7-.7-1.7-1.7zm1.9 1c.8 0 1.7-.6 1.7-1.4v-.8s-1.6.13-1.6.1c-.8.1-1.3.5-1.3 1.1c0 .6.5 1 1.1 1h.1zm4-5.9v-1h.9v1h-.9zm.1 6.4v-5.5h.7v5.5h-.7zm2.4 0v-5.5h.7s.05.96 0 1c.4-.6 1.1-1.1 2-1.1c1.1 0 1.9.7 1.9 2v3.6h-.7s-.02-3.34 0-3.3c0-1.1-.5-1.7-1.3-1.7h-.1c-1.2 0-1.8 1.1-1.8 2.3c.05-.01 0 2.7 0 2.7h-.7zm9.2-.8c.02-.04 0 .8 0 .8h-.7v-7.7h.7s.02 3.12 0 3.1c.3-.6 1.1-1 1.9-1c1.4 0 2.4 1.1 2.4 2.9c0 1.8-1 2.9-2.4 2.9c-.8 0-1.6-.4-1.9-1zm1.8.3c1.2 0 1.8-1 1.8-2.2c0-1.2-.6-2.3-1.8-2.3c-1.2 0-1.8 1.1-1.8 2.3c0 1.2.6 2.2 1.8 2.2zm3.6-1c0-1.2 1.1-1.6 1.9-1.6c.02-.03 1.8-.2 1.8-.2c0 0-.04-.18 0-.2c0-.9-.6-1.5-1.4-1.5h-.1c-.7 0-1.3.4-1.4 1.1h-.7c.1-1 1-1.7 2.1-1.7c1.5 0 2.2 1 2.2 2.1v3.5h-.6c-.1-.2-.1-.5-.1-.8c-.2.5-1 1-1.9 1c-1 0-1.8-.7-1.8-1.7zm1.9 1c.8 0 1.8-.6 1.8-1.4c-.04-.04 0-.8 0-.8c0 0-1.64.13-1.6.1c-.8.1-1.4.5-1.4 1.1c0 .6.5 1 1.1 1h.1zm4.2.5v-7.7h.7v7.7h-.7zm2.1-2.7c0-1.6.9-2.9 2.6-2.9c1.1 0 2 .7 2.1 1.9h-.7c-.1-.7-.7-1.3-1.4-1.3h-.1c-1.2 0-1.8 1.1-1.8 2.3c0 1.2.6 2.2 1.8 2.2h.1c.7 0 1.2-.5 1.4-1.2h.7c-.2 1.1-1 1.9-2.1 1.9c-1.7 0-2.6-1.3-2.6-2.9zm5.8 0c0-1.7 1.1-2.9 2.5-2.9c1.4 0 2.5 1.2 2.5 2.9c0 1.7-1.1 2.9-2.5 2.9c-1.4 0-2.5-1.2-2.5-2.9zm2.5 2.2c1 0 1.8-.8 1.8-2.2c0-1.4-.8-2.3-1.8-2.3h-.1c-1 0-1.7.9-1.7 2.3c0 1.4.7 2.2 1.7 2.2h.1zm3.9.5v-5.5h.8s-.04.96 0 1c.3-.6 1-1.1 1.9-1.1c1.1 0 1.9.7 1.9 2c.01.04 0 3.6 0 3.6h-.7v-3.3c0-1.1-.4-1.7-1.3-1.7h-.1c-1.2 0-1.7 1.1-1.7 2.3c-.04-.01 0 2.7 0 2.7h-.8zm10.8-5.5l-2.3 5.4s.04 1 0 1c0 .7-.3 1-1 1c0-.04-1.7 0-1.7 0v-.6s1.59-.05 1.6 0c.3 0 .4-.2.4-.5c.03.01 0-.9 0-.9l-2.3-5.4h.8l1.9 4.5l1.9-4.5h.7zm.4 5.5v-1.1h1.1v1.1h-1.1z" stroke="none" fill="#dcddce"/></g><g id="Polygon20244"><path d="m11.8 143.7h.7c.1.8.7 1.1 1.4 1.1h.1c.8 0 1.3-.3 1.3-.9c0-.5-.3-.7-1-.9l-.8-.2c-.8-.1-1.5-.5-1.5-1.5c0-1 .9-1.6 2-1.6c1.4 0 2 .9 2 1.8h-.7c0-.6-.5-1.2-1.3-1.2h-.1c-.7 0-1.2.5-1.2 1c0 .5.3.7 1 .9l.9.2c.8.1 1.4.5 1.4 1.4c0 1-.8 1.7-2 1.7c-1.4 0-2.2-.8-2.2-1.8zm5.7 1.6v-7.7h.7v3.2c.4-.7 1.1-1.1 2-1.1c1.2 0 1.8.9 1.8 2c.05.01 0 3.6 0 3.6h-.7s.04-3.37 0-3.4c0-1-.4-1.6-1.3-1.6h-.1c-.8 0-1.7.8-1.7 2.1v2.9h-.7zm5.9-2.7c0-1.7 1.1-2.9 2.6-2.9c1.4 0 2.5 1.2 2.5 2.9c0 1.7-1.1 2.9-2.5 2.9c-1.5 0-2.6-1.2-2.6-2.9zm2.6 2.2c1 0 1.8-.8 1.8-2.2c0-1.4-.8-2.3-1.8-2.3h-.1c-1 0-1.7.9-1.7 2.3c0 1.4.7 2.2 1.7 2.2h.1zm3.9 2.7v-7.7h.7s.02.92 0 .9c.4-.6 1.1-1 1.9-1c1.4 0 2.4 1.1 2.4 2.9c0 1.8-1 2.9-2.4 2.9c-.8 0-1.5-.4-1.9-1c.02-.04 0 3 0 3h-.7zm2.5-2.7c1.2 0 1.8-1 1.8-2.2c0-1.2-.6-2.3-1.8-2.3c-1.2 0-1.8 1.1-1.8 2.3c0 1.2.6 2.2 1.8 2.2zm4 2.7v-7.7h.7s-.03.92 0 .9c.3-.6 1.1-1 1.8-1c1.4 0 2.5 1.1 2.5 2.9c0 1.8-1.1 2.9-2.5 2.9c-.7 0-1.5-.4-1.8-1c-.03-.04 0 3 0 3h-.7zm2.5-2.7c1.2 0 1.7-1 1.7-2.2c0-1.2-.5-2.3-1.7-2.3h-.1c-1.2 0-1.7 1.1-1.7 2.3c0 1.2.5 2.2 1.7 2.2h.1zm3.8-5.9v-1h.9v1h-.9zm.1 6.4v-5.5h.7v5.5h-.7zm2.4 0v-5.5h.8s-.05.97 0 1c.3-.6 1-1.1 1.9-1.1c1.1 0 1.9.7 1.9 2v3.6h-.7s-.01-3.33 0-3.3c0-1.1-.5-1.7-1.3-1.7h-.1c-1.2 0-1.7 1.1-1.7 2.3c-.05-.01 0 2.7 0 2.7h-.8zm5.9.8h.7c.1.7.8 1.1 1.7 1.1h.1c.9 0 1.8-.6 1.8-2v-.8c-.3.6-1 .9-1.8.9c-1.4 0-2.4-.9-2.4-2.7c0-1.8 1-2.9 2.4-2.9c.8 0 1.5.4 1.8 1c-.02.02 0-.9 0-.9h.7v5.5c0 1.4-.9 2.5-2.5 2.5c-1.6 0-2.4-.7-2.5-1.7zm2.6-1.4c1 0 1.7-.7 1.7-2.1c0-1.4-.7-2.3-1.7-2.3h-.1c-1 0-1.7.9-1.7 2.3c0 1.4.7 2.1 1.7 2.1h.1zm6.4.6v-5.5h.7s-.03.97 0 1c.3-.6 1-1.1 1.9-1.1c1.1 0 1.9.7 1.9 2c.02.05 0 3.6 0 3.6h-.7s.01-3.33 0-3.3c0-1.1-.4-1.7-1.3-1.7h-.1c-1.2 0-1.7 1.1-1.7 2.3c-.03-.01 0 2.7 0 2.7h-.7zm5.9-2.7c0-1.9 1.2-2.9 2.5-2.9c1.3 0 2.2 1.1 2.2 2.5v.4s-3.97.05-4 0c.1 1.6.9 2.2 1.8 2.2c.8 0 1.3-.3 1.5-1h.7c-.3 1.1-1.1 1.7-2.2 1.7c-1.4 0-2.5-1-2.5-2.9zm4-.6c-.1-.9-.6-1.7-1.5-1.7h-.1c-.7 0-1.5.4-1.6 1.7h3.2zm1.9.6c0-1.9 1.1-2.9 2.4-2.9c1.4 0 2.2 1.1 2.2 2.5c.03.01 0 .4 0 .4c0 0-3.93.05-3.9 0c0 1.6.8 2.2 1.7 2.2h.1c.7 0 1.2-.3 1.4-1h.7c-.2 1.1-1.1 1.7-2.2 1.7c-1.4 0-2.4-1-2.4-2.9zm3.9-.6c0-.9-.6-1.7-1.4-1.7h-.2c-.6 0-1.4.4-1.6 1.7h3.2zm1.9.6c0-1.8 1-2.9 2.5-2.9c.7 0 1.5.4 1.8 1v-3.1h.7v7.7h-.7v-.8c-.3.6-1.1 1-1.8 1c-1.5 0-2.5-1.1-2.5-2.9zm2.5 2.2c1.2 0 1.8-1 1.8-2.2c0-1.2-.6-2.3-1.8-2.3c-1.2 0-1.8 1.1-1.8 2.3c0 1.2.6 2.2 1.8 2.2zm3.9-1.1h.7c.1.8.6 1.1 1.4 1.1h.1c.8 0 1.3-.3 1.3-.9c0-.5-.3-.7-1-.9l-.8-.2c-.8-.1-1.5-.5-1.5-1.5c0-1 .9-1.6 2-1.6c1.3 0 2 .9 2 1.8h-.7c-.1-.6-.5-1.2-1.3-1.2h-.1c-.8 0-1.2.5-1.2 1c0 .5.3.7 1 .9l.9.2c.7.1 1.4.5 1.4 1.4c0 1-.8 1.7-2 1.7c-1.5 0-2.2-.8-2.2-1.8zm5.6 1.6v-1.1h1.1v1.1h-1.1z" stroke="none" fill="#dcddce"/></g><g id="Polygon20243"><path d="m12.2 130.2v-5.5h.7s-.02 1.25 0 1.2c.2-.8.9-1.3 1.7-1.3c-.02.04.5 0 .5 0v.7h-.5c-1 0-1.7.8-1.7 2.2c.03.02 0 2.7 0 2.7h-.7zm3.6-2.8c0-1.9 1.1-2.8 2.4-2.8c1.3 0 2.2 1 2.2 2.5c.02-.04 0 .4 0 .4h-3.9c0 1.5.8 2.2 1.7 2.2h.1c.7 0 1.2-.3 1.4-1.1h.7c-.2 1.1-1.1 1.7-2.2 1.7c-1.4 0-2.4-1-2.4-2.9zm3.9-.5c0-1-.6-1.7-1.5-1.7h-.1c-.7 0-1.5.4-1.6 1.7h3.2zm1.8 1.6h.7c.1.8.7 1.2 1.4 1.2h.2c.7 0 1.2-.4 1.2-1c0-.4-.2-.7-1-.8l-.8-.2c-.8-.2-1.5-.6-1.5-1.5c0-1 1-1.6 2-1.6c1.4 0 2 .8 2.1 1.7h-.7c-.1-.6-.6-1.1-1.3-1.1h-.2c-.7 0-1.2.4-1.2.9c0 .5.3.8 1 .9l.9.2c.8.2 1.4.5 1.4 1.5c0 1-.8 1.6-2 1.6c-1.4 0-2.1-.7-2.2-1.8zm5.6-4.8v-.9h.9v.9h-.9zm.1 6.5v-5.5h.7v5.5h-.7zm2.1-2.8c0-1.7 1.1-2.8 2.5-2.8c.7 0 1.5.4 1.8 1c.03-.03 0-3.1 0-3.1h.7v7.7h-.7s.03-.89 0-.9c-.3.6-1.1 1-1.8 1c-1.4 0-2.5-1.1-2.5-2.9zm2.6 2.3c1.2 0 1.7-1.1 1.7-2.3c0-1.1-.5-2.2-1.7-2.2h-.1c-1.2 0-1.7 1.1-1.7 2.2c0 1.2.5 2.3 1.7 2.3h.1zm3.9-2.3c0-1.9 1.2-2.8 2.4-2.8c1.4 0 2.3 1 2.3 2.5c-.04-.04 0 .4 0 .4h-4c0 1.5.8 2.2 1.7 2.2h.1c.7 0 1.2-.3 1.4-1.1h.8c-.3 1.1-1.1 1.7-2.3 1.7c-1.3 0-2.4-1-2.4-2.9zm4-.5c-.1-1-.6-1.7-1.5-1.7h-.1c-.7 0-1.5.4-1.7 1.7h3.3zm2.1 3.3v-5.5h.7s.05.92 0 .9c.4-.6 1.1-1 2-1c1.1 0 1.9.7 1.9 2v3.6h-.7s-.02-3.38 0-3.4c0-1.1-.5-1.6-1.3-1.6h-.1c-1.2 0-1.8 1.1-1.8 2.2c.05.04 0 2.8 0 2.8h-.7zm7.9 0c-.8 0-1.1-.3-1.1-1c.02 0 0-3.9 0-3.9h-1.2v-.6h1.2v-1.8h.7v1.8h1.4v.6h-1.4s.03 3.85 0 3.8c0 .4.1.5.5.5c-.03-.01 1.1 0 1.1 0v.6h-1.2zm2-1.7h.7c.1.8.6 1.2 1.4 1.2h.1c.8 0 1.2-.4 1.2-1c0-.4-.2-.7-.9-.8l-.8-.2c-.8-.2-1.5-.6-1.5-1.5c0-1 .9-1.6 2-1.6c1.3 0 2 .8 2 1.7h-.7c-.1-.6-.5-1.1-1.3-1.1h-.1c-.8 0-1.2.4-1.2.9c0 .5.3.8 1 .9l.9.2c.7.2 1.4.5 1.4 1.5c0 1-.8 1.6-2 1.6c-1.5 0-2.2-.7-2.2-1.8zm7.5-1.1c0-1.6.9-2.8 2.5-2.8c1.2 0 2.1.7 2.2 1.9h-.7c-.2-.8-.7-1.3-1.4-1.3h-.1c-1.2 0-1.8 1-1.8 2.2c0 1.2.6 2.3 1.8 2.3h.1c.7 0 1.2-.6 1.4-1.3h.7c-.2 1.2-1 1.9-2.2 1.9c-1.6 0-2.5-1.2-2.5-2.9zm5.8 1.3c0-1.2 1-1.6 1.9-1.7c-.01.03 1.7-.1 1.7-.1c0 0 .03-.23 0-.2c0-1-.5-1.5-1.3-1.5h-.1c-.7 0-1.3.3-1.4 1h-.7c.1-.9.9-1.6 2.1-1.6c1.5 0 2.1 1 2.1 2.1v2.3c0 .3 0 .8.1 1.2h-.7v-.9c-.2.5-1 1-2 1c-.9 0-1.7-.7-1.7-1.6zm1.9 1c.8 0 1.7-.7 1.7-1.5c.03.01 0-.7 0-.7l-1.6.1c-.7 0-1.3.4-1.3 1c0 .6.5 1.1 1.1 1.1h.1zm4.1.5v-5.5h.8s-.05.92 0 .9c.3-.6 1-1 1.9-1c1.1 0 1.9.7 1.9 2v3.6h-.7s-.01-3.38 0-3.4c0-1.1-.5-1.6-1.3-1.6h-.1c-1.2 0-1.7 1.1-1.7 2.2c-.05.04 0 2.8 0 2.8h-.8zm9.1 0v-4.9H79v-.6h1.2s.02-1.22 0-1.2c0-.7.4-1 1.1-1h1.3v.6h-1.2c-.4 0-.5.1-.5.4c.04.04 0 1.2 0 1.2h1.5v.6h-1.5v4.9h-.7zm3.3-1.9c-.03.02 0-3.6 0-3.6h.7s-.01 3.4 0 3.4c0 1.1.4 1.6 1.3 1.6h.1c.8 0 1.6-.8 1.6-2v-3h.7v5.5h-.7v-1c-.3.7-.9 1.1-1.8 1.1c-1.2 0-1.9-.8-1.9-2zm6.2 1.9v-7.7h.7v7.7h-.7zm3.1 0v-4.9h-1.3v-.6h1.3v-1.2c0-.7.3-1 1-1h1.4v.6h-1.3c-.3 0-.4.1-.4.4v1.2h3.7v5.5h-.7v-4.9h-3v4.9h-.7zm3.6-6.5v-.9h.8v.9h-.8zm2.6 6.5v-7.7h.7v7.7h-.7zm6.2 0c-.7 0-1-.3-1-1c-.02 0 0-3.9 0-3.9h-1.3v-.6h1.3v-1.8h.7v1.8h1.4v.6h-1.4v3.8c0 .4.1.5.4.5c.04-.01 1.1 0 1.1 0v.6h-1.2zm2.4 0v-7.7h.7v3.1c.4-.6 1-1 2-1c1.2 0 1.8.8 1.8 2c.04-.04 0 3.6 0 3.6h-.7s.02-3.42 0-3.4c0-1.1-.4-1.6-1.3-1.6h-.1c-.9 0-1.7.7-1.7 2v3h-.7zm5.9-2.8c0-1.9 1.2-2.8 2.5-2.8c1.3 0 2.2 1 2.2 2.5v.4h-3.9c0 1.5.8 2.2 1.7 2.2c.8 0 1.3-.3 1.5-1.1h.7c-.2 1.1-1.1 1.7-2.2 1.7c-1.4 0-2.5-1-2.5-2.9zm4-.5c0-1-.6-1.7-1.5-1.7h-.1c-.7 0-1.5.4-1.6 1.7h3.2zm2.1-3.2v-.9h.8v.9h-.8zm.1 6.5v-5.5h.7v5.5h-.7zm2.4 0v-5.5h.7s-.03 1.25 0 1.2c.2-.8.9-1.3 1.7-1.3c-.02.04.5 0 .5 0v.7h-.5c-1 0-1.7.8-1.7 2.2c.03.02 0 2.7 0 2.7h-.7zm5.8-2.8c0-1.7 1.1-2.8 2.5-2.8c1.5 0 2.6 1.1 2.6 2.8c0 1.7-1.1 2.9-2.6 2.9c-1.4 0-2.5-1.2-2.5-2.9zm2.6 2.3c1 0 1.7-.8 1.7-2.3c0-1.4-.7-2.2-1.7-2.2h-.1c-1 0-1.8.8-1.8 2.2c0 1.5.8 2.3 1.8 2.3h.1zm3.9.5v-5.5h.7s.01.92 0 .9c.3-.6 1-1 1.9-1c1.1 0 2 .7 2 2c-.04 0 0 3.6 0 3.6h-.8s.04-3.38 0-3.4c0-1.1-.4-1.6-1.3-1.6c-1.2 0-1.8 1.1-1.8 2.2v2.8h-.7zm6.3 0v-7.7h.7v7.7h-.7zm2.3-6.5v-.9h.9v.9h-.9zm.1 6.5v-5.5h.7v5.5h-.7zm2.4 0v-5.5h.7s.05.92 0 .9c.4-.6 1.1-1 2-1c1.1 0 1.9.7 1.9 2v3.6h-.7s-.02-3.38 0-3.4c0-1.1-.5-1.6-1.3-1.6h-.1c-1.2 0-1.8 1.1-1.8 2.2c.05.04 0 2.8 0 2.8h-.7zm6-2.8c0-1.9 1.2-2.8 2.5-2.8c1.3 0 2.2 1 2.2 2.5c-.03-.04 0 .4 0 .4h-4c0 1.5.8 2.2 1.7 2.2h.1c.8 0 1.2-.3 1.4-1.1h.8c-.3 1.1-1.1 1.7-2.2 1.7c-1.4 0-2.5-1-2.5-2.9zm4-.5c-.1-1-.6-1.7-1.5-1.7h-.1c-.7 0-1.5.4-1.7 1.7h3.3z" stroke="none" fill="#dcddce"/></g><g id="Polygon20242"><path d="m19.1 107.3h1.3v7.7h-.8v-7l-2.7 7h-1l-2.7-7.1v7.1h-.8v-7.7h1.3l2.7 7.2l2.7-7.2zm7.9 2.2l-2.3 5.4v1c0 .7-.3 1-1 1c-.03-.04-1.7 0-1.7 0v-.6s1.56-.05 1.6 0c.3 0 .4-.2.4-.5v-.9l-2.3-5.4h.7l1.9 4.5l1.9-4.5h.8zm3.4 5.5v-7.7s3.08.04 3.1 0c1.3 0 2.4.8 2.4 2.3c0 1.5-1.1 2.3-2.4 2.3c-.02-.03-2.3 0-2.3 0v3.1h-.8zm.8-3.8s2.11-.04 2.1 0c1.1 0 1.8-.5 1.8-1.6c0-1-.7-1.5-1.8-1.5c.01-.04-2.1 0-2.1 0v3.1zm5.6 2.3c0-1.2 1.1-1.6 1.9-1.6c.03-.02 1.8-.2 1.8-.2c0 0-.03-.18 0-.2c0-.9-.6-1.5-1.4-1.5h-.1c-.7 0-1.3.4-1.3 1.1h-.8c.1-1 1-1.7 2.2-1.7c1.4 0 2.1 1 2.1 2.1v3.5h-.6c-.1-.2-.1-.5-.1-.8c-.2.5-1 1-1.9 1c-1 0-1.8-.7-1.8-1.7zm2 1c.7 0 1.7-.6 1.7-1.4c-.03-.04 0-.8 0-.8c0 0-1.63.14-1.6.1c-.8.1-1.3.5-1.3 1.1c0 .6.4 1 1.1 1h.1zm4.1.5v-5.5h.6s.03 1.3 0 1.3c.3-.9 1-1.3 1.7-1.3h.5v.6s-.41.05-.4 0c-1.1 0-1.7.9-1.7 2.3v2.6h-.7zm3.5-2.7c0-1.6.9-2.9 2.5-2.9c1.2 0 2.1.7 2.2 1.9h-.7c-.2-.7-.7-1.3-1.4-1.3h-.1c-1.2 0-1.8 1.1-1.8 2.3c0 1.2.6 2.2 1.8 2.2h.1c.7 0 1.2-.5 1.4-1.2h.7c-.2 1.1-1 1.9-2.2 1.9c-1.6 0-2.5-1.3-2.5-2.9zm5.8 0c0-1.9 1.1-2.9 2.4-2.9c1.3 0 2.2 1.1 2.2 2.5c.03.01 0 .4 0 .4c0 0-3.93.05-3.9 0c0 1.6.8 2.2 1.7 2.2h.1c.7 0 1.2-.3 1.4-1h.7c-.2 1.1-1.1 1.7-2.2 1.7c-1.4 0-2.4-1-2.4-2.9zm3.9-.6c0-.9-.6-1.7-1.5-1.7h-.1c-.7 0-1.5.4-1.6 1.7h3.2zm2.2 3.3v-7.7h.7v7.7h-.7zm4.7 0v-7.7h.7v7.7h-.7zm2.1-2.7c0-1.7 1.1-2.9 2.5-2.9c1.5 0 2.6 1.2 2.6 2.9c0 1.7-1.1 2.9-2.6 2.9c-1.4 0-2.5-1.2-2.5-2.9zm2.6 2.2c1 0 1.7-.8 1.7-2.2c0-1.4-.7-2.3-1.7-2.3h-.1c-1 0-1.8.9-1.8 2.3c0 1.4.8 2.2 1.8 2.2h.1zm3.6-2.2c0-1.6.9-2.9 2.5-2.9c1.2 0 2.1.7 2.2 1.9h-.7c-.2-.7-.7-1.3-1.4-1.3h-.1c-1.2 0-1.8 1.1-1.8 2.3c0 1.2.6 2.2 1.8 2.2h.1c.7 0 1.2-.5 1.4-1.2h.7c-.2 1.1-1 1.9-2.2 1.9c-1.6 0-2.5-1.3-2.5-2.9zm6.1 2.7v-7.7h.7v5.1l2.9-2.9h1l-2.3 2.2l2.4 3.3h-.9l-2-2.8l-1.1 1.1v1.7h-.7zm5.2-2.7c0-1.9 1.2-2.9 2.4-2.9c1.4 0 2.2 1.1 2.2 2.5c.05.01 0 .4 0 .4c0 0-3.91.05-3.9 0c0 1.6.8 2.2 1.7 2.2h.1c.7 0 1.2-.3 1.4-1h.7c-.2 1.1-1.1 1.7-2.2 1.7c-1.4 0-2.4-1-2.4-2.9zm3.9-.6c0-.9-.6-1.7-1.4-1.7h-.1c-.7 0-1.5.4-1.7 1.7h3.2zm2.2 3.3v-5.5h.7s-.03 1.3 0 1.3c.2-.9.9-1.3 1.7-1.3h.5v.6s-.47.05-.5 0c-1 0-1.7.9-1.7 2.3c.03-.03 0 2.6 0 2.6h-.7zm5.7-1.6h.7c.1.8.7 1.1 1.5 1.1h.1c.7 0 1.2-.3 1.2-.9c0-.5-.2-.7-1-.9l-.8-.2c-.8-.1-1.5-.5-1.5-1.5c0-1 1-1.6 2-1.6c1.4 0 2 .9 2.1 1.8h-.7c-.1-.6-.6-1.2-1.3-1.2h-.1c-.8 0-1.2.5-1.2 1c0 .5.3.7 1 .9l.8.2c.8.1 1.4.5 1.4 1.4c0 1-.8 1.7-2 1.7c-1.4 0-2.1-.8-2.2-1.8zm10.3-3.9l-2.2 5.4s-.04 1 0 1c0 .7-.4 1-1.1 1c.02-.04-1.7 0-1.7 0v-.6s1.61-.05 1.6 0c.3 0 .4-.2.4-.5c.05.01 0-.9 0-.9l-2.3-5.4h.8l1.9 4.5l1.9-4.5h.7zm.6 3.9h.7c.1.8.7 1.1 1.4 1.1h.1c.8 0 1.3-.3 1.3-.9c0-.5-.2-.7-1-.9l-.8-.2c-.8-.1-1.5-.5-1.5-1.5c0-1 .9-1.6 2-1.6c1.4 0 2 .9 2.1 1.8h-.8c0-.6-.5-1.2-1.3-1.2h-.1c-.7 0-1.2.5-1.2 1c0 .5.3.7 1 .9l.9.2c.8.1 1.4.5 1.4 1.4c0 1-.8 1.7-2 1.7c-1.4 0-2.1-.8-2.2-1.8zm7.4 1.6c-.7 0-1.1-.2-1.1-.9c.04-.05 0-4 0-4h-1.2v-.6h1.2v-1.7h.8v1.7h1.3v.6h-1.3s-.05 3.9 0 3.9c0 .3.1.4.4.4c-.01.04 1.1 0 1.1 0v.6s-1.22.04-1.2 0zm1.9-2.7c0-1.9 1.2-2.9 2.4-2.9c1.4 0 2.2 1.1 2.2 2.5c.04.01 0 .4 0 .4c0 0-3.92.05-3.9 0c0 1.6.8 2.2 1.7 2.2h.1c.7 0 1.2-.3 1.4-1h.7c-.2 1.1-1.1 1.7-2.2 1.7c-1.4 0-2.4-1-2.4-2.9zm3.9-.6c0-.9-.6-1.7-1.4-1.7h-.1c-.7 0-1.5.4-1.7 1.7h3.2zm2.2 3.3v-5.5h.7s.02.92 0 .9c.4-.5 1-1 1.8-1c.8 0 1.5.4 1.8 1.2c.4-.8 1-1.2 1.9-1.2c1.1 0 1.9.7 1.9 2c-.01.05 0 3.6 0 3.6h-.7s-.02-3.33 0-3.3c0-1.1-.4-1.7-1.3-1.7h-.1c-1.1 0-1.6 1.1-1.6 2.3v2.7h-.7v-3.3c0-1.1-.4-1.7-1.3-1.7c-1.1 0-1.7 1.1-1.7 2.3c.02-.01 0 2.7 0 2.7h-.7zm11.6-1.6h.7c.1.8.6 1.1 1.4 1.1h.1c.8 0 1.3-.3 1.3-.9c0-.5-.3-.7-1-.9l-.8-.2c-.8-.1-1.5-.5-1.5-1.5c0-1 .9-1.6 2-1.6c1.3 0 2 .9 2 1.8h-.7c-.1-.6-.5-1.2-1.3-1.2h-.1c-.8 0-1.2.5-1.2 1c0 .5.3.7 1 .9l.9.2c.7.1 1.4.5 1.4 1.4c0 1-.8 1.7-2 1.7c-1.5 0-2.2-.8-2.2-1.8zm5.3-1.1c0-1.7 1.1-2.9 2.5-2.9c1.5 0 2.6 1.2 2.6 2.9c0 1.7-1.1 2.9-2.6 2.9c-1.4 0-2.5-1.2-2.5-2.9zm2.6 2.2c1 0 1.7-.8 1.7-2.2c0-1.4-.7-2.3-1.7-2.3h-.1c-1 0-1.8.9-1.8 2.3c0 1.4.8 2.2 1.8 2.2h.1zm7.7.5c-.7 0-1.1-.2-1.1-.9c.03-.05 0-4 0-4h-1.2v-.6h1.2v-1.7h.7v1.7h1.4v.6h-1.4s.05 3.9 0 3.9c0 .3.2.4.5.4c-.01.04 1.1 0 1.1 0v.6s-1.22.04-1.2 0zm2.3 0v-7.7h.7s.04 3.18 0 3.2c.4-.7 1.1-1.1 2-1.1c1.2 0 1.9.9 1.9 2c-.01.01 0 3.6 0 3.6h-.7s-.02-3.37 0-3.4c0-1-.5-1.6-1.3-1.6h-.2c-.8 0-1.7.8-1.7 2.1c.04-.03 0 2.9 0 2.9h-.7zm6-1.5c0-1.2 1-1.6 1.9-1.6c-.03-.02 1.7-.2 1.7-.2v-.2c0-.9-.5-1.5-1.4-1.5c-.7 0-1.3.4-1.4 1.1h-.7c.1-1 .9-1.7 2.1-1.7c1.4 0 2.1 1 2.1 2.1v2.3c0 .4 0 .9.1 1.2h-.7v-.8c-.3.5-1 1-2 1c-1 0-1.7-.7-1.7-1.7zm1.9 1c.8 0 1.7-.6 1.7-1.4v-.8s-1.59.14-1.6.1c-.8.1-1.3.5-1.3 1.1c0 .6.5 1 1.1 1h.1zm5.7.5c-.8 0-1.1-.2-1.1-.9v-4h-1.3v-.6h1.3v-1.7h.7v1.7h1.4v.6h-1.4s.03 3.9 0 3.9c0 .3.1.4.5.4c-.03.04 1.1 0 1.1 0v.6s-1.24.04-1.2 0z" stroke="none" fill="#dcddce"/></g><g id="Polygon20241"><path d="m12.2 86.5V81h.7s-.02 1.3 0 1.3c.2-.9.9-1.3 1.7-1.3h.5v.6s-.46.05-.5 0c-1 0-1.7.9-1.7 2.3c.03-.03 0 2.6 0 2.6h-.7zm3.6-2.7c0-1.9 1.1-2.9 2.4-2.9c1.3 0 2.2 1.1 2.2 2.5c.02.01 0 .4 0 .4c0 0-3.94.05-3.9 0c0 1.6.8 2.3 1.7 2.3h.1c.7 0 1.2-.4 1.4-1.1h.7c-.2 1.1-1.1 1.7-2.2 1.7c-1.4 0-2.4-1-2.4-2.9zm3.9-.6c0-.9-.6-1.7-1.5-1.7h-.1c-.7 0-1.5.4-1.6 1.7h3.2zm1.8 1.7h.7c.1.8.7 1.2 1.4 1.2h.2c.7 0 1.2-.4 1.2-1c0-.5-.2-.7-1-.9l-.8-.2c-.8-.1-1.5-.5-1.5-1.4c0-1.1 1-1.7 2-1.7c1.4 0 2 .9 2.1 1.8h-.7c-.1-.6-.6-1.2-1.3-1.2h-.2c-.7 0-1.2.5-1.2 1c0 .5.3.7 1 .9l.9.2c.8.1 1.4.5 1.4 1.4c0 1.1-.8 1.7-2 1.7c-1.4 0-2.1-.8-2.2-1.8zm5.6-4.8v-1h.9v1h-.9zm.1 6.4V81h.7v5.5h-.7zm2.1-2.7c0-1.8 1.1-2.9 2.5-2.9c.7 0 1.5.4 1.8 1c.03.02 0-3.1 0-3.1h.7v7.7h-.7s.03-.84 0-.8c-.3.6-1.1 1-1.8 1c-1.4 0-2.5-1.1-2.5-2.9zm2.6 2.3c1.2 0 1.7-1.1 1.7-2.3c0-1.2-.5-2.3-1.7-2.3h-.1c-1.2 0-1.7 1.1-1.7 2.3c0 1.2.5 2.3 1.7 2.3h.1zm3.9-2.3c0-1.9 1.2-2.9 2.4-2.9c1.4 0 2.3 1.1 2.3 2.5c-.04.01 0 .4 0 .4c0 0-4 .05-4 0c0 1.6.8 2.3 1.7 2.3h.1c.7 0 1.2-.4 1.4-1.1h.8c-.3 1.1-1.1 1.7-2.3 1.7c-1.3 0-2.4-1-2.4-2.9zm4-.6c-.1-.9-.6-1.7-1.5-1.7h-.1c-.7 0-1.5.4-1.7 1.7h3.3zm2.1 3.3V81h.7s.05.97 0 1c.4-.6 1.1-1.1 2-1.1c1.1 0 1.9.7 1.9 2v3.6h-.7s-.02-3.33 0-3.3c0-1.1-.5-1.7-1.3-1.7h-.1c-1.2 0-1.8 1.1-1.8 2.3c.05-.01 0 2.7 0 2.7h-.7zm7.9 0c-.8 0-1.1-.2-1.1-.9c.02-.05 0-4 0-4h-1.2v-.6h1.2v-1.7h.7v1.7h1.4v.6h-1.4s.03 3.9 0 3.9c0 .3.1.4.5.4c-.03.04 1.1 0 1.1 0v.6s-1.24.04-1.2 0zm2-1.6h.7c.1.8.6 1.2 1.4 1.2h.1c.8 0 1.2-.4 1.2-1c0-.5-.2-.7-.9-.9l-.8-.2c-.8-.1-1.5-.5-1.5-1.4c0-1.1.9-1.7 2-1.7c1.3 0 2 .9 2 1.8h-.7c-.1-.6-.5-1.2-1.3-1.2h-.1c-.8 0-1.2.5-1.2 1c0 .5.3.7 1 .9l.9.2c.7.1 1.4.5 1.4 1.4c0 1.1-.8 1.7-2 1.7c-1.5 0-2.2-.8-2.2-1.8zm5.6 1.6v-1.1h1.1v1.1h-1.1z" stroke="none" fill="#dcddce"/></g><g id="Polygon20240"><path d="m12.4 71.4v-7.7h3.2c1.2 0 2.1.7 2.1 2c0 .9-.5 1.6-1.2 1.8c.6.1 1.4.6 1.4 1.8c0 1.3-1 2.1-2.2 2.1c-.01-.01-3.3 0-3.3 0zm.8-4.3s2.34.04 2.3 0c.9 0 1.5-.4 1.5-1.3c0-.9-.6-1.4-1.5-1.4h-2.3v2.7zm0 3.6s2.33-.02 2.3 0c1 0 1.6-.5 1.6-1.4c0-1-.6-1.4-1.6-1.4c.04-.05-2.3 0-2.3 0v2.8zm6.2-5.8v-.9h.8v.9h-.8zm.1 6.5v-5.5h.7v5.5h-.7zm2.1-2.8c0-1.6.9-2.8 2.5-2.8c1.2 0 2.1.7 2.2 1.9h-.7c-.2-.8-.7-1.3-1.4-1.3h-.1c-1.2 0-1.8 1-1.8 2.2c0 1.2.6 2.3 1.8 2.3h.1c.7 0 1.2-.6 1.4-1.3h.7c-.2 1.2-1 1.9-2.2 1.9c-1.6 0-2.5-1.2-2.5-2.9zm10.7-2.7L30 71.2s.01 1.05 0 1.1c0 .6-.3.9-1 .9c-.03.01-1.7 0-1.7 0v-.6h1.6c.3 0 .4-.1.4-.4v-1L27 65.9h.7l1.9 4.5l1.9-4.5h.8zm.5 2.7c0-1.6.9-2.8 2.6-2.8c1.2 0 2 .7 2.1 1.9h-.7c-.1-.8-.6-1.3-1.4-1.3h-.1c-1.2 0-1.7 1-1.7 2.2c0 1.2.5 2.3 1.7 2.3h.1c.8 0 1.3-.6 1.4-1.3h.7c-.2 1.2-.9 1.9-2.1 1.9c-1.7 0-2.6-1.2-2.6-2.9zm6.1 2.8v-7.7h.7v7.7h-.7zm2.2-2.8c0-1.9 1.2-2.8 2.4-2.8c1.4 0 2.3 1.1 2.3 2.5c-.04-.04 0 .4 0 .4h-4c0 1.6.8 2.2 1.7 2.2h.1c.7 0 1.2-.3 1.4-1.1h.7c-.2 1.1-1 1.7-2.2 1.7c-1.3 0-2.4-1-2.4-2.9zm3.9-.5c0-1-.6-1.7-1.4-1.7h-.1c-.7 0-1.5.4-1.7 1.7h3.2zm4.4 5.5v-7.7h.7s.01.87 0 .9c.3-.6 1.1-1 1.8-1c1.5 0 2.5 1.1 2.5 2.8c0 1.8-1 2.9-2.5 2.9c-.7 0-1.5-.4-1.8-1v3.1h-.7zm2.5-2.7c1.2 0 1.8-1.1 1.8-2.3c0-1.1-.6-2.2-1.8-2.2c-1.2 0-1.8 1.1-1.8 2.2c0 1.2.6 2.3 1.8 2.3zm3.6-1c0-1.2 1.1-1.6 1.9-1.7c.01.03 1.7-.1 1.7-.1c0 0 .05-.23 0-.2c0-1-.5-1.5-1.3-1.5h-.1c-.7 0-1.3.3-1.4 1h-.7c.1-.9 1-1.6 2.1-1.6c1.5 0 2.2 1 2.2 2.1v3.5h-.6c-.1-.2-.1-.6-.1-.9c-.2.5-1 1-1.9 1c-1 0-1.8-.7-1.8-1.6zm1.9 1c.8 0 1.7-.7 1.7-1.5c.05.01 0-.7 0-.7c0 0-1.55.09-1.5.1c-.8 0-1.4.4-1.4 1c0 .6.5 1.1 1.1 1.1h.1zm4.2.5v-5.5h.6v1.2c.3-.8 1-1.3 1.7-1.3c.02.04.5 0 .5 0v.7h-.4c-1.1 0-1.7.8-1.7 2.2c-.03.02 0 2.7 0 2.7h-.7zm3.9 0v-7.7h.7v5l3-2.8h1l-2.3 2.2l2.4 3.3h-.9l-2-2.8l-1.2 1v1.8h-.7zm5.8-6.5v-.9h.8v.9h-.8zm.1 6.5v-5.5h.7v5.5h-.7zm2.4 0v-5.5h.7s.02.92 0 .9c.3-.6 1-1 1.9-1c1.1 0 2 .7 2 2c-.03 0 0 3.6 0 3.6h-.7s-.05-3.38 0-3.4c0-1.1-.5-1.6-1.4-1.6c-1.2 0-1.8 1.1-1.8 2.2c.02.04 0 2.8 0 2.8h-.7zm5.8.8h.7c.2.7.8 1 1.8 1h.1c.9 0 1.7-.5 1.7-1.9v-.9c-.3.6-.9 1-1.8 1c-1.4 0-2.4-1-2.4-2.8c0-1.7 1-2.8 2.4-2.8c.9 0 1.5.4 1.8 1c.05-.03 0-.9 0-.9h.8s-.04 5.45 0 5.4c0 1.5-1 2.5-2.6 2.5c-1.6 0-2.4-.7-2.5-1.6zm2.7-1.4c.9 0 1.6-.8 1.6-2.2c0-1.3-.7-2.2-1.6-2.2h-.2c-.9 0-1.6.9-1.6 2.2c0 1.4.7 2.2 1.6 2.2h.2zm6-.9c0-1.2 1-1.6 1.9-1.7c-.01.03 1.7-.1 1.7-.1c0 0 .03-.23 0-.2c0-1-.5-1.5-1.3-1.5h-.1c-.7 0-1.3.3-1.4 1h-.7c.1-.9.9-1.6 2.1-1.6c1.5 0 2.1 1 2.1 2.1v2.3c0 .3 0 .8.1 1.2h-.7v-.9c-.2.5-1 1-2 1c-.9 0-1.7-.7-1.7-1.6zm1.9 1c.8 0 1.7-.7 1.7-1.5c.03.01 0-.7 0-.7l-1.6.1c-.7 0-1.3.4-1.3 1c0 .6.5 1.1 1.1 1.1h.1zm7.7-5h.7l-2.1 5.5h-.9l-2.1-5.5h.8l1.8 4.8l1.8-4.8zm1.4 4c0-1.2 1.1-1.6 1.9-1.7c.01.03 1.8-.1 1.8-.1c0 0-.05-.23 0-.2c0-1-.6-1.5-1.4-1.5h-.1c-.7 0-1.3.3-1.4 1h-.7c.1-.9 1-1.6 2.1-1.6c1.5 0 2.2 1 2.2 2.1v3.5h-.6c-.1-.2-.1-.6-.1-.9c-.2.5-1 1-1.9 1c-1 0-1.8-.7-1.8-1.6zm1.9 1c.8 0 1.8-.7 1.8-1.5c-.05.01 0-.7 0-.7c0 0-1.65.09-1.6.1c-.8 0-1.4.4-1.4 1c0 .6.5 1.1 1.1 1.1h.1zm4.1-6v-.9h.8v.9h-.8zm0 6.5v-5.5h.8v5.5h-.8zm2.5 0v-7.7h.7v7.7h-.7zm2.2-1.5c0-1.2 1-1.6 1.8-1.7c.04.03 1.8-.1 1.8-.1c0 0-.02-.23 0-.2c0-1-.5-1.5-1.4-1.5c-.8 0-1.3.3-1.4 1h-.7c0-.9.9-1.6 2.1-1.6c1.4 0 2.1 1 2.1 2.1v2.3c0 .3 0 .8.1 1.2h-.7c-.1-.2-.1-.6-.1-.9c-.2.5-.9 1-1.9 1c-1 0-1.7-.7-1.7-1.6zm1.9 1c.7 0 1.7-.7 1.7-1.5c-.02.01 0-.7 0-.7c0 0-1.61.09-1.6.1c-.8 0-1.3.4-1.3 1c0 .6.4 1.1 1.1 1.1h.1zm4.8-.4v.9h-.7v-7.7h.7v3.1c.3-.6 1.1-1 1.8-1c1.5 0 2.5 1.1 2.5 2.8c0 1.8-1 2.9-2.5 2.9c-.7 0-1.5-.4-1.8-1zm1.8.4c1.2 0 1.8-1.1 1.8-2.3c0-1.1-.6-2.2-1.8-2.2c-1.2 0-1.8 1.1-1.8 2.2c0 1.2.6 2.3 1.8 2.3zm3.9.5v-7.7h.8v7.7h-.8zm2.2-2.8c0-1.9 1.2-2.8 2.5-2.8c1.3 0 2.2 1.1 2.2 2.5c-.02-.04 0 .4 0 .4h-4c0 1.6.8 2.2 1.7 2.2h.1c.8 0 1.2-.3 1.5-1.1h.7c-.3 1.1-1.1 1.7-2.2 1.7c-1.4 0-2.5-1-2.5-2.9zm4-.5c-.1-1-.6-1.7-1.5-1.7h-.1c-.7 0-1.5.4-1.7 1.7h3.3zm5.9 3.3c-.7 0-1-.3-1-1c-.03 0 0-3.9 0-3.9h-1.3v-.6h1.3v-1.8h.7v1.8h1.4v.6h-1.4s-.02 3.85 0 3.8c0 .4.1.5.4.5c.02-.01 1.1 0 1.1 0v.6h-1.2zm1.9-2.8c0-1.7 1.1-2.8 2.5-2.8c1.4 0 2.5 1.1 2.5 2.8c0 1.7-1.1 2.9-2.5 2.9c-1.4 0-2.5-1.2-2.5-2.9zm2.5 2.3c1 0 1.8-.8 1.8-2.3c0-1.4-.8-2.2-1.8-2.2h-.1c-1 0-1.7.8-1.7 2.2c0 1.5.7 2.3 1.7 2.3h.1zm5.8-1c0-1.2 1.1-1.6 1.9-1.7c.02.03 1.8-.1 1.8-.1c0 0-.04-.23 0-.2c0-1-.6-1.5-1.4-1.5h-.1c-.7 0-1.3.3-1.4 1h-.7c.1-.9 1-1.6 2.1-1.6c1.5 0 2.2 1 2.2 2.1v3.5h-.6c-.1-.2-.1-.6-.1-.9c-.2.5-1 1-1.9 1c-1 0-1.8-.7-1.8-1.6zm1.9 1c.8 0 1.8-.7 1.8-1.5c-.04.01 0-.7 0-.7c0 0-1.64.09-1.6.1c-.8 0-1.4.4-1.4 1c0 .6.5 1.1 1.1 1.1h.1zm4.2.5v-7.7h.7v7.7h-.7zm2.4 0v-7.7h.7v7.7h-.7z" stroke="none" fill="#dcddce"/></g><g id="Polygon20239"><path d="m12.8 41.7v-4.9h-1.2v-.6h1.2s.04-1.2 0-1.2c0-.7.4-1 1.1-1c-.02.02 1.4 0 1.4 0v.6s-1.31.02-1.3 0c-.3 0-.5.1-.5.5c.05-.04 0 1.1 0 1.1h1.5v.6h-1.5v4.9h-.7zm2.9-1.5c0-1.2 1-1.6 1.9-1.7c-.04.05 1.7-.1 1.7-.1v-.2c0-1-.5-1.5-1.4-1.5c-.7 0-1.3.4-1.4 1.1h-.7c0-1 .9-1.7 2.1-1.7c1.4 0 2.1 1 2.1 2.1v2.3c0 .3 0 .8.1 1.2h-.7v-.9c-.3.5-1 1-2 1c-1 0-1.7-.7-1.7-1.6zm1.9 1c.8 0 1.7-.7 1.7-1.5v-.7s-1.59.11-1.6.1c-.8.1-1.3.4-1.3 1.1c0 .6.5 1 1.1 1h.1zm3.7-2.2c0-1.7.9-2.9 2.5-2.9c1.2 0 2 .7 2.2 1.9h-.8c-.1-.8-.6-1.3-1.3-1.3h-.1c-1.2 0-1.8 1.1-1.8 2.3c0 1.2.6 2.2 1.8 2.2h.1c.7 0 1.2-.5 1.3-1.2h.8c-.2 1.1-1 1.8-2.2 1.8c-1.6 0-2.5-1.2-2.5-2.8zm5.9-3.8v-.9h.8v.9h-.8zm0 6.5v-5.5h.8v5.5h-.8zm2.4 0V34h.7v7.7h-.7zm2.2-6.5v-.9h.9v.9h-.9zm.1 6.5v-5.5h.7v5.5h-.7zm4 0c-.7 0-1-.3-1-1c-.04.03 0-3.9 0-3.9h-1.3v-.6h1.3v-1.8h.7v1.8h1.4v.6h-1.4s-.02 3.87 0 3.9c0 .3.1.4.4.4c.02.01 1.1 0 1.1 0v.6h-1.2zm2.2-6.5v-.9h.8v.9h-.8zm0 6.5v-5.5h.8v5.5h-.8zm2.1-2.7c0-2 1.2-2.9 2.4-2.9c1.4 0 2.3 1.1 2.3 2.5c-.05-.02 0 .4 0 .4c0 0-4.01.02-4 0c0 1.6.8 2.2 1.7 2.2h.1c.7 0 1.2-.3 1.4-1.1h.7c-.2 1.1-1 1.7-2.2 1.7c-1.3 0-2.4-1-2.4-2.8zm3.9-.6c0-1-.6-1.7-1.4-1.7h-.1c-.7 0-1.5.4-1.7 1.7h3.2zm1.7 1.7h.7c.1.7.7 1.1 1.5 1.1h.1c.7 0 1.2-.4 1.2-1c0-.4-.2-.7-1-.8l-.8-.2c-.8-.2-1.5-.5-1.5-1.5c0-1 1-1.6 2-1.6c1.4 0 2 .9 2.1 1.8h-.7c-.1-.6-.6-1.2-1.3-1.2h-.1c-.8 0-1.2.5-1.2 1c0 .5.3.7 1 .8l.8.2c.8.2 1.4.5 1.4 1.5c0 1-.8 1.6-2 1.6c-1.4 0-2.1-.7-2.2-1.7zm7.4.1c0-1.2 1-1.6 1.9-1.7c-.04.05 1.7-.1 1.7-.1v-.2c0-1-.5-1.5-1.4-1.5c-.7 0-1.3.4-1.4 1.1h-.7c0-1 .9-1.7 2.1-1.7c1.4 0 2.1 1 2.1 2.1v2.3c0 .3 0 .8.1 1.2h-.7v-.9c-.3.5-1 1-2 1c-1 0-1.7-.7-1.7-1.6zm1.9 1c.7 0 1.7-.7 1.7-1.5v-.7l-1.6.1c-.8.1-1.3.4-1.3 1.1c0 .6.5 1 1.1 1h.1zm4 .5v-5.5h.7v.9c.3-.6 1-1 1.9-1c1.1 0 2 .7 2 2c-.05.02 0 3.6 0 3.6h-.8s.04-3.36 0-3.4c0-1.1-.4-1.6-1.3-1.6c-1.2 0-1.8 1.1-1.8 2.3v2.7h-.7zm5.8-2.7c0-1.8 1.1-2.9 2.5-2.9c.7 0 1.5.4 1.8 1c.03-.01 0-3.1 0-3.1h.7v7.7h-.7s.03-.86 0-.9c-.3.6-1.1 1-1.8 1c-1.4 0-2.5-1.1-2.5-2.8zm2.6 2.2c1.2 0 1.7-1 1.7-2.2c0-1.2-.5-2.3-1.7-2.3h-.1c-1.2 0-1.7 1.1-1.7 2.3c0 1.2.5 2.2 1.7 2.2h.1zm5.9-2.2c0-1.7.9-2.9 2.5-2.9c1.2 0 2 .7 2.1 1.9h-.7c-.1-.8-.6-1.3-1.4-1.3h-.1c-1.2 0-1.7 1.1-1.7 2.3c0 1.2.5 2.2 1.7 2.2h.1c.8 0 1.3-.5 1.4-1.2h.7c-.2 1.1-.9 1.8-2.1 1.8c-1.6 0-2.5-1.2-2.5-2.8zm5.6 0c0-1.7 1.1-2.9 2.5-2.9c1.4 0 2.5 1.2 2.5 2.9c0 1.7-1.1 2.8-2.5 2.8c-1.4 0-2.5-1.1-2.5-2.8zm2.6 2.2c1 0 1.7-.8 1.7-2.2c0-1.4-.7-2.3-1.7-2.3h-.1c-1 0-1.8.9-1.8 2.3c0 1.4.8 2.2 1.8 2.2h.1zm3.8.5v-5.5h.7s-.02.94 0 .9c.3-.6 1-1 1.9-1c1.1 0 1.9.7 1.9 2c.03.02 0 3.6 0 3.6h-.7s.01-3.36 0-3.4c0-1.1-.4-1.6-1.3-1.6h-.1c-1.2 0-1.7 1.1-1.7 2.3c-.02-.04 0 2.7 0 2.7h-.7zm5.8-2.7c0-1.8 1-2.9 2.5-2.9c.7 0 1.5.4 1.8 1V34h.7v7.7h-.7s.01-.86 0-.9c-.3.6-1.1 1-1.8 1c-1.5 0-2.5-1.1-2.5-2.8zm2.5 2.2c1.2 0 1.8-1 1.8-2.2c0-1.2-.6-2.3-1.8-2.3c-1.2 0-1.8 1.1-1.8 2.3c0 1.2.6 2.2 1.8 2.2zm4.1-1.4c.01.05 0-3.6 0-3.6h.7s.02 3.43 0 3.4c0 1.1.5 1.6 1.3 1.6h.2c.8 0 1.5-.7 1.5-2c.05-.02 0-3 0-3h.8v5.5h-.8s.05-1.02 0-1c-.2.7-.9 1.1-1.8 1.1c-1.2 0-1.9-.8-1.9-2zm5.8-.8c0-1.7.9-2.9 2.5-2.9c1.2 0 2.1.7 2.2 1.9h-.7c-.2-.8-.7-1.3-1.4-1.3h-.1c-1.2 0-1.8 1.1-1.8 2.3c0 1.2.6 2.2 1.8 2.2h.1c.7 0 1.2-.5 1.4-1.2h.7c-.2 1.1-1 1.8-2.2 1.8c-1.6 0-2.5-1.2-2.5-2.8zm7.6 2.7c-.7 0-1-.3-1-1v-3.9h-1.3v-.6h1.3v-1.8h.7v1.8h1.4v.6h-1.4v3.9c0 .3.1.4.4.4c.04.01 1.1 0 1.1 0v.6h-1.2zm4-1.5c0-1.2 1.1-1.6 1.9-1.7c.01.05 1.7-.1 1.7-.1c0 0 .05-.2 0-.2c0-1-.5-1.5-1.3-1.5h-.1c-.7 0-1.3.4-1.4 1.1h-.7c.1-1 1-1.7 2.1-1.7c1.5 0 2.2 1 2.2 2.1v3.5h-.6c-.1-.2-.1-.6-.1-.9c-.2.5-1 1-1.9 1c-1 0-1.8-.7-1.8-1.6zm1.9 1c.8 0 1.7-.7 1.7-1.5c.05.03 0-.7 0-.7l-1.5.1c-.8.1-1.4.4-1.4 1.1c0 .6.5 1 1.1 1h.1zm4 .5V34h.8v7.7h-.8zm2.4 0V34h.7v7.7h-.7zm4.4 0v-5.5h.7s.04.89 0 .9c.4-.6 1-1 1.9-1c.8 0 1.4.4 1.7 1.2c.4-.8 1-1.2 1.9-1.2c1.1 0 1.9.7 1.9 2c.01.02 0 3.6 0 3.6h-.7v-3.4c0-1.1-.4-1.6-1.3-1.6c-1.1 0-1.7 1.1-1.7 2.3c.03-.04 0 2.7 0 2.7h-.7s.01-3.36 0-3.4c0-1.1-.4-1.6-1.3-1.6c-1.1 0-1.7 1.1-1.7 2.3c.04-.04 0 2.7 0 2.7h-.7zm9.4-1.5c0-1.2 1-1.6 1.9-1.7c-.01.05 1.7-.1 1.7-.1c0 0 .03-.2 0-.2c0-1-.5-1.5-1.3-1.5h-.1c-.7 0-1.3.4-1.4 1.1h-.7c.1-1 .9-1.7 2.1-1.7c1.5 0 2.1 1 2.1 2.1v2.3c0 .3 0 .8.1 1.2h-.7v-.9c-.2.5-1 1-2 1c-.9 0-1.7-.7-1.7-1.6zm1.9 1c.8 0 1.7-.7 1.7-1.5c.03.03 0-.7 0-.7c0 0-1.57.11-1.6.1c-.7.1-1.3.4-1.3 1.1c0 .6.5 1 1.1 1h.1zm4-6v-.9h.8v.9h-.8zm0 6.5v-5.5h.7v5.5h-.7zm2.3 0v-5.5h.8s-.04.94 0 .9c.3-.6 1-1 1.9-1c1.1 0 1.9.7 1.9 2c.01.02 0 3.6 0 3.6h-.7s-.01-3.36 0-3.4c0-1.1-.4-1.6-1.3-1.6h-.1c-1.2 0-1.7 1.1-1.7 2.3c-.04-.04 0 2.7 0 2.7h-.8zm7.8 0c-.7 0-1.1-.3-1.1-1c.02.03 0-3.9 0-3.9H151v-.6h1.2v-1.8h.7v1.8h1.4v.6h-1.4s.04 3.87 0 3.9c0 .3.1.4.5.4c-.02.01 1.1 0 1.1 0v.6h-1.2zM155 39c0-2 1.2-2.9 2.5-2.9c1.3 0 2.2 1.1 2.2 2.5c.02-.02 0 .4 0 .4c0 0-3.94.02-3.9 0c0 1.6.8 2.2 1.7 2.2h.1c.7 0 1.2-.3 1.4-1.1h.7c-.2 1.1-1.1 1.7-2.2 1.7c-1.4 0-2.5-1-2.5-2.8zm4-.6c0-1-.6-1.7-1.5-1.7h-.1c-.7 0-1.5.4-1.6 1.7h3.2zm2.1 3.3v-5.5h.7s-.01.94 0 .9c.3-.6 1-1 1.9-1c1.1 0 1.9.7 1.9 2c.04.02 0 3.6 0 3.6h-.7s.02-3.36 0-3.4c0-1.1-.4-1.6-1.3-1.6h-.1c-1.2 0-1.7 1.1-1.7 2.3v2.7h-.7zm5.8-1.5c0-1.2 1.1-1.6 1.9-1.7c.01.05 1.7-.1 1.7-.1c0 0 .05-.2 0-.2c0-1-.5-1.5-1.3-1.5h-.1c-.7 0-1.3.4-1.4 1.1h-.7c.1-1 1-1.7 2.1-1.7c1.5 0 2.2 1 2.2 2.1v3.5h-.6c-.1-.2-.1-.6-.1-.9c-.2.5-1 1-1.9 1c-1 0-1.8-.7-1.8-1.6zm1.9 1c.8 0 1.7-.7 1.7-1.5c.05.03 0-.7 0-.7l-1.5.1c-.8.1-1.4.4-1.4 1.1c0 .6.5 1 1.1 1h.1zm4 .5v-5.5h.8s-.04.94 0 .9c.3-.6 1-1 1.9-1c1.1 0 1.9.7 1.9 2c.01.02 0 3.6 0 3.6h-.7s-.01-3.36 0-3.4c0-1.1-.4-1.6-1.3-1.6h-.1c-1.2 0-1.7 1.1-1.7 2.3c-.04-.04 0 2.7 0 2.7h-.8zm5.9-2.7c0-1.7.9-2.9 2.5-2.9c1.2 0 2.1.7 2.2 1.9h-.7c-.2-.8-.7-1.3-1.4-1.3h-.1c-1.2 0-1.8 1.1-1.8 2.3c0 1.2.6 2.2 1.8 2.2h.1c.7 0 1.2-.5 1.4-1.2h.7c-.2 1.1-1 1.8-2.2 1.8c-1.6 0-2.5-1.2-2.5-2.8zm5.6 0c0-2 1.2-2.9 2.5-2.9c1.3 0 2.2 1.1 2.2 2.5c.02-.02 0 .4 0 .4c0 0-3.94.02-3.9 0c0 1.6.8 2.2 1.7 2.2c.8 0 1.3-.3 1.5-1.1h.7c-.2 1.1-1.1 1.7-2.2 1.7c-1.4 0-2.5-1-2.5-2.8zm4-.6c0-1-.6-1.7-1.5-1.7h-.1c-.7 0-1.5.4-1.6 1.7h3.2zm2 3.3v-1.1h1.1v1.1h-1.1z" stroke="none" fill="#dcddce"/></g><g id="Polygon20238"><path d="m13.8 26.6c-.7 0-1-.3-1-1c-.03-.02 0-3.9 0-3.9h-1.3v-.6h1.3v-1.8h.7v1.8h1.4v.6h-1.4s-.02 3.82 0 3.8c0 .4.1.5.4.5c.02-.04 1.1 0 1.1 0v.6s-1.19-.04-1.2 0zm1.8-2.8c0-1.7 1.1-2.8 2.5-2.8c1.4 0 2.5 1.1 2.5 2.8c0 1.7-1.1 2.9-2.5 2.9c-1.4 0-2.5-1.2-2.5-2.9zm2.5 2.3c1 0 1.8-.9 1.8-2.3c0-1.4-.8-2.2-1.8-2.2h-.1c-1 0-1.7.8-1.7 2.2c0 1.4.7 2.3 1.7 2.3h.1zm5.9.5v-7.7h.7v7.7h-.7zm2-2.8c0-1.9 1.2-2.8 2.5-2.8c1.3 0 2.2 1 2.2 2.4c.02.03 0 .5 0 .5c0 0-3.94-.03-3.9 0c0 1.5.8 2.2 1.7 2.2h.1c.7 0 1.2-.4 1.4-1.1h.7c-.2 1.1-1.1 1.7-2.2 1.7c-1.4 0-2.5-1-2.5-2.9zm4-.5c0-1-.6-1.7-1.5-1.7h-.1c-.7 0-1.5.4-1.6 1.7h3.2zm1.8 1.7c0-1.2 1-1.5 1.9-1.6l1.7-.1v-.3c0-.9-.5-1.4-1.4-1.4c-.7 0-1.3.3-1.4 1h-.7c0-1 .9-1.6 2.1-1.6c1.4 0 2.1.9 2.1 2v2.4c0 .3 0 .8.1 1.2h-.7c0-.3-.1-.6-.1-.9c-.2.5-.9 1-1.9 1c-1 0-1.7-.7-1.7-1.7zm1.9 1.1c.7 0 1.7-.7 1.7-1.5v-.8s-1.61.16-1.6.2c-.8 0-1.3.4-1.3 1c0 .6.4 1.1 1.1 1.1h.1zm3.6-1.2h.7c.1.8.7 1.2 1.4 1.2h.1c.8 0 1.3-.4 1.3-1c0-.4-.3-.7-1-.9l-.8-.1c-.8-.2-1.5-.6-1.5-1.5c0-1.1.9-1.6 2-1.6c1.4 0 2 .8 2 1.7h-.7c0-.6-.5-1.1-1.3-1.1h-.1c-.7 0-1.2.4-1.2.9c0 .5.3.7 1 .9l.9.2c.8.1 1.4.5 1.4 1.4c0 1.1-.8 1.7-2 1.7c-1.4 0-2.2-.8-2.2-1.8zm5.2-1.1c0-1.9 1.2-2.8 2.5-2.8c1.3 0 2.2 1 2.2 2.4c.02.03 0 .5 0 .5c0 0-3.94-.03-3.9 0c0 1.5.8 2.2 1.7 2.2h.1c.7 0 1.2-.4 1.4-1.1h.7c-.2 1.1-1.1 1.7-2.2 1.7c-1.4 0-2.5-1-2.5-2.9zm4-.5c0-1-.6-1.7-1.5-1.7h-.1c-.7 0-1.5.4-1.6 1.7h3.2zm4.1 5.5v-7.7h.7s.04.84 0 .8c.4-.6 1.2-.9 1.9-.9c1.4 0 2.4 1.1 2.4 2.8c0 1.8-1 2.9-2.4 2.9c-.7 0-1.5-.4-1.9-1c.04-.01 0 3.1 0 3.1h-.7zm2.6-2.7c1.1 0 1.7-1.1 1.7-2.3c0-1.2-.6-2.2-1.7-2.2h-.1c-1.2 0-1.8 1-1.8 2.2c0 1.2.6 2.3 1.8 2.3h.1zm3.8.5v-5.5h.6s.03 1.22 0 1.2c.3-.9 1-1.3 1.7-1.3h.5v.7s-.41-.03-.4 0c-1.1 0-1.7.8-1.7 2.2c-.02-.01 0 2.7 0 2.7h-.7zm3.4-2.8c0-1.7 1.1-2.8 2.5-2.8c1.4 0 2.5 1.1 2.5 2.8c0 1.7-1.1 2.9-2.5 2.9c-1.4 0-2.5-1.2-2.5-2.9zm2.5 2.3c1 0 1.8-.9 1.8-2.3c0-1.4-.8-2.2-1.8-2.2h-.1c-1 0-1.7.8-1.7 2.2c0 1.4.7 2.3 1.7 2.3h.1zm3.8 2.7v-7.7h.7s.04.84 0 .8c.4-.6 1.2-.9 1.9-.9c1.4 0 2.4 1.1 2.4 2.8c0 1.8-1 2.9-2.4 2.9c-.7 0-1.5-.4-1.9-1c.04-.01 0 3.1 0 3.1h-.7zm2.6-2.7c1.1 0 1.7-1.1 1.7-2.3c0-1.2-.6-2.2-1.7-2.2h-.1c-1.2 0-1.8 1-1.8 2.2c0 1.2.6 2.3 1.8 2.3h.1zm3.5-2.3c0-1.9 1.2-2.8 2.4-2.8c1.4 0 2.3 1 2.3 2.4c-.04.03 0 .5 0 .5c0 0-4-.03-4 0c0 1.5.8 2.2 1.7 2.2h.1c.7 0 1.2-.4 1.4-1.1h.7c-.2 1.1-1 1.7-2.2 1.7c-1.3 0-2.4-1-2.4-2.9zm3.9-.5c0-1-.6-1.7-1.4-1.7h-.1c-.7 0-1.5.4-1.7 1.7h3.2zm2.1 3.3v-5.5h.7s-.03 1.22 0 1.2c.2-.9.9-1.3 1.7-1.3h.5v.7s-.47-.03-.5 0c-1 0-1.7.8-1.7 2.2c.03-.01 0 2.7 0 2.7h-.7zm5.8 0c-.7 0-1-.3-1-1v-3.9h-1.3v-.6h1.3v-1.8h.7v1.8h1.4v.6h-1.4v3.8c0 .4.1.5.4.5c.04-.04 1.1 0 1.1 0v.6s-1.17-.04-1.2 0zm2.2-6.5v-1h.8v1h-.8zm.1 6.5v-5.5h.7v5.5h-.7zm2-2.8c0-1.9 1.2-2.8 2.5-2.8c1.3 0 2.2 1 2.2 2.4c-.03.03 0 .5 0 .5c0 0-3.99-.03-4 0c0 1.5.8 2.2 1.7 2.2h.1c.8 0 1.2-.4 1.4-1.1h.8c-.3 1.1-1.1 1.7-2.2 1.7c-1.4 0-2.5-1-2.5-2.9zm4-.5c-.1-1-.6-1.7-1.5-1.7h-.1c-.7 0-1.5.4-1.7 1.7h3.3zm1.6 1.6h.8c0 .8.6 1.2 1.4 1.2h.1c.8 0 1.2-.4 1.2-1c0-.4-.2-.7-.9-.9l-.8-.1c-.8-.2-1.5-.6-1.5-1.5c0-1.1.9-1.6 1.9-1.6c1.4 0 2.1.8 2.1 1.7h-.7c-.1-.6-.5-1.1-1.3-1.1h-.1c-.8 0-1.2.4-1.2.9c0 .5.3.7 1 .9l.8.2c.8.1 1.5.5 1.5 1.4c0 1.1-.9 1.7-2.1 1.7c-1.4 0-2.1-.8-2.2-1.8zm5.2 2.9v-.4h.3c.5 0 .7-.2.7-.7c-.02.03 0-.1 0-.1h-.6v-1.1h1.1s-.02 1.28 0 1.3c0 .6-.4 1-1.1 1c.03.03-.4 0-.4 0zm5-7.7v-1h.9v1h-.9zm.1 6.5v-5.5h.7v5.5h-.7zm2.3 0v-5.5h.7s.03.89 0 .9c.4-.6 1.1-1 2-1c1.1 0 1.9.6 1.9 2c-.02-.03 0 3.6 0 3.6h-.7s-.03-3.41 0-3.4c0-1.1-.5-1.6-1.3-1.6h-.1c-1.2 0-1.8 1-1.8 2.2c.03.01 0 2.8 0 2.8h-.7zm5.8-1.7h.7c.1.8.6 1.2 1.4 1.2h.1c.8 0 1.3-.4 1.3-1c0-.4-.3-.7-1-.9l-.8-.1c-.8-.2-1.5-.6-1.5-1.5c0-1.1.9-1.6 2-1.6c1.3 0 2 .8 2 1.7h-.7c-.1-.6-.5-1.1-1.3-1.1h-.1c-.8 0-1.2.4-1.2.9c0 .5.3.7 1 .9l.9.2c.7.1 1.4.5 1.4 1.4c0 1.1-.8 1.7-2 1.7c-1.5 0-2.2-.8-2.2-1.8zm5.6 3.9v-7.7h.7s-.03.84 0 .8c.3-.6 1.1-.9 1.8-.9c1.4 0 2.5 1.1 2.5 2.8c0 1.8-1.1 2.9-2.5 2.9c-.7 0-1.5-.4-1.8-1c-.03-.01 0 3.1 0 3.1h-.7zm2.5-2.7c1.2 0 1.7-1.1 1.7-2.3c0-1.2-.5-2.2-1.7-2.2h-.1c-1.2 0-1.7 1-1.7 2.2c0 1.2.5 2.3 1.7 2.3h.1zm3.5-2.3c0-1.9 1.2-2.8 2.5-2.8c1.3 0 2.2 1 2.2 2.4c-.02.03 0 .5 0 .5c0 0-3.98-.03-4 0c0 1.5.8 2.2 1.8 2.2c.8 0 1.2-.4 1.5-1.1h.7c-.3 1.1-1.1 1.7-2.2 1.7c-1.4 0-2.5-1-2.5-2.9zm4-.5c-.1-1-.6-1.7-1.5-1.7h-.1c-.7 0-1.5.4-1.7 1.7h3.3zm1.7.5c0-1.6.9-2.8 2.6-2.8c1.2 0 2 .7 2.1 1.8h-.7c-.1-.7-.6-1.2-1.4-1.2h-.1c-1.2 0-1.7 1-1.7 2.2c0 1.2.5 2.3 1.7 2.3h.1c.8 0 1.3-.6 1.4-1.3h.7c-.2 1.1-.9 1.9-2.1 1.9c-1.7 0-2.6-1.3-2.6-2.9zm7.7 2.8c-.7 0-1.1-.3-1.1-1c.03-.02 0-3.9 0-3.9h-1.2v-.6h1.2v-1.8h.7v1.8h1.4v.6h-1.4s.04 3.82 0 3.8c0 .4.2.5.5.5c-.02-.04 1.1 0 1.1 0v.6s-1.23-.04-1.2 0zm3.8.7h.7c.2.7.8 1.1 1.8 1.1h.1c.9 0 1.7-.6 1.7-1.9v-.9c-.3.6-.9 1-1.8 1c-1.4 0-2.4-1-2.4-2.8c0-1.7 1-2.8 2.4-2.8c.9 0 1.5.3 1.8.9c.03.04 0-.8 0-.8h.7s.05 5.42 0 5.4c0 1.5-.9 2.5-2.5 2.5c-1.6 0-2.4-.7-2.5-1.7zm2.6-1.3c1 0 1.7-.8 1.7-2.2c0-1.4-.7-2.2-1.7-2.2h-.1c-1 0-1.7.8-1.7 2.2c0 1.4.7 2.2 1.7 2.2h.1zm4.1.6v-5.5h.6s.03 1.22 0 1.2c.3-.9 1-1.3 1.7-1.3h.5v.7s-.41-.03-.4 0c-1.1 0-1.7.8-1.7 2.2v2.7h-.7zm3.4-2.8c0-1.7 1.1-2.8 2.5-2.8c1.4 0 2.5 1.1 2.5 2.8c0 1.7-1.1 2.9-2.5 2.9c-1.4 0-2.5-1.2-2.5-2.9zm2.5 2.3c1 0 1.8-.9 1.8-2.3c0-1.4-.8-2.2-1.8-2.2h-.1c-1 0-1.7.8-1.7 2.2c0 1.4.7 2.3 1.7 2.3h.1zm3.8-1.4c-.01 0 0-3.6 0-3.6h.7v3.4c0 1 .4 1.6 1.3 1.6h.1c.8 0 1.6-.8 1.6-2.1c.03.03 0-2.9 0-2.9h.7v5.5h-.7s.03-1.07 0-1.1c-.3.8-.9 1.2-1.8 1.2c-1.2 0-1.9-.8-1.9-2zm6.1 1.9v-5.5h.7s-.02.89 0 .9c.3-.6 1-1 1.9-1c1.1 0 1.9.6 1.9 2c.03-.03 0 3.6 0 3.6h-.7s.02-3.41 0-3.4c0-1.1-.4-1.6-1.3-1.6h-.1c-1.2 0-1.7 1-1.7 2.2c-.02.01 0 2.8 0 2.8h-.7zm5.8-2.8c0-1.7 1-2.8 2.5-2.8c.7 0 1.5.3 1.8.9v-3h.7v7.7h-.7s.01-.91 0-.9c-.3.6-1.1 1-1.8 1c-1.5 0-2.5-1.1-2.5-2.9zm2.5 2.3c1.2 0 1.8-1.1 1.8-2.3c0-1.2-.6-2.2-1.8-2.2c-1.2 0-1.8 1-1.8 2.2c0 1.2.6 2.3 1.8 2.3zm3.8-1.2h.7c.1.8.6 1.2 1.4 1.2h.1c.8 0 1.3-.4 1.3-1c0-.4-.3-.7-1-.9l-.8-.1c-.8-.2-1.5-.6-1.5-1.5c0-1.1.9-1.6 2-1.6c1.3 0 2 .8 2 1.7h-.7c0-.6-.5-1.1-1.3-1.1h-.1c-.8 0-1.2.4-1.2.9c0 .5.3.7 1 .9l.9.2c.7.1 1.4.5 1.4 1.4c0 1.1-.8 1.7-2 1.7c-1.5 0-2.2-.8-2.2-1.8zm7.3.1c0-1.2 1-1.5 1.9-1.6l1.7-.1s.03-.25 0-.3c0-.9-.5-1.4-1.3-1.4h-.1c-.7 0-1.3.3-1.4 1h-.7c.1-1 .9-1.6 2.1-1.6c1.4 0 2.1.9 2.1 2v2.4c0 .3 0 .8.1 1.2h-.7v-.9c-.2.5-1 1-2 1c-.9 0-1.7-.7-1.7-1.7zm1.9 1.1c.8 0 1.7-.7 1.7-1.5c.03-.02 0-.8 0-.8c0 0-1.57.16-1.6.2c-.8 0-1.3.4-1.3 1c0 .6.5 1.1 1.1 1.1h.1zm4 .5v-5.5h.7s.04.89 0 .9c.4-.6 1.1-1 2-1c1.1 0 1.9.6 1.9 2c-.01-.03 0 3.6 0 3.6h-.7s-.03-3.41 0-3.4c0-1.1-.5-1.6-1.3-1.6h-.1c-1.2 0-1.8 1-1.8 2.2c.04.01 0 2.8 0 2.8h-.7zm5.9-2.8c0-1.7 1-2.8 2.4-2.8c.7 0 1.5.3 1.9.9c-.03.04 0-3 0-3h.7v7.7h-.7s-.03-.91 0-.9c-.4.6-1.2 1-1.9 1c-1.4 0-2.4-1.1-2.4-2.9zm2.5 2.3c1.2 0 1.8-1.1 1.8-2.3c0-1.2-.6-2.2-1.8-2.2h-.1c-1.1 0-1.7 1-1.7 2.2c0 1.2.6 2.3 1.7 2.3h.1z" stroke="none" fill="#dcddce"/></g><g id="Polygon20237"><path d="m12.4 11.4V3.7s2.65.02 2.6 0c2.1 0 3.5 1.5 3.5 3.9c0 2.4-1.4 3.8-3.5 3.8h-2.6zm.8-.7h1.7c1.8 0 2.8-1.1 2.8-3.1c0-2-1-3.2-2.8-3.2c.04.03-1.7 0-1.7 0v6.3zm6.4-2c0-2 1.2-2.9 2.5-2.9c1.3 0 2.2 1.1 2.2 2.5v.4s-3.96.02-4 0c.1 1.6.9 2.2 1.8 2.2c.8 0 1.3-.3 1.5-1.1h.7c-.3 1.1-1.1 1.7-2.2 1.7c-1.4 0-2.5-1-2.5-2.8zm4-.6c0-1-.6-1.7-1.5-1.7h-.1c-.7 0-1.5.4-1.6 1.7h3.2zm1.8.6c0-1.8 1-2.9 2.4-2.9c.7 0 1.5.4 1.8 1c.04-.01 0-3.1 0-3.1h.8v7.7h-.8s.04-.86 0-.9c-.3.6-1.1 1-1.8 1c-1.4 0-2.4-1.1-2.4-2.8zm2.5 2.2c1.2 0 1.7-1 1.7-2.2c0-1.2-.5-2.3-1.7-2.3h-.1c-1.1 0-1.7 1.1-1.7 2.3c0 1.2.6 2.2 1.7 2.2h.1zm4-6v-.9h.9v.9h-.9zm.1 6.5V5.9h.7v5.5h-.7zm2-2.7c0-1.7.9-2.9 2.5-2.9c1.2 0 2.1.7 2.2 1.9h-.7c-.1-.8-.7-1.3-1.4-1.3h-.1c-1.2 0-1.8 1.1-1.8 2.3c0 1.2.6 2.2 1.8 2.2h.1c.7 0 1.2-.5 1.4-1.2h.7c-.2 1.1-1 1.8-2.2 1.8c-1.6 0-2.5-1.2-2.5-2.8zm5.7 1.2c0-1.2 1-1.6 1.9-1.7c-.01.05 1.7-.1 1.7-.1c0 0 .03-.2 0-.2c0-1-.5-1.5-1.3-1.5h-.1c-.7 0-1.3.4-1.4 1.1h-.7c.1-1 .9-1.7 2.1-1.7c1.5 0 2.1 1 2.1 2.1v2.3c0 .3 0 .8.1 1.2h-.7v-.9c-.2.5-1 1-2 1c-.9 0-1.7-.7-1.7-1.6zm1.9 1c.8 0 1.7-.7 1.7-1.5c.03.03 0-.7 0-.7c0 0-1.57.11-1.6.1c-.7.1-1.3.4-1.3 1.1c0 .6.5 1 1.1 1h.1zm5.6.5c-.7 0-1.1-.3-1.1-1c.02.03 0-3.9 0-3.9h-1.2v-.6h1.2V4.1h.7v1.8h1.4v.6h-1.4s.04 3.87 0 3.9c0 .3.1.4.5.4c-.02.01 1.1 0 1.1 0v.6h-1.2zm1.7-2.7c0-2 1.2-2.9 2.5-2.9c1.3 0 2.2 1.1 2.2 2.5c.02-.02 0 .4 0 .4c0 0-3.94.02-3.9 0c0 1.6.8 2.2 1.7 2.2h.1c.7 0 1.2-.3 1.4-1.1h.7c-.2 1.1-1.1 1.7-2.2 1.7c-1.4 0-2.5-1-2.5-2.8zm4-.6c0-1-.6-1.7-1.5-1.7h-.1c-.7 0-1.5.4-1.6 1.7h3.2zm1.8.6c0-1.8 1-2.9 2.4-2.9c.7 0 1.5.4 1.9 1c-.03-.01 0-3.1 0-3.1h.7v7.7h-.7s-.03-.86 0-.9c-.4.6-1.2 1-1.9 1c-1.4 0-2.4-1.1-2.4-2.8zm2.5 2.2c1.2 0 1.8-1 1.8-2.2c0-1.2-.6-2.3-1.8-2.3h-.1c-1.1 0-1.7 1.1-1.7 2.3c0 1.2.6 2.2 1.7 2.2h.1zm5.9-2.2c0-1.7 1.1-2.9 2.5-2.9c1.4 0 2.5 1.2 2.5 2.9c0 1.7-1.1 2.8-2.5 2.8c-1.4 0-2.5-1.1-2.5-2.8zm2.6 2.2c1 0 1.7-.8 1.7-2.2c0-1.4-.7-2.3-1.7-2.3h-.1c-1 0-1.8.9-1.8 2.3c0 1.4.8 2.2 1.8 2.2h.1zm3.8.5V5.9h.7s-.04.94 0 .9c.3-.6 1-1 1.9-1c1.1 0 1.9.7 1.9 2c.01.02 0 3.6 0 3.6h-.7V8c0-1.1-.4-1.6-1.3-1.6h-.1c-1.2 0-1.7 1.1-1.7 2.3c-.04-.04 0 2.7 0 2.7h-.7zm5.7-1.6h.7c.1.7.7 1.1 1.4 1.1h.1c.8 0 1.3-.4 1.3-1c0-.4-.2-.7-1-.8l-.8-.2c-.8-.2-1.5-.5-1.5-1.5c0-1 .9-1.6 2-1.6c1.4 0 2 .9 2.1 1.8h-.8c0-.6-.5-1.2-1.3-1.2h-.1c-.7 0-1.2.5-1.2 1c0 .5.3.7 1 .8l.9.2c.8.2 1.4.5 1.4 1.5c0 1-.8 1.6-2 1.6c-1.4 0-2.1-.7-2.2-1.7zm5.5-4.9v-.9h.8v.9h-.8zm.1 6.5V5.9h.7v5.5h-.7zm4 0c-.7 0-1.1-.3-1.1-1c.04.03 0-3.9 0-3.9h-1.2v-.6h1.2V4.1h.8v1.8h1.3v.6h-1.3s-.04 3.87 0 3.9c0 .3.1.4.4.4c0 .01 1.1 0 1.1 0v.6h-1.2zm1.8-2.7c0-2 1.2-2.9 2.4-2.9c1.4 0 2.2 1.1 2.2 2.5c.04-.02 0 .4 0 .4c0 0-3.92.02-3.9 0c0 1.6.8 2.2 1.7 2.2h.1c.7 0 1.2-.3 1.4-1.1h.7c-.2 1.1-1.1 1.7-2.2 1.7c-1.4 0-2.4-1-2.4-2.8zm3.9-.6c0-1-.6-1.7-1.4-1.7h-.1c-.7 0-1.5.4-1.7 1.7h3.2zm4.9 2.4c-.02.04 0 .9 0 .9h-.7V3.7h.7s-.02 3.09 0 3.1c.3-.6 1.1-1 1.8-1c1.4 0 2.5 1.1 2.5 2.9c0 1.7-1.1 2.8-2.5 2.8c-.7 0-1.5-.4-1.8-1zm1.8.4c1.2 0 1.7-1 1.7-2.2c0-1.2-.5-2.3-1.7-2.3h-.1c-1.2 0-1.7 1.1-1.7 2.3c0 1.2.5 2.2 1.7 2.2h.1zm3.8-1.4c-.04.05 0-3.6 0-3.6h.7s-.03 3.43 0 3.4c0 1.1.4 1.6 1.3 1.6h.1c.8 0 1.6-.7 1.6-2v-3h.7v5.5h-.7v-1c-.3.7-.9 1.1-1.8 1.1c-1.3 0-1.9-.8-1.9-2zm6-4.6v-.9h.8v.9h-.8zm0 6.5V5.9h.7v5.5h-.7zm2.4 0V3.7h.7v7.7h-.7zm2-2.7c0-1.8 1-2.9 2.5-2.9c.7 0 1.5.4 1.8 1V3.7h.7v7.7h-.7v-.9c-.3.6-1.1 1-1.8 1c-1.5 0-2.5-1.1-2.5-2.8zm2.5 2.2c1.2 0 1.8-1 1.8-2.2c0-1.2-.6-2.3-1.8-2.3c-1.2 0-1.8 1.1-1.8 2.3c0 1.2.6 2.2 1.8 2.2zm4.1-6v-.9h.8v.9h-.8zm0 6.5V5.9h.8v5.5h-.8zm2.4 0V5.9h.7s-.01.94 0 .9c.3-.6 1-1 1.9-1c1.1 0 1.9.7 1.9 2c.04.02 0 3.6 0 3.6h-.7s.02-3.36 0-3.4c0-1.1-.4-1.6-1.3-1.6h-.1c-1.2 0-1.7 1.1-1.7 2.3v2.7h-.7zm5.7.8h.7c.2.7.8 1 1.7 1h.1c1 0 1.8-.5 1.8-1.9v-.9c-.3.6-.9 1-1.8 1c-1.4 0-2.4-1-2.4-2.7c0-1.8 1-2.9 2.4-2.9c.9 0 1.5.4 1.8 1c.01-.01 0-.9 0-.9h.7s.02 5.47 0 5.5c0 1.4-.9 2.4-2.5 2.4c-1.6 0-2.4-.7-2.5-1.6zm2.6-1.4c1 0 1.7-.8 1.7-2.1c0-1.4-.7-2.3-1.7-2.3h-.1c-1 0-1.7.9-1.7 2.3c0 1.3.7 2.1 1.7 2.1h.1zm6.2.6V5.9h.7s-.03.89 0 .9c.3-.6.9-1 1.8-1c.8 0 1.5.4 1.7 1.2c.4-.8 1.1-1.2 2-1.2c1 0 1.8.7 1.8 2c.04.02 0 3.6 0 3.6h-.7s.03-3.36 0-3.4c0-1.1-.4-1.6-1.2-1.6h-.1c-1.1 0-1.6 1.1-1.6 2.3c-.04-.04 0 2.7 0 2.7h-.8s.05-3.36 0-3.4c0-1.1-.4-1.6-1.2-1.6h-.1c-1.1 0-1.6 1.1-1.6 2.3c-.03-.04 0 2.7 0 2.7h-.7zm9.3-1.5c0-1.2 1.1-1.6 1.9-1.7c.02.05 1.8-.1 1.8-.1c0 0-.04-.2 0-.2c0-1-.6-1.5-1.4-1.5h-.1c-.7 0-1.3.4-1.3 1.1h-.8c.1-1 1-1.7 2.2-1.7c1.4 0 2.1 1 2.1 2.1v3.5h-.6c-.1-.2-.1-.6-.1-.9c-.2.5-1 1-1.9 1c-1 0-1.8-.7-1.8-1.6zm2 1c.7 0 1.7-.7 1.7-1.5c-.04.03 0-.7 0-.7l-1.6.1c-.8.1-1.4.4-1.4 1.1c0 .6.5 1 1.1 1h.2zm4 .5V5.9h.7s-.03.94 0 .9c.3-.6 1-1 1.9-1c1.1 0 1.9.7 1.9 2c.02.02 0 3.6 0 3.6h-.7s.01-3.36 0-3.4c0-1.1-.4-1.6-1.3-1.6h-.1c-1.2 0-1.7 1.1-1.7 2.3c-.03-.04 0 2.7 0 2.7h-.7zm5.8-1.5c0-1.2 1-1.6 1.9-1.7c-.01.05 1.7-.1 1.7-.1c0 0 .03-.2 0-.2c0-1-.5-1.5-1.3-1.5h-.1c-.7 0-1.3.4-1.4 1.1h-.7c.1-1 .9-1.7 2.1-1.7c1.5 0 2.1 1 2.1 2.1v2.3c0 .3 0 .8.1 1.2h-.7v-.9c-.2.5-1 1-2 1c-.9 0-1.7-.7-1.7-1.6zm1.9 1c.8 0 1.7-.7 1.7-1.5c.03.03 0-.7 0-.7c0 0-1.56.11-1.6.1c-.7.1-1.3.4-1.3 1.1c0 .6.5 1 1.1 1h.1zm3.6 1.3h.7c.1.7.8 1 1.7 1h.1c1 0 1.8-.5 1.8-1.9v-.9c-.3.6-1 1-1.8 1c-1.4 0-2.4-1-2.4-2.7c0-1.8 1-2.9 2.4-2.9c.8 0 1.5.4 1.8 1v-.9h.7v5.5c0 1.4-.9 2.4-2.5 2.4c-1.6 0-2.4-.7-2.5-1.6zm2.6-1.4c1 0 1.7-.8 1.7-2.1c0-1.4-.7-2.3-1.7-2.3h-.1c-1 0-1.7.9-1.7 2.3c0 1.3.7 2.1 1.7 2.1h.1zm3.7-2.1c0-2 1.2-2.9 2.5-2.9c1.3 0 2.2 1.1 2.2 2.5c.02-.02 0 .4 0 .4c0 0-3.94.02-3.9 0c0 1.6.8 2.2 1.7 2.2h.1c.7 0 1.2-.3 1.4-1.1h.7c-.2 1.1-1.1 1.7-2.2 1.7c-1.4 0-2.5-1-2.5-2.8zm4-.6c0-1-.6-1.7-1.5-1.7h-.1c-.7 0-1.5.4-1.6 1.7h3.2zm2.1 3.3V5.9h.7s-.01.89 0 .9c.3-.6 1-1 1.8-1c.8 0 1.5.4 1.7 1.2c.4-.8 1.1-1.2 2-1.2c1.1 0 1.9.7 1.9 2c-.04.02 0 3.6 0 3.6h-.8s.05-3.36 0-3.4c0-1.1-.4-1.6-1.2-1.6h-.1c-1.1 0-1.6 1.1-1.6 2.3c-.03-.04 0 2.7 0 2.7h-.7s-.04-3.36 0-3.4c0-1.1-.5-1.6-1.3-1.6h-.1c-1.1 0-1.6 1.1-1.6 2.3v2.7h-.7zm9.4-2.7c0-2 1.1-2.9 2.4-2.9c1.4 0 2.2 1.1 2.2 2.5c.03-.02 0 .4 0 .4c0 0-3.93.02-3.9 0c0 1.6.8 2.2 1.7 2.2h.1c.7 0 1.2-.3 1.4-1.1h.7c-.2 1.1-1.1 1.7-2.2 1.7c-1.4 0-2.4-1-2.4-2.8zm3.9-.6c0-1-.6-1.7-1.4-1.7h-.2c-.6 0-1.4.4-1.6 1.7h3.2zm2.1 3.3V5.9h.7s.01.94 0 .9c.3-.6 1-1 1.9-1c1.1 0 2 .7 2 2c-.04.02 0 3.6 0 3.6h-.8s.04-3.36 0-3.4c0-1.1-.4-1.6-1.3-1.6c-1.2 0-1.8 1.1-1.8 2.3v2.7h-.7zm7.7 0c-.7 0-1-.3-1-1c-.03.03 0-3.9 0-3.9h-1.3v-.6h1.3V4.1h.7v1.8h1.4v.6h-1.4s-.02 3.87 0 3.9c0 .3.1.4.4.4c.02.01 1.1 0 1.1 0v.6H197z" stroke="none" fill="#dcddce"/></g></svg>