<?xml version="1.0" standalone="no"?><!DOCTYPE svg PUBLIC "-//W3C//DTD SVG 1.1//EN" "http://www.w3.org/Graphics/SVG/1.1/DTD/svg11.dtd"><svg xmlns="http://www.w3.org/2000/svg" version="1.1" width="91px" height="40.2px" viewBox="0 -2 91 40.2" style="top:-2px"><desc>Click Here To View Alternate Scheme</desc><defs/><g id="Polygon18812"><path d="m5.9 20.8l-.7-1.9H1.6l-.8 1.9h-.7l2.9-7h.8l2.9 7h-.8zm-4.1-2.6h3.1l-1.5-3.8l-1.6 3.8zm5.8 2.6v-7h.6v7h-.6zm3.7 0c-.7 0-1-.3-1-.9c.02 0 0-3.6 0-3.6H9.2v-.5h1.1v-1.6h.7v1.6h1.2v.5H11s-.03 3.55 0 3.6c0 .3.1.4.4.4c-.03-.05 1 0 1 0v.5h-1.1zm1.7-2.5c0-1.8 1.1-2.6 2.2-2.6c1.3 0 2.1 1 2.1 2.3c-.03-.05 0 .3 0 .3c0 0-3.63.05-3.6 0c0 1.5.7 2.1 1.5 2.1h.1c.7 0 1.1-.4 1.3-1h.7c-.3 1-1 1.5-2.1 1.5c-1.2 0-2.2-.9-2.2-2.6zm3.6-.5c0-.9-.5-1.6-1.3-1.6h-.1c-.6 0-1.4.4-1.5 1.6h2.9zm2 3v-5h.6s-.02 1.14 0 1.1c.2-.8.8-1.1 1.5-1.1c.03-.05.5 0 .5 0v.5s-.42.05-.4 0c-1 0-1.6.8-1.6 2.1c.03-.03 0 2.4 0 2.4h-.6zm3.6 0v-5h.6v.8c.3-.5.9-.9 1.8-.9c1 0 1.7.6 1.7 1.8c.01.03 0 3.3 0 3.3h-.6s-.04-3.07 0-3.1c0-1-.4-1.5-1.2-1.5h-.1c-1.1 0-1.6 1-1.6 2.1c.01 0 0 2.5 0 2.5h-.6zm5.4-1.4c0-1.1.9-1.4 1.7-1.5c-.01.02 1.6-.1 1.6-.1c0 0-.03-.2 0-.2c0-.9-.5-1.4-1.3-1.4c-.7 0-1.2.4-1.3 1h-.6c0-.9.8-1.5 1.9-1.5c1.3 0 1.9.9 1.9 1.9v2.1c0 .3 0 .7.1 1.1h-.6c-.1-.2-.1-.5-.1-.8c-.2.5-.9.9-1.8.9c-.8 0-1.5-.6-1.5-1.5zm1.7 1c.7 0 1.6-.7 1.6-1.4c-.03 0 0-.7 0-.7c0 0-1.48.13-1.5.1c-.7.1-1.2.4-1.2 1c0 .5.4 1 1 1h.1zm5.1.4c-.6 0-.9-.3-.9-.9c-.01 0 0-3.6 0-3.6h-1.2v-.5h1.2v-1.6h.6v1.6h1.3v.5h-1.3s.04 3.55 0 3.6c0 .3.1.4.4.4c.04-.05 1 0 1 0v.5h-1.1zm1.8-2.5c0-1.8 1.1-2.6 2.2-2.6c1.2 0 2 1 2 2.3c.04-.05 0 .3 0 .3c0 0-3.56.05-3.6 0c.1 1.5.8 2.1 1.6 2.1h.1c.6 0 1.1-.4 1.3-1h.6c-.2 1-1 1.5-2 1.5c-1.2 0-2.2-.9-2.2-2.6zm3.6-.5c0-.9-.6-1.6-1.3-1.6h-.1c-.7 0-1.4.4-1.5 1.6h2.9zm4.1.8h.7c0 1.1.8 1.7 2 1.7h.1c1 0 1.6-.6 1.6-1.3c0-.7-.4-1.1-1.3-1.2l-1.1-.3c-1.1-.2-1.7-.8-1.7-1.8c0-1.1.9-2 2.4-2c1.5 0 2.5.8 2.5 2.1h-.7c0-.9-.8-1.5-1.7-1.5h-.1c-1 0-1.7.6-1.7 1.4c0 .6.5 1 1.2 1.1l1.1.2c1.1.3 1.8.9 1.8 1.9c0 1.2-.9 2-2.4 2c-1.7 0-2.7-.8-2.7-2.3zm6.2-.3c0-1.5.8-2.6 2.3-2.6c1.1 0 1.9.6 2 1.7h-.7c-.1-.7-.6-1.2-1.2-1.2h-.1c-1.1 0-1.6 1-1.6 2.1c0 1.1.5 2.1 1.6 2.1h.1c.6 0 1.1-.6 1.2-1.2h.7c-.2 1-.9 1.7-2 1.7c-1.5 0-2.3-1.1-2.3-2.6zm5.5 2.5v-7h.7v2.8c.3-.5.9-.9 1.8-.9c1.1 0 1.7.7 1.7 1.8c-.01 0 0 3.3 0 3.3h-.7s.04-3.1 0-3.1c0-1-.4-1.5-1.2-1.5h-.1c-.7 0-1.5.7-1.5 1.9v2.7h-.7zm5.4-2.5c0-1.8 1.1-2.6 2.3-2.6c1.2 0 2 1 2 2.3v.3s-3.61.05-3.6 0c0 1.5.7 2.1 1.6 2.1c.7 0 1.1-.4 1.3-1h.7c-.2 1-1 1.5-2 1.5c-1.3 0-2.3-.9-2.3-2.6zm3.6-.5c0-.9-.5-1.6-1.3-1.6h-.1c-.6 0-1.4.4-1.5 1.6h2.9zm2 3v-5h.6s.05.8 0 .8c.3-.5.9-.9 1.7-.9c.7 0 1.3.4 1.6 1c.3-.6.9-1 1.7-1c1 0 1.7.6 1.7 1.8c.05.03 0 3.3 0 3.3h-.6v-3.1c0-1-.4-1.5-1.2-1.5c-1 0-1.5 1-1.5 2.1v2.5h-.7s.05-3.07 0-3.1c0-1-.3-1.5-1.1-1.5h-.1c-1 0-1.5 1-1.5 2.1c.05 0 0 2.5 0 2.5h-.6zm8.6-2.5c0-1.8 1.1-2.6 2.2-2.6c1.2 0 2 1 2 2.3c.05-.05 0 .3 0 .3c0 0-3.55.05-3.6 0c.1 1.5.8 2.1 1.6 2.1h.1c.7 0 1.1-.4 1.3-1h.6c-.2 1-1 1.5-2 1.5c-1.2 0-2.2-.9-2.2-2.6zm3.6-.5c0-.9-.5-1.6-1.3-1.6h-.1c-.7 0-1.4.4-1.5 1.6h2.9z" stroke="none" fill="#192d39"/></g><g id="Polygon18811"><path d="m.5 4.3C.5 2.2 1.7.7 3.7.7c1.6 0 2.7.9 2.7 2.2h-.7c-.1-.8-.7-1.6-1.9-1.6h-.1c-1.6 0-2.5 1.4-2.5 3c0 1.6.9 3 2.5 3h.1c1.2 0 1.8-.8 1.9-1.6h.7c0 1.3-1.1 2.2-2.7 2.2c-2 0-3.2-1.5-3.2-3.6zm7.2 3.5v-7h.7v7h-.7zm2.2-5.9v-.8h.8v.8h-.8zm.1 5.9v-5h.6v5h-.6zm1.9-2.5c0-1.5.9-2.6 2.3-2.6c1.1 0 1.9.6 2 1.7h-.7c-.1-.7-.5-1.2-1.2-1.2h-.1c-1.1 0-1.6 1-1.6 2.1c0 1.1.5 2.1 1.6 2.1h.1c.7 0 1.1-.6 1.2-1.2h.7c-.2 1-.9 1.7-2 1.7c-1.4 0-2.3-1.1-2.3-2.6zm5.6 2.5v-7h.6v4.6l2.7-2.6h.8l-2 2l2.1 3h-.8l-1.8-2.6l-1 1v1.6h-.6zm7.9 0v-7h.7v3.2h3.9V.8h.7v7h-.7V4.6h-3.9v3.2h-.7zm6.7-2.5c0-1.8 1.1-2.6 2.2-2.6c1.3 0 2.1 1 2.1 2.3c-.04-.05 0 .3 0 .3c0 0-3.64.05-3.6 0c0 1.5.7 2.1 1.5 2.1h.1c.7 0 1.1-.4 1.3-1h.6c-.2 1-.9 1.5-2 1.5c-1.2 0-2.2-.9-2.2-2.6zm3.6-.5c0-.9-.5-1.6-1.3-1.6h-.1c-.7 0-1.4.4-1.5 1.6h2.9zm2 3v-5h.6s-.03 1.14 0 1.1c.2-.8.8-1.1 1.5-1.1c.02-.05.5 0 .5 0v.5s-.43.05-.4 0c-1 0-1.6.8-1.6 2.1c.02-.03 0 2.4 0 2.4h-.6zm3-2.5c0-1.8 1.1-2.6 2.2-2.6c1.3 0 2.1 1 2.1 2.3c-.04-.05 0 .3 0 .3c0 0-3.64.05-3.6 0c0 1.5.7 2.1 1.5 2.1h.1c.7 0 1.1-.4 1.3-1h.6c-.2 1-.9 1.5-2 1.5c-1.2 0-2.2-.9-2.2-2.6zm3.6-.5c0-.9-.5-1.6-1.3-1.6h-.1c-.7 0-1.4.4-1.5 1.6h2.9zm6.1 3V1.4h-2.6v-.6h5.8v.6h-2.5v6.4h-.7zm2.7-2.5c0-1.6 1-2.6 2.3-2.6c1.3 0 2.3 1 2.3 2.6c0 1.6-1 2.6-2.3 2.6c-1.3 0-2.3-1-2.3-2.6zm2.3 2.1c.9 0 1.6-.8 1.6-2.1c0-1.3-.7-2.1-1.6-2.1h-.1c-.9 0-1.6.8-1.6 2.1c0 1.3.7 2.1 1.6 2.1h.1zM66.3.8h.8l-2.9 7h-.8l-3-7h.8L63.8 7L66.3.8zm1.6 1.1v-.8h.8v.8h-.8zm.1 5.9v-5h.6v5h-.6zm1.9-2.5c0-1.8 1.1-2.6 2.3-2.6c1.2 0 2 1 2 2.3v.3s-3.61.05-3.6 0c0 1.5.7 2.1 1.6 2.1c.7 0 1.1-.4 1.3-1h.7c-.2 1-1 1.5-2 1.5c-1.3 0-2.3-.9-2.3-2.6zm3.6-.5c0-.9-.5-1.6-1.3-1.6h-.1c-.6 0-1.4.4-1.5 1.6h2.9zm7.9-2h.7l-1.6 5h-.9l-1.1-4.3l-1.2 4.3h-.8l-1.6-5h.6l1.4 4.4L78 2.8h.9l1.2 4.5l1.3-4.5z" stroke="none" fill="#192d39"/></g></svg>