<?xml version="1.0" standalone="no"?><!DOCTYPE svg PUBLIC "-//W3C//DTD SVG 1.1//EN" "http://www.w3.org/Graphics/SVG/1.1/DTD/svg11.dtd"><svg xmlns="http://www.w3.org/2000/svg" version="1.1" width="75.3px" height="33.5px" viewBox="0 -3 75.3 33.5" style="top:-3px"><desc>Sydney CBD</desc><defs/><g id="Polygon20886"><path d="m4.9 6.3h1.4c0 1 .7 1.6 1.9 1.6h.1c1 0 1.5-.5 1.5-1.1c0-.5-.3-.9-1.1-1l-1.3-.3C6 5.2 5.3 4.4 5.3 3.2C5.3 2 6.4.8 8.3.8c1.9 0 3 1.1 3 2.6H9.9c0-.9-.7-1.4-1.6-1.4h-.1c-.9 0-1.5.5-1.5 1.1c0 .6.3.9 1 1.1l1.3.2c1.4.3 2.2 1 2.2 2.3c0 1.4-1.2 2.4-3.1 2.4c-2 0-3.1-1-3.2-2.8zm13.4-3.1l-2.4 5.5v1.2c0 .9-.5 1.4-1.4 1.4c.04-.04-2 0-2 0v-1.2h1.6c.4 0 .6-.1.6-.6c-.04.04 0-.8 0-.8l-2.5-5.5h1.4l1.7 3.9l1.6-3.9h1.4zm.4 2.9c0-1.7 1-3 2.6-3c.8 0 1.4.5 1.7.9V.9h1.3v8.1H23v-.8c-.3.5-1 .9-1.8.9c-1.5 0-2.5-1.3-2.5-3zM21.6 8c.7 0 1.4-.7 1.4-1.9c0-1.2-.7-1.9-1.4-1.9h-.1c-.8 0-1.5.7-1.5 1.9c0 1.2.7 1.9 1.5 1.9h.1zm4.3 1V3.2h1.4s-.03.86 0 .9c.3-.6.9-1 1.8-1c1.3 0 2 .9 2 2.1v3.8h-1.3s-.03-3.56 0-3.6c0-.7-.4-1.2-1.1-1.2c-.8 0-1.4.6-1.4 1.6c-.03-.02 0 3.2 0 3.2h-1.4zm6.5-2.9c0-1.8 1.1-3 2.7-3c1.6 0 2.5 1.2 2.5 2.8v.6h-4c.1 1 .8 1.5 1.5 1.5h.1c.5 0 1-.3 1.1-.8h1.3c-.2 1.2-1.2 1.9-2.5 1.9c-1.5 0-2.7-1-2.7-3zm3.9-.7c0-.8-.6-1.2-1.2-1.2h-.1c-.6 0-1.2.4-1.3 1.2h2.6zm8-2.2l-2.5 5.5s.03 1.17 0 1.2c0 .9-.4 1.4-1.3 1.4c-.04-.04-2.1 0-2.1 0v-1.2h1.6c.5 0 .6-.1.6-.6c-.02.04 0-.8 0-.8l-2.5-5.5h1.5l1.6 3.9l1.6-3.9h1.5zM47.1 5c0-2.5 1.4-4.2 3.8-4.2c2 0 3.2 1.2 3.3 2.7h-1.3C52.7 2.6 52 2 51 2h-.1c-1.5 0-2.4 1.2-2.4 3c0 1.7.9 2.9 2.4 2.9h.1c1 0 1.7-.6 1.9-1.5h1.3c-.1 1.6-1.3 2.7-3.3 2.7c-2.4 0-3.8-1.7-3.8-4.1zm8.6 4V.9s3.58.02 3.6 0c1.4 0 2.4.9 2.4 2.1c0 1-.6 1.7-1.3 1.9c.8.2 1.5.9 1.5 1.9c0 1.3-1.1 2.2-2.5 2.2h-3.7zm1.4-4.7h2c.8 0 1.2-.4 1.2-1.1c0-.7-.4-1-1.2-1c-.03-.04-2 0-2 0v2.1zm0 3.5s2.07-.03 2.1 0c.8 0 1.3-.4 1.3-1.2c0-.7-.5-1.1-1.3-1.1h-2.1v2.3zM63.4 9V.9s2.86.02 2.9 0c2.3 0 3.9 1.5 3.9 4.1c0 2.6-1.6 4-3.9 4h-2.9zm1.4-1.2s1.35-.03 1.3 0c1.7 0 2.7-.8 2.7-2.8c0-2-1-2.8-2.7-2.8c.05-.04-1.3 0-1.3 0v5.6z" stroke="none" fill="#192d39"/></g></svg>