<?xml version="1.0" standalone="no"?><!DOCTYPE svg PUBLIC "-//W3C//DTD SVG 1.1//EN" "http://www.w3.org/Graphics/SVG/1.1/DTD/svg11.dtd"><svg xmlns="http://www.w3.org/2000/svg" version="1.1" width="709px" height="150px" viewBox="0 -4 709 150" style="top:-4px"><desc>Unparalleled views from dawn to dusk</desc><defs/><g id="Polygon17206"><path d="m3.4 95V60.9h23.8l-.3 2.5l-20.1-1.2v14.7h15.7l-.3 2.6l-15.4-1.2V95H3.4zm55.8-2.3c1.58 2 3.2 2.1 3.2 2.1c0 0-.84.56-2.2.6c-2.8 0-4.1-.9-6.6-4.2c0 0-5.8-7.4-7.5-9.3c-1.3-1.8-2.3-2.3-3.4-2.3c-.04-.02-5.4 0-5.4 0V95h-3.5V60.9s8.14-.04 8.1 0c10.2 0 16.7 3.7 16.7 9.3c0 4.8-4.7 8.2-12.3 9.1c2.1.5 3.3 1.3 4.2 2.4l8.7 11zM37.3 62.2v16.1s4.64-.04 4.6 0c6.9 0 13.1-2.4 13.1-8.1c0-5.6-6.2-8-13.1-8c.04.04-4.6 0-4.6 0zM98.8 78c0 9.4-7.8 17-17.2 17c-9.4 0-17.2-7.6-17.2-17c0-9.5 7.8-17.1 17.2-17.1c9.4 0 17.2 7.6 17.2 17.1zm-4.7-5.2c-3.4-8-11.6-12.2-18.5-9.4c-6.8 2.9-9.8 11.7-6.5 19.7c3.4 8 11.6 12.3 18.5 9.4c6.8-2.9 9.8-11.7 6.5-19.7zm49.4-11.9V95H140V63.7l-14.5 24l-2.1 3.4l-.9-1.7L107 64.2V95h-1.7V60.9h3.9l15.2 25.2l15.3-25.2h3.8zm26.5 0s9.22-.04 9.2 0c13.9 0 19.5 8.9 19.5 17.1c0 8.1-5.6 17-19.5 17H170V60.9zm3.5 1.3v31.5s5.6-.02 5.6 0c11.9-.1 16-7.1 16-15.8c0-8.7-4.1-15.7-15.9-15.7c-.04.04-5.7 0-5.7 0zM200 95l17.7-34.6L235.5 95h-3.9l-4.9-9.5h-19.9l-4.9 9.5H200zm7.7-11.2h18.1l-9-17.6l-9.1 17.6zm69.7-22.9l-14.1 34.5l-7.9-19.2l-7.8 19.2l-14.2-34.5h3.8l11.3 27.6l6-14.6l-5.3-13h3.8l11.3 27.6l11.3-27.6h1.8zm6.1 34.1V60.9h1.4L313 89.6V60.9h1.7V95h-1.4l-28.1-28.7V95h-1.7zM371 63.4l-14.2-1.2V95h-3.5V62.2l-14.2 1.2v-2.5H371v2.5zM407.3 78c0 9.4-7.7 17-17.1 17c-9.4 0-17.2-7.6-17.2-17c0-9.5 7.8-17.1 17.2-17.1c9.4 0 17.1 7.6 17.1 17.1zm-4.6-5.2c-3.4-8-11.6-12.2-18.5-9.4c-6.9 2.9-9.8 11.7-6.5 19.7c3.4 8 11.6 12.3 18.5 9.4c6.8-2.9 9.8-11.7 6.5-19.7zm29.5-11.9s9.22-.04 9.2 0c13.9 0 19.5 8.9 19.5 17.1c0 8.1-5.6 17-19.5 17h-9.2V60.9zm3.5 1.3v31.5s5.6-.02 5.6 0c11.9-.1 16-7.1 16-15.8c0-8.7-4.1-15.7-15.9-15.7c-.04.04-5.7 0-5.7 0zm35.2-1.3s.04 20.9 0 20.9c0 7 4.6 11.3 11.9 11.3c7.2 0 10.6-4.5 10.6-11.4c.04.04 0-20.8 0-20.8h1.8s-.02 20.84 0 20.8c0 8-4.5 13.3-13.9 13.3c-9.4 0-13.8-5.5-13.8-13.3c-.04.04 0-20.8 0-20.8h3.4zM514.6 95c-4.6 0-9.6-1.5-12.6-4.1v-4.7c2.8 4.7 7.7 7.4 12.6 7.4c6.1 0 9.9-2.7 9.9-6.4c0-4.1-2.2-6.5-10.8-10.1c-8.8-3.8-11.3-6.1-11.3-9.5c0-3.7 4.2-6.7 13.4-6.7c5.1 0 9.1 1.8 11.6 4v4.6c-2.9-4.7-7.8-7.1-12.6-7.3c-6 0-9.1 1.7-9.1 4.4c.1 2.6 2.4 4.6 9.8 7.6c8.4 3.5 12.5 7 12.5 11.7c0 5.1-3.8 9.1-13.4 9.1zm45.3-2.3c2.11 2.18 3.7 2.1 3.7 2.1c0 0-.81.56-2.2.6c-2.8 0-4.4-.9-7.4-4.2L544.1 81c-2.2-2.4-3.2-2.8-4.5-1.7h-.1c.01.04-1.2 1.2-1.2 1.2V95h-3.5V60.9h3.5v17.3l19.2-17.3h2.6l-18.5 16.6c2.4-.4 5.1 1.4 7 3.3c1.8 1.8 11.3 11.9 11.3 11.9z" stroke="none" fill="#dcddce"/></g><g id="Polygon17205"><path d="m6.8 10.9s.04 20.9 0 20.9c0 7 4.6 11.3 11.9 11.3c7.2 0 10.6-4.5 10.6-11.4c.04.04 0-20.8 0-20.8h1.8s-.02 20.84 0 20.8c0 8-4.5 13.3-13.9 13.3c-9.4 0-13.8-5.5-13.8-13.3c-.04.04 0-20.8 0-20.8h3.4zM39.3 45V10.9h1.4l28.1 28.7V10.9h1.7V45h-1.4L41 16.3V45h-1.7zm65.8-24.8c0 5.6-6 9.4-18.2 9.4c.04-.02-4.7 0-4.7 0V45h-3.5V10.9s8.24-.04 8.2 0c12.2 0 18.2 3.7 18.2 9.3zm-22.9-8v16.1s4.74-.04 4.7 0c8.1 0 14.5-2.4 14.5-8.1c0-5.6-6.4-8-14.5-8c.04.04-4.7 0-4.7 0zM102 45l17.8-34.6L137.5 45h-3.9l-4.8-9.5h-20l-4.9 9.5H102zm7.7-11.2h18.2l-9.1-17.6l-9.1 17.6zm59 8.9c1.64 2 3.3 2.1 3.3 2.1c0 0-.88.56-2.3.6c-2.8 0-4-.9-6.6-4.2c0 0-5.8-7.4-7.4-9.3c-1.4-1.8-2.3-2.3-3.5-2.3c.02-.02-5.4 0-5.4 0V45h-3.5V10.9s8.2-.04 8.2 0c10.2 0 16.7 3.7 16.7 9.3c0 4.8-4.7 8.2-12.3 9.1c2 .5 3.2 1.3 4.2 2.4c1.4 1.9 8.6 11 8.6 11zm-21.9-30.5v16.1s4.7-.04 4.7 0c6.8 0 13.1-2.4 13.1-8.1c-.1-5.6-6.3-8-13.1-8c0 .04-4.7 0-4.7 0zM174.2 45L192 10.4L209.8 45h-3.9l-4.9-9.5h-20l-4.8 9.5h-2zm7.7-11.2h18.2L191 16.2l-9.1 17.6zm33.7-22.9h3.5v32.7l18.4-1.1l-.3 2.5h-21.6V10.9zm28.4 0h3.5v32.7l18.4-1.1l-.3 2.5H244V10.9zm52 0v2.5l-20.1-1.2v14.7h15.8l-.4 2.6l-15.4-1.2v15.4l20.4-1.2l-.3 2.5h-23.5V10.9H296zm8.6 0h3.4v32.7l18.5-1.1l-.3 2.5h-21.6V10.9zm52 0v2.5l-20.1-1.2v14.7h15.7l-.4 2.6l-15.3-1.2v15.4l20.4-1.2l-.3 2.5H333V10.9h23.6zm8.5 0s9.24-.04 9.2 0c13.9 0 19.5 8.9 19.5 17.1c0 8.1-5.6 17-19.5 17h-9.2V10.9zm3.5 1.3v31.5s5.62-.02 5.6 0c11.9-.1 16-7.1 16-15.8c0-8.7-4-15.7-15.9-15.7c-.02.04-5.7 0-5.7 0zm51.9-1.3l14.7 28.8l14.9-28.8h2l-17.8 34.5l-17.8-34.5h4zM462.1 45h-3.5V10.9h3.5V45zm32.3-34.1v2.5l-20.1-1.2v14.7H490l-.3 2.6l-15.4-1.2v15.4l20.4-1.2l-.3 2.5h-23.6V10.9h23.6zm50.4 0l-14.1 34.5l-7.9-19.2l-7.9 19.2l-14.1-34.5h3.7l11.4 27.6l6-14.6l-5.4-13h3.8l11.4 27.6L543 10.9h1.8zM561.5 45c-4.5 0-9.6-1.5-12.6-4.1v-4.7c2.9 4.7 7.8 7.4 12.7 7.4c6.1 0 9.8-2.7 9.8-6.4c0-4.1-2.1-6.5-10.7-10.1c-8.8-3.8-11.3-6.1-11.3-9.5c0-3.7 4.2-6.7 13.3-6.7c5.1 0 9.2 1.8 11.7 4v4.6c-2.9-4.7-7.8-7.1-12.6-7.3c-6 0-9.1 1.7-9.1 4.4c.1 2.6 2.4 4.6 9.7 7.6c8.5 3.5 12.6 7 12.6 11.7c0 5.1-3.9 9.1-13.5 9.1z" stroke="none" fill="#dcddce"/></g></svg>