<?xml version="1.0" standalone="no"?><!DOCTYPE svg PUBLIC "-//W3C//DTD SVG 1.1//EN" "http://www.w3.org/Graphics/SVG/1.1/DTD/svg11.dtd"><svg xmlns="http://www.w3.org/2000/svg" version="1.1" width="213px" height="12.5px" viewBox="0 -2 213 12.5" style="top:-2px"><desc>Artist impression</desc><defs/><g id="Polygon16400"><path d="m159.3 5.5l-.5-1.2h-2.1l-.5 1.2h-.9l2-4.9h1l1.9 4.9h-.9zm-2.4-2h1.6l-.8-2.1l-.8 2.1zm4 2V2h.8v.7c.1-.5.5-.8 1-.8c0 .03.2 0 .2 0v.8s-.26-.02-.3 0c-.6 0-.9.3-.9 1v1.8h-.8zm4.2 0c-.6 0-.9-.3-.9-.9c.04.01 0-2 0-2h-.7v-.6h.7V.8h.8v1.2h.8v.6h-.8s.04 1.82 0 1.8c0 .3.1.4.4.4c-.02-.03.6 0 .6 0v.7s-.92-.04-.9 0zm1.6-4.1v-.8h.9v.8h-.9zm0 4.1V2h.8v3.5h-.8zm1.7-1.2h.8c.1.4.3.6.7.6h.1c.3 0 .5-.2.5-.4c0-.2-.1-.3-.4-.4l-.5-.1c-.6-.1-1-.5-1-1c0-.7.5-1.1 1.3-1.1c.9 0 1.4.5 1.4 1.2h-.8c0-.3-.2-.6-.6-.6c-.3 0-.5.2-.5.4c0 .2.1.3.4.4l.5.1c.6.2 1 .5 1 1.1c0 .6-.5 1-1.4 1c-.9 0-1.5-.4-1.5-1.2zm5.2 1.2c-.6 0-.9-.3-.9-.9v-2h-.7v-.6h.7V.8h.8v1.2h.8v.6h-.8s.01 1.82 0 1.8c0 .3.1.4.4.4c-.05-.03.5 0 .5 0v.7s-.85-.04-.8 0zm2.8-4.1v-.8h.9v.8h-.9zm.1 4.1V2h.8v3.5h-.8zm1.9 0V2h.8s-.03.46 0 .5c.2-.4.6-.6 1-.6c.5 0 .9.2 1.1.6c.3-.4.8-.6 1.2-.6c.9 0 1.2.5 1.2 1.3c.04-.01 0 2.3 0 2.3h-.8s.03-2.18 0-2.2c0-.5-.1-.7-.6-.7c-.5 0-.8.3-.8.9c-.04.01 0 2 0 2h-.8s-.05-2.18 0-2.2c0-.5-.2-.7-.7-.7c-.4 0-.8.3-.8.9c-.03.01 0 2 0 2h-.8zm6.4 1.4V2h.8s.04.43 0 .4c.2-.2.6-.5 1.1-.5c1 0 1.5.8 1.5 1.8c0 1-.6 1.8-1.5 1.8c-.5 0-.9-.2-1.1-.5c.04-.01 0 1.9 0 1.9h-.8zm1.8-2c.5 0 .8-.4.8-1.2c0-.7-.3-1.2-.8-1.2h-.1c-.4 0-.9.5-.9 1.2c0 .8.5 1.2.9 1.2h.1zm2.6.6V2h.8s-.03.69 0 .7c.1-.5.5-.8 1-.8c-.01.03.2 0 .2 0v.8s-.28-.02-.3 0c-.6 0-.9.3-.9 1c-.01-.04 0 1.8 0 1.8h-.8zm2.6-1.8c0-1.1.7-1.8 1.6-1.8c1 0 1.6.7 1.6 1.7v.3h-2.4c0 .6.5 1 .9 1c.4 0 .6-.2.7-.5h.8c-.2.7-.7 1.1-1.5 1.1c-.9 0-1.7-.6-1.7-1.8zm2.4-.4c0-.5-.4-.8-.7-.8h-.1c-.4 0-.7.3-.8.8h1.6zm1.5 1h.8c0 .4.3.6.7.6c.4 0 .6-.2.6-.4c0-.2-.1-.3-.4-.4l-.5-.1c-.7-.1-1.1-.5-1.1-1c0-.7.6-1.1 1.4-1.1c.9 0 1.4.5 1.4 1.2h-.8c0-.3-.2-.6-.6-.6c-.3 0-.6.2-.6.4c0 .2.2.3.5.4l.5.1c.6.2 1 .5 1 1.1c0 .6-.5 1-1.4 1c-1 0-1.5-.4-1.5-1.2zm3.6 0h.8c.1.4.3.6.7.6h.1c.3 0 .5-.2.5-.4c0-.2-.1-.3-.4-.4l-.5-.1c-.6-.1-1-.5-1-1c0-.7.5-1.1 1.3-1.1c.9 0 1.5.5 1.5 1.2h-.9c0-.3-.2-.6-.5-.6h-.1c-.3 0-.5.2-.5.4c0 .2.1.3.4.4l.5.1c.7.2 1 .5 1 1.1c0 .6-.5 1-1.4 1c-.9 0-1.5-.4-1.5-1.2zm3.9-2.9v-.8h.8v.8h-.8zm0 4.1V2h.8v3.5h-.8zm1.7-1.8c0-1.1.7-1.8 1.7-1.8c1 0 1.7.7 1.7 1.8c0 1.1-.7 1.8-1.7 1.8c-1 0-1.7-.7-1.7-1.8zm1.8 1.2c.5 0 .8-.5.8-1.2c0-.7-.3-1.2-.8-1.2h-.1c-.5 0-.9.5-.9 1.2c0 .7.4 1.2.9 1.2h.1zm2.6.6V2h.8s-.02.46 0 .5c.2-.4.6-.6 1.1-.6c.8 0 1.2.5 1.2 1.3v2.3h-.8V3.3c0-.5-.2-.8-.6-.8h-.1c-.4 0-.8.4-.8 1c-.02.01 0 2 0 2h-.8z" stroke="none" fill="#6d6e70"/></g></svg>