<?xml version="1.0" standalone="no"?><!DOCTYPE svg PUBLIC "-//W3C//DTD SVG 1.1//EN" "http://www.w3.org/Graphics/SVG/1.1/DTD/svg11.dtd"><svg xmlns="http://www.w3.org/2000/svg" version="1.1" width="212.3px" height="12.5px" viewBox="0 -2 212.3 12.5" style="top:-2px"><desc>Artist impression</desc><defs/><g id="Polygon18866"><path d="m158.7 5.5l-.4-1.2h-2.2l-.5 1.2h-.8l1.9-4.9h1l1.9 4.9h-.9zm-2.3-2h1.6l-.8-2.1l-.8 2.1zm4 2V2h.7s.04.69 0 .7c.2-.5.6-.8 1.1-.8c-.04.03.2 0 .2 0v.8s-.31-.02-.3 0c-.6 0-.9.3-.9 1c-.04-.04 0 1.8 0 1.8h-.8zm4.1 0c-.5 0-.8-.3-.8-.9v-2h-.7v-.6h.7V.8h.8v1.2h.8v.6h-.8v1.8c0 .3.1.4.3.4c.04-.03.6 0 .6 0v.7s-.86-.04-.9 0zm1.7-4.1v-.8h.8v.8h-.8zm0 4.1V2h.8v3.5h-.8zm1.7-1.2h.8c0 .4.3.6.7.6c.3 0 .6-.2.6-.4c0-.2-.1-.3-.4-.4l-.5-.1c-.7-.1-1.1-.5-1.1-1c0-.7.6-1.1 1.4-1.1c.9 0 1.4.5 1.4 1.2h-.8c0-.3-.2-.6-.6-.6h-.1c-.3 0-.5.2-.5.4c0 .2.2.3.5.4l.5.1c.6.2 1 .5 1 1.1c0 .6-.5 1-1.4 1c-1 0-1.5-.4-1.5-1.2zm5.1 1.2c-.5 0-.8-.3-.8-.9c-.04.01 0-2 0-2h-.8v-.6h.8V.8h.8v1.2h.8v.6h-.8s-.03 1.82 0 1.8c0 .3 0 .4.3.4c.01-.03.6 0 .6 0v.7s-.89-.04-.9 0zm2.9-4.1v-.8h.8v.8h-.8zm0 4.1V2h.8v3.5h-.8zm1.9 0V2h.8s.03.46 0 .5c.3-.4.6-.6 1.1-.6c.5 0 .9.2 1.1.6c.3-.4.7-.6 1.1-.6c.9 0 1.3.5 1.3 1.3v2.3h-.8s-.01-2.18 0-2.2c0-.5-.2-.7-.6-.7h-.1c-.4 0-.8.3-.8.9v2h-.8s.01-2.18 0-2.2c0-.5-.2-.7-.6-.7h-.1c-.4 0-.8.3-.8.9c.03.01 0 2 0 2h-.8zm6.5 1.4V2h.8v.4c.2-.2.6-.5 1.1-.5c.9 0 1.5.8 1.5 1.8c0 1-.6 1.8-1.6 1.8c-.5 0-.8-.2-1-.5v1.9h-.8zm1.7-2c.5 0 .9-.4.9-1.2c0-.7-.4-1.2-.9-1.2c-.5 0-.9.5-.9 1.2c0 .8.4 1.2.9 1.2zm2.6.6V2h.8s.03.69 0 .7c.2-.5.6-.8 1-.8c.04.03.3 0 .3 0v.8s-.32-.02-.3 0c-.6 0-1 .3-1 1c.04-.04 0 1.8 0 1.8h-.8zm2.6-1.8c0-1.1.7-1.8 1.7-1.8c1 0 1.5.7 1.5 1.7v.3H192c.1.6.5 1 .9 1h.1c.3 0 .6-.2.6-.5h.8c-.1.7-.7 1.1-1.5 1.1c-.9 0-1.7-.6-1.7-1.8zm2.5-.4c-.1-.5-.4-.8-.8-.8c-.4 0-.8.3-.8.8h1.6zm1.5 1h.8c0 .4.3.6.6.6h.1c.3 0 .6-.2.6-.4c0-.2-.2-.3-.5-.4l-.4-.1c-.7-.1-1.1-.5-1.1-1c0-.7.6-1.1 1.4-1.1c.9 0 1.4.5 1.4 1.2h-.8c-.1-.3-.2-.6-.6-.6h-.1c-.3 0-.5.2-.5.4c0 .2.2.3.5.4l.5.1c.6.2.9.5.9 1.1c0 .6-.5 1-1.4 1c-.9 0-1.4-.4-1.4-1.2zm3.6 0h.8c0 .4.3.6.7.6c.3 0 .6-.2.6-.4c0-.2-.1-.3-.4-.4L200 4c-.7-.1-1.1-.5-1.1-1c0-.7.6-1.1 1.4-1.1c.9 0 1.4.5 1.4 1.2h-.8c0-.3-.2-.6-.6-.6c-.4 0-.6.2-.6.4c0 .2.2.3.5.4l.5.1c.6.2 1 .5 1 1.1c0 .6-.5 1-1.4 1c-1 0-1.5-.4-1.5-1.2zm3.8-2.9v-.8h.9v.8h-.9zm0 4.1V2h.9v3.5h-.9zm1.8-1.8c0-1.1.7-1.8 1.7-1.8c1 0 1.7.7 1.7 1.8c0 1.1-.7 1.8-1.7 1.8c-1 0-1.7-.7-1.7-1.8zm1.7 1.2c.5 0 .9-.5.9-1.2c0-.7-.4-1.2-.9-1.2c-.6 0-.9.5-.9 1.2c0 .7.3 1.2.9 1.2zm2.6.6V2h.8s.03.46 0 .5c.2-.4.6-.6 1.1-.6c.8 0 1.3.5 1.3 1.3c-.05-.02 0 2.3 0 2.3h-.8s-.05-2.2 0-2.2c0-.5-.3-.8-.7-.8c-.5 0-.9.4-.9 1c.03.01 0 2 0 2h-.8z" stroke="none" fill="#6d6e70"/></g></svg>