<?xml version="1.0" standalone="no"?><!DOCTYPE svg PUBLIC "-//W3C//DTD SVG 1.1//EN" "http://www.w3.org/Graphics/SVG/1.1/DTD/svg11.dtd"><svg xmlns="http://www.w3.org/2000/svg" version="1.1" width="162.3px" height="86.4px" viewBox="0 -3 162.3 86.4" style="top:-3px"><desc>New North West Metro turn up and go services every 4 minutes during peak and 10 minutes off peak.</desc><defs/><g id="Polygon21721"><path d="m.6 52.5c0-1.2 1-1.6 1.9-1.6c-.05-.04 1.7-.2 1.7-.2v-.2c0-.9-.5-1.5-1.4-1.5c-.7 0-1.3.4-1.4 1.1h-.7c0-1 .9-1.7 2.1-1.7c1.4 0 2.1 1 2.1 2.1v2.3c0 .3 0 .8.1 1.2h-.7c0-.2-.1-.6-.1-.8c-.2.5-.9.9-1.9.9c-1 0-1.7-.7-1.7-1.6zm1.9 1c.7 0 1.7-.6 1.7-1.5v-.7s-1.6.12-1.6.1c-.8.1-1.3.5-1.3 1.1c0 .6.4 1 1.1 1h.1zm4.1.5v-5.5h.7v1c.3-.7 1-1.1 1.9-1.1c1.1 0 2 .7 2 2c-.04.03 0 3.6 0 3.6h-.8s.05-3.35 0-3.3c0-1.1-.4-1.7-1.3-1.7c-1.2 0-1.8 1.1-1.8 2.3v2.7h-.7zm6-2.7c0-1.8 1-2.9 2.4-2.9c.7 0 1.5.4 1.9 1c-.05.01 0-3.1 0-3.1h.7v7.7h-.7s-.05-.85 0-.8c-.4.6-1.2.9-1.9.9c-1.4 0-2.4-1.1-2.4-2.8zm2.5 2.2c1.2 0 1.8-1 1.8-2.2c0-1.2-.6-2.3-1.8-2.3h-.1c-1.1 0-1.7 1.1-1.7 2.3c0 1.2.6 2.2 1.7 2.2h.1zm7.9-7.2h.5v7.7h-.7v-6.6L21 49.2v-.9l2-2zm2.3 3.9c0-2.6 1-4 2.9-4c1.8 0 2.9 1.4 2.9 4c0 2.6-1.1 3.9-2.9 3.9c-1.9 0-2.9-1.3-2.9-3.9zm2.9 3.2c1 0 2.1-.7 2.1-3.2c0-2.6-1.1-3.3-2.1-3.3h-.1c-.9 0-2.1.7-2.1 3.3c0 2.5 1.2 3.2 2.1 3.2h.1zm6.6.6v-5.5h.7s.03.91 0 .9c.4-.6 1-1 1.8-1c.9 0 1.5.4 1.8 1.2c.4-.8 1-1.2 1.9-1.2c1.1 0 1.9.7 1.9 2v3.6h-.7s-.01-3.35 0-3.3c0-1.1-.4-1.7-1.3-1.7c-1.2 0-1.7 1.1-1.7 2.3c.02-.02 0 2.7 0 2.7h-.7v-3.3c0-1.1-.4-1.7-1.3-1.7c-1.1 0-1.7 1.1-1.7 2.3c.03-.02 0 2.7 0 2.7h-.7zm9.7-6.5v-.9h.9v.9h-.9zm.1 6.5v-5.5h.7v5.5h-.7zm2.4 0v-5.5h.8s-.04.95 0 1c.3-.7 1-1.1 1.9-1.1c1.1 0 1.9.7 1.9 2c.01.03 0 3.6 0 3.6h-.7s-.01-3.35 0-3.3c0-1.1-.4-1.7-1.3-1.7h-.1c-1.2 0-1.7 1.1-1.7 2.3c-.04-.02 0 2.7 0 2.7h-.8zm6.3-1.8c-.05-.04 0-3.7 0-3.7h.7s-.03 3.44 0 3.4c0 1.1.4 1.6 1.3 1.6h.1c.8 0 1.6-.7 1.6-2v-3h.7v5.5h-.7v-1c-.3.7-.9 1.1-1.8 1.1c-1.3 0-1.9-.8-1.9-1.9zm7.8 1.8c-.7 0-1-.2-1-1c-.02.04 0-3.9 0-3.9h-1.3v-.6h1.3v-1.8h.7v1.8h1.4v.6h-1.4v3.9c0 .3.1.4.4.4c.03.03 1.1 0 1.1 0v.6s-1.18.03-1.2 0zm1.9-2.7c0-2 1.2-2.9 2.5-2.9c1.3 0 2.2 1.1 2.2 2.5v.4s-3.97.03-4 0c0 1.6.9 2.2 1.8 2.2c.8 0 1.3-.3 1.5-1h.7c-.3 1.1-1.1 1.6-2.2 1.6c-1.4 0-2.5-.9-2.5-2.8zm4-.6c-.1-.9-.6-1.7-1.5-1.7h-.1c-.7 0-1.5.4-1.7 1.7h3.3zm1.8 1.7h.7c.1.7.6 1.1 1.4 1.1h.1c.8 0 1.3-.3 1.3-1c0-.4-.3-.6-1-.8l-.8-.2c-.8-.2-1.5-.5-1.5-1.5c0-1 .9-1.6 2-1.6c1.3 0 2 .9 2 1.8h-.7c-.1-.6-.5-1.2-1.3-1.2h-.1c-.8 0-1.2.5-1.2 1c0 .5.3.7 1 .9l.9.1c.7.2 1.4.6 1.4 1.5c0 1-.8 1.6-2 1.6c-1.5 0-2.2-.7-2.2-1.7zm7.5-1.1c0-1.7 1.1-2.9 2.5-2.9c1.5 0 2.6 1.2 2.6 2.9c0 1.7-1.1 2.8-2.6 2.8c-1.4 0-2.5-1.1-2.5-2.8zm2.6 2.2c1 0 1.7-.8 1.7-2.2c0-1.4-.7-2.3-1.7-2.3h-.1c-1 0-1.8.9-1.8 2.3c0 1.4.8 2.2 1.8 2.2h.1zm4.4.5v-4.9h-1.2v-.6h1.2s.02-1.18 0-1.2c0-.7.3-1 1.1-1c-.04.03 1.3 0 1.3 0v.6s-1.23.03-1.2 0c-.4 0-.5.1-.5.5c.03-.03 0 1.1 0 1.1h3v-1.2c0-.7.3-1 1-1c.05.03 1.4 0 1.4 0v.6s-1.24.03-1.2 0c-.4 0-.5.1-.5.5c.02-.03 0 1.1 0 1.1h1.4v.6h-1.4v4.9h-.7v-4.9h-3v4.9h-.7zm6.5-3v-.6h2.7v.6h-2.7zm4.2 5.2v-7.7h.7s.03.91 0 .9c.4-.6 1.2-1 1.9-1c1.4 0 2.4 1.1 2.4 2.9c0 1.7-1 2.8-2.4 2.8c-.7 0-1.5-.3-1.9-.9c.03-.05 0 3 0 3h-.7zm2.5-2.7c1.2 0 1.8-1 1.8-2.2c0-1.2-.6-2.3-1.8-2.3c-1.2 0-1.8 1.1-1.8 2.3c0 1.2.6 2.2 1.8 2.2zm3.7-2.2c0-2 1.2-2.9 2.4-2.9c1.4 0 2.3 1.1 2.3 2.5c-.05 0 0 .4 0 .4c0 0-4.01.03-4 0c0 1.6.8 2.2 1.7 2.2h.1c.7 0 1.2-.3 1.4-1h.7c-.2 1.1-1 1.6-2.2 1.6c-1.3 0-2.4-.9-2.4-2.8zm3.9-.6c0-.9-.6-1.7-1.4-1.7h-.1c-.7 0-1.5.4-1.7 1.7h3.2zm1.9 1.8c0-1.2 1-1.6 1.9-1.6c-.01-.04 1.7-.2 1.7-.2c0 0 .03-.19 0-.2c0-.9-.5-1.5-1.3-1.5h-.1c-.7 0-1.3.4-1.4 1.1h-.7c.1-1 .9-1.7 2.1-1.7c1.5 0 2.1 1 2.1 2.1v2.3c0 .3 0 .8.1 1.2h-.7v-.8c-.2.5-1 .9-2 .9c-.9 0-1.7-.7-1.7-1.6zm1.9 1c.8 0 1.7-.6 1.7-1.5c.03.05 0-.7 0-.7c0 0-1.56.12-1.6.1c-.7.1-1.3.5-1.3 1.1c0 .6.5 1 1.1 1h.1zm4.1.5v-7.7h.7v5.1l3-2.9h1l-2.3 2.2l2.4 3.3h-.9l-2-2.8l-1.2 1.1v1.7h-.7zm5.9 0v-1.1h1.1v1.1h-1.1z" stroke="none" fill="#192d39"/></g><g id="Polygon21720"><path d="m4.2 38.9V37H.3v-.8l3.7-5h.9v5.1h1.2v.7H4.9v1.9h-.7zM1 36.3h3.2v-4.2L1 36.3zm8.6 2.6v-5.5h.7s-.02.86 0 .9c.3-.6 1-1 1.8-1c.8 0 1.5.4 1.7 1.1c.4-.7 1.1-1.1 2-1.1c1.1 0 1.9.7 1.9 2c-.05-.02 0 3.6 0 3.6h-.8s.04-3.4 0-3.4c0-1.1-.4-1.6-1.2-1.6h-.1c-1.1 0-1.6 1-1.6 2.2c-.03.03 0 2.8 0 2.8h-.7s-.04-3.4 0-3.4c0-1.1-.5-1.6-1.3-1.6h-.1c-1.1 0-1.6 1-1.6 2.2c-.02.03 0 2.8 0 2.8h-.7zm9.7-6.5v-.9h.8v.9h-.8zm.1 6.5v-5.5h.7v5.5h-.7zm2.4 0v-5.5h.7s.01.9 0 .9c.3-.6 1-1 1.9-1c1.1 0 2 .7 2 2c-.04-.02 0 3.6 0 3.6h-.8s.04-3.4 0-3.4c0-1.1-.4-1.6-1.3-1.6c-1.2 0-1.8 1-1.8 2.2v2.8h-.7zM28 37v-3.6h.7s.02 3.39 0 3.4c0 1 .5 1.6 1.3 1.6h.1c.9 0 1.6-.8 1.6-2.1c.04.05 0-2.9 0-2.9h.8v5.5h-.8s.04-1.05 0-1.1c-.2.8-.9 1.2-1.8 1.2c-1.2 0-1.9-.8-1.9-2zm7.9 1.9c-.7 0-1.1-.3-1.1-1c.03-.01 0-3.9 0-3.9h-1.2v-.6h1.2v-1.8h.7v1.8h1.4v.6h-1.4s.05 3.84 0 3.8c0 .4.2.5.5.5c-.01-.02 1.1 0 1.1 0v.6s-1.22-.02-1.2 0zm1.9-2.8c0-1.9 1.2-2.8 2.4-2.8c1.4 0 2.2 1 2.2 2.4c.04.05 0 .5 0 .5c0 0-3.92-.02-3.9 0c0 1.5.8 2.2 1.7 2.2h.1c.7 0 1.2-.4 1.4-1.1h.7c-.2 1.1-1.1 1.7-2.2 1.7c-1.4 0-2.4-1-2.4-2.9zm3.9-.5c0-1-.6-1.7-1.4-1.7h-.2c-.6 0-1.4.4-1.6 1.7h3.2zm1.8 1.6h.7c.1.8.7 1.2 1.5 1.2h.1c.7 0 1.2-.4 1.2-1c0-.4-.2-.7-1-.9l-.8-.1c-.8-.2-1.5-.6-1.5-1.5c0-1.1 1-1.6 2-1.6c1.4 0 2 .8 2.1 1.7h-.7c-.1-.6-.6-1.1-1.3-1.1h-.1c-.8 0-1.2.4-1.2.9c0 .5.3.7 1 .9l.8.2c.8.2 1.4.5 1.4 1.4c0 1.1-.8 1.7-2 1.7c-1.4 0-2.1-.8-2.2-1.8zm7.6-1.1c0-1.7 1-2.8 2.4-2.8c.7 0 1.5.4 1.9 1c-.04-.04 0-3.1 0-3.1h.7v7.7h-.7s-.04-.9 0-.9c-.4.6-1.2 1-1.9 1c-1.4 0-2.4-1.1-2.4-2.9zm2.5 2.3c1.2 0 1.8-1.1 1.8-2.3c0-1.2-.6-2.2-1.8-2.2h-.1c-1.1 0-1.7 1-1.7 2.2c0 1.2.6 2.3 1.7 2.3h.1zm4.2-1.4c-.03.01 0-3.6 0-3.6h.7s-.01 3.39 0 3.4c0 1 .4 1.6 1.3 1.6h.1c.8 0 1.6-.8 1.6-2.1v-2.9h.7v5.5h-.7s.01-1.05 0-1.1c-.3.8-.9 1.2-1.8 1.2c-1.2 0-1.9-.8-1.9-2zm6.2 1.9v-5.5h.6s.02 1.23 0 1.2c.3-.8 1-1.3 1.7-1.3c.03.03.5 0 .5 0v.7s-.42-.02-.4 0c-1.1 0-1.7.8-1.7 2.2c-.02.01 0 2.7 0 2.7h-.7zm3.9-6.5v-.9h.8v.9h-.8zm0 6.5v-5.5h.8v5.5h-.8zm2.5 0v-5.5h.7s-.01.9 0 .9c.3-.6 1-1 1.9-1c1.1 0 1.9.7 1.9 2c.04-.02 0 3.6 0 3.6h-.7s.03-3.4 0-3.4c0-1.1-.4-1.6-1.3-1.6h-.1c-1.1 0-1.7 1-1.7 2.2v2.8h-.7zm5.8.7h.7c.2.7.8 1.1 1.7 1.1h.2c.9 0 1.7-.5 1.7-1.9v-.9c-.3.6-.9 1-1.8 1c-1.4 0-2.4-1-2.4-2.8c0-1.7 1-2.8 2.4-2.8c.9 0 1.5.4 1.8 1c.02-.04 0-.9 0-.9h.7s.04 5.44 0 5.4c0 1.5-.9 2.5-2.5 2.5c-1.6 0-2.4-.7-2.5-1.7zm2.6-1.3c1 0 1.7-.8 1.7-2.2c0-1.3-.7-2.2-1.7-2.2h-.1c-1 0-1.7.9-1.7 2.2c0 1.4.7 2.2 1.7 2.2h.1zm6.4 2.8v-7.7h.7s.01.86 0 .9c.3-.6 1.1-1 1.8-1c1.5 0 2.5 1.1 2.5 2.8c0 1.8-1 2.9-2.5 2.9c-.7 0-1.5-.4-1.8-1v3.1h-.7zm2.5-2.7c1.2 0 1.8-1.1 1.8-2.3c0-1.2-.6-2.2-1.8-2.2c-1.2 0-1.8 1-1.8 2.2c0 1.2.6 2.3 1.8 2.3zm3.7-2.3c0-1.9 1.1-2.8 2.4-2.8c1.4 0 2.2 1 2.2 2.4c.04.05 0 .5 0 .5c0 0-3.92-.02-3.9 0c0 1.5.8 2.2 1.7 2.2h.1c.7 0 1.2-.4 1.4-1.1h.7c-.2 1.1-1.1 1.7-2.2 1.7c-1.4 0-2.4-1-2.4-2.9zm3.9-.5c0-1-.6-1.7-1.4-1.7h-.2c-.6 0-1.4.4-1.6 1.7h3.2zm1.9 1.8c0-1.2 1-1.6 1.9-1.7l1.7-.1s.02-.24 0-.2c0-1-.5-1.5-1.4-1.5c-.7 0-1.3.3-1.4 1h-.7c.1-1 .9-1.6 2.1-1.6c1.4 0 2.1.9 2.1 2.1v2.3c0 .3 0 .8.1 1.2h-.7v-.9c-.2.5-1 1-2 1c-.9 0-1.7-.7-1.7-1.6zm1.9 1c.8 0 1.7-.7 1.7-1.5c.02 0 0-.7 0-.7c0 0-1.58.07-1.6.1c-.8 0-1.3.4-1.3 1c0 .6.5 1.1 1.1 1.1h.1zm4.1.5v-7.7h.7v5l3-2.8h.9l-2.2 2.2l2.3 3.3h-.8l-2.1-2.8l-1.1 1v1.8h-.7z" stroke="none" fill="#192d39"/></g><g id="Polygon21719"><path d="m2.5 23.7c-.7 0-1.1-.2-1.1-1c.03.04 0-3.9 0-3.9H.2v-.6h1.2v-1.8h.7v1.8h1.4v.6H2.1s.04 3.89 0 3.9c0 .3.2.4.5.4c-.02.03 1.1 0 1.1 0v.6s-1.23.03-1.2 0zm2-1.8c.05-.04 0-3.7 0-3.7h.8s-.04 3.44 0 3.4c0 1.1.4 1.6 1.3 1.6h.1c.8 0 1.6-.7 1.6-2v-3h.7v5.5h-.7v-1c-.3.7-.9 1.1-1.8 1.1c-1.3 0-2-.8-2-1.9zm6.1 1.8v-5.5h.6s.03 1.28 0 1.3c.3-.9 1-1.3 1.7-1.3c.04-.02.5 0 .5 0v.6s-.41.03-.4 0c-1.1 0-1.7.9-1.7 2.3v2.6h-.7zm3.8 0v-5.5h.7v1c.3-.7 1-1.1 1.9-1.1c1.1 0 1.9.7 1.9 2c.05.03 0 3.6 0 3.6h-.7s.04-3.35 0-3.3c0-1.1-.4-1.7-1.3-1.7h-.1c-1.1 0-1.7 1.1-1.7 2.3v2.7h-.7zm5.8-3v-.6h2.8v.6h-2.8zm4.1 1.2c-.04-.04 0-3.7 0-3.7h.7s-.03 3.44 0 3.4c0 1.1.4 1.6 1.3 1.6h.1c.8 0 1.6-.7 1.6-2v-3h.7v5.5h-.7v-1c-.3.7-.9 1.1-1.8 1.1c-1.3 0-1.9-.8-1.9-1.9zm6 4v-7.7h.7v.9c.3-.6 1.1-1 1.8-1c1.5 0 2.5 1.1 2.5 2.9c0 1.7-1 2.8-2.5 2.8c-.7 0-1.5-.3-1.8-.9v3h-.7zm2.5-2.7c1.2 0 1.8-1 1.8-2.2c0-1.2-.6-2.3-1.8-2.3c-1.2 0-1.8 1.1-1.8 2.3c0 1.2.6 2.2 1.8 2.2zm3.6-2.5v-.6h2.7v.6h-2.7zm3.7 1.5c0-1.2 1-1.6 1.9-1.6c-.02-.04 1.7-.2 1.7-.2c0 0 .02-.19 0-.2c0-.9-.5-1.5-1.4-1.5c-.7 0-1.3.4-1.4 1.1h-.7c.1-1 .9-1.7 2.1-1.7c1.4 0 2.1 1 2.1 2.1v2.3c0 .3 0 .8.1 1.2h-.7v-.8c-.2.5-1 .9-2 .9c-.9 0-1.7-.7-1.7-1.6zm1.9 1c.8 0 1.7-.6 1.7-1.5c.02.05 0-.7 0-.7c0 0-1.57.12-1.6.1c-.8.1-1.3.5-1.3 1.1c0 .6.5 1 1.1 1h.1zm4 .5v-5.5h.7s-.02.95 0 1c.3-.7 1-1.1 1.9-1.1c1.1 0 1.9.7 1.9 2c.03.03 0 3.6 0 3.6h-.7s.01-3.35 0-3.3c0-1.1-.4-1.7-1.3-1.7h-.1c-1.2 0-1.7 1.1-1.7 2.3c-.02-.02 0 2.7 0 2.7h-.7zm5.8-2.7c0-1.8 1-2.9 2.4-2.9c.7 0 1.5.4 1.9 1c-.05.01 0-3.1 0-3.1h.7v7.7h-.7s-.05-.85 0-.8c-.4.6-1.2.9-1.9.9c-1.4 0-2.4-1.1-2.4-2.8zm2.5 2.2c1.2 0 1.8-1 1.8-2.2c0-1.2-.6-2.3-1.8-2.3h-.1c-1.1 0-1.7 1.1-1.7 2.3c0 1.2.6 2.2 1.7 2.2h.1zm3.8-2.5v-.6h2.7v.6h-2.7zm3.7 3.8h.7c.2.7.8 1 1.7 1h.2c.9 0 1.7-.5 1.7-1.9v-.9c-.3.6-.9 1-1.8 1c-1.4 0-2.4-1-2.4-2.7c0-1.8 1-2.9 2.4-2.9c.9 0 1.5.4 1.8 1c.03.01 0-.9 0-.9h.7s.04 5.49 0 5.5c0 1.4-.9 2.4-2.5 2.4c-1.6 0-2.4-.6-2.5-1.6zm2.6-1.4c1 0 1.7-.7 1.7-2.1c0-1.4-.7-2.3-1.7-2.3h-.1c-1 0-1.7.9-1.7 2.3c0 1.4.7 2.1 1.7 2.1h.1zm3.7-2.1c0-1.7 1.1-2.9 2.5-2.9c1.4 0 2.6 1.2 2.6 2.9c0 1.7-1.2 2.8-2.6 2.8c-1.4 0-2.5-1.1-2.5-2.8zm2.6 2.2c1 0 1.7-.8 1.7-2.2c0-1.4-.7-2.3-1.7-2.3h-.1c-1 0-1.8.9-1.8 2.3c0 1.4.8 2.2 1.8 2.2h.1zm5.3-1.1h.7c.1.7.7 1.1 1.5 1.1h.1c.7 0 1.2-.3 1.2-1c0-.4-.2-.6-1-.8l-.8-.2c-.8-.2-1.5-.5-1.5-1.5c0-1 1-1.6 2-1.6c1.4 0 2 .9 2.1 1.8h-.7c-.1-.6-.6-1.2-1.3-1.2h-.1c-.8 0-1.2.5-1.2 1c0 .5.3.7 1 .9l.8.1c.8.2 1.4.6 1.4 1.5c0 1-.8 1.6-2 1.6c-1.4 0-2.1-.7-2.2-1.7zm5.2-1.1c0-2 1.2-2.9 2.5-2.9c1.3 0 2.2 1.1 2.2 2.5v.4s-3.97.03-4 0c.1 1.6.9 2.2 1.8 2.2c.8 0 1.3-.3 1.5-1h.7c-.3 1.1-1.1 1.6-2.2 1.6c-1.4 0-2.5-.9-2.5-2.8zm4-.6c-.1-.9-.6-1.7-1.5-1.7h-.1c-.7 0-1.5.4-1.6 1.7h3.2zm2 3.3v-5.5h.7s-.05 1.28 0 1.3c.2-.9.9-1.3 1.7-1.3c-.04-.02.5 0 .5 0v.6s-.49.03-.5 0c-1 0-1.7.9-1.7 2.3v2.6h-.7zm7.8-5.5h.8l-2.1 5.5h-.9l-2.1-5.5h.7l1.8 4.9l1.8-4.9zm1.7-1v-.9h.8v.9h-.8zm0 6.5v-5.5h.8v5.5h-.8zm2-2.7c0-1.6.9-2.9 2.6-2.9c1.1 0 2 .7 2.1 1.9h-.7c-.1-.7-.7-1.3-1.4-1.3h-.1c-1.2 0-1.8 1.1-1.8 2.3c0 1.2.6 2.2 1.8 2.2h.1c.7 0 1.2-.5 1.4-1.2h.7c-.2 1.1-1 1.8-2.1 1.8c-1.7 0-2.6-1.2-2.6-2.8zm5.6 0c0-2 1.2-2.9 2.5-2.9c1.3 0 2.2 1.1 2.2 2.5v.4s-3.97.03-4 0c.1 1.6.9 2.2 1.8 2.2c.8 0 1.3-.3 1.5-1h.7c-.3 1.1-1.1 1.6-2.2 1.6c-1.4 0-2.5-.9-2.5-2.8zm4-.6c-.1-.9-.6-1.7-1.5-1.7h-.1c-.7 0-1.5.4-1.6 1.7h3.2zm1.6 1.7h.7c.1.7.7 1.1 1.4 1.1h.2c.7 0 1.2-.3 1.2-1c0-.4-.2-.6-1-.8l-.8-.2c-.8-.2-1.5-.5-1.5-1.5c0-1 1-1.6 2-1.6c1.4 0 2 .9 2.1 1.8h-.7c-.1-.6-.6-1.2-1.3-1.2h-.2c-.7 0-1.2.5-1.2 1c0 .5.3.7 1 .9l.9.1c.8.2 1.4.6 1.4 1.5c0 1-.8 1.6-2 1.6c-1.4 0-2.1-.7-2.2-1.7zm7.2-1.1c0-2 1.2-2.9 2.5-2.9c1.3 0 2.2 1.1 2.2 2.5v.4s-3.96.03-4 0c.1 1.6.9 2.2 1.8 2.2c.8 0 1.3-.3 1.5-1h.7c-.3 1.1-1.1 1.6-2.2 1.6c-1.4 0-2.5-.9-2.5-2.8zm4-.6c0-.9-.6-1.7-1.5-1.7h-.1c-.7 0-1.5.4-1.6 1.7h3.2zm5.6-2.2h.7l-2.1 5.5h-.9l-2.1-5.5h.8l1.8 4.9l1.8-4.9zm1.2 2.8c0-2 1.2-2.9 2.4-2.9c1.4 0 2.3 1.1 2.3 2.5c-.04 0 0 .4 0 .4c0 0-4 .03-4 0c0 1.6.8 2.2 1.7 2.2h.1c.7 0 1.2-.3 1.4-1h.7c-.2 1.1-1 1.6-2.2 1.6c-1.3 0-2.4-.9-2.4-2.8zm3.9-.6c0-.9-.6-1.7-1.4-1.7h-.1c-.7 0-1.5.4-1.7 1.7h3.2zm2.1 3.3v-5.5h.6s.02 1.28 0 1.3c.3-.9 1-1.3 1.7-1.3c.02-.02.5 0 .5 0v.6s-.42.03-.4 0c-1.1 0-1.7.9-1.7 2.3c-.03-.04 0 2.6 0 2.6h-.7zm8.8-5.5l-2.3 5.3v1.1c0 .7-.3.9-1 .9c-.04.04-1.7 0-1.7 0v-.6s1.55.04 1.5 0c.4 0 .5-.1.5-.4c-.01 0 0-.9 0-.9l-2.3-5.4h.7l1.9 4.5l1.9-4.5h.8z" stroke="none" fill="#192d39"/></g><g id="Polygon21718"><path d="m6.3.9h.8v7.7h-1L1.8 1.9v6.7h-.7V.9h1l4.2 6.5V.9zm2.4 4.9C8.7 3.9 9.9 3 11.1 3c1.4 0 2.3 1 2.3 2.4c-.04.05 0 .5 0 .5c0 0-4-.02-4 0c0 1.5.8 2.2 1.7 2.2h.1c.7 0 1.2-.4 1.4-1.1h.7c-.2 1.1-1 1.7-2.2 1.7c-1.3 0-2.4-1-2.4-2.9zm3.9-.5c0-1-.5-1.7-1.4-1.7h-.1c-.7 0-1.5.4-1.7 1.7h3.2zm8.7-2.2h.7l-1.7 5.5h-1l-1.2-4.8l-1.3 4.8h-.9l-1.8-5.5h.7l1.6 4.8l1.2-4.8h.9L19.8 8l1.5-4.9zM30.8.9h.7v7.7h-.9l-4.3-6.7v6.7h-.8V.9h1l4.3 6.5V.9zm2.3 4.9c0-1.7 1.1-2.8 2.6-2.8c1.4 0 2.5 1.1 2.5 2.8c0 1.7-1.1 2.9-2.5 2.9c-1.5 0-2.6-1.2-2.6-2.9zm2.6 2.3c1 0 1.8-.9 1.8-2.3c0-1.4-.8-2.2-1.8-2.2h-.1c-1 0-1.7.8-1.7 2.2c0 1.4.7 2.3 1.7 2.3h.1zm3.9.5V3.1h.7s-.03 1.23 0 1.2c.2-.8.9-1.3 1.7-1.3c-.03.03.5 0 .5 0v.7s-.47-.02-.5 0c-1 0-1.7.8-1.7 2.2c.02.01 0 2.7 0 2.7h-.7zm5.9 0c-.7 0-1-.3-1-1V3.7h-1.3v-.6h1.3V1.3h.7v1.8h1.4v.6h-1.4v3.8c0 .4.1.5.4.5c.04-.02 1.1 0 1.1 0v.6s-1.17-.02-1.2 0zm2.4 0V.9h.7v3.1c.4-.6 1.1-1 2-1c1.2 0 1.8.8 1.8 1.9c.05.05 0 3.7 0 3.7h-.7s.03-3.43 0-3.4c0-1.1-.4-1.6-1.3-1.6h-.1c-.8 0-1.7.7-1.7 2v3h-.7zM64.5.9h.8l-1.9 7.7h-1.2l-1.7-6.9l-1.7 6.9h-1.2L55.7.9h.8L58.3 8L60 .9h1.1l1.7 7l1.7-7zm1.4 4.9c0-1.9 1.2-2.8 2.4-2.8c1.4 0 2.3 1 2.3 2.4c-.03.05 0 .5 0 .5c0 0-3.99-.02-4 0c0 1.5.8 2.2 1.7 2.2h.1c.8 0 1.2-.4 1.4-1.1h.8c-.3 1.1-1.1 1.7-2.3 1.7c-1.3 0-2.4-1-2.4-2.9zm4-.5c-.1-1-.6-1.7-1.5-1.7h-.1c-.7 0-1.5.4-1.7 1.7h3.3zm1.8 1.6h.7c0 .8.6 1.2 1.4 1.2h.1c.8 0 1.2-.4 1.2-1c0-.4-.2-.7-.9-.9l-.8-.1c-.8-.2-1.5-.6-1.5-1.5c0-1.1.9-1.6 1.9-1.6c1.4 0 2.1.8 2.1 1.7h-.7c-.1-.6-.5-1.1-1.3-1.1h-.1c-.8 0-1.2.4-1.2.9c0 .5.3.7 1 .9l.9.2c.7.2 1.4.5 1.4 1.4c0 1.1-.8 1.7-2.1 1.7c-1.4 0-2.1-.8-2.1-1.8zM79 8.6c-.7 0-1-.3-1-1V3.7h-1.3v-.6h1.3V1.3h.7v1.8h1.4v.6h-1.4v3.8c0 .4.1.5.4.5c.04-.02 1.1 0 1.1 0v.6s-1.17-.02-1.2 0zM90.4.9h1.3v7.7h-.7V1.5l-2.7 7.1h-1.1l-2.7-7.1v7.1h-.8V.9h1.4L87.8 8L90.4.9zm2.9 4.9c0-1.9 1.2-2.8 2.5-2.8C97.1 3 98 4 98 5.4c.02.05 0 .5 0 .5c0 0-3.94-.02-3.9 0c0 1.5.8 2.2 1.7 2.2h.1c.7 0 1.2-.4 1.4-1.1h.7c-.2 1.1-1.1 1.7-2.2 1.7c-1.4 0-2.5-1-2.5-2.9zm4-.5c0-1-.6-1.7-1.5-1.7h-.1c-.7 0-1.5.4-1.6 1.7h3.2zm3.8 3.3c-.8 0-1.1-.3-1.1-1V3.7h-1.3v-.6h1.3V1.3h.7v1.8h1.4v.6h-1.4s.02 3.84 0 3.8c0 .4.1.5.5.5c-.04-.02 1.1 0 1.1 0v.6s-1.25-.02-1.2 0zm2.3 0V3.1h.7s-.04 1.23 0 1.2c.2-.8.9-1.3 1.7-1.3c-.03.03.5 0 .5 0v.7s-.48-.02-.5 0c-1 0-1.7.8-1.7 2.2c.02.01 0 2.7 0 2.7h-.7zm3.5-2.8c0-1.7 1.1-2.8 2.5-2.8c1.5 0 2.6 1.1 2.6 2.8c0 1.7-1.1 2.9-2.6 2.9c-1.4 0-2.5-1.2-2.5-2.9zm2.6 2.3c1 0 1.7-.9 1.7-2.3c0-1.4-.7-2.2-1.7-2.2h-.1c-1 0-1.8.8-1.8 2.2c0 1.4.8 2.3 1.8 2.3h.1z" stroke="none" fill="#192d39"/></g></svg>