<?xml version="1.0" standalone="no"?><!DOCTYPE svg PUBLIC "-//W3C//DTD SVG 1.1//EN" "http://www.w3.org/Graphics/SVG/1.1/DTD/svg11.dtd"><svg xmlns="http://www.w3.org/2000/svg" version="1.1" width="340.2px" height="256.9px" viewBox="0 -3 340.2 256.9" style="top:-3px"><desc>Generous floor plans are enhanced by superior thermal and sound protection courtesy of engineered performance glazing...</desc><defs/><g class="svg-tables"><g class="svg-table-background"/></g><g id="Polygon16815"><path d="m12.9 227.9c0-1.2 1.1-1.6 1.9-1.6c.02-.05 1.8-.2 1.8-.2c0 0-.04-.2 0-.2c0-.9-.6-1.5-1.4-1.5h-.1c-.7 0-1.3.4-1.3 1.1h-.8c.1-1 1-1.7 2.2-1.7c1.4 0 2.1 1 2.1 2.1v3.5h-.6c-.1-.2-.1-.6-.1-.9c-.2.5-1 1-1.9 1c-1 0-1.8-.7-1.8-1.6zm2 1c.7 0 1.7-.6 1.7-1.5c-.04.04 0-.7 0-.7l-1.6.1c-.8.1-1.4.5-1.4 1.1c0 .6.5 1 1.1 1h.2zm4.2.5v-5.5h.7s-.01.94 0 .9c.3-.6 1-1 1.9-1c1.1 0 1.9.7 1.9 2c.04.02 0 3.6 0 3.6h-.7s.02-3.36 0-3.4c0-1.1-.4-1.6-1.3-1.6h-.1c-1.2 0-1.7 1.1-1.7 2.3v2.7h-.7zm8.3-1.5c0-1.2 1.1-1.6 1.9-1.6c.04-.05 1.8-.2 1.8-.2c0 0-.02-.2 0-.2c0-.9-.6-1.5-1.4-1.5h-.1c-.7 0-1.3.4-1.3 1.1h-.7c0-1 .9-1.7 2.1-1.7c1.4 0 2.1 1 2.1 2.1v3.5h-.6c-.1-.2-.1-.6-.1-.9c-.2.5-.9 1-1.9 1c-1 0-1.8-.7-1.8-1.6zm2 1c.7 0 1.7-.6 1.7-1.5c-.02.04 0-.7 0-.7l-1.6.1c-.8.1-1.3.5-1.3 1.1c0 .6.4 1 1.1 1h.1zm4.7.5v-4.9h-1.2v-.6h1.2s.05-1.19 0-1.2c0-.7.4-1 1.1-1c-.01.02 1.4 0 1.4 0v.6s-1.3.02-1.3 0c-.3 0-.4.1-.4.5c-.04-.04 0 1.1 0 1.1h2.9s.03-1.19 0-1.2c0-.7.4-1 1.1-1c-.02.02 1.4 0 1.4 0v.6s-1.31.02-1.3 0c-.3 0-.5.1-.5.5c.05-.04 0 1.1 0 1.1h1.5v.6h-1.5v4.9h-.7v-4.9h-2.9v4.9h-.8zm6.7-2.7c0-1.7 1.1-2.9 2.5-2.9c1.4 0 2.5 1.2 2.5 2.9c0 1.7-1.1 2.8-2.5 2.8c-1.4 0-2.5-1.1-2.5-2.8zm2.6 2.2c.9 0 1.7-.8 1.7-2.2c0-1.4-.8-2.3-1.7-2.3h-.2c-.9 0-1.7.9-1.7 2.3c0 1.4.8 2.2 1.7 2.2h.2zm4 .5v-5.5h.6s.03 1.27 0 1.3c.3-.9 1-1.3 1.7-1.3c.03-.03.5 0 .5 0v.6s-.41.02-.4 0c-1.1 0-1.7.9-1.7 2.2c-.02.05 0 2.7 0 2.7h-.7zm3.6-2.7c0-1.8 1-2.9 2.5-2.9c.7 0 1.5.4 1.8 1v-3.1h.7v7.7h-.7v-.9c-.3.6-1.1 1-1.8 1c-1.5 0-2.5-1.1-2.5-2.8zm2.5 2.2c1.2 0 1.8-1 1.8-2.2c0-1.2-.6-2.3-1.8-2.3c-1.2 0-1.8 1.1-1.8 2.3c0 1.2.6 2.2 1.8 2.2zm4.1-1c0-1.2 1-1.6 1.9-1.6c-.04-.05 1.7-.2 1.7-.2v-.2c0-.9-.5-1.5-1.4-1.5c-.7 0-1.3.4-1.4 1.1h-.7c0-1 .9-1.7 2.1-1.7c1.4 0 2.1 1 2.1 2.1v2.3c0 .3 0 .8.1 1.2h-.7v-.9c-.3.5-1 1-2 1c-1 0-1.7-.7-1.7-1.6zm1.9 1c.8 0 1.7-.6 1.7-1.5v-.7s-1.59.11-1.6.1c-.8.1-1.3.5-1.3 1.1c0 .6.5 1 1.1 1h.1zm4.9-.4c.03.04 0 .9 0 .9h-.7v-7.7h.7s.03 3.1 0 3.1c.4-.6 1.2-1 1.9-1c1.4 0 2.4 1.1 2.4 2.9c0 1.7-1 2.8-2.4 2.8c-.7 0-1.5-.4-1.9-1zm1.8.4c1.2 0 1.8-1 1.8-2.2c0-1.2-.6-2.3-1.8-2.3c-1.2 0-1.8 1.1-1.8 2.3c0 1.2.6 2.2 1.8 2.2zm4.1.5v-7.7h.7v7.7h-.7zm2.3-2.7c0-2 1.1-2.9 2.4-2.9c1.4 0 2.2 1.1 2.2 2.5c.03-.01 0 .4 0 .4c0 0-3.93.02-3.9 0c0 1.6.8 2.2 1.7 2.2h.1c.7 0 1.2-.3 1.4-1.1h.7c-.2 1.1-1.1 1.7-2.2 1.7c-1.4 0-2.4-1-2.4-2.8zm3.9-.6c0-1-.6-1.7-1.4-1.7h-.2c-.6 0-1.5.4-1.6 1.7h3.2zm4.3.6c0-1.6.9-2.9 2.5-2.9c1.2 0 2 .7 2.1 1.9h-.7c-.1-.8-.6-1.3-1.4-1.3h-.1c-1.2 0-1.7 1.1-1.7 2.3c0 1.2.5 2.2 1.7 2.2h.1c.8 0 1.3-.5 1.4-1.2h.7c-.2 1.1-.9 1.8-2.1 1.8c-1.6 0-2.5-1.2-2.5-2.8zm5.8 0c0-1.7 1.1-2.9 2.5-2.9c1.5 0 2.6 1.2 2.6 2.9c0 1.7-1.1 2.8-2.6 2.8c-1.4 0-2.5-1.1-2.5-2.8zm2.6 2.2c1 0 1.7-.8 1.7-2.2c0-1.4-.7-2.3-1.7-2.3h-.1c-1 0-1.8.9-1.8 2.3c0 1.4.8 2.2 1.8 2.2h.1zm3.6-1.1h.7c.1.7.7 1.1 1.4 1.1h.2c.7 0 1.2-.4 1.2-1c0-.4-.2-.6-1-.8l-.8-.2c-.8-.2-1.5-.5-1.5-1.5c0-1 1-1.6 2-1.6c1.4 0 2 .9 2.1 1.8h-.7c-.1-.6-.6-1.2-1.3-1.2h-.2c-.7 0-1.2.5-1.2 1c0 .5.3.7 1 .8l.9.2c.8.2 1.4.5 1.4 1.5c0 1-.8 1.6-2 1.6c-1.4 0-2.1-.7-2.2-1.7zm7.5 1.6c-.7 0-1-.3-1-1c-.05.03 0-3.9 0-3.9H98v-.6h1.3v-1.8h.7v1.8h1.3v.6H100s-.03 3.88 0 3.9c0 .3.1.4.4.4c.01.02 1.1 0 1.1 0v.6s-1.2.02-1.2 0zm2 1.3v-.5s.37.05.4 0c.4 0 .6-.2.6-.6c.03-.02 0-.2 0-.2h-.6v-1.1h1.1s.02 1.34 0 1.3c0 .7-.3 1.1-1 1.1c-.02-.02-.5 0-.5 0zm6.2-1.3v-4.9h-1.3v-.6h1.3v-1.2c0-.7.3-1 1.1-1c-.05.02 1.3 0 1.3 0v.6s-1.24.02-1.2 0c-.4 0-.5.1-.5.5c.02-.04 0 1.1 0 1.1h1.5v.6h-1.5v4.9h-.7zm3.4-1.8c-.03-.05 0-3.7 0-3.7h.7s-.02 3.43 0 3.4c0 1.1.4 1.6 1.3 1.6h.1c.8 0 1.6-.7 1.6-2v-3h.7v5.5h-.7v-1c-.3.7-.9 1.1-1.8 1.1c-1.3 0-1.9-.8-1.9-1.9zm8 1.8c-.8 0-1.1-.3-1.1-1v-3.9h-1.3v-.6h1.3v-1.8h.7v1.8h1.4v.6h-1.4s.02 3.88 0 3.9c0 .3.1.4.5.4c-.04.02 1.1 0 1.1 0v.6s-1.25.02-1.2 0zm2.3-1.8v-3.7h.7s.01 3.43 0 3.4c0 1.1.5 1.6 1.3 1.6h.1c.8 0 1.6-.7 1.6-2c.04-.01 0-3 0-3h.8v5.5h-.8s.04-1.01 0-1c-.2.7-.9 1.1-1.8 1.1c-1.2 0-1.9-.8-1.9-1.9zm6.3 1.8v-5.5h.7s-.04 1.27 0 1.3c.2-.9.9-1.3 1.7-1.3c-.04-.03.5 0 .5 0v.6s-.48.02-.5 0c-1 0-1.7.9-1.7 2.2v2.7h-.7zm3.6-2.7c0-2 1.2-2.9 2.5-2.9c1.3 0 2.2 1.1 2.2 2.5v.4s-3.95.02-3.9 0c0 1.6.8 2.2 1.7 2.2c.8 0 1.3-.3 1.5-1.1h.7c-.2 1.1-1.1 1.7-2.2 1.7c-1.4 0-2.5-1-2.5-2.8zm4-.6c0-1-.6-1.7-1.5-1.7h-.1c-.7 0-1.5.4-1.6 1.7h3.2zm2.3 5.5v-7.7h.7v.9c.3-.6 1.1-1 1.8-1c1.5 0 2.5 1.1 2.5 2.9c0 1.7-1 2.8-2.5 2.8c-.7 0-1.5-.4-1.8-1v3.1h-.7zm2.5-2.7c1.2 0 1.8-1 1.8-2.2c0-1.2-.6-2.3-1.8-2.3c-1.2 0-1.8 1.1-1.8 2.3c0 1.2.6 2.2 1.8 2.2zm4.1.5v-5.5h.6v1.3c.3-.9 1-1.3 1.7-1.3c.01-.03.5 0 .5 0v.6s-.43.02-.4 0c-1.1 0-1.7.9-1.7 2.2c-.04.05 0 2.7 0 2.7h-.7zm3.6-2.7c0-1.7 1.1-2.9 2.5-2.9c1.4 0 2.5 1.2 2.5 2.9c0 1.7-1.1 2.8-2.5 2.8c-1.4 0-2.5-1.1-2.5-2.8zm2.5 2.2c1 0 1.8-.8 1.8-2.2c0-1.4-.8-2.3-1.8-2.3h-.1c-1 0-1.7.9-1.7 2.3c0 1.4.7 2.2 1.7 2.2h.1zm3.8-2.2c0-1.7 1.1-2.9 2.5-2.9c1.4 0 2.5 1.2 2.5 2.9c0 1.7-1.1 2.8-2.5 2.8c-1.4 0-2.5-1.1-2.5-2.8zm2.5 2.2c1 0 1.8-.8 1.8-2.2c0-1.4-.8-2.3-1.8-2.3h-.1c-1 0-1.7.9-1.7 2.3c0 1.4.7 2.2 1.7 2.2h.1zm4.6.5v-4.9h-1.3v-.6h1.3s-.02-1.19 0-1.2c0-.7.3-1 1-1c.02.02 1.4 0 1.4 0v.6s-1.27.02-1.3 0c-.3 0-.4.1-.4.5c-.01-.04 0 1.1 0 1.1h3.7v5.5h-.7v-4.9h-3v4.9h-.7zm3.6-6.5v-.9h.8v.9h-.8zm2.6 6.5v-5.5h.8s-.04.94 0 .9c.3-.6 1-1 1.9-1c1.1 0 1.9.7 1.9 2c.01.02 0 3.6 0 3.6h-.7V226c0-1.1-.4-1.6-1.3-1.6h-.1c-1.2 0-1.7 1.1-1.7 2.3c-.04-.03 0 2.7 0 2.7h-.8zm6 .8h.7c.1.7.8 1 1.7 1h.1c1 0 1.8-.5 1.8-1.9v-.9c-.3.6-.9 1-1.8 1c-1.4 0-2.4-1-2.4-2.7c0-1.8 1-2.9 2.4-2.9c.9 0 1.5.4 1.8 1v-.9h.7v5.5c0 1.4-.9 2.4-2.5 2.4c-1.6 0-2.4-.7-2.5-1.6zm2.6-1.4c1 0 1.7-.8 1.7-2.1c0-1.4-.7-2.3-1.7-2.3h-.1c-1 0-1.7.9-1.7 2.3c0 1.3.7 2.1 1.7 2.1h.1zm11.3-4.9l-2.3 5.3s.01 1.08 0 1.1c0 .6-.3.9-1 .9c-.03.03-1.7 0-1.7 0v-.6s1.56.03 1.6 0c.3 0 .4-.1.4-.4v-.9l-2.3-5.4h.7l1.9 4.5l1.9-4.5h.8zm.6 2.8c0-1.7 1.2-2.9 2.6-2.9c1.4 0 2.5 1.2 2.5 2.9c0 1.7-1.1 2.8-2.5 2.8c-1.4 0-2.6-1.1-2.6-2.8zm2.6 2.2c1 0 1.8-.8 1.8-2.2c0-1.4-.8-2.3-1.8-2.3h-.1c-1 0-1.7.9-1.7 2.3c0 1.4.7 2.2 1.7 2.2h.1zm4-1.3c-.01-.05 0-3.7 0-3.7h.7v3.4c0 1.1.4 1.6 1.3 1.6h.1c.8 0 1.6-.7 1.6-2c.03-.01 0-3 0-3h.7v5.5h-.7s.03-1.01 0-1c-.3.7-.9 1.1-1.8 1.1c-1.2 0-1.9-.8-1.9-1.9zm6.3 1.8v-5.5h.6s.04 1.27 0 1.3c.3-.9 1-1.3 1.7-1.3c.05-.03.5 0 .5 0v.6s-.4.02-.4 0c-1.1 0-1.7.9-1.7 2.2v2.7h-.7zm6.3-6.5v-.9h.8v.9h-.8zm0 6.5v-5.5h.8v5.5h-.8zm2.6 0v-5.5h.7s.01.94 0 .9c.3-.6 1-1 1.9-1c1.1 0 2 .7 2 2c-.04.02 0 3.6 0 3.6h-.8s.04-3.36 0-3.4c0-1.1-.4-1.6-1.3-1.6c-1.2 0-1.8 1.1-1.8 2.3v2.7h-.7zm9.9-5.5h.8l-2.2 5.5h-.8l-2.2-5.5h.8l1.8 4.9l1.8-4.9zm1.5 2.8c0-2 1.2-2.9 2.4-2.9c1.4 0 2.3 1.1 2.3 2.5c-.04-.01 0 .4 0 .4c0 0-4 .02-4 0c0 1.6.8 2.2 1.7 2.2h.1c.7 0 1.2-.3 1.4-1.1h.8c-.3 1.1-1.1 1.7-2.3 1.7c-1.3 0-2.4-1-2.4-2.8zm3.9-.6c0-1-.5-1.7-1.4-1.7h-.1c-.7 0-1.5.4-1.7 1.7h3.2zm2 1.7h.7c.1.7.6 1.1 1.4 1.1h.1c.8 0 1.2-.4 1.2-1c0-.4-.2-.6-.9-.8l-.8-.2c-.8-.2-1.5-.5-1.5-1.5c0-1 .9-1.6 1.9-1.6c1.4 0 2.1.9 2.1 1.8h-.7c-.1-.6-.5-1.2-1.3-1.2h-.1c-.8 0-1.2.5-1.2 1c0 .5.3.7 1 .8l.9.2c.7.2 1.4.5 1.4 1.5c0 1-.8 1.6-2.1 1.6c-1.4 0-2.1-.7-2.1-1.7zm7.4 1.6c-.7 0-1-.3-1-1v-3.9h-1.3v-.6h1.3v-1.8h.7v1.8h1.4v.6h-1.4s.02 3.88 0 3.9c0 .3.1.4.5.4c-.04.02 1.1 0 1.1 0v.6s-1.25.02-1.3 0zm2.5 0v-5.5h.7s.02.9 0 .9c.4-.6 1-1 1.8-1c.8 0 1.5.4 1.8 1.2c.4-.8 1-1.2 1.9-1.2c1.1 0 1.9.7 1.9 2c-.01.02 0 3.6 0 3.6h-.7s-.02-3.36 0-3.4c0-1.1-.4-1.6-1.3-1.6h-.1c-1.1 0-1.6 1.1-1.6 2.3v2.7h-.7s-.01-3.36 0-3.4c0-1.1-.4-1.6-1.3-1.6c-1.2 0-1.7 1.1-1.7 2.3c.02-.03 0 2.7 0 2.7h-.7zm9.6-2.7c0-2 1.2-2.9 2.5-2.9c1.3 0 2.2 1.1 2.2 2.5v.4s-3.97.02-4 0c0 1.6.9 2.2 1.8 2.2c.8 0 1.3-.3 1.5-1.1h.7c-.3 1.1-1.1 1.7-2.2 1.7c-1.4 0-2.5-1-2.5-2.8zm4-.6c-.1-1-.6-1.7-1.5-1.7h-.1c-.7 0-1.5.4-1.7 1.7h3.3zm2.3 3.3v-5.5h.7s-.02.94 0 .9c.3-.6 1-1 1.9-1c1.1 0 1.9.7 1.9 2c.03.02 0 3.6 0 3.6h-.7s.01-3.36 0-3.4c0-1.1-.4-1.6-1.3-1.6h-.1c-1.2 0-1.7 1.1-1.7 2.3c-.02-.03 0 2.7 0 2.7h-.7zm7.9 0c-.7 0-1-.3-1-1c-.04.03 0-3.9 0-3.9h-1.3v-.6h1.3v-1.8h.7v1.8h1.3v.6h-1.3s-.03 3.88 0 3.9c0 .3.1.4.4.4c.01.02 1.1 0 1.1 0v.6s-1.2.02-1.2 0zm2.5 0v-1.1h1.1v1.1H264z" stroke="none" fill="#192d39"/></g><g id="Polygon16814"><path d="m12.9 212.8c0-1.3 1.1-1.6 1.9-1.7l1.8-.1s-.04-.25 0-.2c0-1-.6-1.5-1.4-1.5h-.1c-.7 0-1.3.3-1.3 1h-.8c.1-1 1-1.6 2.2-1.6c1.4 0 2.1.9 2.1 2.1v3.5h-.6c-.1-.3-.1-.6-.1-.9c-.2.5-1 1-1.9 1c-1 0-1.8-.7-1.8-1.6zm2 1c.7 0 1.7-.7 1.7-1.5c-.04-.01 0-.7 0-.7c0 0-1.64.06-1.6.1c-.8 0-1.4.4-1.4 1c0 .6.5 1.1 1.1 1.1h.2zm4.2.5v-7.7h.7v7.7h-.7zm2.5 0v-7.7h.7v7.7h-.7zm4.6-2.8c0-1.6.9-2.8 2.5-2.8c1.2 0 2.1.7 2.2 1.8h-.7c-.2-.7-.7-1.2-1.4-1.2h-.1c-1.2 0-1.8 1-1.8 2.2c0 1.2.6 2.3 1.8 2.3h.1c.7 0 1.2-.6 1.4-1.3h.7c-.2 1.1-1 1.9-2.2 1.9c-1.6 0-2.5-1.3-2.5-2.9zm5.9 1.3c0-1.3 1-1.6 1.9-1.7l1.7-.1s.03-.25 0-.2c0-1-.5-1.5-1.4-1.5c-.7 0-1.3.3-1.4 1h-.7c.1-1 .9-1.6 2.1-1.6c1.4 0 2.1.9 2.1 2.1v2.3c0 .3 0 .8.1 1.2h-.7v-.9c-.2.5-1 1-2 1c-.9 0-1.7-.7-1.7-1.6zm1.9 1c.8 0 1.7-.7 1.7-1.5c.03-.01 0-.7 0-.7c0 0-1.57.06-1.6.1c-.8 0-1.3.4-1.3 1c0 .6.5 1.1 1.1 1.1h.1zm4.2.5v-5.5h.7v1.2c.3-.9.9-1.3 1.7-1.3c0 .02.5 0 .5 0v.7s-.44-.03-.4 0c-1.1 0-1.7.8-1.7 2.2c-.05 0 0 2.7 0 2.7h-.8zm6-1.7h.7c.1.8.6 1.2 1.4 1.2h.1c.8 0 1.3-.4 1.3-1c0-.4-.3-.7-1-.9l-.8-.1c-.8-.2-1.5-.6-1.5-1.5c0-1.1.9-1.6 2-1.6c1.3 0 2 .8 2 1.7h-.7c-.1-.6-.5-1.1-1.3-1.1h-.1c-.8 0-1.2.4-1.2.9c0 .5.3.7 1 .9l.9.2c.7.1 1.4.5 1.4 1.4c0 1.1-.8 1.7-2 1.7c-1.5 0-2.2-.8-2.2-1.8zm5.8 3.9v-7.7h.7v.8c.3-.6 1.1-.9 1.8-.9c1.5 0 2.5 1.1 2.5 2.8c0 1.8-1 2.9-2.5 2.9c-.7 0-1.5-.4-1.8-1v3.1h-.7zm2.5-2.7c1.2 0 1.8-1.1 1.8-2.3c0-1.2-.6-2.2-1.8-2.2h-.1c-1.1 0-1.7 1-1.7 2.2c0 1.2.6 2.3 1.7 2.3h.1zm3.7-1c0-1.3 1-1.6 1.9-1.7l1.7-.1s.04-.25 0-.2c0-1-.5-1.5-1.3-1.5h-.1c-.7 0-1.3.3-1.4 1h-.7c.1-1 .9-1.6 2.1-1.6c1.5 0 2.1.9 2.1 2.1v2.3c0 .3 0 .8.1 1.2h-.7v-.9c-.2.5-1 1-2 1c-.9 0-1.7-.7-1.7-1.6zm1.9 1c.8 0 1.7-.7 1.7-1.5c.04-.01 0-.7 0-.7c0 0-1.56.06-1.6.1c-.7 0-1.3.4-1.3 1c0 .6.5 1.1 1.1 1.1h.1zm3.9-2.3c0-1.6.9-2.8 2.6-2.8c1.1 0 2 .7 2.1 1.8h-.7c-.1-.7-.6-1.2-1.4-1.2h-.1c-1.2 0-1.8 1-1.8 2.2c0 1.2.6 2.3 1.8 2.3h.1c.8 0 1.2-.6 1.4-1.3h.7c-.2 1.1-1 1.9-2.1 1.9c-1.7 0-2.6-1.3-2.6-2.9zm5.9 0c0-1.9 1.2-2.8 2.4-2.8c1.4 0 2.3 1 2.3 2.4c-.03.04 0 .5 0 .5c0 0-3.99-.03-4 0c0 1.5.8 2.2 1.7 2.2h.1c.8 0 1.2-.4 1.4-1.1h.8c-.3 1.1-1.1 1.7-2.3 1.7c-1.3 0-2.4-1-2.4-2.9zm4-.5c-.1-1-.6-1.7-1.5-1.7h-.1c-.7 0-1.5.4-1.7 1.7h3.3zm1.9 1.6h.7c.1.8.6 1.2 1.4 1.2h.1c.8 0 1.3-.4 1.3-1c0-.4-.3-.7-1-.9l-.8-.1c-.8-.2-1.5-.6-1.5-1.5c0-1.1.9-1.6 2-1.6c1.3 0 2 .8 2 1.7h-.7c-.1-.6-.5-1.1-1.3-1.1h-.1c-.8 0-1.2.4-1.2.9c0 .5.3.7 1 .9l.9.2c.7.1 1.4.5 1.4 1.4c0 1.1-.8 1.7-2 1.7c-1.5 0-2.2-.8-2.2-1.8zm7.7-1.1c0-1.6.9-2.8 2.6-2.8c1.2 0 2 .7 2.1 1.8h-.7c-.1-.7-.6-1.2-1.4-1.2h-.1c-1.2 0-1.8 1-1.8 2.2c0 1.2.6 2.3 1.8 2.3h.1c.8 0 1.3-.6 1.4-1.3h.7c-.2 1.1-.9 1.9-2.1 1.9c-1.7 0-2.6-1.3-2.6-2.9zm5.9 1.3c0-1.3 1.1-1.6 1.9-1.7l1.8-.1s-.03-.25 0-.2c0-1-.6-1.5-1.4-1.5h-.1c-.7 0-1.3.3-1.3 1h-.8c.1-1 1-1.6 2.2-1.6c1.4 0 2.1.9 2.1 2.1v3.5h-.6c-.1-.3-.1-.6-.1-.9c-.2.5-1 1-1.9 1c-1 0-1.8-.7-1.8-1.6zm2 1c.7 0 1.7-.7 1.7-1.5c-.03-.01 0-.7 0-.7c0 0-1.63.06-1.6.1c-.8 0-1.3.4-1.3 1c0 .6.4 1.1 1.1 1.1h.1zm4.2.5v-5.5h.7v.9c.3-.6 1-1 1.9-1c1.1 0 1.9.7 1.9 2c.05-.03 0 3.6 0 3.6h-.7s.03-3.41 0-3.4c0-1.1-.4-1.6-1.3-1.6h-.1c-1.1 0-1.7 1-1.7 2.2v2.8h-.7zm9.4-.9c-.01-.01 0 .9 0 .9h-.7v-7.7h.7v3c.3-.6 1.1-.9 1.8-.9c1.5 0 2.5 1.1 2.5 2.8c0 1.8-1 2.9-2.5 2.9c-.7 0-1.5-.4-1.8-1zm1.8.4c1.2 0 1.8-1.1 1.8-2.3c0-1.2-.6-2.2-1.8-2.2h-.1c-1.1 0-1.7 1-1.7 2.2c0 1.2.6 2.3 1.7 2.3h.1zm3.7-2.3c0-1.9 1.2-2.8 2.5-2.8c1.3 0 2.2 1 2.2 2.4c.02.04 0 .5 0 .5c0 0-3.94-.03-3.9 0c0 1.5.8 2.2 1.7 2.2h.1c.7 0 1.2-.4 1.4-1.1h.7c-.2 1.1-1.1 1.7-2.2 1.7c-1.4 0-2.5-1-2.5-2.9zm4-.5c0-1-.6-1.7-1.5-1.7h-.1c-.7 0-1.5.4-1.6 1.7h3.2zm4.5 1.4c.03 0 0-3.6 0-3.6h.7s.04 3.38 0 3.4c0 1 .5 1.6 1.4 1.6h.1c.8 0 1.6-.8 1.6-2.1c-.03.04 0-2.9 0-2.9h.7v5.5h-.7s-.03-1.06 0-1.1c-.3.8-1 1.2-1.9 1.2c-1.2 0-1.9-.8-1.9-2zm6.3 4.1v-7.7h.7s.04.85 0 .8c.4-.6 1.2-.9 1.9-.9c1.4 0 2.4 1.1 2.4 2.8c0 1.8-1 2.9-2.4 2.9c-.7 0-1.5-.4-1.9-1c.04-.01 0 3.1 0 3.1h-.7zm2.6-2.7c1.1 0 1.7-1.1 1.7-2.3c0-1.2-.6-2.2-1.7-2.2h-.1c-1.2 0-1.8 1-1.8 2.2c0 1.2.6 2.3 1.8 2.3h.1zm3.6 1.2h.7c.1.7.8 1.1 1.7 1.1h.1c.9 0 1.8-.6 1.8-1.9v-.9c-.3.6-1 1-1.8 1c-1.4 0-2.4-1-2.4-2.8c0-1.7 1-2.8 2.4-2.8c.8 0 1.5.3 1.8.9c-.02.05 0-.8 0-.8h.7v5.4c0 1.5-.9 2.5-2.5 2.5c-1.6 0-2.4-.7-2.5-1.7zm2.6-1.3c1 0 1.7-.8 1.7-2.2c0-1.4-.7-2.2-1.7-2.2h-.1c-1 0-1.7.8-1.7 2.2c0 1.4.7 2.2 1.7 2.2h.1zm4.2.6v-5.5h.7v1.2c.3-.9.9-1.3 1.7-1.3c0 .02.5 0 .5 0v.7s-.44-.03-.4 0c-1.1 0-1.7.8-1.7 2.2c-.05 0 0 2.7 0 2.7h-.8zm3.8-1.5c0-1.3 1-1.6 1.9-1.7l1.7-.1s.03-.25 0-.2c0-1-.5-1.5-1.3-1.5h-.1c-.7 0-1.3.3-1.4 1h-.7c.1-1 .9-1.6 2.1-1.6c1.5 0 2.1.9 2.1 2.1v2.3c0 .3 0 .8.1 1.2h-.7v-.9c-.2.5-1 1-2 1c-.9 0-1.7-.7-1.7-1.6zm1.9 1c.8 0 1.7-.7 1.7-1.5c.03-.01 0-.7 0-.7c0 0-1.57.06-1.6.1c-.7 0-1.3.4-1.3 1c0 .6.5 1.1 1.1 1.1h.1zm3.9-2.3c0-1.7 1-2.8 2.5-2.8c.7 0 1.5.3 1.8.9v-3h.7v7.7h-.7s.01-.91 0-.9c-.3.6-1.1 1-1.8 1c-1.5 0-2.5-1.1-2.5-2.9zm2.6 2.3c1.1 0 1.7-1.1 1.7-2.3c0-1.2-.6-2.2-1.7-2.2h-.1c-1.2 0-1.8 1-1.8 2.2c0 1.2.6 2.3 1.8 2.3h.1zm4-2.3c0-1.9 1.2-2.8 2.4-2.8c1.4 0 2.3 1 2.3 2.4c-.04.04 0 .5 0 .5c0 0-4-.03-4 0c0 1.5.8 2.2 1.7 2.2h.1c.7 0 1.2-.4 1.4-1.1h.7c-.2 1.1-1 1.7-2.2 1.7c-1.3 0-2.4-1-2.4-2.9zm3.9-.5c0-1-.6-1.7-1.4-1.7h-.1c-.7 0-1.5.4-1.7 1.7h3.2zm2 .5c0-1.7 1.1-2.8 2.5-2.8c.7 0 1.5.3 1.8.9c.02.05 0-3 0-3h.7v7.7h-.7s.02-.91 0-.9c-.3.6-1.1 1-1.8 1c-1.4 0-2.5-1.1-2.5-2.9zm2.6 2.3c1.2 0 1.7-1.1 1.7-2.3c0-1.2-.5-2.2-1.7-2.2h-.1c-1.2 0-1.7 1-1.7 2.2c0 1.2.5 2.3 1.7 2.3h.1zm13.2-5h.7l-1.7 5.5h-1l-1.2-4.8l-1.3 4.8h-.9l-1.8-5.5h.7l1.6 4.8l1.2-4.8h.9l1.3 4.9l1.5-4.9zm1.9-1v-1h.9v1h-.9zm.1 6.5v-5.5h.7v5.5h-.7zm4.2 0c-.7 0-1-.3-1-1c-.03-.02 0-3.9 0-3.9h-1.3v-.6h1.3V207h.7v1.8h1.4v.6h-1.4v3.8c0 .4.1.5.4.5c.03-.03 1.1 0 1.1 0v.6s-1.18-.03-1.2 0zm2.5 0v-7.7h.7v3.1c.4-.6 1-1 2-1c1.2 0 1.8.8 1.8 1.9c.04.04 0 3.7 0 3.7h-.7s.03-3.44 0-3.4c0-1.1-.4-1.6-1.3-1.6h-.1c-.9 0-1.7.7-1.7 2v3h-.7zm8.3-1.5c0-1.3 1.1-1.6 1.9-1.7l1.8-.1s-.02-.25 0-.2c0-1-.6-1.5-1.4-1.5h-.1c-.7 0-1.3.3-1.3 1h-.7c0-1 .9-1.6 2.1-1.6c1.4 0 2.1.9 2.1 2.1v3.5h-.6c-.1-.3-.1-.6-.1-.9c-.2.5-.9 1-1.9 1c-1 0-1.8-.7-1.8-1.6zm2 1c.7 0 1.7-.7 1.7-1.5c-.02-.01 0-.7 0-.7c0 0-1.62.06-1.6.1c-.8 0-1.3.4-1.3 1c0 .6.4 1.1 1.1 1.1h.1zm4.2.5v-5.5h.7v.9c.3-.6 1-1 1.9-1c1.1 0 2 .7 2 2c-.05-.03 0 3.6 0 3.6h-.8s.04-3.41 0-3.4c0-1.1-.4-1.6-1.3-1.6c-1.2 0-1.8 1-1.8 2.2v2.8h-.7zm8.9 0v-7.7h5.3v.7H207v2.6h4v.8h-4v2.9h4.8v.7h-5.5zm12.9-7.7h.8l-3.1 7.7h-.9l-3.3-7.7h.9l2.9 6.8l2.7-6.8zm3.9 4.9c0-1.6.9-2.8 2.6-2.8c1.1 0 2 .7 2.1 1.8h-.7c-.1-.7-.7-1.2-1.4-1.2h-.1c-1.2 0-1.8 1-1.8 2.2c0 1.2.6 2.3 1.8 2.3h.1c.7 0 1.2-.6 1.4-1.3h.7c-.2 1.1-1 1.9-2.1 1.9c-1.7 0-2.6-1.3-2.6-2.9zm5.9 1.3c0-1.3 1.1-1.6 1.9-1.7l1.8-.1s-.04-.25 0-.2c0-1-.6-1.5-1.4-1.5h-.1c-.7 0-1.3.3-1.3 1h-.8c.1-1 1-1.6 2.2-1.6c1.4 0 2.1.9 2.1 2.1v3.5h-.6c-.1-.3-.1-.6-.1-.9c-.2.5-1 1-1.9 1c-1 0-1.8-.7-1.8-1.6zm2 1c.7 0 1.7-.7 1.7-1.5c-.04-.01 0-.7 0-.7c0 0-1.63.06-1.6.1c-.8 0-1.4.4-1.4 1c0 .6.5 1.1 1.1 1.1h.2zm4.2.5v-5.5h.6s.03 1.22 0 1.2c.3-.9 1-1.3 1.7-1.3c.04.02.5 0 .5 0v.7s-.41-.03-.4 0c-1.1 0-1.7.8-1.7 2.2v2.7h-.7zm6-2.8c0-1.6.9-2.8 2.5-2.8c1.2 0 2.1.7 2.2 1.8h-.7c-.2-.7-.7-1.2-1.4-1.2h-.1c-1.2 0-1.8 1-1.8 2.2c0 1.2.6 2.3 1.8 2.3h.1c.7 0 1.2-.6 1.4-1.3h.7c-.2 1.1-1 1.9-2.2 1.9c-1.6 0-2.5-1.3-2.5-2.9zm6.2 2.8v-7.7h.7v3.1c.4-.6 1.1-1 2-1c1.2 0 1.9.8 1.9 1.9c-.04.04 0 3.7 0 3.7h-.8s.04-3.44 0-3.4c0-1.1-.4-1.6-1.3-1.6h-.1c-.8 0-1.7.7-1.7 2v3h-.7zm6.1-1.5c0-1.3 1-1.6 1.8-1.7l1.8-.1v-.2c0-1-.5-1.5-1.4-1.5c-.7 0-1.3.3-1.4 1h-.7c0-1 .9-1.6 2.1-1.6c1.4 0 2.1.9 2.1 2.1v2.3c0 .3 0 .8.1 1.2h-.7c0-.3-.1-.6-.1-.9c-.2.5-.9 1-1.9 1c-1 0-1.7-.7-1.7-1.6zm1.9 1c.7 0 1.7-.7 1.7-1.5v-.7s-1.61.06-1.6.1c-.8 0-1.3.4-1.3 1c0 .6.4 1.1 1.1 1.1h.1zm4.2.5v-5.5h.7s-.04 1.22 0 1.2c.2-.9.9-1.3 1.7-1.3c-.03.02.5 0 .5 0v.7s-.48-.03-.5 0c-1 0-1.7.8-1.7 2.2c.02 0 0 2.7 0 2.7h-.7zm3.5.7h.8c.1.7.7 1.1 1.7 1.1h.1c.9 0 1.8-.6 1.8-1.9v-.9c-.4.6-1 1-1.9 1c-1.4 0-2.4-1-2.4-2.8c0-1.7 1-2.8 2.4-2.8c.9 0 1.5.3 1.9.9c-.05.05 0-.8 0-.8h.7s-.04 5.43 0 5.4c0 1.5-1 2.5-2.6 2.5c-1.6 0-2.4-.7-2.5-1.7zm2.7-1.3c.9 0 1.7-.8 1.7-2.2c0-1.4-.8-2.2-1.7-2.2h-.2c-.9 0-1.6.8-1.6 2.2c0 1.4.7 2.2 1.6 2.2h.2zm3.9-2.2c0-1.9 1.2-2.8 2.5-2.8c1.3 0 2.2 1 2.2 2.4v.5s-3.97-.03-4 0c.1 1.5.9 2.2 1.8 2.2c.8 0 1.3-.4 1.5-1.1h.7c-.3 1.1-1.1 1.7-2.2 1.7c-1.4 0-2.5-1-2.5-2.9zm4-.5c-.1-1-.6-1.7-1.5-1.7h-.1c-.7 0-1.5.4-1.6 1.7h3.2zm2.3 3.3v-5.5h.6s.03 1.22 0 1.2c.3-.9 1-1.3 1.7-1.3c.03.02.5 0 .5 0v.7s-.41-.03-.4 0c-1.1 0-1.7.8-1.7 2.2c-.02 0 0 2.7 0 2.7h-.7zm6-1.5c0-1.3 1.1-1.6 1.9-1.7l1.7-.1s.04-.25 0-.2c0-1-.5-1.5-1.3-1.5h-.1c-.7 0-1.3.3-1.4 1h-.7c.1-1 1-1.6 2.1-1.6c1.5 0 2.2.9 2.2 2.1v3.5h-.7v-.9c-.2.5-1 1-2 1c-.9 0-1.7-.7-1.7-1.6zm1.9 1c.8 0 1.7-.7 1.7-1.5c.04-.01 0-.7 0-.7c0 0-1.56.06-1.6.1c-.7 0-1.3.4-1.3 1c0 .6.5 1.1 1.1 1.1h.1zm5.8.5c-.7 0-1-.3-1-1c-.05-.02 0-3.9 0-3.9h-1.3v-.6h1.3V207h.7v1.8h1.3v.6h-1.3s-.03 3.83 0 3.8c0 .4.1.5.4.5c.01-.03 1.1 0 1.1 0v.6s-1.2-.03-1.2 0z" stroke="none" fill="#192d39"/></g><g id="Polygon16813"><path d="m13.2 199.1v-7.7h.8v7.7h-.8zm2.3-2.7c0-2 1.2-2.9 2.5-2.9c1.3 0 2.2 1.1 2.2 2.5v.4s-3.97.02-4 0c.1 1.6.9 2.2 1.8 2.2c.8 0 1.3-.3 1.5-1.1h.7c-.3 1.1-1.1 1.7-2.2 1.7c-1.4 0-2.5-1-2.5-2.8zm4-.6c-.1-1-.6-1.7-1.5-1.7h-.1c-.7 0-1.5.4-1.6 1.7h3.2zm2 1.8c0-1.2 1-1.6 1.8-1.6c.04-.05 1.8-.2 1.8-.2c0 0-.02-.2 0-.2c0-.9-.5-1.5-1.4-1.5c-.8 0-1.3.4-1.4 1.1h-.7c0-1 .9-1.7 2.1-1.7c1.4 0 2.1 1 2.1 2.1v2.3c0 .3 0 .8.1 1.2h-.7c-.1-.2-.1-.6-.1-.9c-.2.5-.9 1-1.9 1c-1 0-1.7-.7-1.7-1.6zm1.9 1c.7 0 1.7-.6 1.7-1.5c-.02.04 0-.7 0-.7l-1.6.1c-.8.1-1.3.5-1.3 1.1c0 .6.4 1 1.1 1h.1zm3.9-2.2c0-1.8 1-2.9 2.4-2.9c.7 0 1.5.4 1.9 1c-.03 0 0-3.1 0-3.1h.7v7.7h-.7s-.03-.86 0-.9c-.4.6-1.2 1-1.9 1c-1.4 0-2.4-1.1-2.4-2.8zm2.5 2.2c1.2 0 1.8-1 1.8-2.2c0-1.2-.6-2.3-1.8-2.3c-1.2 0-1.8 1.1-1.8 2.3c0 1.2.6 2.2 1.8 2.2zm4.3-6v-.9h.8v.9h-.8zm0 6.5v-5.5h.7v5.5h-.7zm2.6 0v-5.5h.7s-.01.94 0 .9c.3-.6 1-1 1.9-1c1.1 0 1.9.7 1.9 2c.04.02 0 3.6 0 3.6h-.7s.02-3.36 0-3.4c0-1.1-.4-1.6-1.3-1.6h-.1c-1.2 0-1.7 1.1-1.7 2.3v2.7h-.7zm5.9.8h.7c.2.7.8 1 1.7 1h.2c.9 0 1.7-.5 1.7-1.9v-.9c-.3.6-.9 1-1.8 1c-1.4 0-2.4-1-2.4-2.7c0-1.8 1-2.9 2.4-2.9c.9 0 1.5.4 1.8 1c.03 0 0-.9 0-.9h.7s.04 5.48 0 5.5c0 1.4-.9 2.4-2.5 2.4c-1.6 0-2.4-.7-2.5-1.6zm2.6-1.4c1 0 1.7-.8 1.7-2.1c0-1.4-.7-2.3-1.7-2.3h-.1c-1 0-1.7.9-1.7 2.3c0 1.3.7 2.1 1.7 2.1h.1zm6.3-2.1c0-1.8 1-2.9 2.4-2.9c.8 0 1.6.4 1.9 1c-.02 0 0-3.1 0-3.1h.7v7.7h-.7s-.02-.86 0-.9c-.3.6-1.1 1-1.9 1c-1.4 0-2.4-1.1-2.4-2.8zm2.5 2.2c1.2 0 1.8-1 1.8-2.2c0-1.2-.6-2.3-1.8-2.3c-1.2 0-1.8 1.1-1.8 2.3c0 1.2.6 2.2 1.8 2.2zm4.1-2.2c0-2 1.1-2.9 2.4-2.9c1.3 0 2.2 1.1 2.2 2.5c.02-.01 0 .4 0 .4c0 0-3.94.02-3.9 0c0 1.6.8 2.2 1.7 2.2h.1c.7 0 1.2-.3 1.4-1.1h.7c-.2 1.1-1.1 1.7-2.2 1.7c-1.4 0-2.4-1-2.4-2.8zm3.9-.6c0-1-.6-1.7-1.5-1.7h-.1c-.7 0-1.5.4-1.6 1.7h3.2zm5.9-2.2h.7l-2.1 5.5h-.9l-2.1-5.5h.8l1.8 4.9l1.8-4.9zm1.5 2.8c0-2 1.1-2.9 2.4-2.9c1.4 0 2.2 1.1 2.2 2.5c.03-.01 0 .4 0 .4c0 0-3.93.02-3.9 0c0 1.6.8 2.2 1.7 2.2h.1c.7 0 1.2-.3 1.4-1.1h.7c-.2 1.1-1.1 1.7-2.2 1.7c-1.4 0-2.4-1-2.4-2.8zm3.9-.6c0-1-.6-1.7-1.4-1.7h-.2c-.7 0-1.5.4-1.6 1.7h3.2zm2.3 3.3v-7.7h.7v7.7h-.7zm2.3-2.7c0-1.7 1.1-2.9 2.5-2.9c1.4 0 2.5 1.2 2.5 2.9c0 1.7-1.1 2.8-2.5 2.8c-1.4 0-2.5-1.1-2.5-2.8zm2.5 2.2c1 0 1.8-.8 1.8-2.2c0-1.4-.8-2.3-1.8-2.3h-.1c-1 0-1.7.9-1.7 2.3c0 1.4.7 2.2 1.7 2.2h.1zm4.1 2.7v-7.7h.7s-.03.9 0 .9c.3-.6 1.1-1 1.8-1c1.4 0 2.5 1.1 2.5 2.9c0 1.7-1.1 2.8-2.5 2.8c-.7 0-1.5-.4-1.8-1c-.03.04 0 3.1 0 3.1h-.7zm2.5-2.7c1.2 0 1.7-1 1.7-2.2c0-1.2-.5-2.3-1.7-2.3h-.1c-1.2 0-1.7 1.1-1.7 2.3c0 1.2.5 2.2 1.7 2.2h.1zm4 .5v-5.5h.7s.03.9 0 .9c.4-.6 1-1 1.8-1c.8 0 1.5.4 1.8 1.2c.4-.8 1-1.2 1.9-1.2c1.1 0 1.9.7 1.9 2v3.6h-.7s-.02-3.36 0-3.4c0-1.1-.4-1.6-1.3-1.6c-1.2 0-1.7 1.1-1.7 2.3v2.7h-.7v-3.4c0-1.1-.4-1.6-1.3-1.6c-1.1 0-1.7 1.1-1.7 2.3c.03-.03 0 2.7 0 2.7h-.7zm9.6-2.7c0-2 1.2-2.9 2.5-2.9c1.3 0 2.2 1.1 2.2 2.5v.4s-3.97.02-4 0c.1 1.6.9 2.2 1.8 2.2c.8 0 1.3-.3 1.5-1.1h.7c-.3 1.1-1.1 1.7-2.2 1.7c-1.4 0-2.5-1-2.5-2.8zm4-.6c-.1-1-.6-1.7-1.5-1.7h-.1c-.7 0-1.5.4-1.6 1.7h3.2zm2.3 3.3v-5.5h.7s-.02.94 0 .9c.3-.6 1-1 1.9-1c1.1 0 1.9.7 1.9 2c.03.02 0 3.6 0 3.6h-.7s.02-3.36 0-3.4c0-1.1-.4-1.6-1.3-1.6h-.1c-1.2 0-1.7 1.1-1.7 2.3c-.02-.03 0 2.7 0 2.7h-.7zm7.9 0c-.7 0-1-.3-1-1c-.03.03 0-3.9 0-3.9h-1.3v-.6h1.3v-1.8h.7v1.8h1.4v.6h-1.4s-.02 3.88 0 3.9c0 .3.1.4.4.4c.02.02 1.1 0 1.1 0v.6s-1.19.02-1.2 0zm2.1 1.3v-.5s.28.05.3 0c.4 0 .6-.2.6-.6c.04-.02 0-.2 0-.2h-.6V198h1.1s.04 1.34 0 1.3c0 .7-.3 1.1-1 1.1c-.01-.02-.4 0-.4 0zm6.2-2.2c.02.04 0 .9 0 .9h-.7v-7.7h.7s.02 3.1 0 3.1c.4-.6 1.1-1 1.9-1c1.4 0 2.4 1.1 2.4 2.9c0 1.7-1 2.8-2.4 2.8c-.8 0-1.5-.4-1.9-1zm1.8.4c1.2 0 1.8-1 1.8-2.2c0-1.2-.6-2.3-1.8-2.3c-1.2 0-1.8 1.1-1.8 2.3c0 1.2.6 2.2 1.8 2.2zm3.8-2.2c0-1.7 1.1-2.9 2.5-2.9c1.4 0 2.5 1.2 2.5 2.9c0 1.7-1.1 2.8-2.5 2.8c-1.4 0-2.5-1.1-2.5-2.8zm2.5 2.2c1 0 1.8-.8 1.8-2.2c0-1.4-.8-2.3-1.8-2.3h-.1c-1 0-1.7.9-1.7 2.3c0 1.4.7 2.2 1.7 2.2h.1zm3.7-1c0-1.2 1.1-1.6 1.9-1.6c0-.05 1.7-.2 1.7-.2c0 0 .04-.2 0-.2c0-.9-.5-1.5-1.3-1.5h-.1c-.7 0-1.3.4-1.4 1.1h-.7c.1-1 1-1.7 2.1-1.7c1.5 0 2.2 1 2.2 2.1v3.5h-.6c-.1-.2-.1-.6-.1-.9c-.2.5-1 1-2 1c-.9 0-1.7-.7-1.7-1.6zm1.9 1c.8 0 1.7-.6 1.7-1.5c.04.04 0-.7 0-.7c0 0-1.55.11-1.6.1c-.7.1-1.3.5-1.3 1.1c0 .6.5 1 1.1 1h.1zm3.9-1.1h.7c.1.7.6 1.1 1.4 1.1h.1c.8 0 1.3-.4 1.3-1c0-.4-.3-.6-1-.8l-.8-.2c-.8-.2-1.5-.5-1.5-1.5c0-1 .9-1.6 2-1.6c1.3 0 2 .9 2 1.8h-.7c-.1-.6-.5-1.2-1.3-1.2h-.1c-.8 0-1.2.5-1.2 1c0 .5.3.7 1 .8l.9.2c.7.2 1.4.5 1.4 1.5c0 1-.8 1.6-2 1.6c-1.5 0-2.2-.7-2.2-1.7zm7.5 1.6c-.8 0-1.1-.3-1.1-1v-3.9h-1.3v-.6h1.3v-1.8h.7v1.8h1.4v.6h-1.4s.02 3.88 0 3.9c0 .3.1.4.5.4c-.04.02 1.1 0 1.1 0v.6s-1.25.02-1.2 0zm2.4-6.5v-.9h.8v.9h-.8zm0 6.5v-5.5h.7v5.5h-.7zm2.6 0v-5.5h.7s-.03.94 0 .9c.3-.6 1-1 1.9-1c1.1 0 1.9.7 1.9 2c.02.02 0 3.6 0 3.6h-.7s.01-3.36 0-3.4c0-1.1-.4-1.6-1.3-1.6h-.1c-1.2 0-1.7 1.1-1.7 2.3c-.03-.03 0 2.7 0 2.7h-.7zm5.9.8h.7c.2.7.8 1 1.7 1h.1c1 0 1.8-.5 1.8-1.9v-.9c-.3.6-.9 1-1.8 1c-1.4 0-2.4-1-2.4-2.7c0-1.8 1-2.9 2.4-2.9c.9 0 1.5.4 1.8 1c.01 0 0-.9 0-.9h.7s.02 5.48 0 5.5c0 1.4-.9 2.4-2.5 2.4c-1.6 0-2.4-.7-2.5-1.6zm2.6-1.4c1 0 1.7-.8 1.7-2.1c0-1.4-.7-2.3-1.7-2.3h-.1c-1 0-1.7.9-1.7 2.3c0 1.3.7 2.1 1.7 2.1h.1zm6.6.6v-7.7h.7s.02 3.15 0 3.2c.4-.7 1.1-1.1 2-1.1c1.2 0 1.9.8 1.9 2c-.03-.01 0 3.6 0 3.6h-.7s-.04-3.39 0-3.4c0-1-.5-1.6-1.4-1.6h-.1c-.8 0-1.7.8-1.7 2c.02.05 0 3 0 3h-.7zm6.3-6.5v-.9h.8v.9h-.8zm.1 6.5v-5.5h.7v5.5h-.7zm2.1.8h.7c.2.7.8 1 1.7 1h.1c1 0 1.8-.5 1.8-1.9v-.9c-.3.6-.9 1-1.8 1c-1.4 0-2.4-1-2.4-2.7c0-1.8 1-2.9 2.4-2.9c.9 0 1.5.4 1.8 1c.02 0 0-.9 0-.9h.7s.03 5.48 0 5.5c0 1.4-.9 2.4-2.5 2.4c-1.6 0-2.4-.7-2.5-1.6zm2.6-1.4c1 0 1.7-.8 1.7-2.1c0-1.4-.7-2.3-1.7-2.3h-.1c-1 0-1.7.9-1.7 2.3c0 1.3.7 2.1 1.7 2.1h.1zm4.3.6v-7.7h.7v3.2c.4-.7 1-1.1 2-1.1c1.2 0 1.8.8 1.8 2c.04-.01 0 3.6 0 3.6h-.7s.03-3.39 0-3.4c0-1-.4-1.6-1.3-1.6h-.1c-.9 0-1.7.8-1.7 2v3h-.7zm8.2-1.6h.8c0 .7.6 1.1 1.4 1.1h.1c.8 0 1.2-.4 1.2-1c0-.4-.2-.6-.9-.8l-.8-.2c-.9-.2-1.5-.5-1.5-1.5c0-1 .9-1.6 1.9-1.6c1.4 0 2 .9 2.1 1.8h-.7c-.1-.6-.6-1.2-1.3-1.2h-.1c-.8 0-1.2.5-1.2 1c0 .5.3.7 1 .8l.8.2c.8.2 1.4.5 1.4 1.5c0 1-.8 1.6-2 1.6c-1.4 0-2.1-.7-2.2-1.7zm5.8 3.8v-7.7h.8s-.04.9 0 .9c.3-.6 1.1-1 1.8-1c1.4 0 2.4 1.1 2.4 2.9c0 1.7-1 2.8-2.4 2.8c-.7 0-1.5-.4-1.8-1c-.04.04 0 3.1 0 3.1h-.8zm2.6-2.7c1.1 0 1.7-1 1.7-2.2c0-1.2-.6-2.3-1.7-2.3h-.1c-1.2 0-1.7 1.1-1.7 2.3c0 1.2.5 2.2 1.7 2.2h.1zm3.7-2.2c0-2 1.2-2.9 2.5-2.9c1.3 0 2.2 1.1 2.2 2.5v.4s-3.97.02-4 0c.1 1.6.9 2.2 1.8 2.2c.8 0 1.3-.3 1.5-1.1h.7c-.3 1.1-1.1 1.7-2.2 1.7c-1.4 0-2.5-1-2.5-2.8zm4-.6c-.1-1-.6-1.7-1.5-1.7h-.1c-.7 0-1.5.4-1.6 1.7h3.2zm2 .6c0-2 1.2-2.9 2.4-2.9c1.4 0 2.2 1.1 2.2 2.5c.04-.01 0 .4 0 .4c0 0-3.92.02-3.9 0c0 1.6.8 2.2 1.7 2.2h.1c.7 0 1.2-.3 1.4-1.1h.7c-.2 1.1-1.1 1.7-2.2 1.7c-1.4 0-2.4-1-2.4-2.8zm3.9-.6c0-1-.6-1.7-1.4-1.7h-.1c-.7 0-1.5.4-1.7 1.7h3.2zm2 .6c0-1.8 1-2.9 2.5-2.9c.7 0 1.5.4 1.8 1v-3.1h.7v7.7h-.7s.01-.86 0-.9c-.3.6-1.1 1-1.8 1c-1.5 0-2.5-1.1-2.5-2.8zm2.5 2.2c1.2 0 1.8-1 1.8-2.2c0-1.2-.6-2.3-1.8-2.3c-1.2 0-1.8 1.1-1.8 2.3c0 1.2.6 2.2 1.8 2.2zm6.3-1.1h.7c.1.7.6 1.1 1.4 1.1h.1c.8 0 1.3-.4 1.3-1c0-.4-.3-.6-1-.8l-.8-.2c-.8-.2-1.5-.5-1.5-1.5c0-1 .9-1.6 2-1.6c1.3 0 2 .9 2 1.8h-.7c-.1-.6-.5-1.2-1.3-1.2h-.1c-.8 0-1.2.5-1.2 1c0 .5.3.7 1 .8l.9.2c.7.2 1.4.5 1.4 1.5c0 1-.8 1.6-2 1.6c-1.5 0-2.2-.7-2.2-1.7zm5.8 1.6v-5.5h.7s-.01.9 0 .9c.3-.6 1-1 1.8-1c.8 0 1.5.4 1.7 1.2c.4-.8 1.1-1.2 2-1.2c1.1 0 1.9.7 1.9 2c-.04.02 0 3.6 0 3.6h-.8s.05-3.36 0-3.4c0-1.1-.4-1.6-1.2-1.6h-.1c-1.1 0-1.6 1.1-1.6 2.3c-.02-.03 0 2.7 0 2.7h-.7s-.04-3.36 0-3.4c0-1.1-.5-1.6-1.3-1.6h-.1c-1.1 0-1.6 1.1-1.6 2.3v2.7h-.7zm9.6-1.5c0-1.2 1-1.6 1.9-1.6c-.04-.05 1.7-.2 1.7-.2v-.2c0-.9-.5-1.5-1.4-1.5c-.7 0-1.3.4-1.4 1.1h-.7c0-1 .9-1.7 2.1-1.7c1.4 0 2.1 1 2.1 2.1v2.3c0 .3 0 .8.1 1.2h-.7v-.9c-.3.5-1 1-2 1c-1 0-1.7-.7-1.7-1.6zm1.9 1c.8 0 1.7-.6 1.7-1.5v-.7s-1.59.11-1.6.1c-.8.1-1.3.5-1.3 1.1c0 .6.5 1 1.1 1h.1zm4.2.5v-5.5h.7s-.03 1.27 0 1.3c.2-.9.9-1.3 1.7-1.3c-.02-.03.5 0 .5 0v.6s-.47.02-.5 0c-1 0-1.7.9-1.7 2.2c.03.05 0 2.7 0 2.7h-.7zm6.1 0c-.8 0-1.1-.3-1.1-1v-3.9h-1.3v-.6h1.3v-1.8h.7v1.8h1.4v.6h-1.4s.02 3.88 0 3.9c0 .3.1.4.5.4c-.04.02 1.1 0 1.1 0v.6s-1.25.02-1.2 0zm4.7 0v-7.7h.7v7.7h-.7zm2.5-6.5v-.9h.8v.9h-.8zm0 6.5v-5.5h.8v5.5h-.8zm3.3 0v-4.9h-1.3v-.6h1.3s-.04-1.19 0-1.2c0-.7.3-1 1-1c.01.02 1.4 0 1.4 0v.6s-1.28.02-1.3 0c-.3 0-.4.1-.4.5c-.02-.04 0 1.1 0 1.1h1.4v.6h-1.4v4.9h-.7zm5.3 0c-.7 0-1-.3-1-1c-.05.03 0-3.9 0-3.9h-1.3v-.6h1.3v-1.8h.7v1.8h1.3v.6h-1.3s-.04 3.88 0 3.9c0 .3.1.4.4.4c0 .02 1.1 0 1.1 0v.6s-1.21.02-1.2 0zm2.1-1.6h.7c.1.7.7 1.1 1.4 1.1h.1c.8 0 1.3-.4 1.3-1c0-.4-.2-.6-1-.8l-.8-.2c-.8-.2-1.5-.5-1.5-1.5c0-1 .9-1.6 2-1.6c1.4 0 2 .9 2.1 1.8h-.8c0-.6-.5-1.2-1.3-1.2h-.1c-.7 0-1.2.5-1.2 1c0 .5.3.7 1 .8l.9.2c.8.2 1.4.5 1.4 1.5c0 1-.8 1.6-2 1.6c-1.4 0-2.1-.7-2.2-1.7zm7.8.1c0-1.2 1-1.6 1.9-1.6c-.03-.05 1.7-.2 1.7-.2v-.2c0-.9-.5-1.5-1.4-1.5c-.7 0-1.3.4-1.4 1.1h-.7c.1-1 .9-1.7 2.1-1.7c1.4 0 2.1 1 2.1 2.1v2.3c0 .3 0 .8.1 1.2h-.7v-.9c-.3.5-1 1-2 1c-.9 0-1.7-.7-1.7-1.6zm1.9 1c.8 0 1.7-.6 1.7-1.5v-.7s-1.58.11-1.6.1c-.8.1-1.3.5-1.3 1.1c0 .6.5 1 1.1 1h.1zm4.2.5v-5.5h.7s.04.94 0 .9c.4-.6 1.1-1 2-1c1.1 0 1.9.7 1.9 2c-.01.02 0 3.6 0 3.6h-.7s-.02-3.36 0-3.4c0-1.1-.5-1.6-1.3-1.6h-.1c-1.2 0-1.8 1.1-1.8 2.3c.04-.03 0 2.7 0 2.7h-.7zm6.1-2.7c0-1.8 1-2.9 2.5-2.9c.7 0 1.5.4 1.8 1v-3.1h.7v7.7h-.7s-.01-.86 0-.9c-.3.6-1.1 1-1.8 1c-1.5 0-2.5-1.1-2.5-2.8zm2.5 2.2c1.2 0 1.8-1 1.8-2.2c0-1.2-.6-2.3-1.8-2.3c-1.2 0-1.8 1.1-1.8 2.3c0 1.2.6 2.2 1.8 2.2z" stroke="none" fill="#192d39"/></g><g id="Polygon16812"><path d="m12.8 181.6h.8c0 1.1.9 1.8 2.2 1.8h.1c1.2 0 1.8-.7 1.8-1.5c0-.7-.4-1.1-1.4-1.3l-1.2-.2c-1.2-.3-1.9-.9-1.9-2c0-1.3 1-2.2 2.7-2.2c1.6 0 2.6.9 2.7 2.3h-.8c0-1-.8-1.6-1.9-1.6h-.1c-1.1 0-1.8.6-1.8 1.4c0 .7.5 1.1 1.3 1.3l1.2.2c1.3.3 2 .9 2 2.1c0 1.3-1 2.2-2.7 2.2c-1.9 0-3-.9-3-2.5zM22 184c-.7 0-1-.3-1-1c-.04-.02 0-3.9 0-3.9h-1.3v-.6h1.3v-1.8h.7v1.8h1.3v.6h-1.3s-.03 3.83 0 3.8c0 .4.1.5.4.5c.01-.03 1.1 0 1.1 0v.6s-1.2-.03-1.2 0zm2.2-1.5c0-1.3 1-1.6 1.9-1.7l1.7-.1s.03-.25 0-.2c0-1-.5-1.5-1.3-1.5h-.1c-.7 0-1.3.3-1.4 1h-.7c.1-1 .9-1.6 2.1-1.6c1.5 0 2.1.9 2.1 2.1v2.3c0 .3 0 .8.1 1.2h-.7v-.9c-.2.5-1 1-2 1c-.9 0-1.7-.7-1.7-1.6zm1.9 1c.8 0 1.7-.7 1.7-1.5c.03-.01 0-.7 0-.7c0 0-1.56.06-1.6.1c-.7 0-1.3.4-1.3 1c0 .6.5 1.1 1.1 1.1h.1zm5.8.5c-.7 0-1.1-.3-1.1-1c.05-.02 0-3.9 0-3.9h-1.2v-.6h1.2v-1.8h.8v1.8h1.3v.6h-1.3s-.04 3.83 0 3.8c0 .4.1.5.4.5c0-.03 1.1 0 1.1 0v.6s-1.21-.03-1.2 0zm2-2.8c0-1.9 1.2-2.8 2.4-2.8c1.4 0 2.3 1 2.3 2.4c-.04.04 0 .5 0 .5c0 0-4-.03-4 0c0 1.5.8 2.2 1.7 2.2h.1c.7 0 1.2-.4 1.4-1.1h.8c-.3 1.1-1.1 1.7-2.3 1.7c-1.3 0-2.4-1-2.4-2.9zm4-.5c-.1-1-.6-1.7-1.5-1.7h-.1c-.7 0-1.5.4-1.7 1.7h3.3zm4.2.5c0-1.7 1.1-2.8 2.5-2.8c1.4 0 2.5 1.1 2.5 2.8c0 1.7-1.1 2.9-2.5 2.9c-1.4 0-2.5-1.2-2.5-2.9zm2.6 2.3c1 0 1.7-.9 1.7-2.3c0-1.4-.7-2.2-1.7-2.2h-.1c-1 0-1.8.8-1.8 2.2c0 1.4.8 2.3 1.8 2.3h.1zm4.5.5v-4.9h-1.3v-.6h1.3s-.02-1.24 0-1.2c0-.8.3-1 1-1c.02-.03 1.4 0 1.4 0v.6s-1.27-.03-1.3 0c-.3 0-.4.1-.4.4v1.2h1.4v.6h-1.4v4.9h-.7zm7.2 0c-.7 0-1-.3-1-1v-3.9h-1.3v-.6h1.3v-1.8h.7v1.8h1.4v.6h-1.4v3.8c0 .4.1.5.4.5c.05-.03 1.1 0 1.1 0v.6s-1.16-.03-1.2 0zm2.5 0v-7.7h.7v3.1c.4-.6 1.1-1 2-1c1.2 0 1.9.8 1.9 1.9c-.04.04 0 3.7 0 3.7h-.8s.05-3.44 0-3.4c0-1.1-.4-1.6-1.3-1.6h-.1c-.8 0-1.7.7-1.7 2v3h-.7zm6.1-2.8c0-1.9 1.2-2.8 2.4-2.8c1.4 0 2.2 1 2.2 2.4c.05.04 0 .5 0 .5c0 0-3.91-.03-3.9 0c0 1.5.8 2.2 1.7 2.2h.1c.7 0 1.2-.4 1.4-1.1h.7c-.2 1.1-1.1 1.7-2.2 1.7c-1.4 0-2.4-1-2.4-2.9zm3.9-.5c0-1-.6-1.7-1.4-1.7h-.1c-.7 0-1.5.4-1.7 1.7h3.2zm4.3 1.8c0-1.3 1-1.6 1.9-1.7l1.7-.1s.02-.25 0-.2c0-1-.5-1.5-1.4-1.5c-.7 0-1.3.3-1.4 1h-.7c.1-1 .9-1.6 2.1-1.6c1.4 0 2.1.9 2.1 2.1v2.3c0 .3 0 .8.1 1.2h-.7v-.9c-.2.5-1 1-2 1c-.9 0-1.7-.7-1.7-1.6zm1.9 1c.8 0 1.7-.7 1.7-1.5c.02-.01 0-.7 0-.7c0 0-1.58.06-1.6.1c-.8 0-1.3.4-1.3 1c0 .6.5 1.1 1.1 1.1h.1zm4.2.5v-5.5h.7v1.2c.2-.9.9-1.3 1.7-1.3c0 .02.5 0 .5 0v.7s-.45-.03-.4 0c-1.1 0-1.8.8-1.8 2.2c.05 0 0 2.7 0 2.7h-.7zm6.1 0c-.7 0-1.1-.3-1.1-1c.03-.02 0-3.9 0-3.9h-1.2v-.6h1.2v-1.8h.7v1.8h1.4v.6H85s.04 3.83 0 3.8c0 .4.1.5.5.5c-.02-.03 1.1 0 1.1 0v.6s-1.23-.03-1.2 0zm6.3 0c-.7 0-1-.3-1-1c-.04-.02 0-3.9 0-3.9h-1.3v-.6h1.3v-1.8h.7v1.8h1.4v.6h-1.4s-.02 3.83 0 3.8c0 .4.1.5.4.5c.02-.03 1.1 0 1.1 0v.6s-1.19-.03-1.2 0zm2-2.8c0-1.9 1.2-2.8 2.5-2.8c1.3 0 2.2 1 2.2 2.4c-.02.04 0 .5 0 .5c0 0-3.98-.03-4 0c0 1.5.8 2.2 1.7 2.2h.1c.8 0 1.2-.4 1.5-1.1h.7c-.3 1.1-1.1 1.7-2.2 1.7c-1.4 0-2.5-1-2.5-2.9zm4-.5c-.1-1-.6-1.7-1.5-1.7h-.1c-.7 0-1.5.4-1.7 1.7h3.3zm2 .5c0-1.6.9-2.8 2.5-2.8c1.2 0 2 .7 2.1 1.8h-.7c-.1-.7-.6-1.2-1.4-1.2h-.1c-1.2 0-1.7 1-1.7 2.2c0 1.2.5 2.3 1.7 2.3h.1c.8 0 1.3-.6 1.4-1.3h.7c-.2 1.1-.9 1.9-2.1 1.9c-1.6 0-2.5-1.3-2.5-2.9zm6.1 2.8v-7.7h.8s-.04 3.1 0 3.1c.3-.6 1-1 1.9-1c1.3 0 1.9.8 1.9 1.9c.01.04 0 3.7 0 3.7h-.7s-.01-3.44 0-3.4c0-1.1-.4-1.6-1.3-1.6h-.1c-.9 0-1.7.7-1.7 2c-.04 0 0 3 0 3h-.8zm6.4 0v-5.5h.7s.03.89 0 .9c.4-.6 1.1-1 2-1c1.1 0 1.9.7 1.9 2c-.02-.03 0 3.6 0 3.6h-.7s-.03-3.41 0-3.4c0-1.1-.5-1.6-1.4-1.6c-1.2 0-1.8 1-1.8 2.2c.03.02 0 2.8 0 2.8h-.7zm6.1-2.8c0-1.7 1.1-2.8 2.5-2.8c1.4 0 2.5 1.1 2.5 2.8c0 1.7-1.1 2.9-2.5 2.9c-1.4 0-2.5-1.2-2.5-2.9zm2.6 2.3c.9 0 1.7-.9 1.7-2.3c0-1.4-.8-2.2-1.7-2.2h-.2c-.9 0-1.7.8-1.7 2.2c0 1.4.8 2.3 1.7 2.3h.2zm4 .5v-7.7h.7v7.7h-.7zm2.2-2.8c0-1.7 1.1-2.8 2.6-2.8c1.4 0 2.5 1.1 2.5 2.8c0 1.7-1.1 2.9-2.5 2.9c-1.5 0-2.6-1.2-2.6-2.9zm2.6 2.3c1 0 1.8-.9 1.8-2.3c0-1.4-.8-2.2-1.8-2.2h-.1c-1 0-1.8.8-1.8 2.2c0 1.4.8 2.3 1.8 2.3h.1zm3.6 1.2h.7c.2.7.8 1.1 1.7 1.1h.2c.9 0 1.7-.6 1.7-1.9v-.9c-.3.6-.9 1-1.8 1c-1.4 0-2.4-1-2.4-2.8c0-1.7 1-2.8 2.4-2.8c.9 0 1.5.3 1.8.9c.02.05 0-.8 0-.8h.7s.04 5.43 0 5.4c0 1.5-.9 2.5-2.5 2.5c-1.6 0-2.4-.7-2.5-1.7zm2.6-1.3c1 0 1.7-.8 1.7-2.2c0-1.4-.7-2.2-1.7-2.2h-.1c-1 0-1.7.8-1.7 2.2c0 1.4.7 2.2 1.7 2.2h.1zm9-4.9l-2.3 5.3s.05 1.03 0 1c0 .7-.3 1-1 1c.01-.02-1.7 0-1.7 0v-.6s1.6-.02 1.6 0c.3 0 .4-.1.4-.5c.04.04 0-.9 0-.9l-2.3-5.3h.8l1.9 4.4l1.9-4.4h.7zm3.5 5.5v-5.5h.6s.03 1.22 0 1.2c.3-.9 1-1.3 1.7-1.3c.03.02.5 0 .5 0v.7s-.41-.03-.4 0c-1.1 0-1.7.8-1.7 2.2c-.02 0 0 2.7 0 2.7h-.7zm3.6-2.8c0-1.9 1.2-2.8 2.5-2.8c1.3 0 2.2 1 2.2 2.4c-.02.04 0 .5 0 .5c0 0-3.98-.03-4 0c0 1.5.8 2.2 1.8 2.2c.8 0 1.3-.4 1.5-1.1h.7c-.3 1.1-1.1 1.7-2.2 1.7c-1.4 0-2.5-1-2.5-2.9zm4-.5c-.1-1-.6-1.7-1.5-1.7h-.1c-.7 0-1.5.4-1.7 1.7h3.3zm1.9 1.8c0-1.3 1.1-1.6 1.9-1.7l1.8-.1s-.03-.25 0-.2c0-1-.6-1.5-1.4-1.5h-.1c-.7 0-1.3.3-1.3 1h-.7c0-1 .9-1.6 2.1-1.6c1.4 0 2.1.9 2.1 2.1v3.5h-.6c-.1-.3-.1-.6-.1-.9c-.2.5-1 1-1.9 1c-1 0-1.8-.7-1.8-1.6zm2 1c.7 0 1.7-.7 1.7-1.5c-.03-.01 0-.7 0-.7c0 0-1.62.06-1.6.1c-.8 0-1.3.4-1.3 1c0 .6.4 1.1 1.1 1.1h.1zm4.7.5v-4.9h-1.2v-.6h1.2s.05-1.24 0-1.2c0-.8.4-1 1.1-1c-.01-.03 1.4 0 1.4 0v.6s-1.3-.03-1.3 0c-.3 0-.4.1-.4.4c-.04.01 0 1.2 0 1.2h2.9s.03-1.24 0-1.2c0-.8.4-1 1.1-1c-.02-.03 1.4 0 1.4 0v.6s-1.31-.03-1.3 0c-.3 0-.5.1-.5.4c.05.01 0 1.2 0 1.2h3.7v5.5h-.7v-4.9h-3v4.9h-.7v-4.9h-2.9v4.9h-.8zm7.4-6.5v-1h.8v1h-.8zm2.6 6.5v-5.5h.7s-.02 1.22 0 1.2c.2-.9.9-1.3 1.7-1.3c-.02.02.5 0 .5 0v.7s-.46-.03-.5 0c-1 0-1.7.8-1.7 2.2c.03 0 0 2.7 0 2.7h-.7zm4.1 0v-5.5h.7s.02.85 0 .8c.4-.5 1-.9 1.8-.9c.8 0 1.5.4 1.8 1.1c.4-.7 1-1.1 1.9-1.1c1.1 0 1.9.7 1.9 2c-.01-.03 0 3.6 0 3.6h-.7s-.02-3.41 0-3.4c0-1.1-.4-1.6-1.3-1.6h-.1c-1.1 0-1.6 1-1.6 2.2v2.8h-.7s-.01-3.41 0-3.4c0-1.1-.4-1.6-1.3-1.6c-1.1 0-1.7 1-1.7 2.2c.02.02 0 2.8 0 2.8h-.7zm9.5-1.7h.7c.1.8.7 1.2 1.4 1.2h.2c.7 0 1.2-.4 1.2-1c0-.4-.2-.7-1-.9l-.8-.1c-.8-.2-1.5-.6-1.5-1.5c0-1.1.9-1.6 2-1.6c1.4 0 2 .8 2.1 1.7h-.8c0-.6-.5-1.1-1.2-1.1h-.2c-.7 0-1.2.4-1.2.9c0 .5.3.7 1 .9l.9.2c.8.1 1.4.5 1.4 1.4c0 1.1-.8 1.7-2 1.7c-1.4 0-2.1-.8-2.2-1.8zm10.2 1.7v-7h-2.8v-.7h6.4v.7h-2.8v7h-.8zm3.8 0v-5.5h.6s.04 1.22 0 1.2c.3-.9 1-1.3 1.7-1.3c.04.02.5 0 .5 0v.7s-.4-.03-.4 0c-1.1 0-1.7.8-1.7 2.2v2.7h-.7zm4-6.5v-1h.8v1h-.8zm.1 6.5v-5.5h.7v5.5h-.7zm2.5 0v-7.7h.7v7.7h-.7zm2.3-2.8c0-1.7 1.1-2.8 2.5-2.8c1.4 0 2.5 1.1 2.5 2.8c0 1.7-1.1 2.9-2.5 2.9c-1.4 0-2.5-1.2-2.5-2.9zm2.5 2.3c1 0 1.8-.9 1.8-2.3c0-1.4-.8-2.2-1.8-2.2h-.1c-1 0-1.7.8-1.7 2.2c0 1.4.7 2.3 1.7 2.3h.1zm3.7 1.2h.7c.1.7.8 1.1 1.7 1.1h.1c.9 0 1.8-.6 1.8-1.9v-.9c-.4.6-1 1-1.9 1c-1.3 0-2.3-1-2.3-2.8c0-1.7 1-2.8 2.3-2.8c.9 0 1.5.3 1.9.9c-.03.05 0-.8 0-.8h.7s-.02 5.43 0 5.4c0 1.5-1 2.5-2.6 2.5c-1.6 0-2.3-.7-2.4-1.7zm2.6-1.3c1 0 1.7-.8 1.7-2.2c0-1.4-.7-2.2-1.7-2.2h-.1c-1 0-1.7.8-1.7 2.2c0 1.4.7 2.2 1.7 2.2h.1zm9-4.9l-2.3 5.3v1c0 .7-.3 1-1.1 1c.05-.02-1.6 0-1.6 0v-.6s1.54-.02 1.5 0c.4 0 .5-.1.5-.5c-.02.04 0-.9 0-.9l-2.4-5.3h.8l1.9 4.4l1.9-4.4h.8zm3.1 4c0-1.3 1-1.6 1.9-1.7l1.7-.1s.02-.25 0-.2c0-1-.5-1.5-1.4-1.5c-.7 0-1.3.3-1.4 1h-.7c.1-1 .9-1.6 2.1-1.6c1.4 0 2.1.9 2.1 2.1v2.3c0 .3 0 .8.1 1.2h-.7v-.9c-.2.5-1 1-2 1c-.9 0-1.7-.7-1.7-1.6zm1.9 1c.8 0 1.7-.7 1.7-1.5c.02-.01 0-.7 0-.7c0 0-1.57.06-1.6.1c-.8 0-1.3.4-1.3 1c0 .6.5 1.1 1.1 1.1h.1zm3.8-1.2h.8c0 .8.6 1.2 1.4 1.2h.1c.8 0 1.2-.4 1.2-1c0-.4-.2-.7-.9-.9l-.8-.1c-.9-.2-1.5-.6-1.5-1.5c0-1.1.9-1.6 1.9-1.6c1.4 0 2 .8 2.1 1.7h-.7c-.1-.6-.5-1.1-1.3-1.1h-.1c-.8 0-1.2.4-1.2.9c0 .5.3.7 1 .9l.8.2c.8.1 1.4.5 1.4 1.4c0 1.1-.8 1.7-2 1.7c-1.4 0-2.1-.8-2.2-1.8zm7.8.2c0-1.3 1.1-1.6 1.9-1.7l1.8-.1s-.05-.25 0-.2c0-1-.6-1.5-1.4-1.5h-.1c-.7 0-1.3.3-1.4 1h-.7c.1-1 1-1.6 2.1-1.6c1.5 0 2.2.9 2.2 2.1v3.5h-.6c-.1-.3-.1-.6-.1-.9c-.2.5-1 1-1.9 1c-1 0-1.8-.7-1.8-1.6zm1.9 1c.8 0 1.8-.7 1.8-1.5c-.05-.01 0-.7 0-.7c0 0-1.64.06-1.6.1c-.8 0-1.4.4-1.4 1c0 .6.5 1.1 1.1 1.1h.1zm6.6.5v-5.5h.7v.8c.3-.5 1-.9 1.8-.9c.8 0 1.5.4 1.8 1.1c.3-.7 1-1.1 1.9-1.1c1.1 0 1.9.7 1.9 2c-.02-.03 0 3.6 0 3.6h-.7s-.04-3.41 0-3.4c0-1.1-.5-1.6-1.3-1.6h-.1c-1.1 0-1.6 1-1.6 2.2v2.8h-.7s-.02-3.41 0-3.4c0-1.1-.4-1.6-1.3-1.6h-.1c-1.1 0-1.6 1-1.6 2.2v2.8h-.7zm9.6-1.5c0-1.3 1-1.6 1.9-1.7l1.7-.1s.02-.25 0-.2c0-1-.5-1.5-1.4-1.5c-.7 0-1.3.3-1.4 1h-.7c.1-1 .9-1.6 2.1-1.6c1.4 0 2.1.9 2.1 2.1v2.3c0 .3 0 .8.1 1.2h-.7v-.9c-.2.5-1 1-2 1c-.9 0-1.7-.7-1.7-1.6zm1.9 1c.8 0 1.7-.7 1.7-1.5c.02-.01 0-.7 0-.7c0 0-1.58.06-1.6.1c-.8 0-1.3.4-1.3 1c0 .6.5 1.1 1.1 1.1h.1zm4.2.5v-5.5h.7v1.2c.2-.9.9-1.3 1.7-1.3c0 .02.5 0 .5 0v.7s-.45-.03-.4 0c-1.1 0-1.8.8-1.8 2.2c.05 0 0 2.7 0 2.7h-.7zm4.1 0v-7.7h.7v5l3-2.8h.9l-2.2 2.2l2.4 3.3h-.9l-2.1-2.8l-1.1 1v1.8h-.7zm5.3-2.8c0-1.9 1.2-2.8 2.5-2.8c1.3 0 2.2 1 2.2 2.4v.5s-3.97-.03-4 0c.1 1.5.9 2.2 1.8 2.2c.8 0 1.3-.4 1.5-1.1h.7c-.3 1.1-1.1 1.7-2.2 1.7c-1.4 0-2.5-1-2.5-2.9zm4-.5c-.1-1-.6-1.7-1.5-1.7h-.1c-.7 0-1.5.4-1.6 1.7h3.2zm3.8 3.3c-.7 0-1-.3-1-1v-3.9h-1.3v-.6h1.3v-1.8h.7v1.8h1.4v.6h-1.4v3.8c0 .4.1.5.4.5c.05-.03 1.1 0 1.1 0v.6s-1.16-.03-1.2 0z" stroke="none" fill="#192d39"/></g><g id="Polygon16811"><path d="m13.9 159.8v-4.9h-1.3v-.6h1.3s-.03-1.26 0-1.3c0-.7.3-.9 1-.9c.01-.05 1.4 0 1.4 0v.6s-1.28-.04-1.3 0c-.3 0-.4.1-.4.4c-.02 0 0 1.2 0 1.2h1.4v.6h-1.4v4.9h-.7zm2.8-2.8c0-1.7 1.1-2.9 2.5-2.9c1.4 0 2.5 1.2 2.5 2.9c0 1.7-1.1 2.9-2.5 2.9c-1.4 0-2.5-1.2-2.5-2.9zm2.5 2.3c1 0 1.8-.9 1.8-2.3c0-1.4-.8-2.3-1.8-2.3h-.1c-1 0-1.7.9-1.7 2.3c0 1.4.7 2.3 1.7 2.3h.1zm3.9.5v-5.5h.7v1.2c.3-.9.9-1.3 1.7-1.3h.5v.7s-.44-.04-.4 0c-1.1 0-1.7.8-1.7 2.2c-.04-.02 0 2.7 0 2.7h-.8zm10.9-5.5l-2.3 5.3v1c0 .7-.3 1-1 1c-.04-.03-1.7 0-1.7 0v-.6s1.55-.04 1.5 0c.4 0 .5-.1.5-.5c-.01.02 0-.9 0-.9l-2.3-5.3h.7l1.9 4.4l1.9-4.4h.8zm.5 2.7c0-1.7 1.1-2.9 2.5-2.9c1.5 0 2.6 1.2 2.6 2.9c0 1.7-1.1 2.9-2.6 2.9c-1.4 0-2.5-1.2-2.5-2.9zm2.6 2.3c1 0 1.8-.9 1.8-2.3c0-1.4-.8-2.3-1.8-2.3h-.1c-1 0-1.8.9-1.8 2.3c0 1.4.8 2.3 1.8 2.3h.1zm3.9-1.4c-.05-.02 0-3.6 0-3.6h.7s-.03 3.36 0 3.4c0 1 .4 1.6 1.3 1.6h.1c.8 0 1.6-.8 1.6-2.1v-2.9h.7v5.5h-.7s-.01-1.08 0-1.1c-.3.7-.9 1.2-1.8 1.2c-1.3 0-1.9-.9-1.9-2zm8 .3c0-1.2 1.1-1.5 1.9-1.6l1.8-.1s-.02-.27 0-.3c0-.9-.5-1.5-1.4-1.5h-.1c-.7 0-1.3.4-1.3 1.1h-.7c0-1 .9-1.7 2.1-1.7c1.4 0 2.1 1 2.1 2.1v3.6h-.6c-.1-.3-.1-.6-.1-.9c-.2.5-.9 1-1.9 1c-1 0-1.8-.7-1.8-1.7zm2 1.1c.7 0 1.7-.7 1.7-1.5c-.02-.03 0-.8 0-.8c0 0-1.62.15-1.6.1c-.8.1-1.3.5-1.3 1.1c0 .6.4 1.1 1.1 1.1h.1zm4.1.5v-5.5h.7v.9c.3-.6 1-1.1 1.9-1.1c1.1 0 1.9.7 1.9 2.1c.05-.04 0 3.6 0 3.6h-.7s.03-3.42 0-3.4c0-1.1-.4-1.7-1.3-1.7h-.1c-1.1 0-1.7 1.1-1.7 2.3v2.8h-.7zM61 157c0-1.8 1.1-2.9 2.5-2.9c.7 0 1.5.4 1.8 1c.04.03 0-3 0-3h.8v7.7h-.8s.04-.93 0-.9c-.3.6-1.1 1-1.8 1c-1.4 0-2.5-1.1-2.5-2.9zm2.6 2.3c1.2 0 1.7-1.1 1.7-2.3c0-1.2-.5-2.3-1.7-2.3h-.1c-1.2 0-1.7 1.1-1.7 2.3c0 1.2.5 2.3 1.7 2.3h.1zm11.1-5l-2.3 5.3s.03 1.01 0 1c0 .7-.3 1-1 1c-.01-.03-1.7 0-1.7 0v-.6s1.58-.04 1.6 0c.3 0 .4-.1.4-.5c.02.02 0-.9 0-.9l-2.3-5.3h.8l1.9 4.4l1.8-4.4h.8zm.5 2.7c0-1.7 1.2-2.9 2.6-2.9c1.4 0 2.5 1.2 2.5 2.9c0 1.7-1.1 2.9-2.5 2.9c-1.4 0-2.6-1.2-2.6-2.9zm2.6 2.3c1 0 1.8-.9 1.8-2.3c0-1.4-.8-2.3-1.8-2.3h-.1c-1 0-1.7.9-1.7 2.3c0 1.4.7 2.3 1.7 2.3h.1zm3.9-1.4c-.01-.02 0-3.6 0-3.6h.7v3.4c0 1 .4 1.6 1.3 1.6h.1c.8 0 1.6-.8 1.6-2.1c.03.02 0-2.9 0-2.9h.7v5.5h-.7s.03-1.08 0-1.1c-.3.7-.9 1.2-1.8 1.2c-1.2 0-1.9-.9-1.9-2zm6.2 1.9v-5.5h.6s.03 1.21 0 1.2c.3-.9 1-1.3 1.7-1.3h.5v.7s-.41-.04-.4 0c-1.1 0-1.7.8-1.7 2.2v2.7h-.7zm5.7.7h.7c.1.7.8 1.1 1.7 1.1h.1c.9 0 1.8-.6 1.8-1.9v-.9c-.3.6-1 1-1.8 1c-1.4 0-2.4-1-2.4-2.8c0-1.8 1-2.9 2.4-2.9c.8 0 1.5.4 1.8 1c-.02.03 0-.8 0-.8h.7v5.4c0 1.4-.9 2.5-2.5 2.5c-1.6 0-2.4-.7-2.5-1.7zm2.6-1.4c1 0 1.7-.7 1.7-2.1c0-1.4-.7-2.3-1.7-2.3h-.1c-1 0-1.7.9-1.7 2.3c0 1.4.7 2.1 1.7 2.1h.1zm4.1-1.2v-3.6h.7s.01 3.36 0 3.4c0 1 .5 1.6 1.3 1.6h.1c.8 0 1.6-.8 1.6-2.1c.04.02 0-2.9 0-2.9h.8v5.5h-.8s.04-1.08 0-1.1c-.2.7-.9 1.2-1.8 1.2c-1.2 0-1.9-.9-1.9-2zm5.9-.9c0-1.9 1.2-2.9 2.4-2.9c1.4 0 2.3 1.1 2.3 2.5c-.03.02 0 .5 0 .5c0 0-3.99-.04-4 0c0 1.5.8 2.2 1.7 2.2h.1c.8 0 1.2-.4 1.4-1.1h.8c-.3 1.1-1.1 1.7-2.3 1.7c-1.3 0-2.4-1-2.4-2.9zm4-.5c-.1-1-.6-1.8-1.5-1.8h-.1c-.7 0-1.5.4-1.7 1.8h3.3zm1.8 1.6h.7c0 .8.6 1.2 1.4 1.2h.1c.8 0 1.2-.4 1.2-1c0-.5-.2-.7-.9-.9l-.8-.2c-.8-.1-1.5-.5-1.5-1.4c0-1.1.9-1.7 1.9-1.7c1.4 0 2.1.9 2.1 1.8h-.7c-.1-.6-.5-1.2-1.3-1.2h-.1c-.8 0-1.2.5-1.2 1c0 .5.3.7 1 .9l.9.2c.7.1 1.4.5 1.4 1.4c0 1.1-.8 1.7-2.1 1.7c-1.4 0-2.1-.8-2.1-1.8zm7.3 1.7c-.7 0-1-.3-1-1v-3.9H117v-.6h1.3v-1.8h.7v1.8h1.4v.6H119v3.8c0 .3.1.4.4.4c.04.05 1.1 0 1.1 0v.7s-1.17-.05-1.2 0zm2-1.7h.7c.1.8.7 1.2 1.5 1.2h.1c.7 0 1.2-.4 1.2-1c0-.5-.2-.7-.9-.9l-.9-.2c-.8-.1-1.4-.5-1.4-1.4c0-1.1.9-1.7 1.9-1.7c1.4 0 2 .9 2.1 1.8h-.7c-.1-.6-.6-1.2-1.3-1.2h-.1c-.8 0-1.2.5-1.2 1c0 .5.3.7 1 .9l.8.2c.8.1 1.4.5 1.4 1.4c0 1.1-.8 1.7-2 1.7c-1.4 0-2.1-.8-2.2-1.8zm5.7 1.7v-1.1h1.1v1.1H127z" stroke="none" fill="#192d39"/></g><g id="Polygon16810"><path d="m13.4 144.6v-7.7h.8v7.7h-.8zm2.7 0v-5.5h.7s.01.88 0 .9c.3-.6 1-1 1.8-1c.8 0 1.5.4 1.8 1.1c.4-.7 1-1.1 1.9-1.1c1.1 0 1.9.7 1.9 2c-.02.01 0 3.6 0 3.6h-.7s-.03-3.37 0-3.4c0-1.1-.4-1.6-1.3-1.6h-.1c-1.1 0-1.6 1.1-1.6 2.3v2.7h-.7s-.01-3.37 0-3.4c0-1.1-.4-1.6-1.3-1.6c-1.2 0-1.7 1.1-1.7 2.3v2.7h-.7zm9.8 2.2v-7.7h.7s.01.88 0 .9c.3-.6 1.1-1 1.9-1c1.4 0 2.4 1.1 2.4 2.9c0 1.7-1 2.8-2.4 2.8c-.8 0-1.6-.4-1.9-1v3.1h-.7zm2.5-2.7c1.2 0 1.8-1.1 1.8-2.2c0-1.2-.6-2.3-1.8-2.3c-1.2 0-1.8 1.1-1.8 2.3c0 1.1.6 2.2 1.8 2.2zm3.9.5v-5.5h.7v1.3c.3-.9 1-1.4 1.7-1.4c.01.05.5 0 .5 0v.7h-.4c-1.1 0-1.7.8-1.7 2.2c-.04.03 0 2.7 0 2.7h-.8zm3.6-2.8c0-1.9 1.2-2.8 2.4-2.8c1.4 0 2.3 1.1 2.3 2.5c-.05-.03 0 .4 0 .4h-4c0 1.6.8 2.2 1.7 2.2h.1c.7 0 1.2-.3 1.4-1.1h.7c-.2 1.1-1 1.7-2.2 1.7c-1.3 0-2.4-1-2.4-2.9zm3.9-.5c0-1-.6-1.7-1.4-1.7h-.1c-.7 0-1.5.4-1.7 1.7h3.2zm1.8 1.7h.8c0 .7.6 1.1 1.4 1.1h.1c.8 0 1.2-.4 1.2-1c0-.4-.2-.7-.9-.8l-.8-.2c-.9-.2-1.5-.6-1.5-1.5c0-1 .9-1.6 1.9-1.6c1.4 0 2 .9 2.1 1.8h-.7c-.1-.7-.6-1.2-1.3-1.2h-.1c-.8 0-1.2.5-1.2.9c0 .5.3.8 1 .9l.8.2c.8.2 1.4.5 1.4 1.5c0 1-.8 1.6-2 1.6c-1.4 0-2.1-.7-2.2-1.7zm5.4 0h.7c0 .7.6 1.1 1.4 1.1h.1c.8 0 1.2-.4 1.2-1c0-.4-.2-.7-.9-.8l-.8-.2c-.8-.2-1.5-.6-1.5-1.5c0-1 .9-1.6 1.9-1.6c1.4 0 2.1.9 2.1 1.8h-.7c-.1-.7-.5-1.2-1.3-1.2h-.1c-.8 0-1.2.5-1.2.9c0 .5.3.8 1 .9l.8.2c.8.2 1.5.5 1.5 1.5c0 1-.8 1.6-2.1 1.6c-1.4 0-2.1-.7-2.1-1.7zm5.6-4.9v-.9h.8v.9h-.8zm0 6.5v-5.5h.8v5.5h-.8zm6.2-5.5h.8l-2.1 5.5h-.9l-2.1-5.5h.7L57 144l1.8-4.9zm1.4 2.7c0-1.9 1.2-2.8 2.5-2.8c1.3 0 2.2 1.1 2.2 2.5v.4h-4c0 1.6.9 2.2 1.8 2.2c.8 0 1.3-.3 1.5-1.1h.7c-.3 1.1-1.1 1.7-2.2 1.7c-1.4 0-2.5-1-2.5-2.9zm4-.5c-.1-1-.6-1.7-1.5-1.7h-.1c-.7 0-1.5.4-1.7 1.7h3.3zm4 .6c0-1.8 1-2.9 2.5-2.9c.7 0 1.5.4 1.8 1v-3.1h.7v7.7h-.7s-.01-.88 0-.9c-.3.6-1.1 1-1.8 1c-1.5 0-2.5-1.1-2.5-2.8zm2.5 2.2c1.2 0 1.8-1.1 1.8-2.2c0-1.2-.6-2.3-1.8-2.3c-1.2 0-1.8 1.1-1.8 2.3c0 1.1.6 2.2 1.8 2.2zm3.9-2.2c0-1.8 1.1-2.9 2.6-2.9c1.4 0 2.5 1.1 2.5 2.9c0 1.7-1.1 2.8-2.5 2.8c-1.5 0-2.6-1.1-2.6-2.8zm2.6 2.2c1 0 1.8-.8 1.8-2.2c0-1.5-.8-2.3-1.8-2.3h-.1c-1 0-1.7.8-1.7 2.3c0 1.4.7 2.2 1.7 2.2h.1zm3.9-1.4c-.04.03 0-3.6 0-3.6h.7s-.02 3.41 0 3.4c0 1.1.4 1.6 1.3 1.6h.1c.8 0 1.6-.8 1.6-2v-3h.7v5.5h-.7v-1c-.3.7-.9 1.1-1.8 1.1c-1.3 0-1.9-.8-1.9-2zm6.9 1c-.03.02 0 .9 0 .9h-.7v-7.7h.7s-.03 3.08 0 3.1c.3-.6 1.1-1 1.8-1c1.4 0 2.5 1.1 2.5 2.9c0 1.7-1.1 2.8-2.5 2.8c-.7 0-1.5-.4-1.8-1zm1.8.4c1.2 0 1.7-1.1 1.7-2.2c0-1.2-.5-2.3-1.7-2.3h-.1c-1.2 0-1.7 1.1-1.7 2.3c0 1.1.5 2.2 1.7 2.2h.1zm3.9.5v-7.7h.7v7.7h-.7zm2.2-2.8c0-1.9 1.2-2.8 2.4-2.8c1.4 0 2.2 1.1 2.2 2.5c.04-.03 0 .4 0 .4h-3.9c0 1.6.8 2.2 1.7 2.2h.1c.7 0 1.2-.3 1.4-1.1h.7c-.2 1.1-1.1 1.7-2.2 1.7c-1.4 0-2.4-1-2.4-2.9zm3.9-.5c0-1-.6-1.7-1.4-1.7h-.1c-.7 0-1.5.4-1.7 1.7h3.2zm2 .3v-.6h2.8v.6h-2.8zm4.2 3v-7.7h.8s-.05 3.14 0 3.1c.3-.6 1-1 1.9-1c1.3 0 1.9.8 1.9 2v3.6h-.7s-.01-3.41 0-3.4c0-1.1-.5-1.6-1.3-1.6h-.1c-.9 0-1.7.8-1.7 2c-.05.03 0 3 0 3h-.8zm6-2.8c0-1.9 1.2-2.8 2.5-2.8c1.3 0 2.2 1.1 2.2 2.5c-.02-.03 0 .4 0 .4h-4c0 1.6.8 2.2 1.7 2.2h.1c.8 0 1.2-.3 1.5-1.1h.7c-.3 1.1-1.1 1.7-2.2 1.7c-1.4 0-2.5-1-2.5-2.9zm4-.5c-.1-1-.6-1.7-1.5-1.7h-.1c-.7 0-1.5.4-1.7 1.7h3.3zm2.1-3.2v-.9h.8v.9h-.8zm0 6.5v-5.5h.8v5.5h-.8zm2.1.8h.7c.1.7.8 1 1.7 1h.1c.9 0 1.8-.5 1.8-1.9v-.9c-.4.6-1 1-1.8 1c-1.4 0-2.4-1-2.4-2.7c0-1.8 1-2.9 2.4-2.9c.8 0 1.4.4 1.8 1c-.02-.02 0-.9 0-.9h.7v5.5c0 1.4-1 2.4-2.5 2.4c-1.6 0-2.4-.7-2.5-1.6zm2.6-1.4c1 0 1.7-.8 1.7-2.1c0-1.4-.7-2.3-1.7-2.3h-.1c-1 0-1.7.9-1.7 2.3c0 1.3.7 2.1 1.7 2.1h.1zm4.1.6v-7.7h.7s.04 3.14 0 3.1c.4-.6 1.1-1 2-1c1.2 0 1.9.8 1.9 2c-.01-.03 0 3.6 0 3.6h-.7s-.02-3.41 0-3.4c0-1.1-.5-1.6-1.3-1.6h-.2c-.8 0-1.7.8-1.7 2c.04.03 0 3 0 3h-.7zm7.9 0c-.7 0-1.1-.3-1.1-1c.02.01 0-3.9 0-3.9h-1.2v-.6h1.2v-1.8h.7v1.8h1.4v.6h-1.4s.04 3.86 0 3.9c0 .3.1.4.5.4h1.1v.6h-1.2zm4.5 0v-7.7h.7v7.7h-.7zm2.1-2.7c0-1.8 1.1-2.9 2.6-2.9c1.4 0 2.5 1.1 2.5 2.9c0 1.7-1.1 2.8-2.5 2.8c-1.5 0-2.6-1.1-2.6-2.8zm2.6 2.2c1 0 1.8-.8 1.8-2.2c0-1.5-.8-2.3-1.8-2.3h-.1c-1 0-1.7.8-1.7 2.3c0 1.4.7 2.2 1.7 2.2h.1zm4.6-.4c.02.02 0 .9 0 .9h-.7v-7.7h.7s.02 3.08 0 3.1c.4-.6 1.1-1 1.9-1c1.4 0 2.4 1.1 2.4 2.9c0 1.7-1 2.8-2.4 2.8c-.8 0-1.5-.4-1.9-1zm1.8.4c1.2 0 1.8-1.1 1.8-2.2c0-1.2-.6-2.3-1.8-2.3c-1.2 0-1.8 1.1-1.8 2.3c0 1.1.6 2.2 1.8 2.2zm4.7-.4c-.03.02 0 .9 0 .9h-.7v-7.7h.7s-.03 3.08 0 3.1c.3-.6 1.1-1 1.8-1c1.4 0 2.5 1.1 2.5 2.9c0 1.7-1.1 2.8-2.5 2.8c-.7 0-1.5-.4-1.8-1zm1.8.4c1.2 0 1.7-1.1 1.7-2.2c0-1.2-.5-2.3-1.7-2.3h-.1c-1.2 0-1.7 1.1-1.7 2.3c0 1.1.5 2.2 1.7 2.2h.1zm3.8-6v-.9h.9v.9h-.9zm.1 6.5v-5.5h.7v5.5h-.7zm2.1-2.8c0-1.9 1.2-2.8 2.5-2.8c1.3 0 2.2 1.1 2.2 2.5v.4h-3.9c0 1.6.8 2.2 1.7 2.2c.8 0 1.3-.3 1.5-1.1h.7c-.2 1.1-1.1 1.7-2.2 1.7c-1.4 0-2.5-1-2.5-2.9zm4-.5c0-1-.6-1.7-1.5-1.7h-.1c-.7 0-1.5.4-1.6 1.7h3.2zm1.8 1.7h.7c.1.7.7 1.1 1.4 1.1h.1c.8 0 1.3-.4 1.3-1c0-.4-.2-.7-1-.8l-.8-.2c-.8-.2-1.5-.6-1.5-1.5c0-1 .9-1.6 2-1.6c1.4 0 2 .9 2.1 1.8h-.8c0-.7-.5-1.2-1.3-1.2h-.1c-.7 0-1.2.5-1.2.9c0 .5.3.8 1 .9l.9.2c.8.2 1.4.5 1.4 1.5c0 1-.8 1.6-2 1.6c-1.4 0-2.1-.7-2.2-1.7zm7.9 1.6v-7.7h.7v3.1c.4-.6 1-1 2-1c1.2 0 1.8.8 1.8 2c.04-.03 0 3.6 0 3.6h-.7s.03-3.41 0-3.4c0-1.1-.4-1.6-1.3-1.6h-.1c-.8 0-1.7.8-1.7 2v3h-.7zm5.9-2.8c0-1.9 1.2-2.8 2.5-2.8c1.3 0 2.2 1.1 2.2 2.5c.02-.03 0 .4 0 .4h-3.9c0 1.6.8 2.2 1.7 2.2c.8 0 1.3-.3 1.5-1.1h.7c-.2 1.1-1.1 1.7-2.2 1.7c-1.4 0-2.5-1-2.5-2.9zm4-.5c0-1-.6-1.7-1.5-1.7h-.1c-.7 0-1.5.4-1.6 1.7h3.2zm2.2 3.3v-5.5h.6s.04 1.26 0 1.3c.3-.9 1-1.4 1.7-1.4c.05.05.5 0 .5 0v.7h-.4c-1.1 0-1.7.8-1.7 2.2v2.7h-.7zm3.6-1.5c0-1.2 1.1-1.6 1.9-1.7c.03.04 1.8-.1 1.8-.1c0 0-.04-.22 0-.2c0-1-.6-1.5-1.4-1.5h-.1c-.7 0-1.3.3-1.3 1h-.8c.1-.9 1-1.6 2.2-1.6c1.4 0 2.1 1 2.1 2.1v3.5h-.6c-.1-.2-.1-.6-.1-.9c-.2.5-1 1-1.9 1c-1 0-1.8-.7-1.8-1.6zm2 1c.7 0 1.7-.7 1.7-1.5c-.04.02 0-.7 0-.7l-1.6.1c-.8.1-1.4.4-1.4 1c0 .6.5 1.1 1.1 1.1h.2zm4.1.5v-7.7h.7v7.7h-.7zm2.1-2.7c0-1.8 1.1-2.9 2.5-2.9c.7 0 1.5.4 1.8 1c.02-.02 0-3.1 0-3.1h.7v7.7h-.7s.02-.88 0-.9c-.3.6-1.1 1-1.8 1c-1.4 0-2.5-1.1-2.5-2.8zm2.6 2.2c1.2 0 1.7-1.1 1.7-2.2c0-1.2-.5-2.3-1.7-2.3h-.1c-1.2 0-1.7 1.1-1.7 2.3c0 1.1.5 2.2 1.7 2.2h.1zm6.1-1c0-1.2 1-1.6 1.9-1.7c-.03.04 1.7-.1 1.7-.1v-.2c0-1-.5-1.5-1.4-1.5c-.7 0-1.3.3-1.4 1h-.7c.1-.9.9-1.6 2.1-1.6c1.4 0 2.1 1 2.1 2.1v2.3c0 .3 0 .8.1 1.2h-.7v-.9c-.3.5-1 1-2 1c-1 0-1.7-.7-1.7-1.6zm1.9 1c.8 0 1.7-.7 1.7-1.5v-.7l-1.6.1c-.8.1-1.3.4-1.3 1c0 .6.5 1.1 1.1 1.1h.1zm5.9 1.3h.7c.1.7.8 1 1.7 1h.1c1 0 1.8-.5 1.8-1.9v-.9c-.3.6-.9 1-1.8 1c-1.4 0-2.4-1-2.4-2.7c0-1.8 1-2.9 2.4-2.9c.9 0 1.5.4 1.8 1v-.9h.7v5.5c0 1.4-.9 2.4-2.5 2.4c-1.6 0-2.4-.7-2.5-1.6zm2.6-1.4c1 0 1.7-.8 1.7-2.1c0-1.4-.7-2.3-1.7-2.3h-.1c-1 0-1.7.9-1.7 2.3c0 1.3.7 2.1 1.7 2.1h.1zm4.1.6v-5.5h.7v1.3c.3-.9 1-1.4 1.7-1.4c.01.05.5 0 .5 0v.7h-.4c-1.1 0-1.7.8-1.7 2.2c-.04.03 0 2.7 0 2.7h-.8zm3.7-1.5c0-1.2 1-1.6 1.9-1.7c-.01.04 1.7-.1 1.7-.1c0 0 .03-.22 0-.2c0-1-.5-1.5-1.3-1.5h-.1c-.7 0-1.3.3-1.4 1h-.7c.1-.9.9-1.6 2.1-1.6c1.5 0 2.1 1 2.1 2.1v2.3c0 .3 0 .8.1 1.2h-.7v-.9c-.2.5-1 1-2 1c-.9 0-1.7-.7-1.7-1.6zm1.9 1c.8 0 1.7-.7 1.7-1.5c.03.02 0-.7 0-.7l-1.6.1c-.7.1-1.3.4-1.3 1c0 .6.5 1.1 1.1 1.1h.1zm4.1.5v-5.5h.7s.05.93 0 .9c.4-.6 1.1-1 2-1c1.1 0 1.9.7 1.9 2v3.6h-.7s-.02-3.37 0-3.4c0-1.1-.5-1.6-1.3-1.6h-.1c-1.2 0-1.8 1.1-1.8 2.3c.05-.05 0 2.7 0 2.7h-.7zm6-2.7c0-1.8 1-2.9 2.5-2.9c.7 0 1.5.4 1.8 1v-3.1h.7v7.7h-.7s-.01-.88 0-.9c-.3.6-1.1 1-1.8 1c-1.5 0-2.5-1.1-2.5-2.8zm2.5 2.2c1.2 0 1.8-1.1 1.8-2.2c0-1.2-.6-2.3-1.8-2.3c-1.2 0-1.8 1.1-1.8 2.3c0 1.1.6 2.2 1.8 2.2zm6.1-1c0-1.2 1.1-1.6 1.9-1.7c.04.04 1.8-.1 1.8-.1c0 0-.03-.22 0-.2c0-1-.6-1.5-1.4-1.5h-.1c-.7 0-1.3.3-1.3 1h-.7c0-.9.9-1.6 2.1-1.6c1.4 0 2.1 1 2.1 2.1v3.5h-.6c-.1-.2-.1-.6-.1-.9c-.2.5-1 1-1.9 1c-1 0-1.8-.7-1.8-1.6zm2 1c.7 0 1.7-.7 1.7-1.5c-.03.02 0-.7 0-.7l-1.6.1c-.8.1-1.3.4-1.3 1c0 .6.4 1.1 1.1 1.1h.1zm4.1.5v-5.5h.6s.04 1.26 0 1.3c.3-.9 1-1.4 1.7-1.4c.04.05.5 0 .5 0v.7h-.4c-1.1 0-1.7.8-1.7 2.2v2.7h-.7zm4 0v-5.5h.6s.02 1.26 0 1.3c.3-.9 1-1.4 1.7-1.4c.02.05.5 0 .5 0v.7h-.4c-1.1 0-1.7.8-1.7 2.2c-.03.03 0 2.7 0 2.7h-.7zm3.9-6.5v-.9h.8v.9h-.8zm0 6.5v-5.5h.8v5.5h-.8zm6.2-5.5h.8l-2.1 5.5h-.9l-2.1-5.5h.7l1.8 4.9l1.8-4.9zm1.5 4c0-1.2 1-1.6 1.9-1.7c-.02.04 1.7-.1 1.7-.1c0 0 .02-.22 0-.2c0-1-.5-1.5-1.4-1.5c-.7 0-1.3.3-1.4 1h-.7c.1-.9.9-1.6 2.1-1.6c1.4 0 2.1 1 2.1 2.1v2.3c0 .3 0 .8.1 1.2h-.7v-.9c-.2.5-1 1-2 1c-.9 0-1.7-.7-1.7-1.6zm1.9 1c.8 0 1.7-.7 1.7-1.5c.02.02 0-.7 0-.7l-1.6.1c-.8.1-1.3.4-1.3 1c0 .6.5 1.1 1.1 1.1h.1zm4.1.5v-7.7h.7v7.7h-.7z" stroke="none" fill="#192d39"/></g><g id="Polygon16809"><path d="m12.9 112.3c0-1.2 1.1-1.6 1.9-1.6c.02-.03 1.8-.2 1.8-.2c0 0-.04-.19 0-.2c0-.9-.6-1.5-1.4-1.5h-.1c-.7 0-1.3.4-1.3 1.1h-.8c.1-1 1-1.7 2.2-1.7c1.4 0 2.1 1 2.1 2.1v3.5h-.6c-.1-.2-.1-.5-.1-.8c-.2.5-1 .9-1.9.9c-1 0-1.8-.6-1.8-1.6zm2 1c.7 0 1.7-.6 1.7-1.4c-.04-.05 0-.8 0-.8c0 0-1.64.13-1.6.1c-.8.1-1.4.5-1.4 1.1c0 .6.5 1 1.1 1h.2zm6.5.5v-7.7s3.18.03 3.2 0c1.2 0 2.1.8 2.1 2c0 .9-.6 1.6-1.2 1.8c.6.1 1.4.7 1.4 1.8c0 1.3-1 2.1-2.2 2.1c-.04.03-3.3 0-3.3 0zm.7-4.2s2.4-.02 2.4 0c.8 0 1.4-.5 1.4-1.4c0-.9-.6-1.4-1.4-1.4c0 .05-2.4 0-2.4 0v2.8zm0 3.5s2.39.02 2.4 0c.9 0 1.6-.5 1.6-1.4c0-.9-.7-1.4-1.6-1.4h-2.4v2.8zm6.5.7v-7.7s3.19.03 3.2 0c1.2 0 2.1.8 2.1 2c0 .9-.6 1.6-1.2 1.8c.6.1 1.4.7 1.4 1.8c0 1.3-1 2.1-2.2 2.1c-.03.03-3.3 0-3.3 0zm.8-4.2s2.32-.02 2.3 0c.8 0 1.4-.5 1.4-1.4c0-.9-.6-1.4-1.4-1.4c.02.05-2.3 0-2.3 0v2.8zm0 3.5s2.31.02 2.3 0c.9 0 1.6-.5 1.6-1.4c0-.9-.6-1.4-1.6-1.4h-2.3v2.8zm9.8 1.4c0 .4.2.5.6.5c-.02.04 1.6 0 1.6 0v.8s-1.78-.04-1.8 0c-.8 0-1.1-.4-1.1-1.2v-.7c-1.9-.1-3.2-1.6-3.2-3.9c0-2.5 1.5-4 3.5-4c2.1 0 3.6 1.5 3.6 4c0 2.3-1.4 3.7-3.2 3.9v.6zm-.4-1.3h.1c1.6 0 2.7-1.2 2.7-3.2c0-2-1.1-3.3-2.7-3.3h-.1c-1.6 0-2.7 1.3-2.7 3.3c0 2 1.1 3.2 2.7 3.2zM46 116v-7.7h.7s.04.91 0 .9c.4-.6 1.2-1 1.9-1c1.4 0 2.4 1.1 2.4 2.9c0 1.7-1 2.8-2.4 2.8c-.7 0-1.5-.3-1.9-.9c.04-.05 0 3 0 3h-.7zm2.6-2.7c1.1 0 1.7-1 1.7-2.2c0-1.2-.6-2.3-1.7-2.3h-.1c-1.2 0-1.8 1.1-1.8 2.3c0 1.2.6 2.2 1.8 2.2h.1zm3.6-1c0-1.2 1-1.6 1.8-1.6c.04-.03 1.8-.2 1.8-.2c0 0-.02-.19 0-.2c0-.9-.5-1.5-1.4-1.5c-.8 0-1.3.4-1.4 1.1h-.7c0-1 .9-1.7 2.1-1.7c1.4 0 2.1 1 2.1 2.1v2.3c0 .4 0 .8.1 1.2h-.7c-.1-.2-.1-.5-.1-.8c-.2.5-.9.9-1.9.9c-1 0-1.7-.6-1.7-1.6zm1.9 1c.7 0 1.7-.6 1.7-1.4c-.02-.05 0-.8 0-.8c0 0-1.61.13-1.6.1c-.8.1-1.3.5-1.3 1.1c0 .6.4 1 1.1 1h.1zm7.6-5h.8l-2.1 5.5h-.9l-2.1-5.5h.7l1.8 4.9l1.8-4.9zm1.8-1v-.9h.9v.9h-.9zm.1 6.5v-5.5h.7v5.5h-.7zm2.4 0v-7.7h.7v7.7h-.7zm2.4-6.5v-.9h.8v.9h-.8zm.1 6.5v-5.5h.7v5.5h-.7zm2.1-2.7c0-1.7 1.1-2.9 2.5-2.9c1.4 0 2.6 1.2 2.6 2.9c0 1.7-1.2 2.8-2.6 2.8c-1.4 0-2.5-1.1-2.5-2.8zm2.6 2.2c1 0 1.7-.8 1.7-2.2c0-1.4-.7-2.3-1.7-2.3h-.1c-1 0-1.8.9-1.8 2.3c0 1.4.8 2.2 1.8 2.2h.1zm3.9.5v-5.5h.7v1c.3-.6 1-1.1 1.9-1.1c1.1 0 1.9.7 1.9 2c.04.04 0 3.6 0 3.6h-.7s.03-3.34 0-3.3c0-1.1-.4-1.7-1.3-1.7h-.1c-1.1 0-1.7 1.1-1.7 2.3v2.7h-.7zm8.1-1.5c0-1.2 1.1-1.6 1.9-1.6c.02-.03 1.8-.2 1.8-.2c0 0-.04-.19 0-.2c0-.9-.6-1.5-1.4-1.5h-.1c-.7 0-1.3.4-1.3 1.1h-.8c.1-1 1-1.7 2.1-1.7c1.5 0 2.2 1 2.2 2.1v3.5h-.6c-.1-.2-.1-.5-.1-.8c-.2.5-1 .9-1.9.9c-1 0-1.8-.6-1.8-1.6zm2 1c.7 0 1.7-.6 1.7-1.4c-.04-.05 0-.8 0-.8c0 0-1.64.13-1.6.1c-.8.1-1.4.5-1.4 1.1c0 .6.5 1 1.1 1h.2zm4.1.5v-5.5h.7s-.03.96 0 1c.3-.6 1-1.1 1.9-1.1c1.1 0 1.9.7 1.9 2c.02.04 0 3.6 0 3.6h-.7s.01-3.34 0-3.3c0-1.1-.4-1.7-1.3-1.7h-.1c-1.2 0-1.7 1.1-1.7 2.3c-.03-.02 0 2.7 0 2.7h-.7zm5.9-2.7c0-1.8 1-2.9 2.5-2.9c.7 0 1.5.4 1.8 1c.02.01 0-3.1 0-3.1h.7v7.7h-.7s.02-.85 0-.8c-.3.6-1.1.9-1.8.9c-1.5 0-2.5-1.1-2.5-2.8zm2.6 2.2c1.1 0 1.7-1 1.7-2.2c0-1.2-.6-2.3-1.7-2.3h-.1c-1.2 0-1.8 1.1-1.8 2.3c0 1.2.6 2.2 1.8 2.2h.1zm6.4.5v-7.7h.7v7.7h-.7zm2.4-1.8c-.01-.04 0-3.7 0-3.7h.7s.01 3.44 0 3.4c0 1.1.4 1.6 1.3 1.6h.1c.8 0 1.6-.7 1.6-2c.03 0 0-3 0-3h.7v5.5h-.7s.03-1 0-1c-.3.7-.9 1.1-1.8 1.1c-1.2 0-1.9-.8-1.9-1.9zm5.8.2h.7c.1.7.7 1.1 1.4 1.1h.2c.7 0 1.2-.3 1.2-1c0-.4-.2-.6-1-.8l-.8-.2c-.8-.2-1.5-.5-1.5-1.5c0-1 .9-1.6 2-1.6c1.4 0 2 .9 2.1 1.8h-.8c0-.6-.5-1.2-1.2-1.2h-.2c-.7 0-1.2.5-1.2 1c0 .5.3.7 1 .9l.9.1c.8.2 1.4.6 1.4 1.5c0 1-.8 1.6-2 1.6c-1.4 0-2.1-.7-2.2-1.7zm5.7 1.6v-7.7h.7s.02 3.17 0 3.2c.4-.7 1.1-1.1 2-1.1c1.2 0 1.9.8 1.9 2c-.03 0 0 3.6 0 3.6h-.7s-.05-3.38 0-3.4c0-1-.5-1.6-1.4-1.6h-.1c-.8 0-1.7.8-1.7 2.1c.02-.04 0 2.9 0 2.9h-.7zm8.5 0v-7.7h.7v7.7h-.7zm2.1-1.5c0-1.2 1.1-1.6 1.9-1.6c.03-.03 1.8-.2 1.8-.2c0 0-.03-.19 0-.2c0-.9-.6-1.5-1.4-1.5h-.1c-.7 0-1.3.4-1.3 1.1h-.8c.1-1 1-1.7 2.2-1.7c1.4 0 2.1 1 2.1 2.1v3.5h-.6c-.1-.2-.1-.5-.1-.8c-.2.5-1 .9-1.9.9c-1 0-1.8-.6-1.8-1.6zm2 1c.7 0 1.7-.6 1.7-1.4c-.03-.05 0-.8 0-.8c0 0-1.63.13-1.6.1c-.8.1-1.3.5-1.3 1.1c0 .6.4 1 1.1 1h.1zm10.5-5h.7l-1.7 5.5h-1l-1.2-4.7l-1.3 4.7h-.9l-1.8-5.5h.7l1.6 4.9l1.2-4.9h.9l1.3 5l1.5-5zm1.9 5.5v-5.5h.7v1c.3-.6 1-1.1 1.9-1.1c1.1 0 2 .7 2 2c-.04.04 0 3.6 0 3.6h-.8s.04-3.34 0-3.3c0-1.1-.4-1.7-1.3-1.7c-1.2 0-1.8 1.1-1.8 2.3v2.7h-.7zm5.9-1.6h.7c0 .7.6 1.1 1.4 1.1h.1c.8 0 1.2-.3 1.2-1c0-.4-.2-.6-.9-.8l-.8-.2c-.8-.2-1.5-.5-1.5-1.5c0-1 .9-1.6 1.9-1.6c1.4 0 2.1.9 2.1 1.8h-.7c-.1-.6-.5-1.2-1.3-1.2h-.1c-.8 0-1.2.5-1.2 1c0 .5.3.7 1 .9l.8.1c.8.2 1.5.6 1.5 1.5c0 1-.9 1.6-2.1 1.6c-1.4 0-2.1-.7-2.1-1.7zm5.6 1.6v-1.1h1.1v1.1h-1.1z" stroke="none" fill="#192d39"/></g><g id="Polygon16808"><path d="m12.9 95.9c0-1.7 1-2.8 2.5-2.8c.7 0 1.5.4 1.8 1V91h.7v7.7h-.7s.01-.9 0-.9c-.3.6-1.1 1-1.8 1c-1.5 0-2.5-1.1-2.5-2.9zm2.5 2.3c1.2 0 1.8-1.1 1.8-2.3c0-1.2-.6-2.2-1.8-2.2c-1.2 0-1.8 1-1.8 2.2c0 1.2.6 2.3 1.8 2.3zm4-2.3c0-1.9 1.2-2.8 2.4-2.8c1.4 0 2.2 1 2.2 2.4c.04.05 0 .5 0 .5h-3.9c0 1.5.8 2.2 1.7 2.2h.1c.7 0 1.2-.4 1.4-1.1h.7c-.2 1.1-1.1 1.7-2.2 1.7c-1.4 0-2.4-1-2.4-2.9zm3.9-.5c0-1-.6-1.7-1.4-1.7h-.1c-.7 0-1.5.4-1.7 1.7h3.2zm1.9.5c0-1.6.9-2.8 2.5-2.8c1.2 0 2.1.7 2.2 1.8h-.7c-.2-.7-.7-1.2-1.4-1.2h-.1c-1.2 0-1.8 1-1.8 2.2c0 1.2.6 2.3 1.8 2.3h.1c.7 0 1.2-.6 1.4-1.3h.7c-.2 1.2-1 1.9-2.2 1.9c-1.6 0-2.5-1.2-2.5-2.9zm6.1 2.8V91h.7v5l2.9-2.8h1l-2.3 2.2l2.4 3.3h-.9l-2-2.8l-1.1 1v1.8h-.7zm7.6-2.8c0-1.6.9-2.8 2.6-2.8c1.1 0 2 .7 2.1 1.8h-.7c-.1-.7-.7-1.2-1.4-1.2h-.1c-1.2 0-1.8 1-1.8 2.2c0 1.2.6 2.3 1.8 2.3h.1c.7 0 1.2-.6 1.4-1.3h.7c-.2 1.2-1 1.9-2.1 1.9c-1.7 0-2.6-1.2-2.6-2.9zm5.8 1.3c0-1.2 1.1-1.6 1.9-1.7c.01.02 1.7-.1 1.7-.1c0 0 .05-.24 0-.2c0-1-.5-1.5-1.3-1.5h-.1c-.7 0-1.3.3-1.4 1h-.7c.1-1 1-1.6 2.1-1.6c1.5 0 2.2.9 2.2 2.1v3.5h-.6c-.1-.3-.1-.6-.1-.9c-.2.5-1 1-1.9 1c-1 0-1.8-.7-1.8-1.6zm1.9 1c.8 0 1.7-.7 1.7-1.5c.05 0 0-.7 0-.7c0 0-1.55.08-1.5.1c-.8 0-1.4.4-1.4 1c0 .6.5 1.1 1.1 1.1h.1zm4.2 2.7v-7.7h.7s-.03.86 0 .9c.3-.6 1.1-1 1.8-1c1.4 0 2.5 1.1 2.5 2.8c0 1.8-1.1 2.9-2.5 2.9c-.7 0-1.5-.4-1.8-1c-.03 0 0 3.1 0 3.1h-.7zm2.5-2.7c1.2 0 1.7-1.1 1.7-2.3c0-1.2-.5-2.2-1.7-2.2h-.1c-1.2 0-1.7 1-1.7 2.2c0 1.2.5 2.3 1.7 2.3h.1zm5.4.5c-.7 0-1-.3-1-1c-.02-.01 0-3.9 0-3.9h-1.3v-.6h1.3v-1.8h.7v1.8h1.4v.6h-1.4v3.8c0 .4.1.5.4.5c.03-.02 1.1 0 1.1 0v.6s-1.18-.02-1.2 0zm2.3-1.9c-.04.01 0-3.6 0-3.6h.7s-.02 3.39 0 3.4c0 1.1.4 1.6 1.3 1.6h.1c.8 0 1.6-.8 1.6-2v-3h.7v5.5h-.7v-1c-.3.7-.9 1.1-1.8 1.1c-1.3 0-1.9-.8-1.9-2zm6.2 1.9v-5.5h.6v1.2c.3-.8 1-1.3 1.7-1.3c.02.03.5 0 .5 0v.7h-.4c-1.1 0-1.7.8-1.7 2.2c-.03.01 0 2.7 0 2.7h-.7zm3.9-6.5v-.9h.8v.9h-.8zm0 6.5v-5.5h.7v5.5h-.7zm2.5 0v-5.5h.7s-.02.91 0 .9c.3-.6 1-1 1.9-1c1.1 0 1.9.7 1.9 2c.03-.01 0 3.6 0 3.6h-.7s.02-3.39 0-3.4c0-1.1-.4-1.6-1.3-1.6h-.1c-1.2 0-1.7 1-1.7 2.2c-.02.03 0 2.8 0 2.8h-.7zm5.8.8h.7c.2.6.8 1 1.7 1h.1c1 0 1.8-.5 1.8-1.9v-.9c-.3.6-.9 1-1.8 1c-1.4 0-2.4-1-2.4-2.8c0-1.7 1-2.8 2.4-2.8c.9 0 1.5.4 1.8 1c.01-.04 0-.9 0-.9h.7s.03 5.44 0 5.4c0 1.5-.9 2.5-2.5 2.5c-1.6 0-2.4-.7-2.5-1.6zm2.6-1.4c1 0 1.7-.8 1.7-2.2c0-1.3-.7-2.2-1.7-2.2h-.1c-1 0-1.7.9-1.7 2.2c0 1.4.7 2.2 1.7 2.2h.1zm6-1.1h.7c0 .8.6 1.2 1.4 1.2h.1c.8 0 1.2-.4 1.2-1c0-.4-.2-.7-.9-.8l-.8-.2c-.8-.2-1.5-.6-1.5-1.5c0-1.1.9-1.6 1.9-1.6c1.4 0 2.1.8 2.1 1.7h-.7c-.1-.6-.5-1.1-1.3-1.1h-.1c-.8 0-1.2.4-1.2.9c0 .5.3.8 1 .9l.9.2c.7.2 1.4.5 1.4 1.4c0 1.1-.8 1.7-2.1 1.7c-1.4 0-2.1-.8-2.1-1.8zm5.7 3.9v-7.7h.7s-.03.86 0 .9c.3-.6 1.1-1 1.8-1c1.4 0 2.5 1.1 2.5 2.8c0 1.8-1.1 2.9-2.5 2.9c-.7 0-1.5-.4-1.8-1c-.03 0 0 3.1 0 3.1h-.7zm2.5-2.7c1.2 0 1.7-1.1 1.7-2.3c0-1.2-.5-2.2-1.7-2.2h-.1c-1.2 0-1.7 1-1.7 2.2c0 1.2.5 2.3 1.7 2.3h.1zm3.6-2.3c0-1.9 1.2-2.8 2.5-2.8c1.3 0 2.2 1 2.2 2.4v.5h-4c.1 1.5.9 2.2 1.8 2.2c.8 0 1.3-.4 1.5-1.1h.7c-.3 1.1-1.1 1.7-2.2 1.7c-1.4 0-2.5-1-2.5-2.9zm4-.5c-.1-1-.6-1.7-1.5-1.7h-.1c-.7 0-1.5.4-1.6 1.7h3.2zm1.9.5c0-1.6.9-2.8 2.5-2.8c1.2 0 2 .7 2.1 1.8h-.7c-.1-.7-.6-1.2-1.4-1.2h-.1c-1.2 0-1.7 1-1.7 2.2c0 1.2.5 2.3 1.7 2.3h.1c.8 0 1.3-.6 1.4-1.3h.7c-.2 1.2-.9 1.9-2.1 1.9c-1.6 0-2.5-1.2-2.5-2.9zm7.7 2.8c-.7 0-1-.3-1-1c-.04-.01 0-3.9 0-3.9h-1.3v-.6h1.3v-1.8h.7v1.8h1.3v.6h-1.3s-.03 3.84 0 3.8c0 .4.1.5.4.5c.01-.02 1.1 0 1.1 0v.6s-1.2-.02-1.2 0zm2.1-1.5c0-1.2 1-1.6 1.9-1.7c-.01.02 1.7-.1 1.7-.1c0 0 .03-.24 0-.2c0-1-.5-1.5-1.3-1.5h-.1c-.7 0-1.3.3-1.4 1h-.7c.1-1 .9-1.6 2.1-1.6c1.4 0 2.1.9 2.1 2.1v2.3c0 .3 0 .8.1 1.2h-.7v-.9c-.2.5-1 1-2 1c-.9 0-1.7-.7-1.7-1.6zm1.9 1c.8 0 1.7-.7 1.7-1.5c.03 0 0-.7 0-.7c0 0-1.57.08-1.6.1c-.8 0-1.3.4-1.3 1c0 .6.5 1.1 1.1 1.1h.1zm3.8-2.3c0-1.6.9-2.8 2.5-2.8c1.2 0 2.1.7 2.2 1.8h-.7c-.1-.7-.7-1.2-1.4-1.2h-.1c-1.2 0-1.8 1-1.8 2.2c0 1.2.6 2.3 1.8 2.3h.1c.7 0 1.2-.6 1.4-1.3h.7c-.2 1.2-1 1.9-2.2 1.9c-1.6 0-2.5-1.2-2.5-2.9zm6 .9c.03.01 0-3.6 0-3.6h.7s.04 3.39 0 3.4c0 1.1.5 1.6 1.4 1.6h.1c.8 0 1.6-.8 1.6-2c-.03-.05 0-3 0-3h.7v5.5h-.7s-.03-1.05 0-1c-.3.7-1 1.1-1.9 1.1c-1.2 0-1.9-.8-1.9-2zm6.2 1.9V91h.7v7.7h-.7zm2.2-1.5c0-1.2 1-1.6 1.9-1.7c-.03.02 1.7-.1 1.7-.1v-.2c0-1-.5-1.5-1.4-1.5c-.7 0-1.3.3-1.4 1h-.7c.1-1 .9-1.6 2.1-1.6c1.4 0 2.1.9 2.1 2.1v2.3c0 .3 0 .8.1 1.2h-.7v-.9c-.3.5-1 1-2 1c-1 0-1.7-.7-1.7-1.6zm1.9 1c.8 0 1.7-.7 1.7-1.5v-.7s-1.59.08-1.6.1c-.8 0-1.3.4-1.3 1c0 .6.5 1.1 1.1 1.1h.1zm4.1.5v-5.5h.7s-.03 1.24 0 1.2c.2-.8.9-1.3 1.7-1.3c-.02.03.5 0 .5 0v.7h-.5c-1 0-1.7.8-1.7 2.2c.03.01 0 2.7 0 2.7h-.7zm6.8-.8h4v.8h-5v-.8l3.1-3.1c.9-.9 1.1-1.2 1.1-1.9c0-.7-.7-1.3-1.6-1.3h-.1c-1 0-1.6.6-1.6 1.6h-.8c0-1.4 1-2.3 2.4-2.3c1.4 0 2.4.8 2.4 2c0 1-.5 1.6-1.1 2.2l-2.8 2.8zm4.9-6.9h5.1s-.01.86 0 .9c-1.9 1.2-3 3.2-3 6.6c.03-.04 0 .2 0 .2h-.7s-.02-.34 0-.3c0-3.4 1.2-5.7 2.9-6.7c.04.02-4.3 0-4.3 0v-.7zm5.9 3.8c0-2.6 1.1-3.9 2.9-3.9c1.8 0 2.9 1.3 2.9 3.9c0 2.6-1.1 4-2.9 4c-1.8 0-2.9-1.4-2.9-4zm3 3.3c.9 0 2.1-.7 2.1-3.3c0-2.5-1.2-3.2-2.1-3.2h-.2c-.9 0-2.1.7-2.1 3.2c0 2.6 1.2 3.3 2.1 3.3h.2zm4.3-2.4v-.6h2.7v.6h-2.7zm4 .2c0-1.7 1-2.8 2.4-2.8c.7 0 1.5.4 1.9 1c-.03-.04 0-3.1 0-3.1h.7v7.7h-.7s-.03-.9 0-.9c-.4.6-1.2 1-1.9 1c-1.4 0-2.4-1.1-2.4-2.9zm2.5 2.3c1.2 0 1.8-1.1 1.8-2.3c0-1.2-.6-2.2-1.8-2.2c-1.2 0-1.8 1-1.8 2.2c0 1.2.6 2.3 1.8 2.3zm3.9-2.3c0-1.9 1.2-2.8 2.5-2.8c1.3 0 2.2 1 2.2 2.4v.5h-4c.1 1.5.9 2.2 1.8 2.2c.8 0 1.3-.4 1.5-1.1h.7c-.2 1.1-1.1 1.7-2.2 1.7c-1.4 0-2.5-1-2.5-2.9zm4-.5c0-1-.6-1.7-1.5-1.7h-.1c-.7 0-1.5.4-1.6 1.7h3.2zm1.7 4.1h.8c.1.6.7 1 1.7 1h.1c.9 0 1.8-.5 1.8-1.9v-.9c-.4.6-1 1-1.9 1c-1.3 0-2.3-1-2.3-2.8c0-1.7 1-2.8 2.3-2.8c.9 0 1.5.4 1.9 1c-.05-.04 0-.9 0-.9h.7s-.03 5.44 0 5.4c0 1.5-1 2.5-2.6 2.5c-1.6 0-2.3-.7-2.5-1.6zm2.7-1.4c.9 0 1.7-.8 1.7-2.2c0-1.3-.8-2.2-1.7-2.2h-.2c-.9 0-1.6.9-1.6 2.2c0 1.4.7 2.2 1.6 2.2h.2zm4.1.6v-5.5h.7s-.04 1.24 0 1.2c.2-.8.9-1.3 1.7-1.3c-.03.03.5 0 .5 0v.7h-.5c-1 0-1.7.8-1.7 2.2c.02.01 0 2.7 0 2.7h-.7zm3.5-2.8c0-1.9 1.2-2.8 2.5-2.8c1.3 0 2.2 1 2.2 2.4v.5h-4c.1 1.5.9 2.2 1.8 2.2c.8 0 1.3-.4 1.5-1.1h.7c-.2 1.1-1.1 1.7-2.2 1.7c-1.4 0-2.5-1-2.5-2.9zm4-.5c0-1-.6-1.7-1.5-1.7h-.1c-.7 0-1.5.4-1.6 1.7h3.2zm1.9.5c0-1.9 1.2-2.8 2.4-2.8c1.4 0 2.2 1 2.2 2.4c.05.05 0 .5 0 .5h-3.9c0 1.5.8 2.2 1.7 2.2h.1c.7 0 1.2-.4 1.4-1.1h.7c-.2 1.1-1.1 1.7-2.2 1.7c-1.4 0-2.4-1-2.4-2.9zm3.9-.5c0-1-.6-1.7-1.4-1.7h-.1c-.7 0-1.5.4-1.7 1.7h3.2zm8.1-2.2h.7l-2.1 5.5h-.9l-2.1-5.5h.8L209 98l1.8-4.8zm1.8-1v-.9h.8v.9h-.8zm.1 6.5v-5.5h.7v5.5h-.7zm2.1-2.8c0-1.9 1.2-2.8 2.5-2.8c1.3 0 2.2 1 2.2 2.4c-.02.05 0 .5 0 .5h-4c0 1.5.8 2.2 1.7 2.2h.1c.8 0 1.2-.4 1.5-1.1h.7c-.3 1.1-1.1 1.7-2.2 1.7c-1.4 0-2.5-1-2.5-2.9zm4-.5c-.1-1-.6-1.7-1.5-1.7h-.1c-.7 0-1.5.4-1.7 1.7h3.3zm8.6-2.2h.7l-1.7 5.5h-1l-1.2-4.8l-1.3 4.8h-.9l-1.8-5.5h.7l1.6 4.8l1.2-4.8h.9l1.3 4.9l1.5-4.9zm1.4 3.8h.7c.1.8.7 1.2 1.4 1.2h.1c.8 0 1.3-.4 1.3-1c0-.4-.2-.7-1-.8l-.8-.2c-.8-.2-1.5-.6-1.5-1.5c0-1.1.9-1.6 2-1.6c1.4 0 2 .8 2.1 1.7h-.8c0-.6-.5-1.1-1.3-1.1h-.1c-.7 0-1.2.4-1.2.9c0 .5.3.8 1 .9l.9.2c.8.2 1.4.5 1.4 1.4c0 1.1-.8 1.7-2 1.7c-1.4 0-2.1-.8-2.2-1.8zm5.3 2.9v-.4h.3c.4 0 .6-.2.6-.7c.04.05 0-.1 0-.1h-.6v-1.1h1.1s.04 1.3 0 1.3c0 .7-.3 1-1 1c-.01.05-.4 0-.4 0zm6-2.1v.9h-.7V91h.7v3.1c.3-.6 1.1-1 1.8-1c1.5 0 2.5 1.1 2.5 2.8c0 1.8-1 2.9-2.5 2.9c-.7 0-1.5-.4-1.8-1zm1.8.4c1.2 0 1.8-1.1 1.8-2.3c0-1.2-.6-2.2-1.8-2.2c-1.2 0-1.8 1-1.8 2.2c0 1.2.6 2.3 1.8 2.3zm3.6-2.3c0-1.7 1.1-2.8 2.6-2.8c1.4 0 2.5 1.1 2.5 2.8c0 1.7-1.1 2.9-2.5 2.9c-1.5 0-2.6-1.2-2.6-2.9zm2.6 2.3c1 0 1.8-.9 1.8-2.3c0-1.4-.8-2.2-1.8-2.2h-.1c-1 0-1.8.8-1.8 2.2c0 1.4.8 2.3 1.8 2.3h.1zm3.6-1c0-1.2 1-1.6 1.9-1.7c-.04.02 1.7-.1 1.7-.1v-.2c0-1-.5-1.5-1.4-1.5c-.7 0-1.3.3-1.4 1h-.7c0-1 .9-1.6 2.1-1.6c1.4 0 2.1.9 2.1 2.1v2.3c0 .3 0 .8.1 1.2h-.7v-.9c-.3.5-1 1-2 1c-1 0-1.7-.7-1.7-1.6zm1.9 1c.8 0 1.7-.7 1.7-1.5v-.7s-1.59.08-1.6.1c-.8 0-1.3.4-1.3 1c0 .6.5 1.1 1.1 1.1h.1zm3.7-1.2h.7c.1.8.7 1.2 1.4 1.2h.2c.7 0 1.2-.4 1.2-1c0-.4-.2-.7-1-.8l-.8-.2c-.8-.2-1.5-.6-1.5-1.5c0-1.1 1-1.6 2-1.6c1.4 0 2 .8 2.1 1.7h-.7c-.1-.6-.6-1.1-1.3-1.1h-.2c-.7 0-1.2.4-1.2.9c0 .5.3.8 1 .9l.9.2c.8.2 1.4.5 1.4 1.4c0 1.1-.8 1.7-2 1.7c-1.4 0-2.1-.8-2.2-1.8zm7.4 1.7c-.7 0-1.1-.3-1.1-1c.05-.01 0-3.9 0-3.9h-1.2v-.6h1.2v-1.8h.8v1.8h1.3v.6h-1.3s-.04 3.84 0 3.8c0 .4.1.5.4.5c0-.02 1.1 0 1.1 0v.6s-1.21-.02-1.2 0zm2.3-6.5v-.9h.8v.9h-.8zm0 6.5v-5.5h.8v5.5h-.8zm2.5 0v-5.5h.7s-.01.91 0 .9c.3-.6 1-1 1.9-1c1.1 0 1.9.7 1.9 2c.04-.01 0 3.6 0 3.6h-.7s.03-3.39 0-3.4c0-1.1-.4-1.6-1.3-1.6h-.1c-1.1 0-1.7 1-1.7 2.2v2.8h-.7zm5.8.8h.7c.2.6.8 1 1.7 1h.1c1 0 1.8-.5 1.8-1.9v-.9c-.3.6-.9 1-1.8 1c-1.4 0-2.4-1-2.4-2.8c0-1.7 1-2.8 2.4-2.8c.9 0 1.5.4 1.8 1c.02-.04 0-.9 0-.9h.7s.03 5.44 0 5.4c0 1.5-.9 2.5-2.5 2.5c-1.6 0-2.4-.7-2.5-1.6zm2.6-1.4c1 0 1.7-.8 1.7-2.2c0-1.3-.7-2.2-1.7-2.2h-.1c-1 0-1.7.9-1.7 2.2c0 1.4.7 2.2 1.7 2.2h.1z" stroke="none" fill="#192d39"/></g><g id="Polygon16807"><path d="m15.3 83.5v-7h-2.8v-.7h6.4v.7h-2.8v7h-.8zm3.7 0V78h.7s-.03 1.29 0 1.3c.2-.9.9-1.3 1.7-1.3c-.02-.02.5 0 .5 0v.6s-.47.04-.5 0c-1 0-1.7.9-1.7 2.3c.03-.04 0 2.6 0 2.6h-.7zm3.9-6.5v-.9h.9v.9h-.9zm.1 6.5V78h.7v5.5h-.7zm2.4 0v-7.7h.7v7.7h-.7zm2.2-2.7c0-1.7 1.1-2.9 2.5-2.9c1.4 0 2.5 1.2 2.5 2.9c0 1.7-1.1 2.8-2.5 2.8c-1.4 0-2.5-1.1-2.5-2.8zm2.6 2.2c.9 0 1.7-.8 1.7-2.2c0-1.4-.8-2.3-1.7-2.3h-.2c-.9 0-1.7.9-1.7 2.3c0 1.4.8 2.2 1.7 2.2h.2zm3.5 1.3h.7c.1.7.7 1 1.7 1h.1c.9 0 1.8-.5 1.8-1.9v-.9c-.4.6-1 1-1.9 1c-1.3 0-2.3-1-2.3-2.7c0-1.8 1-2.9 2.3-2.9c.9 0 1.5.4 1.9 1c-.04.01 0-.9 0-.9h.7s-.02 5.49 0 5.5c0 1.4-1 2.5-2.6 2.5c-1.6 0-2.3-.7-2.4-1.7zm2.6-1.4c1 0 1.7-.7 1.7-2.1c0-1.4-.7-2.3-1.7-2.3h-.1c-1 0-1.7.9-1.7 2.3c0 1.4.7 2.1 1.7 2.1h.1zm8.8-4.9l-2.2 5.3s-.02 1.09 0 1.1c0 .7-.4.9-1.1.9c.04.05-1.6 0-1.6 0v-.6s1.53.04 1.5 0c.4 0 .5-.1.5-.4c-.03 0 0-.9 0-.9L39.8 78h.8l1.9 4.5l1.9-4.5h.7zm3.2-1v-.9h.8v.9h-.8zm.1 6.5V78h.7v5.5h-.7zm2-1.6h.7c.1.7.7 1.1 1.5 1.1h.1c.7 0 1.2-.3 1.2-1c0-.4-.2-.6-.9-.8l-.9-.2c-.8-.2-1.4-.5-1.4-1.5c0-1 .9-1.6 1.9-1.6c1.4 0 2 .9 2.1 1.8h-.7c-.1-.6-.6-1.2-1.3-1.2h-.1c-.8 0-1.2.5-1.2 1c0 .5.3.7 1 .9l.8.1c.8.2 1.4.6 1.4 1.5c0 1-.8 1.6-2 1.6c-1.4 0-2.1-.7-2.2-1.7zm7.6-1.1c0-1.6.9-2.9 2.5-2.9c1.2 0 2 .7 2.2 1.9h-.8c-.1-.7-.6-1.3-1.3-1.3h-.1c-1.2 0-1.8 1.1-1.8 2.3c0 1.2.6 2.2 1.8 2.2h.1c.7 0 1.2-.5 1.3-1.2h.8c-.2 1.1-1 1.8-2.2 1.8c-1.6 0-2.5-1.2-2.5-2.8zm6.1 2.7V78h.6s.02 1.29 0 1.3c.3-.9 1-1.3 1.7-1.3c.02-.02.5 0 .5 0v.6s-.42.04-.4 0c-1.1 0-1.7.9-1.7 2.3c-.03-.04 0 2.6 0 2.6h-.7zm3.5-2.7c0-1.7 1.1-2.9 2.5-2.9c1.4 0 2.5 1.2 2.5 2.9c0 1.7-1.1 2.8-2.5 2.8c-1.4 0-2.5-1.1-2.5-2.8zm2.5 2.2c1 0 1.8-.8 1.8-2.2c0-1.4-.8-2.3-1.8-2.3h-.1c-1 0-1.7.9-1.7 2.3c0 1.4.7 2.2 1.7 2.2h.1zm10.4-5h.7l-1.8 5.5h-.9l-1.3-4.7l-1.2 4.7h-.9L73.3 78h.7l1.6 4.9l1.2-4.9h.9l1.3 5l1.5-5zm1.9 5.5V78h.7v1c.3-.6 1-1.1 1.9-1.1c1.1 0 1.9.7 1.9 2c.04.04 0 3.6 0 3.6h-.7s.02-3.34 0-3.3c0-1.1-.4-1.7-1.3-1.7h-.1c-1.2 0-1.7 1.1-1.7 2.3v2.7h-.7zm5.9-2.7c0-2 1.2-2.9 2.5-2.9c1.3 0 2.2 1.1 2.2 2.5v.4s-3.95.04-3.9 0c0 1.6.8 2.2 1.7 2.2c.8 0 1.3-.3 1.5-1h.7c-.2 1.1-1.1 1.6-2.2 1.6c-1.4 0-2.5-.9-2.5-2.8zm4-.6c0-.9-.6-1.7-1.5-1.7h-.1c-.7 0-1.5.4-1.6 1.7h3.2zm1.9.6c0-1.8 1-2.9 2.4-2.9c.7 0 1.5.4 1.9 1c-.03.01 0-3.1 0-3.1h.7v7.7h-.7s-.03-.85 0-.8c-.4.6-1.2.9-1.9.9c-1.4 0-2.4-1.1-2.4-2.8zm2.5 2.2c1.2 0 1.8-1 1.8-2.2c0-1.2-.6-2.3-1.8-2.3c-1.2 0-1.8 1.1-1.8 2.3c0 1.2.6 2.2 1.8 2.2zm7.2-.3c-.04-.05 0 .8 0 .8h-.8v-7.7h.8s-.04 3.11 0 3.1c.3-.6 1.1-1 1.8-1c1.4 0 2.4 1.1 2.4 2.9c0 1.7-1 2.8-2.4 2.8c-.7 0-1.5-.3-1.8-.9zm1.8.3c1.1 0 1.7-1 1.7-2.2c0-1.2-.6-2.3-1.7-2.3h-.1c-1.2 0-1.7 1.1-1.7 2.3c0 1.2.5 2.2 1.7 2.2h.1zm8.4-5l-2.3 5.3s.01 1.09 0 1.1c0 .7-.3.9-1 .9c-.03.05-1.7 0-1.7 0v-.6s1.56.04 1.6 0c.3 0 .4-.1.4-.4v-.9l-2.3-5.4h.7l1.9 4.5l1.9-4.5h.8zm2.9 4c0-1.2 1-1.6 1.9-1.6c-.02-.03 1.7-.2 1.7-.2c0 0 .02-.19 0-.2c0-.9-.5-1.5-1.4-1.5c-.7 0-1.3.4-1.4 1.1h-.7c.1-1 .9-1.7 2.1-1.7c1.4 0 2.1 1 2.1 2.1v2.3c0 .4 0 .8.1 1.2h-.7v-.8c-.2.5-1 .9-2 .9c-.9 0-1.7-.6-1.7-1.6zm1.9 1c.8 0 1.7-.6 1.7-1.4c.02-.05 0-.8 0-.8c0 0-1.57.13-1.6.1c-.8.1-1.3.5-1.3 1.1c0 .6.5 1 1.1 1h.1zm6.3.5V78h.7v1.3c.3-.9.9-1.3 1.7-1.3c.01-.02.5 0 .5 0v.6s-.44.04-.4 0c-1.1 0-1.7.9-1.7 2.3c-.04-.04 0 2.6 0 2.6h-.8zm3.5-2.7c0-1.7 1.2-2.9 2.6-2.9c1.4 0 2.5 1.2 2.5 2.9c0 1.7-1.1 2.8-2.5 2.8c-1.4 0-2.6-1.1-2.6-2.8zm2.6 2.2c1 0 1.8-.8 1.8-2.2c0-1.4-.8-2.3-1.8-2.3h-.1c-1 0-1.7.9-1.7 2.3c0 1.4.7 2.2 1.7 2.2h.1zm3.6-2.2c0-1.7 1.1-2.9 2.6-2.9c1.4 0 2.5 1.2 2.5 2.9c0 1.7-1.1 2.8-2.5 2.8c-1.5 0-2.6-1.1-2.6-2.8zm2.6 2.2c1 0 1.8-.8 1.8-2.2c0-1.4-.8-2.3-1.8-2.3h-.1c-1 0-1.7.9-1.7 2.3c0 1.4.7 2.2 1.7 2.2h.1zm4.4.5v-4.9h-1.3v-.6h1.3v-1.2c0-.7.3-1 1.1-1c-.04.03 1.3 0 1.3 0v.6s-1.23.04-1.2 0c-.4 0-.5.1-.5.5c.03-.02 0 1.1 0 1.1h1.5v.6h-1.5v4.9h-.7zm5.2 0c-.7 0-1-.2-1-1v-3.9h-1.3v-.6h1.3v-1.7h.7v1.7h1.4v.6h-1.4v3.9c0 .3.1.4.4.4c.04.03 1.1 0 1.1 0v.6s-1.17.03-1.2 0zm1.9-2.7c0-1.7 1.1-2.9 2.5-2.9c1.4 0 2.5 1.2 2.5 2.9c0 1.7-1.1 2.8-2.5 2.8c-1.4 0-2.5-1.1-2.5-2.8zm2.6 2.2c1 0 1.7-.8 1.7-2.2c0-1.4-.7-2.3-1.7-2.3h-.1c-1 0-1.8.9-1.8 2.3c0 1.4.8 2.2 1.8 2.2h.1zm3.9 2.7V78h.7s-.02.91 0 .9c.3-.6 1.1-1 1.8-1c1.4 0 2.5 1.1 2.5 2.9c0 1.7-1.1 2.8-2.5 2.8c-.7 0-1.5-.3-1.8-.9c-.02-.05 0 3 0 3h-.7zM158 83c1.2 0 1.7-1 1.7-2.2c0-1.2-.5-2.3-1.7-2.3h-.1c-1.1 0-1.7 1.1-1.7 2.3c0 1.2.6 2.2 1.7 2.2h.1zm5.8-2.2c0-1.6.9-2.9 2.5-2.9c1.2 0 2 .7 2.1 1.9h-.7c-.1-.7-.6-1.3-1.3-1.3h-.2c-1.2 0-1.7 1.1-1.7 2.3c0 1.2.5 2.2 1.7 2.2h.2c.7 0 1.2-.5 1.3-1.2h.7c-.2 1.1-.9 1.8-2.1 1.8c-1.6 0-2.5-1.2-2.5-2.8zm5.7 0c0-1.7 1.1-2.9 2.5-2.9c1.5 0 2.6 1.2 2.6 2.9c0 1.7-1.1 2.8-2.6 2.8c-1.4 0-2.5-1.1-2.5-2.8zm2.6 2.2c1 0 1.7-.8 1.7-2.2c0-1.4-.7-2.3-1.7-2.3h-.1c-1 0-1.8.9-1.8 2.3c0 1.4.8 2.2 1.8 2.2h.1zm3.9.5V78h.7s.01.91 0 .9c.3-.6 1-1 1.8-1c.8 0 1.5.4 1.8 1.2c.3-.8 1-1.2 1.9-1.2c1.1 0 1.9.7 1.9 2c-.02.04 0 3.6 0 3.6h-.7s-.03-3.34 0-3.3c0-1.1-.5-1.7-1.3-1.7h-.1c-1.1 0-1.6 1.1-1.6 2.3v2.7h-.7s-.02-3.34 0-3.3c0-1.1-.4-1.7-1.3-1.7h-.1c-1.1 0-1.6 1.1-1.6 2.3v2.7h-.7zm9.8 0V78h.7s.01.91 0 .9c.3-.6 1-1 1.8-1c.8 0 1.5.4 1.8 1.2c.3-.8 1-1.2 1.9-1.2c1.1 0 1.9.7 1.9 2c-.02.04 0 3.6 0 3.6h-.7s-.04-3.34 0-3.3c0-1.1-.5-1.7-1.3-1.7h-.1c-1.1 0-1.6 1.1-1.6 2.3v2.7h-.7s-.02-3.34 0-3.3c0-1.1-.4-1.7-1.3-1.7h-.1c-1.1 0-1.6 1.1-1.6 2.3v2.7h-.7zm9.7-1.8c.03-.04 0-3.7 0-3.7h.7s.05 3.44 0 3.4c0 1.1.5 1.6 1.4 1.6h.1c.8 0 1.6-.7 1.6-2c-.03 0 0-3 0-3h.7v5.5h-.7s-.03-1 0-1c-.3.7-1 1.1-1.9 1.1c-1.2 0-1.9-.8-1.9-1.9zm6.2 1.8V78h.7s.03.96 0 1c.4-.6 1.1-1.1 2-1.1c1.1 0 1.9.7 1.9 2c-.02.04 0 3.6 0 3.6h-.7s-.03-3.34 0-3.3c0-1.1-.5-1.7-1.3-1.7h-.1c-1.2 0-1.8 1.1-1.8 2.3c.03-.02 0 2.7 0 2.7h-.7zm6-1.5c0-1.2 1-1.6 1.9-1.6c-.04-.03 1.7-.2 1.7-.2v-.2c0-.9-.5-1.5-1.4-1.5c-.7 0-1.3.4-1.4 1.1h-.7c0-1 .9-1.7 2.1-1.7c1.4 0 2.1 1 2.1 2.1v2.3c0 .4 0 .8.1 1.2h-.7v-.8c-.3.5-1 .9-2 .9c-1 0-1.7-.6-1.7-1.6zm1.9 1c.8 0 1.7-.6 1.7-1.4v-.8s-1.59.13-1.6.1c-.8.1-1.3.5-1.3 1.1c0 .6.5 1 1.1 1h.1zm4.1.5v-7.7h.7v7.7h-.7zm4.4-2.7c0-2 1.1-2.9 2.4-2.9c1.4 0 2.2 1.1 2.2 2.5c.03 0 0 .4 0 .4c0 0-3.93.04-3.9 0c0 1.6.8 2.2 1.7 2.2h.1c.7 0 1.2-.3 1.4-1h.7c-.2 1.1-1.1 1.6-2.2 1.6c-1.4 0-2.4-.9-2.4-2.8zm3.9-.6c0-.9-.6-1.7-1.4-1.7h-.2c-.6 0-1.5.4-1.6 1.7h3.2zm2.2 3.3V78h.7v1c.3-.6 1-1.1 1.9-1.1c1.1 0 2 .7 2 2c-.04.04 0 3.6 0 3.6h-.8s.05-3.34 0-3.3c0-1.1-.4-1.7-1.3-1.7c-1.2 0-1.8 1.1-1.8 2.3v2.7h-.7zm7.8 0c-.7 0-1-.2-1-1v-3.9h-1.3v-.6h1.3v-1.7h.7v1.7h1.4v.6h-1.4v3.9c0 .3.1.4.4.4c.04.03 1.1 0 1.1 0v.6s-1.17.03-1.2 0zm1.9-2.7c0-2 1.2-2.9 2.5-2.9c1.3 0 2.2 1.1 2.2 2.5v.4s-3.97.04-4 0c.1 1.6.9 2.2 1.8 2.2c.8 0 1.3-.3 1.5-1h.7c-.3 1.1-1.1 1.6-2.2 1.6c-1.4 0-2.5-.9-2.5-2.8zm4-.6c-.1-.9-.6-1.7-1.5-1.7h-.1c-.7 0-1.5.4-1.6 1.7h3.2zm2.2 3.3V78h.6s.02 1.29 0 1.3c.3-.9 1-1.3 1.7-1.3c.02-.02.5 0 .5 0v.6s-.42.04-.4 0c-1.1 0-1.7.9-1.7 2.3c-.03-.04 0 2.6 0 2.6h-.7zm5.9 0c-.7 0-1.1-.2-1.1-1c.04.04 0-3.9 0-3.9h-1.2v-.6h1.2v-1.7h.8v1.7h1.3v.6h-1.3s-.05 3.89 0 3.9c0 .3.1.4.4.4c-.01.03 1.1 0 1.1 0v.6s-1.22.03-1.2 0zm2.1-1.5c0-1.2 1-1.6 1.9-1.6c-.03-.03 1.7-.2 1.7-.2v-.2c0-.9-.5-1.5-1.4-1.5c-.7 0-1.3.4-1.4 1.1h-.7c.1-1 .9-1.7 2.1-1.7c1.4 0 2.1 1 2.1 2.1v2.3c0 .4 0 .8.1 1.2h-.7v-.8c-.3.5-1 .9-2 .9c-1 0-1.7-.6-1.7-1.6zm1.9 1c.8 0 1.7-.6 1.7-1.4v-.8s-1.59.13-1.6.1c-.8.1-1.3.5-1.3 1.1c0 .6.5 1 1.1 1h.1zm4-6v-.9h.9v.9h-.9zm.1 6.5V78h.7v5.5h-.7zm2.4 0V78h.8s-.04.96 0 1c.3-.6 1-1.1 1.9-1.1c1.1 0 1.9.7 1.9 2c.01.04 0 3.6 0 3.6h-.7s-.01-3.34 0-3.3c0-1.1-.4-1.7-1.3-1.7h-.1c-1.2 0-1.7 1.1-1.7 2.3c-.04-.02 0 2.7 0 2.7h-.8zm6.3 0V78h.7s.02.91 0 .9c.3-.6 1-1 1.8-1c.8 0 1.5.4 1.8 1.2c.4-.8 1-1.2 1.9-1.2c1.1 0 1.9.7 1.9 2c-.01.04 0 3.6 0 3.6h-.7s-.03-3.34 0-3.3c0-1.1-.4-1.7-1.3-1.7h-.1c-1.1 0-1.6 1.1-1.6 2.3v2.7h-.7s-.01-3.34 0-3.3c0-1.1-.4-1.7-1.3-1.7c-1.2 0-1.7 1.1-1.7 2.3c.02-.02 0 2.7 0 2.7h-.7zm9.5-2.7c0-2 1.2-2.9 2.5-2.9c1.3 0 2.2 1.1 2.2 2.5c-.03 0 0 .4 0 .4c0 0-3.99.04-4 0c0 1.6.8 2.2 1.7 2.2h.1c.8 0 1.2-.3 1.4-1h.8c-.3 1.1-1.1 1.6-2.2 1.6c-1.4 0-2.5-.9-2.5-2.8zm4-.6c-.1-.9-.6-1.7-1.5-1.7h-.1c-.7 0-1.5.4-1.7 1.7h3.3zm2.1 3.3V78h.8s-.05.96 0 1c.3-.6 1-1.1 1.9-1.1c1.1 0 1.9.7 1.9 2v3.6h-.7s-.01-3.34 0-3.3c0-1.1-.4-1.7-1.3-1.7h-.1c-1.2 0-1.7 1.1-1.7 2.3c-.05-.02 0 2.7 0 2.7h-.8zm7.9 0c-.7 0-1.1-.2-1.1-1c.03.04 0-3.9 0-3.9H284v-.6h1.2v-1.7h.7v1.7h1.4v.6h-1.4s.04 3.89 0 3.9c0 .3.2.4.5.4c-.02.03 1.1 0 1.1 0v.6s-1.23.03-1.2 0z" stroke="none" fill="#192d39"/></g><g id="Polygon16806"><path d="m13.2 56.2v-7.7h.8s-.04.91 0 .9c.3-.6 1.1-1 1.8-1c1.4 0 2.5 1.1 2.5 2.9c0 1.7-1.1 2.8-2.5 2.8c-.7 0-1.5-.3-1.8-.9c-.04-.05 0 3 0 3h-.8zm2.6-2.7c1.2 0 1.7-1 1.7-2.2c0-1.2-.5-2.3-1.7-2.3h-.1c-1.2 0-1.7 1.1-1.7 2.3c0 1.2.5 2.2 1.7 2.2h.1zm4 .5v-5.5h.7s-.03 1.28 0 1.3c.2-.9.9-1.3 1.7-1.3c-.03-.02.5 0 .5 0v.6s-.47.03-.5 0c-1 0-1.7.9-1.7 2.3c.02-.04 0 2.6 0 2.6h-.7zm4-6.5v-.9h.9v.9h-.9zm.1 6.5v-5.5h.7v5.5h-.7zm6.3-5.5h.8L28.8 54h-.8l-2.2-5.5h.8l1.8 4.9l1.8-4.9zm1.6 4c0-1.2 1-1.6 1.9-1.6c-.04-.04 1.7-.2 1.7-.2v-.2c0-.9-.5-1.5-1.4-1.5c-.7 0-1.3.4-1.4 1.1h-.7c0-1 .9-1.7 2.1-1.7c1.4 0 2.1 1 2.1 2.1v2.3c0 .3 0 .8.1 1.2h-.7v-.8c-.3.5-1 .9-2 .9c-1 0-1.7-.7-1.7-1.6zm1.9 1c.8 0 1.7-.6 1.7-1.5v-.7s-1.59.12-1.6.1c-.8.1-1.3.5-1.3 1.1c0 .6.5 1 1.1 1h.1zm3.9-2.2c0-1.6.9-2.9 2.5-2.9c1.2 0 2.1.7 2.2 1.9h-.7c-.2-.7-.7-1.3-1.4-1.3h-.1c-1.2 0-1.8 1.1-1.8 2.3c0 1.2.6 2.2 1.8 2.2h.1c.7 0 1.2-.5 1.4-1.2h.7c-.2 1.1-1 1.8-2.2 1.8c-1.6 0-2.5-1.2-2.5-2.8zm10.8-2.8l-2.3 5.3s.02 1.09 0 1.1c0 .7-.3.9-1 .9c-.02.04-1.7 0-1.7 0v-.6s1.57.04 1.6 0c.3 0 .4-.1.4-.4c.01 0 0-.9 0-.9l-2.3-5.4h.8l1.8 4.5l1.9-4.5h.8zm3.1 4c0-1.2 1.1-1.6 1.9-1.6c.01-.04 1.8-.2 1.8-.2c0 0-.05-.19 0-.2c0-.9-.6-1.5-1.4-1.5h-.1c-.7 0-1.3.4-1.4 1.1h-.7c.1-1 1-1.7 2.1-1.7c1.5 0 2.2 1 2.2 2.1v3.5h-.6c-.1-.2-.1-.6-.1-.8c-.2.5-1 .9-1.9.9c-1 0-1.8-.7-1.8-1.6zm1.9 1c.8 0 1.8-.6 1.8-1.5c-.05.05 0-.7 0-.7c0 0-1.64.12-1.6.1c-.8.1-1.4.5-1.4 1.1c0 .6.5 1 1.1 1h.1zm4.3.5v-5.5h.7s-.02.95 0 1c.3-.7 1-1.1 1.9-1.1c1.1 0 1.9.7 1.9 2c.03.03 0 3.6 0 3.6h-.7s.02-3.35 0-3.3c0-1.1-.4-1.7-1.3-1.7h-.1c-1.2 0-1.7 1.1-1.7 2.3c-.02-.02 0 2.7 0 2.7h-.7zm6-2.7c0-1.8 1.1-2.9 2.5-2.9c.7 0 1.5.4 1.8 1c.03.01 0-3.1 0-3.1h.7v7.7h-.7s.03-.85 0-.8c-.3.6-1.1.9-1.8.9c-1.4 0-2.5-1.1-2.5-2.8zm2.6 2.2c1.2 0 1.7-1 1.7-2.2c0-1.2-.5-2.3-1.7-2.3h-.1c-1.2 0-1.7 1.1-1.7 2.3c0 1.2.5 2.2 1.7 2.2h.1zm6.3-2.2c0-1.6.9-2.9 2.5-2.9c1.2 0 2.1.7 2.2 1.9h-.7c-.2-.7-.7-1.3-1.4-1.3h-.1c-1.2 0-1.8 1.1-1.8 2.3c0 1.2.6 2.2 1.8 2.2h.1c.7 0 1.2-.5 1.4-1.2h.7c-.2 1.1-1 1.8-2.2 1.8c-1.6 0-2.5-1.2-2.5-2.8zm5.8 0c0-1.7 1.2-2.9 2.6-2.9c1.4 0 2.5 1.2 2.5 2.9c0 1.7-1.1 2.8-2.5 2.8c-1.4 0-2.6-1.1-2.6-2.8zm2.6 2.2c1 0 1.8-.8 1.8-2.2c0-1.4-.8-2.3-1.8-2.3h-.1c-1 0-1.7.9-1.7 2.3c0 1.4.7 2.2 1.7 2.2h.1zm4 .5v-5.5h.8s-.05.91 0 .9c.3-.6.9-1 1.8-1c.8 0 1.4.4 1.7 1.2c.4-.8 1.1-1.2 2-1.2c1 0 1.8.7 1.8 2c.02.03 0 3.6 0 3.6h-.7s.01-3.35 0-3.3c0-1.1-.4-1.7-1.3-1.7c-1.1 0-1.7 1.1-1.7 2.3c.04-.02 0 2.7 0 2.7h-.7s.02-3.35 0-3.3c0-1.1-.4-1.7-1.2-1.7h-.1c-1.1 0-1.6 1.1-1.6 2.3c-.05-.02 0 2.7 0 2.7h-.8zm10.5 0v-4.9h-1.3v-.6h1.3v-1.2c0-.7.3-1 1-1c.05.03 1.4 0 1.4 0v.6s-1.24.03-1.2 0c-.4 0-.5.1-.5.5c.02-.03 0 1.1 0 1.1h1.4v.6h-1.4v4.9h-.7zm2.9-2.7c0-1.7 1.1-2.9 2.5-2.9c1.5 0 2.6 1.2 2.6 2.9c0 1.7-1.1 2.8-2.6 2.8c-1.4 0-2.5-1.1-2.5-2.8zm2.6 2.2c1 0 1.7-.8 1.7-2.2c0-1.4-.7-2.3-1.7-2.3h-.1c-1 0-1.8.9-1.8 2.3c0 1.4.8 2.2 1.8 2.2h.1zm4 .5v-5.5h.7s-.04 1.28 0 1.3c.2-.9.9-1.3 1.7-1.3c-.03-.02.5 0 .5 0v.6s-.48.03-.5 0c-1 0-1.7.9-1.7 2.3c.02-.04 0 2.6 0 2.6h-.7zm6 0c-.7 0-1-.2-1-1v-3.9h-1.3v-.6h1.3v-1.8h.7v1.8h1.4v.6h-1.4v3.9c0 .3.1.4.4.4c.05.03 1.1 0 1.1 0v.6s-1.16.03-1.2 0zm2.5 0v-1.1h1.1v1.1h-1.1z" stroke="none" fill="#192d39"/></g><g id="Polygon16805"><path d="m12.8 39.6h.7c.2.7.8 1.1 1.7 1.1h.1c1 0 1.8-.5 1.8-1.9v-.9c-.3.6-.9 1-1.8 1c-1.4 0-2.4-1-2.4-2.8c0-1.7 1-2.8 2.4-2.8c.9 0 1.5.4 1.8 1c.02-.04 0-.9 0-.9h.7s.03 5.44 0 5.4c0 1.5-.9 2.5-2.5 2.5c-1.6 0-2.4-.7-2.5-1.7zm2.6-1.3c1 0 1.7-.8 1.7-2.2c0-1.3-.7-2.2-1.7-2.2h-.1c-1 0-1.7.9-1.7 2.2c0 1.4.7 2.2 1.7 2.2h.1zm4.3.6v-7.7h.7v7.7h-.7zm2.3-1.5c0-1.2 1-1.6 1.8-1.7c.04.01 1.8-.1 1.8-.1c0 0-.02-.24 0-.2c0-1-.5-1.5-1.4-1.5c-.8 0-1.3.3-1.4 1h-.7c0-1 .9-1.6 2.1-1.6c1.4 0 2.1.9 2.1 2.1v2.3c0 .3 0 .8.1 1.2h-.7c-.1-.3-.1-.6-.1-.9c-.2.5-.9 1-1.9 1c-1 0-1.7-.7-1.7-1.6zm1.9 1c.7 0 1.7-.7 1.7-1.5c-.02 0 0-.7 0-.7c0 0-1.61.07-1.6.1c-.8 0-1.3.4-1.3 1c0 .6.4 1.1 1.1 1.1h.1zm4.5-.1h3.6v.6h-4.3v-.7l3.4-4.2h-3.4v-.6h4.1v.6l-3.4 4.3zm4.9-5.9v-.9h.8v.9h-.8zm0 6.5v-5.5h.8v5.5h-.8zm2.6 0v-5.5h.7v.9c.3-.6 1-1 1.9-1c1.1 0 2 .7 2 2c-.05-.02 0 3.6 0 3.6h-.8s.04-3.4 0-3.4c0-1.1-.4-1.6-1.3-1.6c-1.2 0-1.8 1-1.8 2.2v2.8h-.7zm5.9.7h.7c.2.7.8 1.1 1.8 1.1h.1c.9 0 1.7-.5 1.7-1.9v-.9c-.3.6-.9 1-1.8 1c-1.4 0-2.4-1-2.4-2.8c0-1.7 1-2.8 2.4-2.8c.9 0 1.5.4 1.8 1c.04-.04 0-.9 0-.9h.8s-.04 5.44 0 5.4c0 1.5-1 2.5-2.6 2.5c-1.6 0-2.4-.7-2.5-1.7zm2.6-1.3c1 0 1.7-.8 1.7-2.2c0-1.3-.7-2.2-1.7-2.2h-.1c-1 0-1.6.9-1.6 2.2c0 1.4.6 2.2 1.6 2.2h.1zm6.3-.9c0-1.2 1.1-1.6 1.9-1.7c.01.01 1.7-.1 1.7-.1c0 0 .05-.24 0-.2c0-1-.5-1.5-1.3-1.5h-.1c-.7 0-1.3.3-1.4 1h-.7c.1-1 1-1.6 2.1-1.6c1.5 0 2.2.9 2.2 2.1v3.5h-.6c-.1-.3-.1-.6-.1-.9c-.2.5-1 1-1.9 1c-1 0-1.8-.7-1.8-1.6zm1.9 1c.8 0 1.7-.7 1.7-1.5c.05 0 0-.7 0-.7c0 0-1.55.07-1.5.1c-.8 0-1.4.4-1.4 1c0 .6.5 1.1 1.1 1.1h.1zm4.3.5v-5.5h.7s-.02.9 0 .9c.3-.6 1-1 1.9-1c1.1 0 1.9.7 1.9 2c.03-.02 0 3.6 0 3.6h-.7s.01-3.4 0-3.4c0-1.1-.4-1.6-1.3-1.6h-.1c-1.2 0-1.7 1-1.7 2.2c-.02.03 0 2.8 0 2.8h-.7zm6-2.8c0-1.7 1.1-2.8 2.5-2.8c.7 0 1.5.4 1.8 1c.03-.04 0-3.1 0-3.1h.7v7.7h-.7s.03-.9 0-.9c-.3.6-1.1 1-1.8 1c-1.4 0-2.5-1.1-2.5-2.9zm2.6 2.3c1.2 0 1.7-1.1 1.7-2.3c0-1.2-.5-2.2-1.7-2.2h-.1c-1.2 0-1.7 1-1.7 2.2c0 1.2.5 2.3 1.7 2.3h.1zm6.3-1c0-1.2 1-1.6 1.9-1.7l1.7-.1s.03-.24 0-.2c0-1-.5-1.5-1.3-1.5h-.1c-.7 0-1.3.3-1.4 1h-.7c.1-1 .9-1.6 2.1-1.6c1.5 0 2.1.9 2.1 2.1v2.3c0 .3 0 .8.1 1.2h-.7v-.9c-.2.5-1 1-2 1c-.9 0-1.7-.7-1.7-1.6zm1.9 1c.8 0 1.7-.7 1.7-1.5c.03 0 0-.7 0-.7c0 0-1.56.07-1.6.1c-.7 0-1.3.4-1.3 1c0 .6.5 1.1 1.1 1.1h.1zm3.9-2.3c0-1.6.9-2.8 2.6-2.8c1.1 0 2 .7 2.1 1.8h-.7c-.1-.7-.7-1.2-1.4-1.2h-.1c-1.2 0-1.8 1-1.8 2.2c0 1.2.6 2.3 1.8 2.3h.1c.7 0 1.2-.6 1.4-1.3h.7c-.2 1.2-1 1.9-2.1 1.9c-1.7 0-2.6-1.3-2.6-2.9zm5.9 0c0-1.7 1.1-2.8 2.5-2.8c1.4 0 2.5 1.1 2.5 2.8c0 1.7-1.1 2.9-2.5 2.9c-1.4 0-2.5-1.2-2.5-2.9zm2.6 2.3c1 0 1.7-.9 1.7-2.3c0-1.4-.7-2.2-1.7-2.2h-.1c-1 0-1.8.8-1.8 2.2c0 1.4.8 2.3 1.8 2.3h.1zM90 37c.02.01 0-3.6 0-3.6h.7s.04 3.39 0 3.4c0 1 .5 1.6 1.4 1.6h.1c.8 0 1.6-.8 1.6-2.1c-.04.05 0-2.9 0-2.9h.7v5.5h-.7s-.04-1.05 0-1.1c-.3.8-1 1.2-1.9 1.2c-1.2 0-1.9-.8-1.9-2zm5.9.2h.8c0 .8.6 1.2 1.4 1.2h.1c.8 0 1.2-.4 1.2-1c0-.4-.2-.7-.9-.9l-.8-.1c-.8-.2-1.5-.6-1.5-1.5c0-1.1.9-1.6 1.9-1.6c1.4 0 2.1.8 2.1 1.7h-.7c-.1-.6-.5-1.1-1.3-1.1h-.1c-.8 0-1.2.4-1.2.9c0 .5.3.7 1 .9l.8.2c.8.2 1.5.5 1.5 1.4c0 1.1-.9 1.7-2.1 1.7c-1.4 0-2.1-.8-2.2-1.8zm7.5 1.7c-.7 0-1-.3-1-1V34h-1.3v-.6h1.3v-1.8h.7v1.8h1.4v.6h-1.4v3.8c0 .4.1.5.4.5c.05-.02 1.1 0 1.1 0v.6s-1.16-.02-1.2 0zm2.4-6.5v-.9h.9v.9h-.9zm.1 6.5v-5.5h.7v5.5h-.7zm2.2-2.8c0-1.6.9-2.8 2.6-2.8c1.2 0 2 .7 2.1 1.8h-.7c-.1-.7-.6-1.2-1.4-1.2h-.1c-1.2 0-1.7 1-1.7 2.2c0 1.2.5 2.3 1.7 2.3h.1c.8 0 1.3-.6 1.4-1.3h.7c-.2 1.2-.9 1.9-2.1 1.9c-1.7 0-2.6-1.3-2.6-2.9zm5.9 1.3c0-1.2 1.1-1.6 1.9-1.7c.04.01 1.8-.1 1.8-.1c0 0-.02-.24 0-.2c0-1-.5-1.5-1.4-1.5h-.1c-.7 0-1.2.3-1.3 1h-.7c0-1 .9-1.6 2.1-1.6c1.4 0 2.1.9 2.1 2.1v3.5h-.6c-.1-.3-.1-.6-.1-.9c-.2.5-.9 1-1.9 1c-1 0-1.8-.7-1.8-1.6zm2 1c.7 0 1.7-.7 1.7-1.5c-.02 0 0-.7 0-.7c0 0-1.62.07-1.6.1c-.8 0-1.3.4-1.3 1c0 .6.4 1.1 1.1 1.1h.1zm4.2.5v-7.7h.7v7.7h-.7zm2.5 0v-7.7h.8v7.7h-.8zm7.3-5.5l-2.2 5.3s-.04 1.04 0 1c0 .7-.4 1-1.1 1c.01-.01-1.7 0-1.7 0v-.6h1.6c.3 0 .4-.1.4-.4c.04-.05 0-1 0-1l-2.3-5.3h.8l1.9 4.4l1.9-4.4h.7zm3.5 5.5v-5.5h.6s.04 1.23 0 1.2c.3-.8 1-1.3 1.7-1.3c.04.03.5 0 .5 0v.7s-.4-.02-.4 0c-1.1 0-1.7.8-1.7 2.2v2.7h-.7zm3.7-1.5c0-1.2 1.1-1.6 1.9-1.7c.03.01 1.8-.1 1.8-.1c0 0-.03-.24 0-.2c0-1-.6-1.5-1.4-1.5h-.1c-.7 0-1.3.3-1.3 1h-.7c0-1 .9-1.6 2.1-1.6c1.4 0 2.1.9 2.1 2.1v3.5h-.6c-.1-.3-.1-.6-.1-.9c-.2.5-1 1-1.9 1c-1 0-1.8-.7-1.8-1.6zm2 1c.7 0 1.7-.7 1.7-1.5c-.03 0 0-.7 0-.7c0 0-1.63.07-1.6.1c-.8 0-1.3.4-1.3 1c0 .6.4 1.1 1.1 1.1h.1zm5.7.5c-.7 0-1-.3-1-1c-.02-.01 0-3.9 0-3.9h-1.3v-.6h1.3v-1.8h.7v1.8h1.4v.6h-1.4v3.8c0 .4.1.5.4.5c.04-.02 1.1 0 1.1 0v.6s-1.17-.02-1.2 0zm2-2.8c0-1.9 1.2-2.8 2.5-2.8c1.3 0 2.2 1 2.2 2.4v.5s-3.96-.02-4 0c.1 1.5.9 2.2 1.8 2.2c.8 0 1.3-.4 1.5-1.1h.7c-.3 1.1-1.1 1.7-2.2 1.7c-1.4 0-2.5-1-2.5-2.9zm4-.5c0-1-.6-1.7-1.5-1.7h-.1c-.7 0-1.5.4-1.6 1.7h3.2zm2 .5c0-1.7 1-2.8 2.4-2.8c.7 0 1.5.4 1.9 1c-.03-.04 0-3.1 0-3.1h.7v7.7h-.7s-.03-.9 0-.9c-.4.6-1.2 1-1.9 1c-1.4 0-2.4-1.1-2.4-2.9zm2.5 2.3c1.2 0 1.8-1.1 1.8-2.3c0-1.2-.6-2.2-1.8-2.2h-.1c-1.1 0-1.7 1-1.7 2.2c0 1.2.6 2.3 1.7 2.3h.1zm6.6-6v-.9h.8v.9h-.8zm.1 6.5v-5.5h.7v5.5h-.7zm2.5 0v-5.5h.7s.02.9 0 .9c.3-.6 1-1 1.9-1c1.1 0 2 .7 2 2c-.03-.02 0 3.6 0 3.6h-.7s-.04-3.4 0-3.4c0-1.1-.5-1.6-1.4-1.6c-1.2 0-1.8 1-1.8 2.2c.02.03 0 2.8 0 2.8h-.7zm7.9 0c-.7 0-1-.3-1-1V34h-1.3v-.6h1.3v-1.8h.7v1.8h1.4v.6h-1.4s.02 3.84 0 3.8c0 .4.1.5.5.5c-.04-.02 1.1 0 1.1 0v.6s-1.25-.02-1.3 0zm2-2.8c0-1.9 1.2-2.8 2.5-2.8c1.3 0 2.2 1 2.2 2.4c.02.05 0 .5 0 .5c0 0-3.94-.02-3.9 0c0 1.5.8 2.2 1.7 2.2h.1c.7 0 1.2-.4 1.4-1.1h.7c-.2 1.1-1.1 1.7-2.2 1.7c-1.4 0-2.5-1-2.5-2.9zm4-.5c0-1-.6-1.7-1.5-1.7h-.1c-.7 0-1.5.4-1.6 1.7h3.2zm2.3 3.3v-5.5h.7s-.04 1.23 0 1.2c.2-.8.9-1.3 1.7-1.3c-.04.03.5 0 .5 0v.7s-.48-.02-.5 0c-1 0-1.7.8-1.7 2.2v2.7h-.7zm4.1 0v-5.5h.7v.9c.3-.6 1-1 1.9-1c1.1 0 2 .7 2 2c-.05-.02 0 3.6 0 3.6h-.8s.04-3.4 0-3.4c0-1.1-.4-1.6-1.3-1.6c-1.2 0-1.8 1-1.8 2.2v2.8h-.7zm6.1-1.5c0-1.2 1-1.6 1.8-1.7c.04.01 1.8-.1 1.8-.1c0 0-.02-.24 0-.2c0-1-.5-1.5-1.4-1.5c-.8 0-1.3.3-1.4 1h-.7c0-1 .9-1.6 2.1-1.6c1.4 0 2.1.9 2.1 2.1v3.5h-.6c-.1-.3-.1-.6-.1-.9c-.2.5-.9 1-1.9 1c-1 0-1.7-.7-1.7-1.6zm1.9 1c.7 0 1.7-.7 1.7-1.5c-.02 0 0-.7 0-.7c0 0-1.61.07-1.6.1c-.8 0-1.3.4-1.3 1c0 .6.4 1.1 1.1 1.1h.1zm4.2.5v-7.7h.7v7.7h-.7zm11.5-5.5h.7l-1.8 5.5h-.9l-1.3-4.8l-1.2 4.8h-1l-1.7-5.5h.7l1.5 4.8l1.3-4.8h.9l1.3 4.9l1.5-4.9zm1.6 4c0-1.2 1-1.6 1.9-1.7l1.7-.1v-.2c0-1-.5-1.5-1.4-1.5c-.7 0-1.3.3-1.4 1h-.7c0-1 .9-1.6 2.1-1.6c1.4 0 2.1.9 2.1 2.1v2.3c0 .3 0 .8.1 1.2h-.7c0-.3-.1-.6-.1-.9c-.2.5-.9 1-1.9 1c-1 0-1.7-.7-1.7-1.6zm1.9 1c.7 0 1.7-.7 1.7-1.5v-.7s-1.6.07-1.6.1c-.8 0-1.3.4-1.3 1c0 .6.4 1.1 1.1 1.1h.1zm4.2.5v-7.7h.7v7.7h-.7zm2.6 0v-7.7h.7v7.7h-.7zm4.4-1.7h.7c.1.8.7 1.2 1.5 1.2h.1c.7 0 1.2-.4 1.2-1c0-.4-.2-.7-1-.9l-.8-.1c-.8-.2-1.5-.6-1.5-1.5c0-1.1 1-1.6 2-1.6c1.4 0 2 .8 2.1 1.7h-.7c-.1-.6-.6-1.1-1.3-1.1h-.1c-.8 0-1.2.4-1.2.9c0 .5.3.7 1 .9l.8.2c.8.2 1.4.5 1.4 1.4c0 1.1-.8 1.7-2 1.7c-1.4 0-2.1-.8-2.2-1.8zm10.4-3.8l-2.2 5.3s-.03 1.04 0 1c0 .7-.4 1-1.1 1h-1.6v-.6h1.5c.3 0 .5-.1.5-.4c-.04-.05 0-1 0-1l-2.4-5.3h.8l1.9 4.4l1.9-4.4h.7zm.7 3.8h.7c.1.8.7 1.2 1.5 1.2h.1c.7 0 1.2-.4 1.2-1c0-.4-.2-.7-1-.9l-.8-.1c-.8-.2-1.5-.6-1.5-1.5c0-1.1 1-1.6 2-1.6c1.4 0 2 .8 2.1 1.7h-.7c-.1-.6-.6-1.1-1.3-1.1h-.1c-.8 0-1.2.4-1.2.9c0 .5.3.7 1 .9l.8.2c.8.2 1.4.5 1.4 1.4c0 1.1-.8 1.7-2 1.7c-1.4 0-2.1-.8-2.2-1.8zm7.5 1.7c-.7 0-1-.3-1-1c-.03-.01 0-3.9 0-3.9h-1.3v-.6h1.3v-1.8h.7v1.8h1.4v.6h-1.4s-.02 3.84 0 3.8c0 .4.1.5.4.5c.02-.02 1.1 0 1.1 0v.6s-1.19-.02-1.2 0zm2-2.8c0-1.9 1.2-2.8 2.5-2.8c1.3 0 2.2 1 2.2 2.4v.5s-3.97-.02-4 0c0 1.5.9 2.2 1.8 2.2c.8 0 1.3-.4 1.5-1.1h.7c-.3 1.1-1.1 1.7-2.2 1.7c-1.4 0-2.5-1-2.5-2.9zm4-.5c-.1-1-.6-1.7-1.5-1.7h-.1c-.7 0-1.5.4-1.7 1.7h3.3zm2.3 3.3v-5.5h.7s-.02.86 0 .9c.3-.6.9-1 1.8-1c.8 0 1.5.4 1.7 1.1c.4-.7 1.1-1.1 2-1.1c1 0 1.8.7 1.8 2c.05-.02 0 3.6 0 3.6h-.7s.03-3.4 0-3.4c0-1.1-.4-1.6-1.2-1.6h-.1c-1.1 0-1.6 1-1.6 2.2c-.04.03 0 2.8 0 2.8h-.8s.05-3.4 0-3.4c0-1.1-.4-1.6-1.2-1.6h-.1c-1.1 0-1.6 1-1.6 2.2c-.02.03 0 2.8 0 2.8h-.7zm9.5-1.7h.7c.1.8.6 1.2 1.4 1.2h.1c.8 0 1.2-.4 1.2-1c0-.4-.2-.7-.9-.9l-.8-.1c-.8-.2-1.5-.6-1.5-1.5c0-1.1.9-1.6 1.9-1.6c1.4 0 2.1.8 2.1 1.7h-.7c-.1-.6-.5-1.1-1.3-1.1h-.1c-.8 0-1.2.4-1.2.9c0 .5.3.7 1 .9l.9.2c.7.2 1.4.5 1.4 1.4c0 1.1-.8 1.7-2.1 1.7c-1.4 0-2.1-.8-2.1-1.8zm5.3 2.9v-.4h.4c.4 0 .6-.2.6-.7v-.1h-.6v-1.1h1.1v1.3c0 .7-.4 1-1 1c-.04.04-.5 0-.5 0zm5.2-4c0-1.9 1.2-2.8 2.5-2.8c1.3 0 2.2 1 2.2 2.4c.02.05 0 .5 0 .5c0 0-3.94-.02-3.9 0c0 1.5.8 2.2 1.7 2.2h.1c.7 0 1.2-.4 1.4-1.1h.7c-.2 1.1-1.1 1.7-2.2 1.7c-1.4 0-2.5-1-2.5-2.9zm4-.5c0-1-.6-1.7-1.5-1.7h-.1c-.7 0-1.5.4-1.6 1.7h3.2zm2.3 3.3v-5.5h.7s.01.9 0 .9c.3-.6 1-1 1.9-1c1.1 0 2 .7 2 2c-.04-.02 0 3.6 0 3.6h-.8s.05-3.4 0-3.4c0-1.1-.4-1.6-1.3-1.6c-1.2 0-1.8 1-1.8 2.2v2.8h-.7zm6-1.7h.7c.1.8.6 1.2 1.4 1.2h.1c.8 0 1.3-.4 1.3-1c0-.4-.3-.7-1-.9l-.8-.1c-.8-.2-1.5-.6-1.5-1.5c0-1.1.9-1.6 2-1.6c1.3 0 2 .8 2 1.7h-.7c-.1-.6-.5-1.1-1.3-1.1h-.1c-.8 0-1.2.4-1.2.9c0 .5.3.7 1 .9l.9.2c.7.2 1.4.5 1.4 1.4c0 1.1-.8 1.7-2 1.7c-1.5 0-2.2-.8-2.2-1.8zm5.7-.2c.01.01 0-3.6 0-3.6h.7s.02 3.39 0 3.4c0 1 .5 1.6 1.3 1.6h.2c.8 0 1.6-.8 1.6-2.1c-.05.05 0-2.9 0-2.9h.7v5.5h-.7s-.05-1.05 0-1.1c-.3.8-1 1.2-1.9 1.2c-1.2 0-1.9-.8-1.9-2zm6.3 1.9v-5.5h.7s-.03 1.23 0 1.2c.2-.8.9-1.3 1.7-1.3c-.03.03.5 0 .5 0v.7s-.47-.02-.5 0c-1 0-1.7.8-1.7 2.2c.02.01 0 2.7 0 2.7h-.7zm4-6.5v-.9h.9v.9h-.9zm.1 6.5v-5.5h.7v5.5h-.7zm2.5 0v-5.5h.8s-.04.9 0 .9c.3-.6 1-1 1.9-1c1.1 0 1.9.7 1.9 2c.01-.02 0 3.6 0 3.6h-.7v-3.4c0-1.1-.4-1.6-1.3-1.6h-.1c-1.2 0-1.7 1-1.7 2.2c-.04.03 0 2.8 0 2.8h-.8zm6 .7h.7c.1.7.8 1.1 1.7 1.1h.1c1 0 1.8-.5 1.8-1.9v-.9c-.3.6-.9 1-1.8 1c-1.4 0-2.4-1-2.4-2.8c0-1.7 1-2.8 2.4-2.8c.9 0 1.5.4 1.8 1v-.9h.7v5.4c0 1.5-.9 2.5-2.5 2.5c-1.6 0-2.4-.7-2.5-1.7zm2.6-1.3c1 0 1.7-.8 1.7-2.2c0-1.3-.7-2.2-1.7-2.2h-.1c-1 0-1.7.9-1.7 2.2c0 1.4.7 2.2 1.7 2.2h.1z" stroke="none" fill="#192d39"/></g><g id="Polygon16804"><path d="m12.9 22.2c0-1.2 1.1-1.6 1.9-1.6c.02-.04 1.8-.2 1.8-.2c0 0-.04-.19 0-.2c0-.9-.6-1.5-1.4-1.5h-.1c-.7 0-1.3.4-1.3 1.1h-.8c.1-1 1-1.7 2.2-1.7c1.4 0 2.1 1 2.1 2.1v3.5h-.6c-.1-.2-.1-.6-.1-.8c-.2.5-1 .9-1.9.9c-1 0-1.8-.7-1.8-1.6zm2 1c.7 0 1.7-.6 1.7-1.5c-.04.05 0-.7 0-.7c0 0-1.64.12-1.6.1c-.8.1-1.4.5-1.4 1.1c0 .6.5 1 1.1 1h.2zm4.2.5v-5.5h.7v1c.3-.7 1-1.1 1.9-1.1c1.1 0 1.9.7 1.9 2c.04.03 0 3.6 0 3.6h-.7s.02-3.35 0-3.3c0-1.1-.4-1.7-1.3-1.7h-.1c-1.2 0-1.7 1.1-1.7 2.3v2.7h-.7zm6-2.7c0-1.8 1.1-2.9 2.5-2.9c.7 0 1.5.4 1.8 1c.04.01 0-3.1 0-3.1h.8v7.7h-.8s.04-.85 0-.8c-.3.6-1.1.9-1.8.9c-1.4 0-2.5-1.1-2.5-2.8zm2.6 2.2c1.2 0 1.7-1 1.7-2.2c0-1.2-.5-2.3-1.7-2.3h-.1c-1.2 0-1.7 1.1-1.7 2.3c0 1.2.5 2.2 1.7 2.2h.1zm6.2-1.1h.7c.1.7.7 1.1 1.4 1.1h.1c.8 0 1.3-.3 1.3-1c0-.4-.2-.6-1-.8l-.8-.2c-.8-.2-1.5-.5-1.5-1.5c0-1 .9-1.6 2-1.6c1.4 0 2 .9 2.1 1.8h-.8c0-.6-.5-1.2-1.3-1.2h-.1c-.7 0-1.2.5-1.2 1c0 .5.3.7 1 .9l.9.1c.8.2 1.4.6 1.4 1.5c0 1-.8 1.6-2 1.6c-1.4 0-2.1-.7-2.2-1.7zm5.4-1.1c0-1.7 1.2-2.9 2.6-2.9c1.4 0 2.5 1.2 2.5 2.9c0 1.7-1.1 2.8-2.5 2.8c-1.4 0-2.6-1.1-2.6-2.8zm2.6 2.2c1 0 1.8-.8 1.8-2.2c0-1.4-.8-2.3-1.8-2.3h-.1c-1 0-1.7.9-1.7 2.3c0 1.4.7 2.2 1.7 2.2h.1zm4-1.3c-.01-.04 0-3.7 0-3.7h.7s.01 3.44 0 3.4c0 1.1.4 1.6 1.3 1.6h.1c.8 0 1.6-.7 1.6-2c.03 0 0-3 0-3h.7v5.5h-.7s.03-1 0-1c-.3.7-.9 1.1-1.8 1.1c-1.2 0-1.9-.8-1.9-1.9zm6.3 1.8v-5.5h.7v1c.3-.7 1-1.1 1.9-1.1c1.1 0 2 .7 2 2c-.05.03 0 3.6 0 3.6h-.8s.04-3.35 0-3.3c0-1.1-.4-1.7-1.3-1.7c-1.2 0-1.8 1.1-1.8 2.3v2.7h-.7zm6.1-2.7c0-1.8 1-2.9 2.4-2.9c.7 0 1.5.4 1.9 1c-.04.01 0-3.1 0-3.1h.7v7.7h-.7s-.04-.85 0-.8c-.4.6-1.2.9-1.9.9c-1.4 0-2.4-1.1-2.4-2.8zm2.5 2.2c1.2 0 1.8-1 1.8-2.2c0-1.2-.6-2.3-1.8-2.3h-.1c-1.1 0-1.7 1.1-1.7 2.3c0 1.2.6 2.2 1.7 2.2h.1zm6.6 2.7v-7.7h.8s-.04.91 0 .9c.3-.6 1.1-1 1.8-1c1.4 0 2.5 1.1 2.5 2.9c0 1.7-1.1 2.8-2.5 2.8c-.7 0-1.5-.3-1.8-.9c-.04-.05 0 3 0 3h-.8zm2.6-2.7c1.2 0 1.7-1 1.7-2.2c0-1.2-.5-2.3-1.7-2.3h-.1c-1.2 0-1.7 1.1-1.7 2.3c0 1.2.5 2.2 1.7 2.2h.1zm4 .5v-5.5h.7s-.03 1.28 0 1.3c.2-.9.9-1.3 1.7-1.3c-.03-.02.5 0 .5 0v.6s-.47.03-.5 0c-1 0-1.7.9-1.7 2.3c.02-.04 0 2.6 0 2.6h-.7zm3.6-2.7c0-1.7 1.1-2.9 2.5-2.9c1.5 0 2.6 1.2 2.6 2.9c0 1.7-1.1 2.8-2.6 2.8c-1.4 0-2.5-1.1-2.5-2.8zm2.6 2.2c1 0 1.8-.8 1.8-2.2c0-1.4-.8-2.3-1.8-2.3h-.1c-1 0-1.8.9-1.8 2.3c0 1.4.8 2.2 1.8 2.2h.1zm5.5.5c-.7 0-1-.2-1-1c-.02.04 0-3.9 0-3.9h-1.3v-.6h1.3v-1.8h.7v1.8h1.4v.6h-1.4v3.9c0 .3.1.4.4.4c.03.03 1.1 0 1.1 0v.6s-1.18.03-1.2 0zm2-2.7c0-2 1.2-2.9 2.5-2.9c1.3 0 2.2 1.1 2.2 2.5v.4s-3.96.03-4 0c.1 1.6.9 2.2 1.8 2.2c.8 0 1.3-.3 1.5-1h.7c-.3 1.1-1.1 1.6-2.2 1.6c-1.4 0-2.5-.9-2.5-2.8zm4-.6c-.1-.9-.6-1.7-1.5-1.7h-.1c-.7 0-1.5.4-1.6 1.7h3.2zm2 .6c0-1.6.9-2.9 2.5-2.9c1.2 0 2 .7 2.1 1.9h-.7c-.1-.7-.6-1.3-1.3-1.3h-.2c-1.2 0-1.7 1.1-1.7 2.3c0 1.2.5 2.2 1.7 2.2h.2c.7 0 1.2-.5 1.3-1.2h.7c-.2 1.1-.9 1.8-2.1 1.8c-1.6 0-2.5-1.2-2.5-2.8zm7.8 2.7c-.7 0-1-.2-1-1c-.02.04 0-3.9 0-3.9h-1.3v-.6h1.3v-1.8h.7v1.8h1.4v.6h-1.4v3.9c0 .3.1.4.4.4c.04.03 1.1 0 1.1 0v.6s-1.17.03-1.2 0zm2.4-6.5v-.9h.9v.9h-.9zm.1 6.5v-5.5h.7v5.5h-.7zm2.2-2.7c0-1.7 1.1-2.9 2.5-2.9c1.5 0 2.6 1.2 2.6 2.9c0 1.7-1.1 2.8-2.6 2.8c-1.4 0-2.5-1.1-2.5-2.8zm2.6 2.2c1 0 1.7-.8 1.7-2.2c0-1.4-.7-2.3-1.7-2.3h-.1c-1 0-1.8.9-1.8 2.3c0 1.4.8 2.2 1.8 2.2h.1zm4 .5v-5.5h.7s.02.95 0 1c.3-.7 1-1.1 1.9-1.1c1.1 0 2 .7 2 2c-.03.03 0 3.6 0 3.6h-.7s-.05-3.35 0-3.3c0-1.1-.5-1.7-1.4-1.7c-1.2 0-1.8 1.1-1.8 2.3c.02-.02 0 2.7 0 2.7h-.7zm8.4-2.7c0-1.6.9-2.9 2.5-2.9c1.2 0 2 .7 2.1 1.9h-.7c-.1-.7-.6-1.3-1.4-1.3h-.1c-1.2 0-1.7 1.1-1.7 2.3c0 1.2.5 2.2 1.7 2.2h.1c.8 0 1.3-.5 1.4-1.2h.7c-.2 1.1-.9 1.8-2.1 1.8c-1.6 0-2.5-1.2-2.5-2.8zm5.8 0c0-1.7 1.1-2.9 2.5-2.9c1.5 0 2.6 1.2 2.6 2.9c0 1.7-1.1 2.8-2.6 2.8c-1.4 0-2.5-1.1-2.5-2.8zm2.6 2.2c1 0 1.7-.8 1.7-2.2c0-1.4-.7-2.3-1.7-2.3h-.1c-1 0-1.8.9-1.8 2.3c0 1.4.8 2.2 1.8 2.2h.1zm4-1.3c-.04-.04 0-3.7 0-3.7h.7s-.03 3.44 0 3.4c0 1.1.4 1.6 1.3 1.6h.1c.8 0 1.6-.7 1.6-2v-3h.7v5.5h-.7v-1c-.3.7-.9 1.1-1.8 1.1c-1.3 0-1.9-.8-1.9-1.9zm6.3 1.8v-5.5h.6s.02 1.28 0 1.3c.3-.9 1-1.3 1.7-1.3c.02-.02.5 0 .5 0v.6s-.42.03-.4 0c-1.1 0-1.7.9-1.7 2.3c-.03-.04 0 2.6 0 2.6h-.7zm6 0c-.7 0-1-.2-1-1c-.05.04 0-3.9 0-3.9h-1.3v-.6h1.3v-1.8h.7v1.8h1.3v.6h-1.3s-.04 3.89 0 3.9c0 .3.1.4.4.4c0 .03 1.1 0 1.1 0v.6s-1.21.03-1.2 0zm2-2.7c0-2 1.2-2.9 2.4-2.9c1.4 0 2.3 1.1 2.3 2.5c-.03 0 0 .4 0 .4c0 0-3.99.03-4 0c0 1.6.8 2.2 1.7 2.2h.1c.7 0 1.2-.3 1.4-1h.8c-.3 1.1-1.1 1.6-2.3 1.6c-1.3 0-2.4-.9-2.4-2.8zm4-.6c-.1-.9-.6-1.7-1.5-1.7h-.1c-.7 0-1.5.4-1.7 1.7h3.3zm1.9 1.7h.7c.1.7.6 1.1 1.4 1.1h.1c.8 0 1.3-.3 1.3-1c0-.4-.3-.6-1-.8l-.8-.2c-.8-.2-1.5-.5-1.5-1.5c0-1 .9-1.6 2-1.6c1.3 0 2 .9 2 1.8h-.7c-.1-.6-.5-1.2-1.3-1.2h-.1c-.8 0-1.2.5-1.2 1c0 .5.3.7 1 .9l.9.1c.7.2 1.4.6 1.4 1.5c0 1-.8 1.6-2 1.6c-1.5 0-2.2-.7-2.2-1.7zm10.4-3.9l-2.3 5.3s.01 1.09 0 1.1c0 .7-.3.9-1 .9c-.03.04-1.7 0-1.7 0v-.6s1.56.04 1.6 0c.3 0 .4-.1.4-.4v-.9l-2.3-5.4h.7l1.9 4.5l1.9-4.5h.8zm3.1 2.8c0-1.7 1.1-2.9 2.5-2.9c1.4 0 2.6 1.2 2.6 2.9c0 1.7-1.2 2.8-2.6 2.8c-1.4 0-2.5-1.1-2.5-2.8zm2.6 2.2c1 0 1.7-.8 1.7-2.2c0-1.4-.7-2.3-1.7-2.3h-.1c-1 0-1.8.9-1.8 2.3c0 1.4.8 2.2 1.8 2.2h.1zm4.5.5v-4.9h-1.3v-.6h1.3V17c0-.7.3-1 1-1c.03.03 1.4 0 1.4 0v.6s-1.26.03-1.3 0c-.3 0-.4.1-.4.5v1.1h1.4v.6h-1.4v4.9h-.7zm5.3-2.7c0-2 1.2-2.9 2.5-2.9c1.3 0 2.2 1.1 2.2 2.5v.4s-3.96.03-4 0c.1 1.6.9 2.2 1.8 2.2c.8 0 1.3-.3 1.5-1h.7c-.3 1.1-1.1 1.6-2.2 1.6c-1.4 0-2.5-.9-2.5-2.8zm4-.6c0-.9-.6-1.7-1.5-1.7h-.1c-.7 0-1.5.4-1.6 1.7h3.2zm2.3 3.3v-5.5h.7v1c.3-.7 1-1.1 1.9-1.1c1.1 0 1.9.7 1.9 2c.04.03 0 3.6 0 3.6h-.7s.03-3.35 0-3.3c0-1.1-.4-1.7-1.3-1.7h-.1c-1.1 0-1.7 1.1-1.7 2.3v2.7h-.7zm5.9.8h.7c.2.7.8 1 1.7 1h.2c.9 0 1.7-.5 1.7-1.9v-.9c-.3.6-.9 1-1.8 1c-1.4 0-2.4-1-2.4-2.7c0-1.8 1-2.9 2.4-2.9c.9 0 1.5.4 1.8 1c.03.01 0-.9 0-.9h.7s.04 5.49 0 5.5c0 1.4-.9 2.4-2.5 2.4c-1.6 0-2.4-.6-2.5-1.6zm2.6-1.4c1 0 1.7-.7 1.7-2.1c0-1.4-.7-2.3-1.7-2.3h-.1c-1 0-1.7.9-1.7 2.3c0 1.4.7 2.1 1.7 2.1h.1zm4.2-5.9v-.9h.9v.9h-.9zm.1 6.5v-5.5h.7v5.5h-.7zm2.5 0v-5.5h.8s-.05.95 0 1c.3-.7 1-1.1 1.9-1.1c1.1 0 1.9.7 1.9 2v3.6h-.7s-.01-3.35 0-3.3c0-1.1-.5-1.7-1.3-1.7h-.1c-1.2 0-1.7 1.1-1.7 2.3c-.05-.02 0 2.7 0 2.7h-.8zm6.1-2.7c0-2 1.2-2.9 2.5-2.9c1.3 0 2.2 1.1 2.2 2.5c-.02 0 0 .4 0 .4c0 0-3.98.03-4 0c0 1.6.8 2.2 1.8 2.2c.8 0 1.3-.3 1.5-1h.7c-.3 1.1-1.1 1.6-2.2 1.6c-1.4 0-2.5-.9-2.5-2.8zm4-.6c-.1-.9-.6-1.7-1.5-1.7h-.1c-.7 0-1.5.4-1.7 1.7h3.3zm2 .6c0-2 1.1-2.9 2.4-2.9c1.4 0 2.2 1.1 2.2 2.5c.03 0 0 .4 0 .4c0 0-3.93.03-3.9 0c0 1.6.8 2.2 1.7 2.2h.1c.7 0 1.2-.3 1.4-1h.7c-.2 1.1-1.1 1.6-2.2 1.6c-1.4 0-2.4-.9-2.4-2.8zm3.9-.6c0-.9-.6-1.7-1.4-1.7h-.2c-.6 0-1.4.4-1.6 1.7h3.2zm2.3 3.3v-5.5h.7s-.03 1.28 0 1.3c.2-.9.9-1.3 1.7-1.3c-.02-.02.5 0 .5 0v.6s-.47.03-.5 0c-1 0-1.7.9-1.7 2.3c.03-.04 0 2.6 0 2.6h-.7zm3.7-2.7c0-2 1.1-2.9 2.4-2.9c1.3 0 2.2 1.1 2.2 2.5c.03 0 0 .4 0 .4c0 0-3.93.03-3.9 0c0 1.6.8 2.2 1.7 2.2h.1c.7 0 1.2-.3 1.4-1h.7c-.2 1.1-1.1 1.6-2.2 1.6c-1.4 0-2.4-.9-2.4-2.8zm3.9-.6c0-.9-.6-1.7-1.5-1.7h-.1c-.7 0-1.5.4-1.6 1.7h3.2zm2 .6c0-1.8 1-2.9 2.5-2.9c.7 0 1.5.4 1.8 1V16h.7v7.7h-.7v-.8c-.3.6-1.1.9-1.8.9c-1.5 0-2.5-1.1-2.5-2.8zm2.5 2.2c1.2 0 1.8-1 1.8-2.2c0-1.2-.6-2.3-1.8-2.3c-1.2 0-1.8 1.1-1.8 2.3c0 1.2.6 2.2 1.8 2.2zm6.7 2.7v-7.7h.7v.9c.3-.6 1.1-1 1.8-1c1.5 0 2.5 1.1 2.5 2.9c0 1.7-1 2.8-2.5 2.8c-.7 0-1.5-.3-1.8-.9v3h-.7zm2.5-2.7c1.2 0 1.8-1 1.8-2.2c0-1.2-.6-2.3-1.8-2.3c-1.2 0-1.8 1.1-1.8 2.3c0 1.2.6 2.2 1.8 2.2zm3.8-2.2c0-2 1.1-2.9 2.4-2.9c1.4 0 2.2 1.1 2.2 2.5c.03 0 0 .4 0 .4c0 0-3.93.03-3.9 0c0 1.6.8 2.2 1.7 2.2h.1c.7 0 1.2-.3 1.4-1h.7c-.2 1.1-1.1 1.6-2.2 1.6c-1.4 0-2.4-.9-2.4-2.8zm3.9-.6c0-.9-.6-1.7-1.4-1.7h-.2c-.6 0-1.4.4-1.6 1.7h3.2zm2.3 3.3v-5.5h.7s-.03 1.28 0 1.3c.2-.9.9-1.3 1.7-1.3c-.02-.02.5 0 .5 0v.6s-.47.03-.5 0c-1 0-1.7.9-1.7 2.3c.03-.04 0 2.6 0 2.6h-.7zm5 0v-4.9h-1.2v-.6h1.2s.04-1.18 0-1.2c0-.7.4-1 1.1-1c-.02.03 1.4 0 1.4 0v.6s-1.31.03-1.3 0c-.3 0-.4.1-.4.5c-.05-.03 0 1.1 0 1.1h1.4v.6h-1.4v4.9h-.8zm2.9-2.7c0-1.7 1.2-2.9 2.6-2.9c1.4 0 2.5 1.2 2.5 2.9c0 1.7-1.1 2.8-2.5 2.8c-1.4 0-2.6-1.1-2.6-2.8zm2.6 2.2c1 0 1.8-.8 1.8-2.2c0-1.4-.8-2.3-1.8-2.3h-.1c-1 0-1.7.9-1.7 2.3c0 1.4.7 2.2 1.7 2.2h.1zm4 .5v-5.5h.7v1.3c.2-.9.9-1.3 1.7-1.3c0-.02.5 0 .5 0v.6s-.45.03-.4 0c-1.1 0-1.8.9-1.8 2.3c.05-.04 0 2.6 0 2.6h-.7zm4.1 0v-5.5h.7s.04.91 0 .9c.4-.6 1-1 1.9-1c.8 0 1.4.4 1.7 1.2c.4-.8 1-1.2 1.9-1.2c1.1 0 1.9.7 1.9 2c.01.03 0 3.6 0 3.6h-.7s-.01-3.35 0-3.3c0-1.1-.4-1.7-1.3-1.7c-1.1 0-1.7 1.1-1.7 2.3c.02-.02 0 2.7 0 2.7h-.7s.01-3.35 0-3.3c0-1.1-.4-1.7-1.3-1.7c-1.1 0-1.7 1.1-1.7 2.3c.04-.02 0 2.7 0 2.7h-.7zm9.6-1.5c0-1.2 1.1-1.6 1.9-1.6c.01-.04 1.7-.2 1.7-.2c0 0 .05-.19 0-.2c0-.9-.5-1.5-1.3-1.5h-.1c-.7 0-1.3.4-1.4 1.1h-.7c.1-1 1-1.7 2.1-1.7c1.5 0 2.2 1 2.2 2.1v3.5h-.6c-.1-.2-.1-.6-.1-.8c-.2.5-1 .9-1.9.9c-1 0-1.8-.7-1.8-1.6zm1.9 1c.8 0 1.7-.6 1.7-1.5c.05.05 0-.7 0-.7c0 0-1.55.12-1.5.1c-.8.1-1.4.5-1.4 1.1c0 .6.5 1 1.1 1h.1zm4.3.5v-5.5h.7s-.02.95 0 1c.3-.7 1-1.1 1.9-1.1c1.1 0 1.9.7 1.9 2c.03.03 0 3.6 0 3.6h-.7s.01-3.35 0-3.3c0-1.1-.4-1.7-1.3-1.7h-.1c-1.2 0-1.7 1.1-1.7 2.3c-.02-.02 0 2.7 0 2.7h-.7zm6-2.7c0-1.6.9-2.9 2.6-2.9c1.2 0 2 .7 2.1 1.9h-.7c-.1-.7-.6-1.3-1.4-1.3h-.1c-1.2 0-1.8 1.1-1.8 2.3c0 1.2.6 2.2 1.8 2.2h.1c.8 0 1.3-.5 1.4-1.2h.7c-.2 1.1-.9 1.8-2.1 1.8c-1.7 0-2.6-1.2-2.6-2.8zm5.9 0c0-2 1.2-2.9 2.5-2.9c1.3 0 2.2 1.1 2.2 2.5c-.02 0 0 .4 0 .4c0 0-3.98.03-4 0c0 1.6.8 2.2 1.7 2.2h.1c.8 0 1.2-.3 1.5-1h.7c-.3 1.1-1.1 1.6-2.2 1.6c-1.4 0-2.5-.9-2.5-2.8zm4-.6c-.1-.9-.6-1.7-1.5-1.7h-.1c-.7 0-1.5.4-1.7 1.7h3.3z" stroke="none" fill="#192d39"/></g><g id="Polygon16803"><path d="m13 4.7C13 2.4 14.3.8 16.6.8c1.7 0 2.9 1 3 2.6h-.8c-.1-1.2-1-1.9-2.2-1.9h-.1c-1.6 0-2.8 1.1-2.8 3.2c0 2.1 1.2 3.3 2.8 3.3h.1c1.2 0 2.4-.8 2.4-2.2c-.04.04 0-.4 0-.4h-2.4v-.7s2.36.03 2.4 0c.4 0 .7.3.7.7c-.03.04 0 3.2 0 3.2h-.7s-.04-1.02 0-1c-.5.7-1.4 1.1-2.5 1.1c-2.2 0-3.5-1.7-3.5-4zm8.2 1.1c0-1.9 1.2-2.8 2.4-2.8c1.4 0 2.3 1 2.3 2.4c-.03.05 0 .5 0 .5c0 0-3.99-.02-4 0c0 1.5.8 2.2 1.7 2.2h.1c.7 0 1.2-.4 1.4-1.1h.8c-.3 1.1-1.1 1.7-2.3 1.7c-1.3 0-2.4-1-2.4-2.9zm4-.5c-.1-1-.6-1.7-1.5-1.7h-.1c-.7 0-1.5.4-1.7 1.7h3.3zm2.2 3.3V3.1h.8s-.04.9 0 .9c.3-.6 1-1 1.9-1c1.1 0 1.9.7 1.9 2c.01-.02 0 3.6 0 3.6h-.7s-.01-3.4 0-3.4c0-1.1-.4-1.6-1.3-1.6h-.1c-1.2 0-1.7 1-1.7 2.2c-.04.03 0 2.8 0 2.8h-.8zm6.1-2.8C33.5 3.9 34.7 3 36 3c1.3 0 2.2 1 2.2 2.4v.5s-3.97-.02-4 0c.1 1.5.9 2.2 1.8 2.2c.8 0 1.3-.4 1.5-1.1h.7c-.3 1.1-1.1 1.7-2.2 1.7c-1.4 0-2.5-1-2.5-2.9zm4-.5c-.1-1-.6-1.7-1.5-1.7h-.1c-.7 0-1.5.4-1.6 1.7h3.2zm2.3 3.3V3.1h.6s.03 1.23 0 1.2c.3-.8 1-1.3 1.7-1.3c.03.03.5 0 .5 0v.7s-.41-.02-.4 0c-1.1 0-1.7.8-1.7 2.2c-.02.01 0 2.7 0 2.7h-.7zm3.6-2.8c0-1.7 1.1-2.8 2.5-2.8c1.4 0 2.5 1.1 2.5 2.8c0 1.7-1.1 2.9-2.5 2.9c-1.4 0-2.5-1.2-2.5-2.9zM46 8.1c1 0 1.7-.9 1.7-2.3c0-1.4-.7-2.2-1.7-2.2h-.1c-1 0-1.8.8-1.8 2.2c0 1.4.8 2.3 1.8 2.3h.1zm3.9-1.4c.02.01 0-3.6 0-3.6h.7s.04 3.39 0 3.4c0 1 .5 1.6 1.4 1.6h.1c.8 0 1.6-.8 1.6-2.1c-.04.05 0-2.9 0-2.9h.7v5.5h-.7s-.04-1.05 0-1.1c-.3.8-1 1.2-1.9 1.2c-1.2 0-1.9-.8-1.9-2zm5.9.2h.8c0 .8.6 1.2 1.4 1.2h.1c.8 0 1.2-.4 1.2-1c0-.4-.2-.7-.9-.9l-.8-.1c-.9-.2-1.5-.6-1.5-1.5C56.1 3.5 57 3 58 3c1.4 0 2 .8 2.1 1.7h-.7c-.1-.6-.5-1.1-1.3-1.1h-.1c-.8 0-1.2.4-1.2.9c0 .5.3.7 1 .9l.8.2c.8.2 1.4.5 1.4 1.4c0 1.1-.8 1.7-2 1.7c-1.4 0-2.1-.8-2.2-1.8zm8.8 1.7V3.7h-1.3v-.6h1.3s-.04-1.23 0-1.2c0-.7.3-1 1-1c0-.02 3.4 0 3.4 0v7.7h-.8V1.5s-2.49-.02-2.5 0c-.3 0-.4.1-.4.4c-.03.02 0 1.2 0 1.2h1.4v.6h-1.4v4.9h-.7zm5.9-2.8C70.5 4.1 71.6 3 73 3c1.5 0 2.6 1.1 2.6 2.8c0 1.7-1.1 2.9-2.6 2.9c-1.4 0-2.5-1.2-2.5-2.9zm2.6 2.3c1 0 1.8-.9 1.8-2.3c0-1.4-.8-2.2-1.8-2.2h-.1c-1 0-1.8.8-1.8 2.2c0 1.4.8 2.3 1.8 2.3h.1zm3.7-2.3c0-1.7 1.1-2.8 2.5-2.8c1.5 0 2.6 1.1 2.6 2.8c0 1.7-1.1 2.9-2.6 2.9c-1.4 0-2.5-1.2-2.5-2.9zm2.6 2.3c1 0 1.7-.9 1.7-2.3c0-1.4-.7-2.2-1.7-2.2h-.1c-1 0-1.8.8-1.8 2.2c0 1.4.8 2.3 1.8 2.3h.1zm4 .5V3.1h.7s-.04 1.23 0 1.2c.2-.8.9-1.3 1.7-1.3c-.03.03.5 0 .5 0v.7s-.48-.02-.5 0c-1 0-1.7.8-1.7 2.2c.02.01 0 2.7 0 2.7h-.7zm6.4 2.2V3.1h.7s-.02.86 0 .9c.3-.6 1.1-1 1.8-1c1.4 0 2.5 1.1 2.5 2.8c0 1.8-1.1 2.9-2.5 2.9c-.7 0-1.5-.4-1.8-1c-.02 0 0 3.1 0 3.1h-.7zm2.5-2.7C93.5 8.1 94 7 94 5.8c0-1.2-.5-2.2-1.7-2.2h-.1c-1.2 0-1.7 1-1.7 2.2c0 1.2.5 2.3 1.7 2.3h.1zm4 .5V.9h.7v7.7h-.7zm2.3-1.5c0-1.2 1.1-1.6 1.9-1.7l1.7-.1s.04-.24 0-.2c0-1-.5-1.5-1.3-1.5h-.1c-.7 0-1.3.3-1.4 1h-.7c.1-1 1-1.6 2.1-1.6c1.5 0 2.2.9 2.2 2.1v3.5h-.7v-.9c-.2.5-1 1-2 1c-.9 0-1.7-.7-1.7-1.6zm1.9 1c.8 0 1.7-.7 1.7-1.5c.04 0 0-.7 0-.7c0 0-1.56.07-1.6.1c-.7 0-1.3.4-1.3 1c0 .6.5 1.1 1.1 1.1h.1zm4.3.5V3.1h.7s-.03.9 0 .9c.3-.6 1-1 1.9-1c1.1 0 1.9.7 1.9 2c.02-.02 0 3.6 0 3.6h-.7V5.2c0-1.1-.4-1.6-1.3-1.6h-.1c-1.2 0-1.7 1-1.7 2.2c-.03.03 0 2.8 0 2.8h-.7zm5.9-1.7h.7c.1.8.7 1.2 1.5 1.2h.1c.7 0 1.2-.4 1.2-1c0-.4-.2-.7-1-.9l-.8-.1c-.8-.2-1.5-.6-1.5-1.5c0-1.1 1-1.6 2-1.6c1.4 0 2 .8 2.1 1.7h-.7c-.1-.6-.6-1.1-1.3-1.1h-.1c-.8 0-1.2.4-1.2.9c0 .5.3.7 1 .9l.8.2c.8.2 1.4.5 1.4 1.4c0 1.1-.8 1.7-2 1.7c-1.4 0-2.1-.8-2.2-1.8zm7.8.2c0-1.2 1-1.6 1.9-1.7l1.7-.1s.03-.24 0-.2c0-1-.5-1.5-1.3-1.5h-.1c-.7 0-1.3.3-1.4 1h-.7c.1-1 .9-1.6 2.1-1.6c1.4 0 2.1.9 2.1 2.1v2.3c0 .3 0 .8.1 1.2h-.7v-.9c-.2.5-1 1-2 1c-.9 0-1.7-.7-1.7-1.6zm1.9 1c.8 0 1.7-.7 1.7-1.5c.03 0 0-.7 0-.7c0 0-1.57.07-1.6.1c-.8 0-1.3.4-1.3 1c0 .6.5 1.1 1.1 1.1h.1zm4.2.5V3.1h.7v1.2c.3-.8.9-1.3 1.7-1.3c0 .03.5 0 .5 0v.7s-.44-.02-.4 0c-1.1 0-1.7.8-1.7 2.2c-.05.01 0 2.7 0 2.7h-.8zm3.7-2.8c0-1.9 1.2-2.8 2.4-2.8c1.4 0 2.3 1 2.3 2.4c-.04.05 0 .5 0 .5c0 0-4-.02-4 0c0 1.5.8 2.2 1.7 2.2h.1c.7 0 1.2-.4 1.4-1.1h.7c-.2 1.1-1 1.7-2.2 1.7c-1.3 0-2.4-1-2.4-2.9zm3.9-.5c0-1-.6-1.7-1.4-1.7h-.1c-.7 0-1.5.4-1.7 1.7h3.2zm4.3.5c0-1.9 1.2-2.8 2.4-2.8c1.4 0 2.3 1 2.3 2.4c-.04.05 0 .5 0 .5c0 0-4-.02-4 0c0 1.5.8 2.2 1.7 2.2h.1c.7 0 1.2-.4 1.4-1.1h.8c-.3 1.1-1.1 1.7-2.3 1.7c-1.3 0-2.4-1-2.4-2.9zm3.9-.5c0-1-.5-1.7-1.4-1.7h-.1c-.7 0-1.5.4-1.7 1.7h3.2zm2.3 3.3V3.1h.8s-.05.9 0 .9c.3-.6 1-1 1.9-1c1.1 0 1.9.7 1.9 2v3.6h-.7s-.01-3.4 0-3.4c0-1.1-.5-1.6-1.3-1.6h-.1c-1.2 0-1.7 1-1.7 2.2c-.05.03 0 2.8 0 2.8h-.8zm6.4 0V.9h.7s.02 3.11 0 3.1c.4-.6 1.1-1 2-1c1.2 0 1.9.8 1.9 1.9c-.03.05 0 3.7 0 3.7h-.7s-.04-3.43 0-3.4c0-1.1-.5-1.6-1.4-1.6h-.1c-.8 0-1.7.7-1.7 2c.02.01 0 3 0 3h-.7zm6.1-1.5c0-1.2 1-1.6 1.9-1.7l1.7-.1v-.2c0-1-.5-1.5-1.4-1.5c-.7 0-1.3.3-1.4 1h-.7c.1-1 .9-1.6 2.1-1.6c1.4 0 2.1.9 2.1 2.1v2.3c0 .3 0 .8.1 1.2h-.7v-.9c-.3.5-1 1-2 1c-1 0-1.7-.7-1.7-1.6zm1.9 1c.8 0 1.7-.7 1.7-1.5v-.7s-1.59.07-1.6.1c-.8 0-1.3.4-1.3 1c0 .6.5 1.1 1.1 1.1h.1zm4.2.5V3.1h.7s.03.9 0 .9c.4-.6 1.1-1 2-1c1.1 0 1.9.7 1.9 2c-.02-.02 0 3.6 0 3.6h-.7s-.03-3.4 0-3.4c0-1.1-.5-1.6-1.4-1.6c-1.2 0-1.8 1-1.8 2.2c.03.03 0 2.8 0 2.8h-.7zm6.1-2.8c0-1.6.9-2.8 2.5-2.8c1.2 0 2.1.7 2.2 1.8h-.7c-.2-.7-.7-1.2-1.4-1.2h-.1c-1.2 0-1.8 1-1.8 2.2c0 1.2.6 2.3 1.8 2.3h.1c.7 0 1.2-.6 1.4-1.3h.7c-.2 1.2-1 1.9-2.2 1.9c-1.6 0-2.5-1.3-2.5-2.9zm5.9 0c0-1.9 1.1-2.8 2.4-2.8c1.4 0 2.2 1 2.2 2.4c.03.05 0 .5 0 .5c0 0-3.93-.02-3.9 0c0 1.5.8 2.2 1.7 2.2h.1c.7 0 1.2-.4 1.4-1.1h.7c-.2 1.1-1.1 1.7-2.2 1.7c-1.4 0-2.4-1-2.4-2.9zm3.9-.5c0-1-.6-1.7-1.4-1.7h-.2c-.6 0-1.5.4-1.6 1.7h3.2zm2 .5c0-1.7 1-2.8 2.5-2.8c.7 0 1.5.4 1.8 1V.9h.7v7.7h-.7v-.9c-.3.6-1.1 1-1.8 1c-1.5 0-2.5-1.1-2.5-2.9zm2.5 2.3c1.2 0 1.8-1.1 1.8-2.3c0-1.2-.6-2.2-1.8-2.2c-1.2 0-1.8 1-1.8 2.2c0 1.2.6 2.3 1.8 2.3zm7.4-.4c.01 0 0 .9 0 .9h-.7V.9h.7v3.1c.3-.6 1.1-1 1.8-1c1.5 0 2.5 1.1 2.5 2.8c0 1.8-1 2.9-2.5 2.9c-.7 0-1.5-.4-1.8-1zm1.8.4c1.2 0 1.8-1.1 1.8-2.3c0-1.2-.6-2.2-1.8-2.2c-1.2 0-1.8 1-1.8 2.2c0 1.2.6 2.3 1.8 2.3zm8.5-5l-2.2 5.3s-.03 1.04 0 1c0 .7-.4 1-1.1 1h-1.6v-.6h1.5c.3 0 .5-.1.5-.4c-.04-.05 0-1 0-1l-2.4-5.3h.8l1.9 4.4l1.9-4.4h.7zm3.1 3.8h.7c.1.8.6 1.2 1.4 1.2h.1c.8 0 1.3-.4 1.3-1c0-.4-.3-.7-1-.9l-.8-.1c-.8-.2-1.5-.6-1.5-1.5c0-1.1.9-1.6 2-1.6c1.3 0 2 .8 2 1.7h-.7c-.1-.6-.5-1.1-1.3-1.1h-.1c-.8 0-1.2.4-1.2.9c0 .5.3.7 1 .9l.9.2c.7.2 1.4.5 1.4 1.4c0 1.1-.8 1.7-2 1.7c-1.5 0-2.2-.8-2.2-1.8zm5.7-.2c.01.01 0-3.6 0-3.6h.7s.02 3.39 0 3.4c0 1 .5 1.6 1.3 1.6h.2c.8 0 1.5-.8 1.5-2.1c.05.05 0-2.9 0-2.9h.8v5.5h-.8s.05-1.05 0-1.1c-.2.8-.9 1.2-1.8 1.2c-1.2 0-1.9-.8-1.9-2zm6.3 4.1V3.1h.7s.02.86 0 .9c.4-.6 1.1-1 1.9-1c1.4 0 2.4 1.1 2.4 2.8c0 1.8-1 2.9-2.4 2.9c-.8 0-1.5-.4-1.9-1c.02 0 0 3.1 0 3.1h-.7zm2.5-2.7c1.2 0 1.8-1.1 1.8-2.3c0-1.2-.6-2.2-1.8-2.2c-1.2 0-1.8 1-1.8 2.2c0 1.2.6 2.3 1.8 2.3zm3.8-2.3c0-1.9 1.2-2.8 2.4-2.8c1.4 0 2.3 1 2.3 2.4c-.05.05 0 .5 0 .5c0 0-4.01-.02-4 0c0 1.5.8 2.2 1.7 2.2h.1c.7 0 1.2-.4 1.4-1.1h.7c-.2 1.1-1 1.7-2.2 1.7c-1.3 0-2.4-1-2.4-2.9zm3.9-.5c0-1-.6-1.7-1.4-1.7h-.1c-.7 0-1.5.4-1.7 1.7h3.2zm2.3 3.3V3.1h.7v1.2c.2-.8.9-1.3 1.7-1.3c0 .03.5 0 .5 0v.7s-.45-.02-.4 0c-1.1 0-1.8.8-1.8 2.2c.05.01 0 2.7 0 2.7h-.7zm4.1-6.5v-.9h.8v.9h-.8zm0 6.5V3.1h.7v5.5h-.7zm2.2-2.8c0-1.7 1.2-2.8 2.6-2.8c1.4 0 2.5 1.1 2.5 2.8c0 1.7-1.1 2.9-2.5 2.9c-1.4 0-2.6-1.2-2.6-2.9zm2.6 2.3c1 0 1.8-.9 1.8-2.3c0-1.4-.8-2.2-1.8-2.2h-.1c-1 0-1.7.8-1.7 2.2c0 1.4.7 2.3 1.7 2.3h.1zm4 .5V3.1h.7v1.2c.3-.8.9-1.3 1.7-1.3c0 .03.5 0 .5 0v.7s-.44-.02-.4 0c-1.1 0-1.7.8-1.7 2.2c-.05.01 0 2.7 0 2.7h-.8zm8 0c-.7 0-1.1-.3-1.1-1c.05-.01 0-3.9 0-3.9h-1.2v-.6h1.2V1.3h.8v1.8h1.3v.6h-1.3s-.04 3.84 0 3.8c0 .4.1.5.4.5c0-.02 1.1 0 1.1 0v.6s-1.21-.02-1.2 0zm2.5 0V.9h.7s-.03 3.11 0 3.1c.3-.6 1-1 1.9-1c1.3 0 1.9.8 1.9 1.9c.02.05 0 3.7 0 3.7h-.7V5.2c0-1.1-.4-1.6-1.3-1.6h-.1c-.9 0-1.7.7-1.7 2c-.03.01 0 3 0 3h-.7zm6-2.8c0-1.9 1.2-2.8 2.5-2.8c1.3 0 2.2 1 2.2 2.4v.5s-3.96-.02-4 0c.1 1.5.9 2.2 1.8 2.2c.8 0 1.3-.4 1.5-1.1h.7c-.3 1.1-1.1 1.7-2.2 1.7c-1.4 0-2.5-1-2.5-2.9zm4-.5c0-1-.6-1.7-1.5-1.7h-.1c-.7 0-1.5.4-1.6 1.7h3.2zm2.3 3.3V3.1h.6s.04 1.23 0 1.2c.3-.8 1-1.3 1.7-1.3c.04.03.5 0 .5 0v.7s-.4-.02-.4 0c-1.1 0-1.7.8-1.7 2.2v2.7h-.7zm4.1 0V3.1h.7s-.02.86 0 .9c.3-.6.9-1 1.8-1c.8 0 1.5.4 1.7 1.1c.4-.7 1.1-1.1 2-1.1c1 0 1.8.7 1.8 2c.05-.02 0 3.6 0 3.6h-.7s.04-3.4 0-3.4c0-1.1-.4-1.6-1.2-1.6h-.1c-1.1 0-1.6 1-1.6 2.2c-.04.03 0 2.8 0 2.8h-.7s-.05-3.4 0-3.4c0-1.1-.5-1.6-1.3-1.6h-.1c-1.1 0-1.6 1-1.6 2.2c-.02.03 0 2.8 0 2.8h-.7zm9.6-1.5c0-1.2 1-1.6 1.9-1.7l1.7-.1v-.2c0-1-.5-1.5-1.4-1.5c-.7 0-1.3.3-1.4 1h-.7c0-1 .9-1.6 2.1-1.6c1.4 0 2.1.9 2.1 2.1v2.3c0 .3 0 .8.1 1.2h-.7c0-.3-.1-.6-.1-.9c-.2.5-.9 1-1.9 1c-1 0-1.7-.7-1.7-1.6zm1.9 1c.7 0 1.7-.7 1.7-1.5v-.7s-1.61.07-1.6.1c-.8 0-1.3.4-1.3 1c0 .6.4 1.1 1.1 1.1h.1zm4.2.5V.9h.7v7.7h-.7z" stroke="none" fill="#192d39"/></g></svg>