<?xml version="1.0" standalone="no"?><!DOCTYPE svg PUBLIC "-//W3C//DTD SVG 1.1//EN" "http://www.w3.org/Graphics/SVG/1.1/DTD/svg11.dtd"><svg xmlns="http://www.w3.org/2000/svg" version="1.1" width="162.3px" height="41.4px" viewBox="0 -3 162.3 41.4" style="top:-3px"><desc>More than 30 different bus routes service Macquarie Park.</desc><defs/><g id="Polygon21776"><path d="m.9 23.7v-5.5h.6s.04 1.28 0 1.3c.3-.9 1-1.3 1.7-1.3c.04-.02.5 0 .5 0v.6s-.4.03-.4 0c-1.1 0-1.7.9-1.7 2.3v2.6h-.7zM4.4 21c0-1.7 1.1-2.9 2.5-2.9c1.4 0 2.5 1.2 2.5 2.9c0 1.7-1.1 2.8-2.5 2.8c-1.4 0-2.5-1.1-2.5-2.8zM7 23.2c1 0 1.7-.8 1.7-2.2c0-1.4-.7-2.3-1.7-2.3h-.1c-1 0-1.8.9-1.8 2.3c0 1.4.8 2.2 1.8 2.2h.1zm3.8-1.3c.02-.04 0-3.7 0-3.7h.7s.03 3.44 0 3.4c0 1.1.5 1.6 1.3 1.6h.2c.8 0 1.6-.7 1.6-2c-.04 0 0-3 0-3h.7v5.5h-.7s-.04-1 0-1c-.3.7-1 1.1-1.9 1.1c-1.2 0-1.9-.8-1.9-1.9zm7.9 1.8c-.7 0-1.1-.2-1.1-1c.04.04 0-3.9 0-3.9h-1.2v-.6h1.2v-1.8h.8v1.8h1.3v.6h-1.3s-.04 3.89 0 3.9c0 .3.1.4.4.4c0 .03 1.1 0 1.1 0v.6s-1.21.03-1.2 0zm1.9-2.7c0-2 1.2-2.9 2.4-2.9c1.4 0 2.2 1.1 2.2 2.5c.05 0 0 .4 0 .4c0 0-3.91.03-3.9 0c0 1.6.8 2.2 1.7 2.2h.1c.7 0 1.2-.3 1.4-1h.7c-.2 1.1-1 1.6-2.2 1.6c-1.3 0-2.4-.9-2.4-2.8zm3.9-.6c0-.9-.6-1.7-1.4-1.7h-.1c-.7 0-1.5.4-1.7 1.7h3.2zm1.8 1.7h.8c0 .7.6 1.1 1.4 1.1h.1c.8 0 1.2-.3 1.2-1c0-.4-.2-.6-.9-.8l-.8-.2c-.9-.2-1.5-.5-1.5-1.5c0-1 .9-1.6 1.9-1.6c1.4 0 2 .9 2.1 1.8h-.7c-.1-.6-.6-1.2-1.3-1.2h-.1c-.8 0-1.2.5-1.2 1c0 .5.3.7 1 .9l.8.1c.8.2 1.4.6 1.4 1.5c0 1-.8 1.6-2 1.6c-1.4 0-2.1-.7-2.2-1.7zm7.5 0h.7c.1.7.7 1.1 1.4 1.1h.1c.8 0 1.3-.3 1.3-1c0-.4-.3-.6-1-.8l-.8-.2c-.8-.2-1.5-.5-1.5-1.5c0-1 .9-1.6 2-1.6c1.3 0 2 .9 2 1.8h-.7c0-.6-.5-1.2-1.3-1.2h-.1c-.8 0-1.2.5-1.2 1c0 .5.3.7 1 .9l.9.1c.8.2 1.4.6 1.4 1.5c0 1-.8 1.6-2 1.6c-1.4 0-2.2-.7-2.2-1.7zm5.3-1.1c0-2 1.2-2.9 2.5-2.9c1.3 0 2.2 1.1 2.2 2.5c.02 0 0 .4 0 .4c0 0-3.94.03-3.9 0c0 1.6.8 2.2 1.7 2.2h.1c.7 0 1.2-.3 1.4-1h.7c-.2 1.1-1.1 1.6-2.2 1.6c-1.4 0-2.5-.9-2.5-2.8zm4-.6c0-.9-.6-1.7-1.5-1.7h-.1c-.7 0-1.5.4-1.6 1.7h3.2zm2.2 3.3v-5.5h.6s.05 1.28 0 1.3c.3-.9 1-1.3 1.8-1.3c-.05-.02.4 0 .4 0v.6s-.39.03-.4 0c-1 0-1.7.9-1.7 2.3v2.6h-.7zm8-5.5h.7l-2.1 5.5h-.9l-2.1-5.5h.8l1.8 4.9l1.8-4.9zm1.8-1v-.9h.8v.9h-.8zm.1 6.5v-5.5h.7v5.5h-.7zm2.1-2.7c0-1.6.9-2.9 2.5-2.9c1.2 0 2.1.7 2.2 1.9h-.7c-.1-.7-.7-1.3-1.4-1.3h-.1c-1.2 0-1.8 1.1-1.8 2.3c0 1.2.6 2.2 1.8 2.2h.1c.7 0 1.2-.5 1.4-1.2h.7c-.2 1.1-1 1.8-2.2 1.8c-1.6 0-2.5-1.2-2.5-2.8zm5.8 0c0-2 1.2-2.9 2.4-2.9c1.4 0 2.2 1.1 2.2 2.5c.04 0 0 .4 0 .4c0 0-3.92.03-3.9 0c0 1.6.8 2.2 1.7 2.2h.1c.7 0 1.2-.3 1.4-1h.7c-.2 1.1-1.1 1.6-2.2 1.6c-1.4 0-2.4-.9-2.4-2.8zm3.9-.6c0-.9-.6-1.7-1.4-1.7h-.1c-.7 0-1.5.4-1.7 1.7h3.2zM78.3 16h1.2v7.7h-.7v-7l-2.7 7H75l-2.7-7.1v7.1h-.7V16h1.3l2.7 7.2l2.7-7.2zm2.9 6.2c0-1.2 1-1.6 1.9-1.6c-.03-.04 1.7-.2 1.7-.2v-.2c0-.9-.5-1.5-1.4-1.5c-.7 0-1.3.4-1.4 1.1h-.7c.1-1 .9-1.7 2.1-1.7c1.4 0 2.1 1 2.1 2.1v2.3c0 .3 0 .8.1 1.2h-.7v-.8c-.3.5-1 .9-2 .9c-.9 0-1.7-.7-1.7-1.6zm1.9 1c.8 0 1.7-.6 1.7-1.5v-.7s-1.58.12-1.6.1c-.8.1-1.3.5-1.3 1.1c0 .6.5 1 1.1 1h.1zm3.8-2.2c0-1.6.9-2.9 2.5-2.9c1.2 0 2.1.7 2.2 1.9h-.7c-.2-.7-.7-1.3-1.4-1.3h-.1c-1.2 0-1.8 1.1-1.8 2.3c0 1.2.6 2.2 1.8 2.2h.1c.7 0 1.2-.5 1.4-1.2h.7c-.2 1.1-1 1.8-2.2 1.8c-1.6 0-2.5-1.2-2.5-2.8zm10 4.9s.04-3.05 0-3c-.3.6-1.1.9-1.8.9c-1.4 0-2.5-1.1-2.5-2.8c0-1.8 1.1-2.9 2.5-2.9c.7 0 1.5.4 1.8 1c.04.01 0-.9 0-.9h.8v7.7h-.8zm-1.7-2.7c1.2 0 1.7-1 1.7-2.2c0-1.2-.5-2.3-1.7-2.3h-.1c-1.2 0-1.7 1.1-1.7 2.3c0 1.2.5 2.2 1.7 2.2h.1zm4.1-1.3c.05-.04 0-3.7 0-3.7h.8s-.04 3.44 0 3.4c0 1.1.4 1.6 1.3 1.6h.1c.8 0 1.6-.7 1.6-2v-3h.7v5.5h-.7v-1c-.3.7-.9 1.1-1.8 1.1c-1.3 0-2-.8-2-1.9zm6 .3c0-1.2 1-1.6 1.8-1.6c.05-.04 1.8-.2 1.8-.2c0 0-.02-.19 0-.2c0-.9-.5-1.5-1.4-1.5c-.8 0-1.3.4-1.4 1.1h-.7c0-1 .9-1.7 2.1-1.7c1.4 0 2.1 1 2.1 2.1v2.3c0 .3 0 .8.1 1.2h-.7c0-.2-.1-.6-.1-.8c-.2.5-.9.9-1.9.9c-1 0-1.7-.7-1.7-1.6zm1.9 1c.7 0 1.7-.6 1.7-1.5c-.02.05 0-.7 0-.7c0 0-1.61.12-1.6.1c-.8.1-1.3.5-1.3 1.1c0 .6.4 1 1.1 1h.1zm4.1.5v-5.5h.6s.05 1.28 0 1.3c.3-.9 1-1.3 1.8-1.3c-.05-.02.4 0 .4 0v.6s-.39.03-.4 0c-1 0-1.7.9-1.7 2.3v2.6h-.7zm3.9-6.5v-.9h.8v.9h-.8zm.1 6.5v-5.5h.7v5.5h-.7zm2.1-2.7c0-2 1.2-2.9 2.5-2.9c1.3 0 2.2 1.1 2.2 2.5c-.02 0 0 .4 0 .4c0 0-3.98.03-4 0c0 1.6.8 2.2 1.8 2.2c.8 0 1.3-.3 1.5-1h.7c-.3 1.1-1.1 1.6-2.2 1.6c-1.4 0-2.5-.9-2.5-2.8zm4-.6c-.1-.9-.6-1.7-1.5-1.7h-.1c-.7 0-1.5.4-1.7 1.7h3.3zm4.5 3.3V16s3.09.03 3.1 0c1.3 0 2.4.8 2.4 2.3c0 1.5-1.1 2.3-2.4 2.3c-.01-.04-2.3 0-2.3 0v3.1h-.8zm.8-3.9s2.13.05 2.1 0c1.1 0 1.8-.4 1.8-1.5c0-1-.7-1.6-1.8-1.6c.03.04-2.1 0-2.1 0v3.1zm5.7 2.4c0-1.2 1-1.6 1.8-1.6c.04-.04 1.8-.2 1.8-.2c0 0-.02-.19 0-.2c0-.9-.5-1.5-1.4-1.5h-.1c-.7 0-1.2.4-1.3 1.1h-.7c0-1 .9-1.7 2.1-1.7c1.4 0 2.1 1 2.1 2.1v3.5h-.6c-.1-.2-.1-.6-.1-.8c-.2.5-.9.9-1.9.9c-1 0-1.7-.7-1.7-1.6zm1.9 1c.7 0 1.7-.6 1.7-1.5c-.02.05 0-.7 0-.7c0 0-1.62.12-1.6.1c-.8.1-1.3.5-1.3 1.1c0 .6.4 1 1.1 1h.1zm4.1.5v-5.5h.6s.04 1.28 0 1.3c.3-.9 1-1.3 1.7-1.3c.05-.02.5 0 .5 0v.6s-.4.03-.4 0c-1.1 0-1.7.9-1.7 2.3v2.6h-.7zm4 0V16h.7v5.1l2.9-2.9h1l-2.3 2.2l2.4 3.3h-.9l-2-2.8l-1.1 1.1v1.7h-.7zm5.8 0v-1.1h1.1v1.1h-1.1z" stroke="none" fill="#192d39"/></g><g id="Polygon21775"><path d="m7.8.9h1.2v7.7h-.7V1.5L5.6 8.6H4.5L1.8 1.5v7.1h-.7V.9h1.3L5.1 8L7.8.9zm2.8 4.9c0-1.7 1.2-2.8 2.6-2.8c1.4 0 2.5 1.1 2.5 2.8c0 1.7-1.1 2.9-2.5 2.9c-1.4 0-2.6-1.2-2.6-2.9zm2.6 2.3c1 0 1.8-.9 1.8-2.3c0-1.4-.8-2.2-1.8-2.2h-.1c-1 0-1.7.8-1.7 2.2c0 1.4.7 2.3 1.7 2.3h.1zm3.9.5V3.1h.7v1.2c.2-.8.9-1.3 1.7-1.3c-.01.03.5 0 .5 0v.7s-.45-.02-.5 0c-1 0-1.7.8-1.7 2.2c.04.01 0 2.7 0 2.7h-.7zm3.6-2.8c0-1.9 1.1-2.8 2.4-2.8c1.4 0 2.2 1 2.2 2.4c.03.05 0 .5 0 .5c0 0-3.93-.02-3.9 0c0 1.5.8 2.2 1.7 2.2h.1c.7 0 1.2-.4 1.4-1.1h.7c-.2 1.1-1.1 1.7-2.2 1.7c-1.4 0-2.4-1-2.4-2.9zm3.9-.5c0-1-.6-1.7-1.4-1.7h-.2c-.6 0-1.4.4-1.6 1.7h3.2zm6 3.3c-.7 0-1.1-.3-1.1-1c.03-.01 0-3.9 0-3.9h-1.2v-.6h1.2V1.3h.7v1.8h1.4v.6h-1.4s.04 3.84 0 3.8c0 .4.2.5.5.5c-.02-.02 1.1 0 1.1 0v.6s-1.23-.02-1.2 0zm2.3 0V.9h.7s.03 3.11 0 3.1c.4-.6 1.1-1 2-1c1.2 0 1.9.8 1.9 1.9c-.02.05 0 3.7 0 3.7h-.7s-.03-3.43 0-3.4c0-1.1-.5-1.6-1.4-1.6h-.1c-.8 0-1.7.7-1.7 2c.03.01 0 3 0 3h-.7zm6-1.5c0-1.2 1-1.6 1.9-1.7l1.7-.1v-.2c0-1-.5-1.5-1.4-1.5c-.7 0-1.3.3-1.4 1h-.7c0-1 .9-1.6 2.1-1.6c1.4 0 2.1.9 2.1 2.1v2.3c0 .3 0 .8.1 1.2h-.7v-.9c-.3.5-1 1-2 1c-1 0-1.7-.7-1.7-1.6zm1.9 1c.8 0 1.7-.7 1.7-1.5v-.7s-1.59.07-1.6.1c-.8 0-1.3.4-1.3 1c0 .6.5 1.1 1.1 1.1h.1zm4.1.5V3.1h.7s.02.9 0 .9c.3-.6 1-1 1.9-1c1.1 0 2 .7 2 2c-.03-.02 0 3.6 0 3.6h-.7s-.04-3.4 0-3.4c0-1.1-.5-1.6-1.4-1.6c-1.2 0-1.8 1-1.8 2.2c.02.03 0 2.8 0 2.8h-.7zm8.1-2h.8c.2.9.8 1.4 1.7 1.4h.1c1 0 1.7-.5 1.7-1.5c0-.9-.7-1.4-1.6-1.4h-.5v-.7s.57-.02.6 0c.9 0 1.5-.7 1.5-1.4c0-1-.7-1.5-1.7-1.5h-.1c-.9 0-1.5.6-1.6 1.4h-.7c.1-1.2 1-2.1 2.4-2.1c1.4 0 2.4.7 2.4 2.1c0 .8-.5 1.5-1.2 1.8c.7.3 1.3.9 1.3 1.8c0 1.5-1.2 2.2-2.5 2.2c-1.5 0-2.4-.8-2.6-2.1zm6.5-1.9c0-2.6 1-3.9 2.9-3.9c1.8 0 2.9 1.3 2.9 3.9c0 2.6-1.1 4-2.9 4c-1.9 0-2.9-1.4-2.9-4zM62.4 8c.9 0 2.1-.7 2.1-3.3c0-2.5-1.2-3.2-2.1-3.2h-.1c-.9 0-2.1.7-2.1 3.2c0 2.6 1.2 3.3 2.1 3.3h.1zm6.3-2.2c0-1.7 1-2.8 2.4-2.8c.8 0 1.5.4 1.9 1c-.03-.04 0-3.1 0-3.1h.7v7.7h-.7s-.03-.9 0-.9c-.4.6-1.1 1-1.9 1c-1.4 0-2.4-1.1-2.4-2.9zm2.5 2.3C72.4 8.1 73 7 73 5.8c0-1.2-.6-2.2-1.8-2.2c-1.2 0-1.8 1-1.8 2.2c0 1.2.6 2.3 1.8 2.3zm4.2-6v-.9h.8v.9h-.8zm0 6.5V3.1h.7v5.5h-.7zm3.2 0V3.7h-1.3v-.6h1.3s-.04-1.23 0-1.2c0-.7.3-1 1-1c0-.02 1.4 0 1.4 0v.6s-1.29-.02-1.3 0c-.3 0-.4.1-.4.4c-.03.02 0 1.2 0 1.2h2.9s.04-1.23 0-1.2c0-.7.4-1 1.1-1c-.01-.02 1.4 0 1.4 0v.6s-1.3-.02-1.3 0c-.3 0-.4.1-.4.4c-.04.02 0 1.2 0 1.2h1.4v.6H83v4.9h-.8V3.7h-2.9v4.9h-.7zm6.5-2.8c0-1.9 1.2-2.8 2.5-2.8c1.3 0 2.2 1 2.2 2.4c-.02.05 0 .5 0 .5c0 0-3.98-.02-4 0c0 1.5.8 2.2 1.7 2.2h.1c.8 0 1.2-.4 1.5-1.1h.7c-.3 1.1-1.1 1.7-2.2 1.7c-1.4 0-2.5-1-2.5-2.9zm4-.5c-.1-1-.6-1.7-1.5-1.7h-.1c-.7 0-1.5.4-1.7 1.7h3.3zm2.1 3.3V3.1h.7v1.2c.3-.8 1-1.3 1.7-1.3c.01.03.5 0 .5 0v.7s-.43-.02-.4 0c-1.1 0-1.7.8-1.7 2.2c-.04.01 0 2.7 0 2.7h-.8zm3.6-2.8C94.8 3.9 96 3 97.2 3c1.4 0 2.3 1 2.3 2.4c-.05.05 0 .5 0 .5c0 0-4.01-.02-4 0c0 1.5.8 2.2 1.7 2.2h.1c.7 0 1.2-.4 1.4-1.1h.7c-.2 1.1-1 1.7-2.2 1.7c-1.3 0-2.4-1-2.4-2.9zm3.9-.5c0-1-.6-1.7-1.4-1.7h-.1c-.7 0-1.5.4-1.7 1.7h3.2zm2.2 3.3V3.1h.7s.03.9 0 .9c.4-.6 1.1-1 2-1c1.1 0 1.9.7 1.9 2c-.02-.02 0 3.6 0 3.6h-.7s-.03-3.4 0-3.4c0-1.1-.5-1.6-1.4-1.6c-1.2 0-1.8 1-1.8 2.2c.03.03 0 2.8 0 2.8h-.7zm7.9 0c-.8 0-1.1-.3-1.1-1V3.7h-1.3v-.6h1.3V1.3h.7v1.8h1.4v.6h-1.4s.02 3.84 0 3.8c0 .4.1.5.5.5c-.04-.02 1.1 0 1.1 0v.6s-1.25-.02-1.2 0zm5.2-.9c-.01 0 0 .9 0 .9h-.7V.9h.7v3.1c.3-.6 1.1-1 1.8-1c1.5 0 2.5 1.1 2.5 2.8c0 1.8-1 2.9-2.5 2.9c-.7 0-1.5-.4-1.8-1zm1.8.4c1.2 0 1.8-1.1 1.8-2.3c0-1.2-.6-2.2-1.8-2.2h-.1c-1.1 0-1.7 1-1.7 2.2c0 1.2.6 2.3 1.7 2.3h.1zm3.9-1.4c-.02.01 0-3.6 0-3.6h.7s-.01 3.39 0 3.4c0 1 .4 1.6 1.3 1.6h.1c.8 0 1.6-.8 1.6-2.1c.02.05 0-2.9 0-2.9h.7v5.5h-.7s.02-1.05 0-1.1c-.3.8-.9 1.2-1.8 1.2c-1.2 0-1.9-.8-1.9-2zm5.8.2h.7c.1.8.7 1.2 1.4 1.2h.1c.8 0 1.3-.4 1.3-1c0-.4-.3-.7-1-.9l-.8-.1c-.8-.2-1.5-.6-1.5-1.5c0-1.1.9-1.6 2-1.6c1.4 0 2 .8 2 1.7h-.7c0-.6-.5-1.1-1.3-1.1h-.1c-.7 0-1.2.4-1.2.9c0 .5.3.7 1 .9l.9.2c.8.2 1.4.5 1.4 1.4c0 1.1-.8 1.7-2 1.7c-1.4 0-2.2-.8-2.2-1.8z" stroke="none" fill="#192d39"/></g></svg>