<?xml version="1.0" standalone="no"?><!DOCTYPE svg PUBLIC "-//W3C//DTD SVG 1.1//EN" "http://www.w3.org/Graphics/SVG/1.1/DTD/svg11.dtd"><svg xmlns="http://www.w3.org/2000/svg" version="1.1" width="241px" height="77.4px" viewBox="0 -3 241 77.4" style="top:-3px"><desc>Meriton is a leader in sustainable living providing cheaper energy through Meriton Energy, combined with individual w...</desc><defs/><g id="Polygon22710"><path d="m.5 52.4h.7c0 .7.6 1.1 1.4 1.1h.1c.8 0 1.2-.3 1.2-1c0-.4-.2-.6-.9-.8l-.8-.2C1.4 51.3.7 51 .7 50c0-1 .9-1.6 1.9-1.6c1.4 0 2.1.9 2.1 1.8h-.7c-.1-.6-.5-1.2-1.3-1.2h-.1c-.8 0-1.2.5-1.2 1c0 .5.3.7 1 .9l.8.1c.8.2 1.5.6 1.5 1.5c0 1-.8 1.6-2.1 1.6c-1.4 0-2.1-.7-2.1-1.7zm5.2.1c0-1.2 1.1-1.6 1.9-1.6c.03-.04 1.8-.2 1.8-.2c0 0-.04-.19 0-.2c0-.9-.6-1.5-1.4-1.5h-.1c-.7 0-1.3.4-1.3 1.1h-.8c.1-1 1-1.7 2.2-1.7c1.4 0 2.1 1 2.1 2.1v3.5h-.6c-.1-.2-.1-.6-.1-.8c-.2.5-1 .9-1.9.9c-1 0-1.8-.7-1.8-1.6zm2 1c.7 0 1.7-.6 1.7-1.5c-.04.05 0-.7 0-.7c0 0-1.63.12-1.6.1c-.8.1-1.4.5-1.4 1.1c0 .6.5 1 1.1 1h.2zm7.5-5h.7L13.8 54h-.9l-2.1-5.5h.8l1.8 4.9l1.8-4.9zm1.7-1v-.9h.8v.9h-.8zM17 54v-5.5h.7v5.5h-.7zm2.3 0v-5.5h.7v1c.3-.7 1-1.1 1.9-1.1c1.1 0 2 .7 2 2c-.05.03 0 3.6 0 3.6h-.8s.04-3.35 0-3.3c0-1.1-.4-1.7-1.3-1.7c-1.2 0-1.8 1.1-1.8 2.3v2.7h-.7zm5.7.8h.7c.2.7.8 1 1.7 1h.1c1 0 1.8-.5 1.8-1.9v-.9c-.3.6-.9 1-1.8 1c-1.4 0-2.4-1-2.4-2.7c0-1.8 1-2.9 2.4-2.9c.9 0 1.5.4 1.8 1c.02.01 0-.9 0-.9h.7s.03 5.49 0 5.5c0 1.4-.9 2.4-2.5 2.4c-1.6 0-2.4-.6-2.5-1.6zm2.6-1.4c1 0 1.7-.7 1.7-2.1c0-1.4-.7-2.3-1.7-2.3h-.1c-1 0-1.7.9-1.7 2.3c0 1.4.7 2.1 1.7 2.1h.1zm6.8.6v-4.9h-1.3v-.6h1.3v-1.2c0-.7.3-1 1-1c.04.03 1.4 0 1.4 0v.6s-1.25.03-1.3 0c-.3 0-.4.1-.4.5c.01-.03 0 1.1 0 1.1h3.7v5.5h-.7v-4.9h-3v4.9h-.7zm3.6-6.5v-.9h.8v.9h-.8zm4.1 6.5c-.7 0-1-.2-1-1c-.02.04 0-3.9 0-3.9h-1.3v-.6h1.3v-1.8h.7v1.8h1.4v.6h-1.4v3.9c0 .3.1.4.4.4c.03.03 1.1 0 1.1 0v.6s-1.18.03-1.2 0zm4.1 0c-.7 0-1-.2-1-1c-.02.04 0-3.9 0-3.9h-1.3v-.6h1.3v-1.8h.7v1.8h1.4v.6h-1.4v3.9c0 .3.1.4.4.4c.04.03 1.1 0 1.1 0v.6s-1.17.03-1.2 0zm2.2-6.5v-.9h.8v.9h-.8zm.1 6.5v-5.5h.7v5.5h-.7zm2.3 0v-5.5h.7v1c.3-.7 1-1.1 1.9-1.1c1.1 0 2 .7 2 2c-.04.03 0 3.6 0 3.6h-.8s.04-3.35 0-3.3c0-1.1-.4-1.7-1.3-1.7c-1.2 0-1.8 1.1-1.8 2.3v2.7h-.7zm5.7.8h.7c.2.7.8 1 1.7 1h.2c.9 0 1.7-.5 1.7-1.9v-.9c-.3.6-.9 1-1.8 1c-1.4 0-2.4-1-2.4-2.7c0-1.8 1-2.9 2.4-2.9c.9 0 1.5.4 1.8 1c.03.01 0-.9 0-.9h.7s.04 5.49 0 5.5c0 1.4-.9 2.4-2.5 2.4c-1.6 0-2.4-.6-2.5-1.6zm2.6-1.4c1 0 1.7-.7 1.7-2.1c0-1.4-.7-2.3-1.7-2.3h-.1c-1 0-1.7.9-1.7 2.3c0 1.4.7 2.1 1.7 2.1h.1zm3.7-1h.7c.1.7.7 1.1 1.4 1.1h.1c.8 0 1.3-.3 1.3-1c0-.4-.3-.6-1-.8l-.8-.2c-.8-.2-1.5-.5-1.5-1.5c0-1 .9-1.6 2-1.6c1.4 0 2 .9 2 1.8h-.7c0-.6-.5-1.2-1.3-1.2h-.1c-.7 0-1.2.5-1.2 1c0 .5.3.7 1 .9l.9.1c.8.2 1.4.6 1.4 1.5c0 1-.8 1.6-2 1.6c-1.4 0-2.2-.7-2.2-1.7zm5.1 2.9v-.4s.36-.04.4 0c.4 0 .6-.3.6-.7c.02-.01 0-.2 0-.2h-.6v-1.1h1.1s.02 1.35 0 1.3c0 .7-.4 1.1-1 1.1h-.5zm4.8-4c0-2 1.2-2.9 2.5-2.9c1.3 0 2.2 1.1 2.2 2.5v.4s-3.97.03-4 0c.1 1.6.9 2.2 1.8 2.2c.8 0 1.3-.3 1.5-1h.7c-.3 1.1-1.1 1.6-2.2 1.6c-1.4 0-2.5-.9-2.5-2.8zm4-.6c-.1-.9-.6-1.7-1.5-1.7h-.1c-.7 0-1.5.4-1.6 1.7h3.2zm2 3.3v-5.5h.8s-.04.95 0 1c.3-.7 1-1.1 1.9-1.1c1.1 0 1.9.7 1.9 2c.01.03 0 3.6 0 3.6h-.7v-3.3c0-1.1-.4-1.7-1.3-1.7h-.1c-1.2 0-1.7 1.1-1.7 2.3c-.04-.02 0 2.7 0 2.7h-.8zm5.8-1.6h.7c.1.7.7 1.1 1.4 1.1h.1c.8 0 1.3-.3 1.3-1c0-.4-.2-.6-1-.8l-.8-.2c-.8-.2-1.5-.5-1.5-1.5c0-1 .9-1.6 2-1.6c1.4 0 2 .9 2.1 1.8h-.8c0-.6-.5-1.2-1.3-1.2h-.1c-.7 0-1.2.5-1.2 1c0 .5.3.7 1 .9l.9.1c.8.2 1.4.6 1.4 1.5c0 1-.8 1.6-2 1.6c-1.4 0-2.1-.7-2.2-1.7zm5.5-.2c.02-.04 0-3.7 0-3.7h.7s.03 3.44 0 3.4c0 1.1.5 1.6 1.4 1.6h.1c.8 0 1.6-.7 1.6-2c-.04 0 0-3 0-3h.7v5.5h-.7s-.04-1 0-1c-.3.7-1 1.1-1.9 1.1c-1.2 0-1.9-.8-1.9-1.9zm6.1 1.8v-5.5h.7s-.04 1.28 0 1.3c.2-.9.9-1.3 1.7-1.3c-.04-.02.5 0 .5 0v.6s-.48.03-.5 0c-1 0-1.7.9-1.7 2.3v2.6h-.7zm3.8-6.5v-.9h.8v.9h-.8zm.1 6.5v-5.5h.7v5.5h-.7zm2.3 0v-5.5h.7v1c.3-.7 1-1.1 1.9-1.1c1.1 0 2 .7 2 2c-.04.03 0 3.6 0 3.6h-.8s.05-3.35 0-3.3c0-1.1-.4-1.7-1.3-1.7c-1.2 0-1.8 1.1-1.8 2.3v2.7h-.7zm5.7.8h.7c.2.7.8 1 1.7 1h.2c.9 0 1.7-.5 1.7-1.9v-.9c-.3.6-.9 1-1.8 1c-1.4 0-2.4-1-2.4-2.7c0-1.8 1-2.9 2.4-2.9c.9 0 1.5.4 1.8 1c.03.01 0-.9 0-.9h.7s.04 5.49 0 5.5c0 1.4-.9 2.4-2.5 2.4c-1.6 0-2.4-.6-2.5-1.6zm2.6-1.4c1 0 1.7-.7 1.7-2.1c0-1.4-.7-2.3-1.7-2.3h-.1c-1 0-1.7.9-1.7 2.3c0 1.4.7 2.1 1.7 2.1h.1zm6.2.6v-5.5h.7v.9c.3-.6 1-1 1.8-1c.8 0 1.5.4 1.8 1.2c.3-.8 1-1.2 1.9-1.2c1.1 0 1.9.7 1.9 2c-.03.03 0 3.6 0 3.6h-.7s-.05-3.35 0-3.3c0-1.1-.5-1.7-1.3-1.7h-.1c-1.1 0-1.6 1.1-1.6 2.3c-.02-.02 0 2.7 0 2.7h-.7s-.03-3.35 0-3.3c0-1.1-.4-1.7-1.3-1.7h-.1c-1.1 0-1.6 1.1-1.6 2.3v2.7h-.7zm9.4-1.5c0-1.2 1-1.6 1.8-1.6c.05-.04 1.8-.2 1.8-.2v-.2c0-.9-.5-1.5-1.4-1.5c-.7 0-1.3.4-1.4 1.1h-.7c0-1 .9-1.7 2.1-1.7c1.4 0 2.1 1 2.1 2.1v2.3c0 .3 0 .8.1 1.2h-.7c0-.2-.1-.6-.1-.8c-.2.5-.9.9-1.9.9c-1 0-1.7-.7-1.7-1.6zm1.9 1c.7 0 1.7-.6 1.7-1.5v-.7s-1.61.12-1.6.1c-.8.1-1.3.5-1.3 1.1c0 .6.4 1 1.1 1h.1zm3.4.5l2.2-2.8l-2.1-2.7h.8l1.7 2.2l1.6-2.2h.8l-2 2.7l2.1 2.8h-.8l-1.8-2.2l-1.7 2.2h-.8zm6.1-6.5v-.9h.8v.9h-.8zm0 6.5v-5.5h.7v5.5h-.7zm2.3 0v-5.5h.8s-.04.91 0 .9c.3-.6.9-1 1.8-1c.8 0 1.4.4 1.7 1.2c.4-.8 1.1-1.2 2-1.2c1 0 1.8.7 1.8 2c.03.03 0 3.6 0 3.6h-.7s.01-3.35 0-3.3c0-1.1-.4-1.7-1.3-1.7c-1.1 0-1.7 1.1-1.7 2.3c.04-.02 0 2.7 0 2.7h-.7s.03-3.35 0-3.3c0-1.1-.4-1.7-1.2-1.7h-.1c-1.1 0-1.6 1.1-1.6 2.3c-.04-.02 0 2.7 0 2.7h-.8zm9.7-1.8c-.03-.04 0-3.7 0-3.7h.7s-.02 3.44 0 3.4c0 1.1.4 1.6 1.3 1.6h.1c.8 0 1.6-.7 1.6-2v-3h.7v5.5h-.7v-1c-.3.7-.9 1.1-1.8 1.1c-1.2 0-1.9-.8-1.9-1.9zm6 1.8v-5.5h.8s-.04.91 0 .9c.3-.6.9-1 1.8-1c.8 0 1.4.4 1.7 1.2c.4-.8 1.1-1.2 2-1.2c1 0 1.8.7 1.8 2c.03.03 0 3.6 0 3.6h-.7s.02-3.35 0-3.3c0-1.1-.4-1.7-1.2-1.7h-.1c-1.1 0-1.7 1.1-1.7 2.3c.05-.02 0 2.7 0 2.7h-.7s.03-3.35 0-3.3c0-1.1-.4-1.7-1.2-1.7h-.1c-1.1 0-1.6 1.1-1.6 2.3c-.04-.02 0 2.7 0 2.7h-.8zm11.4-1.6h.7c.1.7.7 1.1 1.4 1.1h.1c.8 0 1.3-.3 1.3-1c0-.4-.3-.6-1-.8l-.8-.2c-.8-.2-1.5-.5-1.5-1.5c0-1 .9-1.6 2-1.6c1.4 0 2 .9 2 1.8h-.7c0-.6-.5-1.2-1.3-1.2h-.1c-.7 0-1.2.5-1.2 1c0 .5.3.7 1 .9l.9.1c.8.2 1.4.6 1.4 1.5c0 1-.8 1.6-2 1.6c-1.4 0-2.2-.7-2.2-1.7zm5.3.1c0-1.2 1-1.6 1.9-1.6c-.04-.04 1.7-.2 1.7-.2v-.2c0-.9-.5-1.5-1.4-1.5c-.7 0-1.3.4-1.4 1.1h-.7c0-1 .9-1.7 2.1-1.7c1.4 0 2.1 1 2.1 2.1v2.3c0 .3 0 .8.1 1.2h-.7v-.8c-.3.5-1 .9-2 .9c-1 0-1.7-.7-1.7-1.6zm1.9 1c.8 0 1.7-.6 1.7-1.5v-.7s-1.59.12-1.6.1c-.8.1-1.3.5-1.3 1.1c0 .6.5 1 1.1 1h.1zm7.5-5h.8l-2.1 5.5h-.9l-2.1-5.5h.7l1.8 4.9l1.8-4.9zm1.7-1v-.9h.9v.9h-.9zm.1 6.5v-5.5h.7v5.5h-.7zm2.3 0v-5.5h.7s.04.95 0 1c.4-.7 1.1-1.1 2-1.1c1.1 0 1.9.7 1.9 2c-.01.03 0 3.6 0 3.6h-.7s-.02-3.35 0-3.3c0-1.1-.5-1.7-1.3-1.7h-.1c-1.2 0-1.8 1.1-1.8 2.3c.04-.02 0 2.7 0 2.7h-.7zm5.7.8h.8c.1.7.7 1 1.7 1h.1c.9 0 1.8-.5 1.8-1.9v-.9c-.4.6-1 1-1.9 1c-1.3 0-2.3-1-2.3-2.7c0-1.8 1-2.9 2.3-2.9c.9 0 1.5.4 1.9 1c-.04.01 0-.9 0-.9h.7s-.03 5.49 0 5.5c0 1.4-1 2.4-2.6 2.4c-1.6 0-2.3-.6-2.5-1.6zm2.7-1.4c1 0 1.7-.7 1.7-2.1c0-1.4-.7-2.3-1.7-2.3h-.1c-1 0-1.7.9-1.7 2.3c0 1.4.7 2.1 1.7 2.1h.1zm3.6-1h.7c.1.7.7 1.1 1.5 1.1h.1c.7 0 1.2-.3 1.2-1c0-.4-.2-.6-1-.8l-.8-.2c-.8-.2-1.5-.5-1.5-1.5c0-1 1-1.6 2-1.6c1.4 0 2 .9 2.1 1.8h-.7c-.1-.6-.6-1.2-1.3-1.2h-.1c-.8 0-1.2.5-1.2 1c0 .5.3.7 1 .9l.8.1c.8.2 1.4.6 1.4 1.5c0 1-.8 1.6-2 1.6c-1.4 0-2.1-.7-2.2-1.7zm5.6 1.6v-1.1h1.1v1.1h-1.1z" stroke="none" fill="#192d39"/></g><g id="Polygon22709"><path d="m.6 36.1c0-1.6.9-2.8 2.5-2.8c1.2 0 2 .7 2.1 1.8h-.7c-.1-.7-.6-1.2-1.4-1.2h-.1c-1.2 0-1.7 1-1.7 2.2c0 1.2.5 2.3 1.7 2.3h.1c.8 0 1.3-.6 1.4-1.3h.7C5 38.3 4.3 39 3.1 39c-1.6 0-2.5-1.3-2.5-2.9zm5.6 0c0-1.7 1.1-2.8 2.5-2.8c1.4 0 2.5 1.1 2.5 2.8c0 1.7-1.1 2.9-2.5 2.9c-1.4 0-2.5-1.2-2.5-2.9zm2.6 2.3c1 0 1.7-.9 1.7-2.3c0-1.4-.7-2.2-1.7-2.2h-.1c-1 0-1.8.8-1.8 2.2c0 1.4.8 2.3 1.8 2.3h.1zm3.8.5v-5.5h.7s-.03.86 0 .9c.3-.6.9-1 1.8-1c.8 0 1.4.4 1.7 1.1c.4-.7 1.1-1.1 2-1.1c1 0 1.8.7 1.8 2c.04-.02 0 3.6 0 3.6h-.7s.02-3.4 0-3.4c0-1.1-.4-1.6-1.2-1.6h-.1c-1.1 0-1.6 1-1.6 2.2c-.05.03 0 2.8 0 2.8h-.8s.04-3.4 0-3.4c0-1.1-.4-1.6-1.2-1.6h-.1c-1.1 0-1.6 1-1.6 2.2c-.03.03 0 2.8 0 2.8h-.7zM23 38c-.04 0 0 .9 0 .9h-.8v-7.7h.8s-.04 3.06 0 3.1c.3-.6 1.1-1 1.8-1c1.4 0 2.4 1.1 2.4 2.8c0 1.8-1 2.9-2.4 2.9c-.7 0-1.5-.4-1.8-1zm1.8.4c1.1 0 1.7-1.1 1.7-2.3c0-1.2-.6-2.2-1.7-2.2h-.1c-1.2 0-1.7 1-1.7 2.2c0 1.2.5 2.3 1.7 2.3h.1zm3.7-6v-.9h.8v.9h-.8zm.1 6.5v-5.5h.7v5.5h-.7zm2.3 0v-5.5h.7s.02.9 0 .9c.3-.6 1-1 1.9-1c1.1 0 2 .7 2 2c-.03-.02 0 3.6 0 3.6h-.7s-.05-3.4 0-3.4c0-1.1-.5-1.6-1.4-1.6c-1.2 0-1.8 1-1.8 2.2c.02.03 0 2.8 0 2.8h-.7zm5.9-2.8c0-1.9 1.1-2.8 2.4-2.8c1.4 0 2.2 1 2.2 2.4c.03.05 0 .5 0 .5c0 0-3.93-.02-3.9 0c0 1.5.8 2.2 1.7 2.2h.1c.7 0 1.2-.4 1.4-1.1h.7c-.2 1.1-1.1 1.7-2.2 1.7c-1.4 0-2.4-1-2.4-2.9zm3.9-.5c0-1-.6-1.7-1.4-1.7h-.2c-.7 0-1.5.4-1.6 1.7h3.2zm1.8.5c0-1.7 1-2.8 2.4-2.8c.8 0 1.5.4 1.9 1c-.02-.04 0-3.1 0-3.1h.7v7.7h-.7s-.02-.9 0-.9c-.4.6-1.1 1-1.9 1c-1.4 0-2.4-1.1-2.4-2.9zm2.5 2.3c1.2 0 1.8-1.1 1.8-2.3c0-1.2-.6-2.2-1.8-2.2c-1.2 0-1.8 1-1.8 2.2c0 1.2.6 2.3 1.8 2.3zm12.8-5h.7l-1.7 5.5h-1l-1.2-4.8l-1.3 4.8h-.9l-1.8-5.5h.7l1.6 4.8l1.2-4.8h.9l1.3 4.9l1.5-4.9zm1.7-1v-.9h.8v.9h-.8zm.1 6.5v-5.5h.7v5.5h-.7zm4 0c-.7 0-1.1-.3-1.1-1c.04-.01 0-3.9 0-3.9h-1.2v-.6h1.2v-1.8h.8v1.8h1.3v.6h-1.3s-.04 3.84 0 3.8c0 .4.1.5.4.5c0-.02 1.1 0 1.1 0v.6s-1.21-.02-1.2 0zm2.2 0v-7.7h.7s.04 3.11 0 3.1c.4-.6 1.1-1 2-1c1.2 0 1.9.8 1.9 1.9c-.01.05 0 3.7 0 3.7h-.7s-.02-3.43 0-3.4c0-1.1-.5-1.6-1.3-1.6h-.2c-.8 0-1.7.7-1.7 2c.04.01 0 3 0 3h-.7zm8.2-6.5v-.9h.8v.9h-.8zm.1 6.5v-5.5h.7v5.5h-.7zm2.3 0v-5.5h.7s.02.9 0 .9c.3-.6 1-1 1.9-1c1.1 0 2 .7 2 2c-.03-.02 0 3.6 0 3.6h-.7s-.04-3.4 0-3.4c0-1.1-.5-1.6-1.4-1.6c-1.2 0-1.8 1-1.8 2.2c.02.03 0 2.8 0 2.8h-.7zm5.9-2.8c0-1.7 1-2.8 2.4-2.8c.7 0 1.5.4 1.8 1c.05-.04 0-3.1 0-3.1h.8v7.7h-.8s.05-.9 0-.9c-.3.6-1.1 1-1.8 1c-1.4 0-2.4-1.1-2.4-2.9zm2.5 2.3c1.2 0 1.7-1.1 1.7-2.3c0-1.2-.5-2.2-1.7-2.2h-.1c-1.1 0-1.7 1-1.7 2.2c0 1.2.6 2.3 1.7 2.3h.1zm4-6v-.9h.9v.9h-.9zm.1 6.5v-5.5h.7v5.5h-.7zm6.1-5.5h.7l-2.1 5.5h-.9l-2.1-5.5h.8l1.8 4.8l1.8-4.8zm1.7-1v-.9h.8v.9h-.8zm0 6.5v-5.5h.8v5.5h-.8zm2.1-2.8c0-1.7 1-2.8 2.4-2.8c.7 0 1.5.4 1.9 1c-.03-.04 0-3.1 0-3.1h.7v7.7h-.7s-.03-.9 0-.9c-.4.6-1.2 1-1.9 1c-1.4 0-2.4-1.1-2.4-2.9zm2.5 2.3c1.2 0 1.8-1.1 1.8-2.3c0-1.2-.6-2.2-1.8-2.2c-1.2 0-1.8 1-1.8 2.2c0 1.2.6 2.3 1.8 2.3zm4.1-1.4c-.03.01 0-3.6 0-3.6h.7s-.01 3.39 0 3.4c0 1 .4 1.6 1.3 1.6h.1c.8 0 1.6-.8 1.6-2.1v-2.9h.7v5.5h-.7s.01-1.05 0-1.1c-.3.8-.9 1.2-1.8 1.2c-1.2 0-1.9-.8-1.9-2zm5.8.4c0-1.2 1-1.6 1.9-1.7l1.7-.1v-.2c0-1-.5-1.5-1.4-1.5c-.7 0-1.3.3-1.4 1h-.7c0-1 .9-1.6 2.1-1.6c1.4 0 2.1.9 2.1 2.1v2.3c0 .3 0 .8.1 1.2h-.7v-.9c-.3.5-1 1-2 1c-1 0-1.7-.7-1.7-1.6zm1.9 1c.8 0 1.7-.7 1.7-1.5v-.7s-1.6.07-1.6.1c-.8 0-1.3.4-1.3 1c0 .6.5 1.1 1.1 1.1h.1zm4 .5v-7.7h.7v7.7h-.7zm11-5.5h.7l-1.7 5.5h-1l-1.2-4.8l-1.3 4.8h-.9l-1.8-5.5h.8l1.5 4.8l1.2-4.8h.9l1.3 4.9l1.5-4.9zm1.4 4c0-1.2 1-1.6 1.9-1.7l1.7-.1s.03-.24 0-.2c0-1-.5-1.5-1.3-1.5h-.1c-.7 0-1.3.3-1.4 1h-.7c.1-1 .9-1.6 2.1-1.6c1.5 0 2.1.9 2.1 2.1v2.3c0 .3 0 .8.1 1.2h-.7v-.9c-.2.5-1 1-2 1c-.9 0-1.7-.7-1.7-1.6zm1.9 1c.8 0 1.7-.7 1.7-1.5c.03 0 0-.7 0-.7c0 0-1.57.07-1.6.1c-.7 0-1.3.4-1.3 1c0 .6.5 1.1 1.1 1.1h.1zm5.6.5c-.7 0-1.1-.3-1.1-1c.02-.01 0-3.9 0-3.9h-1.2v-.6h1.2v-1.8h.7v1.8h1.4v.6h-1.4s.04 3.84 0 3.8c0 .4.1.5.5.5c-.02-.02 1.1 0 1.1 0v.6s-1.23-.02-1.2 0zm1.7-2.8c0-1.9 1.2-2.8 2.5-2.8c1.3 0 2.2 1 2.2 2.4c.02.05 0 .5 0 .5c0 0-3.94-.02-3.9 0c0 1.5.8 2.2 1.7 2.2h.1c.7 0 1.2-.4 1.4-1.1h.7c-.2 1.1-1.1 1.7-2.2 1.7c-1.4 0-2.5-1-2.5-2.9zm4-.5c0-1-.6-1.7-1.5-1.7h-.1c-.7 0-1.5.4-1.6 1.7h3.2zm2.1 3.3v-5.5h.6s.03 1.23 0 1.2c.3-.8 1-1.3 1.7-1.3c.04.03.5 0 .5 0v.7s-.41-.02-.4 0c-1.1 0-1.7.8-1.7 2.2v2.7h-.7zm5.9 0v-5.5h.7s.01.86 0 .9c.3-.6 1-1 1.8-1c.8 0 1.5.4 1.8 1.1c.3-.7 1-1.1 1.9-1.1c1.1 0 1.9.7 1.9 2c-.02-.02 0 3.6 0 3.6h-.7s-.04-3.4 0-3.4c0-1.1-.5-1.6-1.3-1.6h-.1c-1.1 0-1.6 1-1.6 2.2v2.8h-.7s-.02-3.4 0-3.4c0-1.1-.4-1.6-1.3-1.6h-.1c-1.1 0-1.6 1-1.6 2.2v2.8h-.7zm9.4-2.8c0-1.9 1.2-2.8 2.4-2.8c1.4 0 2.3 1 2.3 2.4c-.05.05 0 .5 0 .5c0 0-4.01-.02-4 0c0 1.5.8 2.2 1.7 2.2h.1c.7 0 1.2-.4 1.4-1.1h.7c-.2 1.1-1 1.7-2.2 1.7c-1.3 0-2.4-1-2.4-2.9zm3.9-.5c0-1-.6-1.7-1.4-1.7h-.1c-.7 0-1.5.4-1.7 1.7h3.2zm3.7 3.3c-.7 0-1.1-.3-1.1-1c.03-.01 0-3.9 0-3.9h-1.2v-.6h1.2v-1.8h.7v1.8h1.4v.6h-1.4s.05 3.84 0 3.8c0 .4.2.5.5.5c-.01-.02 1.1 0 1.1 0v.6s-1.22-.02-1.2 0zm1.8-2.8c0-1.9 1.1-2.8 2.4-2.8c1.4 0 2.2 1 2.2 2.4c.03.05 0 .5 0 .5c0 0-3.93-.02-3.9 0c0 1.5.8 2.2 1.7 2.2h.1c.7 0 1.2-.4 1.4-1.1h.7c-.2 1.1-1.1 1.7-2.2 1.7c-1.4 0-2.4-1-2.4-2.9zm3.9-.5c0-1-.6-1.7-1.4-1.7h-.2c-.7 0-1.5.4-1.6 1.7h3.2zm2.1 3.3v-5.5h.6s.04 1.23 0 1.2c.3-.8 1-1.3 1.7-1.3c.05.03.5 0 .5 0v.7s-.4-.02-.4 0c-1.1 0-1.7.8-1.7 2.2v2.7h-.7zm3.4-1.7h.8c0 .8.6 1.2 1.4 1.2h.1c.8 0 1.2-.4 1.2-1c0-.4-.2-.7-.9-.9l-.8-.1c-.9-.2-1.5-.6-1.5-1.5c0-1.1.9-1.6 1.9-1.6c1.4 0 2 .8 2.1 1.7h-.7c-.1-.6-.5-1.1-1.3-1.1h-.1c-.8 0-1.2.4-1.2.9c0 .5.3.7 1 .9l.8.2c.8.2 1.4.5 1.4 1.4c0 1.1-.8 1.7-2 1.7c-1.4 0-2.1-.8-2.2-1.8zm7.4.2c0-1.2 1-1.6 1.9-1.7l1.7-.1s.02-.24 0-.2c0-1-.5-1.5-1.4-1.5c-.7 0-1.3.3-1.4 1h-.7c.1-1 .9-1.6 2.1-1.6c1.4 0 2.1.9 2.1 2.1v2.3c0 .3 0 .8.1 1.2h-.7v-.9c-.2.5-1 1-2 1c-.9 0-1.7-.7-1.7-1.6zm1.9 1c.8 0 1.7-.7 1.7-1.5c.02 0 0-.7 0-.7c0 0-1.58.07-1.6.1c-.8 0-1.3.4-1.3 1c0 .6.5 1.1 1.1 1.1h.1zm4 .5v-5.5h.7s.02.9 0 .9c.3-.6 1-1 1.9-1c1.2 0 2 .7 2 2c-.03-.02 0 3.6 0 3.6h-.7s-.04-3.4 0-3.4c0-1.1-.5-1.6-1.4-1.6c-1.2 0-1.8 1-1.8 2.2c.02.03 0 2.8 0 2.8h-.7zm5.9-2.8c0-1.7 1-2.8 2.4-2.8c.7 0 1.5.4 1.9 1c-.05-.04 0-3.1 0-3.1h.7v7.7h-.7s-.05-.9 0-.9c-.4.6-1.2 1-1.9 1c-1.4 0-2.4-1.1-2.4-2.9zm2.5 2.3c1.2 0 1.8-1.1 1.8-2.3c0-1.2-.6-2.2-1.8-2.2h-.1c-1.1 0-1.7 1-1.7 2.2c0 1.2.6 2.3 1.7 2.3h.1zm12.8-5h.7l-1.8 5.5h-.9l-1.3-4.8l-1.2 4.8h-.9l-1.8-5.5h.7l1.5 4.8l1.3-4.8h.9l1.3 4.9l1.5-4.9zm1.4 4c0-1.2 1-1.6 1.8-1.7c.05.01 1.8-.1 1.8-.1v-.2c0-1-.5-1.5-1.4-1.5c-.7 0-1.3.3-1.4 1h-.7c0-1 .9-1.6 2.1-1.6c1.4 0 2.1.9 2.1 2.1v2.3c0 .3 0 .8.1 1.2h-.7c0-.3-.1-.6-.1-.9c-.2.5-.9 1-1.9 1c-1 0-1.7-.7-1.7-1.6zm1.9 1c.7 0 1.7-.7 1.7-1.5v-.7s-1.61.07-1.6.1c-.8 0-1.3.4-1.3 1c0 .6.4 1.1 1.1 1.1h.1zm5.5.5c-.7 0-1-.3-1-1c-.02-.01 0-3.9 0-3.9h-1.3v-.6h1.3v-1.8h.7v1.8h1.4v.6h-1.4v3.8c0 .4.1.5.4.5c.03-.02 1.1 0 1.1 0v.6s-1.18-.02-1.2 0zm1.8-2.8c0-1.9 1.2-2.8 2.5-2.8c1.3 0 2.2 1 2.2 2.4c-.02.05 0 .5 0 .5c0 0-3.98-.02-4 0c0 1.5.8 2.2 1.7 2.2h.1c.8 0 1.2-.4 1.5-1.1h.7c-.3 1.1-1.1 1.7-2.2 1.7c-1.4 0-2.5-1-2.5-2.9zm4-.5c-.1-1-.6-1.7-1.5-1.7h-.1c-.7 0-1.5.4-1.7 1.7h3.3zm2 3.3v-5.5h.7v1.2c.2-.8.9-1.3 1.7-1.3c0 .03.5 0 .5 0v.7s-.45-.02-.4 0c-1.1 0-1.8.8-1.8 2.2c.05.01 0 2.7 0 2.7h-.7z" stroke="none" fill="#192d39"/></g><g id="Polygon22708"><path d="m.6 21c0-1.6.9-2.9 2.5-2.9c1.2 0 2 .7 2.1 1.9h-.7c-.1-.7-.6-1.3-1.4-1.3h-.1c-1.2 0-1.7 1.1-1.7 2.3c0 1.2.5 2.2 1.7 2.2h.1c.8 0 1.3-.5 1.4-1.2h.7c-.2 1.1-.9 1.8-2.1 1.8C1.5 23.8.6 22.6.6 21zm5.9 2.7V16h.7s.04 3.16 0 3.2c.4-.7 1.1-1.1 2-1.1c1.2 0 1.9.8 1.9 2c-.01 0 0 3.6 0 3.6h-.7s-.03-3.38 0-3.4c0-1-.5-1.6-1.3-1.6h-.2c-.8 0-1.7.8-1.7 2.1c.04-.04 0 2.9 0 2.9h-.7zm5.9-2.7c0-2 1.2-2.9 2.4-2.9c1.4 0 2.2 1.1 2.2 2.5c.05 0 0 .4 0 .4c0 0-3.91.03-3.9 0c0 1.6.8 2.2 1.7 2.2h.1c.7 0 1.2-.3 1.4-1h.7c-.2 1.1-1 1.6-2.2 1.6c-1.3 0-2.4-.9-2.4-2.8zm3.9-.6c0-.9-.6-1.7-1.4-1.7h-.1c-.7 0-1.5.4-1.7 1.7h3.2zm1.8 1.8c0-1.2 1-1.6 1.9-1.6c-.02-.04 1.7-.2 1.7-.2c0 0 .02-.19 0-.2c0-.9-.5-1.5-1.4-1.5c-.7 0-1.3.4-1.4 1.1h-.7c.1-1 .9-1.7 2.1-1.7c1.4 0 2.1 1 2.1 2.1v2.3c0 .3 0 .8.1 1.2h-.7v-.8c-.2.5-1 .9-2 .9c-.9 0-1.7-.7-1.7-1.6zm1.9 1c.8 0 1.7-.6 1.7-1.5c.02.05 0-.7 0-.7c0 0-1.58.12-1.6.1c-.8.1-1.3.5-1.3 1.1c0 .6.5 1 1.1 1h.1zm4 2.7v-7.7h.7s.03.91 0 .9c.4-.6 1.1-1 1.9-1c1.4 0 2.4 1.1 2.4 2.9c0 1.7-1 2.8-2.4 2.8c-.8 0-1.5-.3-1.9-.9c.03-.05 0 3 0 3h-.7zm2.5-2.7c1.2 0 1.8-1 1.8-2.2c0-1.2-.6-2.3-1.8-2.3c-1.2 0-1.8 1.1-1.8 2.3c0 1.2.6 2.2 1.8 2.2zm3.6-2.2c0-2 1.2-2.9 2.4-2.9c1.4 0 2.2 1.1 2.2 2.5c.04 0 0 .4 0 .4c0 0-3.92.03-3.9 0c0 1.6.8 2.2 1.7 2.2h.1c.7 0 1.2-.3 1.4-1h.7c-.2 1.1-1.1 1.6-2.2 1.6c-1.4 0-2.4-.9-2.4-2.8zm3.9-.6c0-.9-.6-1.7-1.4-1.7h-.1c-.7 0-1.5.4-1.7 1.7h3.2zm2.1 3.3v-5.5h.7s-.04 1.28 0 1.3c.2-.9.9-1.3 1.7-1.3c-.04-.02.5 0 .5 0v.6s-.48.03-.5 0c-1 0-1.7.9-1.7 2.3v2.6h-.7zm5.6-2.7c0-2 1.2-2.9 2.4-2.9c1.4 0 2.3 1.1 2.3 2.5c-.04 0 0 .4 0 .4c0 0-4 .03-4 0c0 1.6.8 2.2 1.7 2.2h.1c.7 0 1.2-.3 1.4-1h.7c-.2 1.1-1 1.6-2.2 1.6c-1.3 0-2.4-.9-2.4-2.8zm3.9-.6c0-.9-.5-1.7-1.4-1.7h-.1c-.7 0-1.5.4-1.7 1.7h3.2zm2.1 3.3v-5.5h.7s.03.95 0 1c.4-.7 1.1-1.1 2-1.1c1.1 0 1.9.7 1.9 2c-.02.03 0 3.6 0 3.6h-.7s-.03-3.35 0-3.3c0-1.1-.5-1.7-1.4-1.7c-1.2 0-1.8 1.1-1.8 2.3c.03-.02 0 2.7 0 2.7h-.7zm5.9-2.7c0-2 1.2-2.9 2.4-2.9c1.4 0 2.2 1.1 2.2 2.5c.05 0 0 .4 0 .4c0 0-3.91.03-3.9 0c0 1.6.8 2.2 1.7 2.2h.1c.7 0 1.2-.3 1.4-1h.7c-.2 1.1-1.1 1.6-2.2 1.6c-1.4 0-2.4-.9-2.4-2.8zm3.9-.6c0-.9-.6-1.7-1.4-1.7h-.1c-.7 0-1.5.4-1.7 1.7h3.2zm2.1 3.3v-5.5h.7s-.04 1.28 0 1.3c.2-.9.9-1.3 1.7-1.3c-.03-.02.5 0 .5 0v.6s-.48.03-.5 0c-1 0-1.7.9-1.7 2.3c.02-.04 0 2.6 0 2.6h-.7zm3.3.8h.7c.2.7.8 1 1.7 1h.2c.9 0 1.7-.5 1.7-1.9v-.9c-.3.6-.9 1-1.8 1c-1.4 0-2.4-1-2.4-2.7c0-1.8 1-2.9 2.4-2.9c.9 0 1.5.4 1.8 1c.03.01 0-.9 0-.9h.7s.05 5.49 0 5.5c0 1.4-.9 2.4-2.5 2.4c-1.6 0-2.4-.6-2.5-1.6zm2.6-1.4c1 0 1.7-.7 1.7-2.1c0-1.4-.7-2.3-1.7-2.3h-.1c-1 0-1.7.9-1.7 2.3c0 1.4.7 2.1 1.7 2.1h.1zm8.8-4.9L72 23.5s.04 1.09 0 1.1c0 .7-.3.9-1 .9c-.01.04-1.7 0-1.7 0v-.6s1.58.04 1.6 0c.3 0 .4-.1.4-.4c.02 0 0-.9 0-.9L69 18.2h.8l1.9 4.5l1.9-4.5h.7zm4.6 5.5c-.7 0-1-.2-1-1c-.03.04 0-3.9 0-3.9h-1.3v-.6h1.3v-1.8h.7v1.8h1.4v.6h-1.4s-.02 3.89 0 3.9c0 .3.1.4.4.4c.02.03 1.1 0 1.1 0v.6s-1.19.03-1.2 0zm2.2 0V16h.8s-.04 3.16 0 3.2c.3-.7 1-1.1 1.9-1.1c1.3 0 1.9.8 1.9 2c.01 0 0 3.6 0 3.6h-.7v-3.4c0-1-.4-1.6-1.3-1.6h-.1c-.9 0-1.7.8-1.7 2.1c-.04-.04 0 2.9 0 2.9h-.8zm6.2 0v-5.5h.7s-.04 1.28 0 1.3c.2-.9.9-1.3 1.7-1.3c-.03-.02.5 0 .5 0v.6s-.48.03-.5 0c-1 0-1.7.9-1.7 2.3c.02-.04 0 2.6 0 2.6h-.7zm3.4-2.7c0-1.7 1.1-2.9 2.5-2.9c1.4 0 2.6 1.2 2.6 2.9c0 1.7-1.2 2.8-2.6 2.8c-1.4 0-2.5-1.1-2.5-2.8zm2.6 2.2c1 0 1.7-.8 1.7-2.2c0-1.4-.7-2.3-1.7-2.3h-.1c-1 0-1.8.9-1.8 2.3c0 1.4.8 2.2 1.8 2.2h.1zm3.7-1.3c.02-.04 0-3.7 0-3.7h.7s.03 3.44 0 3.4c0 1.1.5 1.6 1.4 1.6h.1c.8 0 1.6-.7 1.6-2c-.04 0 0-3 0-3h.7v5.5h-.7s-.04-1 0-1c-.3.7-1 1.1-1.9 1.1c-1.2 0-1.9-.8-1.9-1.9zm5.7 2.6h.7c.1.7.8 1 1.7 1h.1c1 0 1.8-.5 1.8-1.9v-.9c-.3.6-1 1-1.8 1c-1.4 0-2.4-1-2.4-2.7c0-1.8 1-2.9 2.4-2.9c.8 0 1.5.4 1.8 1c-.01.01 0-.9 0-.9h.7v5.5c0 1.4-.9 2.4-2.5 2.4c-1.6 0-2.4-.6-2.5-1.6zm2.6-1.4c1 0 1.7-.7 1.7-2.1c0-1.4-.7-2.3-1.7-2.3h-.1c-1 0-1.7.9-1.7 2.3c0 1.4.7 2.1 1.7 2.1h.1zm4 .6V16h.7s.04 3.16 0 3.2c.4-.7 1.1-1.1 2-1.1c1.2 0 1.9.8 1.9 2c-.01 0 0 3.6 0 3.6h-.7s-.02-3.38 0-3.4c0-1-.5-1.6-1.3-1.6h-.1c-.9 0-1.8.8-1.8 2.1c.04-.04 0 2.9 0 2.9h-.7zm15.2-7.7h1.2v7.7h-.7v-7l-2.7 7h-1.1l-2.7-7.1v7.1h-.7V16h1.3l2.7 7.2l2.7-7.2zm2.8 5c0-2 1.1-2.9 2.4-2.9c1.4 0 2.2 1.1 2.2 2.5c.03 0 0 .4 0 .4c0 0-3.93.03-3.9 0c0 1.6.8 2.2 1.7 2.2h.1c.7 0 1.2-.3 1.4-1h.7c-.2 1.1-1.1 1.6-2.2 1.6c-1.4 0-2.4-.9-2.4-2.8zm3.9-.6c0-.9-.6-1.7-1.4-1.7h-.2c-.6 0-1.4.4-1.6 1.7h3.2zm2.1 3.3v-5.5h.7s-.05 1.28 0 1.3c.2-.9.9-1.3 1.7-1.3c-.04-.02.5 0 .5 0v.6s-.49.03-.5 0c-1 0-1.7.9-1.7 2.3v2.6h-.7zm3.8-6.5v-.9h.8v.9h-.8zm.1 6.5v-5.5h.7v5.5h-.7zm4 0c-.7 0-1.1-.2-1.1-1c.03.04 0-3.9 0-3.9h-1.2v-.6h1.2v-1.8h.7v1.8h1.4v.6h-1.4s.04 3.89 0 3.9c0 .3.2.4.5.4c-.02.03 1.1 0 1.1 0v.6s-1.23.03-1.2 0zm1.7-2.7c0-1.7 1.1-2.9 2.5-2.9c1.5 0 2.6 1.2 2.6 2.9c0 1.7-1.1 2.8-2.6 2.8c-1.4 0-2.5-1.1-2.5-2.8zm2.6 2.2c1 0 1.7-.8 1.7-2.2c0-1.4-.7-2.3-1.7-2.3h-.1c-1 0-1.8.9-1.8 2.3c0 1.4.8 2.2 1.8 2.2h.1zm3.8.5v-5.5h.7v1c.3-.7 1-1.1 1.9-1.1c1.1 0 1.9.7 1.9 2c.05.03 0 3.6 0 3.6h-.7s.04-3.35 0-3.3c0-1.1-.4-1.7-1.3-1.7h-.1c-1.1 0-1.7 1.1-1.7 2.3v2.7h-.7zm8.4 0V16h5.4v.7h-4.6v2.7h3.9v.7h-3.9v2.9h4.7v.7h-5.5zm6.7 0v-5.5h.7s.03.95 0 1c.3-.7 1.1-1.1 2-1.1c1.1 0 1.9.7 1.9 2c-.02.03 0 3.6 0 3.6h-.7s-.04-3.35 0-3.3c0-1.1-.5-1.7-1.4-1.7c-1.2 0-1.8 1.1-1.8 2.3c.03-.02 0 2.7 0 2.7h-.7zm5.9-2.7c0-2 1.2-2.9 2.4-2.9c1.4 0 2.2 1.1 2.2 2.5c.04 0 0 .4 0 .4c0 0-3.92.03-3.9 0c0 1.6.8 2.2 1.7 2.2h.1c.7 0 1.2-.3 1.4-1h.7c-.2 1.1-1.1 1.6-2.2 1.6c-1.4 0-2.4-.9-2.4-2.8zm3.9-.6c0-.9-.6-1.7-1.4-1.7h-.1c-.7 0-1.5.4-1.7 1.7h3.2zm2.1 3.3v-5.5h.7s-.04 1.28 0 1.3c.2-.9.9-1.3 1.7-1.3c-.04-.02.5 0 .5 0v.6s-.48.03-.5 0c-1 0-1.7.9-1.7 2.3v2.6h-.7zm3.3.8h.7c.2.7.8 1 1.7 1h.2c.9 0 1.7-.5 1.7-1.9v-.9c-.3.6-.9 1-1.8 1c-1.4 0-2.4-1-2.4-2.7c0-1.8 1-2.9 2.4-2.9c.9 0 1.5.4 1.8 1c.03.01 0-.9 0-.9h.7s.04 5.49 0 5.5c0 1.4-.9 2.4-2.5 2.4c-1.6 0-2.4-.6-2.5-1.6zm2.6-1.4c1 0 1.7-.7 1.7-2.1c0-1.4-.7-2.3-1.7-2.3h-.1c-1 0-1.7.9-1.7 2.3c0 1.4.7 2.1 1.7 2.1h.1zm8.8-4.9l-2.3 5.3s.03 1.09 0 1.1c0 .7-.3.9-1 .9c-.01.04-1.7 0-1.7 0v-.6s1.58.04 1.6 0c.3 0 .4-.1.4-.4c.02 0 0-.9 0-.9l-2.3-5.4h.8l1.9 4.5l1.8-4.5h.8zm-.2 6.8v-.4s.36-.04.4 0c.4 0 .6-.3.6-.7c.02-.01 0-.2 0-.2h-.6v-1.1h1.1s.02 1.35 0 1.3c0 .7-.4 1.1-1 1.1h-.5z" stroke="none" fill="#192d39"/></g><g id="Polygon22707"><path d="m7.8.9h1.2v7.7h-.7V1.5L5.6 8.6H4.5L1.8 1.5v7.1h-.7V.9h1.3L5.1 8L7.8.9zm2.8 4.9C10.6 3.9 11.7 3 13 3c1.4 0 2.2 1 2.2 2.4c.03.05 0 .5 0 .5c0 0-3.93-.02-3.9 0c0 1.5.8 2.2 1.7 2.2h.1c.7 0 1.2-.4 1.4-1.1h.7C15 8.1 14.1 8.7 13 8.7c-1.4 0-2.4-1-2.4-2.9zm3.9-.5c0-1-.6-1.7-1.4-1.7h-.2c-.6 0-1.4.4-1.6 1.7h3.2zm2.1 3.3V3.1h.7s-.05 1.23 0 1.2c.2-.8.9-1.3 1.7-1.3c-.04.03.5 0 .5 0v.7s-.49-.02-.5 0c-1 0-1.7.8-1.7 2.2v2.7h-.7zm3.8-6.5v-.9h.8v.9h-.8zm.1 6.5V3.1h.7v5.5h-.7zm4 0c-.7 0-1.1-.3-1.1-1c.03-.01 0-3.9 0-3.9h-1.2v-.6h1.2V1.3h.7v1.8h1.4v.6h-1.4s.04 3.84 0 3.8c0 .4.2.5.5.5c-.02-.02 1.1 0 1.1 0v.6s-1.23-.02-1.2 0zm1.7-2.8c0-1.7 1.1-2.8 2.5-2.8c1.5 0 2.6 1.1 2.6 2.8c0 1.7-1.1 2.9-2.6 2.9c-1.4 0-2.5-1.2-2.5-2.9zm2.6 2.3c1 0 1.7-.9 1.7-2.3c0-1.4-.7-2.2-1.7-2.2h-.1c-1 0-1.8.8-1.8 2.2c0 1.4.8 2.3 1.8 2.3h.1zm3.8.5V3.1h.7v.9c.3-.6 1-1 1.9-1c1.1 0 1.9.7 1.9 2c.05-.02 0 3.6 0 3.6h-.7s.04-3.4 0-3.4c0-1.1-.4-1.6-1.3-1.6h-.1c-1.1 0-1.7 1-1.7 2.2v2.8h-.7zm8.2-6.5v-.9h.8v.9h-.8zm0 6.5V3.1h.7v5.5h-.7zm2-1.7h.7c.1.8.7 1.2 1.4 1.2h.1c.8 0 1.3-.4 1.3-1c0-.4-.3-.7-1-.9l-.8-.1c-.8-.2-1.5-.6-1.5-1.5c0-1.1.9-1.6 2-1.6c1.3 0 2 .8 2 1.7h-.7c0-.6-.5-1.1-1.3-1.1h-.1c-.8 0-1.2.4-1.2.9c0 .5.3.7 1 .9l.9.2c.8.2 1.4.5 1.4 1.4c0 1.1-.8 1.7-2 1.7c-1.5 0-2.2-.8-2.2-1.8zm7.3.2c0-1.2 1.1-1.6 1.9-1.7l1.7-.1s.04-.24 0-.2c0-1-.5-1.5-1.3-1.5h-.1c-.7 0-1.3.3-1.4 1h-.7c.1-1 1-1.6 2.1-1.6c1.5 0 2.2.9 2.2 2.1v3.5h-.6c-.1-.3-.1-.6-.1-.9c-.2.5-1 1-1.9 1c-1 0-1.8-.7-1.8-1.6zm1.9 1c.8 0 1.7-.7 1.7-1.5c.04 0 0-.7 0-.7c0 0-1.55.07-1.6.1c-.7 0-1.3.4-1.3 1c0 .6.5 1.1 1.1 1.1h.1zm6.1.5V.9h.8v7.7h-.8zm2.1-2.8c0-1.9 1.2-2.8 2.4-2.8c1.4 0 2.3 1 2.3 2.4c-.03.05 0 .5 0 .5c0 0-3.99-.02-4 0c0 1.5.8 2.2 1.7 2.2h.1c.7 0 1.2-.4 1.4-1.1h.8c-.3 1.1-1.1 1.7-2.3 1.7c-1.3 0-2.4-1-2.4-2.9zm4-.5c-.1-1-.6-1.7-1.5-1.7h-.1c-.7 0-1.5.4-1.7 1.7h3.3zm1.7 1.8c0-1.2 1-1.6 1.9-1.7l1.7-.1s.04-.24 0-.2c0-1-.5-1.5-1.3-1.5h-.1c-.7 0-1.3.3-1.4 1h-.7c.1-1 .9-1.6 2.1-1.6c1.5 0 2.1.9 2.1 2.1v2.3c0 .3 0 .8.1 1.2h-.7v-.9c-.2.5-1 1-2 1c-.9 0-1.7-.7-1.7-1.6zm1.9 1c.8 0 1.7-.7 1.7-1.5c.04 0 0-.7 0-.7c0 0-1.56.07-1.6.1c-.7 0-1.3.4-1.3 1c0 .6.5 1.1 1.1 1.1h.1zm3.7-2.3c0-1.7 1-2.8 2.5-2.8c.7 0 1.5.4 1.8 1V.9h.7v7.7h-.7v-.9c-.3.6-1.1 1-1.8 1c-1.5 0-2.5-1.1-2.5-2.9zM74 8.1c1.2 0 1.8-1.1 1.8-2.3c0-1.2-.6-2.2-1.8-2.2c-1.2 0-1.8 1-1.8 2.2c0 1.2.6 2.3 1.8 2.3zm3.8-2.3C77.8 3.9 79 3 80.3 3c1.3 0 2.2 1 2.2 2.4c.02.05 0 .5 0 .5c0 0-3.94-.02-3.9 0c0 1.5.8 2.2 1.7 2.2h.1c.7 0 1.2-.4 1.4-1.1h.7c-.2 1.1-1.1 1.7-2.2 1.7c-1.4 0-2.5-1-2.5-2.9zm4-.5c0-1-.6-1.7-1.5-1.7h-.1c-.7 0-1.5.4-1.6 1.7h3.2zm2.1 3.3V3.1h.6s.04 1.23 0 1.2c.3-.8 1-1.3 1.7-1.3c.04.03.5 0 .5 0v.7s-.4-.02-.4 0c-1.1 0-1.7.8-1.7 2.2v2.7h-.7zm5.8-6.5v-.9h.9v.9h-.9zm.1 6.5V3.1h.7v5.5h-.7zm2.3 0V3.1h.7s.04.9 0 .9c.4-.6 1.1-1 2-1c1.1 0 1.9.7 1.9 2c-.01-.02 0 3.6 0 3.6h-.7s-.02-3.4 0-3.4c0-1.1-.5-1.6-1.3-1.6h-.1c-1.2 0-1.8 1-1.8 2.2c.04.03 0 2.8 0 2.8h-.7zm7.8-1.7h.8c0 .8.6 1.2 1.4 1.2h.1c.8 0 1.2-.4 1.2-1c0-.4-.2-.7-.9-.9l-.8-.1c-.9-.2-1.5-.6-1.5-1.5c0-1.1.9-1.6 1.9-1.6c1.4 0 2 .8 2.1 1.7h-.7c-.1-.6-.5-1.1-1.3-1.1h-.1c-.8 0-1.2.4-1.2.9c0 .5.3.7 1 .9l.8.2c.8.2 1.4.5 1.4 1.4c0 1.1-.8 1.7-2 1.7c-1.4 0-2.1-.8-2.2-1.8zm5.6-.2c-.03.01 0-3.6 0-3.6h.7s-.02 3.39 0 3.4c0 1 .4 1.6 1.3 1.6h.1c.8 0 1.6-.8 1.6-2.1V3.1h.7v5.5h-.7s.01-1.05 0-1.1c-.3.8-.9 1.2-1.8 1.2c-1.2 0-1.9-.8-1.9-2zm5.7.2h.7c.1.8.6 1.2 1.4 1.2h.1c.8 0 1.3-.4 1.3-1c0-.4-.3-.7-1-.9l-.8-.1c-.8-.2-1.5-.6-1.5-1.5c0-1.1.9-1.6 2-1.6c1.3 0 2 .8 2 1.7h-.7c0-.6-.5-1.1-1.3-1.1h-.1c-.8 0-1.2.4-1.2.9c0 .5.3.7 1 .9l.9.2c.8.2 1.4.5 1.4 1.4c0 1.1-.8 1.7-2 1.7c-1.5 0-2.2-.8-2.2-1.8zm7.2 1.7c-.7 0-1-.3-1-1V3.7h-1.3v-.6h1.3V1.3h.7v1.8h1.4v.6h-1.4v3.8c0 .4.1.5.5.5c-.05-.02 1.1 0 1.1 0v.6s-1.26-.02-1.3 0zm2-1.5c0-1.2 1.1-1.6 1.9-1.7c.02.01 1.8-.1 1.8-.1c0 0-.04-.24 0-.2c0-1-.6-1.5-1.4-1.5h-.1c-.7 0-1.3.3-1.4 1h-.7c.1-1 1-1.6 2.1-1.6c1.5 0 2.2.9 2.2 2.1v3.5h-.6c-.1-.3-.1-.6-.1-.9c-.2.5-1 1-1.9 1c-1 0-1.8-.7-1.8-1.6zm1.9 1c.8 0 1.8-.7 1.8-1.5c-.04 0 0-.7 0-.7c0 0-1.64.07-1.6.1c-.8 0-1.4.4-1.4 1c0 .6.5 1.1 1.1 1.1h.1zm4-6v-.9h.8v.9h-.8zm0 6.5V3.1h.8v5.5h-.8zm2.4 0V3.1h.7s-.02.9 0 .9c.3-.6 1-1 1.9-1c1.1 0 1.9.7 1.9 2c.03-.02 0 3.6 0 3.6h-.7s.02-3.4 0-3.4c0-1.1-.4-1.6-1.3-1.6h-.1c-1.2 0-1.7 1-1.7 2.2c-.02.03 0 2.8 0 2.8h-.7zm5.8-1.5c0-1.2 1.1-1.6 1.9-1.7c.01.01 1.7-.1 1.7-.1c0 0 .04-.24 0-.2c0-1-.5-1.5-1.3-1.5h-.1c-.7 0-1.3.3-1.4 1h-.7c.1-1 1-1.6 2.1-1.6c1.5 0 2.2.9 2.2 2.1v3.5h-.6c-.1-.3-.1-.6-.1-.9c-.2.5-1 1-1.9 1c-1 0-1.8-.7-1.8-1.6zm1.9 1c.8 0 1.7-.7 1.7-1.5c.04 0 0-.7 0-.7c0 0-1.55.07-1.6.1c-.7 0-1.3.4-1.3 1c0 .6.5 1.1 1.1 1.1h.1zm4.8-.4c-.05 0 0 .9 0 .9h-.8V.9h.8s-.05 3.06 0 3.1c.3-.6 1.1-1 1.8-1c1.4 0 2.4 1.1 2.4 2.8c0 1.8-1 2.9-2.4 2.9c-.7 0-1.5-.4-1.8-1zm1.8.4c1.1 0 1.7-1.1 1.7-2.3c0-1.2-.6-2.2-1.7-2.2h-.1c-1.2 0-1.7 1-1.7 2.2c0 1.2.5 2.3 1.7 2.3h.1zm3.8.5V.9h.7v7.7h-.7zm2-2.8c0-1.9 1.2-2.8 2.5-2.8c1.3 0 2.2 1 2.2 2.4v.5s-3.95-.02-3.9 0c0 1.5.8 2.2 1.7 2.2c.8 0 1.3-.4 1.5-1.1h.7c-.2 1.1-1.1 1.7-2.2 1.7c-1.4 0-2.5-1-2.5-2.9zm4-.5c0-1-.6-1.7-1.5-1.7h-.1c-.7 0-1.5.4-1.6 1.7h3.2zm4.1 3.3V.9h.7v7.7h-.7zm2.3-6.5v-.9h.8v.9h-.8zm.1 6.5V3.1h.7v5.5h-.7zm6.1-5.5h.7L164 8.6h-.9L161 3.1h.7l1.9 4.8l1.8-4.8zm1.7-1v-.9h.8v.9h-.8zm0 6.5V3.1h.7v5.5h-.7zm2.4 0V3.1h.7s-.03.9 0 .9c.3-.6 1-1 1.9-1c1.1 0 1.9.7 1.9 2c.02-.02 0 3.6 0 3.6h-.7V5.2c0-1.1-.4-1.6-1.3-1.6h-.1c-1.2 0-1.7 1-1.7 2.2c-.03.03 0 2.8 0 2.8h-.7zm5.7.7h.7c.1.7.8 1.1 1.7 1.1h.1c.9 0 1.8-.5 1.8-1.9v-.9c-.3.6-1 1-1.8 1c-1.4 0-2.4-1-2.4-2.8c0-1.7 1-2.8 2.4-2.8c.8 0 1.5.4 1.8 1c-.01-.04 0-.9 0-.9h.7v5.4c0 1.5-.9 2.5-2.5 2.5c-1.6 0-2.4-.7-2.5-1.7zm2.6-1.3c1 0 1.7-.8 1.7-2.2c0-1.3-.7-2.2-1.7-2.2h-.1c-1 0-1.7.9-1.7 2.2c0 1.4.7 2.2 1.7 2.2h.1zm6.1 2.8V3.1h.8s-.05.86 0 .9c.3-.6 1.1-1 1.8-1c1.4 0 2.4 1.1 2.4 2.8c0 1.8-1 2.9-2.4 2.9c-.7 0-1.5-.4-1.8-1c-.05 0 0 3.1 0 3.1h-.8zm2.6-2.7c1.1 0 1.7-1.1 1.7-2.3c0-1.2-.6-2.2-1.7-2.2h-.1c-1.2 0-1.7 1-1.7 2.2c0 1.2.5 2.3 1.7 2.3h.1zm3.8.5V3.1h.6s.04 1.23 0 1.2c.3-.8 1-1.3 1.7-1.3c.04.03.5 0 .5 0v.7s-.4-.02-.4 0c-1.1 0-1.7.8-1.7 2.2v2.7h-.7zm3.4-2.8c0-1.7 1.1-2.8 2.5-2.8c1.4 0 2.5 1.1 2.5 2.8c0 1.7-1.1 2.9-2.5 2.9c-1.4 0-2.5-1.2-2.5-2.9zm2.6 2.3c.9 0 1.7-.9 1.7-2.3c0-1.4-.8-2.2-1.7-2.2h-.2c-.9 0-1.7.8-1.7 2.2c0 1.4.8 2.3 1.7 2.3h.2zm7.3-5h.7l-2.1 5.5h-.9l-2.1-5.5h.8l1.8 4.8l1.8-4.8zm1.7-1v-.9h.8v.9h-.8zm.1 6.5V3.1h.7v5.5h-.7zm2-2.8c0-1.7 1-2.8 2.4-2.8c.8 0 1.6.4 1.9 1c-.02-.04 0-3.1 0-3.1h.7v7.7h-.7s-.02-.9 0-.9c-.3.6-1.1 1-1.9 1c-1.4 0-2.4-1.1-2.4-2.9zm2.5 2.3c1.2 0 1.8-1.1 1.8-2.3c0-1.2-.6-2.2-1.8-2.2c-1.2 0-1.8 1-1.8 2.2c0 1.2.6 2.3 1.8 2.3zm4.1-6v-.9h.8v.9h-.8zm0 6.5V3.1h.7v5.5h-.7zm2.4 0V3.1h.7s-.04.9 0 .9c.3-.6 1-1 1.9-1c1.1 0 1.9.7 1.9 2c.01-.02 0 3.6 0 3.6h-.7V5.2c0-1.1-.4-1.6-1.3-1.6h-.1c-1.2 0-1.7 1-1.7 2.2c-.04.03 0 2.8 0 2.8h-.7zm5.7.7h.7c.1.7.8 1.1 1.7 1.1h.1c.9 0 1.8-.5 1.8-1.9v-.9c-.3.6-1 1-1.8 1c-1.4 0-2.4-1-2.4-2.8c0-1.7 1-2.8 2.4-2.8c.8 0 1.5.4 1.8 1c-.02-.04 0-.9 0-.9h.7v5.4c0 1.5-.9 2.5-2.5 2.5c-1.6 0-2.4-.7-2.5-1.7zm2.6-1.3c1 0 1.7-.8 1.7-2.2c0-1.3-.7-2.2-1.7-2.2h-.1c-1 0-1.7.9-1.7 2.2c0 1.4.7 2.2 1.7 2.2h.1z" stroke="none" fill="#192d39"/></g></svg>