<?xml version="1.0" standalone="no"?><!DOCTYPE svg PUBLIC "-//W3C//DTD SVG 1.1//EN" "http://www.w3.org/Graphics/SVG/1.1/DTD/svg11.dtd"><svg xmlns="http://www.w3.org/2000/svg" version="1.1" width="581px" height="150px" viewBox="0 -4 581 150" style="top:-4px"><desc>Bespoke craftsmanship</desc><defs/><g id="Polygon18431"><path d="m30.5 90.8c-3.1 2.6-7.2 4.2-11.7 4.2c-9.3 0-17.3-7.6-17.3-17c0-9.5 8-17.1 17.3-17.1c4.5 0 8.7 1.5 11.7 4v5c-2.9-4.8-8-7.7-12.9-7.7c-7.8 0-12.3 6.5-12.3 14c0 10.3 7.9 17.3 15.1 17.3c3.7 0 7.9-2.2 10.1-4.7v2zm32.6 1.9c1.64 2 3.3 2.1 3.3 2.1c0 0-.88.56-2.3.6c-2.8 0-4-.9-6.6-4.2c0 0-5.8-7.4-7.4-9.3c-1.4-1.8-2.3-2.3-3.5-2.3c.02-.02-5.4 0-5.4 0V95h-3.5V60.9s8.2-.04 8.2 0c10.2 0 16.7 3.7 16.7 9.3c0 4.8-4.7 8.2-12.3 9.1c2 .5 3.2 1.3 4.2 2.4c1.4 1.9 8.6 11 8.6 11zM41.2 62.2v16.1s4.7-.04 4.7 0c6.8 0 13.1-2.4 13.1-8.1c-.1-5.6-6.3-8-13.1-8c0 .04-4.7 0-4.7 0zM68.6 95l17.8-34.6L104.2 95h-3.9l-4.9-9.5h-20L70.6 95h-2zm7.7-11.2h18.2l-9.1-17.6l-9.1 17.6zM110 95V60.9h23.9l-.4 2.5l-20-1.2v14.7h15.6l-.3 2.6l-15.3-1.2V95H110zm60.2-31.6l-14.3-1.2V95h-3.4V62.2l-14.3 1.2v-2.5h32v2.5zM187.4 95c-4.5 0-9.6-1.5-12.6-4.1v-4.7c2.9 4.7 7.8 7.4 12.7 7.4c6.1 0 9.8-2.7 9.8-6.4c0-4.1-2.1-6.5-10.7-10.1c-8.8-3.8-11.3-6.1-11.3-9.5c0-3.7 4.2-6.7 13.3-6.7c5.1 0 9.2 1.8 11.7 4v4.6c-2.9-4.7-7.8-7.1-12.6-7.3c-6 0-9.1 1.7-9.1 4.4c.1 2.6 2.4 4.6 9.7 7.6c8.5 3.5 12.6 7 12.6 11.7c0 5.1-3.9 9.1-13.5 9.1zm58.4-34.1V95h-3.5V63.7l-14.5 24l-2 3.4l-1-1.7l-15.4-25.2V95h-1.7V60.9h3.9l15.2 25.2L242 60.9h3.8zm5.4 34.1l17.7-34.6L286.7 95h-3.9l-4.9-9.5h-20l-4.8 9.5h-1.9zm7.6-11.2H277l-9-17.6l-9.2 17.6zM292.5 95V60.9h1.4L322 89.6V60.9h1.7V95h-1.4l-28.1-28.7V95h-1.7zm50.6 0c-4.6 0-9.6-1.5-12.6-4.1v-4.7c2.9 4.7 7.7 7.4 12.6 7.4c6.2 0 9.9-2.7 9.9-6.4c0-4.1-2.2-6.5-10.8-10.1c-8.8-3.8-11.2-6.1-11.2-9.5c0-3.7 4.2-6.7 13.3-6.7c5.1 0 9.1 1.8 11.6 4v4.6c-2.9-4.7-7.8-7.1-12.6-7.3c-6 0-9 1.7-9 4.4c0 2.6 2.4 4.6 9.7 7.6c8.4 3.5 12.5 7 12.5 11.7c0 5.1-3.8 9.1-13.4 9.1zm48.5 0h-3.5V78.8h-21.3V95h-3.5V60.9h3.5v16.2h21.3V60.9h3.5V95zm12.2 0h-3.5V60.9h3.5V95zm35-24.8c0 5.6-6 9.4-18.1 9.4c.01-.02-4.7 0-4.7 0V95h-3.5V60.9s8.21-.04 8.2 0c12.1 0 18.1 3.7 18.1 9.3zm-22.8-8v16.1s4.71-.04 4.7 0c8.1 0 14.5-2.4 14.5-8.1c0-5.6-6.4-8-14.5-8c.01.04-4.7 0-4.7 0z" stroke="none" fill="#dcddce"/></g><g id="Polygon18430"><path d="m3.4 10.9s10.58-.04 10.6 0c9.9 0 14.3 4 14.3 8.3c0 3.1-2.4 6.2-7.4 7.6c7.5 1.2 11.2 4.5 11.2 8.8c0 5.6-6 9.4-18.1 9.4H3.4V10.9zm3.4 32.8s7.18-.02 7.2 0c8 0 14.4-2.5 14.4-8.1c0-5.4-6-7.9-13.8-8H6.8v16.1zm0-31.5v14.1s7.18-.02 7.2 0c7.3 0 10.6-2.8 10.6-7.1c0-4.3-3.3-7-10.6-7c-.02.04-7.2 0-7.2 0zm55.4-1.3v2.5l-20.1-1.2v14.7h15.7l-.3 2.6l-15.4-1.2v15.4l20.4-1.2l-.3 2.5H38.6V10.9h23.6zM81.9 45c-4.6 0-9.6-1.5-12.6-4.1v-4.7c2.9 4.7 7.7 7.4 12.7 7.4c6.1 0 9.8-2.7 9.8-6.4c0-4.1-2.2-6.5-10.7-10.1c-8.9-3.8-11.3-6.1-11.3-9.5c0-3.7 4.2-6.7 13.3-6.7c5.1 0 9.1 1.8 11.6 4v4.6c-2.8-4.7-7.8-7.1-12.6-7.3c-6 0-9 1.7-9 4.4c0 2.6 2.4 4.6 9.7 7.6c8.5 3.5 12.5 7 12.5 11.7c0 5.1-3.8 9.1-13.4 9.1zm46.6-24.8c0 5.6-6 9.4-18.2 9.4c.04-.02-4.7 0-4.7 0V45h-3.5V10.9s8.24-.04 8.2 0c12.2 0 18.2 3.7 18.2 9.3zm-22.9-8v16.1s4.74-.04 4.7 0c8.1 0 14.5-2.4 14.5-8.1c0-5.6-6.4-8-14.5-8c.04.04-4.7 0-4.7 0zm62 15.8c0 9.4-7.7 17-17.1 17c-9.4 0-17.2-7.6-17.2-17c0-9.5 7.8-17.1 17.2-17.1c9.4 0 17.1 7.6 17.1 17.1zm-4.6-5.2c-3.4-8-11.6-12.2-18.5-9.4c-6.9 2.9-9.8 11.7-6.5 19.7c3.4 8 11.6 12.3 18.5 9.4c6.8-2.9 9.8-11.7 6.5-19.7zm36.3 19.9c2.12 2.18 3.7 2.1 3.7 2.1c0 0-.8.56-2.2.6c-2.8 0-4.4-.9-7.4-4.2L183.5 31c-2.2-2.4-3.2-2.8-4.5-1.7h-.1c.02.04-1.2 1.2-1.2 1.2V45h-3.5V10.9h3.5v17.3l19.2-17.3h2.6L181 27.5c2.4-.4 5.1 1.4 7 3.3c1.8 1.8 11.3 11.9 11.3 11.9zm32.3-31.8v2.5l-20.1-1.2v14.7h15.7l-.3 2.6l-15.4-1.2v15.4l20.4-1.2l-.3 2.5H208V10.9h23.6z" stroke="none" fill="#dcddce"/></g></svg>