<?xml version="1.0" standalone="no"?><!DOCTYPE svg PUBLIC "-//W3C//DTD SVG 1.1//EN" "http://www.w3.org/Graphics/SVG/1.1/DTD/svg11.dtd"><svg xmlns="http://www.w3.org/2000/svg" version="1.1" width="152.3px" height="73.4px" viewBox="0 -3 152.3 73.4" style="top:-3px"><desc>Rental returns in Macquarie park have proven to be of the strongest across the Meriton portfolio.</desc><defs/><g id="Polygon21941"><path d="m.9 56.2v-7.7h.7s-.01.91 0 .9c.3-.6 1.1-1 1.8-1c1.5 0 2.5 1.1 2.5 2.9c0 1.7-1 2.8-2.5 2.8c-.7 0-1.5-.3-1.8-.9v3h-.7zm2.5-2.7c1.2 0 1.8-1 1.8-2.2c0-1.2-.6-2.3-1.8-2.3c-1.2 0-1.8 1.1-1.8 2.3c0 1.2.6 2.2 1.8 2.2zm3.5-2.2c0-1.7 1.1-2.9 2.5-2.9c1.5 0 2.6 1.2 2.6 2.9c0 1.7-1.1 2.8-2.6 2.8c-1.4 0-2.5-1.1-2.5-2.8zm2.6 2.2c1 0 1.7-.8 1.7-2.2c0-1.4-.7-2.3-1.7-2.3h-.1c-1 0-1.8.9-1.8 2.3c0 1.4.8 2.2 1.8 2.2h.1zm3.8.5v-5.5h.6s.04 1.28 0 1.3c.3-.9 1-1.3 1.7-1.3c.04-.02.5 0 .5 0v.6s-.4.03-.4 0c-1.1 0-1.7.9-1.7 2.3v2.6h-.7zm5.8 0c-.7 0-1-.2-1-1c-.05.04 0-3.9 0-3.9h-1.3v-.6h1.3v-1.8h.7v1.8h1.3v.6h-1.3s-.04 3.89 0 3.9c0 .3.1.4.4.4c0 .03 1.1 0 1.1 0v.6s-1.21.03-1.2 0zm3.1 0v-4.9h-1.3v-.6h1.3v-1.2c0-.7.3-1 1-1c.03.03 1.4 0 1.4 0v.6s-1.26.03-1.3 0c-.3 0-.4.1-.4.5v1.1h1.4v.6h-1.4v4.9h-.7zm2.7-2.7c0-1.7 1.1-2.9 2.5-2.9c1.4 0 2.5 1.2 2.5 2.9c0 1.7-1.1 2.8-2.5 2.8c-1.4 0-2.5-1.1-2.5-2.8zm2.6 2.2c.9 0 1.7-.8 1.7-2.2c0-1.4-.8-2.3-1.7-2.3h-.2c-.9 0-1.7.9-1.7 2.3c0 1.4.8 2.2 1.7 2.2h.2zm3.8.5v-7.7h.7v7.7h-.7zm2.2-6.5v-.9h.9v.9h-.9zm.1 6.5v-5.5h.7v5.5h-.7zm2-2.7c0-1.7 1.1-2.9 2.5-2.9c1.4 0 2.6 1.2 2.6 2.9c0 1.7-1.2 2.8-2.6 2.8c-1.4 0-2.5-1.1-2.5-2.8zm2.6 2.2c1 0 1.7-.8 1.7-2.2c0-1.4-.7-2.3-1.7-2.3h-.1c-1 0-1.8.9-1.8 2.3c0 1.4.8 2.2 1.8 2.2h.1zm3.6.5v-1.1h1.1v1.1h-1.1z" stroke="none" fill="#192d39"/></g><g id="Polygon21940"><path d="m.5 37.2h.7c0 .8.6 1.2 1.4 1.2h.1c.8 0 1.2-.4 1.2-1c0-.4-.2-.7-.9-.9l-.8-.1c-.8-.2-1.5-.6-1.5-1.5c0-1.1.9-1.6 1.9-1.6c1.4 0 2.1.8 2.1 1.7h-.7c-.1-.6-.5-1.1-1.3-1.1h-.1c-.8 0-1.2.4-1.2.9c0 .5.3.7 1 .9l.8.2c.8.2 1.5.5 1.5 1.4c0 1.1-.8 1.7-2.1 1.7c-1.4 0-2.1-.8-2.1-1.8zm7.2 1.7c-.7 0-1-.3-1-1c-.03-.01 0-3.9 0-3.9H5.4v-.6h1.3v-1.8h.7v1.8h1.4v.6H7.4v3.8c0 .4.1.5.4.5c.03-.02 1.1 0 1.1 0v.6s-1.18-.02-1.2 0zm2.3 0v-5.5h.6s.02 1.23 0 1.2c.3-.8 1-1.3 1.7-1.3c.02.03.5 0 .5 0v.7s-.42-.02-.4 0c-1.1 0-1.7.8-1.7 2.2c-.03.01 0 2.7 0 2.7h-.7zm3.3-2.8c0-1.7 1.2-2.8 2.6-2.8c1.4 0 2.5 1.1 2.5 2.8c0 1.7-1.1 2.9-2.5 2.9c-1.4 0-2.6-1.2-2.6-2.9zm2.6 2.3c1 0 1.8-.9 1.8-2.3c0-1.4-.8-2.2-1.8-2.2h-.1c-1 0-1.7.8-1.7 2.2c0 1.4.7 2.3 1.7 2.3h.1zm3.8.5v-5.5h.7s.03.9 0 .9c.4-.6 1.1-1 2-1c1.1 0 1.9.7 1.9 2c-.02-.02 0 3.6 0 3.6h-.7s-.03-3.4 0-3.4c0-1.1-.5-1.6-1.4-1.6c-1.2 0-1.8 1-1.8 2.2c.03.03 0 2.8 0 2.8h-.7zm5.7.7h.8c.1.7.7 1.1 1.7 1.1h.1c.9 0 1.8-.5 1.8-1.9v-.9c-.4.6-1 1-1.9 1c-1.4 0-2.4-1-2.4-2.8c0-1.7 1-2.8 2.4-2.8c.9 0 1.5.4 1.9 1c-.05-.04 0-.9 0-.9h.7s-.04 5.44 0 5.4c0 1.5-1 2.5-2.6 2.5c-1.6 0-2.4-.7-2.5-1.7zm2.7-1.3c.9 0 1.7-.8 1.7-2.2c0-1.3-.8-2.2-1.7-2.2h-.2c-.9 0-1.6.9-1.6 2.2c0 1.4.7 2.2 1.6 2.2h.2zm3.7-2.2c0-1.9 1.2-2.8 2.5-2.8c1.3 0 2.2 1 2.2 2.4c-.03.05 0 .5 0 .5c0 0-3.99-.02-4 0c0 1.5.8 2.2 1.7 2.2h.1c.8 0 1.2-.4 1.4-1.1h.8c-.3 1.1-1.1 1.7-2.2 1.7c-1.4 0-2.5-1-2.5-2.9zm4-.5c-.1-1-.6-1.7-1.5-1.7h-.1c-.7 0-1.5.4-1.7 1.7h3.3zm1.7 1.6h.7c0 .8.6 1.2 1.4 1.2h.1c.8 0 1.2-.4 1.2-1c0-.4-.2-.7-.9-.9l-.8-.1c-.8-.2-1.5-.6-1.5-1.5c0-1.1.9-1.6 1.9-1.6c1.4 0 2.1.8 2.1 1.7h-.7c-.1-.6-.5-1.1-1.3-1.1h-.1c-.8 0-1.2.4-1.2.9c0 .5.3.7 1 .9l.8.2c.8.2 1.5.5 1.5 1.4c0 1.1-.8 1.7-2.1 1.7c-1.4 0-2.1-.8-2.1-1.8zm7.2 1.7c-.7 0-1-.3-1-1c-.03-.01 0-3.9 0-3.9h-1.3v-.6h1.3v-1.8h.7v1.8h1.4v.6h-1.4v3.8c0 .4.1.5.4.5c.03-.02 1.1 0 1.1 0v.6s-1.18-.02-1.2 0zm4-1.5c0-1.2 1-1.6 1.9-1.7l1.7-.1s.03-.24 0-.2c0-1-.5-1.5-1.3-1.5h-.1c-.7 0-1.3.3-1.4 1h-.7c.1-1 .9-1.6 2.1-1.6c1.5 0 2.1.9 2.1 2.1v2.3c0 .3 0 .8.1 1.2h-.7v-.9c-.2.5-1 1-2 1c-.9 0-1.7-.7-1.7-1.6zm1.9 1c.8 0 1.7-.7 1.7-1.5c.03 0 0-.7 0-.7c0 0-1.56.07-1.6.1c-.7 0-1.3.4-1.3 1c0 .6.5 1.1 1.1 1.1h.1zm3.7-2.3c0-1.6.9-2.8 2.5-2.8c1.2 0 2.1.7 2.2 1.8h-.7c-.2-.7-.7-1.2-1.4-1.2h-.1c-1.2 0-1.8 1-1.8 2.2c0 1.2.6 2.3 1.8 2.3h.1c.7 0 1.2-.6 1.4-1.3h.7c-.2 1.2-1 1.9-2.2 1.9c-1.6 0-2.5-1.3-2.5-2.9zm6 2.8v-5.5h.6s.03 1.23 0 1.2c.3-.8 1-1.3 1.7-1.3c.04.03.5 0 .5 0v.7s-.41-.02-.4 0c-1.1 0-1.7.8-1.7 2.2v2.7h-.7zm3.4-2.8c0-1.7 1.1-2.8 2.5-2.8c1.4 0 2.5 1.1 2.5 2.8c0 1.7-1.1 2.9-2.5 2.9c-1.4 0-2.5-1.2-2.5-2.9zm2.5 2.3c1 0 1.8-.9 1.8-2.3c0-1.4-.8-2.2-1.8-2.2h-.1c-1 0-1.7.8-1.7 2.2c0 1.4.7 2.3 1.7 2.3h.1zm3.4-1.2h.8c0 .8.6 1.2 1.4 1.2h.1c.8 0 1.2-.4 1.2-1c0-.4-.2-.7-.9-.9l-.8-.1c-.9-.2-1.5-.6-1.5-1.5c0-1.1.9-1.6 1.9-1.6c1.4 0 2 .8 2.1 1.7h-.7c-.1-.6-.6-1.1-1.3-1.1h-.1c-.8 0-1.2.4-1.2.9c0 .5.3.7 1 .9l.8.2c.8.2 1.4.5 1.4 1.4c0 1.1-.8 1.7-2 1.7c-1.4 0-2.1-.8-2.2-1.8zm5.2 0h.8c0 .8.6 1.2 1.4 1.2h.1c.8 0 1.2-.4 1.2-1c0-.4-.2-.7-.9-.9l-.8-.1c-.9-.2-1.5-.6-1.5-1.5c0-1.1.9-1.6 1.9-1.6c1.4 0 2 .8 2.1 1.7h-.7c-.1-.6-.6-1.1-1.3-1.1h-.1c-.8 0-1.2.4-1.2.9c0 .5.3.7 1 .9l.8.2c.8.2 1.4.5 1.4 1.4c0 1.1-.8 1.7-2 1.7c-1.4 0-2.1-.8-2.2-1.8zm9.3 1.7c-.7 0-1-.3-1-1c-.05-.01 0-3.9 0-3.9h-1.3v-.6h1.3v-1.8h.7v1.8h1.3v.6h-1.3s-.03 3.84 0 3.8c0 .4.1.5.4.5c.01-.02 1.1 0 1.1 0v.6s-1.2-.02-1.2 0zm2.2 0v-7.7h.7s.05 3.11 0 3.1c.4-.6 1.1-1 2-1c1.2 0 1.9.8 1.9 1.9v3.7h-.7s-.02-3.43 0-3.4c0-1.1-.5-1.6-1.3-1.6h-.1c-.9 0-1.8.7-1.8 2c.05.01 0 3 0 3h-.7zm5.9-2.8c0-1.9 1.2-2.8 2.4-2.8c1.4 0 2.3 1 2.3 2.4c-.04.05 0 .5 0 .5c0 0-4-.02-4 0c0 1.5.8 2.2 1.7 2.2h.1c.7 0 1.2-.4 1.4-1.1h.8c-.3 1.1-1.1 1.7-2.3 1.7c-1.3 0-2.4-1-2.4-2.9zm3.9-.5c0-1-.5-1.7-1.4-1.7h-.1c-.7 0-1.5.4-1.7 1.7h3.2zm11.1-4.4h1.2v7.7h-.7v-7.1l-2.7 7.1h-1.1l-2.7-7.1v7.1h-.7v-7.7h1.3l2.7 7.1l2.7-7.1zm2.8 4.9c0-1.9 1.2-2.8 2.4-2.8c1.4 0 2.2 1 2.2 2.4c.04.05 0 .5 0 .5c0 0-3.92-.02-3.9 0c0 1.5.8 2.2 1.7 2.2h.1c.7 0 1.2-.4 1.4-1.1h.7c-.2 1.1-1.1 1.7-2.2 1.7c-1.4 0-2.4-1-2.4-2.9zm3.9-.5c0-1-.6-1.7-1.4-1.7h-.2c-.6 0-1.4.4-1.6 1.7h3.2zm2.1 3.3v-5.5h.7s-.05 1.23 0 1.2c.2-.8.9-1.3 1.7-1.3c-.04.03.5 0 .5 0v.7s-.49-.02-.5 0c-1 0-1.7.8-1.7 2.2v2.7h-.7zm3.8-6.5v-.9h.8v.9h-.8zm.1 6.5v-5.5h.7v5.5h-.7zm4 0c-.7 0-1.1-.3-1.1-1c.03-.01 0-3.9 0-3.9h-1.2v-.6h1.2v-1.8h.7v1.8h1.4v.6h-1.4s.05 3.84 0 3.8c0 .4.2.5.5.5c-.01-.02 1.1 0 1.1 0v.6s-1.22-.02-1.2 0zm1.7-2.8c0-1.7 1.1-2.8 2.5-2.8c1.5 0 2.6 1.1 2.6 2.8c0 1.7-1.1 2.9-2.6 2.9c-1.4 0-2.5-1.2-2.5-2.9zm2.6 2.3c1 0 1.8-.9 1.8-2.3c0-1.4-.8-2.2-1.8-2.2h-.1c-1 0-1.8.8-1.8 2.2c0 1.4.8 2.3 1.8 2.3h.1zm3.8.5v-5.5h.7v.9c.3-.6 1-1 1.9-1c1.1 0 2 .7 2 2c-.05-.02 0 3.6 0 3.6h-.8s.04-3.4 0-3.4c0-1.1-.4-1.6-1.3-1.6c-1.2 0-1.8 1-1.8 2.2v2.8h-.7z" stroke="none" fill="#192d39"/></g><g id="Polygon21939"><path d="m.9 25.9v-7.7h.7s-.01.91 0 .9c.3-.6 1.1-1 1.8-1c1.5 0 2.5 1.1 2.5 2.9c0 1.7-1 2.8-2.5 2.8c-.7 0-1.5-.3-1.8-.9v3h-.7zm2.5-2.7c1.2 0 1.8-1 1.8-2.2c0-1.2-.6-2.3-1.8-2.3c-1.2 0-1.8 1.1-1.8 2.3c0 1.2.6 2.2 1.8 2.2zm3.5-1c0-1.2 1-1.6 1.9-1.6c-.02-.04 1.7-.2 1.7-.2c0 0 .02-.19 0-.2c0-.9-.5-1.5-1.4-1.5c-.7 0-1.3.4-1.4 1.1h-.7c.1-1 .9-1.7 2.1-1.7c1.4 0 2.1 1 2.1 2.1v2.3c0 .3 0 .8.1 1.2h-.7v-.8c-.2.5-1 .9-2 .9c-.9 0-1.7-.7-1.7-1.6zm1.9 1c.8 0 1.7-.6 1.7-1.5c.02.05 0-.7 0-.7c0 0-1.57.12-1.6.1c-.8.1-1.3.5-1.3 1.1c0 .6.5 1 1.1 1h.1zm4 .5v-5.5h.7s-.02 1.28 0 1.3c.2-.9.9-1.3 1.7-1.3c-.02-.02.5 0 .5 0v.6s-.46.03-.5 0c-1 0-1.7.9-1.7 2.3c.03-.04 0 2.6 0 2.6h-.7zm3.9 0V16h.7v5.1l2.9-2.9h1L19 20.4l2.4 3.3h-.9l-2-2.8l-1.1 1.1v1.7h-.7zm7.7 0V16h.7s.04 3.16 0 3.2c.4-.7 1.1-1.1 2-1.1c1.2 0 1.9.8 1.9 2c-.01 0 0 3.6 0 3.6h-.7s-.02-3.38 0-3.4c0-1-.5-1.6-1.3-1.6h-.2c-.8 0-1.7.8-1.7 2.1c.04-.04 0 2.9 0 2.9h-.7zm5.9-1.5c0-1.2 1-1.6 1.9-1.6c-.04-.04 1.7-.2 1.7-.2v-.2c0-.9-.5-1.5-1.4-1.5c-.7 0-1.3.4-1.4 1.1h-.7c0-1 .9-1.7 2.1-1.7c1.4 0 2.1 1 2.1 2.1v2.3c0 .3 0 .8.1 1.2h-.7v-.8c-.3.5-1 .9-2 .9c-1 0-1.7-.7-1.7-1.6zm1.9 1c.8 0 1.7-.6 1.7-1.5v-.7s-1.59.12-1.6.1c-.8.1-1.3.5-1.3 1.1c0 .6.5 1 1.1 1h.1zm7.5-5h.8l-2.1 5.5h-.9l-2.1-5.5h.7l1.8 4.9l1.8-4.9zM41 21c0-2 1.2-2.9 2.4-2.9c1.4 0 2.3 1.1 2.3 2.5c-.04 0 0 .4 0 .4c0 0-4 .03-4 0c0 1.6.8 2.2 1.7 2.2h.1c.7 0 1.2-.3 1.4-1h.8c-.3 1.1-1.1 1.6-2.3 1.6c-1.3 0-2.4-.9-2.4-2.8zm3.9-.6c0-.9-.5-1.7-1.4-1.7h-.1c-.7 0-1.5.4-1.7 1.7h3.2zm4.2 5.5v-7.7h.7v.9c.3-.6 1.1-1 1.8-1c1.5 0 2.5 1.1 2.5 2.9c0 1.7-1 2.8-2.5 2.8c-.7 0-1.5-.3-1.8-.9v3h-.7zm2.5-2.7c1.2 0 1.8-1 1.8-2.2c0-1.2-.6-2.3-1.8-2.3c-1.2 0-1.8 1.1-1.8 2.3c0 1.2.6 2.2 1.8 2.2zm3.8.5v-5.5h.7s-.02 1.28 0 1.3c.2-.9.9-1.3 1.7-1.3c-.01-.02.5 0 .5 0v.6s-.46.03-.5 0c-1 0-1.7.9-1.7 2.3c.04-.04 0 2.6 0 2.6h-.7zm3.4-2.7c0-1.7 1.1-2.9 2.5-2.9c1.5 0 2.6 1.2 2.6 2.9c0 1.7-1.1 2.8-2.6 2.8c-1.4 0-2.5-1.1-2.5-2.8zm2.6 2.2c1 0 1.7-.8 1.7-2.2c0-1.4-.7-2.3-1.7-2.3h-.1c-1 0-1.8.9-1.8 2.3c0 1.4.8 2.2 1.8 2.2h.1zm7.3-5h.8l-2.1 5.5h-.9l-2.1-5.5h.7l1.8 4.9l1.8-4.9zM70 21c0-2 1.2-2.9 2.4-2.9c1.4 0 2.3 1.1 2.3 2.5c-.03 0 0 .4 0 .4c0 0-3.99.03-4 0c0 1.6.8 2.2 1.7 2.2h.1c.8 0 1.2-.3 1.4-1h.8c-.3 1.1-1.1 1.6-2.3 1.6c-1.3 0-2.4-.9-2.4-2.8zm4-.6c-.1-.9-.6-1.7-1.5-1.7h-.1c-.7 0-1.5.4-1.7 1.7h3.3zm2 3.3v-5.5h.7s.04.95 0 1c.4-.7 1.1-1.1 2-1.1c1.1 0 1.9.7 1.9 2c-.01.03 0 3.6 0 3.6h-.7s-.02-3.35 0-3.3c0-1.1-.5-1.7-1.3-1.7h-.1c-1.2 0-1.8 1.1-1.8 2.3c.04-.02 0 2.7 0 2.7h-.7zm9.9 0c-.7 0-1.1-.2-1.1-1c.03.04 0-3.9 0-3.9h-1.2v-.6h1.2v-1.8h.7v1.8h1.4v.6h-1.4s.04 3.89 0 3.9c0 .3.2.4.5.4c-.02.03 1.1 0 1.1 0v.6s-1.23.03-1.2 0zm1.7-2.7c0-1.7 1.1-2.9 2.5-2.9c1.5 0 2.6 1.2 2.6 2.9c0 1.7-1.1 2.8-2.6 2.8c-1.4 0-2.5-1.1-2.5-2.8zm2.6 2.2c1 0 1.7-.8 1.7-2.2c0-1.4-.7-2.3-1.7-2.3h-.1c-1 0-1.8.9-1.8 2.3c0 1.4.8 2.2 1.8 2.2h.1zm6.6-.3c-.02-.05 0 .8 0 .8h-.7V16h.7s-.02 3.11 0 3.1c.3-.6 1.1-1 1.8-1c1.5 0 2.5 1.1 2.5 2.9c0 1.7-1 2.8-2.5 2.8c-.7 0-1.5-.3-1.8-.9zm1.8.3c1.2 0 1.7-1 1.7-2.2c0-1.2-.5-2.3-1.7-2.3h-.1c-1.1 0-1.7 1.1-1.7 2.3c0 1.2.6 2.2 1.7 2.2h.1zm3.5-2.2c0-2 1.2-2.9 2.5-2.9c1.3 0 2.2 1.1 2.2 2.5v.4s-3.96.03-4 0c.1 1.6.9 2.2 1.8 2.2c.8 0 1.3-.3 1.5-1h.7c-.3 1.1-1.1 1.6-2.2 1.6c-1.4 0-2.5-.9-2.5-2.8zm4-.6c0-.9-.6-1.7-1.5-1.7h-.1c-.7 0-1.5.4-1.6 1.7h3.2zm3.8.6c0-1.7 1.1-2.9 2.5-2.9c1.4 0 2.5 1.2 2.5 2.9c0 1.7-1.1 2.8-2.5 2.8c-1.4 0-2.5-1.1-2.5-2.8zm2.6 2.2c1 0 1.7-.8 1.7-2.2c0-1.4-.7-2.3-1.7-2.3h-.1c-1 0-1.8.9-1.8 2.3c0 1.4.8 2.2 1.8 2.2h.1zm4.3.5v-4.9h-1.3v-.6h1.3s-.04-1.18 0-1.2c0-.7.3-1 1-1c0 .03 1.4 0 1.4 0v.6s-1.29.03-1.3 0c-.3 0-.4.1-.4.5c-.03-.03 0 1.1 0 1.1h1.4v.6h-1.4v4.9h-.7zm6.8 0c-.7 0-1.1-.2-1.1-1c.03.04 0-3.9 0-3.9h-1.2v-.6h1.2v-1.8h.7v1.8h1.4v.6h-1.4s.04 3.89 0 3.9c0 .3.2.4.5.4c-.02.03 1.1 0 1.1 0v.6s-1.23.03-1.2 0zm2.2 0V16h.7s.03 3.16 0 3.2c.4-.7 1.1-1.1 2-1.1c1.2 0 1.9.8 1.9 2c-.02 0 0 3.6 0 3.6h-.7s-.04-3.38 0-3.4c0-1-.5-1.6-1.4-1.6h-.1c-.8 0-1.7.8-1.7 2.1c.03-.04 0 2.9 0 2.9h-.7zm5.9-2.7c0-2 1.2-2.9 2.4-2.9c1.4 0 2.2 1.1 2.2 2.5c.04 0 0 .4 0 .4c0 0-3.92.03-3.9 0c0 1.6.8 2.2 1.7 2.2h.1c.7 0 1.2-.3 1.4-1h.7c-.2 1.1-1.1 1.6-2.2 1.6c-1.4 0-2.4-.9-2.4-2.8zm3.9-.6c0-.9-.6-1.7-1.4-1.7h-.1c-.7 0-1.5.4-1.7 1.7h3.2z" stroke="none" fill="#192d39"/></g><g id="Polygon21938"><path d="m1.1 8.6V.9S4.21.88 4.2.9c1.4 0 2.4.8 2.4 2c0 .9-.5 1.6-1.2 1.9c.8 0 1.1.3 1.1 1c-.04.03 0 2.8 0 2.8h-.8V5.8c0-.3-.2-.5-.5-.5c-.01.03-3.4 0-3.4 0v3.3h-.7zm.7-4s2.3.02 2.3 0C5 4.6 5.8 4 5.8 3c0-.9-.6-1.4-1.7-1.4H1.8v3zm6.1 1.2C7.9 3.9 9 3 10.3 3c1.4 0 2.2 1 2.2 2.4c.03.05 0 .5 0 .5c0 0-3.93-.02-3.9 0c0 1.5.8 2.2 1.7 2.2h.1c.7 0 1.2-.4 1.4-1.1h.7c-.2 1.1-1.1 1.7-2.2 1.7c-1.4 0-2.4-1-2.4-2.9zm3.9-.5c0-1-.6-1.7-1.4-1.7h-.2c-.7 0-1.5.4-1.6 1.7h3.2zm2.1 3.3V3.1h.7v.9c.3-.6 1-1 1.9-1c1.1 0 2 .7 2 2c-.05-.02 0 3.6 0 3.6h-.8s.04-3.4 0-3.4c0-1.1-.4-1.6-1.3-1.6c-1.2 0-1.8 1-1.8 2.2v2.8h-.7zm7.7 0c-.7 0-1-.3-1-1c-.04-.01 0-3.9 0-3.9h-1.3v-.6h1.3V1.3h.7v1.8h1.4v.6h-1.4s-.02 3.84 0 3.8c0 .4.1.5.4.5c.02-.02 1.1 0 1.1 0v.6s-1.19-.02-1.2 0zm2-1.5c0-1.2 1-1.6 1.9-1.7l1.7-.1s.02-.24 0-.2c0-1-.5-1.5-1.4-1.5c-.7 0-1.3.3-1.4 1h-.7c.1-1 .9-1.6 2.1-1.6c1.4 0 2.1.9 2.1 2.1v2.3c0 .3 0 .8.1 1.2h-.7v-.9c-.2.5-1 1-2 1c-.9 0-1.7-.7-1.7-1.6zm1.9 1c.8 0 1.7-.7 1.7-1.5c.02 0 0-.7 0-.7c0 0-1.57.07-1.6.1c-.8 0-1.3.4-1.3 1c0 .6.5 1.1 1.1 1.1h.1zm4 .5V.9h.7v7.7h-.7zm4.5 0V3.1h.6s.03 1.23 0 1.2c.3-.8 1-1.3 1.7-1.3c.04.03.5 0 .5 0v.7s-.41-.02-.4 0c-1.1 0-1.7.8-1.7 2.2v2.7h-.7zm3.4-2.8c0-1.9 1.2-2.8 2.4-2.8c1.4 0 2.3 1 2.3 2.4c-.03.05 0 .5 0 .5c0 0-3.99-.02-4 0c0 1.5.8 2.2 1.7 2.2h.1c.8 0 1.2-.4 1.4-1.1h.8c-.3 1.1-1.1 1.7-2.3 1.7c-1.3 0-2.4-1-2.4-2.9zm4-.5c-.1-1-.6-1.7-1.5-1.7h-.1c-.7 0-1.5.4-1.7 1.7h3.3zM45 8.6c-.7 0-1-.3-1-1c-.05-.01 0-3.9 0-3.9h-1.3v-.6h1.3V1.3h.7v1.8h1.3v.6h-1.3s-.04 3.84 0 3.8c0 .4.1.5.4.5c0-.02 1.1 0 1.1 0v.6s-1.21-.02-1.2 0zm2.1-1.9c.02.01 0-3.6 0-3.6h.7s.04 3.39 0 3.4c0 1 .5 1.6 1.4 1.6h.1c.8 0 1.6-.8 1.6-2.1c-.04.05 0-2.9 0-2.9h.7v5.5h-.7s-.04-1.05 0-1.1c-.3.8-1 1.2-1.9 1.2c-1.2 0-1.9-.8-1.9-2zm6.1 1.9V3.1h.7s-.04 1.23 0 1.2c.2-.8.9-1.3 1.7-1.3c-.03.03.5 0 .5 0v.7s-.48-.02-.5 0c-1 0-1.7.8-1.7 2.2c.02.01 0 2.7 0 2.7h-.7zm3.9 0V3.1h.7s-.01.9 0 .9c.3-.6 1-1 1.9-1c1.1 0 1.9.7 1.9 2c.04-.02 0 3.6 0 3.6h-.7s.02-3.4 0-3.4c0-1.1-.4-1.6-1.3-1.6h-.1c-1.2 0-1.7 1-1.7 2.2v2.8h-.7zm5.7-1.7h.7c.1.8.7 1.2 1.5 1.2h.1c.7 0 1.2-.4 1.2-1c0-.4-.2-.7-1-.9l-.8-.1c-.8-.2-1.5-.6-1.5-1.5C63 3.5 64 3 65 3c1.4 0 2 .8 2.1 1.7h-.7c-.1-.6-.6-1.1-1.3-1.1h-.1c-.8 0-1.2.4-1.2.9c0 .5.3.7 1 .9l.8.2c.8.2 1.4.5 1.4 1.4c0 1.1-.8 1.7-2 1.7c-1.4 0-2.1-.8-2.2-1.8zm7.6-4.8v-.9h.8v.9h-.8zm.1 6.5V3.1h.7v5.5h-.7zm2.3 0V3.1h.7s.02.9 0 .9c.3-.6 1-1 1.9-1c1.1 0 2 .7 2 2c-.03-.02 0 3.6 0 3.6h-.7s-.05-3.4 0-3.4c0-1.1-.5-1.6-1.4-1.6c-1.2 0-1.8 1-1.8 2.2c.02.03 0 2.8 0 2.8h-.7zM87.9.9h1.3v7.7h-.7V1.5l-2.7 7.1h-1.1L82 1.5v7.1h-.8V.9h1.3L85.3 8L87.9.9zm2.8 6.2c0-1.2 1.1-1.6 1.9-1.7c.03.01 1.8-.1 1.8-.1c0 0-.03-.24 0-.2c0-1-.6-1.5-1.4-1.5h-.1c-.7 0-1.3.3-1.3 1h-.8c.1-1 1-1.6 2.2-1.6c1.4 0 2.1.9 2.1 2.1v3.5h-.6c-.1-.3-.1-.6-.1-.9c-.2.5-1 1-1.9 1c-1 0-1.8-.7-1.8-1.6zm2 1c.7 0 1.7-.7 1.7-1.5c-.03 0 0-.7 0-.7c0 0-1.63.07-1.6.1c-.8 0-1.3.4-1.3 1c0 .6.4 1.1 1.1 1.1h.1zm3.6-2.3c0-1.6.9-2.8 2.6-2.8c1.2 0 2 .7 2.1 1.8h-.7c-.1-.7-.6-1.2-1.4-1.2h-.1c-1.2 0-1.7 1-1.7 2.2c0 1.2.5 2.3 1.7 2.3h.1c.8 0 1.3-.6 1.4-1.3h.7c-.2 1.2-.9 1.9-2.1 1.9c-1.7 0-2.6-1.3-2.6-2.9zm10 5s-.02-3.1 0-3.1c-.4.6-1.1 1-1.9 1c-1.4 0-2.4-1.1-2.4-2.9c0-1.7 1-2.8 2.4-2.8c.8 0 1.5.4 1.9 1c-.02-.04 0-.9 0-.9h.7v7.7h-.7zm-1.8-2.7c1.2 0 1.8-1.1 1.8-2.3c0-1.2-.6-2.2-1.8-2.2c-1.2 0-1.8 1-1.8 2.2c0 1.2.6 2.3 1.8 2.3zm4.1-1.4c-.02.01 0-3.6 0-3.6h.7s-.01 3.39 0 3.4c0 1 .4 1.6 1.3 1.6h.1c.8 0 1.6-.8 1.6-2.1c.02.05 0-2.9 0-2.9h.7v5.5h-.7s.02-1.05 0-1.1c-.3.8-.9 1.2-1.8 1.2c-1.2 0-1.9-.8-1.9-2zm5.8.4c0-1.2 1-1.6 1.9-1.7l1.7-.1v-.2c0-1-.5-1.5-1.4-1.5c-.7 0-1.3.3-1.4 1h-.7c0-1 .9-1.6 2.1-1.6c1.4 0 2.1.9 2.1 2.1v2.3c0 .3 0 .8.1 1.2h-.7v-.9c-.3.5-1 1-2 1c-1 0-1.7-.7-1.7-1.6zm1.9 1c.8 0 1.7-.7 1.7-1.5v-.7s-1.59.07-1.6.1c-.8 0-1.3.4-1.3 1c0 .6.5 1.1 1.1 1.1h.1zm4 .5V3.1h.7s-.04 1.23 0 1.2c.2-.8.9-1.3 1.7-1.3c-.04.03.5 0 .5 0v.7s-.48-.02-.5 0c-1 0-1.7.8-1.7 2.2v2.7h-.7zm3.8-6.5v-.9h.8v.9h-.8zm.1 6.5V3.1h.7v5.5h-.7zm2-2.8c0-1.9 1.2-2.8 2.5-2.8c1.3 0 2.2 1 2.2 2.4c-.03.05 0 .5 0 .5c0 0-3.99-.02-4 0c0 1.5.8 2.2 1.7 2.2h.1c.8 0 1.2-.4 1.4-1.1h.8c-.3 1.1-1.1 1.7-2.2 1.7c-1.4 0-2.5-1-2.5-2.9zm4-.5c-.1-1-.6-1.7-1.5-1.7h-.1c-.7 0-1.5.4-1.7 1.7h3.3z" stroke="none" fill="#192d39"/></g></svg>