<?xml version="1.0" standalone="no"?><!DOCTYPE svg PUBLIC "-//W3C//DTD SVG 1.1//EN" "http://www.w3.org/Graphics/SVG/1.1/DTD/svg11.dtd"><svg xmlns="http://www.w3.org/2000/svg" version="1.1" width="39px" height="15px" viewBox="0 -2 39 15" style="top:-2px"><desc>15</desc><defs/><g id="Polygon19040"><path d="m16.7.7h.8v6.3h-1V2.2l-1.4 1.4V2.3L16.7.7zm2.1 4.6h1.1c.1.6.5.9 1.1.9h.1c.7 0 1.2-.5 1.2-1.1c0-.7-.5-1.1-1.1-1.1h-.1c-.4 0-.8.1-1.1.5h-1l.8-3.8h3.5v1h-2.7l-.4 1.8c.3-.3.7-.4 1.2-.4c1.1 0 1.9.8 1.9 1.9c0 1.3-.9 2.1-2.2 2.1c-1.3 0-2.2-.7-2.3-1.8z" stroke="none" fill="#dcddce"/></g></svg>