<?xml version="1.0" standalone="no"?><!DOCTYPE svg PUBLIC "-//W3C//DTD SVG 1.1//EN" "http://www.w3.org/Graphics/SVG/1.1/DTD/svg11.dtd"><svg xmlns="http://www.w3.org/2000/svg" version="1.1" width="215.1px" height="12.5px" viewBox="0 -2 215.1 12.5" style="top:-2px"><desc>Artist impression of on site childcare</desc><defs/><g id="Polygon17650"><path d="m96.5 5.5l-.4-1.2h-2.2l-.5 1.2h-.9l2-4.9h1l1.9 4.9h-.9zm-2.3-2h1.6L95 1.4l-.8 2.1zm3.9 2V2h.8s.02.69 0 .7c.2-.5.5-.8 1-.8c.03.03.3 0 .3 0v.8s-.33-.02-.3 0c-.6 0-1 .3-1 1c.03-.04 0 1.8 0 1.8h-.8zm4.2 0c-.5 0-.8-.3-.8-.9c-.03.01 0-2 0-2h-.8v-.6h.8V.8h.8v1.2h.8v.6h-.8s-.03 1.82 0 1.8c0 .3 0 .4.3.4c.01-.03.6 0 .6 0v.7s-.89-.04-.9 0zm1.6-4.1v-.8h.9v.8h-.9zm.1 4.1V2h.8v3.5h-.8zm1.7-1.2h.8c0 .4.3.6.6.6h.1c.3 0 .5-.2.5-.4c0-.2-.1-.3-.4-.4l-.5-.1c-.6-.1-1-.5-1-1c0-.7.6-1.1 1.4-1.1c.9 0 1.4.5 1.4 1.2h-.8c-.1-.3-.2-.6-.6-.6h-.1c-.3 0-.5.2-.5.4c0 .2.2.3.5.4l.5.1c.6.2.9.5.9 1.1c0 .6-.5 1-1.4 1c-.9 0-1.4-.4-1.4-1.2zm5.1 1.2c-.6 0-.9-.3-.9-.9c.04.01 0-2 0-2h-.7v-.6h.7V.8h.8v1.2h.8v.6h-.8s.04 1.82 0 1.8c0 .3.1.4.4.4c-.02-.03.5 0 .5 0v.7s-.82-.04-.8 0zm2.8-4.1v-.8h.9v.8h-.9zm.1 4.1V2h.8v3.5h-.8zm1.9 0V2h.8v.5c.2-.4.6-.6 1.1-.6c.5 0 .9.2 1.1.6c.2-.4.7-.6 1.1-.6c.9 0 1.3.5 1.3 1.3c-.03-.01 0 2.3 0 2.3h-.8s-.04-2.18 0-2.2c0-.5-.2-.7-.6-.7h-.1c-.4 0-.8.3-.8.9v2h-.8s-.02-2.18 0-2.2c0-.5-.2-.7-.6-.7h-.1c-.4 0-.8.3-.8.9v2h-.8zm6.5 1.4V2h.8s-.03.43 0 .4c.1-.2.6-.5 1-.5c1 0 1.6.8 1.6 1.8c0 1-.6 1.8-1.6 1.8c-.5 0-.9-.2-1-.5c-.03-.01 0 1.9 0 1.9h-.8zm1.7-2c.5 0 .9-.4.9-1.2c0-.7-.4-1.2-.9-1.2c-.5 0-.9.5-.9 1.2c0 .8.4 1.2.9 1.2zm2.6.6V2h.8v.7c.1-.5.5-.8 1-.8c.02.03.3 0 .3 0v.8s-.35-.02-.3 0c-.7 0-1 .3-1 1c.02-.04 0 1.8 0 1.8h-.8zm2.6-1.8c0-1.1.7-1.8 1.7-1.8c1 0 1.5.7 1.5 1.7v.3h-2.4c0 .6.5 1 .9 1c.4 0 .6-.2.7-.5h.8c-.1.7-.7 1.1-1.5 1.1c-.9 0-1.7-.6-1.7-1.8zm2.4-.4c0-.5-.3-.8-.7-.8h-.1c-.4 0-.7.3-.8.8h1.6zm1.5 1h.9c0 .4.2.6.6.6h.1c.3 0 .5-.2.5-.4c0-.2-.1-.3-.4-.4l-.5-.1c-.6-.1-1-.5-1-1c0-.7.5-1.1 1.3-1.1c1 0 1.5.5 1.5 1.2h-.8c-.1-.3-.3-.6-.6-.6h-.1c-.3 0-.5.2-.5.4c0 .2.1.3.4.4l.6.1c.6.2.9.5.9 1.1c0 .6-.5 1-1.4 1c-.9 0-1.5-.4-1.5-1.2zm3.7 0h.8c0 .4.3.6.6.6h.1c.3 0 .6-.2.6-.4c0-.2-.2-.3-.5-.4l-.4-.1c-.7-.1-1.1-.5-1.1-1c0-.7.6-1.1 1.4-1.1c.9 0 1.4.5 1.4 1.2h-.8c-.1-.3-.2-.6-.6-.6h-.1c-.3 0-.5.2-.5.4c0 .2.2.3.5.4l.5.1c.6.2.9.5.9 1.1c0 .6-.5 1-1.4 1c-.9 0-1.4-.4-1.4-1.2zm3.8-2.9v-.8h.9v.8h-.9zm0 4.1V2h.8v3.5h-.8zm1.7-1.8c0-1.1.8-1.8 1.8-1.8c1 0 1.7.7 1.7 1.8c0 1.1-.7 1.8-1.7 1.8c-1 0-1.8-.7-1.8-1.8zm1.8 1.2c.5 0 .9-.5.9-1.2c0-.7-.4-1.2-.9-1.2h-.1c-.5 0-.9.5-.9 1.2c0 .7.4 1.2.9 1.2h.1zm2.6.6V2h.8v.5c.2-.4.6-.6 1.1-.6c.8 0 1.2.5 1.2 1.3c.03-.02 0 2.3 0 2.3h-.8s.03-2.2 0-2.2c0-.5-.2-.8-.6-.8h-.1c-.4 0-.8.4-.8 1v2h-.8zm5.2-1.8c0-1.1.7-1.8 1.7-1.8c1 0 1.7.7 1.7 1.8c0 1.1-.7 1.8-1.7 1.8c-1 0-1.7-.7-1.7-1.8zm1.7 1.2c.6 0 .9-.5.9-1.2c0-.7-.3-1.2-.9-1.2c-.5 0-.9.5-.9 1.2c0 .7.4 1.2.9 1.2zm3 .6V2.6h-.7v-.6h.7s.02-.61 0-.6c0-.6.3-.8.9-.8c-.04-.04 1 0 1 0v.6s-.73.04-.7 0c-.3 0-.4.1-.4.4c.03-.02 0 .4 0 .4h.9v.6h-.9v2.9h-.8zm3.5-1.8c0-1.1.7-1.8 1.7-1.8c1 0 1.7.7 1.7 1.8c0 1.1-.7 1.8-1.7 1.8c-1 0-1.7-.7-1.7-1.8zm1.7 1.2c.5 0 .9-.5.9-1.2c0-.7-.4-1.2-.9-1.2c-.6 0-.9.5-.9 1.2c0 .7.3 1.2.9 1.2zm2.6.6V2h.8s.03.46 0 .5c.2-.4.6-.6 1.1-.6c.8 0 1.3.5 1.3 1.3c-.04-.02 0 2.3 0 2.3h-.8s-.05-2.2 0-2.2c0-.5-.3-.8-.7-.8c-.5 0-.9.4-.9 1c.03.01 0 2 0 2h-.8zm4.2-1.8v-.7h2v.7h-2zm2.7.6h.9c0 .4.3.6.6.6h.1c.3 0 .5-.2.5-.4c0-.2-.1-.3-.4-.4l-.5-.1c-.6-.1-1-.5-1-1c0-.7.6-1.1 1.4-1.1c.9 0 1.4.5 1.4 1.2h-.8c-.1-.3-.3-.6-.6-.6h-.1c-.3 0-.5.2-.5.4c0 .2.1.3.5.4l.5.1c.6.2.9.5.9 1.1c0 .6-.5 1-1.4 1c-.9 0-1.5-.4-1.5-1.2zm3.9-2.9v-.8h.8v.8h-.8zm0 4.1V2h.8v3.5h-.8zm3.1 0c-.5 0-.8-.3-.8-.9v-2h-.7v-.6h.7V.8h.8v1.2h.8v.6h-.8v1.8c0 .3.1.4.3.4c.04-.03.6 0 .6 0v.7s-.86-.04-.9 0zm1.5-1.8c0-1.1.7-1.8 1.6-1.8c1 0 1.6.7 1.6 1.7v.3h-2.4c0 .6.4 1 .8 1h.1c.3 0 .6-.2.7-.5h.8c-.2.7-.7 1.1-1.6 1.1c-.8 0-1.6-.6-1.6-1.8zm2.4-.4c0-.5-.4-.8-.8-.8c-.4 0-.7.3-.8.8h1.6zm2.7.4c0-1.1.7-1.8 1.7-1.8c.9 0 1.4.4 1.5 1.3h-.8c0-.4-.3-.7-.7-.7c-.6 0-.9.6-.9 1.2c0 .6.3 1.2.9 1.2c.4 0 .7-.3.7-.6h.8c-.1.8-.6 1.2-1.5 1.2c-1 0-1.7-.7-1.7-1.8zm4.1 1.8V.6h.8s.03 1.86 0 1.9c.2-.4.6-.6 1.1-.6c.8 0 1.3.5 1.3 1.3c-.04-.02 0 2.3 0 2.3h-.8s-.05-2.2 0-2.2c0-.5-.3-.8-.7-.8c-.5 0-.9.4-.9 1c.03.01 0 2 0 2h-.8zm4.2-4.1v-.8h.9v.8h-.9zm0 4.1V2h.8v3.5h-.8zm2 0V.6h.8v4.9h-.8zm1.7-1.8c0-1 .6-1.8 1.6-1.8c.5 0 .9.3 1 .5V.6h.8v4.9h-.8v-.5c-.1.3-.6.5-1.1.5c-.9 0-1.5-.8-1.5-1.8zm1.7 1.2c.5 0 .9-.4.9-1.2c0-.7-.4-1.2-.9-1.2c-.5 0-.9.5-.9 1.2c0 .7.4 1.2.9 1.2zm2.6-1.2c0-1.1.7-1.8 1.7-1.8c.9 0 1.5.4 1.5 1.3h-.8c0-.4-.3-.7-.6-.7h-.1c-.6 0-.8.6-.8 1.2c0 .6.2 1.2.8 1.2h.1c.3 0 .6-.3.6-.6h.8c0 .8-.6 1.2-1.5 1.2c-1 0-1.7-.7-1.7-1.8zm4 .8c0-.8.6-1.1 1.2-1.1c.03-.03 1-.1 1-.1c0 0-.05-.1 0-.1c0-.4-.3-.7-.7-.7c-.4 0-.6.2-.7.5h-.8c.1-.6.7-1.1 1.5-1.1c.9 0 1.4.5 1.4 1.3v1.5c0 .2 0 .5.1.8h-.8v-.5c-.2.3-.6.5-1.1.5c-.6 0-1.1-.4-1.1-1zm1.3.4c.4 0 .9-.4.9-.8c-.05 0 0-.2 0-.2c0 0-.86.07-.9.1c-.3 0-.5.1-.5.5c0 .2.2.4.4.4h.1zm2.7.6V2h.8s.02.69 0 .7c.2-.5.5-.8 1-.8c.03.03.3 0 .3 0v.8s-.33-.02-.3 0c-.6 0-1 .3-1 1c.03-.04 0 1.8 0 1.8h-.8zm2.6-1.8c0-1.1.7-1.8 1.7-1.8c1 0 1.5.7 1.5 1.7v.3h-2.4c.1.6.5 1 .9 1h.1c.3 0 .6-.2.6-.5h.8c-.1.7-.7 1.1-1.5 1.1c-.9 0-1.7-.6-1.7-1.8zm2.4-.4c0-.5-.3-.8-.7-.8h-.1c-.3 0-.7.3-.8.8h1.6z" stroke="none" fill="#dcddce"/></g></svg>