<?xml version="1.0" standalone="no"?><!DOCTYPE svg PUBLIC "-//W3C//DTD SVG 1.1//EN" "http://www.w3.org/Graphics/SVG/1.1/DTD/svg11.dtd"><svg xmlns="http://www.w3.org/2000/svg" version="1.1" width="241px" height="58.4px" viewBox="0 -3 241 58.4" style="top:-3px"><desc>Secured bicycle parking available to encourage residents to use a healthy, low emissions and free mode of transport.</desc><defs/><g id="Polygon22823"><path d="m.9 38.9v-5.5h.7s-.01.86 0 .9c.3-.6 1-1 1.8-1c.8 0 1.5.4 1.7 1.1c.4-.7 1.1-1.1 2-1.1c1.1 0 1.9.7 1.9 2c-.04-.02 0 3.6 0 3.6h-.7s-.05-3.4 0-3.4c0-1.1-.5-1.6-1.3-1.6h-.1c-1.1 0-1.6 1-1.6 2.2c-.02.03 0 2.8 0 2.8h-.7s-.03-3.4 0-3.4c0-1.1-.5-1.6-1.3-1.6h-.1c-1.1 0-1.6 1-1.6 2.2v2.8h-.7zm9.3-2.8c0-1.7 1.2-2.8 2.6-2.8c1.4 0 2.5 1.1 2.5 2.8c0 1.7-1.1 2.9-2.5 2.9c-1.4 0-2.6-1.2-2.6-2.9zm2.6 2.3c1 0 1.8-.9 1.8-2.3c0-1.4-.8-2.2-1.8-2.2h-.1c-1 0-1.7.8-1.7 2.2c0 1.4.7 2.3 1.7 2.3h.1zm3.5-2.3c0-1.7 1-2.8 2.5-2.8c.7 0 1.5.4 1.8 1v-3.1h.7v7.7h-.7s.01-.9 0-.9c-.3.6-1.1 1-1.8 1c-1.5 0-2.5-1.1-2.5-2.9zm2.6 2.3c1.1 0 1.7-1.1 1.7-2.3c0-1.2-.6-2.2-1.7-2.2h-.1c-1.2 0-1.8 1-1.8 2.2c0 1.2.6 2.3 1.8 2.3h.1zm3.8-2.3c0-1.9 1.1-2.8 2.4-2.8c1.4 0 2.2 1 2.2 2.4c.04.05 0 .5 0 .5c0 0-3.92-.02-3.9 0c0 1.5.8 2.2 1.7 2.2h.1c.7 0 1.2-.4 1.4-1.1h.7c-.2 1.1-1.1 1.7-2.2 1.7c-1.4 0-2.4-1-2.4-2.9zm3.9-.5c0-1-.6-1.7-1.4-1.7h-.2c-.6 0-1.4.4-1.6 1.7h3.2zm3.8.5c0-1.7 1.1-2.8 2.5-2.8c1.5 0 2.6 1.1 2.6 2.8c0 1.7-1.1 2.9-2.6 2.9c-1.4 0-2.5-1.2-2.5-2.9zm2.6 2.3c1 0 1.8-.9 1.8-2.3c0-1.4-.8-2.2-1.8-2.2h-.1c-1 0-1.8.8-1.8 2.2c0 1.4.8 2.3 1.8 2.3h.1zm4.3.5V34H36v-.6h1.3v-1.2c0-.7.3-1 1-1c.04-.02 1.4 0 1.4 0v.6s-1.25-.02-1.3 0c-.3 0-.4.1-.4.4v1.2h1.4v.6H38v4.9h-.7zm6.8 0c-.7 0-1-.3-1-1c-.03-.01 0-3.9 0-3.9h-1.3v-.6h1.3v-1.8h.7v1.8h1.4v.6h-1.4s-.02 3.84 0 3.8c0 .4.1.5.4.5c.02-.02 1.1 0 1.1 0v.6s-1.19-.02-1.2 0zm2.3 0v-5.5h.6v1.2c.3-.8 1-1.3 1.7-1.3c.01.03.5 0 .5 0v.7s-.43-.02-.4 0c-1.1 0-1.7.8-1.7 2.2c-.04.01 0 2.7 0 2.7h-.7zm3.5-1.5c0-1.2 1-1.6 1.9-1.7l1.7-.1s.02-.24 0-.2c0-1-.5-1.5-1.4-1.5c-.7 0-1.3.3-1.4 1h-.7c.1-1 .9-1.6 2.1-1.6c1.4 0 2.1.9 2.1 2.1v2.3c0 .3 0 .8.1 1.2h-.7v-.9c-.2.5-1 1-2 1c-.9 0-1.7-.7-1.7-1.6zm1.9 1c.8 0 1.7-.7 1.7-1.5c.02 0 0-.7 0-.7c0 0-1.57.07-1.6.1c-.8 0-1.3.4-1.3 1c0 .6.5 1.1 1.1 1.1h.1zm4 .5v-5.5h.7s.03.9 0 .9c.3-.6 1.1-1 2-1c1.1 0 1.9.7 1.9 2c-.02-.02 0 3.6 0 3.6h-.7s-.03-3.4 0-3.4c0-1.1-.5-1.6-1.4-1.6c-1.2 0-1.8 1-1.8 2.2c.03.03 0 2.8 0 2.8h-.7zm5.8-1.7h.7c.1.8.6 1.2 1.4 1.2h.1c.8 0 1.3-.4 1.3-1c0-.4-.3-.7-1-.9l-.8-.1c-.8-.2-1.5-.6-1.5-1.5c0-1.1.9-1.6 2-1.6c1.3 0 2 .8 2 1.7h-.7c-.1-.6-.5-1.1-1.3-1.1h-.1c-.8 0-1.2.4-1.2.9c0 .5.3.7 1 .9l.9.2c.7.2 1.4.5 1.4 1.4c0 1.1-.8 1.7-2 1.7c-1.5 0-2.2-.8-2.2-1.8zm5.5 3.9v-7.7h.8s-.04.86 0 .9c.3-.6 1.1-1 1.8-1c1.4 0 2.5 1.1 2.5 2.8c0 1.8-1.1 2.9-2.5 2.9c-.7 0-1.5-.4-1.8-1c-.04 0 0 3.1 0 3.1h-.8zm2.6-2.7c1.2 0 1.7-1.1 1.7-2.3c0-1.2-.5-2.2-1.7-2.2h-.1c-1.2 0-1.7 1-1.7 2.2c0 1.2.5 2.3 1.7 2.3h.1zm3.5-2.3c0-1.7 1.1-2.8 2.5-2.8c1.4 0 2.5 1.1 2.5 2.8c0 1.7-1.1 2.9-2.5 2.9c-1.4 0-2.5-1.2-2.5-2.9zm2.6 2.3c.9 0 1.7-.9 1.7-2.3c0-1.4-.8-2.2-1.7-2.2h-.2c-.9 0-1.7.8-1.7 2.2c0 1.4.8 2.3 1.7 2.3h.2zm3.7.5v-5.5h.7v1.2c.3-.8 1-1.3 1.7-1.3c.01.03.5 0 .5 0v.7s-.43-.02-.4 0c-1.1 0-1.7.8-1.7 2.2c-.04.01 0 2.7 0 2.7h-.8zm5.9 0c-.8 0-1.1-.3-1.1-1c.02-.01 0-3.9 0-3.9h-1.2v-.6h1.2v-1.8h.7v1.8h1.4v.6H85s.03 3.84 0 3.8c0 .4.1.5.5.5c-.03-.02 1.1 0 1.1 0v.6s-1.24-.02-1.2 0zm2.2 0v-1.1h1.1v1.1h-1.1z" stroke="none" fill="#192d39"/></g><g id="Polygon22822"><path d="m.9 23.7v-5.5h.6s.04 1.28 0 1.3c.3-.9 1-1.3 1.7-1.3c.04-.02.5 0 .5 0v.6s-.4.03-.4 0c-1.1 0-1.7.9-1.7 2.3v2.6h-.7zM4.3 21c0-2 1.2-2.9 2.5-2.9c1.3 0 2.2 1.1 2.2 2.5c-.02 0 0 .4 0 .4c0 0-3.98.03-4 0c0 1.6.8 2.2 1.7 2.2h.1c.8 0 1.2-.3 1.5-1h.7c-.3 1.1-1.1 1.6-2.2 1.6c-1.4 0-2.5-.9-2.5-2.8zm4-.6c-.1-.9-.6-1.7-1.5-1.7h-.1c-.7 0-1.5.4-1.7 1.7h3.3zm1.7 1.7h.7c0 .7.6 1.1 1.4 1.1h.1c.8 0 1.2-.3 1.2-1c0-.4-.2-.6-.9-.8l-.8-.2c-.8-.2-1.5-.5-1.5-1.5c0-1 .9-1.6 1.9-1.6c1.4 0 2.1.9 2.1 1.8h-.7c-.1-.6-.5-1.2-1.3-1.2h-.1c-.8 0-1.2.5-1.2 1c0 .5.3.7 1 .9l.8.1c.8.2 1.5.6 1.5 1.5c0 1-.8 1.6-2.1 1.6c-1.4 0-2.1-.7-2.1-1.7zm5.5-4.9v-.9h.8v.9h-.8zm0 6.5v-5.5h.7v5.5h-.7zm2.1-2.7c0-1.8 1-2.9 2.4-2.9c.7 0 1.5.4 1.9 1c-.05.01 0-3.1 0-3.1h.7v7.7h-.7s-.05-.85 0-.8c-.4.6-1.2.9-1.9.9c-1.4 0-2.4-1.1-2.4-2.8zm2.5 2.2c1.2 0 1.8-1 1.8-2.2c0-1.2-.6-2.3-1.8-2.3h-.1c-1.1 0-1.7 1.1-1.7 2.3c0 1.2.6 2.2 1.7 2.2h.1zm3.8-2.2c0-2 1.2-2.9 2.5-2.9c1.3 0 2.2 1.1 2.2 2.5c-.02 0 0 .4 0 .4c0 0-3.98.03-4 0c0 1.6.8 2.2 1.7 2.2h.1c.8 0 1.2-.3 1.5-1h.7c-.3 1.1-1.1 1.6-2.2 1.6c-1.4 0-2.5-.9-2.5-2.8zm4-.6c-.1-.9-.6-1.7-1.5-1.7h-.1c-.7 0-1.5.4-1.7 1.7h3.3zm2 3.3v-5.5h.7s.05.95 0 1c.4-.7 1.1-1.1 2-1.1c1.1 0 1.9.7 1.9 2v3.6h-.7s-.02-3.35 0-3.3c0-1.1-.5-1.7-1.3-1.7h-.1c-1.2 0-1.8 1.1-1.8 2.3c.05-.02 0 2.7 0 2.7h-.7zm7.8 0c-.8 0-1.1-.2-1.1-1v-3.9h-1.3v-.6h1.3v-1.8h.7v1.8h1.4v.6h-1.4s.02 3.89 0 3.9c0 .3.1.4.5.4c-.04.03 1.1 0 1.1 0v.6s-1.25.03-1.2 0zm1.8-1.6h.8c0 .7.6 1.1 1.4 1.1h.1c.8 0 1.2-.3 1.2-1c0-.4-.2-.6-.9-.8l-.8-.2c-.9-.2-1.5-.5-1.5-1.5c0-1 .9-1.6 1.9-1.6c1.4 0 2 .9 2.1 1.8h-.7c-.1-.6-.6-1.2-1.3-1.2h-.1c-.8 0-1.2.5-1.2 1c0 .5.3.7 1 .9l.8.1c.8.2 1.4.6 1.4 1.5c0 1-.8 1.6-2 1.6c-1.4 0-2.1-.7-2.2-1.7zm9.3 1.6c-.7 0-1.1-.2-1.1-1c.05.04 0-3.9 0-3.9h-1.2v-.6h1.2v-1.8h.8v1.8h1.3v.6h-1.3s-.04 3.89 0 3.9c0 .3.1.4.4.4c0 .03 1.1 0 1.1 0v.6s-1.21.03-1.2 0zm1.7-2.7c0-1.7 1.1-2.9 2.6-2.9c1.4 0 2.5 1.2 2.5 2.9c0 1.7-1.1 2.8-2.5 2.8c-1.5 0-2.6-1.1-2.6-2.8zm2.6 2.2c1 0 1.8-.8 1.8-2.2c0-1.4-.8-2.3-1.8-2.3h-.1c-1 0-1.7.9-1.7 2.3c0 1.4.7 2.2 1.7 2.2h.1zm5.8-1.3c.04-.04 0-3.7 0-3.7h.8s-.05 3.44 0 3.4c0 1.1.4 1.6 1.3 1.6h.1c.8 0 1.6-.7 1.6-2c-.02 0 0-3 0-3h.7v5.5h-.7s-.02-1 0-1c-.3.7-1 1.1-1.9 1.1c-1.2 0-1.9-.8-1.9-1.9zm5.7.2h.8c0 .7.6 1.1 1.4 1.1h.1c.8 0 1.2-.3 1.2-1c0-.4-.2-.6-.9-.8l-.8-.2c-.9-.2-1.5-.5-1.5-1.5c0-1 .9-1.6 1.9-1.6c1.4 0 2 .9 2.1 1.8h-.7c-.1-.6-.6-1.2-1.3-1.2h-.1c-.8 0-1.2.5-1.2 1c0 .5.3.7 1 .9l.8.1c.8.2 1.4.6 1.4 1.5c0 1-.8 1.6-2 1.6c-1.4 0-2.1-.7-2.2-1.7zm5.3-1.1c0-2 1.2-2.9 2.4-2.9c1.4 0 2.3 1.1 2.3 2.5c-.03 0 0 .4 0 .4c0 0-3.99.03-4 0c0 1.6.8 2.2 1.7 2.2h.1c.8 0 1.2-.3 1.4-1h.8c-.3 1.1-1.1 1.6-2.3 1.6c-1.3 0-2.4-.9-2.4-2.8zm4-.6c-.1-.9-.6-1.7-1.5-1.7h-.1c-.7 0-1.5.4-1.7 1.7h3.3zm3.8 1.8c0-1.2 1-1.6 1.9-1.6c-.04-.04 1.7-.2 1.7-.2v-.2c0-.9-.5-1.5-1.4-1.5c-.7 0-1.3.4-1.4 1.1h-.7c0-1 .9-1.7 2.1-1.7c1.4 0 2.1 1 2.1 2.1v2.3c0 .3 0 .8.1 1.2h-.7v-.8c-.3.5-1 .9-2 .9c-1 0-1.7-.7-1.7-1.6zm1.9 1c.8 0 1.7-.6 1.7-1.5v-.7s-1.59.12-1.6.1c-.8.1-1.3.5-1.3 1.1c0 .6.5 1 1.1 1h.1zm6.1.5V16h.7v3.2c.4-.7 1.1-1.1 2-1.1c1.2 0 1.9.8 1.9 2c-.04 0 0 3.6 0 3.6h-.7s-.05-3.38 0-3.4c0-1-.5-1.6-1.4-1.6h-.1c-.8 0-1.7.8-1.7 2.1v2.9h-.7zm5.9-2.7c0-2 1.1-2.9 2.4-2.9c1.4 0 2.2 1.1 2.2 2.5c.03 0 0 .4 0 .4c0 0-3.93.03-3.9 0c0 1.6.8 2.2 1.7 2.2h.1c.7 0 1.2-.3 1.4-1h.7c-.2 1.1-1.1 1.6-2.2 1.6c-1.4 0-2.4-.9-2.4-2.8zm3.9-.6c0-.9-.6-1.7-1.4-1.7h-.2c-.7 0-1.5.4-1.6 1.7h3.2zm1.8 1.8c0-1.2 1-1.6 1.9-1.6c-.04-.04 1.7-.2 1.7-.2v-.2c0-.9-.5-1.5-1.4-1.5c-.7 0-1.3.4-1.4 1.1h-.7c0-1 .9-1.7 2.1-1.7c1.4 0 2.1 1 2.1 2.1v2.3c0 .3 0 .8.1 1.2h-.7v-.8c-.3.5-1 .9-2 .9c-1 0-1.7-.7-1.7-1.6zm1.9 1c.8 0 1.7-.6 1.7-1.5v-.7s-1.6.12-1.6.1c-.8.1-1.3.5-1.3 1.1c0 .6.5 1 1.1 1h.1zm4 .5V16h.7v7.7h-.7zm4 0c-.7 0-1-.2-1-1c-.03.04 0-3.9 0-3.9h-1.3v-.6h1.3v-1.8h.7v1.8h1.4v.6h-1.4s-.02 3.89 0 3.9c0 .3.1.4.4.4c.02.03 1.1 0 1.1 0v.6s-1.19.03-1.2 0zm2.2 0V16h.8s-.04 3.16 0 3.2c.3-.7 1-1.1 1.9-1.1c1.3 0 1.9.8 1.9 2c.01 0 0 3.6 0 3.6h-.7v-3.4c0-1-.4-1.6-1.3-1.6h-.1c-.9 0-1.7.8-1.7 2.1c-.04-.04 0 2.9 0 2.9h-.8zm10.7-5.5l-2.3 5.3s.04 1.09 0 1.1c0 .7-.3.9-1 .9c-.01.04-1.7 0-1.7 0v-.6s1.58.04 1.6 0c.3 0 .4-.1.4-.4c.02 0 0-.9 0-.9l-2.3-5.4h.8l1.9 4.5l1.9-4.5h.7zm-.2 6.8v-.4s.37-.04.4 0c.4 0 .6-.3.6-.7c.03-.01 0-.2 0-.2h-.6v-1.1h1.1s.02 1.35 0 1.3c0 .7-.4 1.1-1 1.1h-.5zm5.2-1.3V16h.7v7.7h-.7zm2-2.7c0-1.7 1.1-2.9 2.5-2.9c1.4 0 2.5 1.2 2.5 2.9c0 1.7-1.1 2.8-2.5 2.8c-1.4 0-2.5-1.1-2.5-2.8zm2.6 2.2c1 0 1.7-.8 1.7-2.2c0-1.4-.7-2.3-1.7-2.3h-.1c-1 0-1.8.9-1.8 2.3c0 1.4.8 2.2 1.8 2.2h.1zm10.2-5h.7l-1.7 5.5h-1l-1.2-4.7l-1.3 4.7h-.9l-1.8-5.5h.7l1.6 4.9l1.2-4.9h.9l1.3 5l1.5-5zm1.5 2.5v-.6h2.7v.6h-2.7zm3.9.3c0-2 1.2-2.9 2.4-2.9c1.4 0 2.2 1.1 2.2 2.5c.05 0 0 .4 0 .4c0 0-3.91.03-3.9 0c0 1.6.8 2.2 1.7 2.2h.1c.7 0 1.2-.3 1.4-1h.7c-.2 1.1-1 1.6-2.2 1.6c-1.3 0-2.4-.9-2.4-2.8zm3.9-.6c0-.9-.6-1.7-1.4-1.7h-.1c-.7 0-1.5.4-1.7 1.7h3.2zm2.1 3.3v-5.5h.7s.02.91 0 .9c.4-.6 1-1 1.8-1c.8 0 1.5.4 1.8 1.2c.4-.8 1-1.2 1.9-1.2c1.1 0 1.9.7 1.9 2c-.01.03 0 3.6 0 3.6h-.7s-.02-3.35 0-3.3c0-1.1-.4-1.7-1.3-1.7h-.1c-1.1 0-1.6 1.1-1.6 2.3v2.7h-.7s-.01-3.35 0-3.3c0-1.1-.4-1.7-1.3-1.7c-1.2 0-1.7 1.1-1.7 2.3c.02-.02 0 2.7 0 2.7h-.7zm9.6-6.5v-.9h.9v.9h-.9zm.1 6.5v-5.5h.7v5.5h-.7zm1.9-1.6h.7c.1.7.7 1.1 1.5 1.1h.1c.7 0 1.2-.3 1.2-1c0-.4-.2-.6-1-.8l-.8-.2c-.8-.2-1.5-.5-1.5-1.5c0-1 1-1.6 2-1.6c1.4 0 2 .9 2.1 1.8h-.7c-.1-.6-.6-1.2-1.3-1.2h-.1c-.8 0-1.2.5-1.2 1c0 .5.3.7 1 .9l.8.1c.8.2 1.4.6 1.4 1.5c0 1-.8 1.6-2 1.6c-1.4 0-2.1-.7-2.2-1.7zm5.2 0h.7c.1.7.7 1.1 1.5 1.1h.1c.7 0 1.2-.3 1.2-1c0-.4-.2-.6-1-.8l-.8-.2c-.8-.2-1.5-.5-1.5-1.5c0-1 1-1.6 2-1.6c1.4 0 2 .9 2.1 1.8h-.7c-.1-.6-.6-1.2-1.3-1.2h-.1c-.8 0-1.2.5-1.2 1c0 .5.3.7 1 .9l.8.1c.8.2 1.4.6 1.4 1.5c0 1-.8 1.6-2 1.6c-1.4 0-2.1-.7-2.2-1.7zm5.5-4.9v-.9h.9v.9h-.9zm.1 6.5v-5.5h.7v5.5h-.7zm2-2.7c0-1.7 1.1-2.9 2.5-2.9c1.5 0 2.6 1.2 2.6 2.9c0 1.7-1.1 2.8-2.6 2.8c-1.4 0-2.5-1.1-2.5-2.8zm2.6 2.2c1 0 1.7-.8 1.7-2.2c0-1.4-.7-2.3-1.7-2.3h-.1c-1 0-1.8.9-1.8 2.3c0 1.4.8 2.2 1.8 2.2h.1zm3.8.5v-5.5h.7v1c.3-.7 1-1.1 1.9-1.1c1.1 0 1.9.7 1.9 2c.05.03 0 3.6 0 3.6h-.7s.03-3.35 0-3.3c0-1.1-.4-1.7-1.3-1.7h-.1c-1.1 0-1.7 1.1-1.7 2.3v2.7h-.7zm5.7-1.6h.7c.1.7.7 1.1 1.5 1.1h.1c.7 0 1.2-.3 1.2-1c0-.4-.2-.6-1-.8l-.8-.2c-.8-.2-1.4-.5-1.4-1.5c0-1 .9-1.6 1.9-1.6c1.4 0 2 .9 2.1 1.8h-.7c-.1-.6-.6-1.2-1.3-1.2h-.1c-.8 0-1.2.5-1.2 1c0 .5.3.7 1 .9l.8.1c.8.2 1.4.6 1.4 1.5c0 1-.8 1.6-2 1.6c-1.4 0-2.1-.7-2.2-1.7zm7.4.1c0-1.2 1-1.6 1.9-1.6c-.04-.04 1.7-.2 1.7-.2v-.2c0-.9-.5-1.5-1.4-1.5c-.7 0-1.3.4-1.4 1.1h-.7c0-1 .9-1.7 2.1-1.7c1.4 0 2.1 1 2.1 2.1v2.3c0 .3 0 .8.1 1.2h-.7v-.8c-.3.5-1 .9-2 .9c-1 0-1.7-.7-1.7-1.6zm1.9 1c.8 0 1.7-.6 1.7-1.5v-.7s-1.6.12-1.6.1c-.8.1-1.3.5-1.3 1.1c0 .6.5 1 1.1 1h.1zm4 .5v-5.5h.7v1c.3-.7 1-1.1 1.9-1.1c1.1 0 2 .7 2 2c-.04.03 0 3.6 0 3.6h-.8s.04-3.35 0-3.3c0-1.1-.4-1.7-1.3-1.7c-1.2 0-1.8 1.1-1.8 2.3v2.7h-.7zm5.8-2.7c0-1.8 1.1-2.9 2.5-2.9c.7 0 1.5.4 1.8 1c.04.01 0-3.1 0-3.1h.8v7.7h-.8s.04-.85 0-.8c-.3.6-1.1.9-1.8.9c-1.4 0-2.5-1.1-2.5-2.8zm2.6 2.2c1.2 0 1.7-1 1.7-2.2c0-1.2-.5-2.3-1.7-2.3h-.1c-1.2 0-1.7 1.1-1.7 2.3c0 1.2.5 2.2 1.7 2.2h.1zm6.8.5v-4.9H215v-.6h1.3V17c0-.7.3-1 1.1-1c-.05.03 1.3 0 1.3 0v.6s-1.24.03-1.2 0c-.4 0-.5.1-.5.5c.02-.03 0 1.1 0 1.1h1.5v.6H217v4.9h-.7zm3.2 0v-5.5h.6s.03 1.28 0 1.3c.3-.9 1-1.3 1.7-1.3c.04-.02.5 0 .5 0v.6s-.41.03-.4 0c-1.1 0-1.7.9-1.7 2.3v2.6h-.7zm3.4-2.7c0-2 1.2-2.9 2.4-2.9c1.4 0 2.3 1.1 2.3 2.5c-.03 0 0 .4 0 .4c0 0-3.99.03-4 0c0 1.6.8 2.2 1.7 2.2h.1c.7 0 1.2-.3 1.4-1h.8c-.3 1.1-1.1 1.6-2.3 1.6c-1.3 0-2.4-.9-2.4-2.8zm4-.6c-.1-.9-.6-1.7-1.5-1.7h-.1c-.7 0-1.5.4-1.7 1.7h3.3zm1.7.6c0-2 1.2-2.9 2.5-2.9c1.3 0 2.2 1.1 2.2 2.5v.4s-3.96.03-4 0c.1 1.6.9 2.2 1.8 2.2c.8 0 1.3-.3 1.5-1h.7c-.3 1.1-1.1 1.6-2.2 1.6c-1.4 0-2.5-.9-2.5-2.8zm4-.6c0-.9-.6-1.7-1.5-1.7h-.1c-.7 0-1.5.4-1.6 1.7h3.2z" stroke="none" fill="#192d39"/></g><g id="Polygon22821"><path d="m.5 6.2h.7c0 1.1.9 1.8 2.2 1.8h.1c1.2 0 1.8-.7 1.8-1.5c0-.7-.4-1.1-1.4-1.3L2.7 5C1.5 4.7.8 4.1.8 3C.8 1.8 1.8.8 3.5.8c1.6 0 2.7.9 2.7 2.3h-.7c-.1-1-.9-1.6-2-1.6h-.1c-1 0-1.8.6-1.8 1.5c0 .7.5 1 1.3 1.2l1.2.2c1.3.3 2 .9 2 2.1c0 1.4-1 2.2-2.7 2.2C1.6 8.7.5 7.8.5 6.2zm6.7-.4C7.2 3.9 8.4 3 9.7 3c1.3 0 2.2 1 2.2 2.4c.02.05 0 .5 0 .5c0 0-3.94-.02-3.9 0c0 1.5.8 2.2 1.7 2.2h.1c.7 0 1.2-.4 1.4-1.1h.7c-.2 1.1-1.1 1.7-2.2 1.7c-1.4 0-2.5-1-2.5-2.9zm4-.5c0-1-.6-1.7-1.5-1.7h-.1c-.7 0-1.5.4-1.6 1.7h3.2zm1.8.5c0-1.6.9-2.8 2.5-2.8c1.2 0 2 .7 2.2 1.8h-.8c-.1-.7-.6-1.2-1.3-1.2h-.1c-1.2 0-1.8 1-1.8 2.2c0 1.2.6 2.3 1.8 2.3h.1c.7 0 1.2-.6 1.3-1.3h.8c-.2 1.2-1 1.9-2.2 1.9c-1.6 0-2.5-1.3-2.5-2.9zm5.9.9c-.02.01 0-3.6 0-3.6h.7v3.4c0 1 .4 1.6 1.3 1.6h.1c.8 0 1.6-.8 1.6-2.1c.02.05 0-2.9 0-2.9h.7v5.5h-.7s.02-1.05 0-1.1c-.3.8-.9 1.2-1.8 1.2c-1.2 0-1.9-.8-1.9-2zM25 8.6V3.1h.6s.02 1.23 0 1.2c.3-.8 1-1.3 1.7-1.3c.03.03.5 0 .5 0v.7s-.42-.02-.4 0c-1.1 0-1.7.8-1.7 2.2c-.02.01 0 2.7 0 2.7h-.7zm3.4-2.8c0-1.9 1.2-2.8 2.4-2.8c1.4 0 2.3 1 2.3 2.4c-.04.05 0 .5 0 .5c0 0-4-.02-4 0c0 1.5.8 2.2 1.7 2.2h.1c.7 0 1.2-.4 1.4-1.1h.7c-.2 1.1-1 1.7-2.2 1.7c-1.3 0-2.4-1-2.4-2.9zm3.9-.5c0-1-.6-1.7-1.4-1.7h-.1c-.7 0-1.5.4-1.7 1.7h3.2zm1.8.5c0-1.7 1-2.8 2.5-2.8c.7 0 1.5.4 1.8 1V.9h.7v7.7h-.7v-.9c-.3.6-1.1 1-1.8 1c-1.5 0-2.5-1.1-2.5-2.9zm2.5 2.3c1.2 0 1.8-1.1 1.8-2.3c0-1.2-.6-2.2-1.8-2.2c-1.2 0-1.8 1-1.8 2.2c0 1.2.6 2.3 1.8 2.3zm7-.4c-.03 0 0 .9 0 .9h-.7V.9h.7s-.03 3.06 0 3.1c.3-.6 1.1-1 1.8-1c1.4 0 2.5 1.1 2.5 2.8c0 1.8-1.1 2.9-2.5 2.9c-.7 0-1.5-.4-1.8-1zm1.8.4c1.2 0 1.7-1.1 1.7-2.3c0-1.2-.5-2.2-1.7-2.2h-.1c-1.2 0-1.7 1-1.7 2.2c0 1.2.5 2.3 1.7 2.3h.1zm3.7-6v-.9h.9v.9h-.9zm.1 6.5V3.1h.7v5.5h-.7zm2-2.8c0-1.6.9-2.8 2.5-2.8c1.2 0 2.1.7 2.2 1.8h-.7c-.1-.7-.7-1.2-1.4-1.2h-.1c-1.2 0-1.8 1-1.8 2.2c0 1.2.6 2.3 1.8 2.3h.1c.7 0 1.2-.6 1.4-1.3h.7c-.2 1.2-1 1.9-2.2 1.9c-1.6 0-2.5-1.3-2.5-2.9zm10.6-2.7l-2.3 5.3s.02 1.04 0 1c0 .7-.3 1-1 1c-.02-.01-1.7 0-1.7 0v-.6h1.6c.3 0 .4-.1.4-.4v-1l-2.3-5.3h.8l1.9 4.4L61 3.1h.8zm.4 2.7c0-1.6.9-2.8 2.6-2.8c1.2 0 2 .7 2.1 1.8h-.7c-.1-.7-.6-1.2-1.4-1.2h-.1c-1.2 0-1.7 1-1.7 2.2c0 1.2.5 2.3 1.7 2.3h.1c.8 0 1.3-.6 1.4-1.3h.7c-.2 1.2-.9 1.9-2.1 1.9c-1.7 0-2.6-1.3-2.6-2.9zm6 2.8V.9h.7v7.7h-.7zm2.1-2.8c0-1.9 1.1-2.8 2.4-2.8c1.4 0 2.2 1 2.2 2.4c.04.05 0 .5 0 .5c0 0-3.92-.02-3.9 0c0 1.5.8 2.2 1.7 2.2h.1c.7 0 1.2-.4 1.4-1.1h.7c-.2 1.1-1.1 1.7-2.2 1.7c-1.4 0-2.4-1-2.4-2.9zm3.9-.5c0-1-.6-1.7-1.4-1.7h-.2c-.6 0-1.4.4-1.6 1.7h3.2zm4.2 5.5V3.1h.7s-.03.86 0 .9c.3-.6 1.1-1 1.8-1c1.4 0 2.5 1.1 2.5 2.8c0 1.8-1.1 2.9-2.5 2.9c-.7 0-1.5-.4-1.8-1c-.03 0 0 3.1 0 3.1h-.7zm2.5-2.7c1.2 0 1.7-1.1 1.7-2.3c0-1.2-.5-2.2-1.7-2.2h-.1c-1.2 0-1.7 1-1.7 2.2c0 1.2.5 2.3 1.7 2.3h.1zm3.5-1c0-1.2 1-1.6 1.9-1.7l1.7-.1v-.2c0-1-.5-1.5-1.4-1.5c-.7 0-1.3.3-1.4 1h-.7c0-1 .9-1.6 2.1-1.6c1.4 0 2.1.9 2.1 2.1v2.3c0 .3 0 .8.1 1.2h-.7v-.9c-.3.5-1 1-2 1c-1 0-1.7-.7-1.7-1.6zm1.9 1c.8 0 1.7-.7 1.7-1.5v-.7s-1.6.07-1.6.1c-.8 0-1.3.4-1.3 1c0 .6.5 1.1 1.1 1.1h.1zm4 .5V3.1h.7s-.05 1.23 0 1.2c.2-.8.9-1.3 1.7-1.3c-.04.03.5 0 .5 0v.7s-.49-.02-.5 0c-1 0-1.7.8-1.7 2.2v2.7h-.7zm3.9 0V.9h.7v5l2.9-2.8h1l-2.3 2.2l2.4 3.3h-.9l-2-2.8l-1.1 1v1.8h-.7zm5.6-6.5v-.9h.9v.9h-.9zm.1 6.5V3.1h.7v5.5h-.7zm2.3 0V3.1h.7s.03.9 0 .9c.3-.6 1.1-1 2-1c1.1 0 1.9.7 1.9 2c-.02-.02 0 3.6 0 3.6h-.7s-.03-3.4 0-3.4c0-1.1-.5-1.6-1.4-1.6c-1.2 0-1.8 1-1.8 2.2c.03.03 0 2.8 0 2.8h-.7zm5.7.7h.7c.2.7.8 1.1 1.8 1.1h.1c.9 0 1.7-.5 1.7-1.9v-.9c-.3.6-.9 1-1.8 1c-1.4 0-2.4-1-2.4-2.8c0-1.7 1-2.8 2.4-2.8c.9 0 1.5.4 1.8 1c.05-.04 0-.9 0-.9h.8s-.04 5.44 0 5.4c0 1.5-1 2.5-2.6 2.5c-1.6 0-2.4-.7-2.5-1.7zm2.7-1.3c.9 0 1.6-.8 1.6-2.2c0-1.3-.7-2.2-1.6-2.2h-.2c-.9 0-1.6.9-1.6 2.2c0 1.4.7 2.2 1.6 2.2h.2zm5.8-.9c0-1.2 1-1.6 1.9-1.7l1.7-.1v-.2c0-1-.5-1.5-1.4-1.5c-.7 0-1.3.3-1.4 1h-.7c.1-1 .9-1.6 2.1-1.6c1.4 0 2.1.9 2.1 2.1v2.3c0 .3 0 .8.1 1.2h-.7v-.9c-.3.5-1 1-2 1c-.9 0-1.7-.7-1.7-1.6zm1.9 1c.8 0 1.7-.7 1.7-1.5v-.7s-1.58.07-1.6.1c-.8 0-1.3.4-1.3 1c0 .6.5 1.1 1.1 1.1h.1zm7.5-5h.8l-2.1 5.5h-.9l-2.1-5.5h.7l1.8 4.8l1.8-4.8zm1.4 4c0-1.2 1-1.6 1.9-1.7l1.7-.1v-.2c0-1-.5-1.5-1.4-1.5c-.7 0-1.3.3-1.4 1h-.7c.1-1 .9-1.6 2.1-1.6c1.4 0 2.1.9 2.1 2.1v2.3c0 .3 0 .8.1 1.2h-.7v-.9c-.3.5-1 1-2 1c-.9 0-1.7-.7-1.7-1.6zm1.9 1c.8 0 1.7-.7 1.7-1.5v-.7s-1.58.07-1.6.1c-.8 0-1.3.4-1.3 1c0 .6.5 1.1 1.1 1.1h.1zm3.9-6v-.9h.9v.9h-.9zm.1 6.5V3.1h.7v5.5h-.7zm2.3 0V.9h.7v7.7h-.7zm2.1-1.5c0-1.2 1-1.6 1.9-1.7l1.7-.1v-.2c0-1-.5-1.5-1.4-1.5c-.7 0-1.3.3-1.4 1h-.7c.1-1 .9-1.6 2.1-1.6c1.4 0 2.1.9 2.1 2.1v2.3c0 .3 0 .8.1 1.2h-.7v-.9c-.3.5-1 1-2 1c-.9 0-1.7-.7-1.7-1.6zm1.9 1c.8 0 1.7-.7 1.7-1.5v-.7s-1.58.07-1.6.1c-.8 0-1.3.4-1.3 1c0 .6.5 1.1 1.1 1.1h.1zm4.7-.4c.02 0 0 .9 0 .9h-.7V.9h.7s.02 3.06 0 3.1c.4-.6 1.1-1 1.9-1c1.4 0 2.4 1.1 2.4 2.8c0 1.8-1 2.9-2.4 2.9c-.8 0-1.5-.4-1.9-1zm1.8.4c1.2 0 1.8-1.1 1.8-2.3c0-1.2-.6-2.2-1.8-2.2c-1.2 0-1.8 1-1.8 2.2c0 1.2.6 2.3 1.8 2.3zm3.9.5V.9h.7v7.7h-.7zm2-2.8c0-1.9 1.2-2.8 2.5-2.8c1.3 0 2.2 1 2.2 2.4c-.02.05 0 .5 0 .5c0 0-3.98-.02-4 0c0 1.5.8 2.2 1.7 2.2h.1c.8 0 1.2-.4 1.5-1.1h.7c-.3 1.1-1.1 1.7-2.2 1.7c-1.4 0-2.5-1-2.5-2.9zm4-.5c-.1-1-.6-1.7-1.5-1.7h-.1c-.7 0-1.5.4-1.7 1.7h3.3zm5.7 3.3c-.7 0-1-.3-1-1c-.05-.01 0-3.9 0-3.9h-1.3v-.6h1.3V1.3h.7v1.8h1.3v.6h-1.3s-.03 3.84 0 3.8c0 .4.1.5.4.5c.01-.02 1.1 0 1.1 0v.6s-1.2-.02-1.2 0zm1.7-2.8c0-1.7 1.1-2.8 2.6-2.8c1.4 0 2.5 1.1 2.5 2.8c0 1.7-1.1 2.9-2.5 2.9c-1.5 0-2.6-1.2-2.6-2.9zm2.6 2.3c1 0 1.8-.9 1.8-2.3c0-1.4-.8-2.2-1.8-2.2h-.1c-1 0-1.7.8-1.7 2.2c0 1.4.7 2.3 1.7 2.3h.1zm5.6-2.3c0-1.9 1.2-2.8 2.4-2.8c1.4 0 2.2 1 2.2 2.4c.04.05 0 .5 0 .5c0 0-3.92-.02-3.9 0c0 1.5.8 2.2 1.7 2.2h.1c.7 0 1.2-.4 1.4-1.1h.7c-.2 1.1-1.1 1.7-2.2 1.7c-1.4 0-2.4-1-2.4-2.9zm3.9-.5c0-1-.6-1.7-1.4-1.7h-.1c-.7 0-1.5.4-1.7 1.7h3.2zm2.1 3.3V3.1h.7s.01.9 0 .9c.3-.6 1-1 1.9-1c1.1 0 2 .7 2 2c-.04-.02 0 3.6 0 3.6h-.8s.05-3.4 0-3.4c0-1.1-.4-1.6-1.3-1.6c-1.2 0-1.8 1-1.8 2.2v2.8h-.7zm5.9-2.8c0-1.6.9-2.8 2.5-2.8c1.2 0 2 .7 2.1 1.8h-.7c-.1-.7-.6-1.2-1.4-1.2h-.1c-1.2 0-1.7 1-1.7 2.2c0 1.2.5 2.3 1.7 2.3h.1c.8 0 1.3-.6 1.4-1.3h.7c-.2 1.2-.9 1.9-2.1 1.9c-1.6 0-2.5-1.3-2.5-2.9zm5.6 0c0-1.7 1.1-2.8 2.5-2.8c1.4 0 2.5 1.1 2.5 2.8c0 1.7-1.1 2.9-2.5 2.9c-1.4 0-2.5-1.2-2.5-2.9zm2.6 2.3c1 0 1.7-.9 1.7-2.3c0-1.4-.7-2.2-1.7-2.2h-.1c-1 0-1.8.8-1.8 2.2c0 1.4.8 2.3 1.8 2.3h.1zm3.7-1.4c.01.01 0-3.6 0-3.6h.7s.02 3.39 0 3.4c0 1 .5 1.6 1.3 1.6h.2c.8 0 1.5-.8 1.5-2.1c.05.05 0-2.9 0-2.9h.8v5.5h-.8s.05-1.05 0-1.1c-.2.8-.9 1.2-1.8 1.2c-1.2 0-1.9-.8-1.9-2zm6.1 1.9V3.1h.6s.05 1.23 0 1.2c.3-.8 1-1.3 1.8-1.3c-.05.03.4 0 .4 0v.7s-.39-.02-.4 0c-1.1 0-1.7.8-1.7 2.2v2.7h-.7zm3.5-1.5c0-1.2 1.1-1.6 1.9-1.7c.02.01 1.8-.1 1.8-.1c0 0-.04-.24 0-.2c0-1-.6-1.5-1.4-1.5h-.1c-.7 0-1.3.3-1.3 1h-.8c.1-1 1-1.6 2.1-1.6c1.5 0 2.2.9 2.2 2.1v3.5h-.6c-.1-.3-.1-.6-.1-.9c-.2.5-1 1-1.9 1c-1 0-1.8-.7-1.8-1.6zm2 1c.7 0 1.7-.7 1.7-1.5c-.04 0 0-.7 0-.7c0 0-1.64.07-1.6.1c-.8 0-1.4.4-1.4 1c0 .6.5 1.1 1.1 1.1h.2zm3.5 1.2h.7c.2.7.8 1.1 1.7 1.1h.1c1 0 1.8-.5 1.8-1.9v-.9c-.3.6-.9 1-1.8 1c-1.4 0-2.4-1-2.4-2.8c0-1.7 1-2.8 2.4-2.8c.9 0 1.5.4 1.8 1c.02-.04 0-.9 0-.9h.7s.04 5.44 0 5.4c0 1.5-.9 2.5-2.5 2.5c-1.6 0-2.4-.7-2.5-1.7zm2.6-1.3c1 0 1.7-.8 1.7-2.2c0-1.3-.7-2.2-1.7-2.2h-.1c-1 0-1.7.9-1.7 2.2c0 1.4.7 2.2 1.7 2.2h.1zm3.8-2.2c0-1.9 1.2-2.8 2.4-2.8c1.4 0 2.2 1 2.2 2.4c.04.05 0 .5 0 .5c0 0-3.92-.02-3.9 0c0 1.5.8 2.2 1.7 2.2h.1c.7 0 1.2-.4 1.4-1.1h.7c-.2 1.1-1.1 1.7-2.2 1.7c-1.4 0-2.4-1-2.4-2.9zm3.9-.5c0-1-.6-1.7-1.4-1.7h-.1c-.7 0-1.5.4-1.7 1.7h3.2z" stroke="none" fill="#192d39"/></g></svg>