<?xml version="1.0" standalone="no"?><!DOCTYPE svg PUBLIC "-//W3C//DTD SVG 1.1//EN" "http://www.w3.org/Graphics/SVG/1.1/DTD/svg11.dtd"><svg xmlns="http://www.w3.org/2000/svg" version="1.1" width="347px" height="128.1px" viewBox="0 -3 347 128.1" style="top:-3px"><desc>Convenience and community lie at the heart of the vision for Trilogy. A beautifully landscaped 3,000sqm central podiu...</desc><defs/><g id="Polygon17436"><path d="m22.5 103.9l-2.9 6.8s.03 1.31 0 1.3c0 .9-.4 1.2-1.3 1.2c0 .03-2.1 0-2.1 0v-.7s1.96-.04 2 0c.4 0 .5-.2.5-.6c.02 0 0-1.2 0-1.2l-2.9-6.8h.9l2.5 5.7l2.4-5.7h.9zm.5 3.5c0-2.2 1.4-3.6 3.2-3.6c1.8 0 3.2 1.4 3.2 3.6c0 2.2-1.4 3.7-3.2 3.7c-1.8 0-3.2-1.5-3.2-3.7zm3.3 2.9c1.3 0 2.2-1.1 2.2-2.9c0-1.8-.9-2.9-2.2-2.9h-.1c-1.3 0-2.3 1.1-2.3 2.9c0 1.8 1 2.9 2.3 2.9h.1zm4.7-1.8c-.02.04 0-4.6 0-4.6h.9s-.01 4.36 0 4.4c0 1.3.6 2 1.7 2h.1c1 0 2-1 2-2.6c.04 0 0-3.8 0-3.8h1v7h-1s.04-1.3 0-1.3c-.3.9-1.1 1.5-2.3 1.5c-1.6 0-2.4-1.1-2.4-2.6zm12.4 2.4c-.9 0-1.3-.3-1.3-1.2c.01-.04 0-5 0-5h-1.6v-.8h1.6v-2.2h.9v2.2h1.8v.8H43s.02 4.89 0 4.9c0 .4.2.6.6.6c-.02-.05 1.4 0 1.4 0v.7s-1.56.02-1.6 0zm2.2-3.5c0-2.2 1.4-3.6 3.2-3.6c1.8 0 3.2 1.4 3.2 3.6c0 2.2-1.4 3.7-3.2 3.7c-1.8 0-3.2-1.5-3.2-3.7zm3.3 2.9c1.2 0 2.2-1.1 2.2-2.9c0-1.8-1-2.9-2.2-2.9h-.2c-1.2 0-2.2 1.1-2.2 2.9c0 1.8 1 2.9 2.2 2.9h.2zm7.4-7.6v-1.2h1v1.2h-1zm0 8.2v-7h1v7h-1zm2.9 0v-7h.9s.04 1.2 0 1.2c.4-.8 1.3-1.3 2.5-1.3c1.4 0 2.4.9 2.4 2.5c.04.04 0 4.6 0 4.6h-.9s.03-4.28 0-4.3c0-1.4-.5-2.1-1.6-2.1h-.1c-1.5 0-2.3 1.4-2.3 2.9c.04.02 0 3.5 0 3.5h-.9zm9.8 0c-.9 0-1.3-.3-1.3-1.2c-.04-.04 0-5 0-5H66v-.8h1.7v-2.2h.9v2.2h1.7v.8h-1.7s-.03 4.89 0 4.9c0 .4.1.6.5.6c.03-.05 1.4 0 1.4 0v.7s-1.51.02-1.5 0zm2.2-3.5c0-2.4 1.5-3.6 3.1-3.6c1.7 0 2.8 1.3 2.8 3.1c.02.03 0 .6 0 .6c0 0-5.02-.01-5 0c0 2 1 2.8 2.2 2.8h.1c.9 0 1.5-.4 1.8-1.4h.9c-.3 1.4-1.4 2.2-2.8 2.2c-1.8 0-3.1-1.3-3.1-3.7zm5-.7c0-1.2-.7-2.2-1.8-2.2h-.2c-.9 0-1.9.6-2.1 2.2h4.1zm2.6 4.2v-7h.8v1.6c.3-1.1 1.2-1.6 2.2-1.6c-.02-.05.6 0 .6 0v.8h-.5c-1.4 0-2.2 1.1-2.2 2.8c-.02.02 0 3.4 0 3.4h-.9zm4.4-1.9c0-1.6 1.3-2 2.4-2.1l2.2-.2s.03-.26 0-.3c0-1.2-.6-1.9-1.7-1.9h-.1c-.9 0-1.6.5-1.7 1.4h-1c.1-1.3 1.2-2.1 2.7-2.1c1.9 0 2.7 1.2 2.7 2.6v3c0 .4 0 1 .1 1.5h-.8c-.1-.3-.1-.7-.1-1.1c-.3.6-1.2 1.3-2.5 1.3c-1.2 0-2.2-.9-2.2-2.1zm2.5 1.3c.9 0 2.1-.9 2.1-1.9c.03 0 0-.9 0-.9l-2 .1c-1 .1-1.7.6-1.7 1.3c0 .8.6 1.4 1.4 1.4h.2zm4.6-2.9c0-2 1.1-3.6 3.2-3.6c1.5 0 2.6.9 2.7 2.4h-.9c-.1-1-.8-1.7-1.7-1.7h-.2c-1.5 0-2.2 1.4-2.2 2.9c0 1.5.7 2.9 2.2 2.9h.2c.9 0 1.5-.7 1.7-1.6h.9c-.2 1.4-1.2 2.4-2.7 2.4c-2.1 0-3.2-1.6-3.2-3.7zm9.6 3.5c-.9 0-1.3-.3-1.3-1.2c-.01-.04 0-5 0-5H97v-.8h1.6v-2.2h.9v2.2h1.7v.8h-1.7v4.9c0 .4.1.6.6.6c-.04-.05 1.4 0 1.4 0v.7s-1.58.02-1.6 0zm2.3 1.6v-.5s.39-.03.4 0c.5 0 .8-.3.8-.9c.03.03 0-.2 0-.2h-.7v-1.4h1.4s-.05 1.7 0 1.7c0 .8-.5 1.3-1.4 1.3c.03.03-.5 0-.5 0zm5.9-.6h.9c.2.9 1 1.3 2.2 1.3h.1c1.2 0 2.3-.7 2.3-2.4v-1.1c-.4.7-1.2 1.2-2.3 1.2c-1.8 0-3-1.2-3-3.5c0-2.2 1.2-3.6 3-3.6c1.1 0 1.9.5 2.3 1.2v-1.1h.9v7c0 1.8-1.2 3.1-3.2 3.1c-2.1 0-3-.9-3.2-2.1zm3.3-1.7c1.3 0 2.2-1 2.2-2.8c0-1.7-.9-2.9-2.2-2.9h-.1c-1.3 0-2.1 1.2-2.1 2.9c0 1.8.8 2.8 2.1 2.8h.1zm4.7-2.8c0-2.4 1.5-3.6 3.2-3.6c1.7 0 2.8 1.3 2.8 3.1v.6H117c.1 2 1.1 2.8 2.2 2.8h.1c1 0 1.6-.4 1.9-1.4h.9c-.3 1.4-1.4 2.2-2.8 2.2c-1.8 0-3.2-1.3-3.2-3.7zm5.1-.7c-.1-1.2-.8-2.2-1.9-2.2h-.1c-.9 0-1.9.6-2.1 2.2h4.1zm4.5 4.2c-.9 0-1.3-.3-1.3-1.2c.01-.04 0-5 0-5h-1.6v-.8h1.6v-2.2h.9v2.2h1.8v.8h-1.8s.02 4.89 0 4.9c0 .4.2.6.6.6c-.02-.05 1.4 0 1.4 0v.7s-1.56.02-1.6 0zm5.1-1.9c0-1.6 1.3-2 2.4-2.1l2.2-.2s.03-.26 0-.3c0-1.2-.6-1.9-1.7-1.9h-.1c-.9 0-1.6.5-1.7 1.4h-1c.1-1.3 1.2-2.1 2.7-2.1c1.9 0 2.7 1.2 2.7 2.6v3c0 .4 0 1 .1 1.5h-.8c-.1-.3-.1-.7-.1-1.1c-.3.6-1.3 1.3-2.5 1.3c-1.2 0-2.2-.9-2.2-2.1zm2.5 1.3c.9 0 2.1-.9 2.1-1.9c.03 0 0-.9 0-.9l-2 .1c-1 .1-1.7.6-1.7 1.3c0 .8.6 1.4 1.4 1.4h.2zm4.6-2.9c0-2 1.1-3.6 3.2-3.6c1.5 0 2.6.9 2.7 2.4h-.9c-.1-1-.8-1.7-1.7-1.7h-.2c-1.5 0-2.2 1.4-2.2 2.9c0 1.5.7 2.9 2.2 2.9h.2c.9 0 1.5-.7 1.7-1.6h.9c-.2 1.4-1.2 2.4-2.7 2.4c-2.1 0-3.2-1.6-3.2-3.7zm9.6 3.5c-.9 0-1.3-.3-1.3-1.2c-.01-.04 0-5 0-5h-1.6v-.8h1.6v-2.2h.9v2.2h1.7v.8h-1.7v4.9c0 .4.1.6.6.6c-.04-.05 1.4 0 1.4 0v.7s-1.58.02-1.6 0zm2.7-8.2v-1.2h1.1v1.2h-1.1zm.1 8.2v-7h.9v7h-.9zm7.7-7h.9l-2.7 7h-1.1l-2.7-7h1l2.3 6.2l2.3-6.2zm1.5 3.5c0-2.4 1.5-3.6 3.1-3.6c1.7 0 2.8 1.3 2.8 3.1c.05.03 0 .6 0 .6c0 0-4.99-.01-5 0c0 2 1.1 2.8 2.2 2.8h.1c.9 0 1.6-.4 1.8-1.4h.9c-.3 1.4-1.3 2.2-2.8 2.2c-1.7 0-3.1-1.3-3.1-3.7zm5-.7c0-1.2-.7-2.2-1.8-2.2h-.2c-.8 0-1.9.6-2.1 2.2h4.1zm4.9.7c0-2.2 1.4-3.6 3.2-3.6c1.8 0 3.2 1.4 3.2 3.6c0 2.2-1.4 3.7-3.2 3.7c-1.8 0-3.2-1.5-3.2-3.7zm3.3 2.9c1.2 0 2.2-1.1 2.2-2.9c0-1.8-1-2.9-2.2-2.9h-.2c-1.2 0-2.2 1.1-2.2 2.9c0 1.8 1 2.9 2.2 2.9h.2zm4.7.6v-7h.8s.04 1.62 0 1.6c.4-1.1 1.2-1.6 2.2-1.6c.01-.05.6 0 .6 0v.8h-.5c-1.4 0-2.2 1.1-2.2 2.8c.01.02 0 3.4 0 3.4h-.9zm7-2.1h.9c.1 1 .8 1.5 1.8 1.5h.1c1 0 1.6-.5 1.6-1.3c0-.5-.3-.8-1.2-1l-1-.3c-1.1-.2-1.9-.7-1.9-1.9c0-1.3 1.1-2 2.5-2c1.7 0 2.5 1.1 2.6 2.2h-.9c-.1-.8-.7-1.5-1.7-1.5h-.1c-1 0-1.5.6-1.5 1.3c0 .6.4.9 1.3 1.1l1 .2c1 .2 1.8.7 1.8 1.9c0 1.3-1 2.1-2.5 2.1c-1.8 0-2.7-1-2.8-2.3zm6.9-6.1v-1.2h1.1v1.2h-1.1zm.1 8.2v-7h.9v7h-.9zm2.9 0v-7h.9s.02 1.14 0 1.1c.4-.7 1.3-1.2 2.3-1.2c1.1 0 1.9.5 2.2 1.4c.5-.9 1.4-1.4 2.5-1.4c1.4 0 2.4.9 2.4 2.5v4.6h-.9v-4.3c0-1.4-.5-2.1-1.6-2.1h-.1c-1.4 0-2.1 1.4-2.1 2.9v3.5h-.9v-4.3c0-1.4-.5-2.1-1.6-2.1h-.1c-1.4 0-2.1 1.4-2.1 2.9c.02.02 0 3.5 0 3.5h-.9zm12.3 2.8v-9.8h.9s-.03 1.14 0 1.1c.4-.7 1.4-1.2 2.3-1.2c1.8 0 3.1 1.4 3.1 3.6c0 2.3-1.3 3.7-3.1 3.7c-.9 0-1.9-.5-2.3-1.3c-.03 0 0 3.9 0 3.9h-.9zm3.2-3.4c1.5 0 2.2-1.4 2.2-2.9c0-1.5-.7-2.9-2.2-2.9h-.1c-1.5 0-2.2 1.4-2.2 2.9c0 1.5.7 2.9 2.2 2.9h.1zm4.8.6v-9.8h.9v9.8h-.9zm8.9-7l-2.9 6.8v1.3c0 .9-.4 1.2-1.3 1.2c-.03.03-2.2 0-2.2 0v-.7s2.03-.04 2 0c.5 0 .6-.2.6-.6v-1.2l-3-6.8h1l2.4 5.7l2.4-5.7h1zm3.8 7v-7h.9s-.04 1.62 0 1.6c.3-1.1 1.2-1.6 2.1-1.6c.03-.05.7 0 .7 0v.8h-.6c-1.3 0-2.2 1.1-2.2 2.8c.03.02 0 3.4 0 3.4h-.9zm4.3-3.5c0-2.4 1.5-3.6 3.1-3.6c1.7 0 2.8 1.3 2.8 3.1c.05.03 0 .6 0 .6c0 0-4.99-.01-5 0c0 2 1.1 2.8 2.2 2.8h.1c.9 0 1.6-.4 1.8-1.4h.9c-.3 1.4-1.3 2.2-2.8 2.2c-1.7 0-3.1-1.3-3.1-3.7zm5-.7c0-1.2-.7-2.2-1.8-2.2h-.2c-.8 0-1.9.6-2.1 2.2h4.1zm2.6 4.2v-9.8h.9v9.8h-.9zm2.6-1.9c0-1.6 1.3-2 2.4-2.1c-.04-.01 2.2-.2 2.2-.2c0 0-.02-.26 0-.3c0-1.2-.7-1.9-1.8-1.9c-.9 0-1.7.5-1.8 1.4h-.9c.1-1.3 1.2-2.1 2.7-2.1c1.8 0 2.7 1.2 2.7 2.6v3c0 .4 0 1 .1 1.5h-.9c0-.3-.1-.7-.1-1.1c-.2.6-1.2 1.3-2.4 1.3c-1.3 0-2.2-.9-2.2-2.1zm2.4 1.3c1 0 2.2-.9 2.2-1.9c-.02 0 0-.9 0-.9l-2.1.1c-.9.1-1.6.6-1.6 1.3c0 .8.6 1.4 1.4 1.4h.1zm4.3.6l2.7-3.5l-2.6-3.5h1.1l2.1 2.8l2-2.8h1.1l-2.6 3.4l2.7 3.6h-1.1l-2.2-2.9l-2.2 2.9h-1zm10-1.9c0-1.6 1.3-2 2.4-2.1c-.02-.01 2.2-.2 2.2-.2v-.3c0-1.2-.7-1.9-1.8-1.9c-.9 0-1.7.5-1.8 1.4h-.9c.1-1.3 1.2-2.1 2.7-2.1c1.8 0 2.7 1.2 2.7 2.6v3c0 .4 0 1 .1 1.5h-.9v-1.1c-.3.6-1.3 1.3-2.5 1.3c-1.2 0-2.2-.9-2.2-2.1zm2.4 1.3c1 0 2.2-.9 2.2-1.9c-.01 0 0-.9 0-.9l-2 .1c-1 .1-1.7.6-1.7 1.3c0 .8.6 1.4 1.4 1.4h.1zm5 .6v-7h.9s.05 1.2 0 1.2c.5-.8 1.4-1.3 2.5-1.3c1.4 0 2.4.9 2.4 2.5c.05.04 0 4.6 0 4.6h-.9s.04-4.28 0-4.3c0-1.4-.5-2.1-1.6-2.1h-.1c-1.5 0-2.3 1.4-2.3 2.9c.05.02 0 3.5 0 3.5h-.9zm7.4-3.5c0-2.2 1.3-3.6 3.1-3.6c1 0 2 .5 2.4 1.2c-.02.04 0-3.9 0-3.9h.9v9.8h-.9s-.02-1.1 0-1.1c-.4.8-1.4 1.3-2.4 1.3c-1.8 0-3.1-1.4-3.1-3.7zm3.2 2.9c1.6 0 2.3-1.4 2.3-2.9c0-1.5-.7-2.9-2.3-2.9c-1.5 0-2.3 1.4-2.3 2.9c0 1.5.8 2.9 2.3 2.9zm7.9-1.8c-.02.04 0-4.6 0-4.6h.9s-.01 4.36 0 4.4c0 1.3.5 2 1.7 2h.1c1 0 2-1 2-2.6c.04 0 0-3.8 0-3.8h.9v7h-.9s.04-1.3 0-1.3c-.3.9-1.2 1.5-2.3 1.5c-1.6 0-2.4-1.1-2.4-2.6zm7.6 2.4v-7h1s-.05 1.2 0 1.2c.4-.8 1.3-1.3 2.4-1.3c1.4 0 2.5.9 2.5 2.5c-.05.04 0 4.6 0 4.6h-1s.04-4.28 0-4.3c0-1.4-.5-2.1-1.6-2.1h-.1c-1.5 0-2.2 1.4-2.2 2.9c-.05.02 0 3.5 0 3.5h-1zm16-7h.9l-2.2 7h-1.3l-1.5-6l-1.6 6h-1.2l-2.3-7h1l1.9 6.2l1.6-6.2h1.1l1.7 6.3l1.9-6.3zm2.1-1.2v-1.2h1.1v1.2h-1.1zm.1 8.2v-7h.9v7h-.9zm2.9 0v-7h.9s-.03 1.2 0 1.2c.4-.8 1.3-1.3 2.4-1.3c1.4 0 2.5.9 2.5 2.5c-.03.04 0 4.6 0 4.6h-.9s-.04-4.28 0-4.3c0-1.4-.6-2.1-1.7-2.1h-.1c-1.5 0-2.2 1.4-2.2 2.9c-.03.02 0 3.5 0 3.5h-.9zm7.3-3.5c0-2.2 1.3-3.6 3.2-3.6c.9 0 1.9.5 2.3 1.2v-3.9h.9v9.8h-.9v-1.1c-.4.8-1.4 1.3-2.3 1.3c-1.9 0-3.2-1.4-3.2-3.7zm3.3 2.9c1.5 0 2.2-1.4 2.2-2.9c0-1.5-.7-2.9-2.2-2.9h-.1c-1.5 0-2.2 1.4-2.2 2.9c0 1.5.7 2.9 2.2 2.9h.1zm5.1.6v-1.4h1.4v1.4h-1.4z" stroke="none" fill="#192d39"/></g><g id="Polygon17435"><path d="m7.8 87.4c0-2 1.1-3.6 3.2-3.6c1.5 0 2.6.9 2.7 2.4h-.9c-.1-1-.8-1.7-1.7-1.7h-.2c-1.5 0-2.2 1.4-2.2 2.9c0 1.5.7 2.9 2.2 2.9h.2c.9 0 1.5-.7 1.7-1.6h.9c-.2 1.4-1.2 2.4-2.7 2.4c-2.1 0-3.2-1.6-3.2-3.7zm7.1 0c0-2.2 1.4-3.6 3.2-3.6c1.8 0 3.2 1.4 3.2 3.6c0 2.2-1.4 3.7-3.2 3.7c-1.8 0-3.2-1.5-3.2-3.7zm3.3 2.9c1.2 0 2.2-1.1 2.2-2.9c0-1.8-1-2.9-2.2-2.9h-.2c-1.2 0-2.2 1.1-2.2 2.9c0 1.8 1 2.9 2.2 2.9h.2zm4.7.6v-7h.9s.02 1.14 0 1.1c.4-.7 1.3-1.2 2.3-1.2c1.1 0 1.9.5 2.2 1.4c.5-.9 1.4-1.4 2.5-1.4c1.4 0 2.4.9 2.4 2.5v4.6h-.9v-4.3c0-1.4-.5-2.1-1.6-2.1h-.1c-1.4 0-2.1 1.4-2.1 2.9v3.5h-.9v-4.3c0-1.4-.5-2.1-1.6-2.1h-.1c-1.4 0-2.1 1.4-2.1 2.9c.02.02 0 3.5 0 3.5h-.9zm12.3 0v-7h.9s-.02 1.14 0 1.1c.4-.7 1.2-1.2 2.3-1.2c1 0 1.9.5 2.2 1.4c.5-.9 1.3-1.4 2.5-1.4c1.3 0 2.4.9 2.4 2.5c-.04.04 0 4.6 0 4.6h-1s.05-4.28 0-4.3c0-1.4-.5-2.1-1.6-2.1c-1.5 0-2.1 1.4-2.1 2.9c-.03.02 0 3.5 0 3.5h-.9s-.04-4.28 0-4.3c0-1.4-.6-2.1-1.7-2.1c-1.5 0-2.1 1.4-2.1 2.9c-.02.02 0 3.5 0 3.5h-.9zm12.2-2.4c-.05.04 0-4.6 0-4.6h.9s-.04 4.36 0 4.4c0 1.3.5 2 1.6 2h.2c1 0 2-1 2-2.6v-3.8h.9v7h-.9v-1.3c-.4.9-1.2 1.5-2.3 1.5c-1.6 0-2.4-1.1-2.4-2.6zm7.6 2.4v-7h.9s.02 1.2 0 1.2c.4-.8 1.3-1.3 2.5-1.3c1.4 0 2.4.9 2.4 2.5c.02.04 0 4.6 0 4.6h-.9s.02-4.28 0-4.3c0-1.4-.5-2.1-1.7-2.1c-1.6 0-2.3 1.4-2.3 2.9c.02.02 0 3.5 0 3.5h-.9zm7.7-8.2v-1.2h1v1.2h-1zm.1 8.2v-7h.9v7h-.9zm5 0c-.9 0-1.3-.3-1.3-1.2c-.03-.04 0-5 0-5h-1.6v-.8h1.6v-2.2h.9v2.2h1.7v.8h-1.7s-.02 4.89 0 4.9c0 .4.1.6.5.6c.04-.05 1.4 0 1.4 0v.7s-1.5.02-1.5 0zm9-7l-2.9 6.8s.05 1.31 0 1.3c0 .9-.4 1.2-1.3 1.2c.02.03-2.1 0-2.1 0v-.7s1.98-.04 2 0c.4 0 .5-.2.5-.6c.04 0 0-1.2 0-1.2l-2.9-6.8h1l2.4 5.7l2.4-5.7h.9zm3.3 8h.9c.2.9 1 1.3 2.2 1.3h.1c1.2 0 2.3-.7 2.3-2.4v-1.1c-.4.7-1.2 1.2-2.3 1.2c-1.8 0-3.1-1.2-3.1-3.5c0-2.2 1.3-3.6 3.1-3.6c1.1 0 1.9.5 2.3 1.2c-.01.04 0-1.1 0-1.1h.9v7c0 1.8-1.2 3.1-3.2 3.1c-2.1 0-3.1-.9-3.2-2.1zm3.3-1.7c1.3 0 2.2-1 2.2-2.8c0-1.7-.9-2.9-2.2-2.9h-.1c-1.3 0-2.1 1.2-2.1 2.9c0 1.8.8 2.8 2.1 2.8h.1zm4.7-1.2c0-1.6 1.4-2 2.4-2.1l2.3-.2s-.04-.26 0-.3c0-1.2-.7-1.9-1.8-1.9h-.1c-.9 0-1.6.5-1.7 1.4h-.9c.1-1.3 1.2-2.1 2.7-2.1c1.8 0 2.7 1.2 2.7 2.6v4.5h-.8c-.1-.3-.1-.7-.1-1.1c-.3.6-1.2 1.3-2.5 1.3c-1.2 0-2.2-.9-2.2-2.1zm2.5 1.3c1 0 2.2-.9 2.2-1.9c-.04 0 0-.9 0-.9l-2.1.1c-1 .1-1.7.6-1.7 1.3c0 .8.6 1.4 1.4 1.4h.2zm5 .6v-7h.8s.04 1.62 0 1.6c.4-1.1 1.2-1.6 2.2-1.6c.01-.05.6 0 .6 0v.8h-.5c-1.4 0-2.2 1.1-2.2 2.8c.01.02 0 3.4 0 3.4h-.9zm4.3-3.5c0-2.2 1.3-3.6 3.1-3.6c.9 0 1.9.5 2.3 1.2c.04.04 0-3.9 0-3.9h.9v9.8h-.9s.04-1.1 0-1.1c-.4.8-1.4 1.3-2.3 1.3c-1.8 0-3.1-1.4-3.1-3.7zm3.2 2.9c1.5 0 2.2-1.4 2.2-2.9c0-1.5-.7-2.9-2.2-2.9h-.1c-1.5 0-2.2 1.4-2.2 2.9c0 1.5.7 2.9 2.2 2.9h.1zm4.8-2.9c0-2.4 1.5-3.6 3.1-3.6c1.7 0 2.8 1.3 2.8 3.1c.02.03 0 .6 0 .6c0 0-5.02-.01-5 0c0 2 1 2.8 2.2 2.8h.1c.9 0 1.5-.4 1.8-1.4h.9c-.3 1.4-1.4 2.2-2.8 2.2c-1.8 0-3.1-1.3-3.1-3.7zm5-.7c0-1.2-.7-2.2-1.8-2.2h-.2c-.9 0-1.9.6-2.1 2.2h4.1zm2.6 4.2v-7h.9v1.2c.4-.8 1.3-1.3 2.4-1.3c1.4 0 2.5.9 2.5 2.5v4.6h-.9s-.02-4.28 0-4.3c0-1.4-.6-2.1-1.7-2.1h-.1c-1.5 0-2.2 1.4-2.2 2.9v3.5h-.9zm10.1-1.9c0-1.6 1.3-2 2.4-2.1c-.02-.01 2.2-.2 2.2-.2v-.3c0-1.2-.7-1.9-1.8-1.9c-.9 0-1.7.5-1.8 1.4h-.9c.1-1.3 1.2-2.1 2.7-2.1c1.8 0 2.7 1.2 2.7 2.6v3c0 .4 0 1 .1 1.5h-.9v-1.1c-.3.6-1.3 1.3-2.5 1.3c-1.2 0-2.2-.9-2.2-2.1zm2.4 1.3c1 0 2.2-.9 2.2-1.9c-.01 0 0-.9 0-.9l-2 .1c-1 .1-1.7.6-1.7 1.3c0 .8.6 1.4 1.4 1.4h.1zm5 .6v-7h.9s.05 1.2 0 1.2c.5-.8 1.3-1.3 2.5-1.3c1.4 0 2.4.9 2.4 2.5c.05.04 0 4.6 0 4.6h-.9s.04-4.28 0-4.3c0-1.4-.5-2.1-1.6-2.1h-.1c-1.5 0-2.3 1.4-2.3 2.9c.05.02 0 3.5 0 3.5h-.9zm7.4-3.5c0-2.2 1.3-3.6 3.1-3.6c.9 0 2 .5 2.4 1.2c-.02.04 0-3.9 0-3.9h.9v9.8h-.9s-.02-1.1 0-1.1c-.4.8-1.5 1.3-2.4 1.3c-1.8 0-3.1-1.4-3.1-3.7zm3.2 2.9c1.5 0 2.3-1.4 2.3-2.9c0-1.5-.8-2.9-2.3-2.9c-1.5 0-2.3 1.4-2.3 2.9c0 1.5.8 2.9 2.3 2.9zm7.5-1.3c0-1.6 1.4-2 2.4-2.1l2.3-.2s-.04-.26 0-.3c0-1.2-.7-1.9-1.8-1.9h-.1c-.9 0-1.6.5-1.7 1.4h-.9c.1-1.3 1.2-2.1 2.7-2.1c1.8 0 2.7 1.2 2.7 2.6v4.5h-.8c-.1-.3-.1-.7-.1-1.1c-.2.6-1.2 1.3-2.4 1.3c-1.3 0-2.3-.9-2.3-2.1zm2.5 1.3c1 0 2.2-.9 2.2-1.9c-.04 0 0-.9 0-.9l-2.1.1c-1 .1-1.7.6-1.7 1.3c0 .8.7 1.4 1.5 1.4h.1zm5 .6v-7h.9s.02 1.2 0 1.2c.4-.8 1.3-1.3 2.5-1.3c1.4 0 2.4.9 2.4 2.5c.02.04 0 4.6 0 4.6h-.9v-4.3c0-1.4-.6-2.1-1.7-2.1h-.1c-1.5 0-2.2 1.4-2.2 2.9c.02.02 0 3.5 0 3.5h-.9zm10.1-3.5c0-2.2 1.4-3.6 3.2-3.6c1.8 0 3.2 1.4 3.2 3.6c0 2.2-1.4 3.7-3.2 3.7c-1.8 0-3.2-1.5-3.2-3.7zm3.3 2.9c1.2 0 2.2-1.1 2.2-2.9c0-1.8-1-2.9-2.2-2.9h-.2c-1.2 0-2.2 1.1-2.2 2.9c0 1.8 1 2.9 2.2 2.9h.2zm4.7-1.8c-.05.04 0-4.6 0-4.6h.9s-.04 4.36 0 4.4c0 1.3.5 2 1.6 2h.2c1 0 2-1 2-2.6v-3.8h.9v7h-.9v-1.3c-.4.9-1.2 1.5-2.3 1.5c-1.6 0-2.4-1.1-2.4-2.6zm9.8 2.4c-.9 0-1.4-.3-1.4-1.2c.03-.04 0-5 0-5h-1.6v-.8h1.6v-2.2h.9v2.2h1.8v.8H186s.04 4.89 0 4.9c0 .4.2.6.6.6c0-.05 1.4 0 1.4 0v.7s-1.54.02-1.5 0zm2.1-3.5c0-2.2 1.3-3.6 3.2-3.6c.9 0 1.9.5 2.3 1.2v-3.9h.9v9.8h-.9v-1.1c-.4.8-1.4 1.3-2.3 1.3c-1.9 0-3.2-1.4-3.2-3.7zm3.3 2.9c1.5 0 2.2-1.4 2.2-2.9c0-1.5-.7-2.9-2.2-2.9h-.1c-1.5 0-2.2 1.4-2.2 2.9c0 1.5.7 2.9 2.2 2.9h.1zm4.7-2.9c0-2.2 1.4-3.6 3.2-3.6c1.8 0 3.2 1.4 3.2 3.6c0 2.2-1.4 3.7-3.2 3.7c-1.8 0-3.2-1.5-3.2-3.7zm3.3 2.9c1.3 0 2.2-1.1 2.2-2.9c0-1.8-.9-2.9-2.2-2.9h-.1c-1.3 0-2.3 1.1-2.3 2.9c0 1.8 1 2.9 2.3 2.9h.1zm4.4-2.9c0-2.2 1.4-3.6 3.2-3.6c1.8 0 3.2 1.4 3.2 3.6c0 2.2-1.4 3.7-3.2 3.7c-1.8 0-3.2-1.5-3.2-3.7zm3.3 2.9c1.2 0 2.2-1.1 2.2-2.9c0-1.8-1-2.9-2.2-2.9h-.2c-1.2 0-2.2 1.1-2.2 2.9c0 1.8 1 2.9 2.2 2.9h.2zm4.7.6v-7h.8s.04 1.62 0 1.6c.4-1.1 1.2-1.6 2.2-1.6c.01-.05.6 0 .6 0v.8h-.5c-1.4 0-2.2 1.1-2.2 2.8c.01.02 0 3.4 0 3.4h-.9zm8.3 0v-6.2H219v-.8h1.6s.02-1.52 0-1.5c0-.9.4-1.3 1.3-1.3c.05.02 1.8 0 1.8 0v.8h-1.6c-.4 0-.6.1-.6.5c.03.05 0 1.5 0 1.5h4.7v7h-.9v-6.2h-3.8v6.2h-.9zm4.6-8.2v-1.2h1.1v1.2h-1.1zm5.2 8.2c-.9 0-1.3-.3-1.3-1.2c-.04-.04 0-5 0-5h-1.6v-.8h1.6v-2.2h.9v2.2h1.7v.8H230s-.03 4.89 0 4.9c0 .4.1.6.5.6c.03-.05 1.4 0 1.4 0v.7s-1.51.02-1.5 0zm2.8 0v-7h.9s-.02 1.2 0 1.2c.4-.8 1.3-1.3 2.4-1.3c1.4 0 2.5.9 2.5 2.5c-.02.04 0 4.6 0 4.6h-.9s-.03-4.28 0-4.3c0-1.4-.6-2.1-1.7-2.1h-.1c-1.5 0-2.2 1.4-2.2 2.9c-.02.02 0 3.5 0 3.5h-.9zm7.3-3.5c0-2.4 1.6-3.6 3.2-3.6c1.7 0 2.8 1.3 2.8 3.1v.6s-5.05-.01-5 0c0 2 1 2.8 2.2 2.8c1 0 1.6-.4 1.9-1.4h.9c-.3 1.4-1.4 2.2-2.8 2.2c-1.8 0-3.2-1.3-3.2-3.7zm5.1-.7c-.1-1.2-.8-2.2-1.9-2.2h-.1c-.9 0-1.9.6-2.1 2.2h4.1zm2.1 2.1h.9c.1 1 .8 1.5 1.8 1.5h.1c1 0 1.6-.5 1.6-1.3c0-.5-.3-.8-1.2-1l-1-.3c-1.1-.2-2-.7-2-1.9c0-1.3 1.2-2 2.6-2c1.7 0 2.5 1.1 2.6 2.2h-.9c-.1-.8-.7-1.5-1.7-1.5h-.1c-1 0-1.5.6-1.5 1.3c0 .6.3.9 1.2 1.1l1.1.2c1 .2 1.8.7 1.8 1.9c0 1.3-1 2.1-2.5 2.1c-1.9 0-2.8-1-2.8-2.3zm6.5 0h.9c.1 1 .9 1.5 1.8 1.5h.2c1 0 1.6-.5 1.6-1.3c0-.5-.3-.8-1.3-1l-1-.3c-1-.2-1.9-.7-1.9-1.9c0-1.3 1.2-2 2.5-2c1.8 0 2.6 1.1 2.6 2.2h-.9c-.1-.8-.7-1.5-1.6-1.5h-.2c-.9 0-1.5.6-1.5 1.3c0 .6.4.9 1.3 1.1l1.1.2c1 .2 1.8.7 1.8 1.9c0 1.3-1.1 2.1-2.6 2.1c-1.8 0-2.7-1-2.8-2.3zm9.2 0h.9c.1 1 .9 1.5 1.8 1.5h.2c1 0 1.6-.5 1.6-1.3c0-.5-.3-.8-1.3-1l-1-.3c-1-.2-1.9-.7-1.9-1.9c0-1.3 1.2-2 2.5-2c1.8 0 2.6 1.1 2.6 2.2h-.9c-.1-.8-.7-1.5-1.6-1.5h-.2c-.9 0-1.5.6-1.5 1.3c0 .6.4.9 1.3 1.1l1.1.2c1 .2 1.8.7 1.8 1.9c0 1.3-1.1 2.1-2.6 2.1c-1.8 0-2.7-1-2.8-2.3zm9.2 2.1c-.9 0-1.3-.3-1.3-1.2c-.03-.04 0-5 0-5h-1.6v-.8h1.6v-2.2h.9v2.2h1.7v.8h-1.7s-.02 4.89 0 4.9c0 .4.1.6.5.6c.04-.05 1.4 0 1.4 0v.7s-1.5.02-1.5 0zM275 89c0-1.6 1.4-2 2.5-2.1c-.04-.01 2.2-.2 2.2-.2c0 0-.03-.26 0-.3c0-1.2-.7-1.9-1.8-1.9h-.1c-.8 0-1.6.5-1.7 1.4h-.9c.1-1.3 1.2-2.1 2.7-2.1c1.8 0 2.7 1.2 2.7 2.6v4.5h-.8c0-.3-.1-.7-.1-1.1c-.2.6-1.2 1.3-2.4 1.3c-1.3 0-2.3-.9-2.3-2.1zm2.5 1.3c1 0 2.2-.9 2.2-1.9c-.03 0 0-.9 0-.9l-2.1.1c-1 .1-1.6.6-1.6 1.3c0 .8.6 1.4 1.4 1.4h.1zm7 .6c-.9 0-1.4-.3-1.4-1.2c.05-.04 0-5 0-5h-1.6v-.8h1.6v-2.2h1v2.2h1.7v.8h-1.7s-.04 4.89 0 4.9c0 .4.1.6.5.6c.02-.05 1.4 0 1.4 0v.7s-1.52.02-1.5 0zm2.7-8.2v-1.2h1v1.2h-1zm.1 8.2v-7h.9v7h-.9zm2.4-3.5c0-2.2 1.4-3.6 3.3-3.6c1.8 0 3.2 1.4 3.2 3.6c0 2.2-1.4 3.7-3.2 3.7c-1.9 0-3.3-1.5-3.3-3.7zm3.3 2.9c1.3 0 2.2-1.1 2.2-2.9c0-1.8-.9-2.9-2.2-2.9h-.1c-1.3 0-2.2 1.1-2.2 2.9c0 1.8.9 2.9 2.2 2.9h.1zm4.8.6v-7h.9s-.02 1.2 0 1.2c.4-.8 1.3-1.3 2.4-1.3c1.4 0 2.5.9 2.5 2.5c-.02.04 0 4.6 0 4.6h-.9s-.03-4.28 0-4.3c0-1.4-.6-2.1-1.7-2.1h-.1c-1.5 0-2.2 1.4-2.2 2.9c-.02.02 0 3.5 0 3.5h-.9zm10.4-8.2v-1.2h1v1.2h-1zm.1 8.2v-7h.9v7h-.9zm2.9 0v-7h.9s-.03 1.2 0 1.2c.4-.8 1.3-1.3 2.4-1.3c1.4 0 2.5.9 2.5 2.5c-.03.04 0 4.6 0 4.6h-.9s-.04-4.28 0-4.3c0-1.4-.6-2.1-1.7-2.1h-.1c-1.5 0-2.2 1.4-2.2 2.9c-.03.02 0 3.5 0 3.5h-.9zm12.2-7h1l-2.7 7h-1.1l-2.7-7h.9l2.3 6.2l2.3-6.2zm2.1-1.2v-1.2h1.1v1.2h-1.1zm.1 8.2v-7h.9v7h-.9zm5 0c-.9 0-1.3-.3-1.3-1.2c.01-.04 0-5 0-5h-1.6v-.8h1.6v-2.2h.9v2.2h1.8v.8h-1.8s.02 4.89 0 4.9c0 .4.2.6.6.6c-.02-.05 1.4 0 1.4 0v.7s-1.56.02-1.6 0zm2.2-3.5c0-2.4 1.5-3.6 3.1-3.6c1.8 0 2.9 1.3 2.9 3.1c-.03.03 0 .6 0 .6h-5.1c.1 2 1.1 2.8 2.2 2.8h.1c1 0 1.6-.4 1.9-1.4h.9c-.3 1.4-1.4 2.2-2.9 2.2c-1.7 0-3.1-1.3-3.1-3.7zm5.1-.7c-.1-1.2-.8-2.2-1.9-2.2h-.1c-.9 0-1.9.6-2.1 2.2h4.1z" stroke="none" fill="#192d39"/></g><g id="Polygon17434"><path d="m14 73.7v-9.8h.9s.03 1.14 0 1.1c.5-.7 1.5-1.2 2.4-1.2c1.8 0 3.1 1.4 3.1 3.6c0 2.3-1.3 3.7-3.1 3.7c-.9 0-1.9-.5-2.4-1.3c.03 0 0 3.9 0 3.9h-.9zm3.2-3.4c1.5 0 2.3-1.4 2.3-2.9c0-1.5-.8-2.9-2.3-2.9c-1.5 0-2.3 1.4-2.3 2.9c0 1.5.8 2.9 2.3 2.9zm4.8.6v-7h.9s-.04 1.62 0 1.6c.3-1.1 1.2-1.6 2.1-1.6c.03-.05.7 0 .7 0v.8h-.6c-1.3 0-2.2 1.1-2.2 2.8c.03.02 0 3.4 0 3.4h-.9zm4.3-3.5c0-2.4 1.5-3.6 3.1-3.6c1.7 0 2.8 1.3 2.8 3.1c.05.03 0 .6 0 .6c0 0-4.99-.01-5 0c0 2 1.1 2.8 2.2 2.8h.1c.9 0 1.6-.4 1.8-1.4h.9c-.3 1.4-1.4 2.2-2.8 2.2c-1.7 0-3.1-1.3-3.1-3.7zm5-.7c0-1.2-.7-2.2-1.8-2.2h-.2c-.8 0-1.9.6-2.1 2.2h4.1zm2.2.7c0-2 1.2-3.6 3.2-3.6c1.6 0 2.6.9 2.8 2.4h-.9c-.2-1-.8-1.7-1.8-1.7h-.1c-1.6 0-2.3 1.4-2.3 2.9c0 1.5.7 2.9 2.3 2.9h.1c1 0 1.6-.7 1.8-1.6h.9c-.3 1.4-1.2 2.4-2.8 2.4c-2 0-3.2-1.6-3.2-3.7zm7.5-4.7v-1.2h1v1.2h-1zm0 8.2v-7h.9v7h-.9zm2.9 0v-7h.9s.03 1.2 0 1.2c.4-.8 1.3-1.3 2.5-1.3c1.4 0 2.4.9 2.4 2.5c.03.04 0 4.6 0 4.6h-.9s.03-4.28 0-4.3c0-1.4-.5-2.1-1.7-2.1c-1.6 0-2.3 1.4-2.3 2.9c.03.02 0 3.5 0 3.5h-.9zm7.4-3.5c0-2 1.2-3.6 3.2-3.6c1.5 0 2.6.9 2.8 2.4h-1c-.1-1-.8-1.7-1.7-1.7h-.1c-1.6 0-2.3 1.4-2.3 2.9c0 1.5.7 2.9 2.3 2.9h.1c.9 0 1.6-.7 1.7-1.6h1c-.3 1.4-1.3 2.4-2.8 2.4c-2 0-3.2-1.6-3.2-3.7zm9.7 3.5c-1 0-1.4-.3-1.4-1.2c.03-.04 0-5 0-5H58v-.8h1.6v-2.2h.9v2.2h1.8v.8h-1.8s.03 4.89 0 4.9c0 .4.2.6.6.6c-.01-.05 1.4 0 1.4 0v.7s-1.55.02-1.5 0zm2.2 1.6v-.5s.42-.03.4 0c.6 0 .9-.3.9-.9c-.04.03 0-.2 0-.2h-.8v-1.4h1.4s-.01 1.7 0 1.7c0 .8-.5 1.3-1.3 1.3c-.04.03-.6 0-.6 0zm14.9-8.6h.9l-2.2 7h-1.3l-1.5-6l-1.6 6h-1.2l-2.3-7h1l1.9 6.2l1.6-6.2h1.1l1.7 6.3l1.9-6.3zm2.2 7v-9.8h.9s-.03 4.01 0 4c.4-.8 1.3-1.3 2.5-1.3c1.5 0 2.4 1 2.4 2.5c-.03 0 0 4.6 0 4.6h-.9s-.04-4.32 0-4.3c0-1.4-.6-2.1-1.7-2.1h-.2c-1 0-2.1 1-2.1 2.6c-.03.04 0 3.8 0 3.8h-.9zm7.3-3.5c0-2.4 1.6-3.6 3.2-3.6c1.7 0 2.8 1.3 2.8 3.1v.6s-5.05-.01-5 0c0 2 1 2.8 2.2 2.8c1 0 1.6-.4 1.9-1.4h.9c-.3 1.4-1.4 2.2-2.8 2.2c-1.8 0-3.2-1.3-3.2-3.7zm5.1-.7c-.1-1.2-.8-2.2-1.9-2.2h-.1c-.9 0-1.9.6-2.1 2.2h4.1zm2.5 4.2v-7h.9s-.02 1.62 0 1.6c.3-1.1 1.2-1.6 2.2-1.6c-.05-.05.6 0 .6 0v.8h-.6c-1.3 0-2.1 1.1-2.1 2.8c-.05.02 0 3.4 0 3.4h-1zm4.3-3.5c0-2.4 1.5-3.6 3.1-3.6c1.8 0 2.9 1.3 2.9 3.1c-.03.03 0 .6 0 .6h-5.1c.1 2 1.1 2.8 2.2 2.8h.1c1 0 1.6-.4 1.8-1.4h1c-.4 1.4-1.4 2.2-2.9 2.2c-1.7 0-3.1-1.3-3.1-3.7zm5.1-.7c-.1-1.2-.8-2.2-1.9-2.2h-.1c-.9 0-1.9.6-2.1 2.2h4.1zm5.5 4.2v-9.8s4.05.02 4.1 0c1.5 0 2.7 1 2.7 2.6c0 1.1-.8 2-1.6 2.2c.8.2 1.8.8 1.8 2.3c0 1.7-1.3 2.7-2.9 2.7c.05.02-4.1 0-4.1 0zm.9-5.4h3.1c1 0 1.8-.6 1.8-1.7c0-1.2-.8-1.8-1.8-1.8c-.05.03-3.1 0-3.1 0v3.5zm0 4.5h3c1.2 0 2.1-.6 2.1-1.8c0-1.2-.9-1.8-2-1.8H111v3.6zm8 .9v-9.8s4.12.02 4.1 0c1.6 0 2.7 1 2.7 2.6c0 1.1-.7 2-1.5 2.2c.7.2 1.7.8 1.7 2.3c0 1.7-1.2 2.7-2.8 2.7c.02.02-4.2 0-4.2 0zm1-5.4h3c1.1 0 1.8-.6 1.8-1.7c0-1.2-.7-1.8-1.8-1.8c.02.03-3 0-3 0v3.5zm0 4.5h3c1.2 0 2.1-.6 2.1-1.8c0-1.2-.9-1.8-2.1-1.8h-3v3.6zm12.4 1.8c0 .5.2.7.7.7c-.03-.04 2 0 2 0v.9s-2.24-.03-2.2 0c-1 0-1.5-.5-1.5-1.5v-.9c-2.3-.2-4-2-4-5c0-3.1 1.9-5 4.5-5c2.5 0 4.5 1.9 4.5 5c0 3-1.7 4.8-4 5v.8zm-.6-1.6h.1c2 0 3.5-1.6 3.5-4.2c0-2.5-1.5-4.1-3.5-4.1h-.1c-2 0-3.4 1.6-3.4 4.1c0 2.6 1.4 4.2 3.4 4.2zm8.9 3.5v-9.8h1s-.04 1.14 0 1.1c.4-.7 1.4-1.2 2.3-1.2c1.8 0 3.1 1.4 3.1 3.6c0 2.3-1.3 3.7-3.1 3.7c-.9 0-1.9-.5-2.3-1.3c-.04 0 0 3.9 0 3.9h-1zm3.3-3.4c1.5 0 2.2-1.4 2.2-2.9c0-1.5-.7-2.9-2.2-2.9h-.1c-1.5 0-2.2 1.4-2.2 2.9c0 1.5.7 2.9 2.2 2.9h.1zm4.3-1.3c0-1.6 1.4-2 2.4-2.1l2.2-.2s.05-.26 0-.3c0-1.2-.6-1.9-1.7-1.9h-.1c-.9 0-1.6.5-1.7 1.4h-.9c.1-1.3 1.2-2.1 2.7-2.1c1.8 0 2.7 1.2 2.7 2.6v4.5h-.8c-.1-.3-.1-.7-.1-1.1c-.3.6-1.2 1.3-2.5 1.3c-1.2 0-2.2-.9-2.2-2.1zm2.5 1.3c.9 0 2.1-.9 2.1-1.9c.05 0 0-.9 0-.9l-2 .1c-1 .1-1.7.6-1.7 1.3c0 .8.6 1.4 1.4 1.4h.2zm9.5-6.4h.9l-2.7 7h-1.1l-2.7-7h1l2.3 6.2l2.3-6.2zm2.1-1.2v-1.2h1v1.2h-1zm.1 8.2v-7h.9v7h-.9zm2.9 0v-9.8h.9v9.8h-.9zm2.8-8.2v-1.2h1v1.2h-1zm0 8.2v-7h1v7h-1zm2.5-3.5c0-2.2 1.4-3.6 3.2-3.6c1.9 0 3.3 1.4 3.3 3.6c0 2.2-1.4 3.7-3.3 3.7c-1.8 0-3.2-1.5-3.2-3.7zm3.3 2.9c1.3 0 2.2-1.1 2.2-2.9c0-1.8-.9-2.9-2.2-2.9h-.1c-1.3 0-2.2 1.1-2.2 2.9c0 1.8.9 2.9 2.2 2.9h.1zm4.8.6v-7h.9s-.03 1.2 0 1.2c.4-.8 1.3-1.3 2.4-1.3c1.4 0 2.5.9 2.5 2.5c-.03.04 0 4.6 0 4.6h-.9s-.04-4.28 0-4.3c0-1.4-.6-2.1-1.7-2.1h-.1c-1.5 0-2.2 1.4-2.2 2.9c-.03.02 0 3.5 0 3.5h-.9zm7.2-2.1h.9c.1 1 .9 1.5 1.8 1.5h.2c.9 0 1.5-.5 1.5-1.3c0-.5-.2-.8-1.2-1l-1-.3c-1-.2-1.9-.7-1.9-1.9c0-1.3 1.2-2 2.5-2c1.7 0 2.6 1.1 2.6 2.2h-.9c-.1-.8-.7-1.5-1.6-1.5h-.2c-1 0-1.5.6-1.5 1.3c0 .6.4.9 1.3 1.1l1.1.2c1 .2 1.8.7 1.8 1.9c0 1.3-1.1 2.1-2.6 2.1c-1.8 0-2.7-1-2.8-2.3zm6.5 3.7v-.5s.4-.03.4 0c.6 0 .8-.3.8-.9c.04.03 0-.2 0-.2h-.7v-1.4h1.4s-.03 1.7 0 1.7c0 .8-.5 1.3-1.4 1.3c.04.03-.5 0-.5 0zm6.5-1.6v-9.8h.9v6.4l3.7-3.6h1.3l-2.9 2.8l3 4.2h-1.1l-2.6-3.6l-1.4 1.4v2.2h-.9zm7.1-8.2v-1.2h1.1v1.2h-1.1zm.1 8.2v-7h.9v7h-.9zm2.5-3.5c0-2.2 1.3-3.6 3.1-3.6c.9 0 2 .5 2.4 1.2c-.02.04 0-3.9 0-3.9h.9v9.8h-.9s-.02-1.1 0-1.1c-.4.8-1.5 1.3-2.4 1.3c-1.8 0-3.1-1.4-3.1-3.7zm3.2 2.9c1.5 0 2.3-1.4 2.3-2.9c0-1.5-.8-2.9-2.3-2.9c-1.5 0-2.3 1.4-2.3 2.9c0 1.5.8 2.9 2.3 2.9zm4.7-1.5h.9c.1 1 .9 1.5 1.8 1.5h.2c.9 0 1.5-.5 1.5-1.3c0-.5-.3-.8-1.2-1l-1-.3c-1-.2-1.9-.7-1.9-1.9c0-1.3 1.2-2 2.5-2c1.7 0 2.6 1.1 2.6 2.2h-.9c-.1-.8-.7-1.5-1.6-1.5h-.2c-1 0-1.5.6-1.5 1.3c0 .6.4.9 1.3 1.1l1.1.2c1 .2 1.8.7 1.8 1.9c0 1.3-1.1 2.1-2.6 2.1c-1.8 0-2.7-1-2.8-2.3zm9.7 2.1v-7h1s-.04 1.2 0 1.2c.4-.8 1.3-1.3 2.4-1.3c1.4 0 2.5.9 2.5 2.5c-.04.04 0 4.6 0 4.6h-1s.05-4.28 0-4.3c0-1.4-.5-2.1-1.6-2.1h-.1c-1.5 0-2.2 1.4-2.2 2.9c-.04.02 0 3.5 0 3.5h-1zm7.4-1.9c0-1.6 1.3-2 2.4-2.1l2.2-.2s.03-.26 0-.3c0-1.2-.6-1.9-1.7-1.9h-.1c-.9 0-1.6.5-1.7 1.4h-.9c0-1.3 1.1-2.1 2.6-2.1c1.9 0 2.7 1.2 2.7 2.6v3c0 .4 0 1 .1 1.5h-.8c-.1-.3-.1-.7-.1-1.1c-.3.6-1.2 1.3-2.5 1.3c-1.2 0-2.2-.9-2.2-2.1zm2.5 1.3c.9 0 2.1-.9 2.1-1.9c.03 0 0-.9 0-.9l-2 .1c-1 .1-1.7.6-1.7 1.3c0 .8.6 1.4 1.4 1.4h.2zm6.9.6c-.9 0-1.3-.3-1.3-1.2c.01-.04 0-5 0-5h-1.6v-.8h1.6v-2.2h.9v2.2h1.8v.8h-1.8s.02 4.89 0 4.9c0 .4.2.6.6.6c-.02-.05 1.4 0 1.4 0v.7s-1.56.02-1.6 0zm2.7-2.4c-.02.04 0-4.6 0-4.6h.9s-.02 4.36 0 4.4c0 1.3.5 2 1.7 2h.1c1 0 2-1 2-2.6c.04 0 0-3.8 0-3.8h.9v7h-.9s.04-1.3 0-1.3c-.3.9-1.2 1.5-2.3 1.5c-1.6 0-2.4-1.1-2.4-2.6zm7.6 2.4v-7h.9s-.02 1.62 0 1.6c.3-1.1 1.2-1.6 2.1-1.6c.05-.05.7 0 .7 0v.8h-.6c-1.3 0-2.2 1.1-2.2 2.8c.05.02 0 3.4 0 3.4h-.9zm4.3-3.5c0-2.4 1.5-3.6 3.1-3.6c1.7 0 2.9 1.3 2.9 3.1c-.03.03 0 .6 0 .6h-5.1c.1 2 1.1 2.8 2.2 2.8h.1c1 0 1.6-.4 1.8-1.4h1c-.4 1.4-1.4 2.2-2.9 2.2c-1.7 0-3.1-1.3-3.1-3.7zm5.1-.7c-.1-1.2-.8-2.2-1.9-2.2h-.1c-.9 0-2 .6-2.1 2.2h4.1zm5.2 7v-9.8h.9s.03 1.14 0 1.1c.4-.7 1.5-1.2 2.4-1.2c1.8 0 3.1 1.4 3.1 3.6c0 2.3-1.3 3.7-3.1 3.7c-.9 0-2-.5-2.4-1.3c.03 0 0 3.9 0 3.9h-.9zm3.2-3.4c1.5 0 2.3-1.4 2.3-2.9c0-1.5-.8-2.9-2.3-2.9c-1.5 0-2.3 1.4-2.3 2.9c0 1.5.8 2.9 2.3 2.9zm4.8.6v-9.8h.9v9.8h-.9zm2.6-1.9c0-1.6 1.3-2 2.4-2.1c-.02-.01 2.2-.2 2.2-.2v-.3c0-1.2-.7-1.9-1.8-1.9c-.9 0-1.7.5-1.8 1.4h-.9c.1-1.3 1.2-2.1 2.7-2.1c1.8 0 2.7 1.2 2.7 2.6v3c0 .4 0 1 .1 1.5h-.9v-1.1c-.3.6-1.3 1.3-2.5 1.3c-1.3 0-2.2-.9-2.2-2.1zm2.4 1.3c1 0 2.2-.9 2.2-1.9c-.01 0 0-.9 0-.9l-2 .1c-1 .1-1.7.6-1.7 1.3c0 .8.6 1.4 1.4 1.4h.1zm10.7-6.4l-2.9 6.8s.05 1.31 0 1.3c0 .9-.4 1.2-1.3 1.2c.02.03-2.1 0-2.1 0v-.7s1.98-.04 2 0c.4 0 .5-.2.5-.6c.04 0 0-1.2 0-1.2l-2.9-6.8h1l2.4 5.7l2.4-5.7h.9zm3.3 4.9h.9c.1 1 .9 1.5 1.8 1.5h.2c1 0 1.6-.5 1.6-1.3c0-.5-.3-.8-1.3-1l-1-.3c-1-.2-1.9-.7-1.9-1.9c0-1.3 1.2-2 2.5-2c1.8 0 2.6 1.1 2.6 2.2h-.9c-.1-.8-.7-1.5-1.6-1.5h-.2c-.9 0-1.5.6-1.5 1.3c0 .6.4.9 1.3 1.1l1.1.2c1 .2 1.8.7 1.8 1.9c0 1.3-1.1 2.1-2.6 2.1c-1.8 0-2.7-1-2.8-2.3zm7.1 4.9v-9.8h.9s-.03 1.14 0 1.1c.4-.7 1.4-1.2 2.3-1.2c1.8 0 3.1 1.4 3.1 3.6c0 2.3-1.3 3.7-3.1 3.7c-.9 0-1.9-.5-2.3-1.3c-.03 0 0 3.9 0 3.9h-.9zm3.2-3.4c1.5 0 2.2-1.4 2.2-2.9c0-1.5-.7-2.9-2.2-2.9h-.1c-1.5 0-2.2 1.4-2.2 2.9c0 1.5.7 2.9 2.2 2.9h.1zm4.3-1.3c0-1.6 1.4-2 2.4-2.1l2.3-.2s-.04-.26 0-.3c0-1.2-.7-1.9-1.8-1.9h-.1c-.9 0-1.6.5-1.7 1.4h-.9c.1-1.3 1.2-2.1 2.7-2.1c1.8 0 2.7 1.2 2.7 2.6v4.5h-.8c-.1-.3-.1-.7-.1-1.1c-.3.6-1.2 1.3-2.5 1.3c-1.2 0-2.2-.9-2.2-2.1zm2.5 1.3c1 0 2.2-.9 2.2-1.9c-.04 0 0-.9 0-.9l-2.1.1c-1 .1-1.7.6-1.7 1.3c0 .8.6 1.4 1.4 1.4h.2zm4.6-2.9c0-2 1.1-3.6 3.2-3.6c1.5 0 2.6.9 2.7 2.4h-.9c-.1-1-.8-1.7-1.7-1.7h-.2c-1.5 0-2.2 1.4-2.2 2.9c0 1.5.7 2.9 2.2 2.9h.2c.9 0 1.6-.7 1.7-1.6h.9c-.2 1.4-1.2 2.4-2.7 2.4c-2.1 0-3.2-1.6-3.2-3.7zm7.1 0c0-2.4 1.5-3.6 3.1-3.6c1.7 0 2.9 1.3 2.9 3.1c-.04.03 0 .6 0 .6h-5.1c0 2 1.1 2.8 2.2 2.8h.1c1 0 1.6-.4 1.8-1.4h.9c-.3 1.4-1.3 2.2-2.8 2.2c-1.7 0-3.1-1.3-3.1-3.7zm5.1-.7c-.1-1.2-.8-2.2-1.9-2.2h-.1c-.9 0-2 .6-2.2 2.2h4.2zm1.9 5.8v-.5s.42-.03.4 0c.6 0 .9-.3.9-.9c-.04.03 0-.2 0-.2h-.8v-1.4h1.4s-.02 1.7 0 1.7c0 .8-.5 1.3-1.3 1.3c-.04.03-.6 0-.6 0z" stroke="none" fill="#192d39"/></g><g id="Polygon17433"><path d="m8.3 53.7v-9.8h.9s-.01 1.14 0 1.1c.4-.7 1.4-1.2 2.3-1.2c1.8 0 3.1 1.4 3.1 3.6c0 2.3-1.3 3.7-3.1 3.7c-.9 0-1.9-.5-2.3-1.3v3.9h-.9zm3.2-3.4c1.5 0 2.2-1.4 2.2-2.9c0-1.5-.7-2.9-2.2-2.9h-.1c-1.5 0-2.2 1.4-2.2 2.9c0 1.5.7 2.9 2.2 2.9h.1zm4.5-2.9c0-2.2 1.4-3.6 3.2-3.6c1.8 0 3.3 1.4 3.3 3.6c0 2.2-1.5 3.7-3.3 3.7c-1.8 0-3.2-1.5-3.2-3.7zm3.3 2.9c1.3 0 2.2-1.1 2.2-2.9c0-1.8-.9-2.9-2.2-2.9h-.1c-1.3 0-2.3 1.1-2.3 2.9c0 1.8 1 2.9 2.3 2.9h.1zm4.5-2.9c0-2.2 1.3-3.6 3.1-3.6c1 0 2 .5 2.4 1.2v-3.9h.9v9.8h-.9s-.01-1.1 0-1.1c-.4.8-1.4 1.3-2.4 1.3c-1.8 0-3.1-1.4-3.1-3.7zm3.2 2.9c1.6 0 2.3-1.4 2.3-2.9c0-1.5-.7-2.9-2.3-2.9c-1.5 0-2.3 1.4-2.3 2.9c0 1.5.8 2.9 2.3 2.9zm5.3-7.6v-1.2h1v1.2h-1zm0 8.2v-7h.9v7h-.9zm3-2.4v-4.6h.9v4.4c0 1.3.6 2 1.7 2h.1c1 0 2-1 2-2.6c.05 0 0-3.8 0-3.8h1v7h-1s.05-1.3 0-1.3c-.3.9-1.1 1.5-2.3 1.5c-1.5 0-2.4-1.1-2.4-2.6zm7.8 2.4v-7h.9v1.1c.4-.7 1.2-1.2 2.3-1.2c1 0 1.9.5 2.2 1.4c.5-.9 1.4-1.4 2.5-1.4c1.4 0 2.4.9 2.4 2.5c-.02.04 0 4.6 0 4.6h-.9s-.03-4.28 0-4.3c0-1.4-.6-2.1-1.6-2.1h-.1c-1.4 0-2.1 1.4-2.1 2.9v3.5h-.9s-.02-4.28 0-4.3c0-1.4-.5-2.1-1.6-2.1h-.1c-1.4 0-2.1 1.4-2.1 2.9v3.5h-.9zm14.7 1h.9c.2.9 1 1.3 2.2 1.3h.1c1.2 0 2.3-.7 2.3-2.4v-1.1c-.4.7-1.2 1.2-2.3 1.2c-1.8 0-3.1-1.2-3.1-3.5c0-2.2 1.3-3.6 3.1-3.6c1.1 0 1.9.5 2.3 1.2c-.02.04 0-1.1 0-1.1h.9v7c0 1.8-1.2 3.1-3.2 3.1c-2.1 0-3.1-.9-3.2-2.1zm3.3-1.7c1.3 0 2.2-1 2.2-2.8c0-1.7-.9-2.9-2.2-2.9h-.1c-1.3 0-2.2 1.2-2.2 2.9c0 1.8.9 2.8 2.2 2.8h.1zm4.7-1.2c0-1.6 1.4-2 2.4-2.1l2.2-.2s.04-.26 0-.3c0-1.2-.6-1.9-1.7-1.9h-.1c-.9 0-1.6.5-1.7 1.4h-.9c0-1.3 1.2-2.1 2.6-2.1c1.9 0 2.8 1.2 2.8 2.6v4.5h-.8c-.1-.3-.1-.7-.1-1.1c-.3.6-1.2 1.3-2.5 1.3c-1.2 0-2.2-.9-2.2-2.1zm2.5 1.3c.9 0 2.1-.9 2.1-1.9c.04 0 0-.9 0-.9l-2 .1c-1 .1-1.7.6-1.7 1.3c0 .8.6 1.4 1.4 1.4h.2zm5 .6v-7h.8s.03 1.62 0 1.6c.3-1.1 1.2-1.6 2.2-1.6c0-.05.6 0 .6 0v.8h-.5c-1.4 0-2.2 1.1-2.2 2.8v3.4h-.9zm4.3-3.5c0-2.2 1.3-3.6 3.1-3.6c.9 0 1.9.5 2.3 1.2c.03.04 0-3.9 0-3.9h.9v9.8h-.9s.03-1.1 0-1.1c-.4.8-1.4 1.3-2.3 1.3c-1.8 0-3.1-1.4-3.1-3.7zm3.2 2.9c1.5 0 2.2-1.4 2.2-2.9c0-1.5-.7-2.9-2.2-2.9h-.1c-1.5 0-2.2 1.4-2.2 2.9c0 1.5.7 2.9 2.2 2.9h.1zm4.8-2.9c0-2.4 1.5-3.6 3.1-3.6c1.7 0 2.8 1.3 2.8 3.1v.6s-5.03-.01-5 0c0 2 1 2.8 2.2 2.8h.1c.9 0 1.5-.4 1.8-1.4h.9c-.3 1.4-1.4 2.2-2.8 2.2c-1.8 0-3.1-1.3-3.1-3.7zm5-.7c0-1.2-.8-2.2-1.9-2.2h-.1c-.9 0-1.9.6-2.1 2.2h4.1zm2.6 4.2v-7h.9s-.03 1.2 0 1.2c.4-.8 1.3-1.3 2.4-1.3c1.4 0 2.5.9 2.5 2.5c-.03.04 0 4.6 0 4.6h-.9s-.04-4.28 0-4.3c0-1.4-.6-2.1-1.7-2.1h-.1c-1.5 0-2.2 1.4-2.2 2.9c-.03.02 0 3.5 0 3.5h-.9zm11.2 0v-6.2h-1.6v-.8h1.6s.05-1.52 0-1.5c0-.9.5-1.3 1.4-1.3c-.02.02 1.7 0 1.7 0v.8h-1.6c-.4 0-.5.1-.5.5c-.04.05 0 1.5 0 1.5h1.8v.8h-1.8v6.2h-1zm3.4-3.5c0-2.2 1.4-3.6 3.2-3.6c1.8 0 3.2 1.4 3.2 3.6c0 2.2-1.4 3.7-3.2 3.7c-1.8 0-3.2-1.5-3.2-3.7zm3.3 2.9c1.2 0 2.2-1.1 2.2-2.9c0-1.8-1-2.9-2.2-2.9h-.2c-1.2 0-2.2 1.1-2.2 2.9c0 1.8 1 2.9 2.2 2.9h.2zm4.7.6v-7h.9s-.04 1.62 0 1.6c.3-1.1 1.2-1.6 2.1-1.6c.03-.05.7 0 .7 0v.8h-.6c-1.3 0-2.2 1.1-2.2 2.8c.03.02 0 3.4 0 3.4h-.9zm4.9 0v-7h.9s-.01 1.14 0 1.1c.4-.7 1.2-1.2 2.3-1.2c1 0 1.9.5 2.2 1.4c.5-.9 1.4-1.4 2.5-1.4c1.3 0 2.4.9 2.4 2.5c-.03.04 0 4.6 0 4.6h-.9s-.04-4.28 0-4.3c0-1.4-.6-2.1-1.7-2.1c-1.5 0-2.1 1.4-2.1 2.9c-.02.02 0 3.5 0 3.5h-.9s-.03-4.28 0-4.3c0-1.4-.6-2.1-1.6-2.1h-.1c-1.4 0-2.1 1.4-2.1 2.9v3.5h-.9zm11.7-2.1h.9c.1 1 .9 1.5 1.8 1.5h.2c1 0 1.6-.5 1.6-1.3c0-.5-.3-.8-1.3-1l-1-.3c-1-.2-1.9-.7-1.9-1.9c0-1.3 1.2-2 2.5-2c1.8 0 2.6 1.1 2.6 2.2h-.9c-.1-.8-.7-1.5-1.6-1.5h-.2c-.9 0-1.5.6-1.5 1.3c0 .6.4.9 1.3 1.1l1.1.2c1 .2 1.8.7 1.8 1.9c0 1.3-1.1 2.1-2.6 2.1c-1.8 0-2.7-1-2.8-2.3zm11.8 2.1c-.9 0-1.3-.3-1.3-1.2c-.04-.04 0-5 0-5h-1.6v-.8h1.6v-2.2h.9v2.2h1.7v.8h-1.7s-.03 4.89 0 4.9c0 .4.1.6.5.6c.03-.05 1.4 0 1.4 0v.7s-1.51.02-1.5 0zm2.8 0v-9.8h.9s-.03 4.01 0 4c.4-.8 1.3-1.3 2.5-1.3c1.5 0 2.4 1 2.4 2.5c-.03 0 0 4.6 0 4.6h-.9s-.03-4.32 0-4.3c0-1.4-.6-2.1-1.7-2.1h-.2c-1 0-2.1 1-2.1 2.6c-.03.04 0 3.8 0 3.8h-.9zm7.3-3.5c0-2.4 1.6-3.6 3.2-3.6c1.7 0 2.8 1.3 2.8 3.1v.6s-5.05-.01-5 0c0 2 1 2.8 2.2 2.8c1 0 1.6-.4 1.9-1.4h.9c-.3 1.4-1.4 2.2-2.8 2.2c-1.8 0-3.2-1.3-3.2-3.7zm5.1-.7c-.1-1.2-.8-2.2-1.9-2.2h-.1c-.9 0-1.9.6-2.1 2.2h4.1zm6 4.2v-6.2h-1.6v-.8h1.6s.03-1.52 0-1.5c0-.9.5-1.3 1.4-1.3c-.04.02 1.7 0 1.7 0v.8h-1.6c-.4 0-.6.1-.6.5c.04.05 0 1.5 0 1.5h1.9v.8h-1.9v6.2h-.9zm3.4-3.5c0-2.2 1.4-3.6 3.2-3.6c1.8 0 3.2 1.4 3.2 3.6c0 2.2-1.4 3.7-3.2 3.7c-1.8 0-3.2-1.5-3.2-3.7zm3.3 2.9c1.2 0 2.2-1.1 2.2-2.9c0-1.8-1-2.9-2.2-2.9h-.2c-1.2 0-2.2 1.1-2.2 2.9c0 1.8 1 2.9 2.2 2.9h.2zm4.3-2.9c0-2 1.2-3.6 3.3-3.6c1.5 0 2.6.9 2.7 2.4h-.9c-.2-1-.8-1.7-1.8-1.7h-.1c-1.5 0-2.2 1.4-2.2 2.9c0 1.5.7 2.9 2.2 2.9h.1c1 0 1.6-.7 1.8-1.6h.9c-.3 1.4-1.2 2.4-2.7 2.4c-2.1 0-3.3-1.6-3.3-3.7zm7.2 1.6c0-1.6 1.3-2 2.4-2.1l2.2-.2s.03-.26 0-.3c0-1.2-.6-1.9-1.7-1.9h-.1c-.9 0-1.6.5-1.7 1.4h-1c.1-1.3 1.2-2.1 2.7-2.1c1.9 0 2.7 1.2 2.7 2.6v3c0 .4 0 1 .1 1.5h-.8c-.1-.3-.1-.7-.1-1.1c-.3.6-1.3 1.3-2.5 1.3c-1.2 0-2.2-.9-2.2-2.1zm2.5 1.3c.9 0 2.1-.9 2.1-1.9c.03 0 0-.9 0-.9l-2 .1c-1 .1-1.7.6-1.7 1.3c0 .8.6 1.4 1.4 1.4h.2zm5 .6v-9.8h.9v9.8h-.9zm5.6 2.8v-9.8h1s-.04 1.14 0 1.1c.4-.7 1.4-1.2 2.3-1.2c1.8 0 3.1 1.4 3.1 3.6c0 2.3-1.3 3.7-3.1 3.7c-.9 0-1.9-.5-2.3-1.3c-.04 0 0 3.9 0 3.9h-1zm3.3-3.4c1.5 0 2.2-1.4 2.2-2.9c0-1.5-.7-2.9-2.2-2.9h-.1c-1.5 0-2.2 1.4-2.2 2.9c0 1.5.7 2.9 2.2 2.9h.1zm4.3-2.9c0-2.2 1.5-3.6 3.3-3.6c1.8 0 3.2 1.4 3.2 3.6c0 2.2-1.4 3.7-3.2 3.7c-1.8 0-3.3-1.5-3.3-3.7zm3.3 2.9c1.3 0 2.3-1.1 2.3-2.9c0-1.8-1-2.9-2.3-2.9h-.1c-1.3 0-2.2 1.1-2.2 2.9c0 1.8.9 2.9 2.2 2.9h.1zm4.7-7.6v-1.2h1v1.2h-1zm.1 8.2v-7h.9v7h-.9zm2.9 0v-7h.9s-.03 1.2 0 1.2c.4-.8 1.3-1.3 2.4-1.3c1.4 0 2.5.9 2.5 2.5c-.03.04 0 4.6 0 4.6h-.9s-.04-4.28 0-4.3c0-1.4-.6-2.1-1.7-2.1h-.1c-1.5 0-2.2 1.4-2.2 2.9c-.03.02 0 3.5 0 3.5h-.9zm9.7 0c-.9 0-1.3-.3-1.3-1.2c-.02-.04 0-5 0-5h-1.6v-.8h1.6v-2.2h.9v2.2h1.7v.8h-1.7v4.9c0 .4.1.6.6.6c-.05-.05 1.4 0 1.4 0v.7s-1.59.02-1.6 0zm5.1-3.5c0-2.2 1.4-3.6 3.2-3.6c1.8 0 3.2 1.4 3.2 3.6c0 2.2-1.4 3.7-3.2 3.7c-1.8 0-3.2-1.5-3.2-3.7zm3.2 2.9c1.3 0 2.3-1.1 2.3-2.9c0-1.8-1-2.9-2.3-2.9h-.1c-1.3 0-2.2 1.1-2.2 2.9c0 1.8.9 2.9 2.2 2.9h.1zm5.4.6v-6.2h-1.6v-.8h1.6s.03-1.52 0-1.5c0-.9.4-1.3 1.4-1.3c-.04.02 1.7 0 1.7 0v.8h-1.6c-.4 0-.6.1-.6.5c.04.05 0 1.5 0 1.5h1.9v.8h-1.9v6.2h-.9zm8.7 0c-.9 0-1.3-.3-1.3-1.2c-.02-.04 0-5 0-5h-1.6v-.8h1.6v-2.2h.9v2.2h1.7v.8H247v4.9c0 .4.1.6.5.6c.05-.05 1.4 0 1.4 0v.7s-1.49.02-1.5 0zm2.8 0v-9.8h.9v4c.5-.8 1.3-1.3 2.5-1.3c1.6 0 2.4 1 2.4 2.5v4.6h-.9s-.02-4.32 0-4.3c0-1.4-.6-2.1-1.7-2.1h-.1c-1.1 0-2.2 1-2.2 2.6v3.8h-.9zm7.7-8.2v-1.2h1v1.2h-1zm0 8.2v-7h.9v7h-.9zm2.4-2.1h.9c.1 1 .9 1.5 1.8 1.5h.2c1 0 1.6-.5 1.6-1.3c0-.5-.3-.8-1.3-1l-1-.3c-1-.2-1.9-.7-1.9-1.9c0-1.3 1.2-2 2.5-2c1.8 0 2.6 1.1 2.6 2.2h-.9c0-.8-.7-1.5-1.6-1.5h-.2c-.9 0-1.5.6-1.5 1.3c0 .6.4.9 1.3 1.1l1.1.2c1 .2 1.8.7 1.8 1.9c0 1.3-1 2.1-2.6 2.1c-1.8 0-2.7-1-2.8-2.3zm14.5-4.9h.9l-2.7 7h-1.1l-2.7-7h1l2.3 6.2l2.3-6.2zm2.1-1.2v-1.2h1v1.2h-1zm.1 8.2v-7h.9v7h-.9zm3.8-1.1c-.05 0 0 1.1 0 1.1h-1v-9.8h1s-.05 3.94 0 3.9c.4-.7 1.4-1.2 2.3-1.2c1.8 0 3.1 1.4 3.1 3.6c0 2.3-1.3 3.7-3.1 3.7c-.9 0-1.9-.5-2.3-1.3zm2.3.5c1.5 0 2.2-1.4 2.2-2.9c0-1.5-.7-2.9-2.2-2.9h-.1c-1.5 0-2.2 1.4-2.2 2.9c0 1.5.7 2.9 2.2 2.9h.1zm4.7.6v-7h.9s-.02 1.62 0 1.6c.3-1.1 1.2-1.6 2.1-1.6c.05-.05.7 0 .7 0v.8h-.6c-1.3 0-2.2 1.1-2.2 2.8c.05.02 0 3.4 0 3.4h-.9zm4.5-1.9c0-1.6 1.3-2 2.4-2.1c-.02-.01 2.2-.2 2.2-.2v-.3c0-1.2-.7-1.9-1.8-1.9c-.9 0-1.7.5-1.8 1.4h-.9c.1-1.3 1.2-2.1 2.7-2.1c1.8 0 2.7 1.2 2.7 2.6v3c0 .4 0 1 .1 1.5h-.9v-1.1c-.3.6-1.3 1.3-2.5 1.3c-1.2 0-2.2-.9-2.2-2.1zm2.4 1.3c1 0 2.2-.9 2.2-1.9c-.01 0 0-.9 0-.9l-2 .1c-1 .1-1.7.6-1.7 1.3c0 .8.6 1.4 1.4 1.4h.1zm5 .6v-7h.9s.05 1.2 0 1.2c.5-.8 1.3-1.3 2.5-1.3c1.4 0 2.4.9 2.4 2.5c.05.04 0 4.6 0 4.6h-.9s.04-4.28 0-4.3c0-1.4-.5-2.1-1.6-2.1h-.1c-1.5 0-2.3 1.4-2.3 2.9c.05.02 0 3.5 0 3.5h-.9zm9.8 0c-.9 0-1.3-.3-1.3-1.2c-.04-.04 0-5 0-5h-1.6v-.8h1.6v-2.2h.9v2.2h1.7v.8h-1.7s-.03 4.89 0 4.9c0 .4.1.6.5.6c.03-.05 1.4 0 1.4 0v.7s-1.51.02-1.5 0zm5.5 0v-7h.9s-.03 1.2 0 1.2c.4-.8 1.3-1.3 2.4-1.3c1.4 0 2.5.9 2.5 2.5c-.03.04 0 4.6 0 4.6h-.9s-.03-4.28 0-4.3c0-1.4-.6-2.1-1.7-2.1h-.1c-1.5 0-2.2 1.4-2.2 2.9c-.03.02 0 3.5 0 3.5h-.9zm7.3-3.5c0-2.4 1.6-3.6 3.2-3.6c1.7 0 2.8 1.3 2.8 3.1v.6s-5.05-.01-5 0c0 2 1 2.8 2.2 2.8c1 0 1.6-.4 1.9-1.4h.9c-.3 1.4-1.4 2.2-2.8 2.2c-1.8 0-3.2-1.3-3.2-3.7zm5.1-.7c-.1-1.2-.8-2.2-1.9-2.2h-.1c-.9 0-1.9.6-2.1 2.2h4.1zm10.8-2.8h.9l-2.3 7h-1.2l-1.6-6l-1.5 6h-1.2l-2.3-7h.9l2 6.2l1.6-6.2h1.1l1.7 6.3l1.9-6.3z" stroke="none" fill="#192d39"/></g><g id="Polygon17432"><path d="m11.1 30.9v-6.2H9.5v-.8h1.6v-1.5c0-.9.4-1.3 1.3-1.3c.02.02 1.8 0 1.8 0v.8h-1.6c-.5 0-.6.1-.6.5v1.5h1.8v.8H12v6.2h-.9zm3.3-3.5c0-2.2 1.5-3.6 3.3-3.6c1.8 0 3.2 1.4 3.2 3.6c0 2.2-1.4 3.7-3.2 3.7c-1.8 0-3.3-1.5-3.3-3.7zm3.3 2.9c1.3 0 2.3-1.1 2.3-2.9c0-1.8-1-2.9-2.3-2.9h-.1c-1.3 0-2.2 1.1-2.2 2.9c0 1.8.9 2.9 2.2 2.9h.1zm4.8.6v-7h.8v1.6c.3-1.1 1.2-1.6 2.2-1.6c-.02-.05.6 0 .6 0v.8h-.5c-1.4 0-2.2 1.1-2.2 2.8c-.02.02 0 3.4 0 3.4h-.9zm10.2 0V22h-3.6v-.9h8.1v.9h-3.6v8.9h-.9zm4.4 0v-7h.8s.04 1.62 0 1.6c.4-1.1 1.2-1.6 2.2-1.6c.01-.05.6 0 .6 0v.8h-.5c-1.4 0-2.2 1.1-2.2 2.8c.01.02 0 3.4 0 3.4h-.9zm4.8-8.2v-1.2h1v1.2h-1zm.1 8.2v-7h.9v7h-.9zm2.9 0v-9.8h.9v9.8h-.9zm2.5-3.5c0-2.2 1.4-3.6 3.2-3.6c1.8 0 3.2 1.4 3.2 3.6c0 2.2-1.4 3.7-3.2 3.7c-1.8 0-3.2-1.5-3.2-3.7zm3.2 2.9c1.3 0 2.3-1.1 2.3-2.9c0-1.8-1-2.9-2.3-2.9h-.1c-1.3 0-2.2 1.1-2.2 2.9c0 1.8.9 2.9 2.2 2.9h.1zm4.3 1.6h.9c.2.9 1 1.3 2.2 1.3h.1c1.2 0 2.3-.7 2.3-2.4v-1.1c-.4.7-1.2 1.2-2.4 1.2c-1.7 0-3-1.2-3-3.5c0-2.2 1.3-3.6 3-3.6c1.2 0 2 .5 2.4 1.2c-.03.04 0-1.1 0-1.1h.9s-.02 6.96 0 7c0 1.8-1.2 3.1-3.3 3.1c-2 0-3-.9-3.1-2.1zm3.3-1.7c1.3 0 2.2-1 2.2-2.8c0-1.7-.9-2.9-2.2-2.9h-.1c-1.3 0-2.2 1.2-2.2 2.9c0 1.8.9 2.8 2.2 2.8h.1zm11.1-6.3l-2.9 6.8s.02 1.31 0 1.3c0 .9-.4 1.2-1.3 1.2c-.01.03-2.1 0-2.1 0v-.7s1.95-.04 1.9 0c.5 0 .6-.2.6-.6v-1.2l-3-6.8h1l2.4 5.7l2.4-5.7h1zm.2 7v-1.4h1.4v1.4h-1.4zm13.3 0l-1.1-2.7h-5l-1.1 2.7h-1l4-9.8h1.2l4 9.8h-1zM77 27.3h4.3L79.2 22l-2.2 5.3zm11.5 2.5c-.02 0 0 1.1 0 1.1h-.9v-9.8h.9s-.02 3.94 0 3.9c.4-.7 1.4-1.2 2.3-1.2c1.8 0 3.1 1.4 3.1 3.6c0 2.3-1.3 3.7-3.1 3.7c-.9 0-1.9-.5-2.3-1.3zm2.3.5c1.5 0 2.2-1.4 2.2-2.9c0-1.5-.7-2.9-2.2-2.9h-.1c-1.5 0-2.2 1.4-2.2 2.9c0 1.5.7 2.9 2.2 2.9h.1zm4.4-2.9c0-2.4 1.5-3.6 3.1-3.6c1.7 0 2.9 1.3 2.9 3.1c-.05.03 0 .6 0 .6h-5.1c0 2 1.1 2.8 2.2 2.8h.1c.9 0 1.6-.4 1.8-1.4h.9c-.3 1.4-1.3 2.2-2.8 2.2c-1.7 0-3.1-1.3-3.1-3.7zm5-.7c0-1.2-.7-2.2-1.8-2.2h-.2c-.8 0-1.9.6-2.1 2.2h4.1zm2.2 2.3c0-1.6 1.3-2 2.4-2.1l2.2-.2s.02-.26 0-.3c0-1.2-.7-1.9-1.7-1.9h-.1c-.9 0-1.7.5-1.8 1.4h-.9c.1-1.3 1.2-2.1 2.7-2.1c1.8 0 2.7 1.2 2.7 2.6v3c0 .4 0 1 .1 1.5h-.8c-.1-.3-.1-.7-.1-1.1c-.3.6-1.3 1.3-2.5 1.3c-1.2 0-2.2-.9-2.2-2.1zm2.5 1.3c.9 0 2.1-.9 2.1-1.9c.02 0 0-.9 0-.9l-2 .1c-1 .1-1.7.6-1.7 1.3c0 .8.6 1.4 1.4 1.4h.2zm4.9-1.8c-.03.04 0-4.6 0-4.6h.9s-.02 4.36 0 4.4c0 1.3.5 2 1.7 2h.1c1 0 2-1 2-2.6c.03 0 0-3.8 0-3.8h.9v7h-.9s.03-1.3 0-1.3c-.3.9-1.2 1.5-2.3 1.5c-1.6 0-2.4-1.1-2.4-2.6zm9.8 2.4c-.9 0-1.3-.3-1.3-1.2c-.05-.04 0-5 0-5h-1.7v-.8h1.7v-2.2h.9v2.2h1.7v.8h-1.7s-.04 4.89 0 4.9c0 .4.1.6.5.6c.02-.05 1.4 0 1.4 0v.7s-1.52.02-1.5 0zm2.7-8.2v-1.2h1v1.2h-1zm.1 8.2v-7h.9v7h-.9zm3.7 0v-6.2h-1.6v-.8h1.6v-1.5c0-.9.4-1.3 1.3-1.3c.03.02 1.8 0 1.8 0v.8h-1.6c-.4 0-.6.1-.6.5v1.5h1.8v.8H127v6.2h-.9zm3.9-2.4c.03.04 0-4.6 0-4.6h.9s.03 4.36 0 4.4c0 1.3.6 2 1.7 2h.2c1 0 2-1 2-2.6v-3.8h.9v7h-.9v-1.3c-.4.9-1.2 1.5-2.4 1.5c-1.5 0-2.4-1.1-2.4-2.6zm7.7 2.4v-9.8h.9v9.8h-.9zm2.9 0v-9.8h.9v9.8h-.9zm8.9-7l-2.9 6.8v1.3c0 .9-.4 1.2-1.3 1.2c-.03.03-2.2 0-2.2 0v-.7s2.03-.04 2 0c.5 0 .6-.2.6-.6v-1.2l-3-6.8h1l2.4 5.7l2.4-5.7h1zm3.8 7v-9.8h.9v9.8h-.9zM156 29c0-1.6 1.3-2 2.4-2.1l2.2-.2s.03-.26 0-.3c0-1.2-.6-1.9-1.7-1.9h-.1c-.9 0-1.6.5-1.7 1.4h-1c.1-1.3 1.2-2.1 2.7-2.1c1.9 0 2.7 1.2 2.7 2.6v3c0 .4 0 1 .1 1.5h-.8c-.1-.3-.1-.7-.1-1.1c-.3.6-1.3 1.3-2.5 1.3c-1.2 0-2.2-.9-2.2-2.1zm2.5 1.3c.9 0 2.1-.9 2.1-1.9c.03 0 0-.9 0-.9l-2 .1c-1 .1-1.7.6-1.7 1.3c0 .8.6 1.4 1.4 1.4h.2zm5.1.6v-7h.9s.02 1.2 0 1.2c.4-.8 1.3-1.3 2.5-1.3c1.4 0 2.4.9 2.4 2.5c.02.04 0 4.6 0 4.6h-.9v-4.3c0-1.4-.5-2.1-1.7-2.1h-.1c-1.5 0-2.2 1.4-2.2 2.9c.02.02 0 3.5 0 3.5h-.9zm7.5-3.5c0-2.2 1.3-3.6 3.2-3.6c.9 0 1.9.5 2.3 1.2v-3.9h.9v9.8h-.9s-.01-1.1 0-1.1c-.4.8-1.4 1.3-2.3 1.3c-1.9 0-3.2-1.4-3.2-3.7zm3.2 2.9c1.6 0 2.3-1.4 2.3-2.9c0-1.5-.7-2.9-2.3-2.9c-1.5 0-2.2 1.4-2.2 2.9c0 1.5.7 2.9 2.2 2.9zm4.9-1.5h.9c.1 1 .8 1.5 1.8 1.5h.1c1 0 1.6-.5 1.6-1.3c0-.5-.3-.8-1.2-1l-1.1-.3c-1-.2-1.9-.7-1.9-1.9c0-1.3 1.2-2 2.5-2c1.8 0 2.6 1.1 2.7 2.2h-.9c-.1-.8-.7-1.5-1.7-1.5h-.1c-1 0-1.6.6-1.6 1.3c0 .6.4.9 1.3 1.1l1.1.2c1 .2 1.8.7 1.8 1.9c0 1.3-1 2.1-2.6 2.1c-1.8 0-2.7-1-2.7-2.3zm6.7-1.4c0-2 1.2-3.6 3.2-3.6c1.5 0 2.6.9 2.8 2.4h-.9c-.2-1-.9-1.7-1.8-1.7h-.1c-1.6 0-2.3 1.4-2.3 2.9c0 1.5.7 2.9 2.3 2.9h.1c.9 0 1.6-.7 1.8-1.6h.9c-.3 1.4-1.3 2.4-2.8 2.4c-2 0-3.2-1.6-3.2-3.7zm7.3 1.6c0-1.6 1.3-2 2.4-2.1l2.2-.2s.04-.26 0-.3c0-1.2-.6-1.9-1.7-1.9h-.1c-.9 0-1.6.5-1.7 1.4h-.9c0-1.3 1.1-2.1 2.6-2.1c1.9 0 2.7 1.2 2.7 2.6v3c0 .4 0 1 .1 1.5h-.8c-.1-.3-.1-.7-.1-1.1c-.3.6-1.2 1.3-2.5 1.3c-1.2 0-2.2-.9-2.2-2.1zm2.5 1.3c.9 0 2.1-.9 2.1-1.9c.04 0 0-.9 0-.9l-2 .1c-1 .1-1.7.6-1.7 1.3c0 .8.6 1.4 1.4 1.4h.2zm5.1 3.4v-9.8h.9s.03 1.14 0 1.1c.5-.7 1.5-1.2 2.4-1.2c1.8 0 3.1 1.4 3.1 3.6c0 2.3-1.3 3.7-3.1 3.7c-.9 0-1.9-.5-2.4-1.3c.03 0 0 3.9 0 3.9h-.9zm3.2-3.4c1.5 0 2.3-1.4 2.3-2.9c0-1.5-.8-2.9-2.3-2.9c-1.5 0-2.3 1.4-2.3 2.9c0 1.5.8 2.9 2.3 2.9zm4.6-2.9c0-2.4 1.5-3.6 3.1-3.6c1.7 0 2.8 1.3 2.8 3.1c.05.03 0 .6 0 .6c0 0-4.99-.01-5 0c0 2 1.1 2.8 2.2 2.8h.1c.9 0 1.6-.4 1.8-1.4h.9c-.3 1.4-1.4 2.2-2.8 2.2c-1.7 0-3.1-1.3-3.1-3.7zm5-.7c0-1.2-.7-2.2-1.8-2.2h-.2c-.8 0-1.9.6-2.1 2.2h4.1zm2.4.7c0-2.2 1.3-3.6 3.1-3.6c.9 0 1.9.5 2.3 1.2c.02.04 0-3.9 0-3.9h.9v9.8h-.9s.02-1.1 0-1.1c-.4.8-1.4 1.3-2.3 1.3c-1.8 0-3.1-1.4-3.1-3.7zm3.2 2.9c1.5 0 2.2-1.4 2.2-2.9c0-1.5-.7-2.9-2.2-2.9h-.1c-1.5 0-2.2 1.4-2.2 2.9c0 1.5.7 2.9 2.2 2.9h.1zm7.8-1.9h.9c.2 1.1 1 1.8 2.2 1.8h.1c1.2 0 2.2-.7 2.2-1.9c0-1.1-.9-1.8-2.1-1.8c0-.02-.6 0-.6 0v-.9s.72-.03.7 0c1.2 0 2-.8 2-1.8c0-1.2-1-1.9-2.2-1.9h-.1c-1.1 0-1.9.7-2 1.7h-1c.1-1.5 1.4-2.6 3.1-2.6c1.7 0 3.1.9 3.1 2.7c0 1-.7 1.9-1.6 2.3c.9.3 1.7 1.1 1.7 2.3c0 1.8-1.6 2.8-3.2 2.8c-1.9 0-3.1-1-3.2-2.7zm7.8 4.1v-.5s.38-.03.4 0c.5 0 .8-.3.8-.9c.02.03 0-.2 0-.2h-.8v-1.4h1.4s.05 1.7 0 1.7c0 .8-.4 1.3-1.3 1.3c.02.03-.5 0-.5 0zm3.4-6.5c0-3.3 1.4-5 3.7-5c2.4 0 3.8 1.7 3.8 5c0 3.3-1.4 5.1-3.8 5.1c-2.3 0-3.7-1.8-3.7-5.1zm3.8 4.2c1.2 0 2.7-.9 2.7-4.2c0-3.2-1.5-4.1-2.7-4.1h-.1c-1.2 0-2.7.9-2.7 4.1c0 3.3 1.5 4.2 2.7 4.2h.1zm5.3-4.2c0-3.3 1.4-5 3.7-5c2.4 0 3.7 1.7 3.7 5c0 3.3-1.3 5.1-3.7 5.1c-2.3 0-3.7-1.8-3.7-5.1zm3.8 4.2c1.2 0 2.7-.9 2.7-4.2c0-3.2-1.5-4.1-2.7-4.1h-.1c-1.2 0-2.7.9-2.7 4.1c0 3.3 1.5 4.2 2.7 4.2h.1zm5.3-4.2c0-3.3 1.4-5 3.7-5c2.4 0 3.7 1.7 3.7 5c0 3.3-1.3 5.1-3.7 5.1c-2.3 0-3.7-1.8-3.7-5.1zm3.8 4.2c1.2 0 2.7-.9 2.7-4.2c0-3.2-1.5-4.1-2.7-4.1h-.1c-1.2 0-2.7.9-2.7 4.1c0 3.3 1.5 4.2 2.7 4.2h.1zm5.1-1.4h.9c.1 1 .8 1.5 1.8 1.5h.1c1 0 1.6-.5 1.6-1.3c0-.5-.3-.8-1.2-1l-1.1-.3c-1-.2-1.9-.7-1.9-1.9c0-1.3 1.2-2 2.5-2c1.8 0 2.6 1.1 2.7 2.2h-.9c-.1-.8-.7-1.5-1.7-1.5h-.1c-1 0-1.5.6-1.5 1.3c0 .6.3.9 1.2 1.1l1.1.2c1 .2 1.8.7 1.8 1.9c0 1.3-1 2.1-2.6 2.1c-1.8 0-2.7-1-2.7-2.3zm12.2 4.9s-.02-3.9 0-3.9c-.4.8-1.5 1.3-2.4 1.3c-1.8 0-3.1-1.4-3.1-3.7c0-2.2 1.3-3.6 3.1-3.6c.9 0 2 .5 2.4 1.2c-.02.04 0-1.1 0-1.1h.9v9.8h-.9zm-2.3-3.4c1.5 0 2.3-1.4 2.3-2.9c0-1.5-.8-2.9-2.3-2.9c-1.5 0-2.3 1.4-2.3 2.9c0 1.5.8 2.9 2.3 2.9zm5.3.6v-7h.9s.03 1.14 0 1.1c.4-.7 1.3-1.2 2.3-1.2c1.1 0 1.9.5 2.3 1.4c.4-.9 1.3-1.4 2.4-1.4c1.4 0 2.4.9 2.4 2.5v4.6h-.9v-4.3c0-1.4-.5-2.1-1.6-2.1h-.1c-1.4 0-2.1 1.4-2.1 2.9c.02.02 0 3.5 0 3.5h-.9v-4.3c0-1.4-.5-2.1-1.6-2.1h-.1c-1.4 0-2.1 1.4-2.1 2.9c.03.02 0 3.5 0 3.5h-.9zm14.9-3.5c0-2 1.1-3.6 3.2-3.6c1.5 0 2.6.9 2.7 2.4h-.9c-.2-1-.8-1.7-1.7-1.7h-.2c-1.5 0-2.2 1.4-2.2 2.9c0 1.5.7 2.9 2.2 2.9h.2c.9 0 1.5-.7 1.7-1.6h.9c-.2 1.4-1.2 2.4-2.7 2.4c-2.1 0-3.2-1.6-3.2-3.7zm7.2 0c0-2.4 1.5-3.6 3.1-3.6c1.7 0 2.9 1.3 2.9 3.1c-.04.03 0 .6 0 .6h-5.1c.1 2 1.1 2.8 2.2 2.8h.1c1 0 1.6-.4 1.8-1.4h.9c-.3 1.4-1.3 2.2-2.8 2.2c-1.7 0-3.1-1.3-3.1-3.7zm5.1-.7c-.1-1.2-.8-2.2-1.9-2.2h-.1c-.9 0-2 .6-2.1 2.2h4.1zm2.7 4.2v-7h.9s-.03 1.2 0 1.2c.4-.8 1.3-1.3 2.4-1.3c1.4 0 2.5.9 2.5 2.5c-.03.04 0 4.6 0 4.6h-.9s-.04-4.28 0-4.3c0-1.4-.6-2.1-1.7-2.1h-.1c-1.5 0-2.2 1.4-2.2 2.9c-.03.02 0 3.5 0 3.5h-.9zm9.8 0c-.9 0-1.3-.3-1.3-1.2c.02-.04 0-5 0-5h-1.6v-.8h1.6v-2.2h.9v2.2h1.8v.8h-1.8s.03 4.89 0 4.9c0 .4.2.6.6.6c-.01-.05 1.4 0 1.4 0v.7s-1.55.02-1.6 0zm3 0v-7h.8v1.6c.3-1.1 1.2-1.6 2.2-1.6c-.03-.05.6 0 .6 0v.8h-.6c-1.3 0-2.1 1.1-2.1 2.8c-.03.02 0 3.4 0 3.4h-.9zm4.5-1.9c0-1.6 1.4-2 2.4-2.1l2.3-.2s-.04-.26 0-.3c0-1.2-.7-1.9-1.8-1.9h-.1c-.9 0-1.6.5-1.7 1.4h-.9c.1-1.3 1.2-2.1 2.7-2.1c1.8 0 2.7 1.2 2.7 2.6v4.5h-.8c-.1-.3-.1-.7-.1-1.1c-.3.6-1.2 1.3-2.5 1.3c-1.2 0-2.2-.9-2.2-2.1zm2.5 1.3c1 0 2.2-.9 2.2-1.9c-.04 0 0-.9 0-.9l-2.1.1c-1 .1-1.7.6-1.7 1.3c0 .8.6 1.4 1.4 1.4h.2zm5.1.6v-9.8h1v9.8h-1z" stroke="none" fill="#192d39"/></g><g id="Polygon17431"><path d="m8.4 6c0-2.9 1.7-5 4.5-5c2.1 0 3.6 1.3 3.7 3.1h-.9c-.2-1.1-1-2.2-2.8-2.2h-.1c-2.2 0-3.4 1.9-3.4 4.1c0 2.3 1.2 4.2 3.4 4.2h.1c1.8 0 2.6-1.1 2.8-2.3h.9c-.1 1.8-1.6 3.2-3.7 3.2c-2.8 0-4.5-2.2-4.5-5.1zm9.4 1.4c0-2.2 1.4-3.6 3.2-3.6c1.8 0 3.2 1.4 3.2 3.6c0 2.2-1.4 3.7-3.2 3.7c-1.8 0-3.2-1.5-3.2-3.7zm3.3 2.9c1.2 0 2.2-1.1 2.2-2.9c0-1.8-1-2.9-2.2-2.9h-.2c-1.2 0-2.2 1.1-2.2 2.9c0 1.8 1 2.9 2.2 2.9h.2zm4.6.6v-7h.9s-.03 1.2 0 1.2c.4-.8 1.3-1.3 2.4-1.3c1.4 0 2.5.9 2.5 2.5c-.03.04 0 4.6 0 4.6h-.9s-.04-4.28 0-4.3c0-1.4-.6-2.1-1.7-2.1h-.1c-1.5 0-2.2 1.4-2.2 2.9c-.03.02 0 3.5 0 3.5h-.9zm12.1-7h.9l-2.6 7h-1.2l-2.7-7h1l2.3 6.2l2.3-6.2zm1.4 3.5c0-2.4 1.5-3.6 3.1-3.6c1.7 0 2.8 1.3 2.8 3.1c.02.03 0 .6 0 .6c0 0-5.02-.01-5 0c0 2 1 2.8 2.2 2.8h.1c.9 0 1.5-.4 1.8-1.4h.9c-.3 1.4-1.4 2.2-2.8 2.2c-1.8 0-3.1-1.3-3.1-3.7zm5-.7c0-1.2-.7-2.2-1.8-2.2h-.2c-.9 0-1.9.6-2.1 2.2h4.1zm2.4 4.2v-7h.9s.04 1.2 0 1.2c.5-.8 1.3-1.3 2.5-1.3c1.4 0 2.4.9 2.4 2.5c.04.04 0 4.6 0 4.6h-.9s.04-4.28 0-4.3c0-1.4-.5-2.1-1.6-2.1h-.1c-1.5 0-2.3 1.4-2.3 2.9c.04.02 0 3.5 0 3.5h-.9zm7.6-8.2V1.5h1v1.2h-1zm0 8.2v-7h1v7h-1zm2.4-3.5c0-2.4 1.5-3.6 3.1-3.6c1.7 0 2.9 1.3 2.9 3.1c-.04.03 0 .6 0 .6h-5.1c.1 2 1.1 2.8 2.2 2.8h.1c1 0 1.6-.4 1.8-1.4h.9c-.3 1.4-1.3 2.2-2.8 2.2c-1.7 0-3.1-1.3-3.1-3.7zm5.1-.7c-.1-1.2-.8-2.2-1.9-2.2h-.1c-.9 0-2 .6-2.1 2.2h4.1zm2.4 4.2v-7h.9s-.02 1.2 0 1.2c.4-.8 1.3-1.3 2.4-1.3c1.4 0 2.5.9 2.5 2.5c-.02.04 0 4.6 0 4.6h-.9s-.02-4.28 0-4.3c0-1.4-.6-2.1-1.7-2.1h-.1c-1.5 0-2.2 1.4-2.2 2.9c-.02.02 0 3.5 0 3.5h-.9zm7.2-3.5c0-2 1.2-3.6 3.2-3.6c1.5 0 2.6.9 2.8 2.4h-.9c-.2-1-.9-1.7-1.8-1.7h-.1c-1.6 0-2.3 1.4-2.3 2.9c0 1.5.7 2.9 2.3 2.9h.1c.9 0 1.6-.7 1.8-1.6h.9c-.3 1.4-1.3 2.4-2.8 2.4c-2 0-3.2-1.6-3.2-3.7zm7 0c0-2.4 1.5-3.6 3.1-3.6c1.7 0 2.8 1.3 2.8 3.1c.04.03 0 .6 0 .6c0 0-5-.01-5 0c0 2 1 2.8 2.2 2.8h.1c.9 0 1.5-.4 1.8-1.4h.9c-.3 1.4-1.4 2.2-2.8 2.2c-1.7 0-3.1-1.3-3.1-3.7zm5-.7c0-1.2-.7-2.2-1.8-2.2h-.2c-.9 0-1.9.6-2.1 2.2h4.1zM87.9 9c0-1.6 1.3-2 2.4-2.1l2.2-.2s.03-.26 0-.3c0-1.2-.6-1.9-1.7-1.9h-.1c-.9 0-1.6.5-1.7 1.4h-1c.1-1.3 1.2-2.1 2.7-2.1c1.9 0 2.7 1.2 2.7 2.6v3c0 .4 0 1 .1 1.5h-.8c-.1-.3-.1-.7-.1-1.1c-.3.6-1.2 1.3-2.5 1.3c-1.2 0-2.2-.9-2.2-2.1zm2.5 1.3c.9 0 2.1-.9 2.1-1.9c.03 0 0-.9 0-.9l-2 .1c-1 .1-1.7.6-1.7 1.3c0 .8.6 1.4 1.4 1.4h.2zm4.8.6v-7h.9s.04 1.2 0 1.2c.4-.8 1.3-1.3 2.5-1.3c1.4 0 2.4.9 2.4 2.5c.04.04 0 4.6 0 4.6h-.9s.03-4.28 0-4.3c0-1.4-.5-2.1-1.6-2.1h-.1c-1.5 0-2.3 1.4-2.3 2.9c.04.02 0 3.5 0 3.5h-.9zm7.3-3.5c0-2.2 1.3-3.6 3.1-3.6c.9 0 1.9.5 2.3 1.2c.03.04 0-3.9 0-3.9h.9v9.8h-.9s.03-1.1 0-1.1c-.4.8-1.4 1.3-2.3 1.3c-1.8 0-3.1-1.4-3.1-3.7zm3.2 2.9c1.5 0 2.2-1.4 2.2-2.9c0-1.5-.7-2.9-2.2-2.9h-.1c-1.5 0-2.2 1.4-2.2 2.9c0 1.5.7 2.9 2.2 2.9h.1zm7.2-2.9c0-2 1.1-3.6 3.2-3.6c1.5 0 2.6.9 2.8 2.4h-1c-.1-1-.8-1.7-1.7-1.7h-.1c-1.6 0-2.3 1.4-2.3 2.9c0 1.5.7 2.9 2.3 2.9h.1c.9 0 1.6-.7 1.7-1.6h1c-.3 1.4-1.3 2.4-2.8 2.4c-2.1 0-3.2-1.6-3.2-3.7zm7 0c0-2.2 1.4-3.6 3.2-3.6c1.8 0 3.2 1.4 3.2 3.6c0 2.2-1.4 3.7-3.2 3.7c-1.8 0-3.2-1.5-3.2-3.7zm3.2 2.9c1.3 0 2.3-1.1 2.3-2.9c0-1.8-1-2.9-2.3-2.9h-.1c-1.3 0-2.2 1.1-2.2 2.9c0 1.8.9 2.9 2.2 2.9h.1zm4.7.6v-7h.9s-.04 1.14 0 1.1c.4-.7 1.2-1.2 2.3-1.2c1 0 1.8.5 2.2 1.4c.5-.9 1.3-1.4 2.5-1.4c1.3 0 2.3.9 2.3 2.5c.04.04 0 4.6 0 4.6h-.9s.03-4.28 0-4.3c0-1.4-.5-2.1-1.6-2.1h-.1c-1.4 0-2 1.4-2 2.9c-.05.02 0 3.5 0 3.5h-1s.04-4.28 0-4.3c0-1.4-.5-2.1-1.6-2.1h-.1c-1.4 0-2 1.4-2 2.9c-.04.02 0 3.5 0 3.5h-.9zm12.1 0v-7h.9s-.02 1.14 0 1.1c.4-.7 1.2-1.2 2.3-1.2c1 0 1.8.5 2.2 1.4c.5-.9 1.3-1.4 2.5-1.4c1.3 0 2.4.9 2.4 2.5c-.04.04 0 4.6 0 4.6h-1s.05-4.28 0-4.3c0-1.4-.5-2.1-1.6-2.1c-1.5 0-2.1 1.4-2.1 2.9c-.03.02 0 3.5 0 3.5h-.9s-.04-4.28 0-4.3c0-1.4-.6-2.1-1.7-2.1c-1.5 0-2.1 1.4-2.1 2.9c-.02.02 0 3.5 0 3.5h-.9zm12-2.4V3.9h.9s.02 4.36 0 4.4c0 1.3.6 2 1.7 2h.1c1.1 0 2.1-1 2.1-2.6c-.03 0 0-3.8 0-3.8h.9v7h-.9s-.03-1.3 0-1.3c-.4.9-1.2 1.5-2.4 1.5c-1.5 0-2.4-1.1-2.4-2.6zm7.5 2.4v-7h.9s.04 1.2 0 1.2c.4-.8 1.3-1.3 2.5-1.3c1.4 0 2.4.9 2.4 2.5c.04.04 0 4.6 0 4.6h-.9s.03-4.28 0-4.3c0-1.4-.5-2.1-1.6-2.1h-.1c-1.5 0-2.3 1.4-2.3 2.9c.04.02 0 3.5 0 3.5h-.9zm7.6-8.2V1.5h1v1.2h-1zm0 8.2v-7h.9v7h-.9zm4.9 0c-.9 0-1.3-.3-1.3-1.2c.01-.04 0-5 0-5H169v-.8h1.6V1.7h.9v2.2h1.8v.8h-1.8v4.9c0 .4.2.6.6.6c-.03-.05 1.4 0 1.4 0v.7s-1.57.02-1.6 0zm8.9-7l-2.9 6.8s.04 1.31 0 1.3c0 .9-.4 1.2-1.3 1.2c.02.03-2.1 0-2.1 0v-.7s1.98-.04 2 0c.4 0 .5-.2.5-.6c.04 0 0-1.2 0-1.2l-2.9-6.8h1l2.4 5.7l2.4-5.7h.9zm3.6 7V1.1h.9v9.8h-.9zm2.7-8.2V1.5h1v1.2h-1zm0 8.2v-7h.9v7h-.9zm2.4-3.5c0-2.4 1.5-3.6 3.1-3.6c1.7 0 2.9 1.3 2.9 3.1c-.04.03 0 .6 0 .6h-5.1c0 2 1.1 2.8 2.2 2.8h.1c1 0 1.6-.4 1.8-1.4h.9c-.3 1.4-1.3 2.2-2.8 2.2c-1.7 0-3.1-1.3-3.1-3.7zm5.1-.7c-.1-1.2-.8-2.2-1.9-2.2h-.2c-.8 0-1.9.6-2.1 2.2h4.2zm4.5 2.3c0-1.6 1.4-2 2.4-2.1l2.2-.2s.05-.26 0-.3c0-1.2-.6-1.9-1.7-1.9h-.1c-.9 0-1.6.5-1.7 1.4h-.9c.1-1.3 1.2-2.1 2.7-2.1c1.8 0 2.7 1.2 2.7 2.6v4.5h-.8c-.1-.3-.1-.7-.1-1.1c-.3.6-1.2 1.3-2.5 1.3c-1.2 0-2.2-.9-2.2-2.1zm2.5 1.3c.9 0 2.1-.9 2.1-1.9c.05 0 0-.9 0-.9l-2 .1c-1 .1-1.7.6-1.7 1.3c0 .8.6 1.4 1.4 1.4h.2zm6.8.6c-.9 0-1.3-.3-1.3-1.2c-.01-.04 0-5 0-5h-1.6v-.8h1.6V1.7h.9v2.2h1.7v.8H208v4.9c0 .4.1.6.6.6c-.04-.05 1.4 0 1.4 0v.7s-1.58.02-1.6 0zm7.2 0c-.9 0-1.3-.3-1.3-1.2c.01-.04 0-5 0-5h-1.6v-.8h1.6V1.7h.9v2.2h1.8v.8h-1.8s.02 4.89 0 4.9c0 .4.2.6.6.6c-.02-.05 1.4 0 1.4 0v.7s-1.56.02-1.6 0zm2.7 0V1.1h.9s-.02 4.01 0 4c.5-.8 1.3-1.3 2.5-1.3c1.6 0 2.4 1 2.4 2.5c-.02 0 0 4.6 0 4.6h-.9s-.02-4.32 0-4.3c0-1.4-.6-2.1-1.7-2.1h-.1c-1.1 0-2.2 1-2.2 2.6c-.02.04 0 3.8 0 3.8h-.9zm7.2-3.5c0-2.4 1.5-3.6 3.1-3.6c1.7 0 2.9 1.3 2.9 3.1c-.04.03 0 .6 0 .6h-5.1c.1 2 1.1 2.8 2.2 2.8h.1c1 0 1.6-.4 1.8-1.4h1c-.4 1.4-1.4 2.2-2.9 2.2c-1.7 0-3.1-1.3-3.1-3.7zm5.1-.7c-.1-1.2-.8-2.2-1.9-2.2h-.1c-.9 0-2 .6-2.1 2.2h4.1zm4.9 4.2V1.1h.9s.05 4.01 0 4c.5-.8 1.4-1.3 2.6-1.3c1.5 0 2.3 1 2.3 2.5c.05 0 0 4.6 0 4.6h-.9s.04-4.32 0-4.3c0-1.4-.5-2.1-1.6-2.1h-.2c-1.1 0-2.2 1-2.2 2.6c.05.04 0 3.8 0 3.8h-.9zm7.3-3.5c0-2.4 1.5-3.6 3.1-3.6c1.7 0 2.8 1.3 2.8 3.1c.03.03 0 .6 0 .6c0 0-5.01-.01-5 0c0 2 1 2.8 2.2 2.8h.1c.9 0 1.5-.4 1.8-1.4h.9c-.3 1.4-1.4 2.2-2.8 2.2c-1.8 0-3.1-1.3-3.1-3.7zm5-.7c0-1.2-.7-2.2-1.8-2.2h-.2c-.9 0-1.9.6-2.1 2.2h4.1zm2 2.3c0-1.6 1.4-2 2.4-2.1l2.3-.2s-.04-.26 0-.3c0-1.2-.7-1.9-1.8-1.9h-.1c-.9 0-1.6.5-1.7 1.4h-.9c.1-1.3 1.2-2.1 2.7-2.1c1.8 0 2.7 1.2 2.7 2.6v4.5h-.8c-.1-.3-.1-.7-.1-1.1c-.3.6-1.2 1.3-2.5 1.3c-1.2 0-2.2-.9-2.2-2.1zm2.5 1.3c1 0 2.2-.9 2.2-1.9c-.04 0 0-.9 0-.9l-2.1.1c-1 .1-1.7.6-1.7 1.3c0 .8.6 1.4 1.4 1.4h.2zm4.9.6v-7h.8v1.6c.3-1.1 1.2-1.6 2.2-1.6c-.03-.05.6 0 .6 0v.8h-.6c-1.3 0-2.1 1.1-2.1 2.8c-.03.02 0 3.4 0 3.4h-.9zm7.2 0c-.9 0-1.4-.3-1.4-1.2c.03-.04 0-5 0-5h-1.6v-.8h1.6V1.7h.9v2.2h1.8v.8h-1.8s.04 4.89 0 4.9c0 .4.2.6.6.6c0-.05 1.4 0 1.4 0v.7s-1.54.02-1.5 0zm4.7-3.5c0-2.2 1.4-3.6 3.2-3.6c1.8 0 3.3 1.4 3.3 3.6c0 2.2-1.5 3.7-3.3 3.7c-1.8 0-3.2-1.5-3.2-3.7zm3.3 2.9c1.3 0 2.2-1.1 2.2-2.9c0-1.8-.9-2.9-2.2-2.9h-.1c-1.3 0-2.3 1.1-2.3 2.9c0 1.8 1 2.9 2.3 2.9h.1zm5.3.6V4.7H276v-.8h1.7s-.04-1.52 0-1.5c0-.9.4-1.3 1.3-1.3c-.01.02 1.7 0 1.7 0v.8h-1.6c-.4 0-.5.1-.5.5c-.03.05 0 1.5 0 1.5h1.8v.8h-1.8v6.2h-.9zm8.4 0c-1 0-1.4-.3-1.4-1.2c.03-.04 0-5 0-5h-1.6v-.8h1.6V1.7h.9v2.2h1.8v.8h-1.8s.04 4.89 0 4.9c0 .4.2.6.6.6c0-.05 1.4 0 1.4 0v.7s-1.54.02-1.5 0zm2.6 0V1.1h.9v4c.5-.8 1.3-1.3 2.5-1.3c1.6 0 2.4 1 2.4 2.5v4.6h-.9V6.6c0-1.4-.6-2.1-1.7-2.1h-.1c-1.1 0-2.2 1-2.2 2.6v3.8h-.9zm7.2-3.5c0-2.4 1.5-3.6 3.2-3.6c1.7 0 2.8 1.3 2.8 3.1c-.02.03 0 .6 0 .6h-5.1c.1 2 1.1 2.8 2.2 2.8h.1c1 0 1.6-.4 1.9-1.4h.9c-.3 1.4-1.4 2.2-2.8 2.2c-1.8 0-3.2-1.3-3.2-3.7zm5.1-.7c-.1-1.2-.8-2.2-1.9-2.2h-.1c-.9 0-1.9.6-2.1 2.2h4.1zm9.7-2.8h.9l-2.7 7h-1.1l-2.7-7h1l2.3 6.2l2.3-6.2zm1.9-1.2V1.5h1.1v1.2h-1.1zm.1 8.2v-7h.9v7h-.9zm2.3-2.1h.9c.1 1 .8 1.5 1.8 1.5h.1c1 0 1.6-.5 1.6-1.3c0-.5-.3-.8-1.2-1l-1.1-.3c-1-.2-1.9-.7-1.9-1.9c0-1.3 1.2-2 2.5-2c1.8 0 2.6 1.1 2.7 2.2h-.9c-.1-.8-.7-1.5-1.7-1.5h-.1c-1 0-1.6.6-1.6 1.3c0 .6.4.9 1.3 1.1l1.1.2c1 .2 1.8.7 1.8 1.9c0 1.3-1 2.1-2.6 2.1c-1.8 0-2.7-1-2.7-2.3zm6.8-6.1V1.5h1v1.2h-1zm0 8.2v-7h1v7h-1zm2.4-3.5c0-2.2 1.4-3.6 3.2-3.6c1.8 0 3.2 1.4 3.2 3.6c0 2.2-1.4 3.7-3.2 3.7c-1.8 0-3.2-1.5-3.2-3.7zm3.3 2.9c1.2 0 2.2-1.1 2.2-2.9c0-1.8-1-2.9-2.2-2.9h-.2c-1.2 0-2.2 1.1-2.2 2.9c0 1.8 1 2.9 2.2 2.9h.2zm4.6.6v-7h.9v1.2c.4-.8 1.3-1.3 2.4-1.3c1.4 0 2.5.9 2.5 2.5v4.6h-.9s-.02-4.28 0-4.3c0-1.4-.6-2.1-1.7-2.1h-.1c-1.5 0-2.2 1.4-2.2 2.9v3.5h-.9z" stroke="none" fill="#192d39"/></g></svg>