<?xml version="1.0" standalone="no"?><!DOCTYPE svg PUBLIC "-//W3C//DTD SVG 1.1//EN" "http://www.w3.org/Graphics/SVG/1.1/DTD/svg11.dtd"><svg xmlns="http://www.w3.org/2000/svg" version="1.1" width="305px" height="190px" viewBox="0 -4 305 190" style="top:-4px"><desc>The pinnacle of luxury</desc><defs/><g id="Polygon17811"><path d="m36 128c0 9.4-7.7 17-17.2 17c-9.4 0-17.1-7.6-17.1-17c0-9.5 7.7-17.1 17.1-17.1c9.5 0 17.2 7.6 17.2 17.1zm-4.7-5.2c-3.3-8-11.6-12.2-18.5-9.4c-6.8 2.9-9.7 11.7-6.4 19.7c3.3 8 11.5 12.3 18.4 9.4c6.9-2.9 9.8-11.7 6.5-19.7zM42.5 145v-34.1h23.9l-.3 2.5l-20.1-1.2v14.7h15.7l-.3 2.6l-15.4-1.2V145h-3.5zm48.8-34.1h3.4v32.7l18.5-1.1l-.3 2.5H91.3v-34.1zm31.9 0s-.02 20.9 0 20.9c0 7 4.5 11.3 11.9 11.3c7.2 0 10.6-4.5 10.6-11.4c-.02.04 0-20.8 0-20.8h1.7s.02 20.84 0 20.8c0 8-4.4 13.3-13.9 13.3c-9.4 0-13.8-5.5-13.8-13.3v-20.8h3.5zm48.2 15l12.6-15h2.2l-13.7 16.3l14.9 17.8h-4.6l-12.6-15l-12.6 15h-2.3l13.8-16.4l-14.9-17.7h4.6l12.6 15zm26.2-15s.04 20.9 0 20.9c0 7 4.6 11.3 11.9 11.3c7.2 0 10.6-4.5 10.6-11.4c.04.04 0-20.8 0-20.8h1.8s-.02 20.84 0 20.8c0 8-4.5 13.3-13.9 13.3c-9.4 0-13.8-5.5-13.8-13.3c-.04.04 0-20.8 0-20.8h3.4zm57.9 31.8c1.6 2 3.2 2.1 3.2 2.1c0 0-.82.56-2.2.6c-2.8 0-4.1-.9-6.6-4.2c0 0-5.8-7.4-7.4-9.3c-1.4-1.8-2.4-2.3-3.5-2.3c-.02-.02-5.4 0-5.4 0V145h-3.5v-34.1s8.16-.04 8.2 0c10.2 0 16.6 3.7 16.6 9.3c0 4.8-4.6 8.2-12.3 9.1c2.1.5 3.3 1.3 4.2 2.4l8.7 11zm-21.9-30.5v16.1s4.66-.04 4.7 0c6.8 0 13-2.4 13-8.1c0-5.6-6.2-8-13-8c-.04.04-4.7 0-4.7 0zm57.8-1.3l-14.1 16.7V145h-3.5v-16.9l-14.5-17.2h4.6l12.5 15l12.7-15h2.3z" stroke="none" fill="#dcddce"/></g><g id="Polygon17810"><path d="m29.7 70.2c0 5.6-6 9.4-18.1 9.4c-.02-.02-4.8 0-4.8 0V95H3.4V60.9s8.18-.04 8.2 0c12.1 0 18.1 3.7 18.1 9.3zm-22.9-8v16.1s4.78-.04 4.8 0c8.1 0 14.4-2.4 14.4-8.1c0-5.6-6.4-8-14.4-8c-.02.04-4.8 0-4.8 0zM40.2 95h-3.5V60.9h3.5V95zm8.7 0V60.9h1.4l28.1 28.7V60.9h1.7V95h-1.4L50.6 66.3V95h-1.7zm39.4 0V60.9h1.4l28.1 28.7V60.9h1.7V95h-1.4l-28-28.7V95h-1.8zm36.6 0l17.7-34.6L160.4 95h-3.9l-4.9-9.5h-20l-4.8 9.5h-1.9zm7.6-11.2h18.2l-9-17.6l-9.2 17.6zm59.4 7c-3.1 2.6-7.2 4.2-11.7 4.2c-9.3 0-17.3-7.6-17.3-17c0-9.5 8-17.1 17.3-17.1c4.5 0 8.7 1.5 11.7 4v5c-2.9-4.8-8-7.7-12.9-7.7c-7.8 0-12.3 6.5-12.3 14c0 10.3 7.9 17.3 15.1 17.3c3.7 0 7.9-2.2 10.1-4.7v2zm7.2-29.9h3.5v32.7l18.4-1.1l-.3 2.5h-21.6V60.9zm52.1 0v2.5l-20.1-1.2v14.7h15.7l-.4 2.6l-15.3-1.2v15.4l20.4-1.2l-.3 2.5h-23.6V60.9h23.6z" stroke="none" fill="#dcddce"/></g><g id="Polygon17809"><path d="m33.2 13.4l-14.3-1.2V45h-3.5V12.2L1.2 13.4v-2.5h32v2.5zM67.6 45h-3.5V28.8H42.7V45h-3.5V10.9h3.5v16.2h21.4V10.9h3.5V45zm31.8-34.1v2.5l-20.1-1.2v14.7H95l-.4 2.6l-15.3-1.2v15.4l20.4-1.2l-.3 2.5H75.8V10.9h23.6z" stroke="none" fill="#dcddce"/></g></svg>