<?xml version="1.0" standalone="no"?><!DOCTYPE svg PUBLIC "-//W3C//DTD SVG 1.1//EN" "http://www.w3.org/Graphics/SVG/1.1/DTD/svg11.dtd"><svg xmlns="http://www.w3.org/2000/svg" version="1.1" width="71.1px" height="44.5px" viewBox="0 -3 71.1 44.5" style="top:-3px"><desc>Macquarie University Hospital</desc><defs/><g id="Polygon21047"><path d="m14.3 34.7v-8.1h1.4v3.4h3.7v-3.4h1.4v8.1h-1.4v-3.5h-3.7v3.5h-1.4zm8-2.9c0-1.8 1.2-3 2.8-3c1.7 0 2.9 1.2 2.9 3c0 1.7-1.2 3-2.9 3c-1.6 0-2.8-1.3-2.8-3zm2.9 1.9c.8 0 1.4-.7 1.4-1.9c0-1.2-.6-1.9-1.4-1.9h-.1c-.9 0-1.5.7-1.5 1.9c0 1.2.6 1.9 1.5 1.9h.1zm3.6-.9h1.4c0 .6.5.9 1.1.9h.1c.5 0 .9-.2.9-.6c0-.4-.2-.6-.7-.7l-.8-.1c-1.1-.3-1.7-.8-1.7-1.7c0-1.1.9-1.8 2.2-1.8c1.5 0 2.4.7 2.4 1.9h-1.4c0-.5-.3-.9-1-.9c-.6 0-.9.3-.9.7c0 .3.2.5.8.6l.8.2c1 .2 1.6.8 1.6 1.7c0 1-.9 1.8-2.3 1.8c-1.6 0-2.5-.8-2.5-2zM35 37v-8.1h1.3v.8c.3-.5 1-.9 1.8-.9c1.6 0 2.5 1.3 2.5 3c0 1.7-1 3-2.6 3c-.8 0-1.4-.5-1.7-.9v3.1H35zm2.9-3.3c.8 0 1.4-.7 1.4-1.9c0-1.2-.6-1.9-1.4-1.9h-.1c-.8 0-1.5.7-1.5 1.9c0 1.2.7 1.9 1.5 1.9h.1zm4-5.7v-1.4h1.4v1.4h-1.4zm0 6.7v-5.8h1.3v5.8h-1.3zm5 0c-.9 0-1.4-.5-1.4-1.4c-.04-.04 0-3.3 0-3.3h-1.3v-1.1h1.3V27h1.3v1.9h1.3v1.1h-1.3v3c0 .4.1.5.6.5c-.05.02.9 0 .9 0v1.2s-1.44-.04-1.4 0zm2.3-1.6c0-1.3 1-1.8 2.1-1.9c-.01.02 1.5-.1 1.5-.1v-.2c0-.6-.4-1-1.1-1c-.6 0-1 .3-1.1.7h-1.3c.1-1 1-1.8 2.4-1.8c1.5 0 2.4.8 2.4 2.1v3.8h-1.2c0-.3-.1-.7-.1-.8c-.3.5-.9.9-1.7.9c-1.1 0-1.9-.7-1.9-1.7zm2.2.6c.7 0 1.4-.6 1.4-1.3v-.3l-1.3.1c-.5 0-1 .3-1 .8c0 .4.3.7.8.7h.1zm4.3 1v-8.1h1.3v8.1h-1.3z" stroke="none" fill="#192d39"/></g><g id="Polygon21046"><path d="m9.3 19c-.04-.02 0-5.2 0-5.2h1.3s.05 5 0 5c0 1.3.6 1.9 1.7 1.9h.1c1.2 0 1.7-.6 1.7-1.9c.03 0 0-5 0-5h1.4s.02 5.18 0 5.2c0 1.8-1 2.9-3.1 2.9c-2.2 0-3.1-1.1-3.1-2.9zm7.9 2.8v-5.7h1.4s-.04.79 0 .8c.3-.6.9-1 1.7-1c1.4 0 2.1.9 2.1 2.2c-.01-.03 0 3.7 0 3.7h-1.3s-.04-3.54 0-3.5c0-.8-.4-1.3-1.1-1.3h-.1c-.7 0-1.3.7-1.3 1.6c-.04.01 0 3.2 0 3.2h-1.4zm6.7-6.6v-1.4h1.4v1.4h-1.4zm.1 6.6v-5.7h1.3v5.7H24zm6.8-5.7h1.4l-2.1 5.7h-1.8l-2-5.7h1.3l1.6 4.6l1.6-4.6zm1.8 2.8c0-1.8 1.2-3 2.8-3c1.6 0 2.5 1.2 2.5 2.8v.6h-4c.1 1 .8 1.6 1.5 1.6h.1c.5 0 1-.4 1.1-.8h1.3c-.2 1.1-1.2 1.8-2.5 1.8c-1.5 0-2.8-1-2.8-3zm4-.6c0-.9-.6-1.3-1.2-1.3h-.1c-.6 0-1.2.4-1.3 1.3h2.6zm2.7 3.5v-5.7h1.3s-.03 1.16 0 1.2c.2-.8.8-1.3 1.6-1.3h.4v1.2s-.46.05-.5 0c-1 0-1.5.6-1.5 1.7v2.9h-1.3zm4-1.8h1.4c0 .6.5.9 1.1.9h.1c.5 0 .9-.3.9-.6c0-.4-.2-.6-.7-.7l-.8-.2c-1.1-.2-1.8-.7-1.8-1.7c0-1.1 1-1.8 2.3-1.8c1.5 0 2.3.8 2.3 2h-1.3c0-.5-.3-.9-1-.9h-.1c-.5 0-.8.2-.8.6c0 .4.2.6.7.7l.9.2c1 .2 1.6.7 1.6 1.7c0 1-.9 1.7-2.3 1.7c-1.6 0-2.5-.7-2.5-1.9zm6.1-4.8v-1.4h1.4v1.4h-1.4zm.1 6.6v-5.7h1.3v5.7h-1.3zm4.9 0c-.9 0-1.4-.5-1.4-1.4v-3.2h-1.2v-1.1h1.2v-1.9h1.3v1.9h1.4v1.1h-1.4s.03 2.92 0 2.9c0 .5.1.6.6.6c0-.01.9 0 .9 0v1.1s-1.4.03-1.4 0zm8.3-5.7l-2.5 5.4s.04 1.2 0 1.2c0 .9-.4 1.4-1.3 1.4c-.03-.02-2 0-2 0v-1.2s1.52.02 1.5 0c.5 0 .6-.1.6-.5c-.01-.04 0-.9 0-.9l-2.5-5.4h1.5l1.6 3.8l1.6-3.8h1.5z" stroke="none" fill="#192d39"/></g><g id="Polygon21045"><path d="m14.9.9h2.2v8.1h-1.4V2.3L13.5 9h-1.6L9.7 2.3v6.7H8.3V.9h2.2l2.2 6.7L14.9.9zm3.7 6.5c0-1.3 1-1.8 2.1-1.8c-.03-.04 1.5-.2 1.5-.2c0 0-.02-.13 0-.1c0-.7-.4-1.1-1.1-1.1h-.1c-.5 0-1 .3-1 .8h-1.3c.1-1.1 1-1.9 2.4-1.9c1.5 0 2.4.9 2.4 2.1v3.8h-1.2c-.1-.2-.1-.6-.1-.8c-.3.5-.9.9-1.8.9c-1 0-1.8-.7-1.8-1.7zm2.2.6c.7 0 1.4-.5 1.4-1.2c-.02-.04 0-.4 0-.4c0 0-1.36.14-1.4.1c-.5.1-.9.3-.9.8c0 .4.3.7.8.7h.1zm3.9-1.9c0-1.8 1.1-3 2.8-3c1.4 0 2.4.7 2.5 2.1h-1.3c-.1-.6-.5-1-1.2-1h-.1c-.9 0-1.4.9-1.4 1.9c0 1 .5 1.9 1.4 1.9h.1c.7 0 1.1-.4 1.2-1h1.3c-.1 1.4-1.1 2.1-2.5 2.1c-1.7 0-2.8-1.2-2.8-3zm10.5 5.2s.03-3.07 0-3.1c-.2.5-.9.9-1.7.9c-1.6 0-2.6-1.3-2.6-3c0-1.7 1-3 2.6-3c.8 0 1.5.5 1.7.9c.03.01 0-.8 0-.8h1.4v8.1h-1.4zM33.8 8c.7 0 1.4-.7 1.4-1.9c0-1.2-.7-1.9-1.4-1.9h-.1c-.8 0-1.4.7-1.4 1.9c0 1.2.6 1.9 1.4 1.9h.1zm4.3-1c.03-.03 0-3.8 0-3.8h1.4s-.04 3.58 0 3.6c0 .8.3 1.2 1 1.2c.7 0 1.3-.6 1.3-1.6c.05.01 0-3.2 0-3.2h1.4v5.8h-1.4s.05-.94 0-.9c-.2.6-.9 1-1.7 1c-1.3 0-2-.9-2-2.1zm6.4.4c0-1.3 1-1.8 2.1-1.8c0-.04 1.5-.2 1.5-.2v-.1c0-.7-.4-1.1-1-1.1h-.1c-.6 0-1 .3-1.1.8h-1.3c.1-1.1 1-1.9 2.4-1.9c1.5 0 2.4.9 2.4 2.1v2.5c0 .4 0 .9.1 1.3h-1.3v-.8c-.3.5-1 .9-1.8.9c-1.1 0-1.9-.7-1.9-1.7zm2.2.6c.7 0 1.4-.5 1.4-1.2v-.4s-1.33.14-1.3.1c-.5.1-1 .3-1 .8c0 .4.3.7.8.7h.1zM51 9V3.2h1.3s-.02 1.23 0 1.2c.2-.8.8-1.2 1.7-1.2c-.05-.02.3 0 .3 0v1.2s-.45.02-.5 0c-1 0-1.5.6-1.5 1.6v3H51zm4.3-6.6V.9h1.4v1.5h-1.4zm.1 6.6V3.2h1.3v5.8h-1.3zM58 6.1c0-1.8 1.1-3 2.7-3c1.6 0 2.5 1.2 2.5 2.8v.6h-3.9c0 1 .7 1.5 1.4 1.5h.1c.6 0 1-.3 1.1-.8h1.3C63 8.4 62 9.1 60.7 9.1c-1.4 0-2.7-1-2.7-3zm3.9-.7c0-.8-.6-1.2-1.2-1.2h-.1c-.6 0-1.2.4-1.3 1.2h2.6z" stroke="none" fill="#192d39"/></g></svg>