<?xml version="1.0" standalone="no"?><!DOCTYPE svg PUBLIC "-//W3C//DTD SVG 1.1//EN" "http://www.w3.org/Graphics/SVG/1.1/DTD/svg11.dtd"><svg xmlns="http://www.w3.org/2000/svg" version="1.1" width="558px" height="31.5px" viewBox="0 -4 558 31.5" style="top:-4px"><desc>Why buying a Meriton apartment should be your only choice</desc><defs/><g id="Polygon15440"><path d="m17.7 1.6h2.6l-3.5 14.3h-3.3L11.1 4.8l-2.5 11.1H5.3L1.8 1.6h2.6L7 13.3L9.6 1.6h3l2.6 11.7l2.5-11.7zm4.4 14.3V1.6h2.3v5.6c.6-1 1.7-1.7 3.2-1.7c2.4 0 3.6 1.6 3.6 3.8c-.01-.02 0 6.6 0 6.6h-2.4s.04-6.27 0-6.3c0-1.3-.6-2.2-1.8-2.2h-.1c-1.3 0-2.5 1.2-2.5 2.8v5.7h-2.3zM43.3 5.7L39 15.3s-.04 2.18 0 2.2c0 1.6-.9 2.4-2.5 2.4c.03.03-3.5 0-3.5 0v-2s2.73-.03 2.7 0c.8 0 1-.2 1-1c.03-.01 0-1.5 0-1.5l-4.4-9.7h2.6l3 6.8l2.8-6.8h2.6zm7.8 8.9c-.03-.02 0 1.3 0 1.3h-2.4V1.6h2.4s-.03 5.49 0 5.5c.4-.8 1.6-1.6 3-1.6c2.8 0 4.6 2.3 4.6 5.3c0 3.1-1.7 5.4-4.5 5.4c-1.4 0-2.7-.8-3.1-1.6zm2.7-.4c1.4 0 2.5-1.2 2.5-3.4c0-2.1-1.1-3.4-2.5-3.4h-.2c-1.3 0-2.5 1.3-2.5 3.4c0 2.2 1.2 3.4 2.5 3.4h.2zm7-1.9c.03.05 0-6.6 0-6.6h2.4s-.02 6.3 0 6.3c0 1.5.6 2.2 1.7 2.2h.2c1.2 0 2.3-1.2 2.3-2.9V5.7h2.4v10.2h-2.4v-1.6c-.5 1-1.6 1.9-3.1 1.9c-2.3 0-3.5-1.6-3.5-3.9zm21.5-6.6L78 15.3s.05 2.18 0 2.2c0 1.6-.8 2.4-2.4 2.4c.01.03-3.6 0-3.6 0v-2s2.82-.03 2.8 0c.8 0 1-.2 1-1c.02-.01 0-1.5 0-1.5l-4.4-9.7h2.6l2.9 6.8l2.9-6.8h2.5zm1.5-1.5V1.6h2.6v2.6h-2.6zm.1 11.7V5.7h2.4v10.2h-2.4zm5.1 0V5.7h2.4s-.05 1.5 0 1.5c.6-1 1.7-1.7 3.1-1.7c2.4 0 3.6 1.6 3.6 3.8c.04-.02 0 6.6 0 6.6h-2.3V9.6c0-1.3-.6-2.2-1.8-2.2h-.2c-1.3 0-2.4 1.2-2.4 2.8c-.05.04 0 5.7 0 5.7H89zm11.1 1.3h2.3c.2.8 1.1 1.3 2.5 1.3h.1c1.5 0 2.7-.8 2.7-2.7v-1.4c-.6 1-1.7 1.5-3 1.5c-2.3 0-4.5-1.7-4.5-5.2c0-3.4 2.1-5.2 4.5-5.2c1.3 0 2.4.6 3 1.5c-.04.03 0-1.3 0-1.3h2.3v10.4c0 2.3-1.8 4.3-5.2 4.3c-2.7 0-4.6-1.3-4.7-3.2zm5.1-3.2c1.3 0 2.5-1.2 2.5-3.3c0-2-1.1-3.3-2.5-3.3h-.1c-1.4 0-2.5 1.1-2.5 3.3c0 2.2 1.1 3.3 2.4 3.3h.2zm11-.9c0-2.2 1.9-3.1 3.7-3.2c.03-.05 2.7-.3 2.7-.3v-.3c0-1.1-.7-1.9-1.8-1.9h-.2c-1 0-1.8.6-1.9 1.4h-2.3c.2-1.9 1.8-3.3 4.3-3.3c2.6 0 4.2 1.5 4.2 3.8v4.4c0 .6 0 1.5.1 2.2h-2.2c-.1-.3-.1-1.1-.1-1.4c-.5.9-1.7 1.7-3.2 1.7c-1.8 0-3.3-1.3-3.3-3.1zm3.9 1.1c1.2 0 2.5-.9 2.5-2.2v-.6l-2.4.2c-.8.1-1.7.5-1.7 1.4c0 .7.6 1.2 1.5 1.2h.1zm23.4-12.6h3.9v14.3h-2.5V4.1l-3.8 11.8h-2.9l-3.9-11.7v11.7h-2.4V1.6h3.9l3.9 11.8l3.8-11.8zm6.4 9.2c0-3.2 2-5.3 4.8-5.3c2.9 0 4.6 2.1 4.6 4.9c0 .4-.1.7-.1 1h-7c.1 1.8 1.4 2.8 2.6 2.8h.1c1 0 1.8-.5 2-1.4h2.3c-.4 2-2.1 3.4-4.4 3.4c-2.6 0-4.9-1.9-4.9-5.4zm7-1.2c0-1.4-1-2.2-2.1-2.2h-.2c-1.1 0-2.2.7-2.3 2.2h4.6zm4.6 6.3V5.7h2.4s-.05 2.15 0 2.2c.4-1.5 1.5-2.3 2.9-2.3c.01.02.7 0 .7 0v2.2s-.87.03-.9 0c-1.7 0-2.7 1-2.7 2.9v5.2h-2.4zm7.6-11.7V1.6h2.6v2.6h-2.6zm.1 11.7V5.7h2.4v10.2h-2.4zm8.7 0c-1.6 0-2.5-.8-2.5-2.4V7.7h-2.2v-2h2.2V2.4h2.3v3.3h2.4v2h-2.4s.04 5.22 0 5.2c0 .8.2 1 1 1c.04.02 1.7 0 1.7 0v2s-2.54.05-2.5 0zm3.6-5.1c0-3.1 2.1-5.3 5-5.3c3 0 5.1 2.2 5.1 5.3c0 3.1-2.1 5.4-5.1 5.4c-2.9 0-5-2.3-5-5.4zm5.1 3.4c1.6 0 2.6-1.2 2.6-3.4c0-2.1-1-3.4-2.6-3.4h-.1c-1.6 0-2.6 1.3-2.6 3.4c0 2.2 1 3.4 2.6 3.4h.1zm7.2 1.7V5.7h2.3s.02 1.5 0 1.5c.6-1 1.7-1.7 3.2-1.7c2.4 0 3.6 1.6 3.6 3.8v6.6h-2.3s-.05-6.27 0-6.3c0-1.3-.7-2.2-1.9-2.2h-.1c-1.3 0-2.5 1.2-2.5 2.8c.02.04 0 5.7 0 5.7h-2.3zm15.2-2.8c0-2.2 1.8-3.1 3.7-3.2c0-.05 2.7-.3 2.7-.3c0 0-.02-.26 0-.3c0-1.1-.7-1.9-1.9-1.9h-.1c-1.1 0-1.8.6-1.9 1.4h-2.3c.1-1.9 1.8-3.3 4.2-3.3c2.7 0 4.3 1.5 4.3 3.8v4.4c0 .6 0 1.5.1 2.2h-2.2c-.1-.3-.1-1.1-.1-1.4c-.6.9-1.7 1.7-3.2 1.7c-1.9 0-3.3-1.3-3.3-3.1zm3.9 1.1c1.2 0 2.5-.9 2.5-2.2c-.02-.02 0-.6 0-.6l-2.4.2c-.9.1-1.7.5-1.7 1.4c0 .7.6 1.2 1.4 1.2h.2zm7.5 5.8V5.7h2.3v1.4c.5-.8 1.7-1.6 3.1-1.6c2.8 0 4.5 2.3 4.5 5.3c0 3.1-1.7 5.4-4.6 5.4c-1.4 0-2.5-.8-3-1.6v5.4h-2.3zm5-5.8c1.5 0 2.6-1.2 2.6-3.4c0-2.1-1.1-3.4-2.6-3.4h-.1c-1.3 0-2.6 1.3-2.6 3.4c0 2.2 1.3 3.4 2.6 3.4h.1zm6.5-1.1c0-2.2 1.9-3.1 3.8-3.2c-.02-.05 2.7-.3 2.7-.3c0 0-.04-.26 0-.3c0-1.1-.8-1.9-1.9-1.9h-.2c-1 0-1.7.6-1.8 1.4h-2.4c.2-1.9 1.9-3.3 4.3-3.3c2.7 0 4.2 1.5 4.2 3.8v4.4c0 .6 0 1.5.1 2.2h-2.2c0-.3-.1-1.1-.1-1.4c-.5.9-1.6 1.7-3.1 1.7c-1.9 0-3.4-1.3-3.4-3.1zm4 1.1c1.2 0 2.5-.9 2.5-2.2c-.04-.02 0-.6 0-.6c0 0-2.41.19-2.4.2c-.9.1-1.7.5-1.7 1.4c0 .7.6 1.2 1.4 1.2h.2zm7.4 1.7V5.7h2.3s.04 2.15 0 2.2c.4-1.5 1.6-2.3 3-2.3c0 .02.7 0 .7 0v2.2s-.88.03-.9 0c-1.8 0-2.7 1-2.7 2.9c-.02-.01 0 5.2 0 5.2h-2.4zm11.8 0c-1.6 0-2.5-.8-2.5-2.4c.03-.03 0-5.8 0-5.8h-2.1v-2h2.1V2.4h2.4v3.3h2.3v2H255s-.02 5.22 0 5.2c0 .8.2 1 1 1c-.02.02 1.6 0 1.6 0v2s-2.5.05-2.5 0zm4.4 0V5.7h2.3s.03 1.48 0 1.5c.7-1.1 1.8-1.7 3.1-1.7c1.4 0 2.6.6 3.2 1.8c.8-1.3 2.1-1.8 3.4-1.8c2.5 0 3.7 1.6 3.7 3.8c-.04.02 0 6.6 0 6.6h-2.4V9.7c0-1.4-.5-2.2-1.8-2.2h-.1c-1.3 0-2.4 1.1-2.4 2.7v5.7h-2.4s.04-6.21 0-6.2c0-1.4-.5-2.2-1.7-2.2h-.2c-1.2 0-2.4 1.1-2.4 2.7c.03.04 0 5.7 0 5.7h-2.3zm17.8-5.1c0-3.2 2-5.3 4.8-5.3c2.9 0 4.5 2.1 4.5 4.9v1h-7c.1 1.8 1.4 2.8 2.5 2.8h.2c1 0 1.8-.5 2-1.4h2.3c-.4 2-2.1 3.4-4.5 3.4c-2.5 0-4.8-1.9-4.8-5.4zm7-1.2c-.1-1.4-1-2.2-2.2-2.2h-.1c-1.1 0-2.2.7-2.4 2.2h4.7zm4.6 6.3V5.7h2.4s-.02 1.5 0 1.5c.6-1 1.7-1.7 3.1-1.7c2.5 0 3.7 1.6 3.7 3.8c-.04-.02 0 6.6 0 6.6h-2.4V9.6c0-1.3-.6-2.2-1.8-2.2h-.2c-1.3 0-2.4 1.2-2.4 2.8c-.02.04 0 5.7 0 5.7h-2.4zm15.4 0c-1.6 0-2.5-.8-2.5-2.4c-.02-.03 0-5.8 0-5.8h-2.2v-2h2.2V2.4h2.3v3.3h2.4v2h-2.4s.03 5.22 0 5.2c0 .8.2 1 1 1c.03.02 1.7 0 1.7 0v2s-2.55.05-2.5 0zm7.7-3.2h2.4c0 1 .8 1.6 1.9 1.6h.2c.9 0 1.6-.5 1.6-1.2c0-.5-.3-.9-1.2-1.1l-1.4-.3c-1.9-.5-3.1-1.3-3.1-3c0-2 1.7-3.2 4-3.2c2.7 0 4.1 1.4 4.1 3.5h-2.3c-.1-.9-.7-1.6-1.8-1.6h-.1c-.9 0-1.6.4-1.6 1.1c0 .6.5 1 1.4 1.2l1.5.3c1.8.4 2.8 1.3 2.8 3c0 1.8-1.5 3.2-4.1 3.2c-2.7 0-4.3-1.4-4.3-3.5zm10.8 3.2V1.6h2.3s.04 5.6 0 5.6c.7-1 1.8-1.7 3.2-1.7c2.4 0 3.6 1.6 3.6 3.8c.03-.02 0 6.6 0 6.6h-2.3s-.02-6.27 0-6.3c0-1.3-.6-2.2-1.8-2.2h-.2c-1.3 0-2.5 1.2-2.5 2.8c.04.04 0 5.7 0 5.7h-2.3zm11.2-5.1c0-3.1 2.1-5.3 5-5.3c3 0 5.1 2.2 5.1 5.3c0 3.1-2.1 5.4-5.1 5.4c-2.9 0-5-2.3-5-5.4zm5.1 3.4c1.6 0 2.6-1.2 2.6-3.4c0-2.1-1-3.4-2.6-3.4h-.1c-1.5 0-2.6 1.3-2.6 3.4c0 2.2 1.1 3.4 2.6 3.4h.1zm7.1-1.9c-.01.05 0-6.6 0-6.6h2.3s.04 6.3 0 6.3c0 1.5.7 2.2 1.8 2.2h.2c1.2 0 2.3-1.2 2.3-2.9c-.03.05 0-5.6 0-5.6h2.3v10.2h-2.3s-.03-1.63 0-1.6c-.5 1-1.6 1.9-3.1 1.9c-2.4 0-3.5-1.6-3.5-3.9zm11.7 3.6V1.6h2.3v14.3h-2.3zm4.6-5.1c0-3 1.7-5.3 4.5-5.3c1.5 0 2.6.8 3.1 1.6c-.04-.01 0-5.5 0-5.5h2.3v14.3h-2.3s-.04-1.32 0-1.3c-.5.8-1.7 1.6-3.2 1.6c-2.7 0-4.4-2.3-4.4-5.4zm5 3.4c1.3 0 2.6-1.2 2.6-3.4c0-2.1-1.3-3.4-2.6-3.4h-.2c-1.4 0-2.5 1.3-2.5 3.4c0 2.2 1.1 3.4 2.5 3.4h.2zm14 .4c.04-.02 0 1.3 0 1.3h-2.3V1.6h2.3s.04 5.49 0 5.5c.5-.8 1.7-1.6 3.1-1.6c2.8 0 4.5 2.3 4.5 5.3c0 3.1-1.6 5.4-4.4 5.4c-1.5 0-2.7-.8-3.2-1.6zm2.8-.4c1.4 0 2.5-1.2 2.5-3.4c0-2.1-1.1-3.4-2.5-3.4h-.2c-1.3 0-2.6 1.3-2.6 3.4c0 2.2 1.3 3.4 2.6 3.4h.2zm6.5-3.4c0-3.2 2.1-5.3 4.8-5.3c2.9 0 4.6 2.1 4.6 4.9c0 .4 0 .7-.1 1h-7c.1 1.8 1.4 2.8 2.6 2.8h.1c1 0 1.8-.5 2-1.4h2.3c-.4 2-2.1 3.4-4.4 3.4c-2.6 0-4.9-1.9-4.9-5.4zm7.1-1.2c-.1-1.4-1.1-2.2-2.2-2.2h-.2c-1.1 0-2.1.7-2.3 2.2h4.7zm18.3-3.9l-4.3 9.6s.02 2.18 0 2.2c0 1.6-.8 2.4-2.4 2.4c-.01.03-3.6 0-3.6 0v-2s2.79-.03 2.8 0c.8 0 1-.2 1-1v-1.5l-4.4-9.7h2.6l2.9 6.8l2.9-6.8h2.5zm.5 5.1c0-3.1 2.1-5.3 5-5.3c3 0 5.1 2.2 5.1 5.3c0 3.1-2.1 5.4-5.1 5.4c-2.9 0-5-2.3-5-5.4zm5.1 3.4c1.6 0 2.6-1.2 2.6-3.4c0-2.1-1-3.4-2.6-3.4h-.1c-1.6 0-2.6 1.3-2.6 3.4c0 2.2 1 3.4 2.6 3.4h.1zm7.1-1.9c-.02.05 0-6.6 0-6.6h2.3s.03 6.3 0 6.3c0 1.5.6 2.2 1.8 2.2h.2c1.2 0 2.3-1.2 2.3-2.9c-.04.05 0-5.6 0-5.6h2.3v10.2h-2.3s-.04-1.63 0-1.6c-.5 1-1.7 1.9-3.1 1.9c-2.4 0-3.5-1.6-3.5-3.9zm11.7 3.6V5.7h2.3s-.03 2.15 0 2.2c.4-1.5 1.5-2.3 2.9-2.3c.04.02.7 0 .7 0v2.2s-.85.03-.8 0c-1.8 0-2.8 1-2.8 2.9c.02-.01 0 5.2 0 5.2h-2.3zm11.1-5.1c0-3.1 2.1-5.3 5-5.3c2.9 0 5 2.2 5 5.3c0 3.1-2.1 5.4-5 5.4c-2.9 0-5-2.3-5-5.4zm5.1 3.4c1.5 0 2.6-1.2 2.6-3.4c0-2.1-1.1-3.4-2.6-3.4h-.2c-1.5 0-2.6 1.3-2.6 3.4c0 2.2 1.1 3.4 2.6 3.4h.2zm7.1 1.7V5.7h2.4s-.02 1.5 0 1.5c.6-1 1.7-1.7 3.1-1.7c2.5 0 3.7 1.6 3.7 3.8c-.04-.02 0 6.6 0 6.6h-2.4V9.6c0-1.3-.6-2.2-1.8-2.2h-.2c-1.3 0-2.4 1.2-2.4 2.8c-.02.04 0 5.7 0 5.7h-2.4zm11.9 0V1.6h2.3v14.3h-2.3zm14.9-10.2l-4.3 9.6s-.02 2.18 0 2.2c0 1.6-.9 2.4-2.5 2.4c.05.03-3.5 0-3.5 0v-2s2.75-.03 2.7 0c.8 0 1-.2 1-1c.05-.01 0-1.5 0-1.5l-4.3-9.7h2.6l2.9 6.8l2.8-6.8h2.6zm4.9 5.1c0-3.1 1.9-5.3 4.9-5.3c2.5 0 4.2 1.3 4.4 3.7h-2.4c-.1-1-.8-1.8-1.9-1.8h-.2c-1.7 0-2.5 1.6-2.5 3.4c0 1.9.8 3.4 2.5 3.4h.2c1.1 0 1.8-.7 1.9-1.7h2.4c-.2 2.4-1.9 3.7-4.4 3.7c-3 0-4.9-2.2-4.9-5.4zm11.5 5.1V1.6h2.3v5.6c.6-1 1.7-1.7 3.2-1.7c2.4 0 3.6 1.6 3.6 3.8c-.01-.02 0 6.6 0 6.6h-2.4s.04-6.27 0-6.3c0-1.3-.6-2.2-1.8-2.2h-.1c-1.4 0-2.5 1.2-2.5 2.8v5.7h-2.3zm11.2-5.1c0-3.1 2.1-5.3 5-5.3c3 0 5 2.2 5 5.3c0 3.1-2 5.4-5 5.4c-2.9 0-5-2.3-5-5.4zm5.1 3.4c1.5 0 2.6-1.2 2.6-3.4c0-2.1-1.1-3.4-2.6-3.4h-.2c-1.5 0-2.6 1.3-2.6 3.4c0 2.2 1.1 3.4 2.6 3.4h.2zm7-10V1.6h2.6v2.6h-2.6zm.1 11.7V5.7h2.4v10.2h-2.4zm4.5-5.1c0-3.1 2-5.3 4.9-5.3c2.6 0 4.3 1.3 4.5 3.7H542c-.2-1-.8-1.8-2-1.8h-.1c-1.8 0-2.5 1.6-2.5 3.4c0 1.9.7 3.4 2.5 3.4h.1c1.2 0 1.8-.7 2-1.7h2.4c-.2 2.4-1.9 3.7-4.5 3.7c-2.9 0-4.9-2.2-4.9-5.4zm10.9 0c0-3.2 2-5.3 4.8-5.3c2.9 0 4.6 2.1 4.6 4.9c0 .4-.1.7-.1 1h-7c.1 1.8 1.4 2.8 2.6 2.8h.1c1 0 1.8-.5 2-1.4h2.3c-.4 2-2.1 3.4-4.4 3.4c-2.6 0-4.9-1.9-4.9-5.4zm7-1.2c0-1.4-1-2.2-2.1-2.2h-.2c-1.1 0-2.2.7-2.3 2.2h4.6z" stroke="none" fill="#192d39"/></g></svg>