<?xml version="1.0" standalone="no"?><!DOCTYPE svg PUBLIC "-//W3C//DTD SVG 1.1//EN" "http://www.w3.org/Graphics/SVG/1.1/DTD/svg11.dtd"><svg xmlns="http://www.w3.org/2000/svg" version="1.1" width="471px" height="133px" viewBox="0 -4 471 133" style="top:-4px"><desc>An uplifting lifestyle</desc><defs/><g id="Polygon21446"><path d="m3.4 60.9h3.4v32.7l18.5-1.1L25 95H3.4V60.9zM35.2 95h-3.5V60.9h3.5V95zm8.1 0V60.9h23.8l-.3 2.5l-20.1-1.2v14.7h15.7l-.3 2.6l-15.4-1.2V95h-3.4zm53.4-34.1v2.5l-20.1-1.2v14.7h15.7l-.4 2.6l-15.3-1.2v15.4L97 92.5l-.3 2.5H73.1V60.9h23.6zm19 34.1c-4.5 0-9.6-1.5-12.6-4.1v-4.7c2.9 4.7 7.8 7.4 12.7 7.4c6.1 0 9.8-2.7 9.8-6.4c0-4.1-2.1-6.5-10.7-10.1c-8.8-3.8-11.3-6.1-11.3-9.5c0-3.7 4.2-6.7 13.3-6.7c5.1 0 9.2 1.8 11.7 4v4.6c-2.9-4.7-7.8-7.1-12.6-7.3c-6 0-9.1 1.7-9.1 4.4c.1 2.6 2.4 4.6 9.7 7.6c8.5 3.5 12.6 7 12.6 11.7c0 5.1-3.9 9.1-13.5 9.1zm49.5-31.6l-14.3-1.2V95h-3.5V62.2l-14.2 1.2v-2.5h32v2.5zm35.3-2.5l-14 16.7V95H183V78.1l-14.5-17.2h4.5l12.6 15l12.6-15h2.3zm5.5 0h3.5v32.7l18.4-1.1l-.3 2.5H206V60.9zm51.4 0v2.5l-20.1-1.2v14.7H253l-.3 2.6l-15.4-1.2v15.4l20.4-1.2l-.3 2.5h-23.6V60.9h23.6z" stroke="none" fill="#dcddce"/></g><g id="Polygon21445"><path d="m.5 45l17.7-34.6L36 45h-3.9l-4.9-9.5H7.3L2.4 45H.5zm7.7-11.2h18.1l-9-17.6l-9.1 17.6zM41.8 45V10.9h1.4l28.1 28.7V10.9h1.7V45h-1.4l-28-28.7V45h-1.8zM103 10.9s.02 20.9 0 20.9c0 7 4.6 11.3 11.9 11.3c7.2 0 10.6-4.5 10.6-11.4c.02.04 0-20.8 0-20.8h1.8s-.04 20.84 0 20.8c0 8-4.5 13.3-14 13.3c-9.3 0-13.8-5.5-13.8-13.3c.04.04 0-20.8 0-20.8h3.5zm58.5 9.3c0 5.6-6 9.4-18.1 9.4c0-.02-4.7 0-4.7 0V45h-3.5V10.9s8.2-.04 8.2 0c12.1 0 18.1 3.7 18.1 9.3zm-22.8-8v16.1s4.7-.04 4.7 0c8.1 0 14.5-2.4 14.5-8.1c0-5.6-6.5-8-14.5-8c0 .04-4.7 0-4.7 0zm29.1-1.3h3.4v32.7l18.5-1.1l-.3 2.5h-21.6V10.9zM199.9 45h-3.5V10.9h3.5V45zm8.4 0V10.9h23.8l-.3 2.5l-20.1-1.2v14.7h15.7l-.3 2.6l-15.4-1.2V45h-3.4zm59.9-31.6l-14.3-1.2V45h-3.5V12.2l-14.2 1.2v-2.5h32v2.5zm9.7 31.6h-3.5V10.9h3.5V45zm8.4 0V10.9h1.4l28.1 28.7V10.9h1.7V45h-1.4l-28-28.7V45h-1.8zm66.2-4.2c-3.1 2.6-7.2 4.2-11.6 4.2c-9.4 0-17.1-7.6-17.1-17c0-9.5 7.7-17.1 17.1-17.1c4.4 0 8.7 1.5 11.6 4v4.8c-3.9-6.5-11.7-9-17.7-6.5c-6.8 2.9-9.7 11.8-6.4 19.9c2.8 6.5 8.4 10.4 14 10.4c1.6 0 3.2-.3 4.6-.9c.7-.2 1.4-.6 2.1-1c-.02-.02 0-12.8 0-12.8h3.4v12z" stroke="none" fill="#dcddce"/></g></svg>