<?xml version="1.0" standalone="no"?><!DOCTYPE svg PUBLIC "-//W3C//DTD SVG 1.1//EN" "http://www.w3.org/Graphics/SVG/1.1/DTD/svg11.dtd"><svg xmlns="http://www.w3.org/2000/svg" version="1.1" width="39px" height="15px" viewBox="0 -2 39 15" style="top:-2px"><desc>21</desc><defs/><g id="Polygon21102"><path d="m16.5 6.1h3.1v.9h-4.4v-1l2.1-2c.7-.6 1.1-1 1.1-1.6c0-.5-.4-.9-.9-.9h-.1c-.6 0-1.1.5-1.1 1.2h-1c0-1.3.9-2.1 2.1-2.1c1.2 0 2.1.7 2.1 1.8c0 .9-.6 1.4-1.3 2.2c-.05-.05-1.7 1.5-1.7 1.5zM22.1.7h.9v6.3h-1V2.2l-1.5 1.4V2.3L22.1.7z" stroke="none" fill="#192d39"/></g></svg>