<?xml version="1.0" standalone="no"?><!DOCTYPE svg PUBLIC "-//W3C//DTD SVG 1.1//EN" "http://www.w3.org/Graphics/SVG/1.1/DTD/svg11.dtd"><svg xmlns="http://www.w3.org/2000/svg" version="1.1" width="499.4px" height="25.5px" viewBox="0 -4 499.4 25.5" style="top:-4px"><desc>An innovation precinct and economic powerhouse</desc><defs/><g id="Polygon21665"><path d="m9.2 12.5L8.1 9.7h-5l-1 2.8h-2L4.5 1.3h2.3l4.4 11.2h-2zM3.8 8h3.6L5.6 3.3L3.8 8zm8.7 4.5v-8h1.8v1.1c.5-.7 1.3-1.3 2.5-1.3c1.9 0 2.8 1.2 2.8 3v5.2h-1.8s-.03-4.96 0-5c0-1-.5-1.7-1.5-1.7h-.1c-1 0-1.9.9-1.9 2.2v4.5h-1.8zm12.2-9.2v-2h2v2h-2zm.1 9.2v-8h1.9v8h-1.9zm4 0v-8h1.9s-.03 1.13 0 1.1c.4-.7 1.3-1.3 2.4-1.3c1.9 0 2.9 1.2 2.9 3c-.02-.04 0 5.2 0 5.2h-1.9s.04-4.96 0-5c0-1-.4-1.7-1.4-1.7h-.1c-1 0-1.9.9-1.9 2.2c-.03.02 0 4.5 0 4.5h-1.9zm9.3 0v-8h1.8s.04 1.13 0 1.1c.5-.7 1.4-1.3 2.5-1.3c1.9 0 2.9 1.2 2.9 3c-.04-.04 0 5.2 0 5.2h-1.9s.02-4.96 0-5c0-1-.5-1.7-1.4-1.7h-.1c-1.1 0-2 .9-2 2.2c.04.02 0 4.5 0 4.5h-1.8zm8.8-4c0-2.5 1.7-4.2 4-4.2c2.3 0 3.9 1.7 3.9 4.2c0 2.4-1.6 4.1-3.9 4.1c-2.3 0-4-1.7-4-4.1zm4 2.6c1.2 0 2-.9 2-2.6c0-1.7-.8-2.7-2-2.7h-.1c-1.2 0-2 1-2 2.7c0 1.7.8 2.6 2 2.6h.1zm10.8-6.6h1.9l-2.9 8h-2.5l-2.8-8h1.9l2.2 6.5l2.2-6.5zm2.5 5.8c0-1.8 1.5-2.5 3-2.6l2.1-.2s-.04-.19 0-.2c0-.9-.6-1.5-1.5-1.5h-.1c-.8 0-1.4.5-1.5 1.1h-1.8c.1-1.5 1.4-2.6 3.3-2.6c2.1 0 3.4 1.2 3.4 3v5.2h-1.7c-.1-.3-.1-.9-.1-1.1c-.4.7-1.3 1.2-2.4 1.2c-1.5 0-2.7-.9-2.7-2.3zm3.1.8c1 0 2-.7 2-1.7c-.04-.02 0-.5 0-.5c0 0-1.89.17-1.9.2c-.7 0-1.3.4-1.3 1.1c0 .5.4.9 1.1.9h.1zm8.6 1.4c-1.2 0-1.9-.7-1.9-2c-.02.04 0-4.5 0-4.5h-1.7V4.5h1.7V1.9h1.8v2.6h1.9v1.5h-1.9s.02 4.11 0 4.1c0 .6.2.8.8.8h1.3v1.6s-1.99-.02-2 0zm3.3-9.2v-2h2v2h-2zm.1 9.2v-8h1.9v8h-1.9zm3.6-4c0-2.5 1.6-4.2 3.9-4.2c2.3 0 3.9 1.7 3.9 4.2c0 2.4-1.6 4.1-3.9 4.1c-2.3 0-3.9-1.7-3.9-4.1zm4 2.6c1.2 0 2-.9 2-2.6c0-1.7-.8-2.7-2-2.7h-.2c-1.1 0-2 1-2 2.7c0 1.7.9 2.6 2 2.6h.2zm5.6 1.4v-8h1.8s.02 1.13 0 1.1c.5-.7 1.4-1.3 2.5-1.3c1.9 0 2.8 1.2 2.8 3c.03-.04 0 5.2 0 5.2h-1.8s-.01-4.96 0-5c0-1-.5-1.7-1.4-1.7h-.2c-1 0-1.9.9-1.9 2.2c.02.02 0 4.5 0 4.5h-1.8zm12.3 3.2V4.5h1.9s-.02 1.05 0 1.1c.3-.7 1.3-1.3 2.4-1.3c2.2 0 3.5 1.8 3.5 4.2c0 2.3-1.3 4.1-3.5 4.1c-1.2 0-2.1-.6-2.4-1.2c-.02.01 0 4.3 0 4.3h-1.9zm4-4.6c1.1 0 2-.9 2-2.6c0-1.7-.9-2.7-2-2.7h-.1c-1 0-2 1-2 2.7c0 1.7 1 2.6 2 2.6h.1zm5.6 1.4v-8h1.8v1.6c.3-1.1 1.2-1.7 2.3-1.7h.6v1.7s-.71.03-.7 0c-1.4 0-2.2.8-2.2 2.3c.04-.03 0 4.1 0 4.1h-1.8zm5.6-4c0-2.6 1.6-4.2 3.8-4.2c2.2 0 3.5 1.6 3.5 3.8v.9h-5.5c.1 1.4 1.1 2.1 2 2.1h.1c.8 0 1.4-.4 1.6-1.1h1.8c-.4 1.6-1.7 2.6-3.5 2.6c-2 0-3.8-1.4-3.8-4.1zm5.5-1c-.1-1.1-.8-1.7-1.7-1.7h-.1c-.9 0-1.7.6-1.9 1.7h3.7zm3.2 1c0-2.5 1.5-4.2 3.9-4.2c1.9 0 3.2 1 3.4 2.9h-1.8c-.2-.8-.7-1.4-1.6-1.4h-.1c-1.4 0-1.9 1.3-1.9 2.7c0 1.4.5 2.6 1.9 2.6h.1c.9 0 1.4-.5 1.6-1.4h1.8c-.2 1.9-1.5 2.9-3.4 2.9c-2.4 0-3.9-1.7-3.9-4.1zm8.9-5.2v-2h2v2h-2zm.1 9.2v-8h1.8v8h-1.8zm4 0v-8h1.9s-.04 1.13 0 1.1c.4-.7 1.3-1.3 2.4-1.3c1.9 0 2.9 1.2 2.9 3c-.03-.04 0 5.2 0 5.2H147s.03-4.96 0-5c0-1-.4-1.7-1.4-1.7h-.1c-1 0-1.9.9-1.9 2.2c-.04.02 0 4.5 0 4.5h-1.9zm8.9-4c0-2.5 1.5-4.2 3.8-4.2c2 0 3.3 1 3.5 2.9H156c-.1-.8-.7-1.4-1.5-1.4h-.2c-1.3 0-1.9 1.3-1.9 2.7c0 1.4.6 2.6 1.9 2.6h.2c.8 0 1.4-.5 1.5-1.4h1.9c-.2 1.9-1.5 2.9-3.5 2.9c-2.3 0-3.8-1.7-3.8-4.1zm11.9 4c-1.3 0-2-.7-2-2c.03.04 0-4.5 0-4.5h-1.7V4.5h1.7V1.9h1.9v2.6h1.8v1.5h-1.8s-.03 4.11 0 4.1c0 .6.1.8.8.8h1.2v1.6s-1.94-.02-1.9 0zm6.1-2.2c0-1.8 1.5-2.5 3-2.6l2.1-.2s-.05-.19 0-.2c0-.9-.6-1.5-1.5-1.5h-.1c-.8 0-1.4.5-1.5 1.1h-1.8c.1-1.5 1.4-2.6 3.3-2.6c2.1 0 3.3 1.2 3.3 3v3.4c0 .5 0 1.2.1 1.8h-1.7c-.1-.3-.1-.9-.1-1.1c-.4.7-1.3 1.2-2.4 1.2c-1.5 0-2.7-.9-2.7-2.3zm3.1.8c.9 0 2-.7 2-1.7c-.05-.02 0-.5 0-.5c0 0-1.9.17-1.9.2c-.7 0-1.3.4-1.3 1.1c0 .5.4.9 1.1.9h.1zm5.9 1.4v-8h1.8s.01 1.13 0 1.1c.5-.7 1.4-1.3 2.5-1.3c1.9 0 2.8 1.2 2.8 3c.02-.04 0 5.2 0 5.2h-1.8s-.02-4.96 0-5c0-1-.5-1.7-1.4-1.7h-.2c-1 0-1.9.9-1.9 2.2v4.5h-1.8zm8.8-4c0-2.4 1.4-4.2 3.6-4.2c1.1 0 2 .6 2.4 1.3c-.03-.05 0-4.3 0-4.3h1.8v11.2h-1.8s-.03-1.09 0-1.1c-.4.6-1.4 1.2-2.5 1.2c-2.2 0-3.5-1.8-3.5-4.1zm4 2.6c1 0 2-.9 2-2.6c0-1.7-1-2.7-2-2.7h-.2c-1.1 0-1.9 1-1.9 2.7c0 1.7.8 2.6 1.9 2.6h.2zm8.7-2.6c0-2.6 1.5-4.2 3.7-4.2c2.3 0 3.6 1.6 3.6 3.8c0 .3 0 .6-.1.9h-5.4c.1 1.4 1 2.1 2 2.1h.1c.8 0 1.4-.4 1.5-1.1h1.8c-.3 1.6-1.6 2.6-3.4 2.6c-2 0-3.8-1.4-3.8-4.1zm5.5-1c-.1-1.1-.9-1.7-1.7-1.7h-.2c-.8 0-1.7.6-1.8 1.7h3.7zm3.2 1c0-2.5 1.5-4.2 3.8-4.2c2 0 3.3 1 3.5 2.9h-1.9c-.1-.8-.6-1.4-1.5-1.4h-.2c-1.3 0-1.9 1.3-1.9 2.7c0 1.4.6 2.6 1.9 2.6h.2c.9 0 1.4-.5 1.5-1.4h1.9c-.2 1.9-1.5 2.9-3.5 2.9c-2.3 0-3.8-1.7-3.8-4.1zm8.5 0c0-2.5 1.6-4.2 3.9-4.2c2.3 0 4 1.7 4 4.2c0 2.4-1.7 4.1-4 4.1c-2.3 0-3.9-1.7-3.9-4.1zm4 2.6c1.2 0 2-.9 2-2.6c0-1.7-.8-2.7-2-2.7h-.1c-1.2 0-2.1 1-2.1 2.7c0 1.7.9 2.6 2.1 2.6h.1zm5.6 1.4v-8h1.8s.03 1.13 0 1.1c.5-.7 1.4-1.3 2.5-1.3c1.9 0 2.8 1.2 2.8 3c.04-.04 0 5.2 0 5.2h-1.8v-5c0-1-.5-1.7-1.4-1.7h-.1c-1.1 0-2 .9-2 2.2c.03.02 0 4.5 0 4.5h-1.8zm8.8-4c0-2.5 1.7-4.2 3.9-4.2c2.3 0 4 1.7 4 4.2c0 2.4-1.7 4.1-4 4.1c-2.2 0-3.9-1.7-3.9-4.1zm4 2.6c1.2 0 2-.9 2-2.6c0-1.7-.8-2.7-2-2.7h-.1c-1.2 0-2 1-2 2.7c0 1.7.8 2.6 2 2.6h.1zm5.6 1.4v-8h1.9s-.04 1.12 0 1.1c.5-.8 1.4-1.3 2.4-1.3c1.1 0 2 .5 2.5 1.4c.6-1 1.6-1.4 2.6-1.4c2 0 2.9 1.3 2.9 3v5.2h-1.9s.05-4.92 0-4.9c0-1.1-.4-1.7-1.3-1.7h-.2c-.9 0-1.8.8-1.8 2.1c-.03.02 0 4.5 0 4.5h-1.9s.03-4.92 0-4.9c0-1.1-.4-1.7-1.4-1.7h-.1c-1 0-1.8.8-1.8 2.1c-.04.02 0 4.5 0 4.5h-1.9zm14.3-9.2v-2h2v2h-2zm.1 9.2v-8h1.9v8h-1.9zm3.6-4c0-2.5 1.5-4.2 3.8-4.2c2 0 3.3 1 3.5 2.9h-1.9c-.1-.8-.6-1.4-1.5-1.4h-.1c-1.4 0-2 1.3-2 2.7c0 1.4.6 2.6 2 2.6h.1c.9 0 1.4-.5 1.5-1.4h1.9c-.2 1.9-1.5 2.9-3.5 2.9c-2.3 0-3.8-1.7-3.8-4.1zm12.1 7.2V4.5h1.8s-.01 1.05 0 1.1c.4-.7 1.3-1.3 2.4-1.3c2.2 0 3.5 1.8 3.5 4.2c0 2.3-1.3 4.1-3.5 4.1c-1.1 0-2-.6-2.4-1.2v4.3h-1.8zm3.9-4.6c1.2 0 2-.9 2-2.6c0-1.7-.8-2.7-2-2.7h-.1c-1 0-2 1-2 2.7c0 1.7 1 2.6 2 2.6h.1zm5.2-2.6c0-2.5 1.6-4.2 3.9-4.2c2.3 0 3.9 1.7 3.9 4.2c0 2.4-1.6 4.1-3.9 4.1c-2.3 0-3.9-1.7-3.9-4.1zm4 2.6c1.2 0 2-.9 2-2.6c0-1.7-.8-2.7-2-2.7h-.2c-1.1 0-2 1-2 2.7c0 1.7.9 2.6 2 2.6h.2zm14.7-6.6h1.8l-2.4 8h-2L298 6.6l-1.5 5.9h-2.1l-2.4-8h1.9l1.6 6.1l1.5-6.1h2l1.6 6.1l1.6-6.1zm2.5 4c0-2.6 1.6-4.2 3.8-4.2c2.3 0 3.5 1.6 3.5 3.8v.9h-5.5c.1 1.4 1.1 2.1 2 2.1h.2c.7 0 1.3-.4 1.5-1.1h1.8c-.3 1.6-1.6 2.6-3.5 2.6c-2 0-3.8-1.4-3.8-4.1zm5.5-1c0-1.1-.8-1.7-1.7-1.7h-.1c-.9 0-1.7.6-1.8 1.7h3.6zm3.7 5v-8h1.8s-.03 1.64 0 1.6c.3-1.1 1.2-1.7 2.3-1.7h.5v1.7s-.65.03-.7 0c-1.3 0-2.1.8-2.1 2.3v4.1h-1.8zm6 0V1.3h1.8s.03 4.33 0 4.3c.5-.7 1.4-1.3 2.5-1.3c1.9 0 2.8 1.2 2.8 3c.04-.04 0 5.2 0 5.2h-1.8v-5c0-1-.5-1.7-1.4-1.7h-.2c-1 0-1.9.9-1.9 2.2c.03.02 0 4.5 0 4.5h-1.8zm8.8-4c0-2.5 1.6-4.2 3.9-4.2c2.3 0 4 1.7 4 4.2c0 2.4-1.7 4.1-4 4.1c-2.3 0-3.9-1.7-3.9-4.1zm4 2.6c1.2 0 2-.9 2-2.6c0-1.7-.8-2.7-2-2.7h-.1c-1.2 0-2 1-2 2.7c0 1.7.8 2.6 2 2.6h.1zm5.5-1.4c.05-.04 0-5.2 0-5.2h1.9v4.9c0 1.1.5 1.7 1.4 1.7h.1c1 0 1.8-.9 1.8-2.2V4.5h1.8v8h-1.8v-1.3c-.4.8-1.3 1.4-2.4 1.4c-1.9 0-2.8-1.2-2.8-2.9zm8.7.2h1.9c0 .8.6 1.3 1.5 1.3h.1c.8 0 1.3-.4 1.3-.9c0-.5-.3-.8-1-.9l-1.1-.2c-1.5-.4-2.4-1.1-2.4-2.4c0-1.5 1.3-2.5 3.2-2.5c2 0 3.2 1.1 3.2 2.7h-1.9c0-.7-.5-1.2-1.3-1.2h-.1c-.7 0-1.3.3-1.3.9c0 .5.4.7 1.1.9l1.2.2c1.4.4 2.2 1.1 2.2 2.4c0 1.4-1.2 2.4-3.2 2.4c-2.2 0-3.4-1-3.4-2.7zm8-1.4c0-2.6 1.6-4.2 3.7-4.2c2.3 0 3.6 1.6 3.6 3.8v.9h-5.5c.1 1.4 1.1 2.1 2 2.1h.1c.8 0 1.4-.4 1.5-1.1h1.9c-.4 1.6-1.7 2.6-3.5 2.6c-2 0-3.8-1.4-3.8-4.1zm5.5-1c-.1-1.1-.8-1.7-1.7-1.7h-.2c-.8 0-1.6.6-1.8 1.7h3.7z" stroke="none" fill="#192d39"/></g></svg>