<?xml version="1.0" standalone="no"?><!DOCTYPE svg PUBLIC "-//W3C//DTD SVG 1.1//EN" "http://www.w3.org/Graphics/SVG/1.1/DTD/svg11.dtd"><svg xmlns="http://www.w3.org/2000/svg" version="1.1" width="159.3px" height="46.8px" viewBox="0 -2 159.3 46.8" style="top:-2px"><desc>Top 1%</desc><defs/><g id="Polygon22495"><path d="m19.4 7.8l-8.3-.6v19.1H9V7.2l-8.3.6V6.4h18.7v1.4zm21.2 8.6c0 5.5-4.5 9.9-10 9.9c-5.5 0-10-4.4-10-9.9c0-5.6 4.5-10 10-10c5.5 0 10 4.4 10 10zm-2.7-3.1c-2-4.7-6.8-7.1-10.8-5.4c-4 1.6-5.7 6.8-3.8 11.5c2 4.6 6.8 7.1 10.8 5.4c4-1.6 5.7-6.8 3.8-11.5zm22-1.5c0 3.3-3.5 5.5-10.6 5.5h-2.8v9h-2V6.4s4.77-.05 4.8 0c7.1 0 10.6 2.2 10.6 5.4zM46.5 7.2v9.3s2.77.03 2.8 0c4.7 0 8.4-1.4 8.4-4.7c0-3.2-3.7-4.6-8.4-4.6c-.03-.04-2.8 0-2.8 0zm31 19.1h-2s.01-17 0-17c-.8 1-1.8 1.7-2.9 2.2l-.3-.6c1.8-.8 3.5-2.3 4.1-4.5c.03-.05 1.1 0 1.1 0v19.9zm13.8-15.5c0 2.5-2 4.5-4.5 4.5c-2.4 0-4.4-2-4.4-4.5c0-2.4 2-4.4 4.4-4.4c2.5 0 4.5 2 4.5 4.4zM90 9.5c-.9-2-2.9-3-4.7-2.3c-1.7.7-2.4 2.9-1.6 4.9c.8 2 2.9 3.1 4.6 2.4c1.8-.7 2.5-3 1.7-5zm-3.1 16.8h-.8L98.3 6.4h.8L86.9 26.3zm7-4.4c0-2.5 2-4.5 4.4-4.5c2.5 0 4.5 2 4.5 4.5c0 2.4-2 4.4-4.5 4.4c-2.4 0-4.4-2-4.4-4.4zm1.3 1.3c.8 2 2.9 3 4.6 2.3c1.7-.7 2.5-2.9 1.6-4.9c-.8-2.1-2.8-3.1-4.6-2.4c-1.7.7-2.4 3-1.6 5z" stroke="none" fill="#192d39"/></g></svg>