<?xml version="1.0" standalone="no"?><!DOCTYPE svg PUBLIC "-//W3C//DTD SVG 1.1//EN" "http://www.w3.org/Graphics/SVG/1.1/DTD/svg11.dtd"><svg xmlns="http://www.w3.org/2000/svg" version="1.1" width="107.4px" height="93.8px" viewBox="0 -3 107.4 93.8" style="top:-3px"><desc>Over 78,000 apartments built by Meriton across Sydney, Canberra, Melbourne, Brisbane and the Gold Coast</desc><defs/><g id="Polygon15853"><path d="m2.5 59.5v-5.6s2.38-.04 2.4 0c.9 0 1.5.5 1.5 1.4c0 .7-.4 1.2-.9 1.4c.5 0 1.1.4 1.1 1.3c0 .9-.8 1.5-1.7 1.5c.04.03-2.4 0-2.4 0zm.6-3.1h1.7c.6 0 1.1-.4 1.1-1c0-.7-.5-1-1.1-1c.02-.01-1.7 0-1.7 0v2zm0 2.6h1.7c.7 0 1.2-.4 1.2-1c0-.7-.5-1.1-1.2-1.1c.02.02-1.7 0-1.7 0v2.1zm4.7.5v-4h.5s.01.9 0 .9c.2-.6.7-1 1.3-1c-.04.04.3 0 .3 0v.5s-.3.03-.3 0c-.8 0-1.3.6-1.3 1.7c.05-.04 0 1.9 0 1.9h-.5zm3-4.7v-.7h.6v.7h-.6zm.1 4.7v-4h.5v4h-.5zm1.6-1.2h.5c.1.6.5.9 1 .9h.1c.6 0 .9-.3.9-.8c0-.3-.1-.5-.7-.6l-.6-.1c-.6-.1-1.1-.4-1.1-1.1c0-.8.7-1.2 1.5-1.2c1 0 1.5.6 1.5 1.3h-.5c-.1-.4-.4-.9-1-.9h-.1c-.5 0-.8.4-.8.7c0 .4.2.6.7.7l.6.1c.6.1 1.1.4 1.1 1.1c0 .8-.6 1.2-1.5 1.2c-1.1 0-1.6-.5-1.6-1.3zm4.8.6v.6h-.5v-5.6h.5v2.2c.2-.4.8-.7 1.4-.7c1 0 1.8.8 1.8 2.1c0 1.3-.8 2.1-1.8 2.1c-.6 0-1.2-.3-1.4-.7zm1.3.3c.9 0 1.3-.8 1.3-1.7c0-.9-.4-1.7-1.3-1.7c-.9 0-1.3.8-1.3 1.7c0 .9.4 1.7 1.3 1.7zm2.8-.8c0-.9.8-1.2 1.4-1.2l1.3-.1s-.04-.16 0-.2c0-.7-.4-1.1-1.1-1.1c-.5 0-1 .3-1 .8h-.5c0-.7.7-1.2 1.5-1.2c1.1 0 1.6.7 1.6 1.5v2.6h-.5v-.6c-.2.4-.7.7-1.4.7c-.7 0-1.3-.5-1.3-1.2zm1.4.8c.6 0 1.3-.5 1.3-1.1c-.04-.03 0-.6 0-.6l-1.2.1c-.6.1-1 .3-1 .8c0 .4.4.8.8.8h.1zm3.1.3v-4h.6s-.04.66 0 .7c.2-.5.7-.8 1.4-.8c.8 0 1.4.5 1.4 1.5v2.6h-.5s-.03-2.46 0-2.5c0-.8-.4-1.2-1-1.2h-.1c-.8 0-1.2.8-1.2 1.7c-.04.01 0 2 0 2h-.6zm4.5-2c0-1.4.9-2.1 1.8-2.1c1 0 1.7.8 1.7 1.8c-.03.02 0 .3 0 .3c0 0-2.94.05-2.9 0c0 1.2.6 1.7 1.2 1.7h.1c.5 0 .9-.3 1-.8h.6c-.2.8-.8 1.2-1.7 1.2c-1 0-1.8-.7-1.8-2.1zm2.9-.4c0-.7-.4-1.3-1-1.3h-.1c-.5 0-1.1.3-1.2 1.3h2.3zm3 1.3c0-.9.8-1.2 1.4-1.2l1.3-.1v-.2c0-.7-.4-1.1-1-1.1h-.1c-.5 0-.9.3-1 .8h-.5c0-.7.7-1.2 1.6-1.2c1 0 1.5.7 1.5 1.5v1.7c0 .3 0 .6.1.9h-.5c-.1-.1-.1-.4-.1-.6c-.1.4-.7.7-1.4.7c-.7 0-1.3-.5-1.3-1.2zm1.4.8c.6 0 1.3-.5 1.3-1.1v-.6s-1.19.11-1.2.1c-.6.1-1 .3-1 .8c0 .4.4.8.9.8zm3.2.3v-4h.5v.7c.2-.5.7-.8 1.4-.8c.8 0 1.4.5 1.4 1.5c.02-.02 0 2.6 0 2.6h-.5V57c0-.8-.3-1.2-1-1.2c-.9 0-1.3.8-1.3 1.7v2h-.5zm4.5-2c0-1.3.7-2.1 1.8-2.1c.5 0 1.1.3 1.3.7c.02.03 0-2.2 0-2.2h.5v5.6h-.5s.02-.62 0-.6c-.2.4-.8.7-1.3.7c-1.1 0-1.8-.8-1.8-2.1zm1.8 1.7c.9 0 1.3-.8 1.3-1.7c0-.9-.4-1.7-1.3-1.7c-.9 0-1.3.8-1.3 1.7c0 .9.4 1.7 1.3 1.7zm5.9.3c-.5 0-.7-.2-.7-.7c-.04 0 0-2.9 0-2.9h-1v-.4h1v-1.3h.5v1.3h1v.4h-1v2.9c0 .2.1.3.3.3c.01-.02.8 0 .8 0v.4s-.87.03-.9 0zm1.9 0v-5.6h.5v2.3c.3-.5.8-.8 1.4-.8c.9 0 1.4.6 1.4 1.5c.02-.04 0 2.6 0 2.6h-.5V57c0-.8-.3-1.2-1-1.2h-.1c-.6 0-1.2.6-1.2 1.5c-.01.04 0 2.2 0 2.2h-.5zm4.5-2c0-1.4.8-2.1 1.8-2.1c1 0 1.6.8 1.6 1.8v.3s-2.91.05-2.9 0c0 1.2.6 1.7 1.3 1.7c.6 0 .9-.3 1.1-.8h.5c-.2.8-.8 1.2-1.6 1.2c-1 0-1.8-.7-1.8-2.1zm2.9-.4c0-.7-.5-1.3-1.1-1.3h-.1c-.5 0-1.1.3-1.2 1.3h2.4zm3-.4c0-1.7.9-2.9 2.6-2.9c1.3 0 2.1.8 2.3 1.9h-.6c-.1-.9-.7-1.4-1.6-1.4h-.1c-1.2 0-2.1.9-2.1 2.4c0 1.5.9 2.4 2.1 2.4h.1c.9 0 1.7-.6 1.7-1.6c-.02.01 0-.3 0-.3H68v-.5h1.8c.3 0 .5.2.5.5v2.3h-.5s-.02-.71 0-.7c-.4.5-1 .8-1.8.8c-1.7 0-2.6-1.2-2.6-2.9zm6 .8c0-1.2.8-2.1 1.9-2.1c1 0 1.9.9 1.9 2.1c0 1.3-.9 2.1-1.9 2.1c-1.1 0-1.9-.8-1.9-2.1zm1.9 1.7c.8 0 1.3-.7 1.3-1.7c0-1-.5-1.7-1.3-1.7c-.8 0-1.3.7-1.3 1.7c0 1 .5 1.7 1.3 1.7zm3 .3v-5.6h.5v5.6h-.5zm1.7-2c0-1.3.8-2.1 1.8-2.1c.5 0 1.1.3 1.4.7c-.03.03 0-2.2 0-2.2h.5v5.6h-.5s-.03-.62 0-.6c-.3.4-.9.7-1.4.7c-1 0-1.8-.8-1.8-2.1zm1.9 1.7c.8 0 1.3-.8 1.3-1.7c0-.9-.5-1.7-1.3-1.7h-.1c-.8 0-1.3.8-1.3 1.7c0 .9.5 1.7 1.3 1.7h.1zm4.5-2.5c0-1.7 1-2.9 2.6-2.9c1.2 0 2.1.8 2.2 1.8h-.6c-.1-.7-.6-1.3-1.6-1.3h-.1c-1.2 0-1.9 1.1-1.9 2.4c0 1.3.7 2.4 1.9 2.4h.1c1 0 1.5-.6 1.6-1.3h.6c-.1 1-1 1.8-2.2 1.8c-1.6 0-2.6-1.2-2.6-2.9zm5.7.8c0-1.2.8-2.1 1.9-2.1c1 0 1.9.9 1.9 2.1c0 1.3-.9 2.1-1.9 2.1c-1.1 0-1.9-.8-1.9-2.1zm1.9 1.7c.8 0 1.3-.7 1.3-1.7c0-1-.5-1.7-1.3-1.7c-.8 0-1.3.7-1.3 1.7c0 1 .5 1.7 1.3 1.7zm2.8-.8c0-.9.7-1.2 1.4-1.2l1.2-.1s.04-.16 0-.2c0-.7-.4-1.1-1-1.1c-.5 0-1 .3-1 .8h-.6c.1-.7.7-1.2 1.6-1.2c1.1 0 1.6.7 1.6 1.5v2.6h-.5v-.6c-.2.4-.7.7-1.5.7c-.7 0-1.2-.5-1.2-1.2zm1.4.8c.5 0 1.2-.5 1.2-1.1c.04-.03 0-.6 0-.6l-1.1.1c-.6.1-1 .3-1 .8c0 .4.3.8.8.8h.1zm2.8-.9h.6c0 .6.4.9 1 .9h.1c.5 0 .9-.3.9-.8c0-.3-.2-.5-.7-.6l-.6-.1c-.6-.1-1.1-.4-1.1-1.1c0-.8.7-1.2 1.4-1.2c1 0 1.5.6 1.6 1.3h-.6c0-.4-.4-.9-.9-.9h-.1c-.6 0-.9.4-.9.7c0 .4.2.6.7.7l.7.1c.6.1 1 .4 1 1.1c0 .8-.6 1.2-1.5 1.2c-1 0-1.5-.5-1.6-1.3zm5.6 1.2c-.6 0-.8-.2-.8-.7v-2.9h-.9v-.4h.9v-1.3h.5v1.3h1v.4h-1v2.9c0 .2.1.3.3.3c.04-.02.8 0 .8 0v.4s-.84.03-.8 0z" stroke="none" fill="#192d39"/></g><g id="Polygon15852"><path d="m14 45.1c0-1.6 1-2.9 2.6-2.9c1.3 0 2.2.8 2.2 1.8h-.5c-.1-.6-.6-1.3-1.6-1.3h-.1c-1.3 0-2 1.1-2 2.4c0 1.3.7 2.4 2 2.4h.1c1 0 1.5-.6 1.6-1.3h.5c0 1.1-.9 1.8-2.2 1.8c-1.6 0-2.6-1.2-2.6-2.9zm5.8 1.8c0-.9.7-1.2 1.4-1.3c-.04.04 1.2-.1 1.2-.1c0 0 .04-.12 0-.1c0-.7-.4-1.1-1-1.1c-.5 0-1 .2-1 .8h-.6c.1-.8.7-1.3 1.6-1.3c1.1 0 1.6.8 1.6 1.6v2.6h-.5v-.7c-.2.4-.7.7-1.5.7c-.7 0-1.2-.5-1.2-1.1zm1.4.7c.5 0 1.2-.5 1.2-1.1c.04.01 0-.5 0-.5c0 0-1.14.05-1.1 0c-.6.1-1 .4-1 .8c0 .5.3.8.8.8h.1zm3.1.4v-4.1h.5s.04.7 0 .7c.3-.4.8-.8 1.5-.8c.8 0 1.4.5 1.4 1.5c-.03.02 0 2.7 0 2.7h-.6s.05-2.52 0-2.5c0-.8-.3-1.2-.9-1.2h-.1c-.8 0-1.3.8-1.3 1.6c.04.04 0 2.1 0 2.1h-.5zm5.3-.7c-.04.02 0 .7 0 .7h-.6v-5.7h.6s-.04 2.27 0 2.3c.2-.5.8-.8 1.3-.8c1.1 0 1.8.8 1.8 2.1c0 1.3-.7 2.1-1.8 2.1c-.5 0-1.1-.2-1.3-.7zm1.3.3c.9 0 1.3-.8 1.3-1.7c0-.8-.4-1.6-1.3-1.6c-.9 0-1.3.8-1.3 1.6c0 .9.4 1.7 1.3 1.7zm2.8-1.7c0-1.4.8-2.1 1.8-2.1c1 0 1.6.8 1.6 1.9v.3s-2.9-.02-2.9 0c0 1.1.6 1.6 1.3 1.6c.6 0 .9-.2 1.1-.8h.5c-.2.8-.8 1.2-1.6 1.2c-1 0-1.8-.7-1.8-2.1zm2.9-.4c0-.7-.4-1.2-1.1-1.2h-.1c-.5 0-1.1.3-1.2 1.2h2.4zm1.7 2.5v-4.1h.5s-.02.94 0 .9c.2-.6.7-.9 1.2-.9c.04-.02.4 0 .4 0v.5s-.32-.03-.3 0c-.8 0-1.3.6-1.3 1.6c.02 0 0 2 0 2h-.5zm3 0v-4.1h.5s.02.94 0 .9c.2-.6.7-.9 1.3-.9c-.03-.02.3 0 .3 0v.5s-.29-.03-.3 0c-.8 0-1.2.6-1.2 1.6c-.04 0 0 2 0 2h-.6zm2.8-1.1c0-.9.8-1.2 1.4-1.3c.02.04 1.3-.1 1.3-.1v-.1c0-.7-.4-1.1-1-1.1h-.1c-.5 0-.9.2-1 .8h-.5c.1-.8.7-1.3 1.6-1.3c1 0 1.5.8 1.5 1.6v1.7c0 .2 0 .6.1.9h-.5c-.1-.2-.1-.5-.1-.7c-.1.4-.7.7-1.4.7c-.7 0-1.3-.5-1.3-1.1zm1.4.7c.6 0 1.3-.5 1.3-1.1v-.5s-1.17.05-1.2 0c-.5.1-.9.4-.9.8c0 .5.3.8.8.8zm2.9 1.3v-.3s.23-.02.2 0c.3 0 .5-.2.5-.5v-.1h-.4v-.8h.8s-.03.93 0 .9c0 .5-.3.8-.8.8h-.3zm9-6.6h.9v5.7h-.5v-5.2l-2 5.2h-.8l-2-5.3v5.3h-.6v-5.7h1l2 5.2l2-5.2zm2.2 3.6c0-1.4.9-2.1 1.8-2.1c1 0 1.7.8 1.7 1.9c-.04-.04 0 .3 0 .3c0 0-2.96-.02-3 0c.1 1.1.7 1.6 1.3 1.6h.1c.5 0 .9-.2 1-.8h.6c-.2.8-.9 1.2-1.7 1.2c-1 0-1.8-.7-1.8-2.1zm2.9-.4c0-.7-.4-1.2-1-1.2h-.1c-.5 0-1.1.3-1.2 1.2h2.3zm1.8 2.5v-5.7h.5v5.7h-.5zm2.4-.7c-.02.02 0 .7 0 .7h-.5v-5.7h.5s-.02 2.27 0 2.3c.2-.5.8-.8 1.3-.8c1.1 0 1.8.8 1.8 2.1c0 1.3-.7 2.1-1.8 2.1c-.5 0-1.1-.2-1.3-.7zm1.3.3c.9 0 1.3-.8 1.3-1.7c0-.8-.4-1.6-1.3-1.6c-.9 0-1.3.8-1.3 1.6c0 .9.4 1.7 1.3 1.7zm2.8-1.7c0-1.2.8-2.1 1.8-2.1c1.1 0 1.9.9 1.9 2.1c0 1.3-.8 2.1-1.9 2.1c-1 0-1.8-.8-1.8-2.1zm1.9 1.7c.7 0 1.3-.6 1.3-1.7c0-1-.6-1.6-1.3-1.6h-.1c-.7 0-1.3.6-1.3 1.6c0 1.1.6 1.7 1.3 1.7h.1zm2.9-1c.02-.01 0-2.7 0-2.7h.5s.05 2.53 0 2.5c0 .8.4 1.2 1 1.2h.1c.6 0 1.2-.6 1.2-1.5c-.03.01 0-2.2 0-2.2h.5v4.1h-.5s-.03-.79 0-.8c-.2.5-.7.8-1.4.8c-.9 0-1.4-.6-1.4-1.4zm4.7 1.4v-4.1h.5s-.03.94 0 .9c.2-.6.7-.9 1.2-.9c.02-.02.4 0 .4 0v.5s-.34-.03-.3 0c-.8 0-1.3.6-1.3 1.6v2h-.5zm3 0v-4.1h.5s.04.7 0 .7c.3-.4.8-.8 1.5-.8c.8 0 1.4.5 1.4 1.5c-.02.02 0 2.7 0 2.7h-.5s-.05-2.52 0-2.5c0-.8-.4-1.2-1-1.2h-.1c-.8 0-1.3.8-1.3 1.6c.04.04 0 2.1 0 2.1h-.5zm4.5-2.1c0-1.4.9-2.1 1.8-2.1c1 0 1.7.8 1.7 1.9c-.05-.04 0 .3 0 .3c0 0-2.96-.02-3 0c.1 1.1.6 1.6 1.3 1.6h.1c.5 0 .9-.2 1-.8h.5c-.1.8-.8 1.2-1.6 1.2c-1 0-1.8-.7-1.8-2.1zm2.9-.4c0-.7-.4-1.2-1-1.2h-.1c-.5 0-1.1.3-1.2 1.2h2.3zm1.4 3.4v-.3s.23-.02.2 0c.4 0 .5-.2.5-.5v-.1h-.4v-.8h.8s-.02.93 0 .9c0 .5-.3.8-.8.8h-.3z" stroke="none" fill="#192d39"/></g><g id="Polygon15851"><path d="m16.6 30.7h.9v5.7h-.5v-5.2l-2 5.2h-.8l-2-5.2v5.2h-.5v-5.7h.9l2 5.3l2-5.3zm2.2 3.7c0-1.4.9-2.1 1.8-2.1c1 0 1.7.8 1.7 1.8c-.02 0 0 .3 0 .3c0 0-2.93.02-2.9 0c0 1.2.6 1.6 1.2 1.6h.1c.5 0 .9-.2 1-.8h.6c-.2.9-.8 1.3-1.7 1.3c-1 0-1.8-.7-1.8-2.1zm3-.4c-.1-.7-.5-1.3-1.1-1.3h-.1c-.5 0-1.1.3-1.2 1.3h2.4zm1.7 2.4v-4h.5s-.05.88 0 .9c.1-.7.6-1 1.2-1c.01.02.4 0 .4 0v.5h-.4c-.7 0-1.2.6-1.2 1.6v2h-.5zm3-4.8v-.7h.6v.7h-.6zm0 4.8v-4h.5v4h-.5zm3.1 0c-.5 0-.7-.2-.7-.7c-.03-.02 0-2.9 0-2.9h-1v-.4h1V31h.5v1.4h1v.4h-1v2.8c0 .3.1.4.3.4c.02-.04.8 0 .8 0v.4s-.86.01-.9 0zm1.5-2c0-1.3.8-2.1 1.9-2.1c1 0 1.8.8 1.8 2.1c0 1.2-.8 2.1-1.8 2.1c-1.1 0-1.9-.9-1.9-2.1zM33 36c.7 0 1.3-.6 1.3-1.6c0-1.1-.6-1.7-1.3-1.7h-.1c-.7 0-1.2.6-1.2 1.7c0 1 .5 1.6 1.2 1.6h.1zm3 .4v-4h.5s.02.64 0 .6c.3-.4.8-.7 1.4-.7c.8 0 1.5.5 1.5 1.5c-.05-.04 0 2.6 0 2.6h-.6s.03-2.48 0-2.5c0-.8-.3-1.2-.9-1.2h-.1c-.9 0-1.3.8-1.3 1.7c.02-.02 0 2 0 2h-.5zm6-1.1c0-.9.8-1.2 1.4-1.2c-.02-.02 1.3-.1 1.3-.1c0 0-.04-.18 0-.2c0-.7-.4-1.1-1-1.1h-.1c-.5 0-.9.3-1 .8h-.5c0-.7.7-1.2 1.5-1.2c1.1 0 1.6.7 1.6 1.5v2.6h-.5v-.6c-.2.3-.7.7-1.4.7c-.7 0-1.3-.5-1.3-1.2zm1.4.7c.6 0 1.3-.5 1.3-1.1c-.04.05 0-.5 0-.5c0 0-1.21.09-1.2.1c-.6 0-1 .3-1 .8c0 .4.4.7.8.7h.1zm2.9-1.6c0-1.2.7-2.1 1.9-2.1c.8 0 1.5.5 1.5 1.4h-.5c-.1-.6-.5-1-1-1h-.1c-.9 0-1.3.8-1.3 1.7c0 .9.4 1.6 1.3 1.6h.1c.5 0 .9-.4 1-.9h.5c-.1.8-.7 1.4-1.5 1.4c-1.2 0-1.9-.9-1.9-2.1zm4.6 2v-4h.5s-.03.88 0 .9c.2-.7.7-1 1.2-1c.03.02.4 0 .4 0v.5h-.3c-.8 0-1.3.6-1.3 1.6v2h-.5zm2.7-2c0-1.3.8-2.1 1.8-2.1c1.1 0 1.9.8 1.9 2.1c0 1.2-.8 2.1-1.9 2.1c-1 0-1.8-.9-1.8-2.1zm1.9 1.6c.7 0 1.3-.6 1.3-1.6c0-1.1-.6-1.7-1.3-1.7h-.1c-.7 0-1.3.6-1.3 1.7c0 1 .6 1.6 1.3 1.6h.1zm2.7-.8h.5c0 .6.5.8 1 .8h.1c.6 0 .9-.2.9-.7c0-.3-.1-.5-.7-.6l-.6-.1c-.6-.2-1.1-.4-1.1-1.1c0-.8.7-1.2 1.5-1.2c1 0 1.5.6 1.5 1.3h-.5c-.1-.5-.4-.9-1-.9h-.1c-.5 0-.9.4-.9.7c0 .4.3.6.8.7l.6.1c.6.1 1.1.4 1.1 1.1c0 .7-.6 1.2-1.5 1.2c-1.1 0-1.6-.6-1.6-1.3zm4 0h.5c.1.6.5.8 1 .8h.1c.6 0 .9-.2.9-.7c0-.3-.1-.5-.7-.6l-.6-.1c-.6-.2-1.1-.4-1.1-1.1c0-.8.7-1.2 1.5-1.2c1 0 1.5.6 1.5 1.3h-.5c-.1-.5-.4-.9-1-.9h-.1c-.5 0-.8.4-.8.7c0 .4.2.6.7.7l.6.1c.6.1 1.1.4 1.1 1.1c0 .7-.6 1.2-1.5 1.2c-1.1 0-1.6-.6-1.6-1.3zm5.5-.6h.5c0 .9.7 1.4 1.6 1.4h.1c.9 0 1.4-.5 1.4-1.1c0-.5-.4-.8-1.1-1l-.9-.1c-.9-.2-1.4-.7-1.4-1.5c0-.9.8-1.6 2-1.6c1.2 0 2 .6 2 1.7h-.6c0-.7-.6-1.2-1.4-1.2h-.1c-.7 0-1.3.5-1.3 1.1c0 .5.4.8.9.9l1 .2c.9.1 1.4.6 1.4 1.5c0 1-.7 1.6-2 1.6c-1.3 0-2.1-.7-2.1-1.9zm9-2.2L75 36.3v.7c0 .5-.2.7-.8.7c.03.04-1.2 0-1.2 0v-.4h1.2c.2 0 .3-.1.3-.3c-.02-.03 0-.7 0-.7l-1.7-3.9h.5l1.4 3.2l1.4-3.2h.6zm.5 2c0-1.3.8-2.1 1.8-2.1c.5 0 1.1.3 1.4.7c-.04.01 0-2.3 0-2.3h.5v5.7h-.5s-.04-.64 0-.6c-.3.4-.9.7-1.4.7c-1 0-1.8-.8-1.8-2.1zm1.9 1.6c.8 0 1.3-.7 1.3-1.6c0-.9-.5-1.7-1.3-1.7h-.1c-.8 0-1.3.8-1.3 1.7c0 .9.5 1.6 1.3 1.6h.1zm3.2.4v-4h.5v.6c.2-.4.7-.7 1.4-.7c.8 0 1.4.5 1.4 1.5c.03-.04 0 2.6 0 2.6h-.5v-2.5c0-.8-.3-1.2-1-1.2c-.9 0-1.3.8-1.3 1.7v2h-.5zm4.5-2c0-1.4.8-2.1 1.8-2.1c1 0 1.6.8 1.6 1.8v.3s-2.91.02-2.9 0c0 1.2.6 1.6 1.3 1.6c.6 0 .9-.2 1.1-.8h.5c-.2.9-.8 1.3-1.6 1.3c-1 0-1.8-.7-1.8-2.1zm2.9-.4c0-.7-.5-1.3-1.1-1.3h-.1c-.5 0-1.1.3-1.2 1.3h2.4zm5-1.6l-1.6 3.9s-.05.74 0 .7c0 .5-.3.7-.8.7c-.02.04-1.2 0-1.2 0v-.4h1.1c.2 0 .3-.1.3-.3c.03-.03 0-.7 0-.7l-1.7-3.9h.6l1.4 3.2l1.4-3.2h.5zm.1 4.9v-.3h.3c.3 0 .4-.1.4-.5c.04.03 0-.1 0-.1h-.4v-.8h.8v1c0 .5-.3.7-.8.7c.03.04-.3 0-.3 0z" stroke="none" fill="#192d39"/></g><g id="Polygon15850"><path d="m18.3 23.7c0-.9.8-1.1 1.4-1.2c.03.02 1.3-.1 1.3-.1v-.1c0-.7-.4-1.1-1-1.1c-.6 0-1 .2-1.1.7h-.5c.1-.7.7-1.2 1.6-1.2c1 0 1.5.7 1.5 1.6v1.7c0 .2 0 .6.1.8h-.5c0-.1-.1-.4-.1-.6c-.1.4-.7.7-1.4.7c-.7 0-1.3-.5-1.3-1.2zm1.5.8c.5 0 1.2-.5 1.2-1.1v-.6s-1.17.13-1.2.1c-.5.1-.9.4-.9.8c0 .4.3.8.8.8h.1zm3.1 2v-5.7h.5v.6c.3-.4.8-.7 1.4-.7c1 0 1.8.8 1.8 2.1c0 1.3-.8 2.1-1.8 2.1c-.6 0-1.1-.3-1.4-.7v2.3h-.5zm1.8-2c.9 0 1.3-.8 1.3-1.7c0-.9-.4-1.6-1.3-1.6c-.9 0-1.3.7-1.3 1.6c0 .9.4 1.7 1.3 1.7zm2.8-.8c0-.9.8-1.1 1.4-1.2c-.01.02 1.3-.1 1.3-.1c0 0-.03-.14 0-.1c0-.7-.4-1.1-1-1.1h-.1c-.5 0-.9.2-1 .7h-.5c0-.7.7-1.2 1.5-1.2c1.1 0 1.6.7 1.6 1.6v2.5h-.5v-.6c-.2.4-.7.7-1.4.7c-.7 0-1.3-.5-1.3-1.2zm1.4.8c.6 0 1.3-.5 1.3-1.1c-.03-.01 0-.6 0-.6c0 0-1.21.13-1.2.1c-.6.1-1 .4-1 .8c0 .4.4.8.8.8h.1zm3.1.3v-4h.5s.03.92 0 .9c.2-.6.7-.9 1.3-.9c-.01-.04.4 0 .4 0v.4s-.37.04-.4 0c-.8 0-1.2.7-1.2 1.7c-.03-.02 0 1.9 0 1.9h-.6zm4.5 0c-.5 0-.8-.2-.8-.7c.03.02 0-2.9 0-2.9h-.9v-.4h.9v-1.3h.6v1.3h1v.4h-1s-.04 2.88 0 2.9c0 .2 0 .3.3.3h.8v.4s-.9.05-.9 0zm1.8 0v-4h.6s-.04.65 0 .6c.2-.4.7-.7 1.3-.7c.6 0 1.1.3 1.3.9c.3-.6.8-.9 1.4-.9c.8 0 1.4.5 1.4 1.5c-.02 0 0 2.6 0 2.6h-.5s-.04-2.44 0-2.4c0-.8-.3-1.2-1-1.2c-.8 0-1.2.7-1.2 1.6c-.03.02 0 2 0 2h-.6s.05-2.44 0-2.4c0-.8-.3-1.2-.9-1.2c-.8 0-1.2.7-1.2 1.6c-.04.02 0 2 0 2h-.6zm7.1-2c0-1.4.9-2.1 1.8-2.1c1 0 1.7.8 1.7 1.8c-.03.04 0 .4 0 .4c0 0-2.94-.04-2.9 0c0 1.1.6 1.6 1.2 1.6h.1c.5 0 .9-.3 1-.8h.6c-.2.8-.8 1.2-1.7 1.2c-1 0-1.8-.7-1.8-2.1zm2.9-.4c0-.7-.4-1.2-1-1.2h-.1c-.5 0-1.1.3-1.2 1.2h2.3zm1.8 2.4v-4h.5s-.02.68 0 .7c.2-.5.7-.8 1.4-.8c.8 0 1.4.5 1.4 1.5v2.6h-.5v-2.4c0-.8-.3-1.2-1-1.2c-.9 0-1.3.7-1.3 1.6c-.02.02 0 2 0 2h-.5zm5.8 0c-.5 0-.7-.2-.7-.7c-.04.02 0-2.9 0-2.9h-1v-.4h1v-1.3h.5v1.3h1v.4h-1s-.02 2.88 0 2.9c0 .2.1.3.3.3h.8v.4s-.87.05-.9 0zm1.6-1.2h.5c.1.6.5.9 1.1.9h.1c.5 0 .9-.3.9-.7c0-.4-.2-.5-.7-.7l-.6-.1c-.6-.1-1.1-.4-1.1-1.1c0-.8.6-1.2 1.4-1.2c1 0 1.5.6 1.5 1.3h-.5c0-.4-.4-.8-.9-.8h-.1c-.6 0-.9.3-.9.7c0 .3.2.5.7.6l.7.1c.5.2 1 .4 1 1.1c0 .8-.6 1.2-1.5 1.2c-1 0-1.6-.5-1.6-1.3zm6.3.6c.02 0 0 .6 0 .6h-.5v-5.6h.5s.02 2.25 0 2.2c.3-.4.8-.7 1.4-.7c1 0 1.8.8 1.8 2.1c0 1.3-.8 2.1-1.8 2.1c-.6 0-1.1-.3-1.4-.7zm1.4.3c.8 0 1.2-.8 1.2-1.7c0-.9-.4-1.6-1.2-1.6h-.1c-.9 0-1.3.7-1.3 1.6c0 .9.4 1.7 1.3 1.7h.1zm2.9-1c.02-.03 0-2.7 0-2.7h.5s.04 2.51 0 2.5c0 .8.4 1.2 1 1.2h.1c.6 0 1.2-.6 1.2-1.5c-.03-.02 0-2.2 0-2.2h.5v4h-.5s-.03-.71 0-.7c-.2.5-.7.8-1.4.8c-.9 0-1.4-.6-1.4-1.4zm4.6-3.4v-.7h.6v.7h-.6zm.1 4.7v-4h.5v4h-.5zm1.9 0v-5.6h.5v5.6h-.5zm3.1 0c-.5 0-.7-.2-.7-.7c-.04.02 0-2.9 0-2.9h-1v-.4h1v-1.3h.5v1.3h1v.4h-1s-.02 2.88 0 2.9c0 .2.1.3.3.3h.8v.4s-.87.05-.9 0zm3.9-.6c-.02 0 0 .6 0 .6h-.5v-5.6h.5s-.02 2.25 0 2.2c.2-.4.8-.7 1.3-.7c1.1 0 1.8.8 1.8 2.1c0 1.3-.7 2.1-1.8 2.1c-.5 0-1.1-.3-1.3-.7zm1.3.3c.9 0 1.3-.8 1.3-1.7c0-.9-.4-1.6-1.3-1.6c-.9 0-1.3.7-1.3 1.6c0 .9.4 1.7 1.3 1.7zm6.3-3.7l-1.7 3.9s.05.78 0 .8c0 .5-.2.7-.7.7c-.02-.02-1.3 0-1.3 0v-.5s1.2.04 1.2 0c.2 0 .3 0 .3-.3c.02.01 0-.7 0-.7l-1.7-3.9h.6l1.4 3.3l1.4-3.3h.5z" stroke="none" fill="#192d39"/></g><g id="Polygon15849"><path d="m21.4 10.3c0-2 1.2-3.2 2.8-3.2c1.5 0 2.7 1.2 2.7 3.2c0 1.9-1.2 3.1-2.7 3.1c-1.6 0-2.8-1.2-2.8-3.1zm2.8 2.5c1.2 0 2.1-1 2.1-2.5c0-1.6-.9-2.6-2.1-2.6h-.1c-1.2 0-2.1 1-2.1 2.6c0 1.5.9 2.5 2.1 2.5h.1zm7-3.8h.6l-1.7 4.3h-.7L27.7 9h.6l1.5 3.8L31.2 9zm1.1 2.1c0-1.5 1-2.2 2-2.2c1 0 1.7.8 1.7 1.9c.02.02 0 .4 0 .4c0 0-3.09-.03-3.1 0c0 1.2.7 1.7 1.4 1.7c.6 0 1-.3 1.2-.9h.5c-.2.9-.8 1.4-1.7 1.4c-1.1 0-2-.8-2-2.3zm3.2-.4c-.1-.8-.5-1.4-1.2-1.4h-.1c-.5 0-1.2.4-1.3 1.4h2.6zm1.8 2.6V9h.5s-.01.95 0 .9c.2-.6.7-1 1.3-1c.03.02.4 0 .4 0v.5s-.33.04-.3 0c-.9 0-1.4.7-1.4 1.8c.03-.02 0 2.1 0 2.1h-.5zm11.5-9.7c-2.6 2-4.9 6.3-4.9 9.7h-1.1c0-2.5 2.6-7 4.8-9.1c.01.04-5.5.5-5.5.5l.1-1.1s6.63-.01 6.6 0zm2.4 4.2c-1.2-.6-1.8-1.4-1.8-2.2c0-1.2 1.1-2 2.6-2c1.6 0 2.7.8 2.7 1.7c0 1-.9 1.8-1.9 2.3c1.7.8 2.7 1.7 2.7 2.8c0 1.7-1.3 2.9-3.6 2.9c-2.2 0-3.4-.9-3.4-2.3c0-1.4 1.4-2.5 2.7-3.2zm3.3 3c0-1.1-.5-1.8-2.6-2.7h-.2c-1.1.6-2.1 1.4-2.1 2.7c0 1.2.9 2.1 2.4 2.1c1.5 0 2.5-.9 2.5-2.1zm-2.2-3.4c.8-.4 1.4-1 1.4-1.9c0-.9-.6-1.5-1.7-1.5c-1.1 0-1.8.5-1.8 1.2c0 .8.7 1.5 2.1 2.2zm4.8 7.2l-.1-.3c1-.5.9-.9.5-1c-.4 0-.6-.3-.6-.6c0-.4.3-.7.8-.6c.3 0 .6.4.6.9c0 .7-.5 1.2-1.2 1.6zm9.4-5.7c0-2.9-1.6-4.8-3.5-4.8c-1.9 0-2.7 1.8-2.7 3.9c0 2.9 1.5 4.8 3.5 4.8c1.7 0 2.7-1.8 2.7-3.9zm.9-.5c0 2.7-1.5 4.9-4 4.9c-2.5 0-4.1-2.2-4.1-4.9c0-2.6 1.7-4.8 4.1-4.8c2.4 0 4 2.2 4 4.8zm8.3.5c0-2.9-1.5-4.8-3.5-4.8c-1.9 0-2.7 1.8-2.7 3.9c0 2.9 1.5 4.8 3.5 4.8c1.7 0 2.7-1.8 2.7-3.9zm1-.5c0 2.7-1.6 4.9-4.1 4.9c-2.4 0-4-2.2-4-4.9c0-2.6 1.6-4.8 4-4.8c2.5 0 4.1 2.2 4.1 4.8zm8.2.5c0-2.9-1.5-4.8-3.5-4.8c-1.8 0-2.7 1.8-2.7 3.9c0 2.9 1.6 4.8 3.5 4.8c1.7 0 2.7-1.8 2.7-3.9zm1-.5c0 2.7-1.5 4.9-4.1 4.9c-2.4 0-4-2.2-4-4.9c0-2.6 1.7-4.8 4.1-4.8c2.4 0 4 2.2 4 4.8z" stroke="none" fill="#192d39"/></g></svg>