<?xml version="1.0" standalone="no"?><!DOCTYPE svg PUBLIC "-//W3C//DTD SVG 1.1//EN" "http://www.w3.org/Graphics/SVG/1.1/DTD/svg11.dtd"><svg xmlns="http://www.w3.org/2000/svg" version="1.1" width="412px" height="145px" viewBox="0 -4 412 145" style="top:-4px"><desc>WORLD CLASS LIVING</desc><defs/><g id="Polygon20003"><path d="m62.6 90.8c-3.2 2.6-7.2 4.2-11.7 4.2c-9.3 0-17.3-7.6-17.3-17c0-9.5 8-17.1 17.3-17.1c4.5 0 8.7 1.5 11.7 4v5c-2.9-4.8-8-7.7-12.9-7.7c-7.8 0-12.3 6.5-12.3 14c0 10.3 7.9 17.3 15.1 17.3c3.7 0 7.9-2.2 10.1-4.7v2zm7.2-29.9h3.5v32.7l18.4-1.1l-.3 2.5H69.8V60.9zM95.4 95l17.7-34.6L130.9 95H127l-4.9-9.5h-19.9L97.3 95h-1.9zm7.7-11.2h18.1l-9-17.6l-9.1 17.6zM147.4 95c-4.6 0-9.6-1.5-12.6-4.1v-4.7c2.9 4.7 7.7 7.4 12.7 7.4c6.1 0 9.8-2.7 9.8-6.4c0-4.1-2.2-6.5-10.7-10.1c-8.9-3.8-11.3-6.1-11.3-9.5c0-3.7 4.2-6.7 13.3-6.7c5.1 0 9.1 1.8 11.6 4v4.6c-2.8-4.7-7.8-7.1-12.6-7.3c-6 0-9 1.7-9 4.4c0 2.6 2.4 4.6 9.7 7.6c8.5 3.5 12.5 7 12.5 11.7c0 5.1-3.8 9.1-13.4 9.1zm31.4 0c-4.6 0-9.6-1.5-12.6-4.1v-4.7c2.9 4.7 7.7 7.4 12.6 7.4c6.2 0 9.9-2.7 9.9-6.4c0-4.1-2.2-6.5-10.8-10.1c-8.8-3.8-11.2-6.1-11.2-9.5c0-3.7 4.2-6.7 13.3-6.7c5.1 0 9.1 1.8 11.6 4v4.6c-2.9-4.7-7.8-7.1-12.6-7.3c-6 0-9 1.7-9 4.4c0 2.6 2.4 4.6 9.7 7.6c8.4 3.5 12.5 7 12.5 11.7c0 5.1-3.8 9.1-13.4 9.1zm38.5-34.1h3.5v32.7l18.4-1.1l-.3 2.5h-21.6V60.9zM249.7 95h-3.5V60.9h3.5V95zm10.5-34.1L275 89.7l14.8-28.8h2l-17.7 34.5l-17.9-34.5h4zM301.8 95h-3.4V60.9h3.4V95zm8.7 0V60.9h1.4L340 89.6V60.9h1.7V95h-1.3l-28.1-28.7V95h-1.8zm66.5-4.2c-3.1 2.6-7.2 4.2-11.6 4.2c-9.4 0-17.1-7.6-17.1-17c0-9.5 7.7-17.1 17.1-17.1c4.4 0 8.7 1.5 11.6 4v4.8c-3.9-6.5-11.7-9-17.7-6.5c-6.8 2.9-9.7 11.8-6.3 19.9c2.7 6.5 8.4 10.4 13.9 10.4c1.6 0 3.2-.3 4.7-.9c.6-.2 1.3-.6 2-1V78.8h3.4v12z" stroke="none" fill="#dcddce"/></g><g id="Polygon20002"><path d="m160.6 10.9l-14.1 34.5l-7.9-19.2l-7.9 19.2l-14.1-34.5h3.8l11.3 27.6l6-14.6l-5.3-13h3.7l11.4 27.6l11.3-27.6h1.8zM197.4 28c0 9.4-7.7 17-17.2 17c-9.4 0-17.1-7.6-17.1-17c0-9.5 7.7-17.1 17.1-17.1c9.5 0 17.2 7.6 17.2 17.1zm-4.7-5.2c-3.3-8-11.6-12.2-18.5-9.4c-6.8 2.9-9.7 11.7-6.4 19.7c3.3 8 11.5 12.3 18.4 9.4c6.9-2.9 9.8-11.7 6.5-19.7zm36.6 19.9c1.64 2 3.3 2.1 3.3 2.1c0 0-.88.56-2.3.6c-2.8 0-4-.9-6.6-4.2c0 0-5.8-7.4-7.4-9.3c-1.4-1.8-2.3-2.3-3.5-2.3c.02-.02-5.4 0-5.4 0V45h-3.5V10.9s8.2-.04 8.2 0c10.2 0 16.7 3.7 16.7 9.3c0 4.8-4.7 8.2-12.3 9.1c2 .5 3.2 1.3 4.2 2.4c1.4 1.9 8.6 11 8.6 11zm-21.9-30.5v16.1s4.7-.04 4.7 0c6.8 0 13.1-2.4 13.1-8.1c-.1-5.6-6.3-8-13.1-8c0 .04-4.7 0-4.7 0zm30.3-1.3h3.5v32.7l18.4-1.1l-.3 2.5h-21.6V10.9zm28.5 0s9.2-.04 9.2 0c13.9 0 19.5 8.9 19.5 17.1c0 8.1-5.6 17-19.5 17h-9.2V10.9zm3.4 1.3v31.5s5.68-.02 5.7 0c11.9-.1 15.9-7.1 15.9-15.8c0-8.7-4-15.7-15.9-15.7c.04.04-5.7 0-5.7 0z" stroke="none" fill="#dcddce"/></g></svg>