<?xml version="1.0" standalone="no"?><!DOCTYPE svg PUBLIC "-//W3C//DTD SVG 1.1//EN" "http://www.w3.org/Graphics/SVG/1.1/DTD/svg11.dtd"><svg xmlns="http://www.w3.org/2000/svg" version="1.1" width="50px" height="46.8px" viewBox="0 -2 50 46.8" style="top:-2px"><desc>1%</desc><defs/><g id="Polygon22442"><path d="m5.1 26.3h-2s-.01-17 0-17c-.8 1-1.8 1.7-3 2.2l-.2-.6c1.7-.8 3.5-2.3 4.1-4.5c0-.05 1.1 0 1.1 0v19.9zm13.8-15.5c0 2.5-2 4.5-4.5 4.5c-2.4 0-4.5-2-4.5-4.5c0-2.4 2.1-4.4 4.5-4.4c2.5 0 4.5 2 4.5 4.4zm-1.4-1.3c-.8-2-2.9-3-4.6-2.3c-1.7.7-2.4 2.9-1.6 4.9c.8 2 2.9 3.1 4.6 2.4c1.8-.7 2.5-3 1.6-5zm-3 16.8h-.9L25.9 6.4h.7L14.5 26.3zm6.9-4.4c0-2.5 2.1-4.5 4.5-4.5c2.5 0 4.5 2 4.5 4.5c0 2.4-2 4.4-4.5 4.4c-2.4 0-4.5-2-4.5-4.4zm1.4 1.3c.8 2 2.9 3 4.6 2.3c1.7-.7 2.5-2.9 1.6-4.9c-.8-2.1-2.9-3.1-4.6-2.4c-1.7.7-2.4 3-1.6 5z" stroke="none" fill="#192d39"/></g></svg>