<?xml version="1.0" standalone="no"?><!DOCTYPE svg PUBLIC "-//W3C//DTD SVG 1.1//EN" "http://www.w3.org/Graphics/SVG/1.1/DTD/svg11.dtd"><svg xmlns="http://www.w3.org/2000/svg" version="1.1" width="352px" height="178px" viewBox="0 -4 352 178" style="top:-4px"><desc>Your Elevated sanctuary</desc><defs/><g id="Polygon19163"><path d="m14.5 145c-4.5 0-9.6-1.5-12.6-4.1v-4.7c2.9 4.7 7.8 7.4 12.7 7.4c6.1 0 9.8-2.7 9.8-6.4c0-4.1-2.1-6.5-10.7-10.1c-8.8-3.8-11.3-6.1-11.3-9.5c0-3.7 4.2-6.7 13.3-6.7c5.1 0 9.1 1.8 11.7 4v4.6c-2.9-4.7-7.8-7.1-12.6-7.3c-6 0-9.1 1.7-9.1 4.4c.1 2.6 2.4 4.6 9.7 7.6c8.5 3.5 12.6 7 12.6 11.7c0 5.1-3.9 9.1-13.5 9.1zm16.4 0l17.8-34.6L66.4 145h-3.9l-4.8-9.5h-20l-4.9 9.5h-1.9zm7.7-11.2h18.2l-9.1-17.6l-9.1 17.6zM72.2 145v-34.1h1.4l28.1 28.7v-28.7h1.7V145h-1.3L74 116.3V145h-1.8zm66.6-4.2c-3.1 2.6-7.2 4.2-11.7 4.2c-9.3 0-17.3-7.6-17.3-17c0-9.5 8-17.1 17.3-17.1c4.5 0 8.7 1.5 11.7 4v5c-2.9-4.8-8-7.7-12.9-7.7c-7.8 0-12.3 6.5-12.3 14c0 10.3 7.9 17.3 15.1 17.3c3.7 0 7.9-2.2 10.1-4.7v2zm37.1-27.4l-14.3-1.2V145h-3.5v-32.8l-14.2 1.2v-2.5h32v2.5zm9.5-2.5v20.9c0 7 4.6 11.3 11.9 11.3c7.2 0 10.6-4.5 10.6-11.4v-20.8h1.7s.04 20.84 0 20.8c0 8-4.4 13.3-13.9 13.3c-9.3 0-13.8-5.5-13.8-13.3c.02.04 0-20.8 0-20.8h3.5zm27.7 34.1l17.7-34.6l17.8 34.6h-3.9l-4.9-9.5h-20L215 145h-1.9zm7.6-11.2h18.2l-9-17.6l-9.2 17.6zm59.1 8.9c1.6 2 3.2 2.1 3.2 2.1c0 0-.82.56-2.2.6c-2.8 0-4.1-.9-6.6-4.2c0 0-5.8-7.4-7.4-9.3c-1.4-1.8-2.4-2.3-3.5-2.3c-.02-.02-5.4 0-5.4 0V145h-3.5v-34.1s8.16-.04 8.2 0c10.2 0 16.6 3.7 16.6 9.3c0 4.8-4.6 8.2-12.3 9.1c2.1.5 3.3 1.3 4.2 2.4l8.7 11zm-21.9-30.5v16.1s4.66-.04 4.7 0c6.8 0 13-2.4 13-8.1c0-5.6-6.2-8-13-8c-.04.04-4.7 0-4.7 0zm57.8-1.3l-14.1 16.7V145h-3.5v-16.9l-14.5-17.2h4.6l12.5 15l12.7-15h2.3z" stroke="none" fill="#192d39"/></g><g id="Polygon19162"><path d="m26.9 60.9v2.5L6.8 62.2v14.7h15.8l-.4 2.6l-15.4-1.2v15.4l20.4-1.2l-.3 2.5H3.4V60.9h23.5zm8.6 0h3.4v32.7l18.5-1.1l-.3 2.5H35.5V60.9zm52 0v2.5l-20.1-1.2v14.7h15.7l-.4 2.6l-15.3-1.2v15.4l20.4-1.2l-.3 2.5H63.9V60.9h23.6zm10.3 0l14.8 28.8l14.8-28.8h2l-17.7 34.5l-17.9-34.5h4zm29 34.1l17.8-34.6L162.4 95h-3.9l-4.9-9.5h-20l-4.8 9.5h-2zm7.7-11.2h18.2l-9.1-17.6l-9.1 17.6zm57.7-20.4L178 62.2V95h-3.5V62.2l-14.2 1.2v-2.5h31.9v2.5zm29.7-2.5v2.5l-20.1-1.2v14.7h15.7l-.4 2.6l-15.3-1.2v15.4l20.4-1.2l-.3 2.5h-23.6V60.9h23.6zm8.5 0s9.24-.04 9.2 0c13.9 0 19.5 8.9 19.5 17.1c0 8.1-5.6 17-19.5 17h-9.2V60.9zm3.5 1.3v31.5s5.62-.02 5.6 0c11.9-.1 16-7.1 16-15.8c0-8.7-4-15.7-15.9-15.7c-.02.04-5.7 0-5.7 0z" stroke="none" fill="#192d39"/></g><g id="Polygon19161"><path d="m33.2 10.9l-14 16.7V45h-3.5V28.1L1.2 10.9h4.6l12.5 15l12.7-15h2.2zM69.1 28c0 9.4-7.8 17-17.2 17c-9.4 0-17.2-7.6-17.2-17c0-9.5 7.8-17.1 17.2-17.1c9.4 0 17.2 7.6 17.2 17.1zm-4.7-5.2c-3.4-8-11.6-12.2-18.5-9.4c-6.8 2.9-9.8 11.7-6.5 19.7c3.4 8 11.6 12.3 18.5 9.4c6.8-2.9 9.8-11.7 6.5-19.7zm14.7-11.9s-.02 20.9 0 20.9c0 7 4.5 11.3 11.9 11.3c7.2 0 10.6-4.5 10.6-11.4c-.02.04 0-20.8 0-20.8h1.7s.02 20.84 0 20.8c0 8-4.4 13.3-13.9 13.3c-9.4 0-13.8-5.5-13.8-13.3V10.9h3.5zm57.8 31.8c1.64 2 3.3 2.1 3.3 2.1c0 0-.88.56-2.3.6c-2.8 0-4-.9-6.6-4.2c0 0-5.8-7.4-7.4-9.3c-1.4-1.8-2.3-2.3-3.5-2.3c.02-.02-5.4 0-5.4 0V45h-3.5V10.9s8.2-.04 8.2 0c10.2 0 16.7 3.7 16.7 9.3c0 4.8-4.7 8.2-12.3 9.1c2 .5 3.2 1.3 4.2 2.4c1.4 1.9 8.6 11 8.6 11zM115 12.2v16.1s4.7-.04 4.7 0c6.8 0 13.1-2.4 13.1-8.1c-.1-5.6-6.3-8-13.1-8c0 .04-4.7 0-4.7 0z" stroke="none" fill="#192d39"/></g></svg>