<?xml version="1.0" standalone="no"?><!DOCTYPE svg PUBLIC "-//W3C//DTD SVG 1.1//EN" "http://www.w3.org/Graphics/SVG/1.1/DTD/svg11.dtd"><svg xmlns="http://www.w3.org/2000/svg" version="1.1" width="605px" height="215px" viewBox="0 -4 605 215" style="top:-4px"><desc>Architecture &amp; design soars to new heights</desc><defs/><g id="Polygon16694"><path d="m3.4 145v-34.1h1.3l28.1 28.7v-28.7h1.8V145h-1.4L5.1 116.3V145H3.4zm63-34.1v2.5l-20.1-1.2v14.7H62l-.4 2.6l-15.3-1.2v15.4l20.4-1.2l-.3 2.5H42.8v-34.1h23.6zm50.4 0l-14.1 34.5l-8-19.2l-7.8 19.2l-14.2-34.5h3.8l11.3 27.6l6-14.6l-5.3-13h3.8l11.3 27.6l11.4-27.6h1.8zm52.6 34.1H166v-16.2h-21.4V145h-3.5v-34.1h3.5v16.2H166v-16.2h3.4V145zm31.8-34.1v2.5l-20.1-1.2v14.7h15.8l-.4 2.6l-15.4-1.2v15.4l20.4-1.2l-.3 2.5h-23.5v-34.1h23.5zm12.5 34.1h-3.5v-34.1h3.5V145zm35.8-4.2c-3.1 2.6-7.2 4.2-11.6 4.2c-9.4 0-17.2-7.6-17.2-17c0-9.5 7.8-17.1 17.2-17.1c4.4 0 8.6 1.5 11.6 4v4.8c-3.9-6.5-11.7-9-17.7-6.5c-6.9 2.9-9.7 11.8-6.4 19.9c2.8 6.5 8.4 10.4 14 10.4c1.6 0 3.2-.3 4.6-.9c.7-.2 1.3-.6 2.1-1c-.04-.02 0-12.8 0-12.8h3.4s-.02 12 0 12zm36 4.2h-3.4v-16.2h-21.4V145h-3.5v-34.1h3.5v16.2h21.4v-16.2h3.4V145zm38.1-31.6l-14.3-1.2V145h-3.5v-32.8l-14.2 1.2v-2.5h32v2.5zm17.2 31.6c-4.6 0-9.6-1.5-12.6-4.1v-4.7c2.9 4.7 7.7 7.4 12.7 7.4c6.1 0 9.8-2.7 9.8-6.4c0-4.1-2.2-6.5-10.7-10.1c-8.9-3.8-11.3-6.1-11.3-9.5c0-3.7 4.2-6.7 13.3-6.7c5.1 0 9.1 1.8 11.6 4v4.6c-2.8-4.7-7.8-7.1-12.6-7.3c-6 0-9 1.7-9 4.4c0 2.6 2.4 4.6 9.7 7.6c8.5 3.5 12.5 7 12.5 11.7c0 5.1-3.8 9.1-13.4 9.1z" stroke="none" fill="#192d39"/></g><g id="Polygon16693"><path d="m3.4 60.9s9.2-.04 9.2 0c13.9 0 19.5 8.9 19.5 17.1c0 8.1-5.6 17-19.5 17H3.4V60.9zm3.4 1.3v31.5s5.68-.02 5.7 0c11.9-.1 15.9-7.1 15.9-15.8c0-8.7-4-15.7-15.9-15.7c.04.04-5.7 0-5.7 0zm55.4-1.3v2.5l-20.1-1.2v14.7h15.7l-.3 2.6l-15.4-1.2v15.4l20.4-1.2l-.3 2.5H38.6V60.9h23.6zM81.9 95c-4.6 0-9.6-1.5-12.6-4.1v-4.7c2.9 4.7 7.7 7.4 12.7 7.4c6.1 0 9.8-2.7 9.8-6.4c0-4.1-2.2-6.5-10.7-10.1c-8.9-3.8-11.3-6.1-11.3-9.5c0-3.7 4.2-6.7 13.3-6.7c5.1 0 9.1 1.8 11.6 4v4.6c-2.8-4.7-7.8-7.1-12.6-7.3c-6 0-9 1.7-9 4.4c0 2.6 2.4 4.6 9.7 7.6c8.5 3.5 12.5 7 12.5 11.7c0 5.1-3.8 9.1-13.4 9.1zm24.2 0h-3.5V60.9h3.5V95zm35.7-4.2c-3.1 2.6-7.2 4.2-11.5 4.2c-9.5 0-17.2-7.6-17.2-17c0-9.5 7.7-17.1 17.2-17.1c4.3 0 8.6 1.5 11.5 4v4.8c-3.9-6.5-11.7-9-17.7-6.5c-6.8 2.9-9.7 11.8-6.3 19.9c2.7 6.5 8.4 10.4 14 10.4c1.5 0 3.1-.3 4.6-.9c.6-.2 1.3-.6 2-1c.02-.02 0-12.8 0-12.8h3.4s.04 12 0 12zm7.8 4.2V60.9h1.4l28 28.7V60.9h1.8V95h-1.4l-28.1-28.7V95h-1.7zm68.9 0c-4.6 0-9.6-1.5-12.6-4.1v-4.7c2.8 4.7 7.7 7.4 12.6 7.4c6.1 0 9.9-2.7 9.9-6.4c0-4.1-2.2-6.5-10.8-10.1c-8.8-3.8-11.3-6.1-11.3-9.5c0-3.7 4.2-6.7 13.4-6.7c5.1 0 9.1 1.8 11.6 4v4.6c-2.9-4.7-7.8-7.1-12.6-7.3c-6 0-9.1 1.7-9.1 4.4c.1 2.6 2.4 4.6 9.8 7.6c8.4 3.5 12.5 7 12.5 11.7c0 5.1-3.8 9.1-13.4 9.1zm52.8-17c0 9.4-7.7 17-17.1 17c-9.5 0-17.2-7.6-17.2-17c0-9.5 7.7-17.1 17.2-17.1c9.4 0 17.1 7.6 17.1 17.1zm-4.7-5.2c-3.3-8-11.5-12.2-18.4-9.4c-6.9 2.9-9.8 11.7-6.5 19.7c3.3 8 11.6 12.3 18.5 9.4c6.8-2.9 9.7-11.7 6.4-19.7zm6.5 22.2l17.7-34.6L308.6 95h-3.9l-4.9-9.5h-20L275 95h-1.9zm7.6-11.2h18.2l-9-17.6l-9.2 17.6zm59.1 8.9c1.59 2 3.2 2.1 3.2 2.1c0 0-.83.56-2.2.6c-2.8 0-4.1-.9-6.6-4.2c0 0-5.8-7.4-7.4-9.3c-1.4-1.8-2.4-2.3-3.5-2.3c-.03-.02-5.4 0-5.4 0V95h-3.5V60.9s8.15-.04 8.2 0c10.2 0 16.6 3.7 16.6 9.3c0 4.8-4.6 8.2-12.3 9.1c2.1.5 3.3 1.3 4.2 2.4l8.7 11zm-21.9-30.5v16.1s4.65-.04 4.7 0c6.8 0 13-2.4 13-8.1c0-5.6-6.2-8-13-8c-.05.04-4.7 0-4.7 0zM359.3 95c-4.5 0-9.6-1.5-12.6-4.1v-4.7c2.9 4.7 7.8 7.4 12.7 7.4c6.1 0 9.8-2.7 9.8-6.4c0-4.1-2.1-6.5-10.7-10.1c-8.8-3.8-11.3-6.1-11.3-9.5c0-3.7 4.2-6.7 13.3-6.7c5.1 0 9.2 1.8 11.7 4v4.6c-2.9-4.7-7.8-7.1-12.6-7.3c-6 0-9.1 1.7-9.1 4.4c.1 2.6 2.4 4.6 9.7 7.6c8.5 3.5 12.6 7 12.6 11.7c0 5.1-3.9 9.1-13.5 9.1zm68.4-31.6l-14.3-1.2V95h-3.5V62.2l-14.2 1.2v-2.5h32v2.5zM464 78c0 9.4-7.8 17-17.2 17c-9.4 0-17.1-7.6-17.1-17c0-9.5 7.7-17.1 17.1-17.1c9.4 0 17.2 7.6 17.2 17.1zm-4.7-5.2c-3.4-8-11.6-12.2-18.5-9.4c-6.8 2.9-9.8 11.7-6.5 19.7c3.4 8 11.6 12.3 18.5 9.4c6.9-2.9 9.8-11.7 6.5-19.7z" stroke="none" fill="#192d39"/></g><g id="Polygon16692"><path d="m.5 45l17.7-34.6L36 45h-3.9l-4.9-9.5H7.3L2.4 45H.5zm7.7-11.2h18.1l-9-17.6l-9.1 17.6zm59 8.9c1.62 2 3.2 2.1 3.2 2.1c0 0-.8.56-2.2.6c-2.8 0-4.1-.9-6.6-4.2c0 0-5.8-7.4-7.4-9.3c-1.4-1.8-2.4-2.3-3.5-2.3c0-.02-5.4 0-5.4 0V45h-3.5V10.9s8.18-.04 8.2 0c10.2 0 16.7 3.7 16.7 9.3c0 4.8-4.7 8.2-12.3 9.1c2 .5 3.2 1.3 4.2 2.4c1.4 1.9 8.6 11 8.6 11zM45.3 12.2v16.1s4.68-.04 4.7 0c6.8 0 13.1-2.4 13.1-8.1c-.1-5.6-6.3-8-13.1-8c-.02.04-4.7 0-4.7 0zm56.5 28.6c-3.2 2.6-7.2 4.2-11.7 4.2c-9.3 0-17.3-7.6-17.3-17c0-9.5 8-17.1 17.3-17.1c4.5 0 8.7 1.5 11.7 4v5c-2.9-4.8-8-7.7-12.9-7.7c-7.8 0-12.3 6.5-12.3 14c0 10.3 7.9 17.3 15.1 17.3c3.7 0 7.9-2.2 10.1-4.7v2zm35.5 4.2h-3.4V28.8h-21.4V45H109V10.9h3.5v16.2h21.4V10.9h3.4V45zm12.2 0H146V10.9h3.5V45zM188 13.4l-14.2-1.2V45h-3.5V12.2l-14.2 1.2v-2.5H188v2.5zm29.7-2.5v2.5l-20.1-1.2v14.7h15.7l-.4 2.6l-15.3-1.2v15.4l20.4-1.2l-.3 2.5h-23.6V10.9h23.6zm33.7 29.9c-3.1 2.6-7.2 4.2-11.6 4.2c-9.4 0-17.4-7.6-17.4-17c0-9.5 8-17.1 17.4-17.1c4.4 0 8.6 1.5 11.6 4v5c-2.9-4.8-8-7.7-12.8-7.7c-7.8 0-12.4 6.5-12.4 14c0 10.3 7.9 17.3 15.1 17.3c3.7 0 7.9-2.2 10.1-4.7v2zm37.1-27.4l-14.3-1.2V45h-3.5V12.2l-14.2 1.2v-2.5h32v2.5zm9.5-2.5s.02 20.9 0 20.9c0 7 4.6 11.3 11.9 11.3c7.2 0 10.6-4.5 10.6-11.4c.02.04 0-20.8 0-20.8h1.8s-.04 20.84 0 20.8c0 8-4.5 13.3-14 13.3c-9.3 0-13.8-5.5-13.8-13.3c.04.04 0-20.8 0-20.8h3.5zm57.9 31.8c1.58 2 3.2 2.1 3.2 2.1c0 0-.84.56-2.2.6c-2.8 0-4.1-.9-6.6-4.2c0 0-5.8-7.4-7.5-9.3c-1.3-1.8-2.3-2.3-3.4-2.3c-.04-.02-5.4 0-5.4 0V45h-3.5V10.9s8.14-.04 8.1 0c10.2 0 16.7 3.7 16.7 9.3c0 4.8-4.7 8.2-12.3 9.1c2.1.5 3.3 1.3 4.2 2.4l8.7 11zM334 12.2v16.1s4.64-.04 4.6 0c6.9 0 13.1-2.4 13.1-8.1c0-5.6-6.2-8-13.1-8c.04.04-4.6 0-4.6 0zm53.8-1.3v2.5l-20.1-1.2v14.7h15.8l-.4 2.6l-15.4-1.2v15.4l20.4-1.2l-.3 2.5h-23.5V10.9h23.5zm26.9 26.2c0-4.8 3.3-8.1 8.7-11c-2.3-2.8-3.8-5.1-3.8-8c0-4.1 3.5-7.2 8.3-7.2c3.4 0 6.6 2.5 6.6 5.7c0 3.1-2.1 6.3-7.1 8.8c.3.5.6.9 1 1.3l9.1 10.3c1.6-3.2 1.8-7.2.3-10.4h4c0 3.5-.9 8-3.1 11.7c-.04.04 5.9 6.7 5.9 6.7h-4.9s-3.32-3.78-3.3-3.8c-2.4 2.3-5.7 3.8-10 3.8c-8 0-11.7-3.7-11.7-7.9zm20.7 3L426 29.3c-.7-.8-1.3-1.5-1.8-2.2c-4.1 2.4-6.1 5.4-6.1 9.2c0 4.4 3.4 7.3 8.9 7.3c3.4 0 6.3-1.4 8.4-3.5zm-8.8-15.7c3.5-1.9 5.5-4.6 5.5-7.1c0-3.3-1.6-5-4.7-5c-2.5 0-4.5 1.7-4.5 4.3c0 2.4 1.3 4.6 3.7 7.8z" stroke="none" fill="#192d39"/></g></svg>