<?xml version="1.0" standalone="no"?><!DOCTYPE svg PUBLIC "-//W3C//DTD SVG 1.1//EN" "http://www.w3.org/Graphics/SVG/1.1/DTD/svg11.dtd"><svg xmlns="http://www.w3.org/2000/svg" version="1.1" width="105px" height="74.9px" viewBox="0 -2 105 74.9" style="top:-2px"><desc>100% construction completion on every project</desc><defs/><g id="Polygon15910"><path d="m27.4 45.3c0-1.5.9-2.3 1.9-2.3c1.1 0 1.8.9 1.8 2c-.03-.01 0 .3 0 .3c0 0-3.14.04-3.1 0c0 1.3.6 1.8 1.3 1.8h.1c.6 0 .9-.3 1.1-.9h.6c-.2.9-.9 1.3-1.8 1.3c-1.1 0-1.9-.7-1.9-2.2zm3.1-.4c0-.8-.5-1.4-1.1-1.4h-.1c-.6 0-1.2.3-1.3 1.4h2.5zm4.6-1.8h.6l-1.6 4.4h-.7l-1.7-4.4h.6l1.4 3.8l1.4-3.8zm1.2 2.2c0-1.5.9-2.3 1.9-2.3c1.1 0 1.8.9 1.8 2c-.02-.01 0 .3 0 .3c0 0-3.13.04-3.1 0c0 1.3.6 1.8 1.3 1.8h.1c.6 0 .9-.3 1.1-.9h.6c-.2.9-.9 1.3-1.8 1.3c-1 0-1.9-.7-1.9-2.2zm3.1-.4c0-.8-.4-1.4-1.1-1.4h-.1c-.6 0-1.2.3-1.3 1.4h2.5zm1.8 2.6v-4.4h.5s.05 1.02 0 1c.2-.7.8-1 1.4-1h.4v.5h-.4c-.8 0-1.3.7-1.3 1.8v2.1h-.6zm7.2-4.4l-1.8 4.2v.8c0 .6-.3.8-.8.8c-.03-.02-1.3 0-1.3 0v-.5h1.2c.2 0 .3-.1.3-.3c.03-.04 0-.8 0-.8l-1.8-4.2h.6l1.5 3.5l1.5-3.5h.6zm2.5 6.1v-6.1h.6s-.03.72 0 .7c.2-.5.9-.8 1.4-.8c1.1 0 1.9.9 1.9 2.3c0 1.4-.8 2.2-1.9 2.2c-.5 0-1.2-.3-1.4-.7c-.03-.03 0 2.4 0 2.4h-.6zm2-2.1c.9 0 1.4-.9 1.4-1.8c0-.9-.5-1.8-1.4-1.8c-1 0-1.4.9-1.4 1.8c0 .9.4 1.8 1.4 1.8zm3.2.4v-4.4h.5v1c.2-.7.7-1 1.3-1h.4v.5h-.3c-.9 0-1.4.7-1.4 1.8c.04-.05 0 2.1 0 2.1h-.5zm2.8-2.2c0-1.3.9-2.3 2-2.3c1.1 0 2 1 2 2.3c0 1.3-.9 2.2-2 2.2c-1.1 0-2-.9-2-2.2zm2.1 1.8c.7 0 1.3-.7 1.3-1.8c0-1.1-.6-1.8-1.3-1.8h-.1c-.8 0-1.4.7-1.4 1.8c0 1.1.6 1.8 1.4 1.8h.1zm3.1-4.7v-.8h.6v.8h-.6zm-1.4 6.5v-.5s1.08.01 1.1 0c.2 0 .3-.1.3-.3c.03-.04 0-5 0-5h.6s-.01 5.01 0 5c0 .6-.3.8-.8.8c-.03-.02-1.2 0-1.2 0zm3.2-3.6c0-1.5.9-2.3 1.9-2.3c1.1 0 1.8.9 1.8 2c-.02-.01 0 .3 0 .3c0 0-3.13.04-3.1 0c0 1.3.6 1.8 1.3 1.8h.1c.6 0 .9-.3 1.1-.9h.6c-.2.9-.9 1.3-1.8 1.3c-1 0-1.9-.7-1.9-2.2zm3.1-.4c0-.8-.4-1.4-1.1-1.4h-.1c-.6 0-1.2.3-1.3 1.4h2.5zm1.6.4c0-1.3.7-2.3 2-2.3c.9 0 1.6.6 1.7 1.5h-.6c-.1-.6-.5-1-1.1-1h-.1c-.9 0-1.3.9-1.3 1.8c0 .9.4 1.8 1.3 1.8h.1c.6 0 1-.5 1.1-1h.6c-.2.9-.8 1.4-1.7 1.4c-1.3 0-2-.9-2-2.2zm6.2 2.2c-.6 0-.8-.3-.8-.8c-.05-.02 0-3.1 0-3.1h-1v-.5h1v-1.4h.5v1.4h1.1v.5h-1.1v3c0 .3.1.4.4.4c-.04-.02.8 0 .8 0v.5s-.93-.04-.9 0z" stroke="none" fill="#192d39"/></g><g id="Polygon15909"><path d="m24.9 33.7c0-1.2.7-2.2 2-2.2c1 0 1.6.5 1.7 1.5h-.5c-.1-.6-.5-1-1.1-1h-.1c-1 0-1.4.8-1.4 1.7c0 1 .4 1.8 1.4 1.8h.1c.6 0 .9-.4 1.1-1h.5c-.1.9-.7 1.5-1.7 1.5c-1.3 0-2-1-2-2.3zm4.6 0c0-1.3.9-2.2 2-2.2c1.2 0 2 .9 2 2.2c0 1.4-.8 2.3-2 2.3c-1.1 0-2-.9-2-2.3zm2.1 1.8c.8 0 1.4-.7 1.4-1.8c0-1.1-.6-1.7-1.4-1.7h-.1c-.8 0-1.4.6-1.4 1.7c0 1.1.6 1.8 1.4 1.8h.1zm3.1.4v-4.3h.6v.7c.3-.5.8-.8 1.4-.8c.7 0 1.2.3 1.4.9c.3-.6.8-.9 1.5-.9c.9 0 1.5.5 1.5 1.6v2.8h-.6s.03-2.66 0-2.7c0-.8-.3-1.2-1-1.2c-.9 0-1.3.8-1.3 1.7v2.2h-.6s.03-2.66 0-2.7c0-.8-.3-1.2-1-1.2c-.9 0-1.3.8-1.3 1.7v2.2h-.6zm7.8 1.7v-6h.6v.7c.3-.5.9-.8 1.4-.8c1.2 0 2 .8 2 2.2c0 1.4-.8 2.3-2 2.3c-.5 0-1.1-.3-1.4-.8v2.4h-.6zm2-2.1c.9 0 1.4-.8 1.4-1.8c0-.9-.5-1.7-1.4-1.7c-1 0-1.4.8-1.4 1.7c0 1 .4 1.8 1.4 1.8zm3.2.4v-6.1h.6v6.1h-.6zm1.8-2.2c0-1.5.9-2.2 1.9-2.2c1.1 0 1.8.8 1.8 1.9c-.03.03 0 .4 0 .4c0 0-3.14-.02-3.1 0c0 1.2.6 1.7 1.3 1.7h.1c.6 0 .9-.3 1.1-.8h.6c-.2.8-.9 1.3-1.8 1.3c-1.1 0-1.9-.8-1.9-2.3zm3.1-.4c0-.8-.5-1.3-1.1-1.3h-.1c-.6 0-1.2.3-1.3 1.3h2.5zm3.1 2.6c-.6 0-.9-.2-.9-.8c.03.02 0-3.1 0-3.1h-1v-.4h1v-1.4h.6v1.4h1.1v.4h-1.1v3.1c0 .2.1.3.3.3c.04.02.9 0 .9 0v.5h-.9zm1.9-5.1v-.7h.6v.7h-.6zm0 5.1v-4.3h.6v4.3h-.6zm1.8-2.2c0-1.3.8-2.2 1.9-2.2c1.2 0 2 .9 2 2.2c0 1.4-.8 2.3-2 2.3c-1.1 0-1.9-.9-1.9-2.3zm2 1.8c.8 0 1.4-.7 1.4-1.8c0-1.1-.6-1.7-1.4-1.7h-.1c-.8 0-1.4.6-1.4 1.7c0 1.1.6 1.8 1.4 1.8h.1zm3.1.4v-4.3h.6v.7c.3-.5.8-.8 1.5-.8c.9 0 1.5.5 1.5 1.6c.03-.03 0 2.8 0 2.8h-.5s-.03-2.66 0-2.7c0-.8-.4-1.2-1.1-1.2c-1 0-1.4.8-1.4 1.7c.01.03 0 2.2 0 2.2h-.6zm6.4-2.2c0-1.3.9-2.2 2-2.2c1.1 0 2 .9 2 2.2c0 1.4-.9 2.3-2 2.3c-1.1 0-2-.9-2-2.3zm2.1 1.8c.7 0 1.3-.7 1.3-1.8c0-1.1-.6-1.7-1.3-1.7h-.1c-.8 0-1.4.6-1.4 1.7c0 1.1.6 1.8 1.4 1.8h.1zm3.1.4v-4.3h.6v.7c.2-.5.8-.8 1.5-.8c.9 0 1.5.5 1.5 1.6v2.8h-.5s-.05-2.66 0-2.7c0-.8-.4-1.2-1.1-1.2c-1 0-1.4.8-1.4 1.7c-.01.03 0 2.2 0 2.2h-.6z" stroke="none" fill="#192d39"/></g><g id="Polygon15908"><path d="m27.9 22.2c0-1.3.7-2.3 2-2.3c.9 0 1.6.6 1.6 1.5h-.5c-.1-.6-.5-1-1.1-1h-.1c-.9 0-1.4.8-1.4 1.8c0 .9.5 1.7 1.4 1.7h.1c.6 0 1-.4 1.1-.9h.5c-.1.8-.7 1.4-1.6 1.4c-1.3 0-2-1-2-2.2zm4.6 0c0-1.4.8-2.3 2-2.3c1.1 0 2 .9 2 2.3c0 1.3-.9 2.2-2 2.2c-1.2 0-2-.9-2-2.2zm2 1.7c.8 0 1.4-.6 1.4-1.7c0-1.1-.6-1.8-1.4-1.8h-.1c-.8 0-1.4.7-1.4 1.8c0 1.1.6 1.7 1.4 1.7h.1zm3.2.4V20h.5s.03.74 0 .7c.3-.4.8-.8 1.5-.8c.9 0 1.6.6 1.6 1.6c-.05.01 0 2.8 0 2.8h-.6v-2.6c0-.9-.4-1.3-1-1.3h-.1c-.9 0-1.4.8-1.4 1.8c.03-.03 0 2.1 0 2.1h-.5zm4.7-1.3h.5c.1.6.5.9 1.1.9h.1c.6 0 1-.3 1-.7c0-.4-.2-.6-.8-.7l-.6-.1c-.6-.2-1.2-.5-1.2-1.2c0-.8.8-1.3 1.6-1.3c1.1 0 1.6.7 1.6 1.4h-.6c0-.5-.4-.9-1-.9h-.1c-.6 0-.9.4-.9.7c0 .4.2.6.8.7l.7.2c.6.1 1.1.4 1.1 1.1c0 .8-.7 1.3-1.6 1.3c-1.1 0-1.7-.6-1.7-1.4zm5.9 1.3c-.6 0-.9-.2-.9-.7c.03-.04 0-3.1 0-3.1h-1v-.5h1v-1.4h.6v1.4h1.1v.5H48v3c0 .3.1.4.3.4c.04-.04.9 0 .9 0v.4s-.95.03-.9 0zm1.9 0V20h.5v1c.2-.7.8-1 1.4-1c-.05-.03.3 0 .3 0v.5h-.3c-.8 0-1.3.6-1.3 1.7c-.04.03 0 2.1 0 2.1h-.6zm3.2-1.4V20h.6s-.04 2.69 0 2.7c0 .8.3 1.2 1 1.2h.1c.6 0 1.2-.6 1.2-1.6c.04.05 0-2.3 0-2.3h.6v4.3h-.6s.04-.78 0-.8c-.2.6-.7.9-1.4.9c-1 0-1.5-.6-1.5-1.5zm4.7-.7c0-1.3.7-2.3 2-2.3c.9 0 1.6.6 1.7 1.5h-.6c-.1-.6-.5-1-1-1h-.1c-1 0-1.4.8-1.4 1.8c0 .9.4 1.7 1.4 1.7h.1c.5 0 .9-.4 1-.9h.6c-.2.8-.8 1.4-1.7 1.4c-1.3 0-2-1-2-2.2zm6.2 2.1c-.6 0-.8-.2-.8-.7v-3.1h-1v-.5h1v-1.4h.5v1.4h1.1v.5H64s.05 3.01 0 3c0 .3.1.4.4.4c-.01-.04.9 0 .9 0v.4s-.99.03-1 0zm1.9-5.1v-.7h.7v.7h-.7zm0 5.1V20h.6v4.3h-.6zm1.8-2.1c0-1.4.9-2.3 2-2.3c1.1 0 2 .9 2 2.3c0 1.3-.9 2.2-2 2.2c-1.1 0-2-.9-2-2.2zm2 1.7c.8 0 1.4-.6 1.4-1.7c0-1.1-.6-1.8-1.4-1.8c-.8 0-1.4.7-1.4 1.8c0 1.1.6 1.7 1.4 1.7zm3.2.4V20h.6s-.04.74 0 .7c.2-.4.8-.8 1.5-.8c.8 0 1.5.6 1.5 1.6v2.8h-.6s.03-2.62 0-2.6c0-.9-.3-1.3-1-1.3h-.1c-.9 0-1.3.8-1.3 1.8c-.04-.03 0 2.1 0 2.1h-.6z" stroke="none" fill="#192d39"/></g><g id="Polygon15907"><path d="m38.3 12.8h-1V4.5c-.4.5-.9.8-1.4 1.1l-.2-.3c.9-.4 1.7-1.1 2-2.2c.04-.02.6 0 .6 0v9.7zM47 8.4c0-2.9-1.5-4.9-3.5-4.9c-1.9 0-2.7 1.9-2.7 4c0 2.9 1.5 4.8 3.5 4.8c1.7 0 2.7-1.8 2.7-3.9zm.9-.5c0 2.7-1.5 4.9-4 4.9c-2.5 0-4.1-2.2-4.1-4.9c0-2.7 1.7-4.8 4.1-4.8c2.4 0 4 2.1 4 4.8zm8.3.5c0-2.9-1.5-4.9-3.5-4.9c-1.9 0-2.7 1.9-2.7 4c0 2.9 1.6 4.8 3.5 4.8c1.7 0 2.7-1.8 2.7-3.9zm1-.5c0 2.7-1.6 4.9-4.1 4.9c-2.4 0-4-2.2-4-4.9c0-2.7 1.7-4.8 4.1-4.8c2.4 0 4 2.1 4 4.8zm5.3-2.7c0 1.2-.9 2.2-2.1 2.2c-1.2 0-2.2-1-2.2-2.2c0-1.1 1-2.1 2.2-2.1c1.2 0 2.1 1 2.1 2.1zm-.6-.6c-.4-1-1.4-1.5-2.2-1.1c-.9.3-1.2 1.4-.8 2.4c.4.9 1.4 1.5 2.2 1.1c.9-.3 1.2-1.4.8-2.4zm-1.5 8.2h-.4l5.9-9.7h.4l-5.9 9.7zm3.4-2.2c0-1.2 1-2.2 2.2-2.2c1.1 0 2.1 1 2.1 2.2c0 1.2-1 2.2-2.1 2.2c-1.2 0-2.2-1-2.2-2.2zm.6.6c.4 1 1.5 1.5 2.3 1.2c.8-.4 1.2-1.4.8-2.4c-.4-1-1.4-1.5-2.3-1.1c-.8.3-1.2 1.4-.8 2.3z" stroke="none" fill="#192d39"/></g></svg>