<?xml version="1.0" standalone="no"?><!DOCTYPE svg PUBLIC "-//W3C//DTD SVG 1.1//EN" "http://www.w3.org/Graphics/SVG/1.1/DTD/svg11.dtd"><svg xmlns="http://www.w3.org/2000/svg" version="1.1" width="39px" height="15px" viewBox="0 -2 39 15" style="top:-2px"><desc>9</desc><defs/><g id="Polygon17703"><path d="m21.6 3.7c0 2-1.2 3.4-2.7 3.4c-1.1 0-1.9-.6-2.1-1.7h1.1c.1.5.4.8 1 .8h.1c.8 0 1.5-.7 1.7-2.3c-.3.6-1 1-1.7 1c-1.1 0-2-.8-2-2.1c0-1.2.9-2.2 2.2-2.2c1.5 0 2.4 1.1 2.4 3.1zm-2.3.2c.6 0 1.2-.5 1.2-1.2c0-.6-.6-1.1-1.2-1.1h-.1c-.7 0-1.2.5-1.2 1.1c0 .7.5 1.2 1.2 1.2h.1z" stroke="none" fill="#dcddce"/></g></svg>