<?xml version="1.0" standalone="no"?><!DOCTYPE svg PUBLIC "-//W3C//DTD SVG 1.1//EN" "http://www.w3.org/Graphics/SVG/1.1/DTD/svg11.dtd"><svg xmlns="http://www.w3.org/2000/svg" version="1.1" width="246px" height="12.5px" viewBox="0 -2 246 12.5" style="top:-2px"><desc>Artist impression of the 3,000sqm central podium garden</desc><defs/><g id="Polygon17597"><path d="m59.3 5.5l-.5-1.2h-2.2l-.4 1.2h-.9L57.2.6h1.1l1.9 4.9h-.9zm-2.4-2h1.6l-.8-2.1l-.8 2.1zm4 2V2h.8s-.02.69 0 .7c.1-.5.5-.8 1-.8c0 .03.2 0 .2 0v.8s-.27-.02-.3 0c-.6 0-.9.3-.9 1c-.01-.04 0 1.8 0 1.8h-.8zm4.2 0c-.6 0-.9-.3-.9-.9c.03.01 0-2 0-2h-.7v-.6h.7V.8h.8v1.2h.8v.6h-.8s.04 1.82 0 1.8c0 .3.1.4.4.4c-.02-.03.5 0 .5 0v.7s-.82-.04-.8 0zm1.6-4.1v-.8h.9v.8h-.9zm0 4.1V2h.8v3.5h-.8zm1.7-1.2h.8c0 .4.3.6.7.6h.1c.3 0 .5-.2.5-.4c0-.2-.1-.3-.4-.4l-.5-.1c-.6-.1-1-.5-1-1c0-.7.5-1.1 1.3-1.1c.9 0 1.4.5 1.4 1.2h-.8c0-.3-.2-.6-.6-.6c-.3 0-.5.2-.5.4c0 .2.1.3.4.4l.5.1c.6.2 1 .5 1 1.1c0 .6-.5 1-1.4 1c-.9 0-1.5-.4-1.5-1.2zm5.1 1.2c-.5 0-.8-.3-.8-.9v-2h-.7v-.6h.7V.8h.8v1.2h.8v.6h-.8v1.8c0 .3.1.4.3.4c.05-.03.6 0 .6 0v.7s-.85-.04-.9 0zm2.9-4.1v-.8h.9v.8h-.9zm0 4.1V2h.9v3.5h-.9zm2 0V2h.8s-.03.46 0 .5c.2-.4.6-.6 1-.6c.5 0 .9.2 1.1.6c.3-.4.7-.6 1.2-.6c.8 0 1.2.5 1.2 1.3c.03-.01 0 2.3 0 2.3h-.8s.03-2.18 0-2.2c0-.5-.2-.7-.6-.7c-.5 0-.8.3-.8.9c-.05.01 0 2 0 2h-.9s.05-2.18 0-2.2c0-.5-.1-.7-.6-.7c-.4 0-.8.3-.8.9c-.03.01 0 2 0 2h-.8zm6.4 1.4V2h.8s.04.43 0 .4c.2-.2.6-.5 1.1-.5c1 0 1.5.8 1.5 1.8c0 1-.6 1.8-1.5 1.8c-.5 0-.9-.2-1.1-.5c.04-.01 0 1.9 0 1.9h-.8zm1.8-2c.5 0 .8-.4.8-1.2c0-.7-.3-1.2-.8-1.2h-.1c-.4 0-.9.5-.9 1.2c0 .8.5 1.2.9 1.2h.1zm2.6.6V2h.8s-.03.69 0 .7c.1-.5.5-.8 1-.8c-.02.03.2 0 .2 0v.8s-.28-.02-.3 0c-.6 0-.9.3-.9 1c-.02-.04 0 1.8 0 1.8h-.8zm2.6-1.8c0-1.1.7-1.8 1.6-1.8c1 0 1.6.7 1.6 1.7v.3h-2.4c0 .6.4 1 .8 1h.1c.3 0 .6-.2.7-.5h.8c-.2.7-.7 1.1-1.6 1.1c-.8 0-1.6-.6-1.6-1.8zm2.4-.4c0-.5-.4-.8-.8-.8c-.4 0-.7.3-.8.8h1.6zm1.5 1h.8c0 .4.3.6.7.6c.4 0 .6-.2.6-.4c0-.2-.1-.3-.4-.4l-.5-.1c-.7-.1-1.1-.5-1.1-1c0-.7.6-1.1 1.4-1.1c.9 0 1.4.5 1.4 1.2h-.8c0-.3-.2-.6-.6-.6c-.3 0-.6.2-.6.4c0 .2.2.3.5.4l.5.1c.6.2 1 .5 1 1.1c0 .6-.5 1-1.4 1c-1 0-1.5-.4-1.5-1.2zm3.6 0h.8c.1.4.3.6.7.6h.1c.3 0 .5-.2.5-.4c0-.2-.1-.3-.4-.4l-.5-.1c-.6-.1-1-.5-1-1c0-.7.5-1.1 1.3-1.1c.9 0 1.4.5 1.4 1.2h-.8c0-.3-.2-.6-.6-.6c-.3 0-.5.2-.5.4c0 .2.1.3.4.4l.5.1c.6.2 1 .5 1 1.1c0 .6-.5 1-1.4 1c-.9 0-1.5-.4-1.5-1.2zm3.9-2.9v-.8h.8v.8h-.8zm0 4.1V2h.8v3.5h-.8zm1.7-1.8c0-1.1.7-1.8 1.7-1.8c1 0 1.7.7 1.7 1.8c0 1.1-.7 1.8-1.7 1.8c-1 0-1.7-.7-1.7-1.8zm1.7 1.2c.6 0 .9-.5.9-1.2c0-.7-.3-1.2-.9-1.2c-.5 0-.9.5-.9 1.2c0 .7.4 1.2.9 1.2zm2.7.6V2h.8s-.03.46 0 .5c.2-.4.6-.6 1.1-.6c.8 0 1.2.5 1.2 1.3v2.3h-.8s-.01-2.2 0-2.2c0-.5-.2-.8-.6-.8h-.1c-.4 0-.8.4-.8 1c-.03.01 0 2 0 2h-.8zm5.2-1.8c0-1.1.7-1.8 1.7-1.8c1 0 1.7.7 1.7 1.8c0 1.1-.7 1.8-1.7 1.8c-1 0-1.7-.7-1.7-1.8zm1.7 1.2c.5 0 .9-.5.9-1.2c0-.7-.4-1.2-.9-1.2c-.6 0-.9.5-.9 1.2c0 .7.3 1.2.9 1.2zm3 .6V2.6h-.7v-.6h.7v-.6c0-.6.3-.8.8-.8c.03-.04 1 0 1 0v.6s-.66.04-.7 0c-.2 0-.3.1-.3.4v.4h.8v.6h-.8v2.9h-.8zm4.9 0c-.6 0-.9-.3-.9-.9v-2h-.7v-.6h.7V.8h.8v1.2h.8v.6h-.8s.01 1.82 0 1.8c0 .3.1.4.4.4c-.04-.03.5 0 .5 0v.7s-.84-.04-.8 0zm1.6 0V.6h.8s.03 1.86 0 1.9c.2-.4.6-.6 1.1-.6c.8 0 1.3.5 1.3 1.3c-.04-.02 0 2.3 0 2.3h-.8s-.05-2.2 0-2.2c0-.5-.3-.8-.7-.8c-.5 0-.9.4-.9 1c.03.01 0 2 0 2h-.8zm4.1-1.8c0-1.1.6-1.8 1.6-1.8c1 0 1.6.7 1.6 1.7c0 .1-.1.2-.1.3h-2.4c.1.6.5 1 .9 1h.1c.3 0 .6-.2.6-.5h.8c-.1.7-.7 1.1-1.5 1.1c-.9 0-1.6-.6-1.6-1.8zm2.4-.4c-.1-.5-.4-.8-.8-.8c-.4 0-.8.3-.8.8h1.6zm2.7.8h.8c.1.5.4.7.9.7h.1c.5 0 .8-.3.8-.7c0-.5-.4-.7-.9-.7c.04-.03-.3 0-.3 0v-.7s.32-.05.3 0c.5 0 .9-.4.9-.8c0-.4-.4-.7-.8-.7h-.1c-.4 0-.8.3-.8.7h-.8c0-.8.7-1.4 1.7-1.4c.9 0 1.6.6 1.6 1.3c0 .6-.3 1-.8 1.2c.5.1.8.5.8 1.1c0 .9-.7 1.4-1.7 1.4c-1 0-1.7-.5-1.7-1.4zm4.2 2.4v-.5h.3c.3 0 .4-.2.4-.5c0 .04 0 0 0 0h-.4v-1h.9v1.1c0 .5-.4.9-.9.9c-.01-.02-.3 0-.3 0zm2.1-3.5c0-1.6.7-2.5 1.9-2.5c1.3 0 2 .9 2 2.5c0 1.6-.7 2.5-2 2.5c-1.2 0-1.9-.9-1.9-2.5zm2 1.8c.6 0 1.1-.6 1.1-1.8c0-1.2-.5-1.8-1.1-1.8h-.1c-.7 0-1.1.6-1.1 1.8c0 1.2.4 1.8 1.1 1.8h.1zM146 3c0-1.6.7-2.5 2-2.5c1.2 0 1.9.9 1.9 2.5c0 1.6-.7 2.5-1.9 2.5c-1.3 0-2-.9-2-2.5zm2 1.8c.7 0 1.1-.6 1.1-1.8c0-1.2-.4-1.8-1.1-1.8h-.1c-.6 0-1.1.6-1.1 1.8c0 1.2.5 1.8 1.1 1.8h.1zm2.8-1.8c0-1.6.8-2.5 2-2.5c1.2 0 2 .9 2 2.5c0 1.6-.7 2.5-2 2.5c-1.3 0-2-.9-2-2.5zm2 1.8c.7 0 1.1-.6 1.1-1.8c0-1.2-.4-1.8-1.1-1.8c-.7 0-1.1.6-1.1 1.8c0 1.2.4 1.8 1.1 1.8zm2.7-.5h.9c0 .4.3.6.6.6h.1c.3 0 .5-.2.5-.4c0-.2-.1-.3-.4-.4l-.5-.1c-.6-.1-1-.5-1-1c0-.7.6-1.1 1.4-1.1c.9 0 1.4.5 1.4 1.2h-.8c-.1-.3-.2-.6-.6-.6h-.1c-.3 0-.5.2-.5.4c0 .2.1.3.5.4l.5.1c.6.2.9.5.9 1.1c0 .6-.5 1-1.4 1c-.9 0-1.5-.4-1.5-1.2zm6.3 2.6V5c-.2.3-.5.5-1 .5c-1 0-1.6-.8-1.6-1.8c0-1 .6-1.8 1.5-1.8c.5 0 .9.3 1.1.5v-.4h.8v4.9h-.8zm-.9-2c.5 0 .9-.4.9-1.2c0-.7-.4-1.2-.9-1.2c-.5 0-.9.5-.9 1.2c0 .8.4 1.2.9 1.2zm2.8.6V2h.8s.03.46 0 .5c.3-.4.6-.6 1.1-.6c.5 0 .9.2 1.1.6c.3-.4.7-.6 1.1-.6c.9 0 1.3.5 1.3 1.3v2.3h-.8s-.01-2.18 0-2.2c0-.5-.2-.7-.6-.7h-.1c-.4 0-.8.3-.8.9v2h-.8s.01-2.18 0-2.2c0-.5-.2-.7-.6-.7h-.1c-.4 0-.8.3-.8.9c.03.01 0 2 0 2h-.8zm7.5-1.8c0-1.1.6-1.8 1.7-1.8c.8 0 1.4.4 1.5 1.3h-.8c-.1-.4-.3-.7-.7-.7h-.1c-.6 0-.8.6-.8 1.2c0 .6.2 1.2.8 1.2h.1c.4 0 .6-.3.7-.6h.8c-.1.8-.7 1.2-1.5 1.2c-1.1 0-1.7-.7-1.7-1.8zm3.9 0c0-1.1.7-1.8 1.6-1.8c1 0 1.6.7 1.6 1.7v.3h-2.4c0 .6.4 1 .8 1h.1c.3 0 .6-.2.7-.5h.8c-.2.7-.8 1.1-1.6 1.1c-.8 0-1.6-.6-1.6-1.8zm2.4-.4c-.1-.5-.4-.8-.8-.8c-.4 0-.8.3-.8.8h1.6zm1.7 2.2V2h.8s.03.46 0 .5c.2-.4.6-.6 1.1-.6c.8 0 1.2.5 1.2 1.3c.05-.02 0 2.3 0 2.3h-.8s.05-2.2 0-2.2c0-.5-.2-.8-.6-.8c-.5 0-.9.4-.9 1c.03.01 0 2 0 2h-.8zm5.4 0c-.5 0-.8-.3-.8-.9v-2h-.7v-.6h.7V.8h.8v1.2h.8v.6h-.8v1.8c0 .3.1.4.3.4c.04-.03.6 0 .6 0v.7s-.86-.04-.9 0zm1.7 0V2h.8v.7c.1-.5.5-.8 1-.8c.02.03.3 0 .3 0v.8s-.34-.02-.3 0c-.7 0-1 .3-1 1c.02-.04 0 1.8 0 1.8h-.8zm2.7-1c0-.8.6-1.1 1.2-1.1c.04-.03 1-.1 1-.1c0 0-.05-.1 0-.1c0-.4-.3-.7-.7-.7c-.4 0-.6.2-.7.5h-.8c.1-.6.7-1.1 1.5-1.1c.9 0 1.4.5 1.4 1.3v1.5c0 .2 0 .5.1.8h-.8v-.5c-.2.3-.6.5-1.1.5c-.6 0-1.1-.4-1.1-1zm1.3.4c.4 0 .9-.4.9-.8c-.05 0 0-.2 0-.2c0 0-.86.07-.9.1c-.3 0-.5.1-.5.5c0 .2.2.4.4.4h.1zm2.7.6V.6h.8v4.9h-.8zm3.2 1.4V2h.8s-.04.43 0 .4c.1-.2.5-.5 1-.5c1 0 1.6.8 1.6 1.8c0 1-.6 1.8-1.6 1.8c-.5 0-.9-.2-1-.5c-.04-.01 0 1.9 0 1.9h-.8zm1.7-2c.5 0 .9-.4.9-1.2c0-.7-.4-1.2-.9-1.2h-.1c-.4 0-.8.5-.8 1.2c0 .8.4 1.2.8 1.2h.1zm2.4-1.2c0-1.1.7-1.8 1.7-1.8c1 0 1.7.7 1.7 1.8c0 1.1-.7 1.8-1.7 1.8c-1 0-1.7-.7-1.7-1.8zm1.7 1.2c.6 0 .9-.5.9-1.2c0-.7-.3-1.2-.9-1.2c-.5 0-.9.5-.9 1.2c0 .7.4 1.2.9 1.2zm2.5-1.2c0-1 .6-1.8 1.6-1.8c.4 0 .8.3 1 .5c-.01.03 0-1.8 0-1.8h.8v4.9h-.8v-.5c-.2.3-.6.5-1.1.5c-.9 0-1.5-.8-1.5-1.8zm1.7 1.2c.5 0 .9-.4.9-1.2c0-.7-.4-1.2-.9-1.2c-.5 0-.9.5-.9 1.2c0 .7.4 1.2.9 1.2zm2.8-3.5v-.8h.9v.8h-.9zm0 4.1V2h.8v3.5h-.8zm1.9-1.3c-.01.03 0-2.2 0-2.2h.8v2.1c0 .5.2.8.6.8h.1c.4 0 .7-.4.7-1c.05-.01 0-1.9 0-1.9h.9v3.5h-.9s.05-.61 0-.6c-.1.3-.5.6-1 .6c-.8 0-1.2-.5-1.2-1.3zm4.2 1.3V2h.8s-.03.46 0 .5c.2-.4.6-.6 1-.6c.5 0 .9.2 1.1.6c.3-.4.7-.6 1.2-.6c.9 0 1.2.5 1.2 1.3c.03-.01 0 2.3 0 2.3h-.8s.03-2.18 0-2.2c0-.5-.2-.7-.6-.7c-.5 0-.8.3-.8.9c-.05.01 0 2 0 2h-.9s.05-2.18 0-2.2c0-.5-.1-.7-.6-.7c-.4 0-.8.3-.8.9c-.03.01 0 2 0 2h-.8zm7.4.4h.8c0 .3.3.4.8.4h.1c.5 0 .9-.3.9-.9v-.5c-.2.4-.6.6-1 .6c-.9 0-1.6-.6-1.6-1.8c0-1.2.7-1.8 1.6-1.8c.4 0 .8.2 1 .5c-.04.01 0-.4 0-.4h.8s-.04 3.51 0 3.5c0 .8-.6 1.5-1.8 1.5c-1 0-1.6-.5-1.6-1.1zm1.7-1.1c.5 0 .9-.4.9-1.1c0-.7-.4-1.2-.9-1.2c-.5 0-.9.4-.9 1.2c0 .7.4 1.1.9 1.1zm2.6-.3c0-.8.6-1.1 1.3-1.1c-.02-.03.9-.1.9-.1v-.1c0-.4-.2-.7-.6-.7h-.1c-.3 0-.6.2-.6.5h-.8c0-.6.6-1.1 1.4-1.1c.9 0 1.5.5 1.5 1.3v2.3h-.7c-.1-.2-.1-.4-.1-.5c-.2.3-.5.5-1.1.5c-.6 0-1.1-.4-1.1-1zm1.3.4c.5 0 .9-.4.9-.8v-.2s-.82.07-.8.1c-.3 0-.6.1-.6.5c0 .2.2.4.5.4zm2.8.6V2h.8s-.04.69 0 .7c.1-.5.5-.8 1-.8c-.02.03.2 0 .2 0v.8s-.29-.02-.3 0c-.6 0-.9.3-.9 1c-.03-.04 0 1.8 0 1.8h-.8zm2.6-1.8c0-1 .6-1.8 1.5-1.8c.5 0 .9.3 1.1.5c-.02.03 0-1.8 0-1.8h.8v4.9h-.8s-.02-.51 0-.5c-.2.3-.6.5-1.1.5c-.9 0-1.5-.8-1.5-1.8zm1.7 1.2c.5 0 .9-.4.9-1.2c0-.7-.4-1.2-.9-1.2c-.5 0-.9.5-.9 1.2c0 .7.4 1.2.9 1.2zm2.6-1.2c0-1.1.7-1.8 1.7-1.8c1 0 1.5.7 1.5 1.7v.3h-2.4c.1.6.5 1 .9 1c.4 0 .6-.2.7-.5h.8c-.1.7-.7 1.1-1.5 1.1c-.9 0-1.7-.6-1.7-1.8zm2.4-.4c0-.5-.3-.8-.7-.8h-.1c-.3 0-.7.3-.8.8h1.6zm1.8 2.2V2h.8s-.02.46 0 .5c.2-.4.6-.6 1.1-.6c.8 0 1.2.5 1.2 1.3v2.3h-.8V3.3c0-.5-.2-.8-.6-.8h-.1c-.4 0-.8.4-.8 1c-.02.01 0 2 0 2h-.8z" stroke="none" fill="#e5e5db"/></g></svg>