<?xml version="1.0" standalone="no"?><!DOCTYPE svg PUBLIC "-//W3C//DTD SVG 1.1//EN" "http://www.w3.org/Graphics/SVG/1.1/DTD/svg11.dtd"><svg xmlns="http://www.w3.org/2000/svg" version="1.1" width="302px" height="20.5px" viewBox="0 -2 302 20.5" style="top:-2px"><desc>Source: www.ryde.nsw.gov.au Macquarie Park Marketing Plan 2019 2023, transportnsw.info, connectmpid.com.au/about mac ...</desc><defs/><g id="Polygon21611"><path d="m.4 12.7c0-1 .5-1.8 1.6-1.8c.7 0 1.3.4 1.3 1.2h-.4c-.1-.5-.4-.8-.9-.8h-.1c-.7 0-1.1.6-1.1 1.4c0 .8.4 1.4 1.1 1.4h.1c.5 0 .8-.3.9-.8h.4c-.1.8-.6 1.2-1.3 1.2c-1.1 0-1.6-.8-1.6-1.8zm3.7 0c0-1.1.7-1.8 1.6-1.8c.9 0 1.7.7 1.7 1.8c0 1.1-.8 1.8-1.7 1.8c-.9 0-1.6-.7-1.6-1.8zm1.7 1.4c.6 0 1.1-.5 1.1-1.4c0-.9-.5-1.4-1.1-1.4h-.1c-.6 0-1.1.5-1.1 1.4c0 .9.5 1.4 1.1 1.4h.1zm2.6.4V11h.4s.04.55 0 .5c.2-.3.7-.6 1.3-.6c.7 0 1.2.4 1.2 1.3v2.3h-.5s.04-2.19 0-2.2c0-.7-.2-1-.8-1c-.8 0-1.2.7-1.2 1.4c.04.01 0 1.8 0 1.8h-.4zm4.1 0V11h.5s-.04.55 0 .5c.2-.3.6-.6 1.2-.6c.7 0 1.2.4 1.2 1.3v2.3h-.4s-.04-2.19 0-2.2c0-.7-.3-1-.9-1c-.8 0-1.1.7-1.1 1.4c-.04.01 0 1.8 0 1.8h-.5zm3.9-1.8c0-1.2.8-1.8 1.6-1.8c.8 0 1.4.7 1.4 1.6v.2s-2.51.04-2.5 0c0 1 .5 1.4 1.1 1.4c.5 0 .8-.2.9-.6h.5c-.2.7-.7 1-1.4 1c-.9 0-1.6-.6-1.6-1.8zm2.6-.3c-.1-.7-.4-1.1-1-1.1c-.5 0-1 .2-1.1 1.1h2.1zm1.3.3c0-1 .6-1.8 1.6-1.8c.7 0 1.3.4 1.4 1.2h-.5c-.1-.5-.4-.8-.9-.8c-.8 0-1.2.6-1.2 1.4c0 .8.4 1.4 1.2 1.4c.5 0 .8-.3.9-.8h.5c-.2.8-.7 1.2-1.4 1.2c-1 0-1.6-.8-1.6-1.8zm5 1.8c-.4 0-.6-.2-.6-.7c-.03.03 0-2.5 0-2.5h-.8v-.3h.8V9.8h.4v1.2h.9v.3h-.9s.02 2.5 0 2.5c0 .2.1.3.3.3c0-.02.7 0 .7 0v.4s-.77-.04-.8 0zm1.7 0V11h.4v.5c.2-.3.6-.6 1.2-.6c.5 0 .9.2 1.1.7c.2-.5.6-.7 1.2-.7c.7 0 1.2.4 1.2 1.3v2.3h-.5s.05-2.19 0-2.2c0-.7-.2-1-.8-1c-.7 0-1 .7-1 1.4c-.04.01 0 1.8 0 1.8h-.5v-2.2c0-.7-.3-1-.8-1c-.8 0-1.1.7-1.1 1.4c.01.01 0 1.8 0 1.8h-.4zm6.3 1.4V11h.5s-.02.52 0 .5c.2-.4.7-.6 1.1-.6c1 0 1.6.7 1.6 1.8c0 1.1-.6 1.8-1.6 1.8c-.4 0-.9-.2-1.1-.6c-.02 0 0 2 0 2h-.5zm1.6-1.8c.8 0 1.1-.6 1.1-1.4c0-.7-.3-1.4-1.1-1.4c-.8 0-1.1.7-1.1 1.4c0 .8.3 1.4 1.1 1.4zm2.6-3.8v-.6h.5v.6h-.5zm.1 4.2V11h.4v3.5h-.4zm1.4-1.8c0-1.1.7-1.8 1.6-1.8c.5 0 1 .2 1.2.6c-.02.02 0-1.9 0-1.9h.4v4.9h-.4s-.02-.6 0-.6c-.2.4-.7.6-1.2.6c-.9 0-1.6-.7-1.6-1.8zm1.7 1.4c.7 0 1.1-.6 1.1-1.4c0-.7-.4-1.4-1.1-1.4h-.1c-.7 0-1.1.7-1.1 1.4c0 .8.4 1.4 1.1 1.4h.1zm2.7.4v-.7h.7v.7h-.7zm1.7-1.8c0-1 .6-1.8 1.6-1.8c.7 0 1.3.4 1.4 1.2h-.5c-.1-.5-.4-.8-.9-.8c-.8 0-1.2.6-1.2 1.4c0 .8.4 1.4 1.2 1.4c.5 0 .8-.3.9-.8h.5c-.2.8-.7 1.2-1.4 1.2c-1 0-1.6-.8-1.6-1.8zm3.8 0c0-1.1.7-1.8 1.6-1.8c.9 0 1.6.7 1.6 1.8c0 1.1-.7 1.8-1.6 1.8c-.9 0-1.6-.7-1.6-1.8zm1.6 1.4c.6 0 1.1-.5 1.1-1.4c0-.9-.5-1.4-1.1-1.4h-.1c-.6 0-1.1.5-1.1 1.4c0 .9.5 1.4 1.1 1.4h.1zm2.6.4V11h.5s-.02.52 0 .5c.2-.3.6-.6 1.1-.6c.5 0 1 .2 1.1.7c.3-.5.7-.7 1.3-.7c.7 0 1.2.4 1.2 1.3c-.03-.03 0 2.3 0 2.3h-.5s.01-2.19 0-2.2c0-.7-.3-1-.8-1c-.7 0-1.1.7-1.1 1.4c.02.01 0 1.8 0 1.8h-.4s-.03-2.19 0-2.2c0-.7-.3-1-.8-1h-.1c-.7 0-1 .7-1 1.4c-.02.01 0 1.8 0 1.8h-.5zm6.4 0v-.7h.7v.7h-.7zm1.7-1c0-.8.7-1 1.2-1.1c.01.04 1.1 0 1.1 0c0 0 .02-.18 0-.2c0-.6-.3-.9-.9-.9c-.4 0-.8.2-.9.6h-.4c0-.6.6-1 1.3-1c.9 0 1.4.6 1.4 1.3v2.3h-.4v-.6c-.2.3-.7.6-1.3.6c-.6 0-1.1-.4-1.1-1zm1.2.6c.5 0 1.1-.4 1.1-.9c.02 0 0-.5 0-.5l-1 .1c-.5 0-.8.3-.8.7c0 .4.3.6.7.6zm2.7-.8c.03-.03 0-2.3 0-2.3h.5v2.1c0 .7.3 1 .8 1h.1c.5 0 1-.4 1-1.3c.01.05 0-1.8 0-1.8h.5v3.5h-.5v-.7c-.2.5-.6.7-1.2.7c-.7 0-1.2-.5-1.2-1.2zm3.8 1.2l1.9-4.9h.5l-1.9 4.9h-.5zm2.8-1c0-.8.6-1 1.2-1.1c-.02.04 1.1 0 1.1 0v-.2c0-.6-.3-.9-.9-.9c-.5 0-.8.2-.9.6h-.4c0-.6.5-1 1.3-1c.9 0 1.3.6 1.3 1.3v1.5c0 .2 0 .5.1.8h-.4c-.1-.2-.1-.4-.1-.6c-.1.3-.6.6-1.2.6c-.6 0-1.1-.4-1.1-1zm1.2.6c.5 0 1.1-.4 1.1-.9v-.5l-1 .1c-.5 0-.9.3-.9.7c0 .4.3.6.7.6h.1zm3.2-.2v.6h-.4V9.6h.4v1.9c.2-.4.7-.6 1.2-.6c.9 0 1.5.7 1.5 1.8c0 1.1-.6 1.8-1.5 1.8c-.5 0-1-.2-1.2-.6zm1.2.2c.7 0 1.1-.6 1.1-1.4c0-.7-.4-1.4-1.1-1.4h-.1c-.7 0-1.1.7-1.1 1.4c0 .8.4 1.4 1.1 1.4h.1zm2.4-1.4c0-1.1.7-1.8 1.6-1.8c.9 0 1.6.7 1.6 1.8c0 1.1-.7 1.8-1.6 1.8c-.9 0-1.6-.7-1.6-1.8zm1.6 1.4c.7 0 1.1-.5 1.1-1.4c0-.9-.4-1.4-1.1-1.4c-.7 0-1.2.5-1.2 1.4c0 .9.5 1.4 1.2 1.4zm2.6-.8V11h.5s-.03 2.13 0 2.1c0 .7.2 1 .8 1h.1c.5 0 1-.4 1-1.3c-.01.05 0-1.8 0-1.8h.4v3.5h-.4v-.7c-.2.5-.6.7-1.2.7c-.8 0-1.2-.5-1.2-1.2zm5.2 1.2c-.5 0-.7-.2-.7-.7c-.01.03 0-2.5 0-2.5h-.8v-.3h.8V9.8h.4v1.2h.9v.3h-.9s.04 2.5 0 2.5c0 .2.1.3.3.3c.02-.02.7 0 .7 0v.4s-.75-.04-.7 0zm1.1-2v-.3h1.7v.3h-1.7zm2.8 2V11h.5s-.02.52 0 .5c.2-.3.6-.6 1.1-.6c.5 0 1 .2 1.1.7c.3-.5.7-.7 1.3-.7c.7 0 1.2.4 1.2 1.3c-.03-.03 0 2.3 0 2.3h-.5s.02-2.19 0-2.2c0-.7-.2-1-.8-1c-.7 0-1.1.7-1.1 1.4c.03.01 0 1.8 0 1.8h-.4s-.03-2.19 0-2.2c0-.7-.3-1-.8-1h-.1c-.7 0-1 .7-1 1.4c-.02.01 0 1.8 0 1.8h-.5zm6.2-1c0-.8.7-1 1.2-1.1c0 .04 1.1 0 1.1 0v-.2c0-.6-.3-.9-.9-.9c-.5 0-.8.2-.9.6h-.4c0-.6.6-1 1.3-1c.9 0 1.4.6 1.4 1.3v2.3h-.4c-.1-.2-.1-.4-.1-.6c-.1.3-.6.6-1.2.6c-.6 0-1.1-.4-1.1-1zm1.2.6c.5 0 1.1-.4 1.1-.9v-.5l-1 .1c-.5 0-.9.3-.9.7c0 .4.3.6.7.6h.1zm2.6-1.4c0-1 .5-1.8 1.6-1.8c.7 0 1.3.4 1.3 1.2h-.4c-.1-.5-.4-.8-.9-.8h-.1c-.7 0-1.1.6-1.1 1.4c0 .8.4 1.4 1.1 1.4h.1c.5 0 .8-.3.9-.8h.4c-.1.8-.6 1.2-1.3 1.2c-1.1 0-1.6-.8-1.6-1.8zm3.9-.2v-.3h1.7v.3h-1.7zm2.8 3.4V11h.4s.04.52 0 .5c.3-.4.8-.6 1.2-.6c.9 0 1.6.7 1.6 1.8c0 1.1-.7 1.8-1.6 1.8c-.4 0-.9-.2-1.2-.6c.04 0 0 2 0 2h-.4zm1.6-1.8c.7 0 1.1-.6 1.1-1.4c0-.7-.4-1.4-1.1-1.4c-.8 0-1.2.7-1.2 1.4c0 .8.4 1.4 1.2 1.4zm2.4-.6c0-.8.7-1 1.2-1.1c.02.04 1.1 0 1.1 0c0 0 .03-.18 0-.2c0-.6-.3-.9-.8-.9h-.1c-.4 0-.8.2-.9.6h-.4c0-.6.6-1 1.3-1c.9 0 1.4.6 1.4 1.3v2.3h-.4v-.6c-.2.3-.7.6-1.3.6c-.6 0-1.1-.4-1.1-1zm1.2.6c.5 0 1.1-.4 1.1-.9c.03 0 0-.5 0-.5l-1 .1c-.5 0-.8.3-.8.7c0 .4.3.6.7.6zm2.8.4V11h.4v.8c.2-.6.6-.9 1.1-.9c-.01.03.3 0 .3 0v.4s-.27.04-.3 0c-.6 0-1.1.6-1.1 1.5c.04-.04 0 1.7 0 1.7h-.4zm2.7 0V9.6h.4v3.2l1.9-1.8h.6l-1.5 1.4l1.6 2.1h-.6l-1.3-1.8l-.7.6v1.2h-.4zm3.5.8v-.3h.2c.3 0 .5-.2.5-.4c-.04-.04 0-.1 0-.1h-.4v-.7h.7s-.03.8 0 .8c0 .4-.3.7-.7.7c.01-.04-.3 0-.3 0zm3.4-.8V11h.5s-.02.52 0 .5c.2-.3.6-.6 1.1-.6c.5 0 1 .2 1.1.7c.3-.5.7-.7 1.3-.7c.7 0 1.2.4 1.2 1.3c-.03-.03 0 2.3 0 2.3h-.5s.01-2.19 0-2.2c0-.7-.3-1-.8-1c-.7 0-1.1.7-1.1 1.4c.02.01 0 1.8 0 1.8h-.4s-.03-2.19 0-2.2c0-.7-.3-1-.8-1h-.1c-.7 0-1 .7-1 1.4c-.02.01 0 1.8 0 1.8h-.5zm6.2-1c0-.8.7-1 1.2-1.1c-.01.04 1.1 0 1.1 0v-.2c0-.6-.3-.9-.9-.9c-.5 0-.8.2-.9.6h-.4c0-.6.6-1 1.3-1c.9 0 1.4.6 1.4 1.3v2.3h-.4c-.1-.2-.1-.4-.1-.6c-.1.3-.6.6-1.2.6c-.6 0-1.1-.4-1.1-1zm1.2.6c.5 0 1.1-.4 1.1-.9v-.5l-1 .1c-.5 0-.9.3-.9.7c0 .4.3.6.7.6h.1zm2.6-1.4c0-1 .5-1.8 1.6-1.8c.7 0 1.3.4 1.3 1.2h-.4c-.1-.5-.4-.8-.9-.8h-.1c-.7 0-1.1.6-1.1 1.4c0 .8.4 1.4 1.1 1.4h.1c.5 0 .8-.3.9-.8h.4c-.1.8-.6 1.2-1.3 1.2c-1.1 0-1.6-.8-1.6-1.8zm6.5 3.2s-.02-2 0-2c-.2.4-.7.6-1.2.6c-.9 0-1.6-.7-1.6-1.8c0-1.1.7-1.8 1.6-1.8c.5 0 1 .2 1.2.6c-.02.02 0-.5 0-.5h.4v4.9h-.4zm-1.1-1.8c.7 0 1.1-.6 1.1-1.4c0-.7-.4-1.4-1.1-1.4h-.1c-.7 0-1.1.7-1.1 1.4c0 .8.4 1.4 1.1 1.4h.1zm2.7-.8c.04-.03 0-2.3 0-2.3h.5v2.1c0 .7.3 1 .8 1h.1c.5 0 1-.4 1-1.3c.02.05 0-1.8 0-1.8h.5v3.5h-.5s.02-.7 0-.7c-.2.5-.6.7-1.1.7c-.8 0-1.3-.5-1.3-1.2zm3.9.2c0-.8.7-1 1.2-1.1c.04.04 1.1 0 1.1 0c0 0 .04-.18 0-.2c0-.6-.3-.9-.8-.9h-.1c-.4 0-.8.2-.8.6h-.5c0-.6.6-1 1.3-1c1 0 1.4.6 1.4 1.3v2.3h-.4v-.6c-.2.3-.6.6-1.3.6c-.6 0-1.1-.4-1.1-1zm1.3.6c.4 0 1-.4 1-.9c.04 0 0-.5 0-.5l-1 .1c-.5 0-.8.3-.8.7c0 .4.3.6.7.6h.1zm2.7.4V11h.4s.02.76 0 .8c.2-.6.6-.9 1.1-.9c.01.03.3 0 .3 0v.4s-.26.04-.3 0c-.6 0-1 .6-1 1.5c-.04-.04 0 1.7 0 1.7h-.5zm2.6-4.2v-.6h.6v.6h-.6zm.1 4.2V11h.4v3.5h-.4zm1.5-1.8c0-1.2.7-1.8 1.5-1.8c.9 0 1.4.7 1.4 1.6c.04-.03 0 .2 0 .2c0 0-2.48.04-2.5 0c0 1 .5 1.4 1.1 1.4h.1c.4 0 .7-.2.9-.6h.4c-.1.7-.7 1-1.4 1c-.9 0-1.5-.6-1.5-1.8zm2.5-.3c0-.7-.4-1.1-.9-1.1h-.1c-.5 0-1 .2-1.1 1.1h2.1zm1.5 3.5V11h.5s-.05.52 0 .5c.2-.4.7-.6 1.1-.6c.9 0 1.6.7 1.6 1.8c0 1.1-.7 1.8-1.6 1.8c-.4 0-.9-.2-1.1-.6c-.05 0 0 2 0 2h-.5zm1.6-1.8c.8 0 1.1-.6 1.1-1.4c0-.7-.3-1.4-1.1-1.4c-.8 0-1.1.7-1.1 1.4c0 .8.3 1.4 1.1 1.4zm2.4-.6c0-.8.7-1 1.2-1.1c.03.04 1.1 0 1.1 0c0 0 .04-.18 0-.2c0-.6-.3-.9-.8-.9h-.1c-.4 0-.8.2-.8.6h-.5c0-.6.6-1 1.3-1c1 0 1.4.6 1.4 1.3v2.3h-.4v-.6c-.2.3-.7.6-1.3.6c-.6 0-1.1-.4-1.1-1zm1.3.6c.4 0 1-.4 1-.9c.04 0 0-.5 0-.5l-1 .1c-.5 0-.8.3-.8.7c0 .4.3.6.7.6h.1zm2.7.4V11h.4s.02.76 0 .8c.2-.6.6-.9 1.1-.9c0 .03.3 0 .3 0v.4s-.26.04-.3 0c-.6 0-1 .6-1 1.5c-.05-.04 0 1.7 0 1.7h-.5zm2.7 0V9.6h.4v3.2l1.9-1.8h.6l-1.5 1.4l1.6 2.1h-.6l-1.3-1.8l-.7.6v1.2h-.4zm3.8 0v-.7h.7v.7h-.7zm1.6-1.8c0-1 .6-1.8 1.7-1.8c.7 0 1.2.4 1.3 1.2h-.4c-.1-.5-.4-.8-.9-.8h-.1c-.7 0-1.1.6-1.1 1.4c0 .8.4 1.4 1.1 1.4h.1c.5 0 .8-.3.9-.8h.4c-.1.8-.6 1.2-1.3 1.2c-1.1 0-1.7-.8-1.7-1.8zm3.8 0c0-1.1.7-1.8 1.6-1.8c.9 0 1.6.7 1.6 1.8c0 1.1-.7 1.8-1.6 1.8c-.9 0-1.6-.7-1.6-1.8zm1.7 1.4c.6 0 1.1-.5 1.1-1.4c0-.9-.5-1.4-1.1-1.4h-.1c-.6 0-1.1.5-1.1 1.4c0 .9.5 1.4 1.1 1.4h.1zm2.6.4V11h.4s.04.52 0 .5c.2-.3.7-.6 1.2-.6c.5 0 .9.2 1.1.7c.2-.5.7-.7 1.2-.7c.7 0 1.2.4 1.2 1.3c.03-.03 0 2.3 0 2.3h-.4s-.03-2.19 0-2.2c0-.7-.3-1-.8-1h-.1c-.7 0-1 .7-1 1.4c-.02.01 0 1.8 0 1.8h-.5s.03-2.19 0-2.2c0-.7-.2-1-.8-1c-.7 0-1.1.7-1.1 1.4c.04.01 0 1.8 0 1.8h-.4zm6.3 0v-.7h.7v.7h-.7zm1.8-1c0-.8.6-1 1.2-1.1c-.03.04 1.1 0 1.1 0c0 0-.02-.18 0-.2c0-.6-.4-.9-.9-.9c-.5 0-.9.2-.9.6h-.5c.1-.6.6-1 1.4-1c.9 0 1.3.6 1.3 1.3v1.5c0 .2 0 .5.1.8h-.5v-.6c-.1.3-.6.6-1.2.6c-.6 0-1.1-.4-1.1-1zm1.2.6c.5 0 1.1-.4 1.1-.9c-.02 0 0-.5 0-.5l-1 .1c-.5 0-.9.3-.9.7c0 .4.3.6.7.6h.1zm2.7-.8V11h.4s.05 2.13 0 2.1c0 .7.3 1 .9 1h.1c.5 0 1-.4 1-1.3c-.03.05 0-1.8 0-1.8h.4v3.5h-.4s-.03-.7 0-.7c-.2.5-.6.7-1.2.7c-.8 0-1.2-.5-1.2-1.2zm3.8 2v-.3h.2c.3 0 .4-.2.4-.4c.03-.04 0-.1 0-.1h-.4v-.7h.7s.04.8 0 .8c0 .4-.2.7-.6.7c-.02-.04-.3 0-.3 0zm3.4-.8V11h.4s.04.52 0 .5c.3-.3.7-.6 1.2-.6c.5 0 .9.2 1.1.7c.3-.5.7-.7 1.2-.7c.7 0 1.2.4 1.2 1.3c.03-.03 0 2.3 0 2.3h-.4s-.02-2.19 0-2.2c0-.7-.3-1-.8-1h-.1c-.7 0-1 .7-1 1.4c-.01.01 0 1.8 0 1.8h-.5s.04-2.19 0-2.2c0-.7-.2-1-.8-1c-.7 0-1.1.7-1.1 1.4c.04.01 0 1.8 0 1.8h-.4zm6.2-1c0-.8.6-1 1.2-1.1c-.04.04 1.1 0 1.1 0c0 0-.03-.18 0-.2c0-.6-.4-.9-.9-.9c-.5 0-.9.2-.9.6h-.5c.1-.6.6-1 1.4-1c.9 0 1.3.6 1.3 1.3v1.5c0 .2 0 .5.1.8h-.5v-.6c-.1.3-.6.6-1.2.6c-.7 0-1.1-.4-1.1-1zm1.2.6c.5 0 1.1-.4 1.1-.9c-.03 0 0-.5 0-.5l-1 .1c-.5 0-.9.3-.9.7c0 .4.3.6.7.6h.1zm2.5-1.4c0-1 .6-1.8 1.6-1.8c.8 0 1.3.4 1.4 1.2h-.5c0-.5-.4-.8-.8-.8h-.1c-.8 0-1.1.6-1.1 1.4c0 .8.3 1.4 1.1 1.4h.1c.4 0 .8-.3.8-.8h.5c-.1.8-.6 1.2-1.4 1.2c-1 0-1.6-.8-1.6-1.8zm6.5 3.2s.04-2 0-2c-.2.4-.7.6-1.1.6c-.9 0-1.6-.7-1.6-1.8c0-1.1.7-1.8 1.6-1.8c.4 0 .9.2 1.1.6c.04.02 0-.5 0-.5h.5v4.9h-.5zm-1.1-1.8c.8 0 1.1-.6 1.1-1.4c0-.7-.3-1.4-1.1-1.4c-.8 0-1.1.7-1.1 1.4c0 .8.3 1.4 1.1 1.4zm2.8-.8V11h.5s-.03 2.13 0 2.1c0 .7.2 1 .8 1h.1c.5 0 1-.4 1-1.3c-.01.05 0-1.8 0-1.8h.4v3.5h-.4v-.7c-.2.5-.6.7-1.2.7c-.8 0-1.2-.5-1.2-1.2zm3.9.2c0-.8.7-1 1.2-1.1c0 .04 1.1 0 1.1 0v-.2c0-.6-.3-.9-.9-.9c-.4 0-.8.2-.9.6h-.4c0-.6.6-1 1.3-1c.9 0 1.4.6 1.4 1.3v2.3h-.4c0-.2-.1-.4-.1-.6c-.1.3-.6.6-1.2.6c-.6 0-1.1-.4-1.1-1zm1.2.6c.5 0 1.1-.4 1.1-.9v-.5l-1 .1c-.5 0-.8.3-.8.7c0 .4.3.6.7.6zm2.8.4V11h.4v.8c.2-.6.6-.9 1.1-.9c-.02.03.3 0 .3 0v.4s-.29.04-.3 0c-.7 0-1.1.6-1.1 1.5c.03-.04 0 1.7 0 1.7h-.4zm2.6-4.2v-.6h.5v.6h-.5zm0 4.2V11h.5v3.5h-.5zm1.5-1.8c0-1.2.8-1.8 1.6-1.8c.8 0 1.4.7 1.4 1.6v.2s-2.52.04-2.5 0c0 1 .5 1.4 1.1 1.4c.5 0 .8-.2.9-.6h.5c-.2.7-.7 1-1.4 1c-.9 0-1.6-.6-1.6-1.8zm2.5-.3c0-.7-.3-1.1-.9-1.1h-.1c-.4 0-.9.2-1 1.1h2zm1.4.3c0-1 .5-1.8 1.6-1.8c.7 0 1.3.4 1.3 1.2h-.4c-.1-.5-.4-.8-.9-.8h-.1c-.7 0-1.1.6-1.1 1.4c0 .8.4 1.4 1.1 1.4h.1c.5 0 .8-.3.9-.8h.4c-.1.8-.6 1.2-1.3 1.2c-1.1 0-1.6-.8-1.6-1.8zm3.8 0c0-1.2.7-1.8 1.5-1.8c.9 0 1.4.7 1.4 1.6c.04-.03 0 .2 0 .2c0 0-2.48.04-2.5 0c0 1 .5 1.4 1.1 1.4h.1c.4 0 .7-.2.9-.6h.4c-.1.7-.7 1-1.4 1c-.8 0-1.5-.6-1.5-1.8zm2.5-.3c0-.7-.4-1.1-.9-1.1h-.1c-.5 0-1 .2-1.1 1.1h2.1zm1.5 2.1V11h.5s-.04.55 0 .5c.2-.3.6-.6 1.2-.6c.7 0 1.2.4 1.2 1.3v2.3h-.4s-.04-2.19 0-2.2c0-.7-.3-1-.9-1c-.8 0-1.1.7-1.1 1.4c-.04.01 0 1.8 0 1.8h-.5zm5.1 0c-.4 0-.6-.2-.6-.7c-.04.03 0-2.5 0-2.5h-.8v-.3h.8V9.8h.4v1.2h.9v.3h-.9s.01 2.5 0 2.5c0 .2.1.3.3.3c-.01-.02.7 0 .7 0v.4s-.78-.04-.8 0zm1.6 0V11h.5s-.03.76 0 .8c.1-.6.6-.9 1.1-.9c-.05.03.3 0 .3 0v.4s-.31.04-.3 0c-.7 0-1.1.6-1.1 1.5v1.7h-.5zm2.4-1.8c0-1.2.8-1.8 1.6-1.8c.8 0 1.4.7 1.4 1.6v.2s-2.52.04-2.5 0c0 1 .5 1.4 1.1 1.4c.5 0 .8-.2.9-.6h.5c-.2.7-.7 1-1.4 1c-.9 0-1.6-.6-1.6-1.8zm2.6-.3c-.1-.7-.4-1.1-1-1.1h-.1c-.4 0-.9.2-1 1.1h2.1zm1.4 2.1v-.7h.7v.7h-.7zm1.7-1.8c0-1 .5-1.8 1.6-1.8c.7 0 1.3.4 1.3 1.2h-.4c-.1-.5-.4-.8-.9-.8h-.1c-.7 0-1.1.6-1.1 1.4c0 .8.4 1.4 1.1 1.4h.1c.5 0 .8-.3.9-.8h.4c-.1.8-.6 1.2-1.3 1.2c-1.1 0-1.6-.8-1.6-1.8zm3.7 0c0-1.1.7-1.8 1.6-1.8c.9 0 1.7.7 1.7 1.8c0 1.1-.8 1.8-1.7 1.8c-.9 0-1.6-.7-1.6-1.8zm1.7 1.4c.6 0 1.1-.5 1.1-1.4c0-.9-.5-1.4-1.1-1.4h-.1c-.6 0-1.1.5-1.1 1.4c0 .9.5 1.4 1.1 1.4h.1zm2.6.4V11h.4s.05.52 0 .5c.3-.3.7-.6 1.2-.6c.5 0 .9.2 1.1.7c.3-.5.7-.7 1.2-.7c.7 0 1.2.4 1.2 1.3c.04-.03 0 2.3 0 2.3h-.4s-.02-2.19 0-2.2c0-.7-.3-1-.8-1h-.1c-.7 0-1 .7-1 1.4c-.01.01 0 1.8 0 1.8h-.5s.04-2.19 0-2.2c0-.7-.2-1-.8-1c-.7 0-1.1.7-1.1 1.4c.05.01 0 1.8 0 1.8h-.4zm6.3 0v-.7h.7v.7h-.7zm1.8-1c0-.8.6-1 1.2-1.1c-.02.04 1.1 0 1.1 0v-.2c0-.6-.3-.9-.9-.9c-.5 0-.8.2-.9.6h-.5c.1-.6.6-1 1.4-1c.9 0 1.3.6 1.3 1.3v1.5c0 .2 0 .5.1.8h-.4c-.1-.2-.1-.4-.1-.6c-.1.3-.6.6-1.2.6c-.6 0-1.1-.4-1.1-1zm1.2.6c.5 0 1.1-.4 1.1-.9v-.5l-1 .1c-.5 0-.9.3-.9.7c0 .4.3.6.7.6h.1zm2.7-.8V11h.5s-.04 2.13 0 2.1c0 .7.2 1 .8 1h.1c.5 0 1-.4 1-1.3c-.02.05 0-1.8 0-1.8h.4v3.5h-.4s-.02-.7 0-.7c-.2.5-.6.7-1.2.7c-.8 0-1.2-.5-1.2-1.2z" stroke="none" fill="#192d39"/></g><g id="Polygon21610"><path d="m.3 3.9h.5c0 .8.6 1.2 1.4 1.2c.8 0 1.2-.4 1.2-.9c0-.5-.3-.7-.9-.9l-.8-.1C1 3 .5 2.6.5 1.9c0-.8.7-1.4 1.7-1.4C3.3.5 3.9 1.1 4 2h-.5C3.4 1.4 2.9.9 2.3.9h-.1c-.7 0-1.2.5-1.2 1c0 .4.3.7.8.8l.8.1c.8.2 1.3.6 1.3 1.3c0 .9-.7 1.4-1.7 1.4C1 5.5.3 4.9.3 3.9zm4.5-.2c0-1.1.7-1.8 1.6-1.8c.9 0 1.6.7 1.6 1.8c0 1.1-.7 1.8-1.6 1.8c-.9 0-1.6-.7-1.6-1.8zm1.6 1.4c.7 0 1.2-.5 1.2-1.4c0-.9-.5-1.4-1.2-1.4c-.7 0-1.1.5-1.1 1.4c0 .9.4 1.4 1.1 1.4zM9 4.3C9.03 4.27 9 2 9 2h.5s-.02 2.13 0 2.1c0 .7.3 1 .8 1h.1c.5 0 1-.4 1-1.3c.01.05 0-1.8 0-1.8h.5v3.5h-.5v-.7c-.2.5-.6.7-1.2.7C9.5 5.5 9 5 9 4.3zm4.1 1.2V2h.4s.02.76 0 .8c.2-.6.6-.9 1.1-.9c0 .03.3 0 .3 0v.4s-.26.04-.3 0c-.6 0-1 .6-1 1.5c-.05-.04 0 1.7 0 1.7h-.5zm2.4-1.8c0-1 .6-1.8 1.6-1.8c.7 0 1.3.4 1.4 1.2h-.5c-.1-.5-.4-.8-.9-.8c-.8 0-1.2.6-1.2 1.4c0 .8.4 1.4 1.2 1.4c.5 0 .8-.3.9-.8h.5c-.2.8-.7 1.2-1.4 1.2c-1 0-1.6-.8-1.6-1.8zm3.8 0c0-1.2.7-1.8 1.5-1.8c.9 0 1.4.7 1.4 1.6c.05-.03 0 .2 0 .2c0 0-2.47.04-2.5 0c0 1 .6 1.4 1.1 1.4h.1c.4 0 .8-.2.9-.6h.4c-.1.7-.7 1-1.4 1c-.8 0-1.5-.6-1.5-1.8zm2.5-.3c0-.7-.4-1.1-.9-1.1h-.1c-.5 0-1 .2-1.1 1.1h2.1zm1.4-.7v-.7h.7v.7h-.7zm0 2.8v-.7h.7v.7h-.7zm3.8 0L25.9 2h.5l1 3.1l.7-3.1h.6l.9 3.1l.9-3.1h.5l.9 3.1l.8-3.1h.6l.8 3.1l1-3.1h.5l.9 3.1l.8-3.1h.6l.8 3.1l1-3.1h.4L39 5.5h-.6l-.8-3.1l-.8 3.1h-.6l-.9-2.8l-.9 2.8h-.6L33 2.4l-.8 3.1h-.6l-.9-2.8l-.9 2.8h-.6l-.8-3.1l-.8 3.1h-.6zm13.7 0v-.7h.7v.7h-.7zm1.9 0V2h.4s-.02.76 0 .8c.1-.6.6-.9 1.1-.9c-.03.03.3 0 .3 0v.4s-.3.04-.3 0c-.7 0-1.1.6-1.1 1.5c.02-.04 0 1.7 0 1.7h-.4zM48.4 2l-1.5 3.3s.05.71 0 .7c0 .4-.2.6-.6.6c-.02.01-1.1 0-1.1 0v-.4s1.01.03 1 0c.2 0 .3 0 .3-.2v-.6L45 2h.5l1.2 2.8L47.9 2h.5zm.5 1.7c0-1.1.6-1.8 1.5-1.8c.5 0 1 .2 1.2.6c.02.02 0-1.9 0-1.9h.5v4.9h-.5s.02-.6 0-.6c-.2.4-.7.6-1.2.6c-.9 0-1.5-.7-1.5-1.8zm1.6 1.4c.8 0 1.1-.6 1.1-1.4c0-.7-.3-1.4-1.1-1.4c-.8 0-1.1.7-1.1 1.4c0 .8.3 1.4 1.1 1.4zm2.6-1.4c0-1.2.8-1.8 1.6-1.8c.8 0 1.4.7 1.4 1.6v.2s-2.52.04-2.5 0c0 1 .5 1.4 1.1 1.4c.5 0 .8-.2.9-.6h.5c-.2.7-.7 1-1.4 1c-.9 0-1.6-.6-1.6-1.8zm2.5-.3c0-.7-.3-1.1-.9-1.1h-.1c-.4 0-.9.2-1 1.1h2zm1.5 2.1v-.7h.7v.7h-.7zm1.9 0V2h.5s-.03.55 0 .5c.2-.3.6-.6 1.2-.6c.7 0 1.2.4 1.2 1.3c.02-.03 0 2.3 0 2.3h-.4s-.03-2.19 0-2.2c0-.7-.3-1-.9-1c-.8 0-1.1.7-1.1 1.4c-.03.01 0 1.8 0 1.8h-.5zm3.9-1.1h.4c.1.5.4.7.9.7h.1c.5 0 .8-.2.8-.6c0-.3-.2-.4-.6-.5l-.5-.1c-.6-.1-1-.4-1-1c0-.6.6-1 1.3-1c.8 0 1.2.5 1.3 1.1h-.5c0-.4-.3-.7-.8-.7h-.1c-.5 0-.7.3-.7.6c0 .3.2.4.6.5l.6.2c.4.1.8.3.8.9c0 .6-.5 1-1.2 1c-.9 0-1.4-.4-1.4-1.1zM70.8 2h.5l-1.2 3.5h-.6l-.8-3.1l-.8 3.1h-.6L66.2 2h.5l1 3.1l.7-3.1h.6l.9 3.1l.9-3.1zm1 3.5v-.7h.7v.7h-.7zm1.6.4h.5c.1.5.5.7 1.1.7c.6 0 1.2-.3 1.2-1.2v-.6c-.3.4-.6.7-1.2.7c-.9 0-1.5-.7-1.5-1.8c0-1.1.6-1.8 1.5-1.8c.6 0 .9.2 1.2.6c-.05.02 0-.5 0-.5h.4s.01 3.43 0 3.4C76.6 6.3 76 7 75 7c-1 0-1.5-.4-1.6-1.1zm1.7-.8c.6 0 1.1-.5 1.1-1.4c0-.9-.5-1.4-1.1-1.4h-.1c-.6 0-1.1.5-1.1 1.4c0 .9.5 1.4 1.1 1.4h.1zm2.5-1.4c0-1.1.8-1.8 1.7-1.8c.9 0 1.6.7 1.6 1.8c0 1.1-.7 1.8-1.6 1.8c-.9 0-1.7-.7-1.7-1.8zm1.7 1.4c.6 0 1.1-.5 1.1-1.4c0-.9-.5-1.4-1.1-1.4h-.1c-.6 0-1.1.5-1.1 1.4c0 .9.5 1.4 1.1 1.4h.1zM84.2 2h.4l-1.3 3.5h-.6L81.4 2h.5L83 5l1.2-3zm.9 3.5v-.7h.7v.7h-.7zm1.8-1c0-.8.6-1 1.2-1.1c-.04.04 1.1 0 1.1 0c0 0-.04-.18 0-.2c0-.6-.4-.9-.9-.9c-.5 0-.9.2-.9.6h-.5c.1-.6.6-1 1.4-1c.9 0 1.3.6 1.3 1.3v1.5c0 .2 0 .5.1.8h-.5v-.6c-.1.3-.6.6-1.2.6c-.7 0-1.1-.4-1.1-1zm1.2.6c.5 0 1.1-.4 1.1-.9c-.04 0 0-.5 0-.5l-1.1.1c-.5 0-.8.3-.8.7c0 .4.3.6.7.6h.1zm2.7-.8c-.02-.03 0-2.3 0-2.3h.4s.03 2.13 0 2.1c0 .7.3 1 .9 1c.6 0 1.1-.4 1.1-1.3c-.04.05 0-1.8 0-1.8h.4v3.5h-.4s-.04-.7 0-.7c-.2.5-.6.7-1.2.7c-.8 0-1.2-.5-1.2-1.2zm9.7-3.7h.8v4.9h-.5V1l-1.7 4.5h-.6L96.7.9v4.6h-.4V.6h.8l1.7 4.5l1.7-4.5zm2 3.9c0-.8.7-1 1.2-1.1c0 .04 1.1 0 1.1 0v-.2c0-.6-.3-.9-.9-.9c-.5 0-.8.2-.9.6h-.4c0-.6.6-1 1.3-1c.9 0 1.4.6 1.4 1.3v2.3h-.4c0-.2-.1-.4-.1-.6c-.1.3-.6.6-1.2.6c-.6 0-1.1-.4-1.1-1zm1.2.6c.5 0 1.1-.4 1.1-.9v-.5l-1 .1c-.5 0-.8.3-.8.7c0 .4.3.6.7.6zm2.6-1.4c0-1 .5-1.8 1.6-1.8c.7 0 1.3.4 1.3 1.2h-.4c-.1-.5-.4-.8-.9-.8h-.1c-.7 0-1.1.6-1.1 1.4c0 .8.4 1.4 1.1 1.4h.1c.5 0 .8-.3.9-.8h.4c-.1.8-.6 1.2-1.3 1.2c-1.1 0-1.6-.8-1.6-1.8zm6.5 3.2v-2c-.2.4-.7.6-1.2.6c-.9 0-1.5-.7-1.5-1.8c0-1.1.6-1.8 1.5-1.8c.5 0 1 .2 1.2.6v-.5h.4v4.9h-.4zm-1.1-1.8c.7 0 1.1-.6 1.1-1.4c0-.7-.4-1.4-1.1-1.4h-.1c-.7 0-1.1.7-1.1 1.4c0 .8.4 1.4 1.1 1.4h.1zm2.8-.8c-.05-.03 0-2.3 0-2.3h.4v2.1c0 .7.3 1 .8 1h.1c.5 0 1-.4 1-1.3c.03.05 0-1.8 0-1.8h.5v3.5h-.5s.03-.7 0-.7c-.1.5-.6.7-1.1.7c-.8 0-1.2-.5-1.2-1.2zm3.8.2c0-.8.7-1 1.2-1.1c.05.04 1.2 0 1.2 0c0 0-.05-.18 0-.2c0-.6-.4-.9-.9-.9h-.1c-.4 0-.8.2-.8.6h-.5c.1-.6.6-1 1.4-1c.9 0 1.3.6 1.3 1.3v2.3h-.4v-.6c-.2.3-.6.6-1.3.6c-.6 0-1.1-.4-1.1-1zm1.3.6c.5 0 1.1-.4 1.1-.9c-.05 0 0-.5 0-.5l-1.1.1c-.5 0-.8.3-.8.7c0 .4.3.6.7.6h.1zm2.7.4V2h.4s.03.76 0 .8c.2-.6.6-.9 1.1-.9c.02.03.3 0 .3 0v.4s-.25.04-.2 0c-.7 0-1.1.6-1.1 1.5c-.03-.04 0 1.7 0 1.7h-.5zm2.6-4.2v-.6h.6v.6h-.6zm.1 4.2V2h.4v3.5h-.4zm1.5-1.8c0-1.2.7-1.8 1.5-1.8c.9 0 1.4.7 1.4 1.6c.05-.03 0 .2 0 .2c0 0-2.47.04-2.5 0c0 1 .6 1.4 1.1 1.4h.1c.4 0 .8-.2.9-.6h.4c-.1.7-.7 1-1.4 1c-.8 0-1.5-.6-1.5-1.8zm2.5-.3c0-.7-.4-1.1-.9-1.1h-.1c-.5 0-1 .2-1.1 1.1h2.1zm2.9 2.1V.6s1.94-.04 1.9 0c.9 0 1.6.5 1.6 1.4c0 1-.7 1.4-1.6 1.4c.04.04-1.4 0-1.4 0v2.1h-.5zm.5-2.5h1.3c.7 0 1.2-.3 1.2-1c0-.7-.5-1-1.2-1h-1.3v2zm3.7 1.5c0-.8.7-1 1.2-1.1c.02.04 1.1 0 1.1 0c0 0 .03-.18 0-.2c0-.6-.3-.9-.8-.9h-.1c-.4 0-.8.2-.9.6h-.4c0-.6.6-1 1.3-1c.9 0 1.4.6 1.4 1.3v2.3h-.4v-.6c-.2.3-.7.6-1.3.6c-.6 0-1.1-.4-1.1-1zm1.2.6c.5 0 1.1-.4 1.1-.9c.03 0 0-.5 0-.5l-1 .1c-.5 0-.8.3-.8.7c0 .4.3.6.7.6zm2.8.4V2h.4v.8c.2-.6.6-.9 1.1-.9c-.01.03.3 0 .3 0v.4s-.27.04-.3 0c-.6 0-1.1.6-1.1 1.5c.04-.04 0 1.7 0 1.7h-.4zm2.7 0V.6h.4v3.2l1.9-1.8h.6l-1.5 1.4l1.6 2.1h-.6l-1.3-1.8l-.7.6v1.2h-.4zm9.4-4.9h.8v4.9h-.5V1l-1.7 4.5h-.7L148.4.9v4.6h-.5V.6h.9l1.7 4.5l1.7-4.5zm2 3.9c0-.8.7-1 1.2-1.1c-.01.04 1.1 0 1.1 0v-.2c0-.6-.3-.9-.9-.9c-.5 0-.8.2-.9.6h-.4c0-.6.6-1 1.3-1c.9 0 1.3.6 1.3 1.3v1.5c0 .2 0 .5.1.8h-.4c-.1-.2-.1-.4-.1-.6c-.1.3-.6.6-1.2.6c-.6 0-1.1-.4-1.1-1zm1.2.6c.5 0 1.1-.4 1.1-.9v-.5l-1 .1c-.5 0-.9.3-.9.7c0 .4.3.6.7.6h.1zm2.8.4V2h.4s-.02.76 0 .8c.1-.6.6-.9 1.1-.9c-.04.03.3 0 .3 0v.4s-.3.04-.3 0c-.7 0-1.1.6-1.1 1.5c.01-.04 0 1.7 0 1.7h-.4zm2.6 0V.6h.5v3.2l1.8-1.8h.7l-1.5 1.4l1.5 2.1h-.5L162 3.7l-.7.6v1.2h-.5zm3.5-1.8c0-1.2.7-1.8 1.5-1.8c.9 0 1.4.7 1.4 1.6c.04-.03 0 .2 0 .2c0 0-2.48.04-2.5 0c0 1 .5 1.4 1.1 1.4h.1c.4 0 .7-.2.9-.6h.4c-.1.7-.7 1-1.4 1c-.9 0-1.5-.6-1.5-1.8zm2.5-.3c0-.7-.4-1.1-.9-1.1h-.1c-.5 0-1 .2-1.1 1.1h2.1zm2.5 2.1c-.5 0-.7-.2-.7-.7c.04.03 0-2.5 0-2.5h-.8v-.3h.8V.8h.5v1.2h.9v.3h-.9s-.01 2.5 0 2.5c0 .2.1.3.3.3c-.03-.02.7 0 .7 0v.4s-.8-.04-.8 0zm1.6-4.2v-.6h.5v.6h-.5zm0 4.2V2h.5v3.5h-.5zm1.7 0V2h.5s-.04.55 0 .5c.2-.3.6-.6 1.2-.6c.7 0 1.2.4 1.2 1.3v2.3h-.4s-.04-2.19 0-2.2c0-.7-.3-1-.9-1c-.8 0-1.1.7-1.1 1.4c-.04.01 0 1.8 0 1.8h-.5zm3.9.4h.4c.1.5.5.7 1.1.7h.1c.6 0 1.1-.3 1.1-1.2v-.6c-.2.4-.6.7-1.2.7c-.8 0-1.5-.7-1.5-1.8c0-1.1.7-1.8 1.5-1.8c.6 0 1 .2 1.2.6v-.5h.4s.05 3.43 0 3.4c0 .9-.6 1.6-1.6 1.6c-1 0-1.5-.4-1.5-1.1zm1.6-.8c.6 0 1.1-.5 1.1-1.4c0-.9-.5-1.4-1.1-1.4h-.1c-.6 0-1 .5-1 1.4c0 .9.4 1.4 1 1.4h.1zm4.2.4V.6s1.95-.04 1.9 0c.9 0 1.6.5 1.6 1.4c0 1-.7 1.4-1.6 1.4c.05.04-1.4 0-1.4 0v2.1h-.5zm.5-2.5h1.3c.7 0 1.2-.3 1.2-1c0-.7-.5-1-1.2-1h-1.3v2zm3.9 2.5V.6h.5v4.9h-.5zm1.5-1c0-.8.7-1 1.2-1.1c.04.04 1.1 0 1.1 0c0 0 .05-.18 0-.2c0-.6-.3-.9-.8-.9h-.1c-.4 0-.8.2-.8.6h-.5c0-.6.6-1 1.4-1c.9 0 1.3.6 1.3 1.3v2.3h-.4v-.6c-.2.3-.6.6-1.3.6c-.6 0-1.1-.4-1.1-1zm1.3.6c.4 0 1-.4 1-.9c.05 0 0-.5 0-.5l-1 .1c-.5 0-.8.3-.8.7c0 .4.3.6.7.6h.1zm2.7.4V2h.5s-.04.55 0 .5c.2-.3.6-.6 1.2-.6c.7 0 1.2.4 1.2 1.3v2.3h-.4s-.04-2.19 0-2.2c0-.7-.3-1-.9-1c-.8 0-1.1.7-1.1 1.4c-.04.01 0 1.8 0 1.8h-.5zM198 5h2.6v.5h-3.2v-.5s1.96-2.03 2-2c.5-.6.6-.8.6-1.2c0-.5-.4-.9-1-.9c-.7 0-1.1.5-1.1 1.1h-.5c.1-.9.7-1.5 1.6-1.5c.9 0 1.5.5 1.5 1.3c0 .6-.3 1-.7 1.4c-.02 0-1.8 1.8-1.8 1.8zm3.4-2c0-1.6.7-2.5 1.9-2.5c1.2 0 1.8.9 1.8 2.5c0 1.7-.6 2.5-1.8 2.5c-1.2 0-1.9-.8-1.9-2.5zm1.9 2.1c.6 0 1.4-.5 1.4-2.1c0-1.6-.8-2.1-1.4-2.1h-.1c-.5 0-1.3.5-1.3 2.1c0 1.6.8 2.1 1.3 2.1h.1zm4-4.5h.3v4.9h-.4V1.3L206 2.4v-.6l1.3-1.2zm5 2.3c0 1.5-.8 2.6-2 2.6c-.8 0-1.4-.4-1.5-1.2h.5c.1.5.5.8 1 .8h.1c.8 0 1.4-.9 1.4-2.2c-.2.6-.8.9-1.4.9c-.9 0-1.5-.7-1.5-1.6c0-1.1.7-1.7 1.6-1.7c1.1 0 1.8.9 1.8 2.4zm-1.8.4c.7 0 1.2-.5 1.2-1.2c0-.6-.5-1.2-1.2-1.2c-.7 0-1.2.5-1.2 1.2c0 .7.5 1.2 1.2 1.2zm2.8-.1v-.4h1.8v.4h-1.8zm3 1.8h2.6v.5h-3.1v-.5l1.9-2c.6-.6.7-.8.7-1.2c0-.5-.4-.9-1-.9h-.1c-.6 0-1 .5-1 1.1h-.5c0-.9.6-1.5 1.5-1.5c.9 0 1.6.5 1.6 1.3c0 .6-.3 1-.8 1.4c.03 0-1.8 1.8-1.8 1.8zm3.5-2c0-1.6.7-2.5 1.8-2.5c1.2 0 1.9.9 1.9 2.5c0 1.7-.7 2.5-1.9 2.5c-1.1 0-1.8-.8-1.8-2.5zm1.9 2.1c.6 0 1.3-.5 1.3-2.1c0-1.6-.7-2.1-1.3-2.1h-.1c-.6 0-1.3.5-1.3 2.1c0 1.6.7 2.1 1.3 2.1h.1zM225 5h2.5v.5h-3.1v-.5l1.9-2c.6-.6.7-.8.7-1.2c0-.5-.4-.9-1-.9h-.1c-.6 0-1 .5-1 1.1h-.5c0-.9.6-1.5 1.6-1.5c.8 0 1.5.5 1.5 1.3c0 .6-.3 1-.8 1.4c.04 0-1.7 1.8-1.7 1.8zm3.4-.8h.4c.1.6.5.9 1.1.9h.1c.6 0 1.1-.4 1.1-1c0-.5-.5-.9-1.1-.9c.03.04-.3 0-.3 0v-.4h.4c.6 0 1-.4 1-.9c0-.6-.5-1-1.1-1h-.1c-.5 0-.9.4-1 .9h-.5c.1-.7.7-1.3 1.6-1.3c.8 0 1.5.5 1.5 1.3c0 .6-.3 1-.8 1.2c.5.2.9.5.9 1.2c0 .9-.8 1.3-1.6 1.3c-1 0-1.5-.4-1.6-1.3zm4 2.1v-.3h.2c.3 0 .5-.2.5-.4c-.04-.04 0-.1 0-.1h-.4v-.7h.7s-.03.8 0 .8c0 .4-.3.7-.7.7c.01-.04-.3 0-.3 0zm4.4-.8c-.4 0-.6-.2-.6-.7c-.03.03 0-2.5 0-2.5h-.8v-.3h.8V.8h.4v1.2h.9v.3h-.9s.03 2.5 0 2.5c0 .2.1.3.3.3c.01-.02.7 0 .7 0v.4s-.76-.04-.8 0zm1.7 0V2h.4s-.02.76 0 .8c.1-.6.6-.9 1.1-.9c-.03.03.3 0 .3 0v.4s-.3.04-.3 0c-.7 0-1.1.6-1.1 1.5c.02-.04 0 1.7 0 1.7h-.4zm2.4-1c0-.8.7-1 1.2-1.1c.02.04 1.1 0 1.1 0c0 0 .03-.18 0-.2c0-.6-.3-.9-.8-.9h-.1c-.4 0-.8.2-.9.6h-.4c0-.6.6-1 1.3-1c.9 0 1.4.6 1.4 1.3v2.3h-.4v-.6c-.2.3-.7.6-1.3.6c-.6 0-1.1-.4-1.1-1zm1.2.6c.5 0 1.1-.4 1.1-.9c.03 0 0-.5 0-.5l-1 .1c-.5 0-.8.3-.8.7c0 .4.3.6.7.6zm2.8.4V2h.4s.04.55 0 .5c.2-.3.7-.6 1.3-.6c.7 0 1.2.4 1.2 1.3v2.3h-.5s.04-2.19 0-2.2c0-.7-.2-1-.8-1c-.8 0-1.2.7-1.2 1.4c.04.01 0 1.8 0 1.8h-.4zm3.8-1.1h.5c.1.5.4.7.9.7h.1c.5 0 .8-.2.8-.6c0-.3-.2-.4-.6-.5l-.6-.1c-.5-.1-.9-.4-.9-1c0-.6.6-1 1.2-1c.9 0 1.3.5 1.4 1.1h-.5c0-.4-.3-.7-.8-.7h-.1c-.5 0-.8.3-.8.6c0 .3.2.4.7.5l.5.2c.5.1.9.3.9.9c0 .6-.5 1-1.3 1c-.9 0-1.3-.4-1.4-1.1zm3.8 2.5V2h.5s-.04.52 0 .5c.2-.4.7-.6 1.1-.6c.9 0 1.6.7 1.6 1.8c0 1.1-.7 1.8-1.6 1.8c-.4 0-.9-.2-1.1-.6c-.04 0 0 2 0 2h-.5zm1.6-1.8c.8 0 1.1-.6 1.1-1.4c0-.7-.3-1.4-1.1-1.4c-.8 0-1.1.7-1.1 1.4c0 .8.3 1.4 1.1 1.4zm2.4-1.4c0-1.1.7-1.8 1.6-1.8c1 0 1.7.7 1.7 1.8c0 1.1-.7 1.8-1.7 1.8c-.9 0-1.6-.7-1.6-1.8zm1.7 1.4c.6 0 1.1-.5 1.1-1.4c0-.9-.5-1.4-1.1-1.4h-.1c-.6 0-1.1.5-1.1 1.4c0 .9.5 1.4 1.1 1.4h.1zm2.6.4V2h.4v.8c.2-.6.6-.9 1.1-.9c0 .03.3 0 .3 0v.4s-.27.04-.3 0c-.6 0-1.1.6-1.1 1.5c.05-.04 0 1.7 0 1.7h-.4zm3.9 0c-.5 0-.7-.2-.7-.7c.01.03 0-2.5 0-2.5h-.8v-.3h.8V.8h.5v1.2h.8v.3h-.8s-.03 2.5 0 2.5c0 .2 0 .3.2.3c.05-.02.7 0 .7 0v.4s-.72-.04-.7 0zm1.6 0V2h.5s-.04.55 0 .5c.2-.3.6-.6 1.2-.6c.7 0 1.2.4 1.2 1.3v2.3h-.4s-.05-2.19 0-2.2c0-.7-.3-1-.9-1c-.8 0-1.1.7-1.1 1.4c-.04.01 0 1.8 0 1.8h-.5zm3.9-1.1h.4c.1.5.4.7.9.7h.1c.5 0 .8-.2.8-.6c0-.3-.2-.4-.6-.5l-.5-.1c-.6-.1-1-.4-1-1c0-.6.6-1 1.3-1c.8 0 1.2.5 1.3 1.1h-.5c0-.4-.3-.7-.8-.7h-.1c-.5 0-.7.3-.7.6c0 .3.1.4.6.5l.5.2c.5.1.9.3.9.9c0 .6-.5 1-1.2 1c-.9 0-1.4-.4-1.4-1.1zm7.9-2.4h.4l-1.1 3.5h-.6l-.8-3.1l-.8 3.1h-.6L273.5 2h.5l.9 3.1l.8-3.1h.6l.8 3.1l1-3.1zm1 3.5v-.7h.7v.7h-.7zm1.9-4.2v-.6h.5v.6h-.5zm0 4.2V2h.5v3.5h-.5zm1.7 0V2h.5s-.03.55 0 .5c.2-.3.6-.6 1.2-.6c.7 0 1.2.4 1.2 1.3c.02-.03 0 2.3 0 2.3h-.4s-.03-2.19 0-2.2c0-.7-.3-1-.9-1c-.8 0-1.1.7-1.1 1.4c-.03.01 0 1.8 0 1.8h-.5zm4.5 0V2.3h-.8v-.3h.8v-.8c0-.5.2-.6.7-.6c-.04-.04.8 0 .8 0v.3s-.77.04-.8 0c-.2 0-.3.1-.3.3c.05.02 0 .8 0 .8h1v.3h-1v3.2h-.4zm1.9-1.8c0-1.1.7-1.8 1.6-1.8c.9 0 1.6.7 1.6 1.8c0 1.1-.7 1.8-1.6 1.8c-.9 0-1.6-.7-1.6-1.8zm1.7 1.4c.6 0 1.1-.5 1.1-1.4c0-.9-.5-1.4-1.1-1.4h-.1c-.6 0-1.1.5-1.1 1.4c0 .9.5 1.4 1.1 1.4h.1zm2.2 1.2v-.3h.2c.3 0 .4-.2.4-.4c.03-.04 0-.1 0-.1h-.4v-.7h.7s.05.8 0 .8c0 .4-.2.7-.6.7c-.02-.04-.3 0-.3 0z" stroke="none" fill="#192d39"/></g></svg>