<?xml version="1.0" standalone="no"?><!DOCTYPE svg PUBLIC "-//W3C//DTD SVG 1.1//EN" "http://www.w3.org/Graphics/SVG/1.1/DTD/svg11.dtd"><svg xmlns="http://www.w3.org/2000/svg" version="1.1" width="181px" height="38.1px" viewBox="0 -3 181 38.1" style="top:-3px"><desc>Actual view from level 37</desc><defs/><g id="Polygon17152"><path d="m8 10.9l-.9-2.4H2.7l-.9 2.4H.1l3.8-9.8h2.1l3.8 9.8H8zM3.3 7h3.2L4.9 2.9L3.3 7zm7 .4c0-2.1 1.3-3.6 3.4-3.6c1.7 0 2.8.9 3 2.5h-1.6c-.1-.7-.6-1.2-1.4-1.2h-.1c-1.2 0-1.7 1.1-1.7 2.3c0 1.3.5 2.3 1.7 2.3h.1c.8 0 1.3-.4 1.4-1.2h1.6c-.2 1.7-1.3 2.6-3 2.6c-2.1 0-3.4-1.5-3.4-3.7zm10.4 3.5c-1.1 0-1.7-.6-1.7-1.7c.03.03 0-4 0-4h-1.5V3.9h1.5V1.7h1.6v2.2h1.6v1.3h-1.6s.04 3.65 0 3.6c0 .6.2.7.7.7c.02.03 1.2 0 1.2 0v1.4s-1.78.02-1.8 0zm2.9-2.4c.02-.04 0-4.6 0-4.6h1.6s.03 4.32 0 4.3c0 1 .5 1.5 1.2 1.5h.1c.9 0 1.6-.8 1.6-1.9c.03-.03 0-3.9 0-3.9h1.6v7h-1.6s.03-1.13 0-1.1c-.3.7-1.1 1.3-2.1 1.3c-1.6 0-2.4-1.1-2.4-2.6zm7.7.5c0-1.6 1.3-2.2 2.6-2.3c-.04.04 1.8-.1 1.8-.1v-.2c0-.8-.5-1.3-1.3-1.3h-.1c-.7 0-1.2.4-1.3.9h-1.6c.1-1.3 1.3-2.2 3-2.2c1.8 0 2.9 1 2.9 2.6v4.5h-1.5c0-.2-.1-.7-.1-.9c-.3.6-1.1 1.1-2.1 1.1c-1.3 0-2.3-.9-2.3-2.1zm2.7.7c.8 0 1.7-.6 1.7-1.5v-.4s-1.63.13-1.6.1c-.6.1-1.2.4-1.2 1c0 .5.4.8 1 .8h.1zm5.1 1.2V1.1h1.6v9.8h-1.6zm11-7h1.7l-2.5 7h-2.2l-2.5-7h1.7l1.9 5.7l1.9-5.7zm2.8-1V1.1h1.7v1.8h-1.7zm0 8v-7h1.6v7h-1.6zm3.2-3.5c0-2.2 1.3-3.6 3.2-3.6c2 0 3.2 1.4 3.2 3.3c0 .3-.1.5-.1.7h-4.8c.1 1.3 1 1.9 1.8 1.9h.1c.7 0 1.2-.3 1.3-.9h1.6c-.3 1.4-1.4 2.3-3 2.3c-1.8 0-3.3-1.3-3.3-3.7zm4.8-.8c-.1-1-.8-1.5-1.5-1.5h-.1c-.8 0-1.5.5-1.6 1.5h3.2zM72 3.9h1.6l-2 7h-1.8l-1.4-5.1l-1.3 5.1h-1.8l-2.2-7h1.7l1.4 5.4l1.3-5.4h1.8l1.3 5.4L72 3.9zm6.3 7V5.2h-1.4V3.9h1.4s.05-1.11 0-1.1c0-1.1.6-1.7 1.7-1.7c.03.02 2 0 2 0v1.4s-1.36-.02-1.4 0c-.5 0-.6.1-.6.7c-.04-.04 0 .7 0 .7h1.7v1.3H80v5.7h-1.7zm4.6 0v-7h1.6s-.05 1.48 0 1.5c.2-1 1-1.5 2-1.5c-.02-.05.5 0 .5 0v1.5s-.64-.04-.6 0c-1.3 0-1.9.6-1.9 1.9c-.02.02 0 3.6 0 3.6h-1.6zm4.9-3.5c0-2.1 1.4-3.6 3.4-3.6c2 0 3.4 1.5 3.4 3.6c0 2.1-1.4 3.7-3.4 3.7c-2 0-3.4-1.6-3.4-3.7zm3.4 2.3c1.1 0 1.8-.8 1.8-2.3c0-1.5-.7-2.3-1.8-2.3h-.1c-1 0-1.7.8-1.7 2.3c0 1.5.7 2.3 1.7 2.3h.1zm5 1.2v-7h1.6s-.03 1.01 0 1c.4-.7 1.2-1.1 2.1-1.1c1 0 1.8.4 2.2 1.2c.5-.9 1.4-1.2 2.3-1.2c1.7 0 2.5 1.1 2.5 2.6v4.5h-1.6V6.6c0-.9-.4-1.5-1.2-1.5h-.1c-.9 0-1.7.8-1.7 1.9c.03.01 0 3.9 0 3.9h-1.6s.03-4.26 0-4.3c0-.9-.3-1.5-1.2-1.5h-.1c-.9 0-1.6.8-1.6 1.9c-.03.01 0 3.9 0 3.9h-1.6zm15.3 0V1.1h1.6v9.8h-1.6zm3.1-3.5c0-2.2 1.4-3.6 3.3-3.6c2 0 3.1 1.4 3.1 3.3v.7h-4.8c.1 1.3.9 1.9 1.7 1.9h.1c.7 0 1.2-.3 1.4-.9h1.6c-.3 1.4-1.5 2.3-3.1 2.3c-1.7 0-3.3-1.3-3.3-3.7zm4.8-.8c0-1-.7-1.5-1.5-1.5h-.1c-.7 0-1.5.5-1.6 1.5h3.2zm7.7-2.7h1.7l-2.5 7h-2.2l-2.5-7h1.7l1.9 5.7l1.9-5.7zm2.2 3.5c0-2.2 1.4-3.6 3.3-3.6c2 0 3.1 1.4 3.1 3.3v.7h-4.8c.1 1.3.9 1.9 1.7 1.9h.1c.7 0 1.2-.3 1.4-.9h1.6c-.3 1.4-1.5 2.3-3.1 2.3c-1.7 0-3.3-1.3-3.3-3.7zm4.8-.8c0-1-.7-1.5-1.5-1.5h-.1c-.7 0-1.5.5-1.6 1.5h3.2zm3.2 4.3V1.1h1.6v9.8h-1.6zm5.9-2.6h1.6c.2.8.8 1.3 1.8 1.3h.1c1.1 0 1.7-.6 1.7-1.4c0-.9-.7-1.5-1.7-1.5c-.03.03-.8 0-.8 0V5.3h.7c1.1 0 1.8-.6 1.8-1.5c0-.8-.7-1.4-1.6-1.4h-.2c-.8 0-1.5.6-1.6 1.4h-1.6c0-1.6 1.4-2.8 3.3-2.8c2 0 3.3 1.2 3.3 2.7c0 1.1-.7 2-1.7 2.3c1 .2 1.8 1.1 1.8 2.3c0 1.7-1.5 2.8-3.5 2.8c-1.9 0-3.3-1.1-3.4-2.8zm8-7.2h6.9v1.5c-2.2 1.4-3.6 3.7-3.6 7.7v.6h-1.7v-.7c0-3.9 1.6-6.3 3.4-7.6c.03.02-5 0-5 0V1.1z" stroke="none" fill="#dcddce"/></g></svg>