<?xml version="1.0" standalone="no"?><!DOCTYPE svg PUBLIC "-//W3C//DTD SVG 1.1//EN" "http://www.w3.org/Graphics/SVG/1.1/DTD/svg11.dtd"><svg xmlns="http://www.w3.org/2000/svg" version="1.1" width="105px" height="42.9px" viewBox="0 -2 105 42.9" style="top:-2px"><desc>$3 billion in apartment sales in 3 years</desc><defs/><g id="Polygon15966"><path d="m34.9 30.8v-.7h.6v.7h-.6zm0 5.1v-4.3h.6v4.3h-.6zm2 0v-4.3h.6s-.02.7 0 .7c.2-.5.8-.8 1.5-.8c.9 0 1.5.5 1.5 1.6v2.8h-.6s.04-2.66 0-2.7c0-.8-.3-1.2-1-1.2c-1 0-1.4.8-1.4 1.7c-.02.03 0 2.2 0 2.2h-.6zm6.4-1.5h.6c.1.6.6 1 1.4 1c.8 0 1.4-.4 1.4-1.1c0-.7-.6-1.1-1.3-1.1c-.02-.05-.4 0-.4 0v-.6h.5c.7 0 1.2-.5 1.2-1.1c0-.7-.6-1.2-1.4-1.2c-.7 0-1.2.5-1.3 1.1h-.6c.1-.9.8-1.6 1.9-1.6c1.1 0 1.9.5 1.9 1.6c0 .7-.4 1.2-1 1.5c.6.2 1.1.6 1.1 1.4c0 1.1-1 1.7-2 1.7c-1.2 0-1.9-.6-2-1.6zm10.6-2.8l-1.8 4.1s.04.87 0 .9c0 .5-.2.7-.8.7c.02.02-1.3 0-1.3 0v-.5s1.24.05 1.2 0c.3 0 .4 0 .4-.3c-.02 0 0-.7 0-.7l-1.9-4.2h.7l1.4 3.5l1.5-3.5h.6zm.6 2.1c0-1.5.9-2.2 1.9-2.2c1.1 0 1.7.8 1.7 1.9c.05.03 0 .4 0 .4c0 0-3.06-.02-3.1 0c.1 1.2.7 1.7 1.4 1.7c.6 0 1-.3 1.2-.8h.5c-.1.8-.8 1.3-1.7 1.3c-1.1 0-1.9-.8-1.9-2.3zm3.1-.4c0-.8-.5-1.3-1.2-1.3c-.6 0-1.2.3-1.3 1.3h2.5zm1.5 1.4c0-.9.9-1.2 1.5-1.3c.03.01 1.4-.1 1.4-.1v-.2c0-.7-.4-1.1-1.1-1.1c-.6 0-1 .2-1.1.8h-.6c.1-.8.8-1.3 1.7-1.3c1.1 0 1.7.7 1.7 1.6v2.8h-.5c0-.2-.1-.5-.1-.7c-.1.4-.7.8-1.5.8c-.7 0-1.4-.6-1.4-1.3zm1.6.8c.6 0 1.3-.5 1.3-1.2v-.5s-1.25.05-1.3 0c-.6.1-1 .4-1 .9c0 .4.4.8.9.8h.1zm3.3.4v-4.3h.5v1c.2-.7.7-1.1 1.3-1.1c.05.03.4 0 .4 0v.5s-.31.05-.3 0c-.8 0-1.4.7-1.4 1.8c.05-.01 0 2.1 0 2.1h-.5zm2.9-1.3h.6c0 .6.5.9 1.1.9h.1c.6 0 .9-.3.9-.8c0-.3-.2-.5-.7-.6l-.7-.2c-.6-.1-1.1-.4-1.1-1.1c0-.9.7-1.3 1.5-1.3c1.1 0 1.6.7 1.6 1.4h-.5c-.1-.5-.5-.9-1-.9h-.1c-.6 0-1 .3-1 .7c0 .4.3.6.8.7l.7.1c.6.2 1.1.5 1.1 1.2c0 .8-.6 1.3-1.6 1.3c-1.1 0-1.7-.6-1.7-1.4z" stroke="none" fill="#192d39"/></g><g id="Polygon15965"><path d="m17.2 19.2v-.7h.7v.7h-.7zm.1 5.1V20h.5v4.3h-.5zm2 0V20h.6s-.04.74 0 .7c.2-.4.8-.8 1.5-.8c.8 0 1.5.6 1.5 1.6c-.02.01 0 2.8 0 2.8h-.6s.02-2.62 0-2.6c0-.9-.3-1.3-1-1.3h-.1c-.9 0-1.3.8-1.3 1.8c-.04-.03 0 2.1 0 2.1h-.6zm6.4-1.2c0-.9.8-1.2 1.5-1.3c-.01.04 1.4-.1 1.4-.1c0 0-.04-.13 0-.1c0-.8-.5-1.2-1.1-1.2h-.1c-.5 0-1 .3-1 .8h-.6c0-.7.7-1.3 1.6-1.3c1.2 0 1.7.8 1.7 1.7v1.8c0 .2 0 .6.1.9h-.6v-.7c-.2.4-.8.8-1.5.8c-.8 0-1.4-.5-1.4-1.3zm1.5.8c.6 0 1.4-.5 1.4-1.1c-.04-.02 0-.6 0-.6c0 0-1.3.08-1.3.1c-.6 0-1 .3-1 .8c0 .5.3.8.8.8h.1zm3.3 2.2V20h.6v.7c.3-.5.9-.8 1.4-.8c1.2 0 2 .9 2 2.3c0 1.4-.8 2.2-2 2.2c-.5 0-1.1-.3-1.4-.8v2.5h-.6zm2-2.2c1 0 1.4-.8 1.4-1.7c0-1-.4-1.8-1.4-1.8c-.9 0-1.4.8-1.4 1.8c0 .9.5 1.7 1.4 1.7zm2.9-.8c0-.9.9-1.2 1.5-1.3c.04.04 1.4-.1 1.4-.1v-.1c0-.8-.4-1.2-1.1-1.2c-.6 0-1 .3-1.1.8h-.6c.1-.7.8-1.3 1.7-1.3c1.1 0 1.7.8 1.7 1.7v2.7h-.5c0-.2-.1-.4-.1-.7c-.1.4-.7.8-1.5.8c-.7 0-1.4-.5-1.4-1.3zm1.6.8c.6 0 1.3-.5 1.3-1.1v-.6s-1.25.08-1.3.1c-.6 0-1 .3-1 .8c0 .5.4.8.9.8h.1zm3.3.4V20h.5v1c.2-.7.8-1 1.3-1c.05-.03.4 0 .4 0v.5h-.3c-.8 0-1.4.6-1.4 1.7c.05.03 0 2.1 0 2.1h-.5zm4.7 0c-.5 0-.8-.2-.8-.7v-3.1h-1v-.5h1v-1.4h.6v1.4h1.1v.5h-1.1s-.03 3.01 0 3c0 .3.1.4.3.4c.02-.04.9 0 .9 0v.4s-.97.03-1 0zm2 0V20h.5s.03.7 0 .7c.3-.4.8-.8 1.5-.8c.6 0 1.1.3 1.3.9c.3-.6.9-.9 1.6-.9c.8 0 1.4.6 1.4 1.6c.03.01 0 2.8 0 2.8h-.5s-.04-2.62 0-2.6c0-.9-.4-1.3-1-1.3h-.1c-.9 0-1.3.8-1.3 1.8c.03-.03 0 2.1 0 2.1h-.5s-.03-2.62 0-2.6c0-.9-.4-1.3-1-1.3h-.1c-.9 0-1.3.8-1.3 1.8c.03-.03 0 2.1 0 2.1h-.5zm7.5-2.1c0-1.5 1-2.3 2-2.3c1 0 1.7.9 1.7 2v.3s-3.11.02-3.1 0c0 1.2.6 1.7 1.3 1.7h.1c.6 0 1-.2 1.1-.8h.6c-.2.9-.9 1.3-1.7 1.3c-1.1 0-2-.8-2-2.2zm3.1-.5c0-.7-.4-1.3-1.1-1.3h-.1c-.5 0-1.2.3-1.3 1.3h2.5zm1.9 2.6V20h.5v.7c.3-.4.8-.8 1.5-.8c.9 0 1.5.6 1.5 1.6c.04.01 0 2.8 0 2.8h-.5s-.02-2.62 0-2.6c0-.9-.4-1.3-1.1-1.3c-.9 0-1.4.8-1.4 1.8v2.1h-.5zm6.2 0c-.6 0-.8-.2-.8-.7c-.02-.04 0-3.1 0-3.1h-1v-.5h1v-1.4h.5v1.4h1.1v.5h-1.1s.04 3.01 0 3c0 .3.1.4.4.4c-.01-.04.9 0 .9 0v.4s-1 .03-1 0zm3.2-1.3h.6c0 .6.5.9 1.1.9h.1c.6 0 1-.3 1-.7c0-.4-.2-.6-.8-.7l-.6-.1c-.7-.2-1.2-.5-1.2-1.2c0-.8.7-1.3 1.5-1.3c1.1 0 1.6.7 1.7 1.4h-.6c0-.5-.4-.9-1-.9h-.1c-.6 0-.9.4-.9.7c0 .4.2.6.7.7l.7.2c.6.1 1.1.4 1.1 1.1c0 .8-.6 1.3-1.6 1.3c-1.1 0-1.6-.6-1.7-1.4zm4.4.1c0-.9.8-1.2 1.4-1.3c.04.04 1.4-.1 1.4-.1v-.1c0-.8-.4-1.2-1.1-1.2c-.6 0-1 .3-1.1.8h-.6c.1-.7.8-1.3 1.7-1.3c1.1 0 1.7.8 1.7 1.7v2.7h-.5v-.7c-.2.4-.8.8-1.6.8c-.7 0-1.3-.5-1.3-1.3zm1.5.8c.6 0 1.3-.5 1.3-1.1v-.6s-1.25.08-1.2.1c-.7 0-1.1.3-1.1.8c0 .5.4.8.9.8h.1zm3.3.4v-6h.6v6h-.6zm1.8-2.1c0-1.5.9-2.3 1.9-2.3c1.1 0 1.8.9 1.8 2c-.04-.03 0 .3 0 .3c0 0-3.15.02-3.2 0c.1 1.2.7 1.7 1.4 1.7h.1c.5 0 .9-.2 1.1-.8h.6c-.2.9-.9 1.3-1.8 1.3c-1.1 0-1.9-.8-1.9-2.2zm3.1-.5c0-.7-.5-1.3-1.1-1.3h-.1c-.6 0-1.2.3-1.3 1.3h2.5zm1.5 1.3h.6c0 .6.5.9 1.1.9h.1c.6 0 1-.3 1-.7c0-.4-.2-.6-.8-.7l-.6-.1c-.7-.2-1.2-.5-1.2-1.2c0-.8.7-1.3 1.5-1.3c1.1 0 1.6.7 1.7 1.4h-.6c-.1-.5-.4-.9-1-.9h-.1c-.6 0-1 .4-1 .7c0 .4.3.6.8.7l.7.2c.6.1 1.1.4 1.1 1.1c0 .8-.6 1.3-1.6 1.3c-1.1 0-1.6-.6-1.7-1.4z" stroke="none" fill="#192d39"/></g><g id="Polygon15964"><path d="m21 12.8c-.02-.03 0 .8 0 .8h-.4s.04-.83 0-.8c-1.2 0-2.6-.5-3.5-1.2v-1.3c.8 1.3 2.2 2 3.5 2.1c.04-.02 0-4.6 0-4.6l-.1-.1C18 6.6 17.3 6 17.3 5c0-1 1-1.8 3.3-1.9c.04 0 0-.8 0-.8h.4v.8s.05-.02 0 0c1.5 0 2.6.5 3.4 1.1v1.3c-.8-1.2-2.1-1.9-3.4-2v3.4c2.4 1 3.5 2 3.5 3.3c0 1.4-1 2.5-3.5 2.6zm0-4.9v4.5c1.6-.1 2.5-.8 2.5-1.8c0-1.1-.5-1.8-2.5-2.7zm-.4-1.2V3.5c-1.6 0-2.4.5-2.4 1.2c0 .7.6 1.3 2.4 2zm8.3.5c.9 0 1.5-.8 1.5-2c0-1-.6-1.7-1.7-1.7c-1.4 0-2.1 1.2-2.1 2.6L25.7 5c0-.7 1.2-1.9 3-1.9c1.8 0 2.8.9 2.8 2.1c0 1-.8 1.8-1.7 2.2c1.1.3 2.1 1.2 2.1 2.7c0 1.3-1.1 2.7-3.2 2.7c-1.9 0-3.1-1.4-3.2-2.1l1-1.1c0 1.4.9 2.8 2.2 2.8c1.5 0 2.1-1.3 2.1-2.4c0-1.7-1.1-2.4-2.1-2.4c-.05-.04.1-.4.1-.4h.1zm8.4-4.1s2.97-.02 3 0c2.8 0 4 1.1 4 2.4c0 .8-.6 1.7-2.1 2.1c2.2.3 3.2 1.3 3.2 2.5c0 1.6-1.7 2.7-5.1 2.7c-.03-.03-3 0-3 0V3.1zm.9 9.3h2.1c2.3 0 4.1-.7 4.1-2.3c0-1.5-1.7-2.2-4-2.3c.04.03-2.2 0-2.2 0v4.6zm0-8.9v4s2.07-.04 2.1 0c2 0 3-.8 3-2c0-1.3-1-2-3-2c-.03-.03-2.1 0-2.1 0zm9.7 9.3h-1V3.1h1v9.7zm2-9.7h1v9.3l5.2-.3v.7h-6.2V3.1zm7.4 0h1v9.3l5.2-.3l-.1.7h-6.1V3.1zm8.4 9.7h-1V3.1h1v9.7zM77 7.9c0 2.7-2.2 4.9-4.9 4.9c-2.7 0-4.9-2.2-4.9-4.9c0-2.7 2.2-4.8 4.9-4.8c2.7 0 4.9 2.1 4.9 4.8zm-1.3-1.4c-1-2.3-3.3-3.5-5.3-2.7c-1.9.8-2.8 3.3-1.8 5.6c.9 2.3 3.3 3.5 5.2 2.7c2-.9 2.8-3.4 1.9-5.6zm2.8 6.3V3.1h.4l7.9 8.1V3.1h.5v9.7h-.4L79 4.6v8.2h-.5z" stroke="none" fill="#192d39"/></g></svg>