<?xml version="1.0" standalone="no"?><!DOCTYPE svg PUBLIC "-//W3C//DTD SVG 1.1//EN" "http://www.w3.org/Graphics/SVG/1.1/DTD/svg11.dtd"><svg xmlns="http://www.w3.org/2000/svg" version="1.1" width="71.2px" height="46.8px" viewBox="0 -2 71.2 46.8" style="top:-2px"><desc>45k</desc><defs/><g id="Polygon22548"><path d="m10.6 26.4l.2-3.6H.3L13 5.9v15.3h2.6v1.6H13v3.6h-2.4zm.4-5.2L11.9 9l-9.1 12.2h8.2zm9.7-14.8h11l-.4 2.3l-9.8-1.5s-1.15 6.84-1.1 6.8c1.6-.8 3.5-1.2 5.1-1.2c4 .1 6.6 2.4 6.6 6.1c0 3.8-2.8 7.5-7.3 7.5c-4.1 0-6.2-3.1-6.3-4.6l2-2.2c0 2.8 1.4 5.9 4.3 5.9c3.3 0 5-2.9 5-6.1c0-3.5-1.7-5.6-4.7-5.6c-1.8 0-3.9.6-6.1 2.2c-.02 0 .2-1.2.2-1.2l1.5-8.4zm30 18.6c1.27 1.25 2.2 1.2 2.2 1.2c0 0-.48.33-1.3.3c-1.6 0-2.5-.5-4.3-2.4l-5.8-6c-1.3-1.4-1.9-1.6-2.6-1l-.1.1c.01-.04-.7.6-.7.6v8.5H36V6.4h2.1v10.1L49.3 6.4h1.5L40 16.1c1.4-.3 3 .8 4.1 1.9c1.1 1.1 6.6 7 6.6 7z" stroke="none" fill="#192d39"/></g></svg>