<?xml version="1.0" standalone="no"?><!DOCTYPE svg PUBLIC "-//W3C//DTD SVG 1.1//EN" "http://www.w3.org/Graphics/SVG/1.1/DTD/svg11.dtd"><svg xmlns="http://www.w3.org/2000/svg" version="1.1" width="39px" height="15px" viewBox="0 -2 39 15" style="top:-2px"><desc>23</desc><defs/><g id="Polygon21996"><path d="m15.6 6.1h3.1v.9h-4.4v-1l2.1-2c.7-.6 1.1-1 1.1-1.6c0-.5-.4-.9-.9-.9h-.1c-.6 0-1.1.5-1.1 1.2h-1c0-1.3.9-2.1 2.1-2.1c1.2 0 2.1.7 2.1 1.8c0 .9-.6 1.4-1.3 2.2c-.05-.05-1.7 1.5-1.7 1.5zm4.1-.8h1.1c.1.6.5.9 1.1.9h.1c.7 0 1.1-.4 1.1-.9c0-.6-.5-1-1.1-1c-.03.03-.5 0-.5 0v-.9h.4c.7 0 1.2-.4 1.2-.9c0-.6-.5-1-1.1-1h-.1c-.5 0-.9.4-1 .9h-1c0-1 .9-1.8 2.1-1.8c1.2 0 2.1.8 2.1 1.7c0 .8-.4 1.4-1.1 1.5c.7.2 1.2.8 1.2 1.5c0 1.1-1 1.8-2.2 1.8c-1.3 0-2.2-.7-2.3-1.8z" stroke="none" fill="#192d39"/></g></svg>