<?xml version="1.0" standalone="no"?><!DOCTYPE svg PUBLIC "-//W3C//DTD SVG 1.1//EN" "http://www.w3.org/Graphics/SVG/1.1/DTD/svg11.dtd"><svg xmlns="http://www.w3.org/2000/svg" version="1.1" width="39px" height="15px" viewBox="0 -2 39 15" style="top:-2px"><desc>3</desc><defs/><g id="Polygon16586"><path d="m17 5.3h1.1c0 .6.4.9 1.1.9h.1c.7 0 1.1-.4 1.1-.9c0-.6-.5-1-1.2-1c.03.03-.4 0-.4 0v-.9h.4c.7 0 1.1-.4 1.1-.9c0-.6-.4-1-1-1h-.1c-.5 0-1 .4-1 .9h-1.1c0-1 1-1.8 2.2-1.8c1.2 0 2.1.8 2.1 1.7c0 .8-.5 1.4-1.1 1.5c.6.2 1.1.8 1.1 1.5c0 1.1-.9 1.8-2.2 1.8c-1.3 0-2.1-.7-2.2-1.8z" stroke="none" fill="#dcddce"/></g></svg>