<?xml version="1.0" standalone="no"?><!DOCTYPE svg PUBLIC "-//W3C//DTD SVG 1.1//EN" "http://www.w3.org/Graphics/SVG/1.1/DTD/svg11.dtd"><svg xmlns="http://www.w3.org/2000/svg" version="1.1" width="105px" height="100.9px" viewBox="0 -2 105 100.9" style="top:-2px"><desc>Over 9,000+ rental apartments and 5,000+ hotel suites owned, managed and operated by Meriton</desc><defs/><g id="Polygon15795"><path d="m5 57.8c0-.9.8-1.2 1.5-1.3c0 .03 1.4-.1 1.4-.1c0 0-.03-.15 0-.1c0-.8-.4-1.2-1.1-1.2h-.1c-.5 0-1 .3-1 .8h-.6c.1-.8.7-1.3 1.7-1.3c1.1 0 1.6.8 1.6 1.7v1.8c0 .2 0 .6.1.9h-.5c-.1-.2-.1-.4-.1-.7c-.2.4-.8.8-1.5.8c-.8 0-1.4-.5-1.4-1.3zm1.5.8c.6 0 1.4-.5 1.4-1.1c-.03-.04 0-.6 0-.6c0 0-1.29.07-1.3.1c-.6 0-1 .3-1 .8c0 .5.3.8.8.8h.1zm3.4.4v-4.3h.5s.02.72 0 .7c.3-.5.8-.8 1.5-.8c.9 0 1.5.6 1.5 1.6c.04-.01 0 2.8 0 2.8h-.5s-.02-2.64 0-2.6c0-.9-.4-1.3-1.1-1.3c-.9 0-1.4.8-1.4 1.8c.02-.04 0 2.1 0 2.1h-.5zm4.7-2.1c0-1.4.8-2.3 2-2.3c.5 0 1.2.3 1.4.8V53h.6v6h-.6v-.7c-.2.5-.9.8-1.4.8c-1.2 0-2-.9-2-2.2zm2 1.7c1 0 1.4-.8 1.4-1.7c0-1-.4-1.8-1.4-1.8c-.9 0-1.4.8-1.4 1.8c0 .9.5 1.7 1.4 1.7zm4.8-1.7c0-1.4.9-2.3 2-2.3c1.1 0 2 .9 2 2.3c0 1.3-.9 2.2-2 2.2c-1.1 0-2-.9-2-2.2zm2 1.7c.8 0 1.4-.6 1.4-1.7c0-1.2-.6-1.8-1.4-1.8c-.8 0-1.4.6-1.4 1.8c0 1.1.6 1.7 1.4 1.7zm3.2 2.1v-6h.6s-.03.69 0 .7c.2-.5.9-.8 1.4-.8c1.1 0 1.9.9 1.9 2.3c0 1.3-.8 2.2-1.9 2.2c-.5 0-1.2-.3-1.4-.8c-.03.03 0 2.4 0 2.4h-.6zm2-2.1c.9 0 1.4-.8 1.4-1.7c0-1-.5-1.8-1.4-1.8c-1 0-1.4.8-1.4 1.8c0 .9.4 1.7 1.4 1.7zm2.9-1.8c0-1.5 1-2.2 2-2.2c1 0 1.7.8 1.7 2c.02-.05 0 .3 0 .3h-3.1c0 1.2.7 1.7 1.4 1.7c.6 0 1-.2 1.2-.8h.5c-.2.8-.8 1.3-1.7 1.3c-1.1 0-2-.8-2-2.3zm3.2-.4c-.1-.7-.5-1.3-1.2-1.3h-.1c-.5 0-1.2.3-1.3 1.3h2.6zm1.8 2.6v-4.3h.5v1c.2-.7.7-1 1.3-1c.03-.05.4 0 .4 0v.5s-.33-.03-.3 0c-.9 0-1.4.6-1.4 1.7c.03.02 0 2.1 0 2.1h-.5zm2.9-1.2c0-.9.9-1.2 1.5-1.3c.02.03 1.4-.1 1.4-.1v-.1c0-.8-.4-1.2-1.1-1.2c-.6 0-1.1.3-1.1.8h-.6c.1-.8.8-1.3 1.7-1.3c1.1 0 1.6.8 1.6 1.7v1.8c0 .2 0 .6.1.9h-.5c-.1-.2-.1-.4-.1-.7c-.1.4-.7.8-1.5.8c-.8 0-1.4-.5-1.4-1.3zm1.5.8c.6 0 1.4-.5 1.4-1.1v-.6s-1.27.07-1.3.1c-.6 0-1 .3-1 .8c0 .5.4.8.9.8zm4.6.4c-.6 0-.8-.2-.8-.8c-.03.04 0-3 0-3h-1v-.5h1v-1.4h.5v1.4h1.1v.5h-1.1s.03 3 0 3c0 .3.1.3.4.3c-.02.04.8 0 .8 0v.5s-.91.02-.9 0zm1.6-2.2c0-1.5.9-2.2 1.9-2.2c1.1 0 1.7.8 1.7 2c.05-.05 0 .3 0 .3h-3.1c0 1.2.7 1.7 1.4 1.7c.6 0 1-.2 1.2-.8h.5c-.2.8-.8 1.3-1.7 1.3c-1.1 0-1.9-.8-1.9-2.3zm3.1-.4c0-.7-.5-1.3-1.2-1.3h-.1c-.5 0-1.1.3-1.3 1.3h2.6zm1.6.5c0-1.4.8-2.3 1.9-2.3c.5 0 1.2.3 1.4.8c.03-.01 0-2.4 0-2.4h.6v6h-.6s.03-.67 0-.7c-.2.5-.9.8-1.4.8c-1.1 0-1.9-.9-1.9-2.2zm1.9 1.7c1 0 1.4-.8 1.4-1.7c0-1-.4-1.8-1.4-1.8c-.9 0-1.4.8-1.4 1.8c0 .9.5 1.7 1.4 1.7zm5.7-.3c-.04.03 0 .7 0 .7h-.6v-6h.6s-.04 2.39 0 2.4c.2-.5.8-.8 1.4-.8c1.1 0 1.9.9 1.9 2.3c0 1.3-.8 2.2-1.9 2.2c-.6 0-1.2-.3-1.4-.8zm1.4.3c.9 0 1.4-.8 1.4-1.7c0-1-.5-1.8-1.4-1.8h-.1c-.9 0-1.3.8-1.3 1.8c0 .9.4 1.7 1.3 1.7h.1zm6.7-3.9l-1.8 4.2s.02.79 0 .8c0 .5-.2.7-.8.7c0 .04-1.3 0-1.3 0v-.4s1.21-.03 1.2 0c.3 0 .4-.1.4-.4c-.04.02 0-.7 0-.7l-1.9-4.2h.6l1.5 3.5l1.5-3.5h.6zm8-1.7h1v6h-.6v-5.5L73.8 59h-.9l-2.1-5.6v5.6h-.6v-6h1l2.1 5.6l2.2-5.6zm2.3 3.8c0-1.5 1-2.2 2-2.2c1 0 1.7.8 1.7 2v.3h-3.1c0 1.2.6 1.7 1.4 1.7c.6 0 1-.2 1.1-.8h.6c-.2.8-.9 1.3-1.7 1.3c-1.1 0-2-.8-2-2.3zm3.1-.4c0-.7-.4-1.3-1.1-1.3h-.1c-.5 0-1.2.3-1.3 1.3h2.5zm1.9 2.6v-4.3h.5s-.02.98 0 1c.2-.7.7-1 1.3-1c.02-.05.4 0 .4 0v.5s-.34-.03-.3 0c-.9 0-1.4.6-1.4 1.7c.02.02 0 2.1 0 2.1h-.5zm3.1-5.1v-.7h.7v.7h-.7zM86 59v-4.3h.5v4.3h-.5zm3.3 0c-.5 0-.8-.2-.8-.8v-3h-1v-.5h1v-1.4h.6v1.4h1v.5h-1s-.05 3 0 3c0 .3 0 .3.3.3c0 .04.9 0 .9 0v.5s-.99.02-1 0zm1.6-2.1c0-1.4.8-2.3 2-2.3c1.1 0 1.9.9 1.9 2.3c0 1.3-.8 2.2-1.9 2.2c-1.2 0-2-.9-2-2.2zm2 1.7c.8 0 1.4-.6 1.4-1.7c0-1.2-.6-1.8-1.4-1.8h-.1c-.8 0-1.4.6-1.4 1.8c0 1.1.6 1.7 1.4 1.7h.1zm3.2.4v-4.3h.5s.02.72 0 .7c.3-.5.8-.8 1.5-.8c.9 0 1.5.6 1.5 1.6c.05-.01 0 2.8 0 2.8h-.5v-2.6c0-.9-.4-1.3-1.1-1.3c-.9 0-1.4.8-1.4 1.8c.02-.04 0 2.1 0 2.1h-.5z" stroke="none" fill="#192d39"/></g><g id="Polygon15794"><path d="m19.3 45.3c0-1.3.9-2.3 2-2.3c1.1 0 2 1 2 2.3c0 1.3-.9 2.2-2 2.2c-1.1 0-2-.9-2-2.2zm2 1.8c.8 0 1.4-.7 1.4-1.8c0-1.1-.6-1.8-1.4-1.8h-.1c-.7 0-1.3.7-1.3 1.8c0 1.1.6 1.8 1.3 1.8h.1zm8.3-4h.5l-1.4 4.4h-.7l-1-3.8l-1 3.8h-.7l-1.4-4.4h.6l1.2 3.9l1-3.9h.7l1 3.9l1.2-3.9zm1.5 4.4v-4.4h.6v.8c.2-.5.8-.9 1.5-.9c.9 0 1.5.6 1.5 1.6c.02.03 0 2.9 0 2.9h-.5s-.04-2.7 0-2.7c0-.9-.4-1.3-1.1-1.3c-1 0-1.4.9-1.4 1.8c-.01-.01 0 2.2 0 2.2h-.6zm4.8-2.2c0-1.5.9-2.3 1.9-2.3c1.1 0 1.8.9 1.8 2v.3s-3.12.04-3.1 0c0 1.3.6 1.8 1.3 1.8h.1c.6 0 1-.3 1.1-.9h.6c-.2.9-.9 1.3-1.8 1.3c-1 0-1.9-.7-1.9-2.2zm3.1-.4c0-.8-.4-1.4-1.1-1.4h-.1c-.6 0-1.2.3-1.3 1.4h2.5zm1.6.4c0-1.4.8-2.3 1.9-2.3c.6 0 1.2.3 1.5.8c-.03.02 0-2.4 0-2.4h.5v6.1h-.5s-.03-.73 0-.7c-.3.4-.9.7-1.5.7c-1.1 0-1.9-.8-1.9-2.2zm2 1.8c.9 0 1.4-.9 1.4-1.8c0-.9-.5-1.8-1.4-1.8h-.1c-.9 0-1.3.9-1.3 1.8c0 .9.4 1.8 1.3 1.8h.1zm3.1 1.4v-.4h.2c.4 0 .5-.2.5-.5c.04-.01 0-.1 0-.1h-.4v-.9h.8s.03 1.03 0 1c0 .5-.3.9-.8.9c.01-.05-.3 0-.3 0zm4.2-1v-4.4h.5s.02.72 0 .7c.3-.4.8-.8 1.4-.8c.7 0 1.2.4 1.4 1c.3-.6.8-1 1.5-1c.9 0 1.5.6 1.5 1.6v2.9h-.6s.05-2.7 0-2.7c0-.9-.3-1.3-.9-1.3h-.1c-.9 0-1.3.9-1.3 1.8c.01-.01 0 2.2 0 2.2h-.5s-.05-2.7 0-2.7c0-.9-.4-1.3-1-1.3h-.1c-.9 0-1.3.9-1.3 1.8c.02-.01 0 2.2 0 2.2h-.5zm7.5-1.2c0-1 .8-1.3 1.5-1.3c-.01-.03 1.4-.1 1.4-.1c0 0-.04-.21 0-.2c0-.8-.5-1.2-1.1-1.2h-.1c-.5 0-1 .3-1 .8h-.6c0-.7.7-1.3 1.7-1.3c1.1 0 1.6.8 1.6 1.7v1.8c0 .3 0 .7.1 1h-.6v-.7c-.2.4-.8.7-1.5.7c-.8 0-1.4-.5-1.4-1.2zm1.5.8c.6 0 1.4-.6 1.4-1.2c-.04 0 0-.6 0-.6l-1.3.1c-.6.1-1 .4-1 .8c0 .5.3.9.8.9h.1zm3.3.4v-4.4h.6v.8c.3-.5.8-.9 1.5-.9c.9 0 1.5.6 1.5 1.6c.03.03 0 2.9 0 2.9h-.5s-.03-2.7 0-2.7c0-.9-.4-1.3-1.1-1.3c-1 0-1.4.9-1.4 1.8v2.2h-.6zm4.8-1.2c0-1 .8-1.3 1.5-1.3c0-.03 1.4-.1 1.4-.1c0 0-.03-.21 0-.2c0-.8-.4-1.2-1.1-1.2h-.1c-.5 0-1 .3-1 .8h-.6c.1-.7.7-1.3 1.7-1.3c1.1 0 1.6.8 1.6 1.7v1.8c0 .3 0 .7.1 1h-.5c-.1-.2-.1-.5-.1-.7c-.2.4-.8.7-1.5.7c-.8 0-1.4-.5-1.4-1.2zm1.5.8c.6 0 1.4-.6 1.4-1.2c-.03 0 0-.6 0-.6c0 0-1.28.11-1.3.1c-.6.1-1 .4-1 .8c0 .5.4.9.8.9h.1zm3 1h.6c.1.5.6.8 1.3.8h.1c.7 0 1.4-.4 1.4-1.5v-.7c-.3.5-.7.8-1.4.8c-1.1 0-1.9-.8-1.9-2.2c0-1.4.8-2.3 1.9-2.3c.7 0 1.1.3 1.4.8v-.7h.6s-.04 4.32 0 4.3c0 1.1-.8 2-2 2c-1.3 0-1.9-.6-2-1.3zm2.1-1.1c.7 0 1.3-.6 1.3-1.7c0-1.1-.6-1.8-1.3-1.8h-.1c-.8 0-1.3.7-1.3 1.8c0 1.1.5 1.7 1.3 1.7h.1zm3.1-1.7c0-1.5.9-2.3 1.9-2.3c1.1 0 1.8.9 1.8 2c-.03-.01 0 .3 0 .3c0 0-3.15.04-3.1 0c0 1.3.6 1.8 1.3 1.8h.1c.6 0 .9-.3 1.1-.9h.6c-.2.9-.9 1.3-1.8 1.3c-1.1 0-1.9-.7-1.9-2.2zm3.1-.4c0-.8-.5-1.4-1.1-1.4h-.1c-.6 0-1.2.3-1.3 1.4h2.5zm1.6.4c0-1.4.8-2.3 1.9-2.3c.6 0 1.2.3 1.4.8c.05.02 0-2.4 0-2.4h.6v6.1h-.6s.05-.73 0-.7c-.2.4-.8.7-1.4.7c-1.1 0-1.9-.8-1.9-2.2zm2 1.8c.9 0 1.3-.9 1.3-1.8c0-.9-.4-1.8-1.3-1.8h-.1c-.9 0-1.4.9-1.4 1.8c0 .9.5 1.8 1.4 1.8h.1z" stroke="none" fill="#192d39"/></g><g id="Polygon15793"><path d="m14.9 34.3h.6c.1.7.7 1.1 1.4 1.1h.1c.9 0 1.4-.6 1.4-1.4c0-.8-.5-1.3-1.3-1.3h-.1c-.4 0-1 .2-1.3.7c.05-.04-.5 0-.5 0l.7-3.6h3.1v.6h-2.6l-.5 2.2c.3-.3.8-.5 1.3-.5c1.1 0 1.8.8 1.8 1.8c0 1.2-.9 2.1-2 2.1c-1.1 0-2-.6-2.1-1.7zm5 2.6v-.4s.3.04.3 0c.3 0 .5-.1.5-.5c.02.03 0-.1 0-.1h-.5v-.9h.9s.01 1.07 0 1.1c0 .5-.3.8-.8.8h-.4zm2.3-4c0-2.1.9-3.1 2.3-3.1c1.5 0 2.3 1 2.3 3.1c0 2-.8 3.1-2.3 3.1c-1.4 0-2.3-1.1-2.3-3.1zm2.4 2.5c.7 0 1.6-.5 1.6-2.5c0-2-.9-2.6-1.6-2.6h-.1c-.7 0-1.7.6-1.7 2.6c0 2 1 2.5 1.7 2.5h.1zm3.4-2.5c0-2.1.8-3.1 2.3-3.1c1.4 0 2.3 1 2.3 3.1c0 2-.9 3.1-2.3 3.1c-1.5 0-2.3-1.1-2.3-3.1zm2.3 2.5c.8 0 1.7-.5 1.7-2.5c0-2-.9-2.6-1.7-2.6h-.1c-.7 0-1.6.6-1.6 2.6c0 2 .9 2.5 1.6 2.5h.1zm3.5-2.5c0-2.1.8-3.1 2.2-3.1c1.5 0 2.3 1 2.3 3.1c0 2-.8 3.1-2.3 3.1c-1.4 0-2.2-1.1-2.2-3.1zm2.3 2.5c.7 0 1.6-.5 1.6-2.5c0-2-.9-2.6-1.6-2.6h-.1c-.7 0-1.7.6-1.7 2.6c0 2 1 2.5 1.7 2.5h.1zm5.1.4v-1.9h-1.8v-.5h1.8v-1.8h.6v1.8h1.9v.5h-1.9v1.9h-.6zm5.3.1v-6.1h.5s.03 2.51 0 2.5c.3-.5.9-.8 1.6-.8c1 0 1.5.6 1.5 1.5c-.04.04 0 2.9 0 2.9h-.6v-2.7c0-.8-.3-1.2-1-1.2h-.1c-.7 0-1.4.6-1.4 1.6c.03-.04 0 2.3 0 2.3h-.5zm4.7-2.2c0-1.3.9-2.2 2-2.2c1.1 0 2 .9 2 2.2c0 1.4-.9 2.3-2 2.3c-1.1 0-2-.9-2-2.3zm2.1 1.8c.7 0 1.3-.7 1.3-1.8c0-1.1-.6-1.7-1.3-1.7h-.1c-.8 0-1.4.6-1.4 1.7c0 1.1.6 1.8 1.4 1.8h.1zm4.3.4c-.5 0-.8-.2-.8-.8V32h-1v-.4h1v-1.4h.6v1.4h1v.4h-1s-.04 3.07 0 3.1c0 .2 0 .3.3.3c.01.02.9 0 .9 0v.5h-1zm1.6-2.2c0-1.5.9-2.2 1.9-2.2c1.1 0 1.8.8 1.8 1.9c-.02.03 0 .4 0 .4c0 0-3.13-.02-3.1 0c0 1.2.6 1.7 1.3 1.7h.1c.6 0 .9-.3 1.1-.8h.6c-.2.8-.9 1.3-1.8 1.3c-1 0-1.9-.8-1.9-2.3zm3.1-.4c0-.8-.4-1.3-1.1-1.3h-.1c-.6 0-1.2.3-1.3 1.3h2.5zm1.8 2.6v-6.1h.6v6.1h-.6zm3.4-1.3h.5c.1.6.6.9 1.1.9h.1c.6 0 1-.3 1-.8c0-.3-.2-.5-.7-.6l-.7-.2c-.6-.1-1.2-.4-1.2-1.1c0-.9.8-1.3 1.6-1.3c1.1 0 1.6.7 1.6 1.4h-.5c-.1-.5-.5-.9-1.1-.9h-.1c-.6 0-.9.3-.9.7c0 .4.2.6.8.7l.7.1c.6.2 1.1.5 1.1 1.2c0 .8-.7 1.3-1.6 1.3c-1.1 0-1.7-.6-1.7-1.4zm4.5-.2v-2.8h.6s-.04 2.65 0 2.7c0 .8.3 1.2 1 1.2h.1c.6 0 1.2-.6 1.2-1.6c.04.01 0-2.3 0-2.3h.6v4.3h-.6s.04-.82 0-.8c-.2.6-.7.9-1.4.9c-1 0-1.5-.7-1.5-1.6zm4.9-3.6v-.7h.7v.7h-.7zm.1 5.1v-4.3h.5v4.3h-.5zm3.3 0c-.6 0-.8-.2-.8-.8c-.03.02 0-3.1 0-3.1h-1v-.4h1v-1.4h.5v1.4h1.1v.4H80s.03 3.07 0 3.1c0 .2.1.3.4.3c-.02.02.8 0 .8 0v.5h-.9zm1.6-2.2c0-1.5.9-2.2 1.9-2.2c1.1 0 1.7.8 1.7 1.9c.05.03 0 .4 0 .4c0 0-3.07-.02-3.1 0c.1 1.2.7 1.7 1.4 1.7c.6 0 1-.3 1.2-.8h.5c-.2.8-.8 1.3-1.7 1.3c-1.1 0-1.9-.8-1.9-2.3zm3.1-.4c0-.8-.5-1.3-1.2-1.3h-.1c-.5 0-1.1.3-1.2 1.3h2.5zm1.5 1.3h.6c0 .6.5.9 1.1.9h.1c.6 0 .9-.3.9-.8c0-.3-.1-.5-.7-.6l-.7-.2c-.6-.1-1.1-.4-1.1-1.1c0-.9.7-1.3 1.5-1.3c1.1 0 1.6.7 1.6 1.4h-.5c-.1-.5-.4-.9-1-.9h-.1c-.6 0-1 .3-1 .7c0 .4.3.6.8.7l.7.1c.6.2 1.1.5 1.1 1.2c0 .8-.6 1.3-1.6 1.3c-1.1 0-1.7-.6-1.7-1.4z" stroke="none" fill="#192d39"/></g><g id="Polygon15792"><path d="m9.8 24.3V20h.5s.05 1 0 1c.2-.7.8-1 1.4-1c-.01-.03.4 0 .4 0v.5h-.4c-.8 0-1.3.6-1.3 1.7v2.1h-.6zm2.9-2.1c0-1.5.9-2.3 1.9-2.3c1.1 0 1.8.9 1.8 2c-.02-.03 0 .3 0 .3c0 0-3.14.02-3.1 0c0 1.2.6 1.7 1.3 1.7h.1c.6 0 .9-.2 1.1-.8h.6c-.2.9-.9 1.3-1.8 1.3c-1.1 0-1.9-.8-1.9-2.2zm3.1-.5c0-.7-.5-1.3-1.1-1.3h-.1c-.6 0-1.2.3-1.3 1.3h2.5zm1.8 2.6V20h.6s-.02.74 0 .7c.2-.4.8-.8 1.5-.8c.9 0 1.5.6 1.5 1.6v2.8h-.5s-.05-2.62 0-2.6c0-.9-.4-1.3-1.1-1.3c-1 0-1.4.8-1.4 1.8c-.02-.03 0 2.1 0 2.1h-.6zm6.3 0c-.6 0-.8-.2-.8-.7c-.05-.04 0-3.1 0-3.1h-1v-.5h1v-1.4h.5v1.4h1.1v.5h-1.1s.02 3.01 0 3c0 .3.1.4.4.4c-.04-.04.8 0 .8 0v.4s-.93.03-.9 0zm1.7-1.2c0-.9.8-1.2 1.5-1.3c0 .04 1.4-.1 1.4-.1c0 0-.03-.13 0-.1c0-.8-.4-1.2-1.1-1.2h-.1c-.5 0-1 .3-1 .8h-.6c.1-.7.7-1.3 1.7-1.3c1.1 0 1.6.8 1.6 1.7v1.8c0 .2 0 .6.1.9h-.5c-.1-.2-.1-.4-.1-.7c-.2.4-.8.8-1.5.8c-.8 0-1.4-.5-1.4-1.3zm1.5.8c.6 0 1.4-.5 1.4-1.1c-.03-.02 0-.6 0-.6c0 0-1.29.08-1.3.1c-.6 0-1 .3-1 .8c0 .5.3.8.8.8h.1zm3.4.4v-6h.5v6h-.5zm3.4-1.2c0-.9.8-1.2 1.5-1.3c-.03.04 1.3-.1 1.3-.1c0 0 .03-.13 0-.1c0-.8-.4-1.2-1-1.2h-.1c-.5 0-1 .3-1.1.8h-.5c0-.7.7-1.3 1.6-1.3c1.2 0 1.7.8 1.7 1.7v2.7h-.5v-.7c-.2.4-.8.8-1.6.8c-.7 0-1.3-.5-1.3-1.3zm1.5.8c.6 0 1.3-.5 1.3-1.1c.03-.02 0-.6 0-.6c0 0-1.22.08-1.2.1c-.6 0-1.1.3-1.1.8c0 .5.4.8.9.8h.1zm3.3 2.2V20h.6s-.02.7 0 .7c.2-.5.9-.8 1.4-.8c1.1 0 2 .9 2 2.3c0 1.4-.9 2.2-2 2.2c-.5 0-1.2-.3-1.4-.8c-.02.04 0 2.5 0 2.5h-.6zm2-2.2c.9 0 1.4-.8 1.4-1.7c0-1-.5-1.8-1.4-1.8c-1 0-1.4.8-1.4 1.8c0 .9.4 1.7 1.4 1.7zm2.9-.8c0-.9.8-1.2 1.5-1.3c.01.04 1.4-.1 1.4-.1c0 0-.02-.13 0-.1c0-.8-.4-1.2-1.1-1.2c-.6 0-1.1.3-1.1.8h-.6c.1-.7.7-1.3 1.7-1.3c1.1 0 1.6.8 1.6 1.7v1.8c0 .2 0 .6.1.9h-.5c-.1-.2-.1-.4-.1-.7c-.2.4-.7.8-1.5.8c-.8 0-1.4-.5-1.4-1.3zm1.5.8c.6 0 1.4-.5 1.4-1.1c-.02-.02 0-.6 0-.6c0 0-1.27.08-1.3.1c-.6 0-1 .3-1 .8c0 .5.4.8.9.8zm3.4.4V20h.5s-.02 1 0 1c.2-.7.7-1 1.3-1c.02-.03.4 0 .4 0v.5h-.3c-.9 0-1.4.6-1.4 1.7c.03.03 0 2.1 0 2.1h-.5zm4.7 0c-.6 0-.8-.2-.8-.7v-3.1h-1v-.5h1v-1.4h.5v1.4h1.1v.5h-1.1s.05 3.01 0 3c0 .3.1.4.4.4c-.01-.04.9 0 .9 0v.4s-.99.03-1 0zm1.9 0V20h.6v.7c.3-.4.8-.8 1.4-.8c.7 0 1.2.3 1.4.9c.3-.6.8-.9 1.5-.9c.9 0 1.5.6 1.5 1.6v2.8h-.6s.04-2.62 0-2.6c0-.9-.3-1.3-1-1.3c-.9 0-1.3.8-1.3 1.8v2.1h-.6s.04-2.62 0-2.6c0-.9-.3-1.3-1-1.3c-.9 0-1.3.8-1.3 1.8v2.1h-.6zm7.6-2.1c0-1.5.9-2.3 1.9-2.3c1.1 0 1.8.9 1.8 2c-.02-.03 0 .3 0 .3c0 0-3.13.02-3.1 0c0 1.2.6 1.7 1.3 1.7h.1c.6 0 .9-.2 1.1-.8h.6c-.2.9-.9 1.3-1.8 1.3c-1 0-1.9-.8-1.9-2.2zm3.1-.5c0-.7-.4-1.3-1.1-1.3h-.1c-.6 0-1.2.3-1.3 1.3h2.5zm1.8 2.6V20h.6v.7c.2-.4.8-.8 1.5-.8c.9 0 1.5.6 1.5 1.6c.02.01 0 2.8 0 2.8h-.5s-.05-2.62 0-2.6c0-.9-.4-1.3-1.1-1.3c-1 0-1.4.8-1.4 1.8v2.1h-.6zm6.3 0c-.6 0-.8-.2-.8-.7c-.04-.04 0-3.1 0-3.1h-1v-.5h1v-1.4h.5v1.4h1.1v.5h-1.1s.02 3.01 0 3c0 .3.1.4.4.4c-.03-.04.8 0 .8 0v.4s-.92.03-.9 0zm1.6-1.3h.6c.1.6.5.9 1.1.9h.1c.6 0 1-.3 1-.7c0-.4-.2-.6-.8-.7l-.6-.1c-.6-.2-1.2-.5-1.2-1.2c0-.8.7-1.3 1.6-1.3c1 0 1.5.7 1.6 1.4h-.6c0-.5-.4-.9-1-.9h-.1c-.6 0-.9.4-.9.7c0 .4.2.6.8.7l.6.2c.7.1 1.1.4 1.1 1.1c0 .8-.6 1.3-1.5 1.3c-1.2 0-1.7-.6-1.8-1.4zm6 .1c0-.9.8-1.2 1.5-1.3c-.03.04 1.3-.1 1.3-.1c0 0 .04-.13 0-.1c0-.8-.4-1.2-1-1.2h-.1c-.5 0-1 .3-1.1.8h-.5c0-.7.7-1.3 1.6-1.3c1.2 0 1.7.8 1.7 1.7v2.7h-.5v-.7c-.2.4-.8.8-1.5.8c-.8 0-1.4-.5-1.4-1.3zm1.5.8c.6 0 1.3-.5 1.3-1.1c.04-.02 0-.6 0-.6c0 0-1.22.08-1.2.1c-.6 0-1.1.3-1.1.8c0 .5.4.8.9.8h.1zm3.3.4V20h.6v.7c.2-.4.8-.8 1.5-.8c.9 0 1.5.6 1.5 1.6v2.8h-.5s-.05-2.62 0-2.6c0-.9-.4-1.3-1.1-1.3c-1 0-1.4.8-1.4 1.8v2.1h-.6zm4.8-2.1c0-1.4.8-2.3 1.9-2.3c.6 0 1.2.3 1.5.8c-.02 0 0-2.4 0-2.4h.5v6h-.5s-.02-.66 0-.7c-.3.5-.9.8-1.5.8c-1.1 0-1.9-.8-1.9-2.2zm2 1.7c.9 0 1.4-.8 1.4-1.7c0-1-.5-1.8-1.4-1.8c-1 0-1.4.8-1.4 1.8c0 .9.4 1.7 1.4 1.7z" stroke="none" fill="#192d39"/></g><g id="Polygon15791"><path d="m19.8 9.7c0-1.9 1.2-3.1 2.8-3.1c1.6 0 2.8 1.2 2.8 3.1c0 2-1.2 3.2-2.8 3.2c-1.6 0-2.8-1.2-2.8-3.2zm2.8 2.6c1.3 0 2.2-1 2.2-2.6c0-1.5-.9-2.5-2.2-2.5h-.1c-1.2 0-2.1 1-2.1 2.5c0 1.6.9 2.6 2.1 2.6h.1zm7-3.8h.6l-1.7 4.3h-.7l-1.6-4.3h.6l1.4 3.8l1.4-3.8zm1.2 2.1c0-1.5.9-2.2 1.9-2.2c1.1 0 1.8.8 1.8 1.9c-.04.01 0 .4 0 .4c0 0-3.15-.05-3.2 0c.1 1.2.7 1.7 1.4 1.7h.1c.5 0 .9-.3 1.1-.9h.6c-.2.9-.9 1.4-1.8 1.4c-1.1 0-1.9-.8-1.9-2.3zm3.1-.4c0-.8-.5-1.4-1.1-1.4h-.1c-.6 0-1.2.3-1.3 1.4h2.5zm1.8 2.6V8.5h.5s.03.93 0 .9c.2-.7.8-1 1.4-1h.4v.5s-.39.02-.4 0c-.8 0-1.3.7-1.3 1.8c-.03-.03 0 2.1 0 2.1h-.6zm5.7.2l-.1-.3c2.2-.3 4.1-1.8 4.7-4.4c-.5.7-1.4 1.1-2.3 1.1c-1.9 0-3.1-1.4-3.1-3.1c0-2.1 1.9-3.2 3.5-3.2c1.8 0 3.1 1.4 3.1 3.7c0 3.2-2.7 5.9-5.8 6.2zm4.8-6.5c0-1.7-.7-3-2.2-3c-1.4 0-2.3 1.2-2.3 2.7c0 1.4.7 2.8 2.1 2.8c1.4 0 2.4-1.1 2.4-2.5zm1.9 7.6l-.1-.3c.9-.5.9-1 .5-1c-.4-.1-.6-.4-.6-.6c0-.4.3-.7.7-.6c.4 0 .7.4.7.9c0 .6-.5 1.2-1.2 1.6zm9.4-5.7c0-2.9-1.6-4.9-3.5-4.9c-1.9 0-2.8 1.9-2.8 4c0 2.9 1.6 4.8 3.5 4.8c1.7 0 2.8-1.8 2.8-3.9zm.9-.5c0 2.7-1.5 4.9-4.1 4.9c-2.4 0-4-2.2-4-4.9c0-2.7 1.7-4.8 4.1-4.8c2.4 0 4 2.1 4 4.8zm8.3.5c0-2.9-1.6-4.9-3.5-4.9c-1.9 0-2.7 1.9-2.7 4c0 2.9 1.5 4.8 3.5 4.8c1.7 0 2.7-1.8 2.7-3.9zm.9-.5c0 2.7-1.5 4.9-4 4.9c-2.5 0-4.1-2.2-4.1-4.9c0-2.7 1.7-4.8 4.1-4.8c2.4 0 4 2.1 4 4.8zm8.3.5c0-2.9-1.5-4.9-3.5-4.9c-1.9 0-2.7 1.9-2.7 4c0 2.9 1.5 4.8 3.5 4.8c1.7 0 2.7-1.8 2.7-3.9zm1-.5c0 2.7-1.6 4.9-4.1 4.9c-2.4 0-4-2.2-4-4.9c0-2.7 1.6-4.8 4-4.8c2.5 0 4.1 2.1 4.1 4.8zm4.2.2h-3v-.3h3V4.7h.4v3.1h3.1v.3h-3.1v3.1h-.4V8.1z" stroke="none" fill="#192d39"/></g></svg>