<?xml version="1.0" standalone="no"?><!DOCTYPE svg PUBLIC "-//W3C//DTD SVG 1.1//EN" "http://www.w3.org/Graphics/SVG/1.1/DTD/svg11.dtd"><svg xmlns="http://www.w3.org/2000/svg" version="1.1" width="191px" height="45.4px" viewBox="0 -3 191 45.4" style="top:-3px"><desc>Macquarie University ranked in the top 1% of world universities.</desc><defs/><g id="Polygon22107"><path d="m2.5 23.7c-.7 0-1.1-.2-1.1-1c.03.04 0-3.9 0-3.9H.2v-.6h1.2v-1.8h.7v1.8h1.4v.6H2.1s.04 3.89 0 3.9c0 .3.2.4.5.4c-.02.03 1.1 0 1.1 0v.6s-1.23.03-1.2 0zm2.3 0V16h.7s.04 3.16 0 3.2c.4-.7 1.1-1.1 2-1.1c1.2 0 1.9.8 1.9 2c-.01 0 0 3.6 0 3.6h-.7s-.03-3.38 0-3.4c0-1-.5-1.6-1.3-1.6h-.2c-.8 0-1.7.8-1.7 2.1c.04-.04 0 2.9 0 2.9h-.7zm6-2.7c0-2 1.2-2.9 2.4-2.9c1.4 0 2.3 1.1 2.3 2.5c-.04 0 0 .4 0 .4c0 0-4 .03-4 0c0 1.6.8 2.2 1.7 2.2h.1c.7 0 1.2-.3 1.4-1h.7c-.2 1.1-1 1.6-2.2 1.6c-1.3 0-2.4-.9-2.4-2.8zm3.9-.6c0-.9-.5-1.7-1.4-1.7h-.1c-.7 0-1.5.4-1.7 1.7h3.2zm6 3.3c-.7 0-1-.2-1-1c-.05.04 0-3.9 0-3.9h-1.3v-.6h1.3v-1.8h.7v1.8h1.3v.6h-1.3s-.03 3.89 0 3.9c0 .3.1.4.4.4c.01.03 1.1 0 1.1 0v.6s-1.2.03-1.2 0zm1.8-2.7c0-1.7 1.2-2.9 2.6-2.9c1.4 0 2.5 1.2 2.5 2.9c0 1.7-1.1 2.8-2.5 2.8c-1.4 0-2.6-1.1-2.6-2.8zm2.6 2.2c1 0 1.8-.8 1.8-2.2c0-1.4-.8-2.3-1.8-2.3h-.1c-1 0-1.7.9-1.7 2.3c0 1.4.7 2.2 1.7 2.2h.1zm3.9 2.7v-7.7h.7s.04.91 0 .9c.4-.6 1.2-1 1.9-1c1.4 0 2.4 1.1 2.4 2.9c0 1.7-1 2.8-2.4 2.8c-.7 0-1.5-.3-1.9-.9c.04-.05 0 3 0 3h-.7zm2.6-2.7c1.1 0 1.7-1 1.7-2.2c0-1.2-.6-2.3-1.7-2.3h-.1c-1.2 0-1.8 1.1-1.8 2.3c0 1.2.6 2.2 1.8 2.2h.1zm7.5-7.2h.6v7.7h-.7v-6.6l-1.9 1.8v-.9l2-2zm2 2.2c0-1.3.6-2.2 1.8-2.2c1.1 0 1.7.9 1.7 2.2c0 1.4-.6 2.2-1.7 2.2c-1.2 0-1.8-.8-1.8-2.2zm1.9 5.5l4.6-7.7h.7l-4.6 7.7h-.7zm-.1-3.8c.7 0 1.1-.9 1.1-1.7c0-.8-.4-1.7-1.1-1.7h-.1c-.7 0-1.1.9-1.1 1.7c0 .8.4 1.7 1.1 1.7h.1zm3.8 1.7c0-1.4.6-2.3 1.8-2.3c1.1 0 1.7.9 1.7 2.3c0 1.3-.6 2.2-1.7 2.2c-1.2 0-1.8-.9-1.8-2.2zm1.8 1.6c.7 0 1.1-.8 1.1-1.6c0-.9-.4-1.7-1.1-1.7h-.1c-.7 0-1.1.8-1.1 1.7c0 .8.4 1.6 1.1 1.6h.1zm4.9-2.2c0-1.7 1.1-2.9 2.5-2.9c1.4 0 2.5 1.2 2.5 2.9c0 1.7-1.1 2.8-2.5 2.8c-1.4 0-2.5-1.1-2.5-2.8zm2.6 2.2c.9 0 1.7-.8 1.7-2.2c0-1.4-.8-2.3-1.7-2.3h-.2c-.9 0-1.7.9-1.7 2.3c0 1.4.8 2.2 1.7 2.2h.2zm4.4.5v-4.9h-1.3v-.6h1.3s-.04-1.18 0-1.2c0-.7.3-1 1-1c0 .03 1.4 0 1.4 0v.6s-1.29.03-1.3 0c-.3 0-.4.1-.4.5c-.03-.03 0 1.1 0 1.1h1.4v.6h-1.4v4.9h-.7zm12-5.5h.7l-1.8 5.5h-.9L69.1 19l-1.2 4.7h-1l-1.7-5.5h.7l1.5 4.9l1.3-4.9h.9l1.3 5l1.5-5zm1.4 2.8c0-1.7 1.1-2.9 2.5-2.9c1.4 0 2.5 1.2 2.5 2.9c0 1.7-1.1 2.8-2.5 2.8c-1.4 0-2.5-1.1-2.5-2.8zm2.6 2.2c1 0 1.7-.8 1.7-2.2c0-1.4-.7-2.3-1.7-2.3h-.2c-.9 0-1.7.9-1.7 2.3c0 1.4.8 2.2 1.7 2.2h.2zm3.9.5v-5.5h.6s.02 1.28 0 1.3c.3-.9 1-1.3 1.7-1.3c.02-.02.5 0 .5 0v.6s-.42.03-.4 0c-1.1 0-1.7.9-1.7 2.3c-.03-.04 0 2.6 0 2.6h-.7zm3.9 0V16h.8v7.7h-.8zm2.2-2.7c0-1.8 1-2.9 2.4-2.9c.8 0 1.6.4 1.9 1V16h.7v7.7h-.7v-.8c-.3.6-1.1.9-1.9.9c-1.4 0-2.4-1.1-2.4-2.8zm2.5 2.2c1.2 0 1.8-1 1.8-2.2c0-1.2-.6-2.3-1.8-2.3c-1.2 0-1.8 1.1-1.8 2.3c0 1.2.6 2.2 1.8 2.2zm6.4-1.3c.01-.04 0-3.7 0-3.7h.7s.02 3.44 0 3.4c0 1.1.5 1.6 1.3 1.6h.2c.8 0 1.5-.7 1.5-2c.05 0 0-3 0-3h.8v5.5h-.8s.05-1 0-1c-.2.7-.9 1.1-1.8 1.1c-1.2 0-1.9-.8-1.9-1.9zm6.2 1.8v-5.5h.7v1c.3-.7 1-1.1 1.9-1.1c1.1 0 2 .7 2 2c-.04.03 0 3.6 0 3.6h-.8s.05-3.35 0-3.3c0-1.1-.4-1.7-1.3-1.7c-1.2 0-1.8 1.1-1.8 2.3v2.7h-.7zm6.2-6.5v-.9h.8v.9h-.8zm0 6.5v-5.5h.8v5.5h-.8zm6.3-5.5h.7l-2.1 5.5h-.9l-2.1-5.5h.7l1.8 4.9l1.9-4.9zm1.3 2.8c0-2 1.2-2.9 2.5-2.9c1.3 0 2.2 1.1 2.2 2.5v.4s-3.96.03-4 0c.1 1.6.9 2.2 1.8 2.2c.8 0 1.3-.3 1.5-1h.7c-.3 1.1-1.1 1.6-2.2 1.6c-1.4 0-2.5-.9-2.5-2.8zm4-.6c-.1-.9-.6-1.7-1.5-1.7h-.1c-.7 0-1.5.4-1.6 1.7h3.2zm2.2 3.3v-5.5h.6s.02 1.28 0 1.3c.3-.9 1-1.3 1.7-1.3c.03-.02.5 0 .5 0v.6s-.42.03-.4 0c-1.1 0-1.7.9-1.7 2.3c-.02-.04 0 2.6 0 2.6h-.7zm3.5-1.6h.7c.1.7.7 1.1 1.5 1.1h.1c.7 0 1.2-.3 1.2-1c0-.4-.2-.6-.9-.8l-.8-.2c-.9-.2-1.5-.5-1.5-1.5c0-1 .9-1.6 1.9-1.6c1.4 0 2 .9 2.1 1.8h-.7c-.1-.6-.6-1.2-1.3-1.2h-.1c-.8 0-1.2.5-1.2 1c0 .5.3.7 1 .9l.8.1c.8.2 1.4.6 1.4 1.5c0 1-.8 1.6-2 1.6c-1.4 0-2.1-.7-2.2-1.7zm5.7-4.9v-.9h.8v.9h-.8zm0 6.5v-5.5h.7v5.5h-.7zm4.1 0c-.7 0-1-.2-1-1v-3.9h-1.3v-.6h1.3v-1.8h.7v1.8h1.4v.6h-1.4s.02 3.89 0 3.9c0 .3.1.4.5.4c-.04.03 1.1 0 1.1 0v.6s-1.25.03-1.3 0zm2.3-6.5v-.9h.9v.9h-.9zm.1 6.5v-5.5h.7v5.5h-.7zm2.1-2.7c0-2 1.2-2.9 2.5-2.9c1.3 0 2.2 1.1 2.2 2.5v.4s-3.95.03-4 0c.1 1.6.9 2.2 1.8 2.2c.8 0 1.3-.3 1.5-1h.7c-.2 1.1-1.1 1.6-2.2 1.6c-1.4 0-2.5-.9-2.5-2.8zm4-.6c0-.9-.6-1.7-1.5-1.7h-.1c-.7 0-1.5.4-1.6 1.7h3.2zm1.8 1.7h.7c.1.7.7 1.1 1.4 1.1h.1c.8 0 1.3-.3 1.3-1c0-.4-.2-.6-1-.8l-.8-.2c-.8-.2-1.5-.5-1.5-1.5c0-1 .9-1.6 2-1.6c1.4 0 2 .9 2.1 1.8h-.8c0-.6-.5-1.2-1.3-1.2h-.1c-.7 0-1.2.5-1.2 1c0 .5.3.7 1 .9l.9.1c.8.2 1.4.6 1.4 1.5c0 1-.8 1.6-2 1.6c-1.4 0-2.1-.7-2.2-1.7zm5.7 1.6v-1.1h1.1v1.1h-1.1z" stroke="none" fill="#192d39"/></g><g id="Polygon22106"><path d="m7.8.9h1.2v7.7h-.7V1.5L5.6 8.6H4.5L1.8 1.5v7.1h-.7V.9h1.3L5.1 8L7.8.9zm2.9 6.2c0-1.2 1-1.6 1.9-1.7l1.7-.1v-.2c0-1-.5-1.5-1.4-1.5c-.7 0-1.3.3-1.4 1h-.7c.1-1 .9-1.6 2.1-1.6c1.4 0 2.1.9 2.1 2.1v2.3c0 .3 0 .8.1 1.2h-.7v-.9c-.3.5-1 1-2 1c-1 0-1.7-.7-1.7-1.6zm1.9 1c.8 0 1.7-.7 1.7-1.5v-.7s-1.59.07-1.6.1c-.8 0-1.3.4-1.3 1c0 .6.5 1.1 1.1 1.1h.1zm3.8-2.3c0-1.6.9-2.8 2.5-2.8c1.2 0 2.1.7 2.2 1.8h-.7c-.2-.7-.7-1.2-1.4-1.2h-.1c-1.2 0-1.8 1-1.8 2.2c0 1.2.6 2.3 1.8 2.3h.1c.7 0 1.2-.6 1.4-1.3h.7c-.2 1.2-1 1.9-2.2 1.9c-1.6 0-2.5-1.3-2.5-2.9zm10 5s.03-3.1 0-3.1c-.3.6-1.1 1-1.8 1c-1.4 0-2.5-1.1-2.5-2.9c0-1.7 1.1-2.8 2.5-2.8c.7 0 1.5.4 1.8 1c.03-.04 0-.9 0-.9h.7v7.7h-.7zm-1.7-2.7c1.2 0 1.7-1.1 1.7-2.3c0-1.2-.5-2.2-1.7-2.2h-.1c-1.2 0-1.7 1-1.7 2.2c0 1.2.5 2.3 1.7 2.3h.1zm4.1-1.4c.04.01 0-3.6 0-3.6h.8s-.04 3.39 0 3.4c0 1 .4 1.6 1.3 1.6h.1c.8 0 1.6-.8 1.6-2.1c-.02.05 0-2.9 0-2.9h.7v5.5h-.7s-.02-1.05 0-1.1c-.3.8-1 1.2-1.9 1.2c-1.2 0-1.9-.8-1.9-2zm5.9.4c0-1.2 1.1-1.6 1.9-1.7c.04.01 1.8-.1 1.8-.1c0 0-.02-.24 0-.2c0-1-.5-1.5-1.4-1.5h-.1c-.7 0-1.2.3-1.3 1h-.7c0-1 .9-1.6 2.1-1.6c1.4 0 2.1.9 2.1 2.1v3.5h-.6c-.1-.3-.1-.6-.1-.9c-.2.5-.9 1-1.9 1c-1 0-1.8-.7-1.8-1.6zm2 1c.7 0 1.7-.7 1.7-1.5c-.02 0 0-.7 0-.7c0 0-1.62.07-1.6.1c-.8 0-1.3.4-1.3 1c0 .6.4 1.1 1.1 1.1h.1zm4.1.5V3.1h.6s.04 1.23 0 1.2c.3-.8 1-1.3 1.7-1.3c.05.03.5 0 .5 0v.7s-.4-.02-.4 0c-1.1 0-1.7.8-1.7 2.2v2.7h-.7zm3.9-6.5v-.9h.8v.9h-.8zm.1 6.5V3.1h.7v5.5h-.7zm2.1-2.8c0-1.9 1.2-2.8 2.5-2.8c1.3 0 2.2 1 2.2 2.4c-.02.05 0 .5 0 .5c0 0-3.98-.02-4 0c0 1.5.8 2.2 1.7 2.2h.1c.8 0 1.2-.4 1.5-1.1h.7c-.3 1.1-1.1 1.7-2.2 1.7c-1.4 0-2.5-1-2.5-2.9zm4-.5c-.1-1-.6-1.7-1.5-1.7h-.1c-.7 0-1.5.4-1.7 1.7h3.3zm4.4.5c.03.03 0-4.9 0-4.9h.8v4.8c0 1.4.7 2.3 2 2.3h.1c1.3 0 2-.9 2-2.3c-.03.02 0-4.8 0-4.8h.7s.04 4.93 0 4.9c0 1.7-.9 2.9-2.8 2.9c-1.9 0-2.8-1.2-2.8-2.9zm7.5 2.8V3.1h.7s-.01.9 0 .9c.3-.6 1-1 1.9-1c1.1 0 1.9.7 1.9 2c.04-.02 0 3.6 0 3.6h-.7s.03-3.4 0-3.4c0-1.1-.4-1.6-1.3-1.6h-.1c-1.1 0-1.7 1-1.7 2.2v2.8h-.7zM69 2.1v-.9h.8v.9h-.8zm0 6.5V3.1h.7v5.5h-.7zm6.2-5.5h.8l-2.1 5.5h-.9l-2.1-5.5h.7l1.8 4.8l1.8-4.8zm1.4 2.7c0-1.9 1.2-2.8 2.5-2.8c1.3 0 2.2 1 2.2 2.4c-.02.05 0 .5 0 .5c0 0-3.98-.02-4 0c0 1.5.8 2.2 1.7 2.2h.1c.8 0 1.2-.4 1.5-1.1h.7c-.3 1.1-1.1 1.7-2.2 1.7c-1.4 0-2.5-1-2.5-2.9zm4-.5c-.1-1-.6-1.7-1.5-1.7h-.1c-.7 0-1.5.4-1.7 1.7h3.3zm2.1 3.3V3.1h.7v1.2c.3-.8 1-1.3 1.7-1.3c.01.03.5 0 .5 0v.7s-.43-.02-.4 0c-1.1 0-1.7.8-1.7 2.2c-.04.01 0 2.7 0 2.7h-.8zm3.6-1.7h.7c.1.8.7 1.2 1.5 1.2h.1c.7 0 1.2-.4 1.2-1c0-.4-.2-.7-1-.9l-.8-.1c-.8-.2-1.5-.6-1.5-1.5c0-1.1 1-1.6 2-1.6c1.4 0 2 .8 2.1 1.7h-.7c-.1-.6-.6-1.1-1.3-1.1h-.1c-.8 0-1.2.4-1.2.9c0 .5.3.7 1 .9l.8.2c.8.2 1.4.5 1.4 1.4c0 1.1-.8 1.7-2 1.7c-1.4 0-2.1-.8-2.2-1.8zM92 2.1v-.9h.8v.9h-.8zm0 6.5V3.1h.7v5.5h-.7zm4.1 0c-.7 0-1-.3-1-1V3.7h-1.3v-.6h1.3V1.3h.7v1.8h1.4v.6h-1.4v3.8c0 .4.1.5.4.5c.04-.02 1.1 0 1.1 0v.6s-1.17-.02-1.2 0zm7.3-5.5l-2.3 5.3s.02 1.04 0 1c0 .7-.3 1-1 1c-.02-.01-1.7 0-1.7 0v-.6h1.6c.3 0 .4-.1.4-.4v-1l-2.3-5.3h.8l1.8 4.4l1.9-4.4h.8zm3.2 5.5V3.1h.7s-.02 1.23 0 1.2c.2-.8.9-1.3 1.7-1.3c-.01.03.5 0 .5 0v.7s-.46-.02-.5 0c-1 0-1.7.8-1.7 2.2c.04.01 0 2.7 0 2.7h-.7zm3.7-1.5c0-1.2 1-1.6 1.9-1.7l1.7-.1v-.2c0-1-.5-1.5-1.4-1.5c-.7 0-1.3.3-1.4 1h-.7c.1-1 .9-1.6 2.1-1.6c1.4 0 2.1.9 2.1 2.1v2.3c0 .3 0 .8.1 1.2h-.7v-.9c-.3.5-1 1-2 1c-1 0-1.7-.7-1.7-1.6zm1.9 1c.8 0 1.7-.7 1.7-1.5v-.7s-1.59.07-1.6.1c-.8 0-1.3.4-1.3 1c0 .6.5 1.1 1.1 1.1h.1zm4.1.5V3.1h.7s.02.9 0 .9c.3-.6 1-1 1.9-1c1.1 0 2 .7 2 2c-.03-.02 0 3.6 0 3.6h-.7s-.04-3.4 0-3.4c0-1.1-.5-1.6-1.4-1.6c-1.2 0-1.8 1-1.8 2.2c.02.03 0 2.8 0 2.8h-.7zm6.3 0V.9h.7v5l2.9-2.8h1l-2.3 2.2l2.4 3.3h-.9l-2-2.8l-1.1 1v1.8h-.7zm5.2-2.8c0-1.9 1.1-2.8 2.4-2.8c1.4 0 2.2 1 2.2 2.4c.03.05 0 .5 0 .5c0 0-3.93-.02-3.9 0c0 1.5.8 2.2 1.7 2.2h.1c.7 0 1.2-.4 1.4-1.1h.7c-.2 1.1-1.1 1.7-2.2 1.7c-1.4 0-2.4-1-2.4-2.9zm3.9-.5c0-1-.6-1.7-1.4-1.7h-.2c-.7 0-1.5.4-1.6 1.7h3.2zm1.9.5c0-1.7 1-2.8 2.4-2.8c.8 0 1.6.4 1.9 1V.9h.7v7.7h-.7s-.01-.9 0-.9c-.3.6-1.1 1-1.9 1c-1.4 0-2.4-1.1-2.4-2.9zm2.5 2.3c1.2 0 1.8-1.1 1.8-2.3c0-1.2-.6-2.2-1.8-2.2c-1.2 0-1.8 1-1.8 2.2c0 1.2.6 2.3 1.8 2.3zm6.4-6v-.9h.8v.9h-.8zm.1 6.5V3.1h.7v5.5h-.7zm2.4 0V3.1h.7s.01.9 0 .9c.3-.6 1-1 1.9-1c1.1 0 2 .7 2 2c-.04-.02 0 3.6 0 3.6h-.8s.05-3.4 0-3.4c0-1.1-.4-1.6-1.3-1.6c-1.2 0-1.8 1-1.8 2.2v2.8h-.7z" stroke="none" fill="#192d39"/></g></svg>