<?xml version="1.0" standalone="no"?><!DOCTYPE svg PUBLIC "-//W3C//DTD SVG 1.1//EN" "http://www.w3.org/Graphics/SVG/1.1/DTD/svg11.dtd"><svg xmlns="http://www.w3.org/2000/svg" version="1.1" width="80.3px" height="15px" viewBox="0 -2 80.3 15" style="top:-2px"><desc>Meriton Trilogy</desc><defs/><g id="Polygon16639"><path d="m5.9.7h1.7v6.3H6.5V1.8L4.8 7H3.6L1.8 1.8v5.2h-1V.7h1.7l1.7 5.2L5.9.7zm3 4.1c0-1.5.9-2.4 2.1-2.4c1.3 0 2 .9 2 2.2v.4H9.9c0 .8.6 1.3 1.1 1.3h.1c.4 0 .8-.3.9-.7h1c-.2.9-.9 1.5-2 1.5c-1.1 0-2.1-.8-2.1-2.3zm3.1-.6c-.1-.6-.5-.9-1-.9h-.1c-.4 0-.9.3-1 .9h2.1zM14.2 7V2.5h1.1s-.04.96 0 1c.1-.7.6-1 1.3-1c-.03-.02.3 0 .3 0v.9s-.41.05-.4 0c-.8 0-1.2.5-1.2 1.3c-.02.01 0 2.3 0 2.3h-1.1zm3.7-5.2V.7h1.1v1.1h-1.1zm0 5.2V2.5h1.1v4.5h-1.1zM22 7c-.7 0-1.1-.4-1.1-1.1c.03.03 0-2.5 0-2.5h-.9v-.9h.9V1.1h1.1v1.4h1v.9h-1s-.04 2.29 0 2.3c0 .3 0 .4.4.4c0 .03.7 0 .7 0v.9s-1.09.02-1.1 0zm1.9-2.2c0-1.4 1-2.4 2.3-2.4c1.3 0 2.2 1 2.2 2.4c0 1.3-.9 2.3-2.2 2.3c-1.3 0-2.3-1-2.3-2.3zm2.3 1.5c.7 0 1.1-.6 1.1-1.5c0-1-.4-1.5-1.1-1.5h-.1c-.6 0-1.1.5-1.1 1.5c0 .9.5 1.5 1.1 1.5h.1zm3.4.7V2.5h1s.03.67 0 .7c.3-.5.8-.8 1.4-.8c1.1 0 1.6.7 1.6 1.7v2.9h-1s-.02-2.76 0-2.8c0-.6-.3-.9-.8-.9h-.1c-.6 0-1.1.5-1.1 1.2c.03.01 0 2.5 0 2.5h-1zm9.6 0V1.3h-2.3v-.6h5.2v.6h-2.2v5.7h-.7zm3.1 0V2.5h.5s.04 1.05 0 1c.2-.7.8-1 1.4-1c.03-.02.4 0 .4 0v.5h-.3c-.9 0-1.4.7-1.4 1.8c-.02.03 0 2.2 0 2.2h-.6zm3.4-5.3v-.8h.7v.8h-.7zm0 5.3V2.5h.6v4.5h-.6zM48 7V.7h.6v6.3h-.6zm2-2.2c0-1.4.9-2.4 2-2.4c1.2 0 2.1 1 2.1 2.4c0 1.4-.9 2.3-2.1 2.3c-1.1 0-2-.9-2-2.3zm2.1 1.8c.8 0 1.4-.7 1.4-1.8c0-1.2-.6-1.9-1.4-1.9h-.1c-.8 0-1.4.7-1.4 1.9c0 1.1.6 1.8 1.4 1.8h.1zm3 1h.6c.1.6.7.9 1.4.9h.1c.8 0 1.5-.4 1.5-1.6v-.7c-.3.5-.8.8-1.5.8c-1.2 0-2-.8-2-2.2c0-1.5.8-2.4 2-2.4c.7 0 1.2.3 1.5.8c-.04.04 0-.7 0-.7h.5s.05 4.48 0 4.5c0 1.2-.7 2-2 2c-1.3 0-2-.6-2.1-1.4zm2.2-1.1c.8 0 1.4-.6 1.4-1.7c0-1.2-.6-1.9-1.4-1.9h-.1c-.8 0-1.4.7-1.4 1.9c0 1.1.6 1.7 1.4 1.7h.1zm7.4-4l-1.8 4.4v.8c0 .6-.3.8-.9.8h-1.3v-.5h1.2c.3 0 .4-.1.4-.3v-.8l-1.9-4.4h.6l1.6 3.7l1.5-3.7h.6z" stroke="none" fill="#192d39"/></g></svg>