<?xml version="1.0" standalone="no"?><!DOCTYPE svg PUBLIC "-//W3C//DTD SVG 1.1//EN" "http://www.w3.org/Graphics/SVG/1.1/DTD/svg11.dtd"><svg xmlns="http://www.w3.org/2000/svg" version="1.1" width="42px" height="13.7px" viewBox="0 -2 42 13.7" style="top:-2px"><desc>by Meriton</desc><defs/><g id="Polygon20992"><path d="m2.7 5.5v.5h-.9V.6h.9v2.1c.2-.3.6-.6 1.1-.6c1.1 0 1.8.8 1.8 2c0 1.1-.7 2-1.7 2c-.6 0-1-.3-1.2-.6zm1-.1c.6 0 1-.5 1-1.3c0-.8-.4-1.3-1-1.3c-.5 0-1 .5-1 1.3c0 .8.5 1.3 1 1.3zm6.4-3.2L8.5 5.8s-.02.78 0 .8c0 .6-.3.9-.9.9H6.2v-.8s1.07.03 1.1 0c.3 0 .3 0 .3-.3c.04-.04 0-.6 0-.6L6 2.2h1l1.1 2.5l1-2.5h1zM16.6.6h1.5v5.4h-.9V1.5L15.7 6h-1l-1.5-4.4v4.4h-.9V.6h1.4L15.2 5L16.6.6zm2.6 3.5c0-1.3.8-2 1.8-2c1.1 0 1.7.8 1.7 1.8v.4h-2.6c0 .7.5 1.1.9 1.1h.1c.4 0 .7-.3.7-.6h.9c-.1.8-.8 1.3-1.7 1.3c-.9 0-1.8-.7-1.8-2zm2.7-.5c-.1-.5-.4-.8-.9-.8c-.4 0-.8.3-.9.8h1.8zM23.8 6V2.2h.8s.03.76 0 .8c.2-.6.6-.9 1.2-.9c-.05.02.2 0 .2 0v.8s-.32.05-.3 0c-.7 0-1 .4-1 1.1c-.05.02 0 2 0 2h-.9zm3-4.4v-1h.9v1h-.9zm0 4.4V2.2h.9v3.8h-.9zm3.4 0c-.6 0-.9-.3-.9-.9c.01-.03 0-2.2 0-2.2h-.8v-.7h.8V.9h.9v1.3h.9v.7h-.9v2c0 .3.1.3.4.3c-.03.04.6 0 .6 0v.8h-1zm1.6-1.9c0-1.2.8-2 1.9-2c1.1 0 1.9.8 1.9 2c0 1.1-.8 2-1.9 2c-1.1 0-1.9-.9-1.9-2zm1.9 1.3c.6 0 1-.5 1-1.3c0-.8-.4-1.3-1-1.3h-.1c-.5 0-.9.5-.9 1.3c0 .8.4 1.3.9 1.3h.1zm2.9.6V2.2h.8s.05.51 0 .5c.3-.4.7-.6 1.2-.6c.9 0 1.4.6 1.4 1.4v2.5h-.9s.02-2.38 0-2.4c0-.5-.2-.8-.7-.8c-.5 0-1 .4-1 1.1c.05-.04 0 2.1 0 2.1h-.8z" stroke="none" fill="#192d39"/></g></svg>