<?xml version="1.0" standalone="no"?><!DOCTYPE svg PUBLIC "-//W3C//DTD SVG 1.1//EN" "http://www.w3.org/Graphics/SVG/1.1/DTD/svg11.dtd"><svg xmlns="http://www.w3.org/2000/svg" version="1.1" width="652px" height="96px" viewBox="0 -3 652 96" style="top:-3px"><desc>Quality apartments built for a lifetime</desc><defs/><g id="Polygon15737"><path d="m120.6 46s7.78-.04 7.8 0c7.2 0 10.5 3 10.5 6.1c0 2.3-1.8 4.5-5.5 5.5c5.5.9 8.3 3.3 8.3 6.5c0 4.1-4.4 6.9-13.3 6.9h-7.8v-25zm2.5 24s5.28.03 5.3 0c5.9 0 10.6-1.8 10.6-5.9c0-4-4.5-5.8-10.2-5.9c.02.04-5.7 0-5.7 0V70zm0-23v10.3s5.28-.03 5.3 0c5.4 0 7.8-2.1 7.8-5.2c0-3.2-2.4-5.1-7.8-5.1c-.02-.02-5.3 0-5.3 0zm25.9-1s.02 15.32 0 15.3c0 5.2 3.4 8.3 8.7 8.3c5.3 0 7.8-3.3 7.8-8.3c.02-.02 0-15.3 0-15.3h1.3v15.3c0 5.8-3.3 9.7-10.2 9.7c-6.9 0-10.1-4-10.1-9.7c-.03-.02 0-15.3 0-15.3h2.5zm26.7 25h-2.5v-25h2.5v25zm6.4-25h2.6v24l13.5-.8l-.3 1.8h-15.8v-25zm38.5 1.8l-10.5-.8v24h-2.5v-24l-10.4.8V46h23.4v1.8zM238.5 71v-25H256l-.3 1.8L241 47v10.8h11.5l-.2 1.8l-11.3-.8V71h-2.5zm45.2-12.5c0 6.9-5.7 12.5-12.6 12.5c-6.9 0-12.6-5.6-12.6-12.5c0-6.9 5.7-12.5 12.6-12.5c6.9 0 12.6 5.6 12.6 12.5zm-3.5-3.8c-2.4-5.9-8.5-9-13.5-6.8c-5 2-7.2 8.5-4.8 14.4c2.5 5.8 8.5 9 13.6 6.9c5-2.2 7.1-8.6 4.7-14.5zm26.9 14.6c1.15 1.48 2.3 1.6 2.3 1.6c0 0-.57.36-1.6.4c-2.1 0-3-.7-4.8-3.1c0 0-4.3-5.4-5.5-6.8c-1-1.3-1.7-1.7-2.5-1.7h-4V71h-2.5v-25s5.94-.04 5.9 0c7.5 0 12.3 2.7 12.3 6.8c0 3.5-3.5 6.1-9.1 6.7c1.5.3 2.4.9 3.1 1.8c1.1 1.3 6.4 8 6.4 8zM291 47v11.7s3.44.02 3.4 0c5.1 0 9.6-1.7 9.6-5.9c0-4.1-4.5-5.8-9.6-5.8c.04-.02-3.4 0-3.4 0zm33.5 24l13.1-25.3l13 25.3h-2.9l-3.5-7h-14.7l-3.6 7h-1.4zm5.7-8.2h13.3l-6.6-12.9l-6.7 12.9zM368.3 46h2.5v24l13.5-.8l-.2 1.8h-15.8v-25zM392 71h-2.5v-25h2.5v25zm6.4 0v-25h17.5l-.2 1.8L401 47v10.8h11.4l-.2 1.8l-11.2-.8V71h-2.6zM438 46v1.8l-14.7-.8v10.8h11.5l-.3 1.8l-11.2-.8V70l14.9-.8l-.2 1.8h-17.3v-25H438zm28.1 1.8l-10.4-.8v24h-2.6v-24l-10.4.8V46h23.4v1.8zm7.4 23.2h-2.6v-25h2.6v25zm34.3-25v25h-2.5v-23l-10.7 17.6l-1.5 2.5l-.7-1.2l-11.3-18.5V71h-1.2v-25h2.8l11.2 18.4L505.1 46h2.7zm23.4 0v1.8l-14.8-.8v10.8h11.5l-.2 1.8l-11.3-.8V70l15-.8l-.2 1.8h-17.3v-25h17.3z" stroke="none" fill="#192d39"/></g><g id="Polygon15736"><path d="m133.7 20.5c0 5.3-3.4 9.9-8.1 11.7l10.4 2.2l-1.4 2.1s-15.5-3.63-15.5-3.6s-.1-.1-.2-.1h-.1c-5.8-1.1-10.3-6.2-10.3-12.3c0-6.9 5.7-12.5 12.6-12.5c6.9 0 12.6 5.6 12.6 12.5zm-3.4-3.8c-2.5-5.9-8.5-9-13.6-6.8c-5 2-7.1 8.5-4.7 14.4c2.4 5.8 8.5 9 13.5 6.9c5-2.2 7.2-8.6 4.8-14.5zM141.1 8s-.05 15.32 0 15.3c0 5.2 3.3 8.3 8.7 8.3c5.2 0 7.8-3.3 7.8-8.3c-.05-.02 0-15.3 0-15.3h1.2s.03 15.28 0 15.3c0 5.8-3.2 9.7-10.2 9.7c-6.8 0-10.1-4-10.1-9.7V8h2.6zm20.2 25l13.1-25.3l13 25.3h-2.9l-3.5-7h-14.7l-3.6 7h-1.4zm5.7-8.2h13.3l-6.6-12.9l-6.7 12.9zM191.7 8h2.5v24l13.5-.8l-.2 1.8h-15.8v-25zm23.7 25h-2.5v-25h2.5v25zm28.3-23.2L233.2 9v24h-2.6v-24l-10.4.8V8h23.5v1.8zM270 8l-10.3 12.2V33h-2.5V20.6L246.5 8h3.4l9.2 11l9.2-11h1.7zm15.8 25l13-25.3l13 25.3H309l-3.6-7h-14.7l-3.5 7h-1.4zm5.6-8.2h13.3l-6.6-12.9l-6.7 12.9zm44-10c0 4.1-4.4 6.9-13.3 6.9h-3.5V33h-2.5v-25s6.01-.04 6 0c8.9 0 13.3 2.7 13.3 6.8zM318.6 9v11.7s3.51.02 3.5 0c6 0 10.6-1.7 10.6-5.9c0-4.1-4.7-5.8-10.6-5.8c.01-.02-3.5 0-3.5 0zm14.6 24l13-25.3l13 25.3h-2.9l-3.5-7h-14.7l-3.5 7h-1.4zm5.6-8.2h13.3l-6.6-12.9l-6.7 12.9zm43.3 6.5c1.17 1.48 2.4 1.6 2.4 1.6c0 0-.66.36-1.7.4c-2 0-3-.7-4.8-3.1c0 0-4.3-5.4-5.5-6.8c-1-1.3-1.7-1.7-2.5-1.7h-4V33h-2.5v-25s5.96-.04 6 0c7.4 0 12.2 2.7 12.2 6.8c0 3.5-3.4 6.1-9 6.7c1.5.3 2.3.9 3 1.8c1.1 1.3 6.4 8 6.4 8zM366 9v11.7s3.46.02 3.5 0c5 0 9.5-1.7 9.5-5.9c0-4.1-4.5-5.8-9.5-5.8c-.04-.02-3.5 0-3.5 0zm42 .8L397.5 9v24H395v-24l-10.5.8V8H408v1.8zM440.4 8v25h-2.5v-23l-10.7 17.6l-1.5 2.5l-.7-1.2l-11.3-18.5V33h-1.3v-25h2.9l11.2 18.4L437.7 8h2.7zm23.3 0v1.8L449 9v10.8h11.5l-.2 1.8l-11.3-.8V32l15-.8l-.3 1.8h-17.2v-25h17.2zm6.3 25v-25h1l20.6 21v-21h1.3v25h-1l-20.6-21.1V33H470zm50.8-23.2L510.3 9v24h-2.6v-24l-10.4.8V8h23.5v1.8zM533.4 33c-3.3 0-7-1.1-9.2-3v-3.4c2.1 3.4 5.6 5.4 9.2 5.4c4.5 0 7.3-2 7.3-4.7c0-3-1.6-4.8-7.9-7.5c-6.5-2.7-8.3-4.4-8.3-6.9c0-2.7 3.1-4.9 9.8-4.9c3.7 0 6.7 1.3 8.5 2.9v3.4c-2.1-3.5-5.7-5.2-9.2-5.3c-4.4 0-6.7 1.2-6.7 3.1c.1 2 1.8 3.4 7.2 5.7c6.2 2.5 9.2 5.1 9.2 8.5c0 3.8-2.9 6.7-9.9 6.7z" stroke="none" fill="#192d39"/></g></svg>