<?xml version="1.0" standalone="no"?><!DOCTYPE svg PUBLIC "-//W3C//DTD SVG 1.1//EN" "http://www.w3.org/Graphics/SVG/1.1/DTD/svg11.dtd"><svg xmlns="http://www.w3.org/2000/svg" version="1.1" width="540.5px" height="128px" viewBox="0 -14 540.5 128" style="top:-14px"><desc>A new point of view</desc><defs/><g id="Polygon16346"><path d="m36 67.1c0 9.4-7.7 17-17.2 17c-9.4 0-17.1-7.6-17.1-17C1.7 57.6 9.4 50 18.8 50C28.3 50 36 57.6 36 67.1zm-4.7-5.2c-3.3-8-11.6-12.2-18.5-9.3C6 55.4 3.1 64.2 6.4 72.3c3.3 7.9 11.5 12.2 18.4 9.3c6.9-2.9 9.8-11.7 6.5-19.7zm11.2 22.2V50h23.9l-.3 2.5L46 51.4v14.7h15.7l-.3 2.5L46 67.5v16.6h-3.5zM93.1 50l14.7 28.9L122.7 50h2l-17.8 34.6L89.1 50h4zm41.6 34.1h-3.5V50h3.5v34.1zM167 50v2.5l-20.1-1.1v14.7h15.7l-.4 2.5l-15.3-1.1v15.3l20.4-1.2l-.3 2.5h-23.6V50H167zm50.4 0l-14.1 34.5l-7.9-19.2l-7.9 19.2L173.3 50h3.8l11.4 27.6l6-14.5l-5.4-13.1h3.8l11.3 27.7L215.6 50h1.8z" stroke="none" fill="#dcddce"/></g><g id="Polygon16345"><path d="m.5 34.1L18.2-.4L36 34.1h-3.9l-4.9-9.4H7.3l-4.9 9.4H.5zm7.7-11.2h18.1l-9-17.6l-9.1 17.6zm51.9 11.2V0h1.4l28.1 28.7V0h1.7v34.1h-1.4l-28-28.7v28.7h-1.8zm63-34.1v2.5L103 1.4v14.7h15.7l-.3 2.5l-15.4-1.1v15.3l20.4-1.2l-.3 2.5H99.5V0h23.6zm50.4 0l-14.1 34.5l-7.9-19.2l-7.9 19.2L129.5 0h3.8l11.3 27.6l6-14.5L145.3 0h3.7l11.4 27.7L171.7 0h1.8zm50.7 9.4c0 5.5-6 9.3-18.1 9.3c0 .02-4.7 0-4.7 0v15.4h-3.5V0h8.2c12.1 0 18.1 3.8 18.1 9.4zm-22.8-8v16h4.7c8.1 0 14.5-2.4 14.5-8c0-5.6-6.5-8-14.5-8c0-.02-4.7 0-4.7 0zm62 15.7c0 9.4-7.7 17-17.2 17c-9.4 0-17.1-7.6-17.1-17c0-9.5 7.7-17.1 17.1-17.1c9.5 0 17.2 7.6 17.2 17.1zm-4.7-5.2c-3.3-8-11.6-12.2-18.5-9.3c-6.8 2.8-9.7 11.6-6.4 19.7c3.3 7.9 11.5 12.2 18.4 9.3c6.9-2.9 9.8-11.7 6.5-19.7zm15.2 22.2h-3.5V0h3.5v34.1zm8.7 0V0h1.4l28.1 28.7V0h1.7v34.1h-1.4L284.3 5.4v28.7h-1.7zm69.2-31.6l-14.2-1.1v32.7h-3.5V1.4l-14.2 1.1V0h31.9v2.5z" stroke="none" fill="#dcddce"/></g></svg>