<?xml version="1.0" standalone="no"?><!DOCTYPE svg PUBLIC "-//W3C//DTD SVG 1.1//EN" "http://www.w3.org/Graphics/SVG/1.1/DTD/svg11.dtd"><svg xmlns="http://www.w3.org/2000/svg" version="1.1" width="75px" height="31.5px" viewBox="0 -3 75 31.5" style="top:-3px"><desc>Lane Cove National Park</desc><defs/><g id="Polygon20620"><path d="m8.2 13.8h1.4v8H7.7l-3.4-6.2v6.2H2.9v-8h1.9L8.2 20v-6.2zm2.9 6.4c0-1.2 1-1.7 2.1-1.8c-.01-.01 1.5-.1 1.5-.1v-.2c0-.6-.4-1.1-1-1.1h-.1c-.6 0-1 .4-1.1.8h-1.3c.1-1.1 1-1.9 2.4-1.9c1.5 0 2.4.9 2.4 2.2v2.5c0 .3 0 .8.1 1.2h-1.3v-.8c-.3.5-1 .9-1.8.9c-1.1 0-1.9-.6-1.9-1.7zm2.2.7c.7 0 1.4-.6 1.4-1.3v-.4s-1.33.17-1.3.2c-.5 0-1 .3-1 .8c0 .4.3.7.8.7h.1zm6.2.9c-.9 0-1.4-.5-1.4-1.4c.04.04 0-3.2 0-3.2h-1.2v-1.1h1.2v-1.9h1.4v1.9h1.3v1.1h-1.3s-.03 2.92 0 2.9c0 .5.1.6.5.6h1v1.1s-1.46.03-1.5 0zm2.5-6.6v-1.4h1.4v1.4H22zm0 6.6v-5.7h1.4v5.7H22zm2.6-2.9c0-1.7 1.2-3 2.9-3c1.6 0 2.8 1.3 2.8 3c0 1.8-1.2 3-2.8 3c-1.7 0-2.9-1.2-2.9-3zm2.9 2c.9 0 1.5-.7 1.5-2c0-1.2-.6-1.9-1.5-1.9h-.1c-.8 0-1.4.7-1.4 1.9c0 1.3.6 2 1.4 2h.1zm4.1.9v-5.7h1.3s.03.79 0 .8c.4-.6 1-1 1.8-1c1.4 0 2.1.9 2.1 2.2c-.03-.03 0 3.7 0 3.7h-1.4s.04-3.54 0-3.5c0-.8-.3-1.3-1-1.3h-.1c-.7 0-1.4.7-1.4 1.6c.03.01 0 3.2 0 3.2h-1.3zm6.4-1.6c0-1.2 1.1-1.7 2.1-1.8l1.6-.1s-.05-.2 0-.2c0-.6-.4-1.1-1.1-1.1h-.1c-.6 0-1 .4-1 .8h-1.4c.1-1.1 1.1-1.9 2.5-1.9c1.4 0 2.3.9 2.3 2.2v2.5c0 .3 0 .8.1 1.2h-1.2c-.1-.2-.1-.6-.1-.8c-.3.5-.9.9-1.8.9c-1 0-1.9-.6-1.9-1.7zm2.2.7c.7 0 1.5-.6 1.5-1.3c-.05-.01 0-.4 0-.4c0 0-1.39.17-1.4.2c-.5 0-1 .3-1 .8c0 .4.4.7.9.7zm4.3.9v-8h1.3v8h-1.3zm5.3 0v-8s3.59-.05 3.6 0c1.5 0 2.6.9 2.6 2.5c0 1.5-1.1 2.5-2.6 2.5c-.01-.04-2.2 0-2.2 0v3h-1.4zm1.4-4.3s2.02.03 2 0c.9 0 1.4-.5 1.4-1.2c0-.8-.5-1.3-1.4-1.3h-2v2.5zm5.6 2.7c0-1.2 1-1.7 2.1-1.8c-.02-.01 1.5-.1 1.5-.1v-.2c0-.6-.4-1.1-1.1-1.1h-.1c-.5 0-.9.4-1 .8h-1.3c.1-1.1 1-1.9 2.4-1.9c1.5 0 2.4.9 2.4 2.2v3.7h-1.2c-.1-.2-.1-.6-.1-.8c-.3.5-.9.9-1.7.9c-1.1 0-1.9-.6-1.9-1.7zm2.2.7c.7 0 1.4-.6 1.4-1.3v-.4s-1.35.17-1.3.2c-.5 0-1 .3-1 .8c0 .4.3.7.8.7h.1zm4.3.9v-5.7h1.3s-.05 1.16 0 1.2c.2-.8.8-1.3 1.6-1.3h.4v1.2s-.48.05-.5 0c-1 0-1.5.6-1.5 1.7c-.02-.03 0 2.9 0 2.9h-1.3zm4.3 0v-8h1.4v4.6l2.2-2.3h1.7l-2.3 2.3l2.4 3.4h-1.6l-1.7-2.5l-.7.7v1.8h-1.4z" stroke="none" fill="#192d39"/></g><g id="Polygon20619"><path d="m10.6 9V.9h1.4v6.9h4.7v1.2h-6.1zm6.9-1.6c0-1.3 1.1-1.8 2.1-1.8c.03-.04 1.5-.2 1.5-.2c0 0 .04-.13 0-.1c0-.7-.4-1.1-1-1.1h-.1c-.6 0-1 .3-1 .8h-1.4c.1-1.1 1.1-1.9 2.4-1.9c1.5 0 2.4.9 2.4 2.1v2.5c0 .4 0 .9.1 1.3h-1.3v-.8c-.3.5-1 .9-1.8.9c-1.1 0-1.9-.7-1.9-1.7zm2.2.6c.7 0 1.4-.5 1.4-1.2c.04-.04 0-.4 0-.4c0 0-1.3.14-1.3.1c-.5.1-1 .3-1 .8c0 .4.4.7.8.7h.1zM24 9V3.2h1.3s.03.86 0 .9c.4-.6 1-1 1.8-1c1.4 0 2.1.9 2.1 2.1c-.04.04 0 3.8 0 3.8h-1.4s.04-3.56 0-3.6c0-.7-.3-1.2-1-1.2h-.1c-.7 0-1.4.6-1.4 1.6c.03-.02 0 3.2 0 3.2H24zm6.4-2.9c0-1.8 1.2-3 2.7-3c1.7 0 2.6 1.2 2.6 2.8v.6h-4c.1 1 .8 1.5 1.5 1.5c.6 0 1-.3 1.2-.8h1.3c-.3 1.2-1.2 1.9-2.5 1.9c-1.5 0-2.8-1-2.8-3zm4-.7c-.1-.8-.6-1.2-1.2-1.2h-.1c-.7 0-1.3.4-1.4 1.2h2.7zm4.5-.4c0-2.5 1.4-4.2 3.9-4.2C44.7.8 46 2 46.1 3.5h-1.4c-.1-.9-.8-1.5-1.9-1.5h-.1c-1.5 0-2.4 1.2-2.4 3c0 1.7.9 2.9 2.4 2.9h.1c1.1 0 1.8-.6 1.9-1.5h1.4C46 8 44.7 9.1 42.8 9.1c-2.5 0-3.9-1.7-3.9-4.1zm8.2 1.1c0-1.7 1.2-3 2.8-3c1.7 0 2.9 1.3 2.9 3c0 1.8-1.2 3-2.9 3c-1.6 0-2.8-1.2-2.8-3zM50 8c.8 0 1.4-.7 1.4-1.9c0-1.2-.6-1.9-1.4-1.9h-.1c-.9 0-1.5.7-1.5 1.9c0 1.2.6 1.9 1.5 1.9h.1zm7.8-4.8h1.3l-2 5.8h-1.8l-2.1-5.8h1.4l1.6 4.7l1.6-4.7zm1.8 2.9c0-1.8 1.1-3 2.7-3c1.7 0 2.6 1.2 2.6 2.8v.6h-4c.1 1 .8 1.5 1.4 1.5h.1c.6 0 1-.3 1.1-.8h1.4c-.3 1.2-1.2 1.9-2.6 1.9c-1.4 0-2.7-1-2.7-3zm4-.7c-.1-.8-.6-1.2-1.3-1.2h-.1c-.6 0-1.2.4-1.3 1.2h2.7z" stroke="none" fill="#192d39"/></g></svg>