<?xml version="1.0" standalone="no"?><!DOCTYPE svg PUBLIC "-//W3C//DTD SVG 1.1//EN" "http://www.w3.org/Graphics/SVG/1.1/DTD/svg11.dtd"><svg xmlns="http://www.w3.org/2000/svg" version="1.1" width="105px" height="54.9px" viewBox="0 -3 105 54.9" style="top:-3px"><desc>Over 60 years of history</desc><defs/><g id="Polygon16021"><path d="m34.4 22.7c0-1.4.9-2.3 2-2.3c1.1 0 2 .9 2 2.3c0 1.3-.9 2.2-2 2.2c-1.1 0-2-.9-2-2.2zm2 1.8c.8 0 1.4-.7 1.4-1.8c0-1.1-.6-1.8-1.4-1.8h-.1c-.7 0-1.3.7-1.3 1.8c0 1.1.6 1.8 1.3 1.8h.1zm3.6.3V21h-1v-.5h1s-.01-.93 0-.9c0-.6.3-.8.8-.8c.01-.01 1.1 0 1.1 0v.5s-1-.03-1 0c-.3 0-.3.1-.3.3c-.04.01 0 .9 0 .9h1.1v.5h-1.1v3.8h-.6zm4.3 0v-6h.5s.04 2.46 0 2.5c.3-.6.9-.9 1.6-.9c1 0 1.5.7 1.5 1.6c-.04-.01 0 2.8 0 2.8h-.6v-2.6c0-.9-.3-1.3-1-1.3h-.1c-.7 0-1.4.6-1.4 1.6c.04.01 0 2.3 0 2.3h-.5zm4.9-5.1v-.7h.7v.7h-.7zm.1 5.1v-4.3h.5v4.3h-.5zm1.7-1.3h.6c0 .6.5 1 1.1 1h.1c.6 0 .9-.3.9-.8c0-.4-.1-.6-.7-.7l-.7-.1c-.6-.2-1.1-.5-1.1-1.2c0-.8.7-1.3 1.5-1.3c1.1 0 1.6.7 1.6 1.4h-.5c-.1-.5-.4-.9-1-.9h-.1c-.6 0-1 .4-1 .8c0 .3.3.5.8.6l.7.2c.6.1 1.1.4 1.1 1.1c0 .9-.6 1.3-1.6 1.3c-1.1 0-1.7-.6-1.7-1.4zm5.9 1.3c-.6 0-.8-.2-.8-.7c-.04-.03 0-3.1 0-3.1h-1v-.5h1v-1.4h.5v1.4h1.1v.5h-1.1s.03 3.02 0 3c0 .3.1.4.4.4c-.03-.03.8 0 .8 0v.4s-.91.04-.9 0zm1.5-2.1c0-1.4.9-2.3 2-2.3c1.1 0 2 .9 2 2.3c0 1.3-.9 2.2-2 2.2c-1.1 0-2-.9-2-2.2zm2.1 1.8c.7 0 1.3-.7 1.3-1.8c0-1.1-.6-1.8-1.3-1.8h-.1c-.8 0-1.4.7-1.4 1.8c0 1.1.6 1.8 1.4 1.8h.1zm3.1.3v-4.3h.5s.05 1.01 0 1c.2-.7.8-1 1.4-1c-.01-.02.4 0 .4 0v.5h-.4c-.8 0-1.3.7-1.3 1.7v2.1h-.6zm7.2-4.3L69 24.7v.8c0 .5-.3.8-.8.8c-.03-.03-1.3 0-1.3 0v-.5h1.2c.2 0 .3-.1.3-.3c.03-.05 0-.8 0-.8l-1.8-4.2h.6l1.5 3.5l1.5-3.5h.6z" stroke="none" fill="#192d39"/></g><g id="Polygon16020"><path d="m9.3 10.3c0-2 1.1-3.2 2.7-3.2c1.6 0 2.8 1.2 2.8 3.2c0 1.9-1.2 3.1-2.8 3.1c-1.6 0-2.7-1.2-2.7-3.1zm2.8 2.5c1.2 0 2.1-1 2.1-2.5c0-1.6-.9-2.6-2.1-2.6h-.1c-1.3 0-2.1 1-2.1 2.6c0 1.5.8 2.5 2.1 2.5h.1zM19 9h.6L18 13.3h-.7L15.6 9h.6l1.4 3.8L19 9zm1.2 2.1c0-1.5.9-2.2 1.9-2.2c1.1 0 1.8.8 1.8 1.9v.4s-3.12-.03-3.1 0c0 1.2.6 1.7 1.3 1.7h.1c.6 0 1-.3 1.1-.9h.6c-.2.9-.9 1.4-1.8 1.4c-1 0-1.9-.8-1.9-2.3zm3.1-.4c0-.8-.4-1.4-1.1-1.4h-.1c-.6 0-1.2.4-1.3 1.4h2.5zm1.8 2.6V9h.6s-.04.95 0 .9c.2-.6.7-1 1.3-1c0 .02.4 0 .4 0v.5s-.36.04-.4 0c-.8 0-1.3.7-1.3 1.8v2.1h-.6zm10.4-9.9l.1.3c-2.2.3-3.9 1.8-4.4 4.2c.4-.7 1.2-1.2 2.2-1.2c2.1 0 3.3 1.4 3.3 3.1c0 2.1-1.7 3.5-3.4 3.5c-2 0-3.3-1.4-3.3-3.7c0-2.9 2.4-6 5.5-6.2zM31 9.6c0 1.7.7 3.3 2.3 3.3c1.6 0 2.3-1.6 2.3-3.1c0-1.4-.8-2.7-2.3-2.7C32 7.1 31 8.2 31 9.6zm13.9-.7c0-2.9-1.5-4.8-3.5-4.8c-1.9 0-2.7 1.8-2.7 3.9c0 2.9 1.6 4.8 3.5 4.8c1.7 0 2.7-1.8 2.7-3.9zm1-.5c0 2.7-1.6 4.9-4.1 4.9c-2.4 0-4-2.2-4-4.9c0-2.6 1.6-4.8 4.1-4.8c2.4 0 4 2.2 4 4.8zm13.8-4.8l-4 4.7v5h-1V8.5l-4.1-4.9h1.3l3.5 4.3L59 3.6h.7zm7.8 0v.7L61.7 4v4.2h4.5l-.1.7l-4.4-.4v4.4l5.8-.3v.7h-6.7V3.6h6.7zm1 9.7l5-9.8l5.1 9.8h-1.1l-1.4-2.7h-5.7L69 13.3h-.5zm2.2-3.2h5.1l-2.5-5l-2.6 5zm16.2 2.5c.41.6.9.6.9.6c0 0-.27.19-.7.2c-.8 0-1.1-.3-1.8-1.2l-2.1-2.6c-.4-.5-.7-.7-1-.7h-1.6v4.4h-1V3.6h2.4c2.9 0 4.7 1.1 4.7 2.7c0 1.3-1.3 2.3-3.5 2.5c.6.2.9.4 1.2.7l2.5 3.1zM80.6 4v4.5s1.36.03 1.4 0c1.9 0 3.7-.6 3.7-2.2c0-1.6-1.8-2.3-3.7-2.3h-1.4zm11.1 9.3c-1.3 0-2.7-.4-3.6-1.2v-1.3c.9 1.3 2.2 2.1 3.6 2.1c1.8 0 2.8-.8 2.8-1.8c0-1.2-.6-1.9-3-2.9c-2.5-1.1-3.2-1.7-3.2-2.7c0-1 1.2-1.9 3.8-1.9c1.4 0 2.6.5 3.3 1.1v1.3c-.8-1.3-2.2-2-3.6-2c-1.7 0-2.6.5-2.6 1.2c0 .8.7 1.3 2.8 2.2c2.4 1 3.5 2 3.5 3.3c0 1.5-1.1 2.6-3.8 2.6z" stroke="none" fill="#192d39"/></g></svg>