<?xml version="1.0" standalone="no"?><!DOCTYPE svg PUBLIC "-//W3C//DTD SVG 1.1//EN" "http://www.w3.org/Graphics/SVG/1.1/DTD/svg11.dtd"><svg xmlns="http://www.w3.org/2000/svg" version="1.1" width="13px" height="28.2px" viewBox="0 -2 13 28.2" style="top:-2px"><desc>B</desc><defs/><g id="Polygon19568"><path d="m1.7 3.7s3.67.05 3.7 0c3.4 0 4.9 1.5 4.9 2.9c0 1.1-.8 2.2-2.5 2.6c2.5.4 3.8 1.6 3.8 3.1c0 1.9-2 3.2-6.2 3.2c-.03.02-3.7 0-3.7 0V3.7zm1.2 11.4s2.47-.03 2.5 0c2.7 0 5-.9 5-2.8c0-1.9-2.1-2.7-4.8-2.8c-.02.02-2.7 0-2.7 0v5.6zm0-10.9v4.9s2.47-.03 2.5 0c2.5 0 3.6-1 3.6-2.5c0-1.5-1.1-2.4-3.6-2.4c-.03.02-2.5 0-2.5 0z" stroke="none" fill="#dcddce"/></g></svg>