<?xml version="1.0" standalone="no"?><!DOCTYPE svg PUBLIC "-//W3C//DTD SVG 1.1//EN" "http://www.w3.org/Graphics/SVG/1.1/DTD/svg11.dtd"><svg xmlns="http://www.w3.org/2000/svg" version="1.1" width="54.2px" height="10.3px" viewBox="0 -2 54.2 10.3" style="top:-2px"><desc>Artist Impression</desc><defs/><g id="Polygon15387"><path d="m7.7 4.7l-.4-1H5.4l-.4 1h-.7L5.9.5h.9l1.6 4.2h-.7zM5.7 3h1.3l-.6-1.8L5.7 3zm3.4 1.7v-3h.7s-.02.6 0 .6c.1-.4.4-.6.8-.6c.05-.05.2 0 .2 0v.6h-.2c-.5 0-.8.3-.8.8v1.6h-.7zm3.6 0c-.5 0-.7-.3-.7-.7c-.01-.05 0-1.8 0-1.8h-.6v-.5h.6v-1h.7v1h.7v.5h-.7s-.02 1.59 0 1.6c0 .2 0 .3.3.3h.5v.6s-.79-.02-.8 0zm1.4-3.5v-.7h.8v.7h-.8zm.1 3.5v-3h.7v3h-.7zm1.4-1h.7c0 .3.3.5.6.5h.1c.2 0 .4-.1.4-.3c0-.2-.1-.3-.3-.4l-.4-.1c-.6-.1-.9-.4-.9-.9c0-.5.4-.9 1.1-.9c.8 0 1.2.4 1.2 1h-.6c-.1-.2-.2-.4-.6-.4c-.3 0-.5.1-.5.3c0 .2.2.3.4.3l.5.1c.5.2.8.4.8.9c0 .6-.4.9-1.2.9c-.8 0-1.3-.4-1.3-1zm4.5 1c-.5 0-.8-.3-.8-.7c.03-.05 0-1.8 0-1.8h-.6v-.5h.6v-1h.7v1h.7v.5h-.7s.02 1.59 0 1.6c0 .2.1.3.3.3h.5v.6s-.74-.02-.7 0zm2.5 0V.5h.8v4.2h-.8zm1.8 0v-3h.7v.4c.2-.3.5-.5.9-.5c.4 0 .8.2 1 .6c.2-.4.6-.6 1-.6c.7 0 1 .5 1 1.1c.02.04 0 2 0 2h-.7s.03-1.86 0-1.9c0-.4-.1-.6-.5-.6c-.4 0-.7.3-.7.8c-.03.01 0 1.7 0 1.7h-.7s-.02-1.86 0-1.9c0-.4-.2-.6-.5-.6h-.1c-.4 0-.7.3-.7.8c.01.01 0 1.7 0 1.7h-.7zM30 5.9V1.7h.7s-.02.38 0 .4c.1-.3.5-.5.9-.5c.8 0 1.3.7 1.3 1.6c0 .9-.5 1.5-1.3 1.5c-.4 0-.8-.2-.9-.4c-.02-.02 0 1.6 0 1.6h-.7zm1.5-1.7c.4 0 .7-.4.7-1c0-.7-.3-1-.7-1h-.1c-.4 0-.7.3-.7 1c0 .6.3 1 .7 1h.1zm2.2.5v-3h.7s.02.6 0 .6c.1-.4.5-.6.9-.6c-.01-.05.2 0 .2 0v.6h-.3c-.5 0-.8.3-.8.8c.03.04 0 1.6 0 1.6h-.7zM36 3.2c0-1 .6-1.6 1.4-1.6c.9 0 1.4.6 1.4 1.5c0 .1-.1.2-.1.3h-2c0 .5.4.8.7.8h.1c.3 0 .5-.2.6-.4h.6c-.1.6-.6.9-1.3.9c-.7 0-1.4-.5-1.4-1.5zm2.1-.4c0-.4-.3-.6-.7-.6c-.3 0-.6.2-.7.6h1.4zm1.3.9h.7c0 .3.2.5.6.5c.3 0 .5-.1.5-.3c0-.2-.1-.3-.4-.4l-.4-.1c-.5-.1-.9-.4-.9-.9c0-.5.5-.9 1.2-.9c.8 0 1.2.4 1.2 1h-.7c0-.2-.2-.4-.5-.4c-.3 0-.5.1-.5.3c0 .2.1.3.4.3l.4.1c.6.2.9.4.9.9c0 .6-.5.9-1.2.9c-.8 0-1.3-.4-1.3-1zm3.1 0h.7c0 .3.3.5.6.5c.3 0 .5-.1.5-.3c0-.2-.1-.3-.3-.4l-.4-.1c-.6-.1-1-.4-1-.9c0-.5.5-.9 1.2-.9c.8 0 1.2.4 1.2 1h-.7c0-.2-.1-.4-.5-.4c-.3 0-.5.1-.5.3c0 .2.2.3.4.3l.5.1c.5.2.8.4.8.9c0 .6-.4.9-1.2.9c-.8 0-1.3-.4-1.3-1zm3.3-2.5v-.7h.8v.7h-.8zm.1 3.5v-3h.7v3h-.7zm1.5-1.5c0-.9.6-1.6 1.4-1.6c.9 0 1.5.7 1.5 1.6c0 .9-.6 1.5-1.5 1.5c-.8 0-1.4-.6-1.4-1.5zm1.5 1c.4 0 .7-.4.7-1c0-.7-.3-1-.7-1h-.1c-.4 0-.7.3-.7 1c0 .6.3 1 .7 1h.1zm2.2.5v-3h.7s.02.41 0 .4c.2-.3.5-.5 1-.5c.7 0 1 .5 1 1.1v2h-.7s.02-1.87 0-1.9c0-.4-.2-.6-.5-.6h-.1c-.3 0-.7.3-.7.8c.02.01 0 1.7 0 1.7h-.7z" stroke="none" fill="#e5e5db"/></g></svg>