<?xml version="1.0" standalone="no"?><!DOCTYPE svg PUBLIC "-//W3C//DTD SVG 1.1//EN" "http://www.w3.org/Graphics/SVG/1.1/DTD/svg11.dtd"><svg xmlns="http://www.w3.org/2000/svg" version="1.1" width="94px" height="22.5px" viewBox="0 0 94 22.5"><desc>M2 Motorway</desc><defs/><g id="Polygon20672"><path d="m17.3 5.1h2.2v8.1h-1.4V6.5l-2.2 6.7h-1.6l-2.2-6.7v6.7h-1.4V5.1h2.2l2.2 6.6l2.2-6.6zm5.4 6.9h3.9v1.2H21v-1.4l2.7-2.5c.8-.8 1.4-1.3 1.4-2c0-.7-.5-1.1-1.2-1.1h-.1c-.8 0-1.3.5-1.4 1.4h-1.3C21.1 6 22.3 5 23.8 5c1.6 0 2.7.9 2.7 2.2c0 1.1-.7 1.9-1.7 2.8l-2.1 2zm14.2-6.9h2.2v8.1h-1.4V6.5l-2.1 6.7h-1.7l-2.2-6.7v6.7h-1.3V5.1h2.2l2.2 6.6l2.1-6.6zm3.7 5.2c0-1.8 1.1-3 2.8-3c1.7 0 2.8 1.2 2.8 3c0 1.7-1.1 3-2.8 3c-1.7 0-2.8-1.3-2.8-3zm2.8 1.9c.9 0 1.5-.7 1.5-1.9c0-1.2-.6-1.9-1.5-1.9h-.1c-.8 0-1.4.7-1.4 1.9c0 1.2.6 1.9 1.4 1.9h.1zm6.1 1c-.9 0-1.4-.5-1.4-1.4c-.01-.02 0-3.3 0-3.3h-1.2V7.4h1.2V5.5h1.3v1.9h1.3v1.1h-1.3s.02 2.97 0 3c0 .4.1.5.6.5c-.01.03.9 0 .9 0v1.2s-1.41-.03-1.4 0zm2.1-2.9c0-1.8 1.2-3 2.8-3c1.7 0 2.9 1.2 2.9 3c0 1.7-1.2 3-2.9 3c-1.6 0-2.8-1.3-2.8-3zm2.9 1.9c.9 0 1.4-.7 1.4-1.9c0-1.2-.5-1.9-1.4-1.9h-.1c-.9 0-1.5.7-1.5 1.9c0 1.2.6 1.9 1.5 1.9h.1zm4.1 1V7.4h1.3s-.02 1.2 0 1.2c.2-.8.9-1.3 1.7-1.3c-.04.04.4 0 .4 0v1.3h-.5c-1 0-1.6.6-1.6 1.6v3h-1.3zM70 7.4h1.3l-1.7 5.8h-1.5L67 8.9l-1.1 4.3h-1.5l-1.7-5.8h1.3l1.2 4.4l1.1-4.4h1.4l1.1 4.4L70 7.4zm1.9 4.2c0-1.3 1.1-1.8 2.1-1.9c.03.03 1.5-.1 1.5-.1c0 0 .05-.16 0-.2c0-.6-.4-1-1-1h-.1c-.6 0-1 .3-1 .7H72c.1-1 1.1-1.8 2.4-1.8c1.5 0 2.4.8 2.4 2.1v2.5c0 .3 0 .9.1 1.3h-1.2c-.1-.2-.1-.7-.1-.8c-.3.5-1 .9-1.8.9c-1 0-1.9-.7-1.9-1.7zm2.2.6c.7 0 1.4-.5 1.4-1.3c.05.03 0-.3 0-.3c0 0-1.29.11-1.3.1c-.5.1-1 .3-1 .8c0 .4.4.7.8.7h.1zm9.6-4.8l-2.4 5.4s-.04 1.24 0 1.2c0 1-.5 1.4-1.4 1.4c-.01.02-2 0-2 0v-1.1s1.54-.04 1.5 0c.5 0 .6-.2.6-.6v-.8l-2.5-5.5h1.5l1.6 3.8l1.6-3.8h1.5z" stroke="none" fill="#192d39"/></g></svg>