<?xml version="1.0" standalone="no"?><!DOCTYPE svg PUBLIC "-//W3C//DTD SVG 1.1//EN" "http://www.w3.org/Graphics/SVG/1.1/DTD/svg11.dtd"><svg xmlns="http://www.w3.org/2000/svg" version="1.1" width="152.3px" height="46.4px" viewBox="0 -3 152.3 46.4" style="top:-3px"><desc>Average tenancy is 18 months.</desc><defs/><g id="Polygon21885"><path d="m6.5 8.6l-.8-2.1h-4L.9 8.6h-.8L3.2.9h1l3.1 7.7h-.8zM2 5.7h3.4L3.7 1.6L2 5.7zm9.7-2.6h.8l-2.1 5.5h-.9L7.4 3.1h.7l1.8 4.8l1.8-4.8zm1.4 2.7c0-1.9 1.2-2.8 2.5-2.8c1.3 0 2.2 1 2.2 2.4v.5s-3.97-.02-4 0c.1 1.5.9 2.2 1.8 2.2c.8 0 1.3-.4 1.5-1.1h.7c-.3 1.1-1.1 1.7-2.2 1.7c-1.4 0-2.5-1-2.5-2.9zm4-.5c-.1-1-.6-1.7-1.5-1.7h-.1c-.7 0-1.5.4-1.6 1.7h3.2zm2.2 3.3V3.1h.6s.02 1.23 0 1.2c.3-.8 1-1.3 1.7-1.3c.02.03.5 0 .5 0v.7s-.42-.02-.4 0c-1.1 0-1.7.8-1.7 2.2c-.03.01 0 2.7 0 2.7h-.7zm3.6-1.5c0-1.2 1.1-1.6 1.9-1.7l1.7-.1s.04-.24 0-.2c0-1-.5-1.5-1.3-1.5h-.1c-.7 0-1.3.3-1.4 1h-.7c.1-1 1-1.6 2.1-1.6c1.5 0 2.2.9 2.2 2.1v3.5h-.7v-.9c-.2.5-1 1-2 1c-.9 0-1.7-.7-1.7-1.6zm1.9 1c.8 0 1.7-.7 1.7-1.5c.04 0 0-.7 0-.7c0 0-1.56.07-1.6.1c-.7 0-1.3.4-1.3 1c0 .6.5 1.1 1.1 1.1h.1zm3.7 1.2h.7c.2.7.8 1.1 1.7 1.1h.1c1 0 1.8-.5 1.8-1.9v-.9c-.3.6-.9 1-1.8 1c-1.4 0-2.4-1-2.4-2.8c0-1.7 1-2.8 2.4-2.8c.9 0 1.5.4 1.8 1c.01-.04 0-.9 0-.9h.7s.03 5.44 0 5.4c0 1.5-.9 2.5-2.5 2.5c-1.6 0-2.4-.7-2.5-1.7zM31.1 8c1 0 1.7-.8 1.7-2.2c0-1.3-.7-2.2-1.7-2.2h-.1c-1 0-1.7.9-1.7 2.2C29.3 7.2 30 8 31 8h.1zM35 5.8C35 3.9 36.2 3 37.4 3c1.4 0 2.2 1 2.2 2.4c.05.05 0 .5 0 .5c0 0-3.91-.02-3.9 0c0 1.5.8 2.2 1.7 2.2h.1c.7 0 1.2-.4 1.4-1.1h.7c-.2 1.1-1.1 1.7-2.2 1.7c-1.4 0-2.4-1-2.4-2.9zm3.9-.5c0-1-.6-1.7-1.4-1.7h-.1c-.7 0-1.5.4-1.7 1.7h3.2zm6 3.3c-.7 0-1.1-.3-1.1-1c.04-.01 0-3.9 0-3.9h-1.2v-.6h1.2V1.3h.8v1.8h1.3v.6h-1.3s-.05 3.84 0 3.8c0 .4.1.5.4.5c-.01-.02 1.1 0 1.1 0v.6s-1.22-.02-1.2 0zm1.9-2.8C46.8 3.9 48 3 49.2 3c1.4 0 2.2 1 2.2 2.4c.04.05 0 .5 0 .5c0 0-3.92-.02-3.9 0c0 1.5.8 2.2 1.7 2.2h.1c.7 0 1.2-.4 1.4-1.1h.7c-.2 1.1-1.1 1.7-2.2 1.7c-1.4 0-2.4-1-2.4-2.9zm3.9-.5c0-1-.6-1.7-1.4-1.7h-.1c-.7 0-1.5.4-1.7 1.7h3.2zm2.2 3.3V3.1h.7s.02.9 0 .9c.3-.6 1-1 2-1c1.1 0 1.9.7 1.9 2c-.03-.02 0 3.6 0 3.6h-.7s-.04-3.4 0-3.4c0-1.1-.5-1.6-1.4-1.6c-1.2 0-1.8 1-1.8 2.2c.02.03 0 2.8 0 2.8h-.7zm6-1.5c0-1.2 1-1.6 1.9-1.7l1.7-.1v-.2c0-1-.5-1.5-1.4-1.5c-.7 0-1.3.3-1.4 1h-.7c0-1 .9-1.6 2.1-1.6c1.4 0 2.1.9 2.1 2.1v2.3c0 .3 0 .8.1 1.2h-.7c0-.3-.1-.6-.1-.9c-.2.5-.9 1-1.9 1c-1 0-1.7-.7-1.7-1.6zm1.9 1c.7 0 1.7-.7 1.7-1.5v-.7s-1.6.07-1.6.1c-.8 0-1.3.4-1.3 1c0 .6.5 1.1 1.1 1.1h.1zm4.1.5V3.1h.7s.01.9 0 .9c.3-.6 1-1 1.9-1c1.1 0 2 .7 2 2c-.04-.02 0 3.6 0 3.6h-.8s.05-3.4 0-3.4c0-1.1-.4-1.6-1.3-1.6c-1.2 0-1.8 1-1.8 2.2v2.8h-.7zm6-2.8c0-1.6.9-2.8 2.5-2.8c1.2 0 2 .7 2.1 1.8h-.7c-.1-.7-.6-1.2-1.4-1.2h-.1c-1.2 0-1.7 1-1.7 2.2c0 1.2.5 2.3 1.7 2.3h.1c.8 0 1.3-.6 1.4-1.3h.7c-.2 1.2-.9 1.9-2.1 1.9c-1.6 0-2.5-1.3-2.5-2.9zm10.6-2.7l-2.2 5.3s-.02 1.04 0 1c0 .7-.4 1-1.1 1h-1.6v-.6h1.5c.4 0 .5-.1.5-.4c-.04-.05 0-1 0-1l-2.4-5.3h.8l1.9 4.4l1.9-4.4h.7zm3.2-1v-.9h.8v.9h-.8zm.1 6.5V3.1h.7v5.5h-.7zm2-1.7h.7c.1.8.7 1.2 1.5 1.2h.1c.7 0 1.2-.4 1.2-1c0-.4-.2-.7-1-.9l-.8-.1c-.8-.2-1.5-.6-1.5-1.5C87 3.5 88 3 89 3c1.4 0 2 .8 2.1 1.7h-.7c-.1-.6-.6-1.1-1.3-1.1h-.1c-.8 0-1.2.4-1.2.9c0 .5.3.7 1 .9l.8.2c.8.2 1.4.5 1.4 1.4c0 1.1-.8 1.7-2 1.7c-1.4 0-2.1-.8-2.2-1.8zm9.4-6h.5v7.7h-.7V2l-1.9 1.7v-.9L96.2.9zm2.4 5.7c0-.9.6-1.6 1.3-1.8c-.8-.2-1.5-.9-1.5-1.9c0-1.3 1-2.1 2.5-2.1c1.4 0 2.4.8 2.4 2.1c0 1-.7 1.7-1.4 1.9c.6.2 1.3.9 1.3 1.8c0 1.3-1 2.1-2.3 2.1c-1.4 0-2.3-.8-2.3-2.1zm2.3-2.2c1 0 1.7-.6 1.7-1.4c0-.9-.7-1.5-1.7-1.5h-.1c-.9 0-1.6.6-1.6 1.5c0 .8.7 1.4 1.6 1.4h.1zm0 3.6c.9 0 1.5-.6 1.5-1.4c0-.8-.6-1.4-1.5-1.4h-.1c-.8 0-1.5.6-1.5 1.4c0 .8.7 1.4 1.5 1.4h.1zm6.2.6V3.1h.7s-.03.86 0 .9c.3-.6.9-1 1.8-1c.8 0 1.4.4 1.7 1.1c.4-.7 1.1-1.1 2-1.1c1 0 1.8.7 1.8 2c.04-.02 0 3.6 0 3.6h-.7s.03-3.4 0-3.4c0-1.1-.4-1.6-1.2-1.6h-.1c-1.1 0-1.6 1-1.6 2.2c-.05.03 0 2.8 0 2.8h-.8s.04-3.4 0-3.4c0-1.1-.4-1.6-1.2-1.6h-.1c-1.1 0-1.6 1-1.6 2.2c-.03.03 0 2.8 0 2.8h-.7zm9.4-2.8c0-1.7 1.1-2.8 2.6-2.8c1.4 0 2.5 1.1 2.5 2.8c0 1.7-1.1 2.9-2.5 2.9c-1.5 0-2.6-1.2-2.6-2.9zm2.6 2.3c1 0 1.8-.9 1.8-2.3c0-1.4-.8-2.2-1.8-2.2h-.1c-1 0-1.7.8-1.7 2.2c0 1.4.7 2.3 1.7 2.3h.1zm3.9.5V3.1h.7s.02.9 0 .9c.3-.6 1-1 2-1c1.1 0 1.9.7 1.9 2c-.03-.02 0 3.6 0 3.6h-.7s-.04-3.4 0-3.4c0-1.1-.5-1.6-1.4-1.6c-1.2 0-1.8 1-1.8 2.2c.02.03 0 2.8 0 2.8h-.7zm7.8 0c-.7 0-1-.3-1-1V3.7h-1.3v-.6h1.3V1.3h.7v1.8h1.4v.6h-1.4v3.8c0 .4.1.5.5.5c-.05-.02 1.1 0 1.1 0v.6s-1.26-.02-1.3 0zm2.4 0V.9h.7v3.1c.4-.6 1.1-1 2-1c1.2 0 1.9.8 1.9 1.9c-.05.05 0 3.7 0 3.7h-.8s.04-3.43 0-3.4c0-1.1-.4-1.6-1.3-1.6h-.1c-.8 0-1.7.7-1.7 2v3h-.7zm5.8-1.7h.8c0 .8.6 1.2 1.4 1.2h.1c.8 0 1.2-.4 1.2-1c0-.4-.2-.7-.9-.9l-.8-.1c-.9-.2-1.5-.6-1.5-1.5c0-1.1.9-1.6 1.9-1.6c1.4 0 2 .8 2.1 1.7h-.7c-.1-.6-.5-1.1-1.3-1.1h-.1c-.8 0-1.2.4-1.2.9c0 .5.3.7 1 .9l.8.2c.8.2 1.4.5 1.4 1.4c0 1.1-.8 1.7-2 1.7c-1.4 0-2.1-.8-2.2-1.8zm5.7 1.7V7.5h1.1v1.1h-1.1z" stroke="none" fill="#192d39"/></g></svg>