<?xml version="1.0" standalone="no"?><!DOCTYPE svg PUBLIC "-//W3C//DTD SVG 1.1//EN" "http://www.w3.org/Graphics/SVG/1.1/DTD/svg11.dtd"><svg xmlns="http://www.w3.org/2000/svg" version="1.1" width="275px" height="264px" viewBox="0 -2 275 264" style="top:-2px"><desc>Meriton is a 4.5 Gold Star iCIRT rated developer. The independent construction industry rating tool assesses develope...</desc><defs/><g class="svg-tables"><g class="svg-table-background"/></g><g id="Polygon15559"><path d="m13.3 220.3h.7c.1.7.7 1.1 1.4 1.1h.1c.7 0 1.2-.4 1.2-1c0-.4-.2-.6-.9-.8l-.8-.2c-.8-.1-1.4-.5-1.4-1.4c0-1 .8-1.5 1.8-1.5c1.4 0 2 .8 2 1.7h-.7c0-.6-.5-1.1-1.2-1.1h-.1c-.8 0-1.2.4-1.2.9c0 .4.3.7 1 .8l.8.2c.8.1 1.4.5 1.4 1.4c0 1-.8 1.5-2 1.5c-1.3 0-2-.7-2.1-1.6zm6.9 1.5c-.7 0-1-.2-1-.9c.02-.01 0-3.7 0-3.7H18v-.6h1.2v-1.7h.7v1.7h1.3v.6h-1.3v3.6c0 .4.1.5.4.5c.02-.04 1.1 0 1.1 0v.5s-1.19.04-1.2 0zm1.9-1.4c0-1.2 1-1.5 1.8-1.6c.03.01 1.7-.1 1.7-.1v-.2c0-.9-.5-1.4-1.3-1.4h-.1c-.6 0-1.2.3-1.3 1h-.7c.1-1 .9-1.6 2-1.6c1.4 0 2.1.9 2.1 2v3.3h-.6c0-.2-.1-.5-.1-.8c-.2.5-.9.9-1.8.9c-.9 0-1.7-.6-1.7-1.5zm1.9 1c.7 0 1.6-.7 1.6-1.5v-.7s-1.53.15-1.5.1c-.8.1-1.3.5-1.3 1c0 .6.5 1.1 1.1 1.1h.1zm3.9.4v-5.2h.7s-.02.87 0 .9c.3-.6 1-1 1.8-1c1.1 0 1.9.6 1.9 1.9c-.04 0 0 3.4 0 3.4h-.7s-.02-3.19 0-3.2c0-1-.4-1.5-1.3-1.5c-1.2 0-1.7 1-1.7 2.1c-.02.01 0 2.6 0 2.6h-.7zm5.7-2.6c0-1.7.9-2.7 2.3-2.7c.7 0 1.5.3 1.8.9c-.03.03 0-2.9 0-2.9h.6v7.3h-.6s-.03-.8 0-.8c-.3.6-1.1.9-1.8.9c-1.4 0-2.3-1-2.3-2.7zm2.4 2.2c1.1 0 1.7-1.1 1.7-2.2c0-1.1-.6-2.1-1.7-2.1h-.1c-1.1 0-1.6 1-1.6 2.1c0 1.1.5 2.2 1.6 2.2h.1zm3.7-1c0-1.2 1-1.5 1.8-1.6c.03.01 1.7-.1 1.7-.1v-.2c0-.9-.5-1.4-1.3-1.4h-.1c-.6 0-1.2.3-1.3 1h-.7c.1-1 .9-1.6 2-1.6c1.4 0 2.1.9 2.1 2v3.3h-.6c0-.2-.1-.5-.1-.8c-.2.5-.9.9-1.8.9c-.9 0-1.7-.6-1.7-1.5zm1.9 1c.7 0 1.6-.7 1.6-1.5v-.7s-1.53.15-1.5.1c-.8.1-1.3.5-1.3 1c0 .6.5 1.1 1.1 1.1h.1zm3.9.4v-5.2h.6s.03 1.18 0 1.2c.3-.9.9-1.3 1.7-1.3c-.04.03.4 0 .4 0v.7s-.39-.04-.4 0c-1 0-1.6.8-1.6 2.1c-.02-.02 0 2.5 0 2.5h-.7zm3.2-2.6c0-1.7 1-2.7 2.4-2.7c.6 0 1.4.3 1.7.9v-2.9h.7v7.3h-.7v-.8c-.3.6-1.1.9-1.7.9c-1.4 0-2.4-1-2.4-2.7zm2.4 2.2c1.2 0 1.7-1.1 1.7-2.2c0-1.1-.5-2.1-1.7-2.1c-1.2 0-1.7 1-1.7 2.1c0 1.1.5 2.2 1.7 2.2zm3.7-1.1h.6c.1.7.7 1.1 1.4 1.1h.1c.7 0 1.2-.4 1.2-1c0-.4-.2-.6-.9-.8l-.8-.2c-.8-.1-1.4-.5-1.4-1.4c0-1 .9-1.5 1.8-1.5c1.4 0 2 .8 2 1.7h-.7c0-.6-.5-1.1-1.2-1.1h-.1c-.7 0-1.1.4-1.1.9c0 .4.2.7.9.8l.8.2c.8.1 1.4.5 1.4 1.4c0 1-.8 1.5-2 1.5c-1.3 0-2-.7-2-1.6zm7.7.1c0-1.2 1-1.5 1.8-1.6l1.7-.1s-.04-.22 0-.2c0-.9-.5-1.4-1.3-1.4h-.1c-.7 0-1.2.3-1.3 1h-.7c.1-1 .9-1.6 2-1.6c1.4 0 2 .9 2 2v2.2c0 .3 0 .8.1 1.1h-.6c-.1-.2-.1-.5-.1-.8c-.2.5-.9.9-1.8.9c-1 0-1.7-.6-1.7-1.5zm1.8 1c.8 0 1.7-.7 1.7-1.5c-.04.05 0-.7 0-.7c0 0-1.56.15-1.6.1c-.7.1-1.2.5-1.2 1c0 .6.4 1.1 1 1.1h.1zm4 .4v-5.2h.7s-.05.87 0 .9c.3-.6.9-1 1.8-1c1 0 1.8.6 1.8 1.9c.03 0 0 3.4 0 3.4h-.7s.05-3.19 0-3.2c0-1-.4-1.5-1.2-1.5h-.1c-1.1 0-1.6 1-1.6 2.1c-.05.01 0 2.6 0 2.6h-.7zm5.6-2.6c0-1.7 1-2.7 2.4-2.7c.7 0 1.4.3 1.7.9c.04.03 0-2.9 0-2.9h.7v7.3h-.7s.04-.8 0-.8c-.3.6-1 .9-1.7.9c-1.4 0-2.4-1-2.4-2.7zm2.5 2.2c1.1 0 1.6-1.1 1.6-2.2c0-1.1-.5-2.1-1.6-2.1h-.1c-1.1 0-1.7 1-1.7 2.1c0 1.1.6 2.2 1.7 2.2h.1zm7.9.4c-.6 0-1-.2-1-.9c.04-.01 0-3.7 0-3.7h-1.2v-.6h1.2v-1.7h.7v1.7h1.3v.6H84s.02 3.64 0 3.6c0 .4.1.5.4.5c.04-.04 1.1 0 1.1 0v.5s-1.16.04-1.2 0zm2.3 0v-7.3h.6s.03 2.98 0 3c.4-.6 1-1 1.9-1c1.2 0 1.8.8 1.8 1.9c.01-.03 0 3.4 0 3.4h-.7s.03-3.22 0-3.2c0-1-.4-1.5-1.2-1.5h-.1c-.8 0-1.7.7-1.7 1.9c.03 0 0 2.8 0 2.8h-.6zm5.6-2.6c0-1.8 1.2-2.7 2.4-2.7c1.2 0 2.1 1 2.1 2.3c-.02.04 0 .5 0 .5c0 0-3.8-.04-3.8 0c0 1.4.8 2.1 1.7 2.1c.7 0 1.2-.4 1.4-1.1h.7c-.3 1.1-1.1 1.6-2.1 1.6c-1.3 0-2.4-.9-2.4-2.7zm3.8-.5c0-.9-.6-1.6-1.4-1.6h-.1c-.7 0-1.4.3-1.6 1.6h3.1zm11-2.1h.6l-1.6 5.2h-.9l-1.2-4.5l-1.2 4.5h-.9l-1.7-5.2h.7l1.5 4.6l1.1-4.6h.9l1.2 4.7l1.5-4.7zm1.3 3.8c0-1.2 1-1.5 1.8-1.6c.01.01 1.7-.1 1.7-.1c0 0-.03-.22 0-.2c0-.9-.5-1.4-1.3-1.4h-.1c-.7 0-1.2.3-1.3 1h-.7c.1-1 .9-1.6 2-1.6c1.4 0 2.1.9 2.1 2v3.3h-.6c-.1-.2-.1-.5-.1-.8c-.2.5-.9.9-1.8.9c-1 0-1.7-.6-1.7-1.5zm1.8 1c.8 0 1.7-.7 1.7-1.5c-.03.05 0-.7 0-.7c0 0-1.55.15-1.5.1c-.8.1-1.3.5-1.3 1c0 .6.4 1.1 1 1.1h.1zm8.4-4.8l-2.2 5.1v1c0 .6-.3.9-1 .9c-.01-.03-1.6 0-1.6 0v-.6h1.5c.3 0 .4-.1.4-.4c.01-.03 0-.9 0-.9l-2.2-5.1h.7l1.8 4.2l1.8-4.2h.8zm3.4 7.3v-7.3h.7s-.03.83 0 .8c.3-.6 1-.9 1.7-.9c1.4 0 2.4 1 2.4 2.7c0 1.7-1 2.7-2.4 2.7c-.7 0-1.4-.3-1.7-.9c-.03 0 0 2.9 0 2.9h-.7zm2.4-2.5c1.1 0 1.7-1.1 1.7-2.2c0-1.1-.6-2.1-1.7-2.1h-.1c-1.1 0-1.6 1-1.6 2.1c0 1.1.5 2.2 1.6 2.2h.1zm3.4-2.2c0-1.8 1.1-2.7 2.4-2.7c1.2 0 2.1 1 2.1 2.3c-.03.04 0 .5 0 .5c0 0-3.81-.04-3.8 0c0 1.4.8 2.1 1.6 2.1h.1c.7 0 1.2-.4 1.4-1.1h.7c-.3 1.1-1.1 1.6-2.1 1.6c-1.4 0-2.4-.9-2.4-2.7zm3.8-.5c0-.9-.6-1.6-1.4-1.6h-.1c-.7 0-1.4.3-1.6 1.6h3.1zm1.7.5c0-1.6 1.1-2.7 2.4-2.7c1.4 0 2.5 1.1 2.5 2.7c0 1.6-1.1 2.7-2.5 2.7c-1.3 0-2.4-1.1-2.4-2.7zm2.5 2.2c.9 0 1.7-.8 1.7-2.2c0-1.3-.8-2.1-1.7-2.1h-.1c-1 0-1.7.8-1.7 2.1c0 1.4.7 2.2 1.7 2.2h.1zm3.7 2.5v-7.3h.7v.8c.3-.6 1.1-.9 1.7-.9c1.4 0 2.4 1 2.4 2.7c0 1.7-1 2.7-2.4 2.7c-.6 0-1.4-.3-1.7-.9v2.9h-.7zm2.4-2.5c1.1 0 1.7-1.1 1.7-2.2c0-1.1-.6-2.1-1.7-2.1c-1.2 0-1.7 1-1.7 2.1c0 1.1.5 2.2 1.7 2.2zm3.8.4v-7.3h.6v7.3h-.6zm2-2.6c0-1.8 1.1-2.7 2.3-2.7c1.3 0 2.2 1 2.2 2.3c-.04.04 0 .5 0 .5c0 0-3.82-.04-3.8 0c0 1.4.8 2.1 1.6 2.1h.1c.7 0 1.2-.4 1.4-1.1h.7c-.3 1.1-1.1 1.6-2.2 1.6c-1.3 0-2.3-.9-2.3-2.7zm3.8-.5c-.1-.9-.6-1.6-1.4-1.6h-.1c-.7 0-1.5.3-1.6 1.6h3.1zm11-2.1h.6l-1.7 5.2h-.9l-1.2-4.5l-1.1 4.5h-.9l-1.7-5.2h.7l1.4 4.6l1.2-4.6h.9l1.2 4.7l1.5-4.7zm1.3 3.8c0-1.2 1-1.5 1.8-1.6l1.7-.1s-.05-.22 0-.2c0-.9-.6-1.4-1.4-1.4c-.7 0-1.3.3-1.3 1h-.7c.1-1 .9-1.6 2-1.6c1.4 0 2 .9 2 2v2.2c0 .3 0 .8.1 1.1h-.6c-.1-.2-.1-.5-.1-.8c-.2.5-.9.9-1.9.9c-.9 0-1.6-.6-1.6-1.5zm1.8 1c.7 0 1.7-.7 1.7-1.5c-.05.05 0-.7 0-.7c0 0-1.57.15-1.6.1c-.7.1-1.2.5-1.2 1c0 .6.4 1.1 1 1.1h.1zm4 .4v-5.2h.6s.04.87 0 .9c.3-.6 1-1 1.9-1c1 0 1.8.6 1.8 1.9c.02 0 0 3.4 0 3.4h-.7s.04-3.19 0-3.2c0-1-.4-1.5-1.2-1.5h-.1c-1.1 0-1.7 1-1.7 2.1c.04.01 0 2.6 0 2.6h-.6zm7.4 0c-.7 0-1-.2-1-.9c.01-.01 0-3.7 0-3.7h-1.2v-.6h1.2v-1.7h.7v1.7h1.3v.6h-1.3s-.01 3.64 0 3.6c0 .4.1.5.4.5c.01-.04 1.1 0 1.1 0v.5s-1.2.04-1.2 0zm6.2 0c-.7 0-1-.2-1-.9c-.04-.01 0-3.7 0-3.7h-1.2v-.6h1.2v-1.7h.6v1.7h1.4v.6h-1.4s.04 3.64 0 3.6c0 .4.1.5.5.5c-.04-.04 1 0 1 0v.5s-1.14.04-1.1 0zm1.8-2.6c0-1.6 1-2.7 2.4-2.7c1.4 0 2.4 1.1 2.4 2.7c0 1.6-1 2.7-2.4 2.7c-1.4 0-2.4-1.1-2.4-2.7zm2.5 2.2c.9 0 1.6-.8 1.6-2.2c0-1.3-.7-2.1-1.6-2.1h-.2c-.9 0-1.6.8-1.6 2.1c0 1.4.7 2.2 1.6 2.2h.2zm6.3.4v-7.3h.7v7.3h-.7zm2.3-6.2v-.9h.8v.9h-.8zm.1 6.2v-5.2h.6v5.2h-.6zm5.8-5.2h.8l-2.1 5.2h-.8l-2-5.2h.7l1.7 4.6l1.7-4.6zm1.4 2.6c0-1.8 1.1-2.7 2.3-2.7c1.3 0 2.1 1 2.1 2.3c.03.04 0 .5 0 .5c0 0-3.75-.04-3.7 0c0 1.4.7 2.1 1.6 2.1h.1c.7 0 1.1-.4 1.3-1.1h.7c-.2 1.1-1 1.6-2.1 1.6c-1.3 0-2.3-.9-2.3-2.7zm3.8-.5c-.1-.9-.6-1.6-1.4-1.6h-.2c-.6 0-1.4.3-1.5 1.6h3.1zm1.9 3.1v-1h1.1v1H209z" stroke="none" fill="#192d39"/></g><g id="Polygon15558"><path d="m13.5 205.9c0-1.2.9-1.5 1.8-1.6l1.6-.1s.02-.22 0-.2c0-.9-.5-1.4-1.3-1.4c-.7 0-1.3.3-1.4 1h-.6c0-1 .8-1.6 2-1.6c1.3 0 2 .9 2 2v2.2c0 .3 0 .8.1 1.1h-.7v-.8c-.2.5-1 .9-1.9.9c-.9 0-1.6-.6-1.6-1.5zm1.8 1c.7 0 1.6-.7 1.6-1.5c.02.05 0-.7 0-.7c0 0-1.5.15-1.5.1c-.8.1-1.3.5-1.3 1c0 .6.5 1.1 1.1 1.1h.1zm3.9.4v-5.2h.7s.01.87 0 .9c.3-.6 1-1 1.8-1c1.1 0 1.9.6 1.9 1.9c-.02 0 0 3.4 0 3.4h-.7v-3.2c0-1-.4-1.5-1.3-1.5c-1.2 0-1.7 1-1.7 2.1v2.6h-.7zm5.7-2.6c0-1.7 1-2.7 2.3-2.7c.7 0 1.5.3 1.8.9V200h.7v7.3h-.7v-.8c-.3.6-1.1.9-1.8.9c-1.3 0-2.3-1-2.3-2.7zm2.4 2.2c1.1 0 1.7-1.1 1.7-2.2c0-1.1-.6-2.1-1.7-2.1c-1.2 0-1.7 1-1.7 2.1c0 1.1.5 2.2 1.7 2.2zm6.4-2.2c0-1.7.9-2.7 2.3-2.7c.7 0 1.4.3 1.8.9c-.04.03 0-2.9 0-2.9h.6v7.3h-.6s-.04-.8 0-.8c-.4.6-1.1.9-1.8.9c-1.4 0-2.3-1-2.3-2.7zm2.4 2.2c1.1 0 1.7-1.1 1.7-2.2c0-1.1-.6-2.1-1.7-2.1h-.1c-1.1 0-1.6 1-1.6 2.1c0 1.1.5 2.2 1.6 2.2h.1zm3.7-2.2c0-1.8 1.1-2.7 2.3-2.7c1.3 0 2.2 1 2.2 2.3c-.03.04 0 .5 0 .5c0 0-3.81-.04-3.8 0c0 1.4.8 2.1 1.6 2.1h.1c.7 0 1.2-.4 1.4-1.1h.7c-.3 1.1-1.1 1.6-2.2 1.6c-1.3 0-2.3-.9-2.3-2.7zm3.8-.5c0-.9-.6-1.6-1.4-1.6h-.1c-.7 0-1.4.3-1.6 1.6h3.1zm1.6 1.6h.7c.1.7.6 1.1 1.4 1.1h.1c.7 0 1.2-.4 1.2-1c0-.4-.3-.6-1-.8l-.7-.2c-.8-.1-1.5-.5-1.5-1.4c0-1 .9-1.5 1.9-1.5c1.3 0 1.9.8 2 1.7h-.7c0-.6-.5-1.1-1.2-1.1h-.1c-.8 0-1.2.4-1.2.9c0 .4.3.7 1 .8l.8.2c.7.1 1.3.5 1.3 1.4c0 1-.7 1.5-1.9 1.5c-1.3 0-2-.7-2.1-1.6zm5.4-4.7v-.9h.8v.9h-.8zm.1 6.2v-5.2h.6v5.2h-.6zm1.9.8h.7c.1.6.7 1 1.6 1h.1c.9 0 1.7-.5 1.7-1.9v-.8c-.3.6-.9.9-1.7.9c-1.3 0-2.3-.9-2.3-2.6c0-1.7 1-2.7 2.3-2.7c.8 0 1.4.3 1.7.9v-.8h.7v5.2c0 1.4-.9 2.3-2.4 2.3c-1.6 0-2.3-.6-2.4-1.5zm2.5-1.3c.9 0 1.6-.8 1.6-2.1c0-1.3-.7-2.1-1.6-2.1h-.1c-1 0-1.6.8-1.6 2.1c0 1.3.6 2.1 1.6 2.1h.1zm4 .5v-5.2h.7s-.04.87 0 .9c.3-.6.9-1 1.8-1c1 0 1.8.6 1.8 1.9c.03 0 0 3.4 0 3.4h-.6s-.05-3.19 0-3.2c0-1-.5-1.5-1.3-1.5h-.1c-1.1 0-1.6 1-1.6 2.1c-.04.01 0 2.6 0 2.6h-.7zm5.5 1.2v-.4s.3.02.3 0c.4 0 .6-.2.6-.6c.03-.01 0-.2 0-.2h-.5v-1h1v1.2c0 .7-.4 1-1 1c.01.04-.4 0-.4 0zm5.3-3.8c0-1.7 1-2.7 2.3-2.7c.7 0 1.5.3 1.8.9V200h.7v7.3h-.7v-.8c-.3.6-1.1.9-1.8.9c-1.3 0-2.3-1-2.3-2.7zm2.4 2.2c1.1 0 1.7-1.1 1.7-2.2c0-1.1-.6-2.1-1.7-2.1c-1.2 0-1.7 1-1.7 2.1c0 1.1.5 2.2 1.7 2.2zm4 .4v-5.2h.7s-.02 1.18 0 1.2c.2-.9.9-1.3 1.6-1.3c0 .03.5 0 .5 0v.7s-.44-.04-.4 0c-1.1 0-1.7.8-1.7 2.1c.03-.02 0 2.5 0 2.5h-.7zm3.8-6.2v-.9h.7v.9h-.7zm0 6.2v-5.2h.7v5.2h-.7zm5.9-5.2h.7l-2 5.2h-.9l-2-5.2h.8l1.7 4.6l1.7-4.6zm1.3 2.6c0-1.8 1.2-2.7 2.4-2.7c1.2 0 2.1 1 2.1 2.3c-.02.04 0 .5 0 .5c0 0-3.8-.04-3.8 0c0 1.4.8 2.1 1.7 2.1c.7 0 1.2-.4 1.4-1.1h.7c-.3 1.1-1.1 1.6-2.1 1.6c-1.4 0-2.4-.9-2.4-2.7zm3.8-.5c0-.9-.6-1.6-1.4-1.6h-.1c-.7 0-1.4.3-1.6 1.6h3.1zm2.1 3.1v-5.2h.6s.04.87 0 .9c.3-.6 1-1 1.9-1c1 0 1.8.6 1.8 1.9c.01 0 0 3.4 0 3.4h-.7s.03-3.19 0-3.2c0-1-.4-1.5-1.2-1.5h-.1c-1.1 0-1.7 1-1.7 2.1c.04.01 0 2.6 0 2.6h-.6zm9.2-.8c.05 0 0 .8 0 .8h-.6V200h.6s.05 2.93 0 2.9c.4-.6 1.1-.9 1.8-.9c1.4 0 2.3 1 2.3 2.7c0 1.7-.9 2.7-2.3 2.7c-.7 0-1.4-.3-1.8-.9zm1.8.4c1.1 0 1.7-1.1 1.7-2.2c0-1.1-.6-2.1-1.7-2.1h-.1c-1.1 0-1.7 1-1.7 2.1c0 1.1.6 2.2 1.7 2.2h.1zm8.1-4.8l-2.2 5.1v1c0 .6-.3.9-1 .9c.01-.03-1.6 0-1.6 0v-.6h1.5c.3 0 .4-.1.4-.4c.02-.03 0-.9 0-.9l-2.2-5.1h.7l1.8 4.2l1.9-4.2h.7zm3.1 3.8c0-1.2 1-1.5 1.8-1.6l1.7-.1s-.04-.22 0-.2c0-.9-.5-1.4-1.4-1.4c-.7 0-1.2.3-1.3 1h-.7c.1-1 .9-1.6 2-1.6c1.4 0 2 .9 2 2v2.2c0 .3 0 .8.1 1.1h-.6c-.1-.2-.1-.5-.1-.8c-.2.5-.9.9-1.8.9c-1 0-1.7-.6-1.7-1.5zm1.8 1c.8 0 1.7-.7 1.7-1.5c-.04.05 0-.7 0-.7c0 0-1.56.15-1.6.1c-.7.1-1.2.5-1.2 1c0 .6.4 1.1 1 1.1h.1zm4 .4v-5.2h.7s-.05.87 0 .9c.3-.6.9-1 1.8-1c1 0 1.8.6 1.8 1.9c.03 0 0 3.4 0 3.4h-.7s.05-3.19 0-3.2c0-1-.4-1.5-1.2-1.5h-.1c-1.1 0-1.6 1-1.6 2.1c-.05.01 0 2.6 0 2.6h-.7zm8.5-1.7c.03-.05 0-3.5 0-3.5h.7v3.2c0 1 .4 1.6 1.3 1.6h.1c.7 0 1.5-.8 1.5-2v-2.8h.7v5.2h-.7v-1c-.3.7-.9 1.1-1.8 1.1c-1.1 0-1.8-.7-1.8-1.8zm6 1.7v-5.2h.6s.04.87 0 .9c.3-.6 1-1 1.9-1c1 0 1.8.6 1.8 1.9c.02 0 0 3.4 0 3.4h-.7s.04-3.19 0-3.2c0-1-.4-1.5-1.2-1.5h-.1c-1.1 0-1.7 1-1.7 2.1c.04.01 0 2.6 0 2.6h-.6zm5.6-2.6c0-1.7 1-2.7 2.4-2.7c.7 0 1.4.3 1.7.9c.03.03 0-2.9 0-2.9h.7v7.3h-.7s.03-.8 0-.8c-.3.6-1 .9-1.7.9c-1.4 0-2.4-1-2.4-2.7zm2.4 2.2c1.2 0 1.7-1.1 1.7-2.2c0-1.1-.5-2.1-1.7-2.1c-1.1 0-1.7 1-1.7 2.1c0 1.1.6 2.2 1.7 2.2zm3.8-2.2c0-1.8 1.1-2.7 2.3-2.7c1.3 0 2.1 1 2.1 2.3c.03.04 0 .5 0 .5c0 0-3.75-.04-3.7 0c0 1.4.7 2.1 1.6 2.1h.1c.7 0 1.1-.4 1.3-1.1h.7c-.2 1.1-1 1.6-2.1 1.6c-1.3 0-2.3-.9-2.3-2.7zm3.8-.5c-.1-.9-.6-1.6-1.4-1.6h-.1c-.7 0-1.5.3-1.6 1.6h3.1zm2 3.1v-5.2h.6s.04 1.18 0 1.2c.3-.9.9-1.3 1.7-1.3c-.03.03.4 0 .4 0v.7s-.38-.04-.4 0c-1 0-1.6.8-1.6 2.1c-.01-.02 0 2.5 0 2.5h-.7zm3.3-1.5h.7c0 .7.6 1.1 1.3 1.1h.1c.8 0 1.2-.4 1.2-1c0-.4-.2-.6-.9-.8l-.8-.2c-.8-.1-1.4-.5-1.4-1.4c0-1 .9-1.5 1.9-1.5c1.3 0 1.9.8 1.9 1.7h-.6c-.1-.6-.6-1.1-1.3-1.1h-.1c-.7 0-1.1.4-1.1.9c0 .4.3.7.9.8l.8.2c.8.1 1.4.5 1.4 1.4c0 1-.8 1.5-1.9 1.5c-1.4 0-2.1-.7-2.1-1.6zm6.8 1.5c-.6 0-1-.2-1-.9c.05-.01 0-3.7 0-3.7h-1.2v-.6h1.2v-1.7h.7v1.7h1.3v.6h-1.3s.03 3.64 0 3.6c0 .4.1.5.4.5c.05-.04 1.1 0 1.1 0v.5s-1.16.04-1.2 0zm2-1.4c0-1.2 1-1.5 1.8-1.6l1.6-.1s.02-.22 0-.2c0-.9-.5-1.4-1.3-1.4c-.7 0-1.3.3-1.4 1h-.6c0-1 .9-1.6 2-1.6c1.3 0 2 .9 2 2v2.2c0 .3 0 .8.1 1.1h-.7v-.8c-.2.5-1 .9-1.9.9c-.9 0-1.6-.6-1.6-1.5zm1.8 1c.7 0 1.6-.7 1.6-1.5c.02.05 0-.7 0-.7c0 0-1.5.15-1.5.1c-.7.1-1.3.5-1.3 1c0 .6.5 1.1 1.1 1.1h.1zm3.9.4v-5.2h.7s.01.87 0 .9c.3-.6 1-1 1.8-1c1.1 0 1.9.6 1.9 1.9c-.01 0 0 3.4 0 3.4h-.7v-3.2c0-1-.4-1.5-1.3-1.5c-1.2 0-1.7 1-1.7 2.1v2.6h-.7zm5.7-2.6c0-1.7 1-2.7 2.3-2.7c.7 0 1.5.3 1.8.9V200h.7v7.3h-.7v-.8c-.3.6-1.1.9-1.8.9c-1.3 0-2.3-1-2.3-2.7zm2.4 2.2c1.1 0 1.7-1.1 1.7-2.2c0-1.1-.6-2.1-1.7-2.1c-1.2 0-1.7 1-1.7 2.1c0 1.1.5 2.2 1.7 2.2zm4-5.8v-.9h.8v.9h-.8zm.1 6.2v-5.2h.6v5.2h-.6zm2.3 0v-5.2h.7v.9c.3-.6 1-1 1.8-1c1.1 0 1.9.6 1.9 1.9c-.02 0 0 3.4 0 3.4h-.7v-3.2c0-1-.4-1.5-1.3-1.5c-1.2 0-1.7 1-1.7 2.1v2.6h-.7zm5.6.8h.7c.1.6.7 1 1.6 1h.1c.9 0 1.7-.5 1.7-1.9v-.8c-.3.6-.9.9-1.7.9c-1.4 0-2.3-.9-2.3-2.6c0-1.7.9-2.7 2.3-2.7c.8 0 1.4.3 1.7.9v-.8h.7s-.02 5.19 0 5.2c0 1.4-.9 2.3-2.4 2.3c-1.6 0-2.3-.6-2.4-1.5zm2.5-1.3c.9 0 1.6-.8 1.6-2.1c0-1.3-.7-2.1-1.6-2.1h-.1c-1 0-1.6.8-1.6 2.1c0 1.3.6 2.1 1.6 2.1h.1zm6.3-2.1c0-1.6 1-2.7 2.4-2.7c1.3 0 2.4 1.1 2.4 2.7c0 1.6-1.1 2.7-2.4 2.7c-1.4 0-2.4-1.1-2.4-2.7zm2.4 2.2c1 0 1.7-.8 1.7-2.2c0-1.3-.7-2.1-1.7-2.1h-.1c-.9 0-1.6.8-1.6 2.1c0 1.4.7 2.2 1.6 2.2h.1zm4.2.4v-4.6h-1.2v-.6h1.2v-1.2c0-.7.3-.9 1-.9h1.3v.6s-1.21-.04-1.2 0c-.3 0-.4.1-.4.4c-.03-.02 0 1.1 0 1.1h1.3v.6h-1.3v4.6h-.7zm5.9 0v-4.6h-1.2v-.6h1.2s-.02-1.17 0-1.2c0-.7.3-.9 1-.9h1.3v.6s-1.22-.04-1.2 0c-.3 0-.4.1-.4.4c-.04-.02 0 1.1 0 1.1h1.3v.6h-1.3v4.6h-.7zm3-1.7c.02-.05 0-3.5 0-3.5h.7v3.2c0 1 .4 1.6 1.3 1.6h.1c.7 0 1.5-.8 1.5-2v-2.8h.7v5.2h-.7v-1c-.3.7-.9 1.1-1.8 1.1c-1.1 0-1.8-.7-1.8-1.8zm7.5 1.7c-.7 0-1-.2-1-.9c-.02-.01 0-3.7 0-3.7h-1.2v-.6h1.2v-1.7h.7v1.7h1.3v.6h-1.3s-.04 3.64 0 3.6c0 .4.1.5.4.5c-.02-.04 1 0 1 0v.5s-1.12.04-1.1 0zm2.1-1.7c.04-.05 0-3.5 0-3.5h.7s.02 3.24 0 3.2c0 1 .4 1.6 1.3 1.6h.1c.8 0 1.5-.8 1.5-2v-2.8h.7v5.2h-.7v-1c-.3.7-.9 1.1-1.7 1.1c-1.2 0-1.9-.7-1.9-1.8zm6 1.7v-5.2h.6v1.2c.2-.9.9-1.3 1.6-1.3c.03.03.5 0 .5 0v.7s-.42-.04-.4 0c-1 0-1.6.8-1.6 2.1c-.05-.02 0 2.5 0 2.5h-.7zm3.2-2.6c0-1.8 1.1-2.7 2.3-2.7c1.3 0 2.1 1 2.1 2.3c.03.04 0 .5 0 .5c0 0-3.75-.04-3.8 0c.1 1.4.8 2.1 1.7 2.1h.1c.7 0 1.1-.4 1.3-1.1h.7c-.2 1.1-1 1.6-2.1 1.6c-1.3 0-2.3-.9-2.3-2.7zm3.7-.5c0-.9-.5-1.6-1.4-1.6h-.1c-.6 0-1.4.3-1.5 1.6h3z" stroke="none" fill="#192d39"/></g><g id="Polygon15557"><path d="m13.9 192.8v-7.3h5.2v.7h-4.4v2.5h3.7v.7h-3.7v2.8h4.5v.6h-5.3zm6.3-1.4c0-1.2 1-1.5 1.8-1.6l1.7-.1s-.04-.22 0-.2c0-.9-.5-1.4-1.4-1.4c-.7 0-1.2.3-1.3 1h-.7c.1-1 .9-1.6 2-1.6c1.4 0 2 .9 2 2v2.2c0 .3 0 .8.1 1.1h-.6c-.1-.2-.1-.5-.1-.8c-.2.5-.9.9-1.8.9c-1 0-1.7-.6-1.7-1.5zm1.8 1c.8 0 1.7-.7 1.7-1.5c-.04.05 0-.7 0-.7c0 0-1.56.15-1.6.1c-.7.1-1.2.5-1.2 1c0 .6.4 1.1 1 1.1h.1zm3.7-2.2c0-1.5.8-2.7 2.4-2.7c1.1 0 1.9.7 2 1.8h-.7c-.1-.7-.6-1.2-1.3-1.2h-.1c-1.1 0-1.7 1-1.7 2.1c0 1.2.6 2.2 1.7 2.2h.1c.7 0 1.2-.6 1.3-1.2h.7c-.2 1-.9 1.7-2 1.7c-1.6 0-2.4-1.1-2.4-2.7zm5.7 2.6v-7.3h.7s.02 2.98 0 3c.4-.6 1-1 1.9-1c1.2 0 1.8.8 1.8 1.9v3.4h-.7v-3.2c0-1-.4-1.5-1.2-1.5h-.2c-.8 0-1.6.7-1.6 1.9c.02 0 0 2.8 0 2.8h-.7zm8.3-2.6c0-1.7 1-2.7 2.4-2.7c.7 0 1.4.3 1.7.9c.03.03 0-2.9 0-2.9h.7v7.3h-.7s.03-.8 0-.8c-.3.6-1 .9-1.7.9c-1.4 0-2.4-1-2.4-2.7zm2.4 2.2c1.2 0 1.7-1.1 1.7-2.2c0-1.1-.5-2.1-1.7-2.1c-1.1 0-1.7 1-1.7 2.1c0 1.1.6 2.2 1.7 2.2zm3.8-2.2c0-1.8 1.1-2.7 2.3-2.7c1.3 0 2.1 1 2.1 2.3c.04.04 0 .5 0 .5c0 0-3.74-.04-3.7 0c0 1.4.7 2.1 1.6 2.1h.1c.7 0 1.1-.4 1.3-1.1h.7c-.2 1.1-1 1.6-2.1 1.6c-1.3 0-2.3-.9-2.3-2.7zm3.8-.5c-.1-.9-.6-1.6-1.4-1.6h-.1c-.7 0-1.5.3-1.6 1.6h3.1zm5.4-2.1h.8l-2.1 5.2h-.8l-2-5.2h.7l1.7 4.6l1.7-4.6zm1.4 2.6c0-1.8 1.1-2.7 2.3-2.7c1.3 0 2.1 1 2.1 2.3c.03.04 0 .5 0 .5c0 0-3.75-.04-3.7 0c0 1.4.7 2.1 1.6 2.1h.1c.7 0 1.1-.4 1.3-1.1h.7c-.2 1.1-1 1.6-2.1 1.6c-1.3 0-2.3-.9-2.3-2.7zm3.8-.5c-.1-.9-.6-1.6-1.4-1.6h-.2c-.6 0-1.4.3-1.5 1.6h3.1zm2 3.1v-7.3h.7v7.3h-.7zm2-2.6c0-1.6 1.1-2.7 2.5-2.7c1.3 0 2.4 1.1 2.4 2.7c0 1.6-1.1 2.7-2.4 2.7c-1.4 0-2.5-1.1-2.5-2.7zm2.5 2.2c1 0 1.7-.8 1.7-2.2c0-1.3-.7-2.1-1.7-2.1h-.1c-.9 0-1.7.8-1.7 2.1c0 1.4.8 2.2 1.7 2.2h.1zm3.7 2.5v-7.3h.7v.8c.3-.6 1.1-.9 1.8-.9c1.3 0 2.3 1 2.3 2.7c0 1.7-1 2.7-2.3 2.7c-.7 0-1.5-.3-1.8-.9v2.9h-.7zm2.4-2.5c1.2 0 1.7-1.1 1.7-2.2c0-1.1-.5-2.1-1.7-2.1c-1.1 0-1.7 1-1.7 2.1c0 1.1.6 2.2 1.7 2.2zm3.8.4v-5.2h.7s-.05.83 0 .8c.3-.5.9-.9 1.7-.9c.8 0 1.4.4 1.6 1.1c.4-.7 1.1-1.1 1.9-1.1c1 0 1.8.6 1.8 1.9c-.01 0 0 3.4 0 3.4h-.7v-3.2c0-1-.4-1.5-1.2-1.5h-.1c-1 0-1.5 1-1.5 2.1c-.03.01 0 2.6 0 2.6h-.7v-3.2c0-1-.4-1.5-1.2-1.5h-.1c-1 0-1.5 1-1.5 2.1c-.05.01 0 2.6 0 2.6h-.7zm9-2.6c0-1.8 1.1-2.7 2.3-2.7c1.3 0 2.2 1 2.2 2.3c-.04.04 0 .5 0 .5c0 0-3.82-.04-3.8 0c0 1.4.8 2.1 1.6 2.1h.1c.7 0 1.2-.4 1.4-1.1h.7c-.3 1.1-1.1 1.6-2.2 1.6c-1.3 0-2.3-.9-2.3-2.7zm3.8-.5c0-.9-.6-1.6-1.4-1.6h-.1c-.7 0-1.4.3-1.6 1.6h3.1zm2 3.1v-5.2h.7s.02.87 0 .9c.3-.6 1-1 1.9-1c1 0 1.8.6 1.8 1.9v3.4h-.7s.02-3.19 0-3.2c0-1-.4-1.5-1.2-1.5h-.1c-1.1 0-1.7 1-1.7 2.1c.02.01 0 2.6 0 2.6h-.7zm7.5 0c-.7 0-1-.2-1-.9c-.01-.01 0-3.7 0-3.7h-1.2v-.6h1.2v-1.7h.7v1.7h1.3v.6h-1.3s-.03 3.64 0 3.6c0 .4.1.5.4.5c-.01-.04 1 0 1 0v.5s-1.12.04-1.1 0zm4.8-6.2v-.9h.8v.9h-.8zm0 6.2v-5.2h.7v5.2h-.7zm2-1.5h.7c0 .7.6 1.1 1.3 1.1h.1c.8 0 1.2-.4 1.2-1c0-.4-.2-.6-.9-.8l-.8-.2c-.8-.1-1.4-.5-1.4-1.4c0-1 .9-1.5 1.9-1.5c1.3 0 1.9.8 1.9 1.7h-.6c-.1-.6-.6-1.1-1.3-1.1h-.1c-.7 0-1.1.4-1.1.9c0 .4.3.7.9.8l.8.2c.8.1 1.4.5 1.4 1.4c0 1-.8 1.5-1.9 1.5c-1.4 0-2.1-.7-2.1-1.6zm7.7.1c0-1.2 1-1.5 1.8-1.6c.02.01 1.7-.1 1.7-.1c0 0-.02-.22 0-.2c0-.9-.5-1.4-1.3-1.4h-.1c-.7 0-1.2.3-1.3 1h-.7c.1-1 .9-1.6 2-1.6c1.4 0 2.1.9 2.1 2v3.3h-.6c-.1-.2-.1-.5-.1-.8c-.2.5-.9.9-1.8.9c-.9 0-1.7-.6-1.7-1.5zm1.9 1c.7 0 1.6-.7 1.6-1.5c-.02.05 0-.7 0-.7c0 0-1.54.15-1.5.1c-.8.1-1.3.5-1.3 1c0 .6.5 1.1 1 1.1h.2zm3.9.4v-5.2h.7s-.03.87 0 .9c.3-.6 1-1 1.8-1c1.1 0 1.8.6 1.8 1.9c.05 0 0 3.4 0 3.4h-.6s-.03-3.19 0-3.2c0-1-.5-1.5-1.3-1.5h-.1c-1.1 0-1.6 1-1.6 2.1c-.03.01 0 2.6 0 2.6h-.7zm8.3-2.6c0-1.8 1.1-2.7 2.3-2.7c1.3 0 2.1 1 2.1 2.3c.05.04 0 .5 0 .5c0 0-3.73-.04-3.7 0c0 1.4.8 2.1 1.6 2.1h.1c.7 0 1.2-.4 1.4-1.1h.6c-.2 1.1-1 1.6-2.1 1.6c-1.3 0-2.3-.9-2.3-2.7zm3.8-.5c-.1-.9-.6-1.6-1.4-1.6h-.1c-.7 0-1.5.3-1.6 1.6h3.1zm5.5-2.1h.7l-2 5.2h-.9l-2-5.2h.7l1.7 4.6l1.8-4.6zm1.3 2.6c0-1.6 1-2.7 2.4-2.7c1.3 0 2.4 1.1 2.4 2.7c0 1.6-1.1 2.7-2.4 2.7c-1.4 0-2.4-1.1-2.4-2.7zm2.4 2.2c1 0 1.7-.8 1.7-2.2c0-1.3-.7-2.1-1.7-2.1h-.1c-.9 0-1.6.8-1.6 2.1c0 1.4.7 2.2 1.6 2.2h.1zm3.8.4v-7.3h.6v7.3h-.6zm2.3-1.7c-.03-.05 0-3.5 0-3.5h.6s.05 3.24 0 3.2c0 1 .5 1.6 1.3 1.6h.1c.8 0 1.5-.8 1.5-2c.04.02 0-2.8 0-2.8h.7v5.2h-.7s.04-.95 0-1c-.2.7-.9 1.1-1.7 1.1c-1.2 0-1.8-.7-1.8-1.8zm7.4 1.7c-.7 0-1-.2-1-.9c.02-.01 0-3.7 0-3.7h-1.2v-.6h1.2v-1.7h.7v1.7h1.3v.6h-1.3v3.6c0 .4.1.5.4.5c.02-.04 1.1 0 1.1 0v.5s-1.18.04-1.2 0zm2.2-6.2v-.9h.8v.9h-.8zm0 6.2v-5.2h.7v5.2h-.7zm2.1-2.6c0-1.6 1-2.7 2.4-2.7c1.3 0 2.4 1.1 2.4 2.7c0 1.6-1.1 2.7-2.4 2.7c-1.4 0-2.4-1.1-2.4-2.7zm2.4 2.2c1 0 1.7-.8 1.7-2.2c0-1.3-.7-2.1-1.7-2.1h-.1c-.9 0-1.6.8-1.6 2.1c0 1.4.7 2.2 1.6 2.2h.1zm3.8.4v-5.2h.6s.04.87 0 .9c.3-.6 1-1 1.9-1c1 0 1.8.6 1.8 1.9c.01 0 0 3.4 0 3.4h-.7s.03-3.19 0-3.2c0-1-.4-1.5-1.2-1.5h-.1c-1.1 0-1.7 1-1.7 2.1c.04.01 0 2.6 0 2.6h-.6zm8.5-6.2v-.9h.8v.9h-.8zm.1 6.2v-5.2h.6v5.2h-.6zm2.3 0v-5.2h.7s.01.87 0 .9c.3-.6 1-1 1.8-1c1.1 0 1.9.6 1.9 1.9c-.01 0 0 3.4 0 3.4h-.7v-3.2c0-1-.4-1.5-1.3-1.5c-1.2 0-1.7 1-1.7 2.1v2.6h-.7zm8.3-2.6c0-1.8 1.2-2.7 2.4-2.7c1.2 0 2.1 1 2.1 2.3v.5s-3.79-.04-3.8 0c0 1.4.8 2.1 1.7 2.1c.7 0 1.2-.4 1.4-1.1h.7c-.3 1.1-1.1 1.6-2.1 1.6c-1.3 0-2.4-.9-2.4-2.7zm3.8-.5c0-.9-.6-1.6-1.4-1.6h-.1c-.7 0-1.4.3-1.6 1.6h3.1zm1.3 3.1l2-2.6l-2-2.6h.8l1.6 2l1.5-2h.8l-1.9 2.5l2 2.7h-.8l-1.6-2.1l-1.7 2.1h-.7zm9.4 2.1s-.03-2.9 0-2.9c-.3.6-1.1.9-1.8.9c-1.3 0-2.3-1-2.3-2.7c0-1.7 1-2.7 2.3-2.7c.7 0 1.5.3 1.8.9c-.03.03 0-.8 0-.8h.7v7.3h-.7zm-1.7-2.5c1.1 0 1.7-1.1 1.7-2.2c0-1.1-.6-2.1-1.7-2.1h-.1c-1.1 0-1.6 1-1.6 2.1c0 1.1.5 2.2 1.6 2.2h.1zm4-1.3c-.02-.05 0-3.5 0-3.5h.7s-.04 3.24 0 3.2c0 1 .4 1.6 1.2 1.6h.1c.8 0 1.6-.8 1.6-2c-.05.02 0-2.8 0-2.8h.6v5.2h-.6s-.05-.95 0-1c-.3.7-.9 1.1-1.8 1.1c-1.2 0-1.8-.7-1.8-1.8zm5.9-4.5v-.9h.7v.9h-.7zm0 6.2v-5.2h.7v5.2h-.7zm2-1.5h.6c.1.7.7 1.1 1.4 1.1h.1c.7 0 1.2-.4 1.2-1c0-.4-.2-.6-.9-.8l-.8-.2c-.8-.1-1.4-.5-1.4-1.4c0-1 .9-1.5 1.9-1.5c1.3 0 1.9.8 1.9 1.7h-.7c0-.6-.5-1.1-1.2-1.1h-.1c-.7 0-1.1.4-1.1.9c0 .4.2.7.9.8l.8.2c.8.1 1.4.5 1.4 1.4c0 1-.8 1.5-1.9 1.5c-1.4 0-2.1-.7-2.1-1.6zm5.3-4.7v-.9h.8v.9h-.8zm.1 6.2v-5.2h.7v5.2h-.7zm3.9 0c-.7 0-1-.2-1-.9c-.03-.01 0-3.7 0-3.7h-1.2v-.6h1.2v-1.7h.7v1.7h1.3v.6h-1.3s-.05 3.64 0 3.6c0 .4.1.5.4.5c-.03-.04 1 0 1 0v.5s-1.13.04-1.1 0zm1.8-2.6c0-1.8 1.1-2.7 2.3-2.7c1.3 0 2.2 1 2.2 2.3c-.03.04 0 .5 0 .5c0 0-3.81-.04-3.8 0c0 1.4.8 2.1 1.6 2.1h.1c.7 0 1.2-.4 1.4-1.1h.7c-.3 1.1-1.1 1.6-2.2 1.6c-1.3 0-2.3-.9-2.3-2.7zm3.8-.5c0-.9-.6-1.6-1.4-1.6h-.1c-.7 0-1.4.3-1.6 1.6h3.1zm8.5 5.2s-.05-2.9 0-2.9c-.4.6-1.1.9-1.8.9c-1.4 0-2.3-1-2.3-2.7c0-1.7.9-2.7 2.3-2.7c.7 0 1.4.3 1.8.9c-.05.03 0-.8 0-.8h.6v7.3h-.6zm-1.7-2.5c1.1 0 1.7-1.1 1.7-2.2c0-1.1-.6-2.1-1.7-2.1h-.1c-1.1 0-1.7 1-1.7 2.1c0 1.1.6 2.2 1.7 2.2h.1zm4-1.3c-.04-.05 0-3.5 0-3.5h.6s.04 3.24 0 3.2c0 1 .5 1.6 1.3 1.6h.1c.8 0 1.5-.8 1.5-2c.03.02 0-2.8 0-2.8h.7v5.2h-.7s.03-.95 0-1c-.2.7-.9 1.1-1.7 1.1c-1.2 0-1.8-.7-1.8-1.8zm5.6.3c0-1.2 1-1.5 1.8-1.6l1.7-.1s-.05-.22 0-.2c0-.9-.6-1.4-1.4-1.4c-.7 0-1.3.3-1.3 1h-.7c.1-1 .9-1.6 2-1.6c1.4 0 2 .9 2 2v2.2c0 .3 0 .8.1 1.1h-.6c-.1-.2-.1-.5-.1-.8c-.2.5-.9.9-1.9.9c-.9 0-1.6-.6-1.6-1.5zm1.8 1c.8 0 1.7-.7 1.7-1.5c-.05.05 0-.7 0-.7c0 0-1.57.15-1.6.1c-.7.1-1.2.5-1.2 1c0 .6.4 1.1 1 1.1h.1zm4 .4v-7.3h.6v7.3h-.6zm2.3-6.2v-.9h.8v.9h-.8zm0 6.2v-5.2h.7v5.2h-.7zm3.9 0c-.7 0-1-.2-1-.9c.01-.01 0-3.7 0-3.7h-1.2v-.6h1.2v-1.7h.7v1.7h1.3v.6h-1.3s-.01 3.64 0 3.6c0 .4.1.5.4.5c.01-.04 1.1 0 1.1 0v.5s-1.19.04-1.2 0zm6.7-5.2l-2.2 5.1s.03.96 0 1c0 .6-.3.9-1 .9c.04-.03-1.6 0-1.6 0v-.6h1.5c.3 0 .5-.1.5-.4c-.05-.03 0-.9 0-.9l-2.3-5.1h.8l1.8 4.2l1.8-4.2h.7z" stroke="none" fill="#192d39"/></g><g id="Polygon15556"><path d="m20 163.1h.7l-1.7 5.3h-.9l-1.2-4.6l-1.1 4.6h-1l-1.6-5.3h.7l1.4 4.7l1.2-4.7h.9l1.2 4.7l1.4-4.7zm1.4 2.6c0-1.8 1.1-2.7 2.3-2.7c1.3 0 2.2 1 2.2 2.4c-.04-.02 0 .4 0 .4h-3.8c0 1.5.8 2.1 1.6 2.1h.1c.7 0 1.2-.3 1.4-1h.7c-.3 1-1.1 1.6-2.2 1.6c-1.3 0-2.3-1-2.3-2.8zm3.8-.5c0-.9-.6-1.6-1.4-1.6h-.1c-.7 0-1.4.4-1.6 1.6h3.1zm2 3.2V161h.7v7.4h-.7zm2.4 0V161h.7v7.4h-.7zm4.9-1.8c.04-.01 0-3.5 0-3.5h.7s.02 3.28 0 3.3c0 1 .4 1.5 1.3 1.5h.1c.8 0 1.5-.7 1.5-1.9v-2.9h.7v5.3h-.7v-1c-.3.7-.9 1.1-1.7 1.1c-1.2 0-1.9-.8-1.9-1.9zm6 1.8v-5.3h.7s-.05.9 0 .9c.3-.6.9-1 1.8-1c1 0 1.8.7 1.8 1.9c.03.04 0 3.5 0 3.5h-.7s.04-3.25 0-3.3c0-1-.4-1.5-1.2-1.5h-.1c-1.1 0-1.6 1-1.6 2.1c-.05.05 0 2.7 0 2.7h-.7zm5.6-2.7c0-1.6 1-2.7 2.4-2.7c.7 0 1.4.4 1.7 1c.03-.04 0-3 0-3h.7v7.4h-.7s.03-.87 0-.9c-.3.6-1 1-1.7 1c-1.4 0-2.4-1.1-2.4-2.8zm2.5 2.2c1.1 0 1.6-1 1.6-2.2c0-1.1-.5-2.1-1.6-2.1h-.1c-1.1 0-1.7 1-1.7 2.1c0 1.2.6 2.2 1.7 2.2h.1zm3.7-2.2c0-1.8 1.1-2.7 2.3-2.7c1.3 0 2.1 1 2.1 2.4c.04-.02 0 .4 0 .4H53c0 1.5.8 2.1 1.6 2.1h.1c.7 0 1.2-.3 1.4-1h.6c-.2 1-1 1.6-2.1 1.6c-1.3 0-2.3-1-2.3-2.8zm3.8-.5c-.1-.9-.6-1.6-1.4-1.6h-.1c-.7 0-1.5.4-1.6 1.6h3.1zm2 3.2v-5.3h.6s.05 1.22 0 1.2c.3-.8 1-1.2 1.7-1.2c-.02-.03.4 0 .4 0v.6h-.4c-1 0-1.6.8-1.6 2.1v2.6h-.7zm10.1-5.3h.6l-1.6 5.3h-1l-1.1-4.6l-1.2 4.6h-.9l-1.7-5.3h.7l1.4 4.7l1.2-4.7h.9l1.2 4.7l1.5-4.7zm1.3 3.8c0-1.1 1-1.5 1.8-1.6c.01.05 1.7-.1 1.7-.1c0 0-.03-.19 0-.2c0-.9-.5-1.4-1.3-1.4h-.1c-.7 0-1.2.3-1.3 1h-.7c.1-.9.9-1.6 2-1.6c1.4 0 2 .9 2 2v2.2c0 .3 0 .8.1 1.2h-.6c-.1-.3-.1-.6-.1-.9c-.2.5-.9 1-1.8 1c-1 0-1.7-.7-1.7-1.6zm1.8 1c.8 0 1.7-.6 1.7-1.4c-.03-.02 0-.7 0-.7c0 0-1.56.08-1.6.1c-.7 0-1.2.4-1.2 1c0 .6.4 1 1 1h.1zm8.3-4.8l-2.1 5.1s-.02.99 0 1c0 .6-.3.9-1 .9h-1.6v-.6s1.48.03 1.5 0c.3 0 .4-.1.4-.4v-.9l-2.2-5.1h.7l1.8 4.3l1.8-4.3h.7zm3.5 7.4v-7.4h.7s-.04.86 0 .9c.3-.6 1-1 1.7-1c1.4 0 2.4 1.1 2.4 2.7c0 1.7-1 2.8-2.4 2.8c-.7 0-1.4-.4-1.7-1c-.04.03 0 3 0 3h-.7zm2.4-2.6c1.1 0 1.7-1 1.7-2.2c0-1.1-.6-2.1-1.7-2.1h-.1c-1.1 0-1.6 1-1.6 2.1c0 1.2.5 2.2 1.6 2.2h.1zm3.7.5v-5.3h.6s.05 1.22 0 1.2c.3-.8 1-1.2 1.7-1.2c-.02-.03.4 0 .4 0v.6h-.4c-1 0-1.6.8-1.6 2.1v2.6h-.7zm3.7-6.2v-.9h.8v.9h-.8zm.1 6.2v-5.3h.7v5.3h-.7zm2-2.7c0-1.6 1.1-2.7 2.4-2.7c1.4 0 2.4 1.1 2.4 2.7c0 1.7-1 2.8-2.4 2.8c-1.3 0-2.4-1.1-2.4-2.8zm2.5 2.2c.9 0 1.7-.8 1.7-2.2c0-1.3-.8-2.1-1.7-2.1h-.1c-1 0-1.7.8-1.7 2.1c0 1.4.7 2.2 1.7 2.2h.1zm3.7.5v-5.3h.6s.03 1.22 0 1.2c.3-.8.9-1.2 1.7-1.2c-.04-.03.4 0 .4 0v.6h-.4c-1 0-1.6.8-1.6 2.1c-.02.02 0 2.6 0 2.6h-.7zm7.9 0c-.7 0-1-.3-1-1c.01.03 0-3.7 0-3.7h-1.2v-.6h1.2v-1.7h.7v1.7h1.3v.6h-1.3s-.01 3.67 0 3.7c0 .3.1.4.4.4c.01-.01 1.1 0 1.1 0v.6s-1.19-.03-1.2 0zm1.8-2.7c0-1.6 1.1-2.7 2.4-2.7c1.4 0 2.5 1.1 2.5 2.7c0 1.7-1.1 2.8-2.5 2.8c-1.3 0-2.4-1.1-2.4-2.8zm2.5 2.2c.9 0 1.7-.8 1.7-2.2c0-1.3-.8-2.1-1.7-2.1h-.1c-.9 0-1.7.8-1.7 2.1c0 1.4.8 2.2 1.7 2.2h.1zm6.3.5v-5.3h.7s.02.86 0 .9c.3-.6.9-1 1.8-1c.7 0 1.4.4 1.6 1.1c.4-.7 1-1.1 1.9-1.1c1 0 1.8.7 1.8 1.9c-.04.04 0 3.5 0 3.5h-.7s-.02-3.25 0-3.3c0-1-.4-1.5-1.2-1.5h-.1c-1.1 0-1.6 1-1.6 2.1c.04.05 0 2.7 0 2.7h-.6s-.04-3.25 0-3.3c0-1-.4-1.5-1.2-1.5h-.1c-1.1 0-1.6 1-1.6 2.1c.02.05 0 2.7 0 2.7h-.7zm9.1-1.5c0-1.1 1-1.5 1.8-1.6c-.01.05 1.6-.1 1.6-.1c0 0 .05-.19 0-.2c0-.9-.5-1.4-1.3-1.4c-.7 0-1.3.3-1.3 1h-.7c.1-.9.9-1.6 2-1.6c1.4 0 2 .9 2 2v2.2c0 .3 0 .8.1 1.2h-.6c-.1-.3-.1-.6-.1-.9c-.2.5-.9 1-1.9 1c-.9 0-1.6-.7-1.6-1.6zm1.8 1c.7 0 1.6-.6 1.6-1.4c.05-.02 0-.7 0-.7c0 0-1.47.08-1.5.1c-.7 0-1.2.4-1.2 1c0 .6.4 1 1 1h.1zm4 .5v-5.3h.6v1.2c.2-.8.9-1.2 1.6-1.2c.02-.03.5 0 .5 0v.6h-.4c-1 0-1.7.8-1.7 2.1c.04.02 0 2.6 0 2.6h-.6zm3.7 0V161h.7v4.8l2.8-2.7h.9l-2.2 2.1l2.3 3.2h-.8l-1.9-2.7l-1.1 1v1.7h-.7zm4.9-2.7c0-1.8 1.2-2.7 2.4-2.7c1.3 0 2.1 1 2.1 2.4v.4h-3.8c0 1.5.8 2.1 1.7 2.1c.7 0 1.2-.3 1.4-1h.7c-.2 1-1 1.6-2.1 1.6c-1.3 0-2.4-1-2.4-2.8zm3.8-.5c0-.9-.5-1.6-1.4-1.6h-.1c-.6 0-1.4.4-1.6 1.6h3.1zm3.5 3.2c-.7 0-1-.3-1-1c.02.03 0-3.7 0-3.7h-1.2v-.6h1.2v-1.7h.7v1.7h1.3v.6h-1.3v3.7c0 .3.1.4.4.4c.02-.01 1.1 0 1.1 0v.6s-1.18-.03-1.2 0zm2.2-6.2v-.9h.8v.9h-.8zm0 6.2v-5.3h.7v5.3h-.7zm2.4 0v-5.3h.7s-.02.9 0 .9c.3-.6 1-1 1.8-1c1.1 0 1.9.7 1.9 1.9c-.05.04 0 3.5 0 3.5h-.7s-.03-3.25 0-3.3c0-1-.4-1.5-1.3-1.5h-.1c-1.1 0-1.6 1-1.6 2.1c-.02.05 0 2.7 0 2.7h-.7zm5.6.7h.6c.2.7.8 1 1.7 1h.1c.9 0 1.7-.5 1.7-1.8v-.9c-.3.6-.9 1-1.8 1c-1.3 0-2.2-1-2.2-2.7c0-1.6.9-2.7 2.2-2.7c.9 0 1.5.4 1.8 1c-.02-.04 0-.9 0-.9h.7s-.04 5.23 0 5.2c0 1.4-.9 2.4-2.5 2.4c-1.5 0-2.2-.7-2.3-1.6zm2.5-1.3c.9 0 1.6-.7 1.6-2.1c0-1.3-.7-2.1-1.6-2.1h-.1c-1 0-1.7.8-1.7 2.1c0 1.4.7 2.1 1.7 2.1h.1zm3.8.6v-1.1h1.1v1.1H167z" stroke="none" fill="#192d39"/></g><g id="Polygon15555"><path d="m13.5 150.2c0-2.4 1.4-3.8 3.3-3.8c2 0 3.4 1.4 3.4 3.8c0 2.4-1.4 3.8-3.4 3.8c-1.9 0-3.3-1.4-3.3-3.8zm3.4 3.1c1.5 0 2.6-1.2 2.6-3.1c0-1.9-1.1-3.1-2.6-3.1h-.1c-1.5 0-2.6 1.2-2.6 3.1c0 1.9 1.1 3.1 2.6 3.1h.1zm4.7-1.2c-.04-.01 0-3.5 0-3.5h.6s.04 3.28 0 3.3c0 1 .5 1.5 1.3 1.5h.1c.8 0 1.5-.7 1.5-1.9c.03-.04 0-2.9 0-2.9h.7v5.3h-.7s.03-1.01 0-1c-.2.7-.9 1.1-1.7 1.1c-1.2 0-1.8-.8-1.8-1.9zm5.9 1.8v-5.3h.6s.02 1.22 0 1.2c.3-.8.9-1.2 1.6-1.2c.05-.03.5 0 .5 0v.6h-.4c-1 0-1.6.8-1.6 2.1c-.03.02 0 2.6 0 2.6h-.7zm5.8-2.7c0-1.6 1-2.7 2.3-2.7c.7 0 1.5.4 1.8 1v-3h.7v7.4h-.7s-.01-.87 0-.9c-.3.6-1.1 1-1.8 1c-1.3 0-2.3-1.1-2.3-2.8zm2.4 2.2c1.1 0 1.7-1 1.7-2.2c0-1.1-.6-2.1-1.7-2.1c-1.2 0-1.7 1-1.7 2.1c0 1.2.5 2.2 1.7 2.2zm3.7-2.2c0-1.8 1.2-2.7 2.4-2.7c1.3 0 2.1 1 2.1 2.4v.4h-3.8c0 1.5.8 2.1 1.7 2.1c.7 0 1.2-.3 1.4-1h.7c-.2 1-1 1.6-2.1 1.6c-1.3 0-2.4-1-2.4-2.8zm3.8-.5c0-.9-.5-1.6-1.4-1.6h-.1c-.6 0-1.4.4-1.6 1.6h3.1zm5.5-2.1h.7l-2 5.3h-.8l-2.1-5.3h.8l1.7 4.7l1.7-4.7zm1.3 2.6c0-1.8 1.2-2.7 2.4-2.7c1.3 0 2.1 1 2.1 2.4v.4h-3.8c0 1.5.8 2.1 1.7 2.1c.7 0 1.2-.3 1.4-1h.7c-.2 1-1.1 1.6-2.1 1.6c-1.3 0-2.4-1-2.4-2.8zm3.8-.5c0-.9-.6-1.6-1.4-1.6h-.1c-.6 0-1.4.4-1.6 1.6h3.1zm2.1 3.2v-7.4h.7v7.4h-.7zm2-2.7c0-1.6 1.1-2.7 2.4-2.7c1.4 0 2.4 1.1 2.4 2.7c0 1.7-1 2.8-2.4 2.8c-1.3 0-2.4-1.1-2.4-2.8zm2.5 2.2c.9 0 1.6-.8 1.6-2.2c0-1.3-.7-2.1-1.6-2.1h-.1c-1 0-1.7.8-1.7 2.1c0 1.4.7 2.2 1.7 2.2h.1zm3.7 2.6v-7.4h.7s-.02.86 0 .9c.3-.6 1-1 1.7-1c1.4 0 2.4 1.1 2.4 2.7c0 1.7-1 2.8-2.4 2.8c-.7 0-1.4-.4-1.7-1c-.02.03 0 3 0 3h-.7zm2.4-2.6c1.1 0 1.7-1 1.7-2.2c0-1.1-.6-2.1-1.7-2.1c-1.2 0-1.7 1-1.7 2.1c0 1.2.5 2.2 1.7 2.2zm3.7.5v-5.3h.7s.02.86 0 .9c.3-.6.9-1 1.8-1c.7 0 1.3.4 1.6 1.1c.4-.7 1-1.1 1.9-1.1c1 0 1.8.7 1.8 1.9c-.05.04 0 3.5 0 3.5h-.7s-.03-3.25 0-3.3c0-1-.4-1.5-1.2-1.5h-.1c-1.1 0-1.6 1-1.6 2.1c.04.05 0 2.7 0 2.7h-.6s-.05-3.25 0-3.3c0-1-.4-1.5-1.3-1.5c-1.1 0-1.6 1-1.6 2.1c.02.05 0 2.7 0 2.7h-.7zm9.1-2.7c0-1.8 1.1-2.7 2.3-2.7c1.3 0 2.1 1 2.1 2.4c.03-.02 0 .4 0 .4h-3.8c.1 1.5.8 2.1 1.7 2.1h.1c.7 0 1.1-.3 1.3-1h.7c-.2 1-1 1.6-2.1 1.6c-1.3 0-2.3-1-2.3-2.8zm3.7-.5c0-.9-.5-1.6-1.4-1.6h-.1c-.6 0-1.4.4-1.5 1.6h3zm2.1 3.2v-5.3h.7s-.01.9 0 .9c.3-.6 1-1 1.8-1c1.1 0 1.9.7 1.9 1.9c-.04.04 0 3.5 0 3.5h-.7s-.02-3.25 0-3.3c0-1-.4-1.5-1.3-1.5c-1.2 0-1.7 1-1.7 2.1v2.7h-.7zm7.4 0c-.6 0-.9-.3-.9-1c-.05.03 0-3.7 0-3.7h-1.3v-.6h1.3v-1.7h.6v1.7h1.3v.6h-1.3s.03 3.67 0 3.7c0 .3.1.4.5.4h1v.6s-1.15-.03-1.2 0zm1.9-1.6h.6c.1.7.7 1.1 1.4 1.1h.1c.7 0 1.2-.4 1.2-.9c0-.5-.2-.7-.9-.9l-.8-.1c-.8-.2-1.4-.5-1.4-1.4c0-1 .8-1.6 1.8-1.6c1.4 0 2 .8 2 1.7h-.7c0-.6-.5-1.1-1.2-1.1h-.1c-.7 0-1.2.4-1.2.9c0 .5.3.7 1 .8l.8.2c.8.2 1.4.5 1.4 1.4c0 1-.8 1.6-2 1.6c-1.3 0-2-.7-2-1.7zm7.7.1c0-1.1 1-1.5 1.8-1.6c0 .05 1.7-.1 1.7-.1c0 0-.04-.19 0-.2c0-.9-.5-1.4-1.4-1.4c-.7 0-1.2.3-1.3 1h-.7c.1-.9.9-1.6 2-1.6c1.4 0 2 .9 2 2v2.2c0 .3 0 .8.1 1.2h-.6c-.1-.3-.1-.6-.1-.9c-.2.5-.9 1-1.8 1c-1 0-1.7-.7-1.7-1.6zm1.8 1c.8 0 1.7-.6 1.7-1.4c-.04-.02 0-.7 0-.7c0 0-1.56.08-1.6.1c-.7 0-1.2.4-1.2 1c0 .6.4 1 1 1h.1zm4 .5v-5.3h.6v1.2c.2-.8.9-1.2 1.6-1.2c.02-.03.5 0 .5 0v.6h-.4c-1 0-1.7.8-1.7 2.1c.05.02 0 2.6 0 2.6h-.6zm3.2-2.7c0-1.8 1.1-2.7 2.3-2.7c1.3 0 2.1 1 2.1 2.4c.02-.02 0 .4 0 .4h-3.8c.1 1.5.8 2.1 1.7 2.1h.1c.7 0 1.1-.3 1.3-1h.7c-.2 1-1 1.6-2.1 1.6c-1.3 0-2.3-1-2.3-2.8zm3.7-.5c0-.9-.5-1.6-1.4-1.6h-.1c-.6 0-1.4.4-1.5 1.6h3zm4.9 3.2v-7.4s2.52.02 2.5 0c2 0 3.3 1.4 3.3 3.7c0 2.3-1.3 3.7-3.3 3.7c.02-.03-2.5 0-2.5 0zm.7-.7s1.72-.01 1.7 0c1.7 0 2.7-1.1 2.7-3c0-1.9-1-3-2.7-3h-1.7v6zm11.8.7l-.8-2.1h-3.8l-.8 2.1h-.8l3-7.4h1l3 7.4h-.8zm-4.3-2.7h3.2l-1.6-4l-1.6 4zm8.1 1.2c0-1.1 1-1.5 1.8-1.6c-.03.05 1.6-.1 1.6-.1c0 0 .03-.19 0-.2c0-.9-.5-1.4-1.3-1.4c-.7 0-1.3.3-1.3 1h-.7c0-.9.9-1.6 2-1.6c1.4 0 2 .9 2 2v2.2c0 .3 0 .8.1 1.2h-.7v-.9c-.2.5-1 1-1.9 1c-.9 0-1.6-.7-1.6-1.6zm1.8 1c.7 0 1.6-.6 1.6-1.4c.03-.02 0-.7 0-.7c0 0-1.49.08-1.5.1c-.7 0-1.3.4-1.3 1c0 .6.5 1 1.1 1h.1zm3.9 2.6v-7.4h.7s.02.86 0 .9c.3-.6 1.1-1 1.8-1c1.3 0 2.3 1.1 2.3 2.7c0 1.7-1 2.8-2.3 2.8c-.7 0-1.5-.4-1.8-1c.02.03 0 3 0 3h-.7zm2.5-2.6c1.1 0 1.6-1 1.6-2.2c0-1.1-.5-2.1-1.6-2.1h-.1c-1.1 0-1.7 1-1.7 2.1c0 1.2.6 2.2 1.7 2.2h.1zm3.7 2.6v-7.4h.7s-.04.86 0 .9c.3-.6 1-1 1.7-1c1.4 0 2.4 1.1 2.4 2.7c0 1.7-1 2.8-2.4 2.8c-.7 0-1.4-.4-1.7-1c-.04.03 0 3 0 3h-.7zm2.4-2.6c1.1 0 1.7-1 1.7-2.2c0-1.1-.6-2.1-1.7-2.1h-.1c-1.1 0-1.6 1-1.6 2.1c0 1.2.5 2.2 1.6 2.2h.1zm3.7.5v-5.3h.7s-.05 1.22 0 1.2c.2-.8.9-1.2 1.6-1.2c-.02-.03.5 0 .5 0v.6h-.5c-1 0-1.6.8-1.6 2.1v2.6h-.7zm3.2-2.7c0-1.6 1.1-2.7 2.4-2.7c1.4 0 2.4 1.1 2.4 2.7c0 1.7-1 2.8-2.4 2.8c-1.3 0-2.4-1.1-2.4-2.8zm2.5 2.2c.9 0 1.6-.8 1.6-2.2c0-1.3-.7-2.1-1.6-2.1h-.1c-1 0-1.7.8-1.7 2.1c0 1.4.7 2.2 1.7 2.2h.1zm7.1-4.8h.7l-2 5.3h-.8l-2.1-5.3h.8l1.7 4.7l1.7-4.7zm1.3 2.6c0-1.8 1.2-2.7 2.4-2.7c1.2 0 2.1 1 2.1 2.4v.4h-3.8c0 1.5.8 2.1 1.7 2.1c.7 0 1.2-.3 1.4-1h.7c-.3 1-1.1 1.6-2.1 1.6c-1.3 0-2.4-1-2.4-2.8zm3.8-.5c0-.9-.6-1.6-1.4-1.6h-.1c-.7 0-1.4.4-1.6 1.6h3.1zm1.8.5c0-1.6.9-2.7 2.3-2.7c.7 0 1.4.4 1.7 1c.05-.04 0-3 0-3h.7v7.4h-.7s.05-.87 0-.9c-.3.6-1 1-1.7 1c-1.4 0-2.3-1.1-2.3-2.8zm2.4 2.2c1.1 0 1.6-1 1.6-2.2c0-1.1-.5-2.1-1.6-2.1h-.1c-1.1 0-1.7 1-1.7 2.1c0 1.2.6 2.2 1.7 2.2h.1zm12.9-4.8h.7l-1.7 5.3h-.9l-1.2-4.6l-1.2 4.6h-.9l-1.7-5.3h.7l1.5 4.7l1.2-4.7h.9l1.2 4.7l1.4-4.7zm1.7-.9v-.9h.8v.9h-.8zm.1 6.2v-5.3h.7v5.3h-.7zm3.9 0c-.7 0-1-.3-1-1c-.04.03 0-3.7 0-3.7h-1.2v-.6h1.2v-1.7h.6v1.7h1.4v.6h-1.4s.04 3.67 0 3.7c0 .3.1.4.5.4h1v.6s-1.14-.03-1.1 0zm2.2 0v-7.4h.7s-.04 3.01 0 3c.3-.6 1-1 1.8-1c1.2 0 1.8.8 1.8 1.9c.03.01 0 3.5 0 3.5h-.6s-.05-3.28 0-3.3c0-1-.5-1.5-1.3-1.5h-.1c-.8 0-1.6.7-1.6 1.9c-.04.04 0 2.9 0 2.9h-.7zm8.3-2.7c0-1.5.8-2.7 2.4-2.7c1.1 0 1.9.7 2 1.8h-.6c-.2-.7-.7-1.2-1.4-1.2h-.1c-1.1 0-1.6 1-1.6 2.1c0 1.2.5 2.2 1.6 2.2h.1c.7 0 1.2-.5 1.4-1.2h.6c-.2 1.1-.9 1.8-2 1.8c-1.6 0-2.4-1.2-2.4-2.8zm5.4 0c0-1.6 1.1-2.7 2.4-2.7c1.4 0 2.5 1.1 2.5 2.7c0 1.7-1.1 2.8-2.5 2.8c-1.3 0-2.4-1.1-2.4-2.8zm2.5 2.2c.9 0 1.7-.8 1.7-2.2c0-1.3-.8-2.1-1.7-2.1h-.1c-1 0-1.7.8-1.7 2.1c0 1.4.7 2.2 1.7 2.2h.1zm3.7.5v-5.3h.7v.9c.3-.6 1-1 1.8-1c1.1 0 1.9.7 1.9 1.9c-.03.04 0 3.5 0 3.5h-.7s-.01-3.25 0-3.3c0-1-.4-1.5-1.3-1.5c-1.2 0-1.7 1-1.7 2.1v2.7h-.7zm5.6-1.6h.7c0 .7.6 1.1 1.3 1.1h.1c.8 0 1.2-.4 1.2-.9c0-.5-.2-.7-.9-.9l-.8-.1c-.7-.2-1.4-.5-1.4-1.4c0-1 .9-1.6 1.9-1.6c1.3 0 1.9.8 2 1.7h-.7c-.1-.6-.5-1.1-1.3-1.1h-.1c-.7 0-1.1.4-1.1.9c0 .5.3.7.9.8l.9.2c.7.2 1.3.5 1.3 1.4c0 1-.8 1.6-1.9 1.6c-1.4 0-2.1-.7-2.1-1.7zm6.9 1.6c-.7 0-1-.3-1-1c-.04.03 0-3.7 0-3.7h-1.2v-.6h1.2v-1.7h.6v1.7h1.4v.6h-1.4s.04 3.67 0 3.7c0 .3.1.4.5.4h1v.6s-1.14-.03-1.1 0zm2.2 0v-5.3h.6v1.2c.2-.8.9-1.2 1.6-1.2c.03-.03.5 0 .5 0v.6h-.4c-1 0-1.6.8-1.6 2.1c-.05.02 0 2.6 0 2.6h-.7zm3.7-1.8c-.02-.01 0-3.5 0-3.5h.7s-.04 3.28 0 3.3c0 1 .4 1.5 1.2 1.5h.1c.8 0 1.5-.7 1.5-1.9c.05-.04 0-2.9 0-2.9h.7v5.3h-.7s.05-1.01 0-1c-.2.7-.8 1.1-1.7 1.1c-1.2 0-1.8-.8-1.8-1.9zm5.6-.9c0-1.5.9-2.7 2.4-2.7c1.1 0 2 .7 2.1 1.8h-.7c-.1-.7-.6-1.2-1.3-1.2h-.1c-1.2 0-1.7 1-1.7 2.1c0 1.2.5 2.2 1.7 2.2h.1c.7 0 1.1-.5 1.3-1.2h.7c-.2 1.1-1 1.8-2.1 1.8c-1.5 0-2.4-1.2-2.4-2.8zm7.2 2.7c-.6 0-1-.3-1-1c.04.03 0-3.7 0-3.7h-1.2v-.6h1.2v-1.7h.7v1.7h1.3v.6h-1.3s.03 3.67 0 3.7c0 .3.1.4.4.4c.05-.01 1.1 0 1.1 0v.6s-1.16-.03-1.2 0zm2.2-6.2v-.9h.8v.9h-.8zm.1 6.2v-5.3h.6v5.3h-.6zm2-2.7c0-1.6 1.1-2.7 2.4-2.7c1.4 0 2.4 1.1 2.4 2.7c0 1.7-1 2.8-2.4 2.8c-1.3 0-2.4-1.1-2.4-2.8zm2.5 2.2c.9 0 1.6-.8 1.6-2.2c0-1.3-.7-2.1-1.6-2.1h-.1c-1 0-1.7.8-1.7 2.1c0 1.4.7 2.2 1.7 2.2h.1zm3.7.5v-5.3h.7s-.04.9 0 .9c.3-.6.9-1 1.8-1c1 0 1.8.7 1.8 1.9c.03.04 0 3.5 0 3.5h-.6s-.05-3.25 0-3.3c0-1-.5-1.5-1.3-1.5h-.1c-1.1 0-1.6 1-1.6 2.1c-.04.05 0 2.7 0 2.7h-.7z" stroke="none" fill="#192d39"/></g><g id="Polygon15554"><path d="m15.1 118.8h.6v7.4h-.7v-6.3l-1.8 1.7v-.9l1.9-1.9zm2.2 3.7c0-2.5 1.1-3.8 2.8-3.8c1.8 0 2.8 1.3 2.8 3.8c0 2.5-1 3.8-2.8 3.8c-1.7 0-2.8-1.3-2.8-3.8zm2.9 3.1c.8 0 2-.7 2-3.1c0-2.4-1.2-3.1-2-3.1h-.1c-.9 0-2.1.7-2.1 3.1c0 2.4 1.2 3.1 2.1 3.1h.1zm3.9-3.1c0-2.5 1.1-3.8 2.8-3.8c1.8 0 2.8 1.3 2.8 3.8c0 2.5-1 3.8-2.8 3.8c-1.7 0-2.8-1.3-2.8-3.8zm2.9 3.1c.8 0 2-.7 2-3.1c0-2.4-1.2-3.1-2-3.1h-.1c-.9 0-2.1.7-2.1 3.1c0 2.4 1.2 3.1 2.1 3.1h.1zm3.7-4.7c0-1.3.6-2.1 1.7-2.1c1.1 0 1.7.8 1.7 2.1c0 1.3-.6 2.1-1.7 2.1c-1.1 0-1.7-.8-1.7-2.1zm1.8 5.3l4.4-7.4h.7l-4.4 7.4h-.7zm-.1-3.7c.7 0 1.1-.8 1.1-1.6c0-.8-.4-1.6-1.1-1.6c-.7 0-1.1.8-1.1 1.6c0 .8.4 1.6 1.1 1.6zm3.6 1.6c0-1.3.7-2.1 1.7-2.1c1.1 0 1.7.8 1.7 2.1c0 1.3-.6 2.1-1.7 2.1c-1 0-1.7-.8-1.7-2.1zm1.8 1.6c.7 0 1-.8 1-1.6c0-.8-.3-1.6-1-1.6h-.1c-.7 0-1 .8-1 1.6c0 .8.3 1.6 1 1.6h.1zm5.2-2.1c0-1.6.8-2.8 2.4-2.8c1.1 0 1.9.7 2 1.8h-.6c-.2-.7-.7-1.2-1.4-1.2h-.1c-1.1 0-1.6 1-1.6 2.2c0 1.1.5 2.1 1.6 2.1h.1c.7 0 1.2-.5 1.4-1.2h.6c-.1 1.1-.9 1.8-2 1.8c-1.6 0-2.4-1.2-2.4-2.7zm5.4 0c0-1.7 1.1-2.8 2.5-2.8c1.3 0 2.4 1.1 2.4 2.8c0 1.6-1.1 2.7-2.4 2.7c-1.4 0-2.5-1.1-2.5-2.7zm2.5 2.1c1 0 1.7-.8 1.7-2.1c0-1.4-.7-2.2-1.7-2.2h-.1c-.9 0-1.7.8-1.7 2.2c0 1.3.8 2.1 1.7 2.1h.1zm3.7.5v-5.3h.7v.9c.3-.6 1-1 1.8-1c1.1 0 1.9.7 1.9 1.9c-.02.04 0 3.5 0 3.5h-.7V123c0-1.1-.4-1.6-1.3-1.6c-1.2 0-1.7 1-1.7 2.2v2.6h-.7zm5.6-1.6h.7c.1.7.6 1.1 1.3 1.1h.1c.8 0 1.2-.4 1.2-.9c0-.4-.2-.7-.9-.8l-.8-.2c-.7-.2-1.4-.5-1.4-1.4c0-1 .9-1.6 1.9-1.6c1.3 0 1.9.8 2 1.7h-.7c-.1-.6-.5-1.1-1.3-1.1h-.1c-.7 0-1.1.4-1.1.9c0 .5.3.7.9.8l.9.2c.7.2 1.3.5 1.3 1.4c0 1-.8 1.6-1.9 1.6c-1.4 0-2-.7-2.1-1.7zm6.9 1.6c-.7 0-1-.3-1-1c-.03.03 0-3.7 0-3.7h-1.2v-.6h1.2v-1.7h.6v1.7h1.4v.6h-1.4s.05 3.68 0 3.7c0 .3.2.4.5.4h1v.6s-1.14-.02-1.1 0zm2.2 0v-5.3h.6v1.2c.3-.8.9-1.2 1.6-1.2c.04-.02.5 0 .5 0v.6h-.4c-1 0-1.6.8-1.6 2.1c-.04.03 0 2.6 0 2.6h-.7zm3.7-1.8v-3.5h.7s-.03 3.28 0 3.3c0 1 .4 1.5 1.2 1.5h.1c.8 0 1.6-.7 1.6-1.9c-.04-.04 0-2.9 0-2.9h.6v5.3h-.6s-.04-1.01 0-1c-.3.7-.9 1.1-1.8 1.1c-1.2 0-1.8-.8-1.8-1.9zm5.6-.8c0-1.6.9-2.8 2.4-2.8c1.2 0 2 .7 2.1 1.8h-.7c-.1-.7-.6-1.2-1.3-1.2h-.1c-1.2 0-1.7 1-1.7 2.2c0 1.1.5 2.1 1.7 2.1h.1c.7 0 1.1-.5 1.3-1.2h.7c-.2 1.1-.9 1.8-2.1 1.8c-1.5 0-2.4-1.2-2.4-2.7zm7.2 2.6c-.6 0-.9-.3-.9-1c-.05.03 0-3.7 0-3.7h-1.3v-.6h1.3v-1.7h.6v1.7h1.3v.6h-1.3s.03 3.68 0 3.7c0 .3.1.4.5.4h1v.6s-1.15-.02-1.2 0zM88 120v-.9h.8v.9h-.8zm.1 6.2v-5.3h.6v5.3h-.6zm2-2.6c0-1.7 1.1-2.8 2.4-2.8c1.4 0 2.4 1.1 2.4 2.8c0 1.6-1 2.7-2.4 2.7c-1.3 0-2.4-1.1-2.4-2.7zm2.5 2.1c.9 0 1.6-.8 1.6-2.1c0-1.4-.7-2.2-1.6-2.2h-.1c-1 0-1.7.8-1.7 2.2c0 1.3.7 2.1 1.7 2.1h.1zm3.7.5v-5.3h.7s-.03.91 0 .9c.3-.6.9-1 1.8-1c1.1 0 1.8.7 1.8 1.9c.04.04 0 3.5 0 3.5h-.6s-.04-3.25 0-3.2c0-1.1-.5-1.6-1.3-1.6h-.1c-1.1 0-1.6 1-1.6 2.2c-.03-.05 0 2.6 0 2.6h-.7zm8.3-2.6c0-1.6.8-2.8 2.4-2.8c1.1 0 1.9.7 2 1.8h-.6c-.2-.7-.6-1.2-1.4-1.2h-.1c-1.1 0-1.6 1-1.6 2.2c0 1.1.5 2.1 1.6 2.1h.1c.8 0 1.2-.5 1.4-1.2h.6c-.1 1.1-.9 1.8-2 1.8c-1.6 0-2.4-1.2-2.4-2.7zm5.4 0c0-1.7 1.1-2.8 2.5-2.8c1.3 0 2.4 1.1 2.4 2.8c0 1.6-1.1 2.7-2.4 2.7c-1.4 0-2.5-1.1-2.5-2.7zm2.5 2.1c1 0 1.7-.8 1.7-2.1c0-1.4-.7-2.2-1.7-2.2h-.1c-.9 0-1.7.8-1.7 2.2c0 1.3.8 2.1 1.7 2.1h.1zm3.7.5v-5.3h.7s.01.87 0 .9c.3-.6.9-1 1.7-1c.8 0 1.4.4 1.7 1.1c.4-.7 1-1.1 1.9-1.1c1 0 1.7.7 1.7 1.9c.04.04 0 3.5 0 3.5h-.6s-.04-3.25 0-3.2c0-1.1-.4-1.6-1.2-1.6h-.1c-1.1 0-1.6 1-1.6 2.2c.03-.05 0 2.6 0 2.6h-.7s.04-3.25 0-3.2c0-1.1-.4-1.6-1.2-1.6c-1.1 0-1.6 1-1.6 2.2v2.6h-.7zm9.4 2.1v-7.4h.7s-.05.87 0 .9c.3-.6 1-1 1.7-1c1.4 0 2.3 1.1 2.3 2.8c0 1.6-.9 2.7-2.3 2.7c-.7 0-1.4-.4-1.7-1c-.05.04 0 3 0 3h-.7zm2.4-2.6c1.1 0 1.7-1 1.7-2.1c0-1.2-.6-2.2-1.7-2.2h-.1c-1.1 0-1.6 1-1.6 2.2c0 1.1.5 2.1 1.6 2.1h.1zm3.7.5v-7.4h.7v7.4h-.7zm2.1-2.7c0-1.8 1.1-2.7 2.3-2.7c1.3 0 2.1 1 2.1 2.4c.02-.01 0 .4 0 .4h-3.8c.1 1.5.8 2.1 1.7 2.1h.1c.7 0 1.1-.3 1.3-1h.7c-.2 1-1 1.6-2.1 1.6c-1.3 0-2.3-1-2.3-2.8zm3.7-.5c0-.9-.5-1.6-1.4-1.6h-.1c-.6 0-1.4.4-1.5 1.6h3zm3.5 3.2c-.6 0-1-.3-1-1c.04.03 0-3.7 0-3.7h-1.2v-.6h1.2v-1.7h.7v1.7h1.3v.6h-1.3s.02 3.68 0 3.7c0 .3.1.4.4.4h1.1v.6s-1.16-.02-1.2 0zm2.2-6.2v-.9h.8v.9h-.8zm.1 6.2v-5.3h.6v5.3h-.6zm2-2.6c0-1.7 1-2.8 2.4-2.8c1.4 0 2.4 1.1 2.4 2.8c0 1.6-1 2.7-2.4 2.7c-1.4 0-2.4-1.1-2.4-2.7zm2.5 2.1c.9 0 1.6-.8 1.6-2.1c0-1.4-.7-2.2-1.6-2.2h-.1c-1 0-1.7.8-1.7 2.2c0 1.3.7 2.1 1.7 2.1h.1zm3.7.5v-5.3h.7s-.04.91 0 .9c.3-.6.9-1 1.8-1c1 0 1.8.7 1.8 1.9c.03.04 0 3.5 0 3.5h-.7s.05-3.25 0-3.2c0-1.1-.4-1.6-1.2-1.6h-.1c-1.1 0-1.6 1-1.6 2.2c-.04-.05 0 2.6 0 2.6h-.7zm8.6 0v-5.3h.6v1.2c.3-.8.9-1.2 1.6-1.2c.04-.02.5 0 .5 0v.6h-.4c-1 0-1.6.8-1.6 2.1c-.03.03 0 2.6 0 2.6h-.7zm3.2-2.7c0-1.8 1.1-2.7 2.3-2.7c1.3 0 2.1 1 2.1 2.4c.04-.01 0 .4 0 .4H164c0 1.5.7 2.1 1.6 2.1h.1c.7 0 1.1-.3 1.3-1h.7c-.2 1-1 1.6-2.1 1.6c-1.3 0-2.3-1-2.3-2.8zm3.8-.5c-.1-.9-.6-1.6-1.4-1.6h-.1c-.7 0-1.5.4-1.6 1.6h3.1zm1.7.6c0-1.6.9-2.8 2.4-2.8c1.1 0 2 .7 2.1 1.8h-.7c-.1-.7-.6-1.2-1.3-1.2h-.1c-1.2 0-1.7 1-1.7 2.2c0 1.1.5 2.1 1.7 2.1h.1c.7 0 1.1-.5 1.3-1.2h.7c-.2 1.1-1 1.8-2.1 1.8c-1.5 0-2.4-1.2-2.4-2.7zm5.5 0c0-1.7 1-2.8 2.4-2.8c1.3 0 2.4 1.1 2.4 2.8c0 1.6-1.1 2.7-2.4 2.7c-1.4 0-2.4-1.1-2.4-2.7zm2.4 2.1c1 0 1.7-.8 1.7-2.1c0-1.4-.7-2.2-1.7-2.2h-.1c-.9 0-1.6.8-1.6 2.2c0 1.3.7 2.1 1.6 2.1h.1zm3.7.5v-5.3h.7s-.03 1.22 0 1.2c.2-.8.9-1.2 1.6-1.2c0-.02.5 0 .5 0v.6h-.4c-1.1 0-1.7.8-1.7 2.1c.02.03 0 2.6 0 2.6h-.7zm3.3-2.6c0-1.7.9-2.8 2.3-2.8c.7 0 1.4.4 1.8 1c-.05-.03 0-3 0-3h.6v7.4h-.6s-.05-.86 0-.9c-.4.6-1.1 1-1.8 1c-1.4 0-2.3-1.1-2.3-2.7zm2.4 2.1c1.1 0 1.7-1 1.7-2.1c0-1.2-.6-2.2-1.7-2.2h-.1c-1.1 0-1.7 1-1.7 2.2c0 1.1.6 2.1 1.7 2.1h.1zm6.3-2.1c0-1.7 1.1-2.8 2.4-2.8c1.4 0 2.4 1.1 2.4 2.8c0 1.6-1 2.7-2.4 2.7c-1.3 0-2.4-1.1-2.4-2.7zm2.5 2.1c.9 0 1.7-.8 1.7-2.1c0-1.4-.8-2.2-1.7-2.2h-.1c-1 0-1.7.8-1.7 2.2c0 1.3.7 2.1 1.7 2.1h.1zm3.7.5v-5.3h.7s-.02.91 0 .9c.3-.6 1-1 1.8-1c1.1 0 1.9.7 1.9 1.9c-.05.04 0 3.5 0 3.5h-.7s-.03-3.25 0-3.2c0-1.1-.4-1.6-1.3-1.6h-.1c-1.1 0-1.6 1-1.6 2.2c-.02-.05 0 2.6 0 2.6h-.7zm8.3-2.7c0-1.8 1.1-2.7 2.3-2.7c1.3 0 2.2 1 2.2 2.4c-.05-.01 0 .4 0 .4h-3.8c0 1.5.8 2.1 1.6 2.1h.1c.7 0 1.2-.3 1.4-1h.6c-.2 1-1 1.6-2.1 1.6c-1.3 0-2.3-1-2.3-2.8zm3.8-.5c-.1-.9-.6-1.6-1.4-1.6h-.1c-.7 0-1.5.4-1.6 1.6h3.1zm5.5-2.1h.7l-2 5.3h-.9l-2-5.3h.7l1.7 4.7l1.8-4.7zm1.3 2.6c0-1.8 1.1-2.7 2.3-2.7c1.3 0 2.1 1 2.1 2.4c.05-.01 0 .4 0 .4h-3.7c0 1.5.8 2.1 1.6 2.1h.1c.7 0 1.2-.3 1.4-1h.6c-.2 1-1 1.6-2.1 1.6c-1.3 0-2.3-1-2.3-2.8zm3.8-.5c-.1-.9-.6-1.6-1.4-1.6h-.1c-.7 0-1.5.4-1.6 1.6h3.1zm2 3.2v-5.3h.7s-.05 1.22 0 1.2c.2-.8.9-1.2 1.6-1.2c-.02-.02.5 0 .5 0v.6h-.5c-1 0-1.6.8-1.6 2.1v2.6h-.7zm8.3-5.3l-2.2 5.1v1c0 .6-.3.9-1 .9h-1.6v-.6s1.49.03 1.5 0c.3 0 .4-.1.4-.4c.01.01 0-.9 0-.9l-2.2-5.1h.7l1.8 4.3l1.8-4.3h.8zm3.6 7.4v-7.4h.7s-.05.87 0 .9c.3-.6 1-1 1.7-1c1.4 0 2.3 1.1 2.3 2.8c0 1.6-.9 2.7-2.3 2.7c-.7 0-1.4-.4-1.7-1c-.05.04 0 3 0 3h-.7zm2.4-2.6c1.1 0 1.7-1 1.7-2.1c0-1.2-.6-2.2-1.7-2.2h-.1c-1.1 0-1.6 1-1.6 2.2c0 1.1.5 2.1 1.6 2.1h.1zm3.7.5v-5.3h.6s.04 1.22 0 1.2c.3-.8.9-1.2 1.7-1.2c-.03-.02.4 0 .4 0v.6h-.4c-1 0-1.6.8-1.6 2.1v2.6h-.7zm3.2-2.6c0-1.7 1.1-2.8 2.4-2.8c1.4 0 2.4 1.1 2.4 2.8c0 1.6-1 2.7-2.4 2.7c-1.3 0-2.4-1.1-2.4-2.7zm2.5 2.1c.9 0 1.6-.8 1.6-2.1c0-1.4-.7-2.2-1.6-2.2h-.1c-1 0-1.7.8-1.7 2.2c0 1.3.7 2.1 1.7 2.1h.1zm3.7-5.7v-.9h.8v.9h-.8zm-1.7 7.9v-.6s1.34.03 1.3 0c.4 0 .5-.1.5-.4c-.04.01 0-6 0-6h.6s.04 6.07 0 6.1c0 .6-.3.9-1 .9H249zm3.8-4.4c0-1.8 1.1-2.7 2.3-2.7c1.3 0 2.2 1 2.2 2.4c-.03-.01 0 .4 0 .4h-3.8c0 1.5.8 2.1 1.6 2.1h.1c.7 0 1.2-.3 1.4-1h.7c-.3 1-1.1 1.6-2.2 1.6c-1.3 0-2.3-1-2.3-2.8zm3.8-.5c0-.9-.6-1.6-1.4-1.6h-.1c-.7 0-1.4.4-1.6 1.6h3.1zm1.7.6c0-1.6.9-2.8 2.4-2.8c1.2 0 2 .7 2.1 1.8h-.7c-.1-.7-.6-1.2-1.3-1.2h-.1c-1.2 0-1.7 1-1.7 2.2c0 1.1.5 2.1 1.7 2.1h.1c.7 0 1.2-.5 1.3-1.2h.7c-.2 1.1-.9 1.8-2.1 1.8c-1.5 0-2.4-1.2-2.4-2.7zm7.3 2.6c-.7 0-1-.3-1-1c-.02.03 0-3.7 0-3.7h-1.2v-.6h1.2v-1.7h.7v1.7h1.3v.6h-1.3s-.04 3.68 0 3.7c0 .3.1.4.4.4h1v.6s-1.12-.02-1.1 0zm2.1 0v-1.1h1v1.1h-1z" stroke="none" fill="#192d39"/></g><g id="Polygon15553"><path d="m13.4 95.9c0-1.6.9-2.8 2.5-2.8c1.1 0 1.9.7 2 1.8h-.7c-.1-.7-.6-1.2-1.3-1.2h-.1c-1.1 0-1.7 1-1.7 2.2c0 1.1.6 2.1 1.7 2.1h.1c.7 0 1.2-.5 1.3-1.2h.7c-.2 1.1-.9 1.8-2 1.8c-1.6 0-2.5-1.2-2.5-2.7zm5.5 0c0-1.7 1.1-2.8 2.4-2.8c1.4 0 2.4 1.1 2.4 2.8c0 1.6-1 2.7-2.4 2.7c-1.3 0-2.4-1.1-2.4-2.7zm2.5 2.1c.9 0 1.6-.8 1.6-2.1c0-1.4-.7-2.2-1.6-2.2h-.1c-1 0-1.7.8-1.7 2.2c0 1.3.7 2.1 1.7 2.1h.1zm3.7.5v-5.3h.7s-.03.87 0 .9c.3-.6.9-1 1.7-1c.8 0 1.4.4 1.7 1.1c.3-.7 1-1.1 1.8-1.1c1 0 1.8.7 1.8 1.9v3.5h-.7s.02-3.24 0-3.2c0-1.1-.4-1.6-1.2-1.6c-1.1 0-1.6 1-1.6 2.2v2.6h-.7v-3.2c0-1.1-.4-1.6-1.2-1.6h-.1c-1 0-1.5 1-1.5 2.2c-.03-.04 0 2.6 0 2.6h-.7zm9.3 0v-5.3h.7s.01.87 0 .9c.3-.6.9-1 1.7-1c.8 0 1.4.4 1.7 1.1c.4-.7 1-1.1 1.9-1.1c1 0 1.7.7 1.7 1.9c.05.05 0 3.5 0 3.5h-.6s-.03-3.24 0-3.2c0-1.1-.4-1.6-1.2-1.6h-.1c-1.1 0-1.6 1-1.6 2.2c.03-.04 0 2.6 0 2.6h-.7s.05-3.24 0-3.2c0-1.1-.3-1.6-1.2-1.6c-1.1 0-1.6 1-1.6 2.2v2.6h-.7zm9.3-1.8c.02 0 0-3.5 0-3.5h.7s.01 3.29 0 3.3c0 1 .4 1.5 1.3 1.5h.1c.7 0 1.5-.7 1.5-1.9v-2.9h.7v5.3h-.7v-1c-.3.7-.9 1.1-1.8 1.1c-1.1 0-1.8-.8-1.8-1.9zm6 1.8v-5.3h.6s.04.91 0 .9c.3-.6 1-1 1.9-1c1 0 1.8.7 1.8 1.9v3.5h-.7s.03-3.24 0-3.2c0-1.1-.4-1.6-1.2-1.6h-.1c-1.1 0-1.7 1-1.7 2.2c.04-.04 0 2.6 0 2.6h-.6zm5.9-6.2v-.9h.8v.9h-.8zm0 6.2v-5.3h.7v5.3h-.7zm3.9 0c-.7 0-1-.3-1-1c.03.04 0-3.7 0-3.7h-1.2v-.6h1.2v-1.7h.7v1.7h1.3v.6h-1.3s.01 3.69 0 3.7c0 .3.1.4.4.4c.03.01 1.1 0 1.1 0v.6s-1.17-.02-1.2 0zm2.2-6.2v-.9h.8v.9h-.8zm0 6.2v-5.3h.7v5.3h-.7zm2.1-2.7c0-1.8 1.1-2.7 2.3-2.7c1.3 0 2.2 1 2.2 2.4c-.05-.01 0 .4 0 .4h-3.8c0 1.5.8 2.1 1.6 2.1h.1c.7 0 1.2-.3 1.4-1h.6c-.2 1-1 1.6-2.1 1.6c-1.3 0-2.3-1-2.3-2.8zm3.8-.5c-.1-.9-.6-1.6-1.4-1.6h-.1c-.7 0-1.5.4-1.6 1.6h3.1zm1.6 1.6h.7c.1.7.6 1.1 1.4 1.1h.1c.7 0 1.1-.4 1.1-.9c0-.4-.2-.7-.9-.8l-.7-.2c-.8-.2-1.5-.5-1.5-1.4c0-1 .9-1.6 1.9-1.6c1.3 0 1.9.8 2 1.7h-.7c-.1-.6-.5-1.1-1.2-1.1h-.1c-.8 0-1.2.4-1.2.9c0 .5.3.7 1 .8l.8.2c.7.2 1.3.5 1.3 1.4c0 1-.7 1.6-1.9 1.6c-1.3 0-2-.7-2.1-1.7zm8-4.6v-.9h.8v.9h-.8zm.1 6.2v-5.3h.6v5.3h-.6zm2.3 0v-5.3h.7v.9c.3-.6 1-1 1.8-1c1.1 0 1.9.7 1.9 1.9c-.02.05 0 3.5 0 3.5h-.7v-3.2c0-1.1-.4-1.6-1.3-1.6c-1.2 0-1.7 1-1.7 2.2v2.6h-.7zm8.3-2.6c0-1.7 1.1-2.8 2.4-2.8c1.4 0 2.4 1.1 2.4 2.8c0 1.6-1 2.7-2.4 2.7c-1.3 0-2.4-1.1-2.4-2.7zm2.5 2.1c.9 0 1.6-.8 1.6-2.1c0-1.4-.7-2.2-1.6-2.2h-.1c-1 0-1.7.8-1.7 2.2c0 1.3.7 2.1 1.7 2.1h.1zm3.7.5v-5.3h.7s-.03.91 0 .9c.3-.6 1-1 1.8-1c1.1 0 1.8.7 1.8 1.9c.05.05 0 3.5 0 3.5h-.6s-.03-3.24 0-3.2c0-1.1-.5-1.6-1.3-1.6h-.1c-1.1 0-1.6 1-1.6 2.2c-.03-.04 0 2.6 0 2.6h-.7zm6 0v-7.4h.7v7.4h-.7zm6.8-5.3l-2.2 5.1s.05 1 0 1c0 .6-.3.9-.9.9c-.05.02-1.6 0-1.6 0v-.6s1.45.04 1.4 0c.4 0 .5-.1.5-.4c-.03.02 0-.9 0-.9l-2.3-5.1h.8l1.8 4.3l1.8-4.3h.7zm5.1 5.3c-.6 0-1-.3-1-1c.05.04 0-3.7 0-3.7h-1.2v-.6h1.2v-1.7h.7v1.7h1.3v.6h-1.3s.03 3.69 0 3.7c0 .3.1.4.5.4h1v.6s-1.15-.02-1.2 0zm2.3 0v-7.4h.6s.04 3.03 0 3c.4-.6 1.1-1 1.9-1c1.2 0 1.8.8 1.8 1.9c.02.02 0 3.5 0 3.5h-.7s.04-3.27 0-3.3c0-1-.4-1.5-1.2-1.5h-.1c-.8 0-1.7.7-1.7 1.9c.04.05 0 2.9 0 2.9h-.6zm5.6-2.7c0-1.8 1.2-2.7 2.4-2.7c1.3 0 2.1 1 2.1 2.4v.4h-3.8c0 1.5.8 2.1 1.7 2.1c.7 0 1.2-.3 1.4-1h.7c-.2 1-1.1 1.6-2.1 1.6c-1.3 0-2.4-1-2.4-2.8zm3.8-.5c0-.9-.6-1.6-1.4-1.6h-.1c-.7 0-1.4.4-1.6 1.6h3.1zm5.4 2.3c-.02.04 0 .9 0 .9h-.7v-7.4h.7s-.02 2.97 0 3c.3-.6 1-1 1.7-1c1.4 0 2.4 1.1 2.4 2.8c0 1.6-1 2.7-2.4 2.7c-.7 0-1.4-.4-1.7-1zm1.7.4c1.1 0 1.7-1 1.7-2.1c0-1.2-.6-2.2-1.7-2.2c-1.2 0-1.7 1-1.7 2.2c0 1.1.5 2.1 1.7 2.1zm3.4-2.2c0-1.8 1.2-2.7 2.4-2.7c1.2 0 2.1 1 2.1 2.4c-.02-.01 0 .4 0 .4h-3.8c0 1.5.8 2.1 1.7 2.1c.7 0 1.2-.3 1.4-1h.7c-.3 1-1.1 1.6-2.1 1.6c-1.3 0-2.4-1-2.4-2.8zm3.8-.5c0-.9-.6-1.6-1.4-1.6h-.1c-.7 0-1.4.4-1.6 1.6h3.1zm1.7 1.6h.6c.1.7.7 1.1 1.4 1.1h.1c.7 0 1.2-.4 1.2-.9c0-.4-.2-.7-.9-.8l-.8-.2c-.8-.2-1.4-.5-1.4-1.4c0-1 .8-1.6 1.8-1.6c1.4 0 2 .8 2 1.7h-.7c0-.6-.5-1.1-1.2-1.1h-.1c-.7 0-1.2.4-1.2.9c0 .5.3.7 1 .8l.8.2c.8.2 1.4.5 1.4 1.4c0 1-.8 1.6-2 1.6c-1.3 0-2-.7-2-1.7zm6.8 1.6c-.7 0-1-.3-1-1c.02.04 0-3.7 0-3.7h-1.2v-.6h1.2v-1.7h.7v1.7h1.3v.6h-1.3v3.7c0 .3.1.4.4.4c.02.01 1.1 0 1.1 0v.6s-1.18-.02-1.2 0zm4.9 0v-7.4h.6v7.4h-.6zm2-2.6c0-1.7 1.1-2.8 2.4-2.8c1.4 0 2.4 1.1 2.4 2.8c0 1.6-1 2.7-2.4 2.7c-1.3 0-2.4-1.1-2.4-2.7zm2.5 2.1c.9 0 1.6-.8 1.6-2.1c0-1.4-.7-2.2-1.6-2.2h-.1c-1 0-1.7.8-1.7 2.2c0 1.3.7 2.1 1.7 2.1h.1zm3.4-2.1c0-1.6.8-2.8 2.4-2.8c1.1 0 1.9.7 2 1.8h-.7c-.1-.7-.6-1.2-1.3-1.2h-.1c-1.1 0-1.7 1-1.7 2.2c0 1.1.6 2.1 1.7 2.1h.1c.7 0 1.2-.5 1.3-1.2h.7c-.2 1.1-.9 1.8-2 1.8c-1.6 0-2.4-1.2-2.4-2.7zm5.4 1.1c0-1.1 1-1.5 1.9-1.5c-.05-.04 1.6-.2 1.6-.2v-.2c0-.9-.5-1.4-1.3-1.4h-.1c-.6 0-1.2.3-1.3 1h-.6c0-.9.8-1.6 2-1.6c1.3 0 2 1 2 2v3.4h-.6v-.9c-.2.5-1 1-1.9 1c-.9 0-1.7-.7-1.7-1.6zm1.9 1c.7 0 1.6-.6 1.6-1.4v-.7s-1.51.09-1.5.1c-.8 0-1.3.4-1.3 1c0 .6.5 1 1.1 1h.1zm5.4.5c-.7 0-1-.3-1-1c-.04.04 0-3.7 0-3.7h-1.2v-.6h1.2v-1.7h.6v1.7h1.4v.6h-1.4s.04 3.69 0 3.7c0 .3.1.4.5.4h1v.6s-1.14-.02-1.1 0zm2.1-6.2v-.9h.8v.9h-.8zm.1 6.2v-5.3h.7v5.3h-.7zm2-2.6c0-1.7 1.1-2.8 2.4-2.8c1.4 0 2.4 1.1 2.4 2.8c0 1.6-1 2.7-2.4 2.7c-1.3 0-2.4-1.1-2.4-2.7zm2.5 2.1c.9 0 1.6-.8 1.6-2.1c0-1.4-.7-2.2-1.6-2.2h-.1c-1 0-1.7.8-1.7 2.2c0 1.3.7 2.1 1.7 2.1h.1zm3.7.5v-5.3h.7s-.02.91 0 .9c.3-.6 1-1 1.8-1c1.1 0 1.9.7 1.9 1.9c-.05.05 0 3.5 0 3.5h-.7s-.03-3.24 0-3.2c0-1.1-.4-1.6-1.3-1.6h-.1c-1.1 0-1.6 1-1.6 2.2c-.02-.04 0 2.6 0 2.6h-.7zm5.6-1.6h.7c0 .7.6 1.1 1.3 1.1h.1c.7 0 1.2-.4 1.2-.9c0-.4-.2-.7-.9-.8l-.8-.2c-.8-.2-1.4-.5-1.4-1.4c0-1 .9-1.6 1.9-1.6c1.3 0 1.9.8 1.9 1.7h-.6c-.1-.6-.6-1.1-1.3-1.1h-.1c-.7 0-1.1.4-1.1.9c0 .5.2.7.9.8l.8.2c.8.2 1.4.5 1.4 1.4c0 1-.8 1.6-1.9 1.6c-1.4 0-2.1-.7-2.1-1.7zm5.3 1.6v-1.1h1v1.1h-1z" stroke="none" fill="#192d39"/></g><g id="Polygon15552"><path d="m13.5 82.5c0-1.1.9-1.5 1.8-1.5c-.04-.04 1.6-.2 1.6-.2c0 0 .02-.18 0-.2c0-.9-.5-1.4-1.3-1.4c-.7 0-1.3.3-1.4 1h-.6c0-.9.8-1.6 2-1.6c1.3 0 2 1 2 2v2.2c0 .3 0 .8.1 1.2h-.7v-.9c-.2.5-1 1-1.9 1c-.9 0-1.6-.7-1.6-1.6zm1.8 1c.7 0 1.6-.6 1.6-1.4c.02-.01 0-.7 0-.7l-1.5.1c-.8 0-1.3.4-1.3 1c0 .6.5 1 1.1 1h.1zm3.9.5v-5.3h.7s.01.91 0 .9c.3-.6 1-1 1.8-1c1.1 0 1.9.7 1.9 1.9c-.02.05 0 3.5 0 3.5h-.7v-3.2c0-1.1-.4-1.6-1.3-1.6c-1.2 0-1.7 1-1.7 2.2v2.6h-.7zm5.7-2.6c0-1.7 1-2.8 2.3-2.8c.7 0 1.5.4 1.8 1v-3h.7v7.4h-.7s-.01-.86 0-.9c-.3.6-1.1 1-1.8 1c-1.3 0-2.3-1.1-2.3-2.7zm2.4 2.1c1.1 0 1.7-1 1.7-2.1c0-1.2-.6-2.2-1.7-2.2c-1.2 0-1.7 1-1.7 2.2c0 1.1.5 2.1 1.7 2.1zm7.3.5v-4.7h-1.2v-.6h1.2s-.03-1.12 0-1.1c0-.7.3-1 1-1c-.04.03 1.3 0 1.3 0v.6h-1.2c-.3 0-.5.1-.5.4c.05.03 0 1.1 0 1.1h1.4v.6h-1.4v4.7h-.6zm2.6-2.6c0-1.7 1-2.8 2.4-2.8c1.3 0 2.4 1.1 2.4 2.8c0 1.6-1.1 2.7-2.4 2.7c-1.4 0-2.4-1.1-2.4-2.7zm2.4 2.1c1 0 1.7-.8 1.7-2.1c0-1.4-.7-2.2-1.7-2.2h-.1c-.9 0-1.6.8-1.6 2.2c0 1.3.7 2.1 1.6 2.1h.1zm3.7-1.3v-3.5h.7s-.02 3.29 0 3.3c0 1 .4 1.5 1.2 1.5h.1c.8 0 1.6-.7 1.6-1.9c-.04-.03 0-2.9 0-2.9h.6v5.3h-.6s-.04-1 0-1c-.3.7-.9 1.1-1.8 1.1c-1.2 0-1.8-.8-1.8-1.9zm5.9 1.8v-5.3h.7s.01.91 0 .9c.3-.6 1-1 1.8-1c1.1 0 1.9.7 1.9 1.9c-.02.05 0 3.5 0 3.5h-.7v-3.2c0-1.1-.4-1.6-1.3-1.6c-1.2 0-1.7 1-1.7 2.2v2.6h-.7zm5.7-2.6c0-1.7 1-2.8 2.3-2.8c.7 0 1.5.4 1.8 1v-3h.7v7.4h-.7s-.01-.86 0-.9c-.3.6-1.1 1-1.8 1c-1.3 0-2.3-1.1-2.3-2.7zm2.4 2.1c1.1 0 1.7-1 1.7-2.1c0-1.2-.6-2.2-1.7-2.2c-1.2 0-1.7 1-1.7 2.2c0 1.1.5 2.1 1.7 2.1zm3.7-2.2c0-1.8 1.2-2.7 2.4-2.7c1.3 0 2.1 1 2.1 2.4v.4h-3.8c0 1.5.8 2.1 1.7 2.1c.7 0 1.2-.3 1.4-1h.7c-.2 1-1 1.6-2.1 1.6c-1.3 0-2.4-1-2.4-2.8zm3.8-.5c0-.9-.5-1.6-1.4-1.6h-.1c-.6 0-1.4.4-1.6 1.6h3.1zm2.1 3.2v-5.3h.6v1.2c.2-.8.9-1.2 1.6-1.2c.03-.02.5 0 .5 0v.6h-.4c-1 0-1.6.8-1.6 2.1c-.04.03 0 2.6 0 2.6h-.7zm2.7 1.2v-.4s.29-.03.3 0c.4 0 .6-.2.6-.7c.02.04 0-.1 0-.1h-.6v-1.1h1.1v1.3c0 .6-.4 1-1 1h-.4zm5.2-2.8h.7c0 .7.6 1.1 1.3 1.1h.1c.8 0 1.2-.4 1.2-.9c0-.4-.2-.7-.9-.8l-.8-.2c-.8-.2-1.4-.5-1.4-1.4c0-1 .9-1.6 1.9-1.6c1.3 0 1.9.8 1.9 1.7h-.6c-.1-.6-.6-1.1-1.3-1.1h-.1c-.7 0-1.1.4-1.1.9c0 .5.3.7.9.8l.8.2c.8.2 1.4.5 1.4 1.4c0 1-.8 1.6-1.9 1.6c-1.4 0-2.1-.7-2.1-1.7zm5.4 3.7v-7.4h.7s-.02.87 0 .9c.3-.6 1.1-1 1.7-1c1.4 0 2.4 1.1 2.4 2.8c0 1.6-1 2.7-2.4 2.7c-.6 0-1.4-.4-1.7-1c-.02.04 0 3 0 3h-.7zm2.4-2.6c1.1 0 1.7-1 1.7-2.1c0-1.2-.6-2.2-1.7-2.2c-1.2 0-1.7 1-1.7 2.2c0 1.1.5 2.1 1.7 2.1zm3.4-2.2c0-1.8 1.2-2.7 2.4-2.7c1.3 0 2.1 1 2.1 2.4v.4h-3.8c0 1.5.8 2.1 1.7 2.1c.7 0 1.2-.3 1.4-1h.7c-.3 1-1.1 1.6-2.1 1.6c-1.3 0-2.4-1-2.4-2.8zm3.8-.5c0-.9-.6-1.6-1.4-1.6h-.1c-.7 0-1.4.4-1.6 1.6h3.1zm1.8.6c0-1.6.8-2.8 2.4-2.8c1.1 0 1.9.7 2 1.8h-.7c-.1-.7-.6-1.2-1.3-1.2h-.1c-1.1 0-1.7 1-1.7 2.2c0 1.1.6 2.1 1.7 2.1h.1c.7 0 1.2-.5 1.3-1.2h.7c-.2 1.1-.9 1.8-2 1.8c-1.6 0-2.4-1.2-2.4-2.7zm5.7-3.6v-.9h.8v.9h-.8zm0 6.2v-5.3h.7v5.3h-.7zm2.1-1.5c0-1.1 1-1.5 1.8-1.5c0-.04 1.7-.2 1.7-.2c0 0-.04-.18 0-.2c0-.9-.5-1.4-1.4-1.4c-.7 0-1.2.3-1.3 1h-.7c.1-.9.9-1.6 2-1.6c1.4 0 2 1 2 2v2.2c0 .3 0 .8.1 1.2h-.6c-.1-.2-.1-.6-.1-.9c-.2.5-.9 1-1.8 1c-1 0-1.7-.7-1.7-1.6zm1.8 1c.8 0 1.7-.6 1.7-1.4c-.04-.01 0-.7 0-.7l-1.6.1c-.7 0-1.2.4-1.2 1c0 .6.4 1 1 1h.1zm4 .5v-7.4h.7v7.4h-.7zm2.3-6.2v-.9h.8v.9h-.8zm0 6.2v-5.3h.7v5.3h-.7zm2-1.6h.7c0 .7.6 1.1 1.3 1.1h.1c.8 0 1.2-.4 1.2-.9c0-.4-.2-.7-.9-.8l-.8-.2c-.8-.2-1.4-.5-1.4-1.4c0-1 .9-1.6 1.9-1.6c1.3 0 1.9.8 1.9 1.7h-.6c-.1-.6-.5-1.1-1.3-1.1h-.1c-.7 0-1.1.4-1.1.9c0 .5.3.7.9.8l.9.2c.7.2 1.3.5 1.3 1.4c0 1-.8 1.6-1.9 1.6c-1.4 0-2.1-.7-2.1-1.7zm5.4-4.6v-.9h.7v.9h-.7zm0 6.2v-5.3h.7v5.3h-.7zm2.4 0v-5.3h.6s.05.91 0 .9c.4-.6 1-1 1.9-1c1 0 1.8.7 1.8 1.9c.02.05 0 3.5 0 3.5h-.7s.04-3.24 0-3.2c0-1.1-.4-1.6-1.2-1.6h-.1c-1.1 0-1.7 1-1.7 2.2c.05-.04 0 2.6 0 2.6h-.6zm5.5.7h.7c.1.7.8 1 1.6 1h.2c.8 0 1.6-.5 1.6-1.8v-.9c-.3.6-.9 1-1.7 1c-1.3 0-2.3-1-2.3-2.6c0-1.7 1-2.8 2.3-2.8c.8 0 1.4.4 1.7 1c.05-.03 0-.9 0-.9h.7s.03 5.24 0 5.2c0 1.4-.9 2.4-2.4 2.4c-1.5 0-2.3-.7-2.4-1.6zm2.5-1.3c1 0 1.6-.7 1.6-2c0-1.4-.6-2.2-1.6-2.2h-.1c-.9 0-1.6.8-1.6 2.2c0 1.3.7 2 1.6 2h.1zm6.6-5.6v-.9h.8v.9h-.8zm0 6.2v-5.3h.7v5.3h-.7zm2.4 0v-5.3h.7s-.02.91 0 .9c.3-.6 1-1 1.8-1c1.1 0 1.9.7 1.9 1.9c-.05.05 0 3.5 0 3.5h-.7s-.03-3.24 0-3.2c0-1.1-.4-1.6-1.3-1.6h-.1c-1.1 0-1.6 1-1.6 2.2c-.02-.04 0 2.6 0 2.6h-.7zm9.3-.9c-.01.04 0 .9 0 .9h-.7v-7.4h.7v3c.3-.6 1.1-1 1.7-1c1.4 0 2.4 1.1 2.4 2.8c0 1.6-1 2.7-2.4 2.7c-.6 0-1.4-.4-1.7-1zm1.7.4c1.1 0 1.7-1 1.7-2.1c0-1.2-.6-2.2-1.7-2.2c-1.2 0-1.7 1-1.7 2.2c0 1.1.5 2.1 1.7 2.1zm3.7-1.3v-3.5h.7s-.02 3.29 0 3.3c0 1 .4 1.5 1.2 1.5h.1c.8 0 1.6-.7 1.6-1.9c-.03-.03 0-2.9 0-2.9h.6v5.3h-.6s-.03-1 0-1c-.3.7-.9 1.1-1.8 1.1c-1.2 0-1.8-.8-1.8-1.9zm5.9-4.4v-.9h.8v.9h-.8zm0 6.2v-5.3h.7v5.3h-.7zm2.4 0v-7.4h.7v7.4h-.7zm2-2.6c0-1.7 1-2.8 2.4-2.8c.7 0 1.4.4 1.7 1c.03-.03 0-3 0-3h.7v7.4h-.7s.03-.86 0-.9c-.3.6-1 1-1.7 1c-1.4 0-2.4-1.1-2.4-2.7zm2.5 2.1c1.1 0 1.6-1 1.6-2.1c0-1.2-.5-2.2-1.6-2.2h-.1c-1.1 0-1.7 1-1.7 2.2c0 1.1.6 2.1 1.7 2.1h.1zm3.9-5.7v-.9h.8v.9h-.8zm.1 6.2v-5.3h.7v5.3h-.7zm2.4 0v-5.3h.6s.04.91 0 .9c.3-.6 1-1 1.9-1c1 0 1.8.7 1.8 1.9v3.5h-.7s.03-3.24 0-3.2c0-1.1-.4-1.6-1.2-1.6h-.1c-1.1 0-1.7 1-1.7 2.2c.04-.04 0 2.6 0 2.6h-.6zm5.5.7h.7c.1.7.7 1 1.6 1h.1c.9 0 1.7-.5 1.7-1.8v-.9c-.3.6-.9 1-1.7 1c-1.3 0-2.3-1-2.3-2.6c0-1.7 1-2.8 2.3-2.8c.8 0 1.4.4 1.7 1c.04-.03 0-.9 0-.9h.7s.02 5.24 0 5.2c0 1.4-.9 2.4-2.4 2.4c-1.5 0-2.3-.7-2.4-1.6zm2.5-1.3c1 0 1.6-.7 1.6-2c0-1.4-.6-2.2-1.6-2.2h-.1c-.9 0-1.6.8-1.6 2.2c0 1.3.7 2 1.6 2h.1zm6.6.6v-5.3h.7s-.05 1.23 0 1.2c.2-.8.9-1.2 1.6-1.2c-.02-.02.5 0 .5 0v.6h-.5c-1 0-1.6.8-1.6 2.1v2.6h-.7zm3.2-2.7c0-1.8 1.2-2.7 2.4-2.7c1.2 0 2.1 1 2.1 2.4c-.02-.01 0 .4 0 .4h-3.8c0 1.5.8 2.1 1.6 2.1h.1c.7 0 1.2-.3 1.4-1h.7c-.3 1-1.1 1.6-2.1 1.6c-1.4 0-2.4-1-2.4-2.8zm3.8-.5c0-.9-.6-1.6-1.4-1.6h-.1c-.7 0-1.4.4-1.6 1.6h3.1zm1.6 1.6h.7c.1.7.7 1.1 1.4 1.1h.1c.7 0 1.2-.4 1.2-.9c0-.4-.2-.7-.9-.8l-.8-.2c-.8-.2-1.4-.5-1.4-1.4c0-1 .8-1.6 1.8-1.6c1.3 0 2 .8 2 1.7h-.7c0-.6-.5-1.1-1.2-1.1h-.1c-.8 0-1.2.4-1.2.9c0 .5.3.7 1 .8l.8.2c.8.2 1.4.5 1.4 1.4c0 1-.8 1.6-2 1.6c-1.3 0-2-.7-2.1-1.7zm5.4-4.6v-.9h.8v.9h-.8zm.1 6.2v-5.3h.6v5.3h-.6zm2-2.6c0-1.7 1-2.8 2.4-2.8c.6 0 1.4.4 1.7 1v-3h.7v7.4h-.7s.01-.86 0-.9c-.3.6-1.1 1-1.7 1c-1.4 0-2.4-1.1-2.4-2.7zm2.4 2.1c1.2 0 1.7-1 1.7-2.1c0-1.2-.5-2.2-1.7-2.2c-1.2 0-1.7 1-1.7 2.2c0 1.1.5 2.1 1.7 2.1zm3.8-2.2c0-1.8 1.1-2.7 2.3-2.7c1.3 0 2.1 1 2.1 2.4c.02-.01 0 .4 0 .4h-3.8c.1 1.5.8 2.1 1.7 2.1c.8 0 1.2-.3 1.4-1h.7c-.2 1-1 1.6-2.1 1.6c-1.3 0-2.3-1-2.3-2.8zm3.7-.5c0-.9-.5-1.6-1.4-1.6h-.1c-.6 0-1.4.4-1.5 1.6h3zm2.1 3.2v-5.3h.7s-.03.91 0 .9c.3-.6 1-1 1.8-1c1.1 0 1.8.7 1.8 1.9c.05.05 0 3.5 0 3.5h-.6s-.03-3.24 0-3.2c0-1.1-.5-1.6-1.3-1.6h-.1c-1.1 0-1.6 1-1.6 2.2c-.03-.04 0 2.6 0 2.6h-.7zm7.4 0c-.6 0-1-.3-1-1c.04.04 0-3.7 0-3.7h-1.2v-.6h1.2V77h.7v1.7h1.3v.6H218s.02 3.69 0 3.7c0 .3.1.4.4.4c.04.01 1.1 0 1.1 0v.6s-1.16-.02-1.2 0zm2.2-6.2v-.9h.8v.9h-.8zm.1 6.2v-5.3h.6v5.3h-.6zm2-1.5c0-1.1 1-1.5 1.8-1.5c.01-.04 1.7-.2 1.7-.2c0 0-.03-.18 0-.2c0-.9-.5-1.4-1.3-1.4h-.1c-.7 0-1.2.3-1.3 1h-.7c.1-.9.9-1.6 2-1.6c1.4 0 2.1 1 2.1 2v3.4h-.6c-.1-.2-.1-.6-.1-.9c-.2.5-.9 1-1.8 1c-1 0-1.7-.7-1.7-1.6zm1.8 1c.8 0 1.7-.6 1.7-1.4c-.03-.01 0-.7 0-.7c0 0-1.55.09-1.5.1c-.8 0-1.3.4-1.3 1c0 .6.4 1 1 1h.1zm4 .5v-7.4h.7v7.4h-.7z" stroke="none" fill="#192d39"/></g><g id="Polygon15551"><path d="m13.5 65.8c0-2.4 1.4-3.8 3.3-3.8c2 0 3.4 1.4 3.4 3.8c0 2.4-1.4 3.8-3.4 3.8c-1.9 0-3.3-1.4-3.3-3.8zm3.4 3.1c1.5 0 2.6-1.2 2.6-3.1c0-1.9-1.1-3.1-2.6-3.1h-.1c-1.5 0-2.6 1.2-2.6 3.1c0 1.9 1.1 3.1 2.6 3.1h.1zm8.2-4.7h.8l-2.1 5.3h-.8l-2-5.3h.7l1.7 4.7l1.7-4.7zm1.4 2.6c0-1.8 1.1-2.7 2.3-2.7c1.3 0 2.1 1 2.1 2.4c.02-.01 0 .4 0 .4h-3.8c.1 1.5.8 2.1 1.7 2.1h.1c.7 0 1.1-.3 1.3-1h.7c-.2 1-1 1.6-2.1 1.6c-1.3 0-2.3-1-2.3-2.8zm3.7-.5c0-.9-.5-1.6-1.4-1.6h-.1c-.6 0-1.4.4-1.5 1.6h3zm2.1 3.2v-5.3h.6s.03 1.23 0 1.2c.3-.8.9-1.2 1.7-1.2c-.04-.02.4 0 .4 0v.6h-.4c-1 0-1.6.8-1.6 2.1c-.02.03 0 2.6 0 2.6h-.7zm11-2.5c0 1.6-1.1 2.6-2.4 2.6c-1.7 0-2.7-1.4-2.7-3.6c0-2.3 1.2-4 2.9-4c1.2 0 2.1.7 2.3 1.9h-.7c-.2-.7-.8-1.2-1.5-1.2h-.2c-1.2 0-2.1 1.3-2.2 3.3c.4-.9 1.3-1.3 2.1-1.3c1.4 0 2.4 1 2.4 2.3zm-2.4 1.9c1 0 1.7-.7 1.7-1.8c0-1-.7-1.8-1.7-1.8h-.1c-1 0-1.7.8-1.7 1.8c0 1 .7 1.8 1.7 1.8h.1zm3.7-3.1c0-2.5 1-3.8 2.7-3.8c1.8 0 2.8 1.3 2.8 3.8c0 2.5-1 3.8-2.8 3.8c-1.7 0-2.7-1.3-2.7-3.8zm2.8 3.1c.9 0 2-.7 2-3.1c0-2.4-1.1-3.1-2-3.1h-.1c-.9 0-2 .7-2 3.1c0 2.4 1.1 3.1 2 3.1h.1zm11.1-4.7l-2.2 5.1s.03 1 0 1c0 .6-.3.9-1 .9c.04.02-1.6 0-1.6 0v-.6s1.53.04 1.5 0c.3 0 .5-.1.5-.4c-.05.02 0-.9 0-.9l-2.3-5.1h.8l1.8 4.3l1.8-4.3h.7zm.6 2.6c0-1.8 1.1-2.7 2.3-2.7c1.3 0 2.1 1 2.1 2.4c.02-.01 0 .4 0 .4h-3.8c.1 1.5.8 2.1 1.7 2.1c.8 0 1.2-.3 1.4-1h.7c-.2 1-1 1.6-2.1 1.6c-1.3 0-2.3-1-2.3-2.8zm3.7-.5c0-.9-.5-1.6-1.4-1.6h-.1c-.6 0-1.4.4-1.5 1.6h3zm1.8 1.7c0-1.1 1-1.5 1.8-1.5c-.01-.04 1.7-.2 1.7-.2c0 0-.05-.18 0-.2c0-.9-.6-1.4-1.4-1.4c-.7 0-1.3.3-1.3 1h-.7c.1-.9.9-1.6 2-1.6c1.4 0 2 1 2 2v2.2c0 .3 0 .8.1 1.2h-.6c-.1-.2-.1-.6-.1-.9c-.2.5-.9 1-1.9 1c-.9 0-1.6-.7-1.6-1.6zm1.8 1c.7 0 1.7-.6 1.7-1.4c-.05-.01 0-.7 0-.7l-1.6.1c-.7 0-1.2.4-1.2 1c0 .6.4 1 1 1h.1zm4 .5v-5.3h.6v1.2c.2-.8.9-1.2 1.6-1.2c.02-.02.5 0 .5 0v.6h-.4c-1 0-1.7.8-1.7 2.1c.04.03 0 2.6 0 2.6h-.6zm3.2-1.6h.7c.1.7.6 1.1 1.4 1.1h.1c.7 0 1.2-.4 1.2-.9c0-.4-.3-.7-1-.8l-.7-.2c-.8-.2-1.5-.5-1.5-1.4c0-1 .9-1.6 1.9-1.6c1.3 0 1.9.8 2 1.7h-.7c-.1-.6-.5-1.1-1.2-1.1h-.1c-.8 0-1.2.4-1.2.9c0 .5.3.7 1 .8l.8.2c.7.2 1.3.5 1.3 1.4c0 1-.7 1.6-1.9 1.6c-1.3 0-2-.7-2.1-1.7zm7.7-1c0-1.7 1.1-2.8 2.5-2.8c1.3 0 2.4 1.1 2.4 2.8c0 1.6-1.1 2.7-2.4 2.7c-1.4 0-2.5-1.1-2.5-2.7zm2.5 2.1c1 0 1.7-.8 1.7-2.1c0-1.4-.7-2.2-1.7-2.2h-.1c-.9 0-1.7.8-1.7 2.2c0 1.3.8 2.1 1.7 2.1h.1zm4.2.5v-4.7h-1.2v-.6h1.2s-.03-1.12 0-1.1c0-.7.3-1 1-1c-.03.03 1.3 0 1.3 0v.6h-1.2c-.3 0-.4.1-.4.4c-.05.03 0 1.1 0 1.1h1.3v.6h-1.3v4.7h-.7zm5.5 0v-7.4h.6s.03 3.03 0 3c.4-.6 1-1 1.9-1c1.2 0 1.8.8 1.8 1.9v3.5h-.7s.03-3.27 0-3.3c0-1-.4-1.5-1.2-1.5h-.1c-.8 0-1.7.7-1.7 1.9c.03.05 0 2.9 0 2.9h-.6zm5.9-6.2v-.9h.8v.9h-.8zm0 6.2v-5.3h.7v5.3h-.7zm2-1.6h.7c0 .7.6 1.1 1.3 1.1h.1c.8 0 1.2-.4 1.2-.9c0-.4-.2-.7-.9-.8l-.8-.2c-.8-.2-1.4-.5-1.4-1.4c0-1 .9-1.6 1.9-1.6c1.3 0 1.9.8 2 1.7h-.7c-.1-.6-.5-1.1-1.3-1.1h-.1c-.7 0-1.1.4-1.1.9c0 .5.3.7.9.8l.9.2c.7.2 1.3.5 1.3 1.4c0 1-.8 1.6-1.9 1.6c-1.4 0-2.1-.7-2.1-1.7zm6.9 1.6c-.7 0-1-.3-1-1c-.04.04 0-3.7 0-3.7h-1.2v-.6h1.2v-1.7h.6v1.7h1.4v.6h-1.4s.04 3.69 0 3.7c0 .3.1.4.5.4h1v.6s-1.14-.02-1.1 0zm1.8-2.6c0-1.7 1-2.8 2.4-2.8c1.4 0 2.4 1.1 2.4 2.8c0 1.6-1 2.7-2.4 2.7c-1.4 0-2.4-1.1-2.4-2.7zm2.5 2.1c.9 0 1.6-.8 1.6-2.1c0-1.4-.7-2.2-1.6-2.2h-.2c-.9 0-1.6.8-1.6 2.2c0 1.3.7 2.1 1.6 2.1h.2zm3.7.5v-5.3h.6v1.2c.2-.8.9-1.2 1.6-1.2c.02-.02.5 0 .5 0v.6h-.4c-1 0-1.7.8-1.7 2.1c.05.03 0 2.6 0 2.6h-.6zm8.2-5.3l-2.2 5.1s.04 1 0 1c0 .6-.3.9-1 .9c.04.02-1.6 0-1.6 0v-.6s1.53.04 1.5 0c.3 0 .5-.1.5-.4c-.05.02 0-.9 0-.9l-2.3-5.1h.8l1.8 4.3l1.8-4.3h.7zm3.4 3.5c-.02 0 0-3.5 0-3.5h.7s-.04 3.29 0 3.3c0 1 .4 1.5 1.2 1.5h.1c.8 0 1.6-.7 1.6-1.9c-.05-.03 0-2.9 0-2.9h.6v5.3h-.6s-.05-1 0-1c-.3.7-.9 1.1-1.8 1.1c-1.2 0-1.8-.8-1.8-1.9zm5.9 1.8v-5.3h.7s-.01.91 0 .9c.3-.6 1-1 1.8-1c1.1 0 1.9.7 1.9 1.9c-.03.05 0 3.5 0 3.5h-.7v-3.2c0-1.1-.4-1.6-1.3-1.6c-1.2 0-1.7 1-1.7 2.2v2.6h-.7zm5.7-2.6c0-1.7 1-2.8 2.3-2.8c.7 0 1.5.4 1.8 1c-.02-.03 0-3 0-3h.7v7.4h-.7s-.02-.86 0-.9c-.3.6-1.1 1-1.8 1c-1.3 0-2.3-1.1-2.3-2.7zm2.4 2.1c1.1 0 1.7-1 1.7-2.1c0-1.2-.6-2.2-1.7-2.2h-.1c-1.1 0-1.6 1-1.6 2.2c0 1.1.5 2.1 1.6 2.1h.1zm3.7-2.2c0-1.8 1.2-2.7 2.4-2.7c1.2 0 2.1 1 2.1 2.4v.4h-3.8c0 1.5.8 2.1 1.7 2.1c.7 0 1.2-.3 1.4-1h.7c-.3 1-1.1 1.6-2.1 1.6c-1.3 0-2.4-1-2.4-2.8zm3.8-.5c0-.9-.6-1.6-1.4-1.6h-.1c-.7 0-1.4.4-1.6 1.6h3.1zm2.1 3.2v-5.3h.6v1.2c.2-.8.9-1.2 1.6-1.2c.02-.02.5 0 .5 0v.6h-.4c-1 0-1.7.8-1.7 2.1c.05.03 0 2.6 0 2.6h-.6zm7.4 0c-.7 0-1-.3-1-1v-3.7h-1.2v-.6h1.2v-1.7h.7v1.7h1.3v.6h-1.3s-.02 3.69 0 3.7c0 .3.1.4.4.4c0 .01 1.1 0 1.1 0v.6s-1.2-.02-1.2 0zm2.2 0v-7.4h.7v3c.4-.6 1-1 1.9-1c1.2 0 1.8.8 1.8 1.9c-.03.02 0 3.5 0 3.5h-.7s-.01-3.27 0-3.3c0-1-.4-1.5-1.3-1.5h-.1c-.8 0-1.6.7-1.6 1.9v2.9h-.7zm5.7-2.7c0-1.8 1.1-2.7 2.3-2.7c1.3 0 2.1 1 2.1 2.4c.04-.01 0 .4 0 .4c0 0-3.74.01-3.7 0c0 1.5.8 2.1 1.6 2.1h.1c.7 0 1.2-.3 1.4-1h.6c-.2 1-1 1.6-2.1 1.6c-1.3 0-2.3-1-2.3-2.8zm3.8-.5c-.1-.9-.6-1.6-1.4-1.6h-.1c-.7 0-1.5.4-1.6 1.6h3.1zm4.2 1.6h.7c.1.7.6 1.1 1.4 1.1h.1c.7 0 1.2-.4 1.2-.9c0-.4-.3-.7-1-.8l-.7-.2c-.8-.2-1.5-.5-1.5-1.4c0-1 .9-1.6 1.9-1.6c1.3 0 1.9.8 2 1.7h-.7c0-.6-.5-1.1-1.2-1.1h-.1c-.8 0-1.2.4-1.2.9c0 .5.3.7 1 .8l.8.2c.7.2 1.3.5 1.3 1.4c0 1-.7 1.6-1.9 1.6c-1.3 0-2-.7-2.1-1.7zm5.1.1c0-1.1 1-1.5 1.9-1.5c-.04-.04 1.6-.2 1.6-.2v-.2c0-.9-.5-1.4-1.3-1.4h-.1c-.6 0-1.2.3-1.3 1h-.6c0-.9.8-1.6 2-1.6c1.3 0 2 1 2 2v3.4h-.6v-.9c-.2.5-1 1-1.9 1c-.9 0-1.7-.7-1.7-1.6zm1.9 1c.7 0 1.6-.6 1.6-1.4v-.7s-1.51.09-1.5.1c-.8 0-1.3.4-1.3 1c0 .6.5 1 1.1 1h.1zm3.9.5v-5.3h.7s.01.87 0 .9c.3-.6.9-1 1.7-1c.8 0 1.4.4 1.7 1.1c.4-.7 1-1.1 1.9-1.1c1 0 1.7.7 1.7 1.9c.04.05 0 3.5 0 3.5h-.6s-.04-3.24 0-3.2c0-1.1-.4-1.6-1.2-1.6h-.1c-1.1 0-1.6 1-1.6 2.2c.02-.04 0 2.6 0 2.6h-.7s.04-3.24 0-3.2c0-1.1-.4-1.6-1.2-1.6c-1.1 0-1.6 1-1.6 2.2v2.6h-.7zm9.1-2.7c0-1.8 1.1-2.7 2.3-2.7c1.3 0 2.1 1 2.1 2.4c.02-.01 0 .4 0 .4h-3.8c.1 1.5.8 2.1 1.7 2.1c.8 0 1.2-.3 1.4-1h.7c-.2 1-1 1.6-2.1 1.6c-1.3 0-2.3-1-2.3-2.8zm3.7-.5c0-.9-.5-1.6-1.4-1.6h-.1c-.6 0-1.4.4-1.5 1.6h3zm4.7 3.2v-5.3h.7v.9c.3-.6 1-1 1.8-1c1.1 0 1.9.7 1.9 1.9c-.03.05 0 3.5 0 3.5h-.7v-3.2c0-1.1-.4-1.6-1.3-1.6c-1.2 0-1.7 1-1.7 2.2v2.6h-.7zm5.7-1.5c0-1.1 1-1.5 1.8-1.5c0-.04 1.7-.2 1.7-.2c0 0-.04-.18 0-.2c0-.9-.5-1.4-1.4-1.4c-.7 0-1.2.3-1.3 1h-.7c.1-.9.9-1.6 2-1.6c1.4 0 2 1 2 2v2.2c0 .3 0 .8.1 1.2h-.6c-.1-.2-.1-.6-.1-.9c-.2.5-.9 1-1.8 1c-1 0-1.7-.7-1.7-1.6zm1.8 1c.8 0 1.7-.6 1.7-1.4c-.04-.01 0-.7 0-.7l-1.6.1c-.7 0-1.2.4-1.2 1c0 .6.4 1 1 1h.1zm4 .5v-5.3h.7s-.05.87 0 .9c.3-.6.9-1 1.7-1c.8 0 1.4.4 1.6 1.1c.4-.7 1.1-1.1 1.9-1.1c1 0 1.8.7 1.8 1.9v3.5h-.7v-3.2c0-1.1-.4-1.6-1.2-1.6h-.1c-1 0-1.5 1-1.5 2.2c-.03-.04 0 2.6 0 2.6h-.7v-3.2c0-1.1-.4-1.6-1.2-1.6h-.1c-1 0-1.5 1-1.5 2.2c-.05-.04 0 2.6 0 2.6h-.7zm9-2.7c0-1.8 1.1-2.7 2.3-2.7c1.3 0 2.2 1 2.2 2.4c-.04-.01 0 .4 0 .4h-3.8c0 1.5.8 2.1 1.6 2.1h.1c.7 0 1.2-.3 1.4-1h.7c-.3 1-1.1 1.6-2.2 1.6c-1.3 0-2.3-1-2.3-2.8zm3.8-.5c0-.9-.6-1.6-1.4-1.6h-.1c-.7 0-1.4.4-1.6 1.6h3.1z" stroke="none" fill="#192d39"/></g><g id="Polygon15550"><path d="m13.5 35.7c0-1.1.9-1.5 1.8-1.5c-.04-.03 1.6-.2 1.6-.2c0 0 .02-.17 0-.2c0-.9-.5-1.4-1.3-1.4c-.7 0-1.3.3-1.4 1h-.6c0-.9.8-1.6 2-1.6c1.3 0 2 1 2 2v2.2c0 .3 0 .8.1 1.2h-.7v-.8c-.2.4-1 .9-1.9.9c-.9 0-1.6-.7-1.6-1.6zm1.8 1c.7 0 1.6-.6 1.6-1.4c.02 0 0-.7 0-.7l-1.5.1c-.8.1-1.3.4-1.3 1c0 .6.5 1 1.1 1h.1zm3.5-1.1h.7c.1.7.6 1.1 1.4 1.1h.1c.7 0 1.1-.3 1.1-.9c0-.4-.2-.7-.9-.8l-.7-.2c-.8-.2-1.5-.5-1.5-1.4c0-1 .9-1.6 1.9-1.6c1.3 0 1.9.9 2 1.7h-.7c-.1-.6-.5-1.1-1.2-1.1h-.1c-.8 0-1.2.5-1.2.9c0 .5.3.7 1 .9l.8.1c.7.2 1.3.5 1.3 1.4c0 1-.7 1.6-1.9 1.6c-1.3 0-2-.7-2.1-1.7zm5 0h.7c.1.7.6 1.1 1.4 1.1h.1c.7 0 1.2-.3 1.2-.9c0-.4-.3-.7-1-.8l-.7-.2c-.8-.2-1.5-.5-1.5-1.4c0-1 .9-1.6 1.9-1.6c1.3 0 1.9.9 2 1.7h-.7c-.1-.6-.5-1.1-1.2-1.1h-.1c-.8 0-1.2.5-1.2.9c0 .5.3.7 1 .9l.8.1c.7.2 1.3.5 1.3 1.4c0 1-.7 1.6-1.9 1.6c-1.3 0-2-.7-2.1-1.7zm5.1-1c0-1.9 1.2-2.8 2.4-2.8c1.3 0 2.1 1.1 2.1 2.4v.4s-3.79.02-3.8 0c0 1.5.8 2.1 1.7 2.1c.7 0 1.2-.3 1.4-1h.7c-.2 1-1.1 1.6-2.1 1.6c-1.3 0-2.4-.9-2.4-2.7zm3.8-.6c0-.9-.6-1.6-1.4-1.6h-.1c-.7 0-1.4.4-1.6 1.6h3.1zm1.7 1.6h.6c.1.7.7 1.1 1.4 1.1h.1c.7 0 1.2-.3 1.2-.9c0-.4-.2-.7-.9-.8l-.8-.2c-.8-.2-1.4-.5-1.4-1.4c0-1 .8-1.6 1.8-1.6c1.4 0 2 .9 2 1.7h-.7c0-.6-.5-1.1-1.2-1.1h-.1c-.7 0-1.2.5-1.2.9c0 .5.3.7 1 .9l.8.1c.8.2 1.4.5 1.4 1.4c0 1-.8 1.6-2 1.6c-1.3 0-2-.7-2-1.7zm5 0h.6c.1.7.7 1.1 1.4 1.1h.1c.7 0 1.2-.3 1.2-.9c0-.4-.2-.7-.9-.8l-.8-.2c-.8-.2-1.4-.5-1.4-1.4c0-1 .9-1.6 1.9-1.6c1.3 0 1.9.9 1.9 1.7h-.7c0-.6-.5-1.1-1.2-1.1h-.1c-.7 0-1.1.5-1.1.9c0 .5.2.7.9.9l.8.1c.8.2 1.4.5 1.4 1.4c0 1-.8 1.6-1.9 1.6c-1.4 0-2.1-.7-2.1-1.7zm5.1-1c0-1.9 1.1-2.8 2.3-2.8c1.3 0 2.1 1.1 2.1 2.4c.03 0 0 .4 0 .4c0 0-3.75.02-3.7 0c0 1.5.7 2.1 1.6 2.1h.1c.7 0 1.1-.3 1.3-1h.7c-.2 1-1 1.6-2.1 1.6c-1.3 0-2.3-.9-2.3-2.7zm3.7-.6c0-.9-.5-1.6-1.3-1.6h-.2c-.6 0-1.4.4-1.5 1.6h3zm1.7 1.6h.7c.1.7.6 1.1 1.3 1.1h.1c.8 0 1.2-.3 1.2-.9c0-.4-.2-.7-.9-.8l-.8-.2c-.7-.2-1.4-.5-1.4-1.4c0-1 .9-1.6 1.9-1.6c1.3 0 1.9.9 2 1.7h-.7c-.1-.6-.5-1.1-1.3-1.1h-.1c-.7 0-1.1.5-1.1.9c0 .5.3.7.9.9l.9.1c.7.2 1.3.5 1.3 1.4c0 1-.8 1.6-1.9 1.6c-1.4 0-2-.7-2.1-1.7zm7.7-1c0-1.7 1-2.8 2.4-2.8c.6 0 1.4.4 1.7 1c.02-.02 0-3 0-3h.7v7.4h-.7s.02-.85 0-.8c-.3.5-1.1.9-1.7.9c-1.4 0-2.4-1.1-2.4-2.7zm2.4 2.1c1.2 0 1.7-1 1.7-2.1c0-1.2-.5-2.2-1.7-2.2c-1.1 0-1.7 1-1.7 2.2c0 1.1.6 2.1 1.7 2.1zm3.8-2.1c0-1.9 1.1-2.8 2.3-2.8c1.3 0 2.1 1.1 2.1 2.4c.03 0 0 .4 0 .4c0 0-3.75.02-3.8 0c.1 1.5.8 2.1 1.7 2.1h.1c.7 0 1.1-.3 1.3-1h.7c-.2 1-1 1.6-2.1 1.6c-1.3 0-2.3-.9-2.3-2.7zm3.7-.6c0-.9-.5-1.6-1.3-1.6h-.2c-.6 0-1.4.4-1.5 1.6h3zm5.5-2.1h.8l-2.1 5.3h-.8l-2-5.3h.7l1.7 4.7l1.7-4.7zm1.4 2.7c0-1.9 1.1-2.8 2.3-2.8c1.3 0 2.1 1.1 2.1 2.4c.02 0 0 .4 0 .4c0 0-3.76.02-3.8 0c.1 1.5.8 2.1 1.7 2.1h.1c.7 0 1.1-.3 1.3-1h.7c-.2 1-1 1.6-2.1 1.6c-1.3 0-2.3-.9-2.3-2.7zm3.7-.6c0-.9-.5-1.6-1.4-1.6h-.1c-.6 0-1.4.4-1.5 1.6h3zm2.1 3.2v-7.4h.7v7.4h-.7zm2-2.6c0-1.7 1.1-2.8 2.5-2.8c1.3 0 2.4 1.1 2.4 2.8c0 1.6-1.1 2.7-2.4 2.7c-1.4 0-2.5-1.1-2.5-2.7zm2.5 2.1c1 0 1.7-.8 1.7-2.1c0-1.4-.7-2.2-1.7-2.2h-.1c-.9 0-1.7.8-1.7 2.2c0 1.3.8 2.1 1.7 2.1h.1zm3.7 2.6v-7.4h.7v.9c.3-.6 1.1-1 1.8-1c1.3 0 2.3 1.1 2.3 2.8c0 1.6-1 2.7-2.3 2.7c-.7 0-1.5-.4-1.8-.9v2.9h-.7zm2.4-2.6c1.2 0 1.7-1 1.7-2.1c0-1.2-.5-2.2-1.7-2.2c-1.2 0-1.7 1-1.7 2.2c0 1.1.5 2.1 1.7 2.1zm3.4-2.1c0-1.9 1.2-2.8 2.4-2.8c1.3 0 2.1 1.1 2.1 2.4v.4s-3.77.02-3.8 0c.1 1.5.8 2.1 1.7 2.1c.8 0 1.2-.3 1.4-1h.7c-.2 1-1 1.6-2.1 1.6c-1.3 0-2.4-.9-2.4-2.7zM98 34c0-.9-.5-1.6-1.4-1.6h-.1c-.6 0-1.4.4-1.5 1.6h3zm2.1 3.2v-5.3h.6s.02 1.24 0 1.2c.3-.8.9-1.2 1.6-1.2h.5v.6s-.4.02-.4 0c-1 0-1.6.8-1.6 2.1c-.03.04 0 2.6 0 2.6h-.7zm3.3-1.6h.6c.1.7.7 1.1 1.4 1.1h.1c.7 0 1.2-.3 1.2-.9c0-.4-.2-.7-.9-.8l-.8-.2c-.8-.2-1.4-.5-1.4-1.4c0-1 .8-1.6 1.8-1.6c1.4 0 2 .9 2 1.7h-.7c0-.6-.5-1.1-1.2-1.1h-.1c-.7 0-1.2.5-1.2.9c0 .5.3.7 1 .9l.8.1c.8.2 1.4.5 1.4 1.4c0 1-.8 1.6-2 1.6c-1.3 0-2-.7-2-1.7zm7.7-1c0-1.7 1-2.8 2.4-2.8c1.3 0 2.4 1.1 2.4 2.8c0 1.6-1.1 2.7-2.4 2.7c-1.4 0-2.4-1.1-2.4-2.7zm2.4 2.1c1 0 1.7-.8 1.7-2.1c0-1.4-.7-2.2-1.7-2.2h-.1c-.9 0-1.6.8-1.6 2.2c0 1.3.7 2.1 1.6 2.1h.1zm3.8.5v-5.3h.6s.04.92 0 .9c.3-.6 1-1 1.9-1c1 0 1.8.7 1.8 2c.01-.04 0 3.4 0 3.4h-.7s.03-3.23 0-3.2c0-1.1-.4-1.6-1.2-1.6h-.1c-1.1 0-1.7 1-1.7 2.2c.04-.04 0 2.6 0 2.6h-.6zm8.3-1.5c0-1.1 1-1.5 1.8-1.5c-.03-.03 1.6-.2 1.6-.2c0 0 .03-.17 0-.2c0-.9-.5-1.4-1.3-1.4c-.7 0-1.3.3-1.4 1h-.6c0-.9.9-1.6 2-1.6c1.3 0 2 1 2 2v2.2c0 .3 0 .8.1 1.2h-.7v-.8c-.2.4-1 .9-1.9.9c-.9 0-1.6-.7-1.6-1.6zm1.8 1c.7 0 1.6-.6 1.6-1.4c.03 0 0-.7 0-.7l-1.5.1c-.7.1-1.3.4-1.3 1c0 .6.5 1 1.1 1h.1zm4.6-.3c.02-.05 0 .8 0 .8h-.7v-7.4h.7s.02 2.98 0 3c.3-.6 1.1-1 1.8-1c1.3 0 2.3 1.1 2.3 2.8c0 1.6-1 2.7-2.3 2.7c-.7 0-1.5-.4-1.8-.9zm1.7.3c1.2 0 1.7-1 1.7-2.1c0-1.2-.5-2.2-1.7-2.2c-1.1 0-1.7 1-1.7 2.2c0 1.1.6 2.1 1.7 2.1zm3.7-5.7v-.9h.8v.9h-.8zm.1 6.2v-5.3h.7v5.3h-.7zm2.3 0v-7.4h.7v7.4h-.7zm2.3-6.2v-.9h.8v.9h-.8zm.1 6.2v-5.3h.7v5.3h-.7zm3.9 0c-.7 0-1-.3-1-1c-.01.05 0-3.7 0-3.7h-1.2v-.6h1.2v-1.7h.7v1.7h1.3v.6h-1.3s-.03 3.69 0 3.7c0 .3.1.4.4.4h1v.6s-1.11-.01-1.1 0zm6.7-5.3l-2.2 5.1v1c0 .6-.3.9-1 .9c.02.02-1.6 0-1.6 0v-.6s1.51.05 1.5 0c.3 0 .4-.1.4-.4c.03.03 0-.9 0-.9l-2.2-5.1h.7l1.9 4.3l1.8-4.3h.7zm3.1 3.8c0-1.1 1-1.5 1.8-1.5c.01-.03 1.7-.2 1.7-.2c0 0-.03-.17 0-.2c0-.9-.5-1.4-1.3-1.4h-.1c-.7 0-1.2.3-1.3 1h-.7c.1-.9.9-1.6 2-1.6c1.4 0 2.1 1 2.1 2v3.4h-.6c-.1-.2-.1-.6-.1-.8c-.2.4-.9.9-1.8.9c-1 0-1.7-.7-1.7-1.6zm1.8 1c.8 0 1.7-.6 1.7-1.4c-.03 0 0-.7 0-.7l-1.6.1c-.7.1-1.2.4-1.2 1c0 .6.4 1 1 1h.1zm4 .5v-5.3h.7s-.04.92 0 .9c.3-.6.9-1 1.8-1c1 0 1.8.7 1.8 2c.04-.04 0 3.4 0 3.4h-.6s-.05-3.23 0-3.2c0-1.1-.5-1.6-1.3-1.6h-.1c-1.1 0-1.6 1-1.6 2.2c-.04-.04 0 2.6 0 2.6h-.7zm5.6-2.6c0-1.7 1-2.8 2.4-2.8c.7 0 1.4.4 1.7 1c.04-.02 0-3 0-3h.7v7.4h-.7s.04-.85 0-.8c-.3.5-1 .9-1.7.9c-1.4 0-2.4-1.1-2.4-2.7zm2.5 2.1c1.1 0 1.6-1 1.6-2.1c0-1.2-.5-2.2-1.6-2.2h-.1c-1.1 0-1.7 1-1.7 2.2c0 1.1.6 2.1 1.7 2.1h.1zm7.9.5c-.6 0-1-.3-1-1c.05.05 0-3.7 0-3.7h-1.2v-.6h1.2v-1.7h.7v1.7h1.3v.6h-1.3s.03 3.69 0 3.7c0 .3.1.4.4.4c.05.01 1.1 0 1.1 0v.6h-1.2zm2.3 0v-5.3h.6v1.2c.2-.8.9-1.2 1.6-1.2h.5v.6s-.43.02-.4 0c-1 0-1.7.8-1.7 2.1c.04.04 0 2.6 0 2.6h-.6zm3.7-1.8c-.03.01 0-3.5 0-3.5h.6s.05 3.3 0 3.3c0 1 .5 1.5 1.3 1.5h.1c.8 0 1.5-.7 1.5-1.9c.04-.03 0-2.9 0-2.9h.7v5.3h-.7s.04-1 0-1c-.2.7-.9 1.1-1.7 1.1c-1.2 0-1.8-.8-1.8-1.9zm5.5.2h.7c0 .7.6 1.1 1.3 1.1h.1c.8 0 1.2-.3 1.2-.9c0-.4-.2-.7-.9-.8l-.8-.2c-.8-.2-1.4-.5-1.4-1.4c0-1 .9-1.6 1.9-1.6c1.3 0 1.9.9 2 1.7h-.7c-.1-.6-.5-1.1-1.3-1.1h-.1c-.7 0-1.1.5-1.1.9c0 .5.3.7.9.9l.9.1c.7.2 1.3.5 1.3 1.4c0 1-.8 1.6-1.9 1.6c-1.4 0-2.1-.7-2.1-1.7zm6.9 1.6c-.7 0-1-.3-1-1c-.04.05 0-3.7 0-3.7h-1.2v-.6h1.2v-1.7h.6v1.7h1.4v.6h-1.4s.04 3.69 0 3.7c0 .3.1.4.5.4h1v.6s-1.15-.01-1.1 0zm8.5-5.3h.6l-1.6 5.3h-1l-1.1-4.5l-1.2 4.5h-.9l-1.7-5.3h.7l1.4 4.7l1.2-4.7h.9l1.2 4.7l1.5-4.7zm1.3 2.7c0-1.7 1.1-2.8 2.4-2.8c1.4 0 2.4 1.1 2.4 2.8c0 1.6-1 2.7-2.4 2.7c-1.3 0-2.4-1.1-2.4-2.7zm2.5 2.1c.9 0 1.6-.8 1.6-2.1c0-1.4-.7-2.2-1.6-2.2h-.1c-1 0-1.7.8-1.7 2.2c0 1.3.7 2.1 1.7 2.1h.1zm3.7.5v-5.3h.6s.02 1.24 0 1.2c.3-.8.9-1.2 1.6-1.2h.5v.6s-.4.02-.4 0c-1 0-1.6.8-1.6 2.1c-.03.04 0 2.6 0 2.6h-.7zm5.3 0c-.7 0-1-.3-1-1c-.03.05 0-3.7 0-3.7h-1.2v-.6h1.2v-1.7h.7v1.7h1.3v.6h-1.3s-.05 3.69 0 3.7c0 .3.1.4.4.4h1v.6s-1.13-.01-1.1 0zm2.2 0v-7.4h.7s-.03 3.03 0 3c.3-.6 1-1 1.9-1c1.1 0 1.7.8 1.7 1.9c.04.02 0 3.5 0 3.5h-.6s-.04-3.27 0-3.3c0-1-.5-1.5-1.3-1.5h-.1c-.8 0-1.6.7-1.6 2c-.03-.05 0 2.8 0 2.8h-.7zm5.9-6.2v-.9h.8v.9h-.8zm.1 6.2v-5.3h.7v5.3h-.7zm2.3 0v-5.3h.7s.01.92 0 .9c.3-.6 1-1 1.9-1c1 0 1.8.7 1.8 2c-.01-.04 0 3.4 0 3.4h-.7V34c0-1.1-.4-1.6-1.3-1.6c-1.1 0-1.7 1-1.7 2.2v2.6h-.7zm5.7-2.6c0-1.9 1.1-2.8 2.3-2.8c1.3 0 2.2 1.1 2.2 2.4c-.04 0 0 .4 0 .4c0 0-3.82.02-3.8 0c0 1.5.8 2.1 1.6 2.1h.1c.7 0 1.2-.3 1.4-1h.7c-.3 1-1.1 1.6-2.2 1.6c-1.3 0-2.3-.9-2.3-2.7zm3.8-.6c0-.9-.6-1.6-1.4-1.6h-.1c-.7 0-1.4.4-1.6 1.6h3.1zm1.6 1.6h.7c.1.7.6 1.1 1.4 1.1h.1c.7 0 1.2-.3 1.2-.9c0-.4-.3-.7-1-.8l-.7-.2c-.8-.2-1.5-.5-1.5-1.4c0-1 .9-1.6 1.9-1.6c1.3 0 1.9.9 2 1.7h-.7c-.1-.6-.5-1.1-1.2-1.1h-.1c-.8 0-1.2.5-1.2.9c0 .5.3.7 1 .9l.8.1c.7.2 1.3.5 1.3 1.4c0 1-.7 1.6-1.9 1.6c-1.3 0-2-.7-2.1-1.7zm5 0h.7c.1.7.7 1.1 1.4 1.1h.1c.7 0 1.2-.3 1.2-.9c0-.4-.3-.7-1-.8l-.7-.2c-.8-.2-1.4-.5-1.4-1.4c0-1 .8-1.6 1.8-1.6c1.3 0 1.9.9 2 1.7h-.7c0-.6-.5-1.1-1.2-1.1h-.1c-.8 0-1.2.5-1.2.9c0 .5.3.7 1 .9l.8.1c.8.2 1.3.5 1.3 1.4c0 1-.7 1.6-1.9 1.6c-1.3 0-2-.7-2.1-1.7zm5.4 1.6v-1.1h1v1.1h-1z" stroke="none" fill="#192d39"/></g><g id="Polygon15549"><path d="m15.8 22.7V16h-2.7v-.7h6.1v.7h-2.7v6.7h-.7zm4.4 0v-7.4h.6s.04 3.03 0 3c.4-.6 1.1-1 1.9-1c1.2 0 1.8.8 1.8 1.9c.02.02 0 3.5 0 3.5h-.7s.04-3.27 0-3.3c0-1-.4-1.5-1.2-1.5h-.1c-.8 0-1.7.7-1.7 2c.04-.05 0 2.8 0 2.8h-.6zm5.6-2.6c0-1.9 1.2-2.8 2.4-2.8c1.3 0 2.1 1.1 2.1 2.4v.4s-3.79.02-3.8 0c0 1.5.8 2.1 1.7 2.1c.7 0 1.2-.3 1.4-1h.7c-.2 1-1.1 1.6-2.1 1.6c-1.3 0-2.4-.9-2.4-2.7zm3.8-.6c0-.9-.6-1.6-1.4-1.6h-.1c-.7 0-1.4.4-1.6 1.6h3.1zm4.6-3v-.9h.8v.9h-.8zm.1 6.2v-5.3h.7v5.3h-.7zm2.4 0v-5.3h.6s.04.92 0 .9c.3-.6 1-1 1.9-1c1 0 1.8.7 1.8 2c.01-.04 0 3.4 0 3.4h-.7s.03-3.23 0-3.2c0-1.1-.4-1.6-1.2-1.6h-.1c-1.1 0-1.7 1-1.7 2.2c.04-.04 0 2.6 0 2.6h-.6zm5.6-2.6c0-1.7 1-2.8 2.4-2.8c.7 0 1.4.4 1.7 1c.02-.02 0-3 0-3h.7v7.4h-.7s.02-.85 0-.8c-.3.5-1 .9-1.7.9c-1.4 0-2.4-1.1-2.4-2.7zm2.4 2.1c1.2 0 1.7-1 1.7-2.1c0-1.2-.5-2.2-1.7-2.2c-1.1 0-1.7 1-1.7 2.2c0 1.1.6 2.1 1.7 2.1zm3.8-2.1c0-1.9 1.1-2.8 2.3-2.8c1.3 0 2.1 1.1 2.1 2.4c.03 0 0 .4 0 .4c0 0-3.75.02-3.7 0c0 1.5.7 2.1 1.6 2.1h.1c.7 0 1.1-.3 1.3-1h.7c-.2 1-1 1.6-2.1 1.6c-1.3 0-2.3-.9-2.3-2.7zm3.8-.6c-.1-.9-.6-1.6-1.4-1.6h-.2c-.6 0-1.4.4-1.5 1.6h3.1zm2 5.3v-7.4h.7s-.01.88 0 .9c.3-.6 1.1-1 1.7-1c1.4 0 2.4 1.1 2.4 2.8c0 1.6-1 2.7-2.4 2.7c-.6 0-1.4-.4-1.7-.9v2.9h-.7zm2.4-2.6c1.1 0 1.7-1 1.7-2.1c0-1.2-.6-2.2-1.7-2.2c-1.2 0-1.7 1-1.7 2.2c0 1.1.5 2.1 1.7 2.1zm3.4-2.1c0-1.9 1.2-2.8 2.4-2.8c1.3 0 2.1 1.1 2.1 2.4v.4s-3.78.02-3.8 0c0 1.5.8 2.1 1.7 2.1c.7 0 1.2-.3 1.4-1h.7c-.2 1-1.1 1.6-2.1 1.6c-1.3 0-2.4-.9-2.4-2.7zm3.8-.6c0-.9-.6-1.6-1.4-1.6h-.1c-.6 0-1.4.4-1.6 1.6h3.1zm2.1 3.2v-5.3h.7s-.05.92 0 .9c.3-.6.9-1 1.8-1c1 0 1.8.7 1.8 2c.03-.04 0 3.4 0 3.4h-.7s.05-3.23 0-3.2c0-1.1-.4-1.6-1.2-1.6h-.1c-1.1 0-1.6 1-1.6 2.2c-.05-.04 0 2.6 0 2.6h-.7zm5.6-2.6c0-1.7 1-2.8 2.4-2.8c.7 0 1.4.4 1.7 1c.04-.02 0-3 0-3h.7v7.4h-.7s.04-.85 0-.8c-.3.5-1 .9-1.7.9c-1.4 0-2.4-1.1-2.4-2.7zm2.5 2.1c1.1 0 1.6-1 1.6-2.1c0-1.2-.5-2.2-1.6-2.2h-.1c-1.1 0-1.7 1-1.7 2.2c0 1.1.6 2.1 1.7 2.1h.1zm3.7-2.1c0-1.9 1.1-2.8 2.3-2.8c1.3 0 2.1 1.1 2.1 2.4c.05 0 0 .4 0 .4c0 0-3.73.02-3.7 0c0 1.5.8 2.1 1.6 2.1h.1c.7 0 1.2-.3 1.4-1h.6c-.2 1-1 1.6-2.1 1.6c-1.3 0-2.3-.9-2.3-2.7zm3.8-.6c-.1-.9-.6-1.6-1.4-1.6h-.1c-.7 0-1.5.4-1.6 1.6h3.1zm2 3.2v-5.3h.7v.9c.3-.6 1-1 1.8-1c1.1 0 1.9.7 1.9 2c-.02-.04 0 3.4 0 3.4h-.7v-3.2c0-1.1-.4-1.6-1.3-1.6c-1.2 0-1.7 1-1.7 2.2v2.6h-.7zm7.5 0c-.7 0-1-.3-1-1c-.03.05 0-3.7 0-3.7h-1.2v-.6h1.2v-1.7h.7v1.7h1.3v.6h-1.3s-.05 3.69 0 3.7c0 .3.1.4.4.4h1v.6s-1.13-.01-1.1 0zm4.5-2.6c0-1.6.9-2.8 2.4-2.8c1.1 0 1.9.7 2.1 1.8h-.7c-.1-.7-.6-1.2-1.3-1.2h-.1c-1.2 0-1.7 1-1.7 2.2c0 1.1.5 2.1 1.7 2.1h.1c.7 0 1.1-.5 1.3-1.2h.7c-.2 1.1-1 1.8-2.1 1.8c-1.5 0-2.4-1.2-2.4-2.7zm5.5 0c0-1.7 1-2.8 2.4-2.8c1.3 0 2.4 1.1 2.4 2.8c0 1.6-1.1 2.7-2.4 2.7c-1.4 0-2.4-1.1-2.4-2.7zm2.4 2.1c1 0 1.7-.8 1.7-2.1c0-1.4-.7-2.2-1.7-2.2h-.1c-.9 0-1.7.8-1.7 2.2c0 1.3.8 2.1 1.7 2.1h.1zm3.7.5v-5.3h.7s.02.92 0 .9c.3-.6 1-1 1.9-1c1 0 1.8.7 1.8 2c-.01-.04 0 3.4 0 3.4h-.7v-3.2c0-1.1-.4-1.6-1.2-1.6h-.1c-1.1 0-1.7 1-1.7 2.2c.02-.04 0 2.6 0 2.6h-.7zm5.6-1.6h.7c.1.7.6 1.1 1.3 1.1h.2c.7 0 1.1-.3 1.1-.9c0-.4-.2-.7-.9-.8l-.7-.2c-.8-.2-1.5-.5-1.5-1.4c0-1 .9-1.6 1.9-1.6c1.3 0 1.9.9 2 1.7h-.7c-.1-.6-.5-1.1-1.2-1.1h-.2c-.7 0-1.1.5-1.1.9c0 .5.3.7 1 .9l.8.1c.7.2 1.3.5 1.3 1.4c0 1-.7 1.6-1.9 1.6c-1.4 0-2-.7-2.1-1.7zm6.9 1.6c-.7 0-1-.3-1-1c-.02.05 0-3.7 0-3.7h-1.2v-.6h1.2v-1.7h.7v1.7h1.3v.6h-1.3s-.04 3.69 0 3.7c0 .3.1.4.4.4h1v.6s-1.12-.01-1.1 0zm2.2 0v-5.3h.6s.02 1.24 0 1.2c.3-.8.9-1.2 1.7-1.2h.4v.6s-.4.02-.4 0c-1 0-1.6.8-1.6 2.1c-.02.04 0 2.6 0 2.6h-.7zm3.7-1.8v-3.5h.7s-.02 3.3 0 3.3c0 1 .4 1.5 1.2 1.5h.1c.8 0 1.6-.7 1.6-1.9c-.03-.03 0-2.9 0-2.9h.7v5.3h-.7s-.03-1 0-1c-.3.7-.9 1.1-1.8 1.1c-1.1 0-1.8-.8-1.8-1.9zm5.6-.8c0-1.6.9-2.8 2.4-2.8c1.2 0 2 .7 2.1 1.8h-.7c-.1-.7-.6-1.2-1.3-1.2h-.1c-1.2 0-1.7 1-1.7 2.2c0 1.1.5 2.1 1.7 2.1h.1c.7 0 1.2-.5 1.3-1.2h.7c-.2 1.1-.9 1.8-2.1 1.8c-1.5 0-2.4-1.2-2.4-2.7zm7.3 2.6c-.7 0-1-.3-1-1c-.03.05 0-3.7 0-3.7h-1.2v-.6h1.2v-1.7h.6v1.7h1.4v.6h-1.4s.05 3.69 0 3.7c0 .3.2.4.5.4h1v.6s-1.14-.01-1.1 0zm2.1-6.2v-.9h.8v.9h-.8zm.1 6.2v-5.3h.7v5.3h-.7zm2-2.6c0-1.7 1.1-2.8 2.4-2.8c1.4 0 2.4 1.1 2.4 2.8c0 1.6-1 2.7-2.4 2.7c-1.3 0-2.4-1.1-2.4-2.7zm2.5 2.1c.9 0 1.7-.8 1.7-2.1c0-1.4-.8-2.2-1.7-2.2h-.1c-1 0-1.7.8-1.7 2.2c0 1.3.7 2.1 1.7 2.1h.1zm3.7.5v-5.3h.7s-.02.92 0 .9c.3-.6 1-1 1.8-1c1.1 0 1.9.7 1.9 2c-.04-.04 0 3.4 0 3.4h-.7s-.02-3.23 0-3.2c0-1.1-.4-1.6-1.3-1.6c-1.2 0-1.7 1-1.7 2.2c-.02-.04 0 2.6 0 2.6h-.7zm8.6-6.2v-.9h.7v.9h-.7zm0 6.2v-5.3h.7v5.3h-.7zm2.4 0v-5.3h.7s-.05.92 0 .9c.3-.6.9-1 1.8-1c1 0 1.8.7 1.8 2c.03-.04 0 3.4 0 3.4h-.7s.05-3.23 0-3.2c0-1.1-.4-1.6-1.2-1.6h-.1c-1.1 0-1.6 1-1.6 2.2c-.05-.04 0 2.6 0 2.6h-.7zm5.6-2.6c0-1.7 1-2.8 2.4-2.8c.7 0 1.4.4 1.7 1c.04-.02 0-3 0-3h.7v7.4h-.7s.04-.85 0-.8c-.3.5-1 .9-1.7.9c-1.4 0-2.4-1.1-2.4-2.7zm2.5 2.1c1.1 0 1.6-1 1.6-2.1c0-1.2-.5-2.2-1.6-2.2h-.1c-1.1 0-1.7 1-1.7 2.2c0 1.1.6 2.1 1.7 2.1h.1zm3.9-1.3c.05.01 0-3.5 0-3.5h.7s.03 3.3 0 3.3c0 1 .4 1.5 1.3 1.5h.1c.8 0 1.5-.7 1.5-1.9c.02-.03 0-2.9 0-2.9h.7v5.3h-.7s.02-1 0-1c-.3.7-.9 1.1-1.7 1.1c-1.2 0-1.9-.8-1.9-1.9zm5.6.2h.7c0 .7.6 1.1 1.3 1.1h.1c.7 0 1.2-.3 1.2-.9c0-.4-.2-.7-.9-.8l-.8-.2c-.8-.2-1.4-.5-1.4-1.4c0-1 .9-1.6 1.9-1.6c1.3 0 1.9.9 1.9 1.7h-.6c-.1-.6-.6-1.1-1.3-1.1h-.1c-.7 0-1.1.5-1.1.9c0 .5.2.7.9.9l.8.1c.8.2 1.4.5 1.4 1.4c0 1-.8 1.6-1.9 1.6c-1.4 0-2.1-.7-2.1-1.7zm6.8 1.6c-.6 0-1-.3-1-1c.04.05 0-3.7 0-3.7h-1.2v-.6h1.2v-1.7h.7v1.7h1.3v.6H184s.02 3.69 0 3.7c0 .3.1.4.4.4c.04.01 1.1 0 1.1 0v.6h-1.2zm2.3 0v-5.3h.6s-.02 1.24 0 1.2c.2-.8.9-1.2 1.6-1.2h.5v.6s-.44.02-.4 0c-1 0-1.7.8-1.7 2.1c.03.04 0 2.6 0 2.6h-.6zm8.2-5.3l-2.2 5.1s.02 1.01 0 1c0 .6-.3.9-1 .9c.03.02-1.6 0-1.6 0v-.6s1.52.05 1.5 0c.3 0 .4-.1.4-.4c.04.03 0-.9 0-.9l-2.2-5.1h.8l1.8 4.3l1.8-4.3h.7zm3.4 5.3v-5.3h.6s.05 1.24 0 1.2c.3-.8 1-1.2 1.7-1.2h.4v.6s-.37.02-.4 0c-1 0-1.6.8-1.6 2.1v2.6h-.7zm3.3-1.5c0-1.1 1-1.5 1.8-1.5c.04-.03 1.7-.2 1.7-.2v-.2c0-.9-.5-1.4-1.3-1.4h-.1c-.6 0-1.2.3-1.3 1h-.7c.1-.9.9-1.6 2.1-1.6c1.3 0 2 1 2 2v3.4h-.6v-.8c-.3.4-1 .9-1.9.9c-.9 0-1.7-.7-1.7-1.6zm1.9 1c.7 0 1.6-.6 1.6-1.4v-.7l-1.5.1c-.8.1-1.3.4-1.3 1c0 .6.5 1 1.1 1h.1zm5.3.5c-.6 0-.9-.3-.9-1c-.05.05 0-3.7 0-3.7h-1.3v-.6h1.3v-1.7h.6v1.7h1.3v.6h-1.3s.03 3.69 0 3.7c0 .3.1.4.5.4h1v.6h-1.2zm2.2-6.2v-.9h.8v.9h-.8zm.1 6.2v-5.3h.6v5.3h-.6zm2.3 0v-5.3h.7s.01.92 0 .9c.3-.6 1-1 1.8-1c1.1 0 1.9.7 1.9 2c-.02-.04 0 3.4 0 3.4h-.7v-3.2c0-1.1-.4-1.6-1.3-1.6c-1.2 0-1.7 1-1.7 2.2v2.6h-.7zm5.6.7h.7c.1.7.7 1 1.6 1h.1c.9 0 1.7-.5 1.7-1.8v-.9c-.3.6-.9 1-1.7 1c-1.3 0-2.3-1-2.3-2.6c0-1.7 1-2.8 2.3-2.8c.8 0 1.4.4 1.7 1c.01-.02 0-.9 0-.9h.7v5.2c0 1.4-.9 2.4-2.4 2.4c-1.6 0-2.3-.7-2.4-1.6zm2.5-1.3c.9 0 1.6-.7 1.6-2c0-1.3-.7-2.2-1.6-2.2h-.1c-1 0-1.6.9-1.6 2.2c0 1.3.6 2 1.6 2h.1zm7.9.6c-.7 0-1-.3-1-1c.01.05 0-3.7 0-3.7h-1.2v-.6h1.2v-1.7h.7v1.7h1.3v.6H229s-.01 3.69 0 3.7c0 .3.1.4.4.4c.01.01 1.1 0 1.1 0v.6h-1.2zm1.8-2.6c0-1.7 1.1-2.8 2.5-2.8c1.3 0 2.4 1.1 2.4 2.8c0 1.6-1.1 2.7-2.4 2.7c-1.4 0-2.5-1.1-2.5-2.7zm2.5 2.1c.9 0 1.7-.8 1.7-2.1c0-1.4-.8-2.2-1.7-2.2h-.1c-.9 0-1.7.8-1.7 2.2c0 1.3.8 2.1 1.7 2.1h.1zm3.4-2.1c0-1.7 1.1-2.8 2.4-2.8c1.4 0 2.4 1.1 2.4 2.8c0 1.6-1 2.7-2.4 2.7c-1.3 0-2.4-1.1-2.4-2.7zm2.5 2.1c.9 0 1.6-.8 1.6-2.1c0-1.4-.7-2.2-1.6-2.2h-.1c-1 0-1.7.8-1.7 2.2c0 1.3.7 2.1 1.7 2.1h.1zm3.7.5v-7.4h.7v7.4h-.7z" stroke="none" fill="#192d39"/></g><g id="Polygon15548"><path d="m20.3.8h1.2v7.4h-.7V1.4l-2.5 6.8h-1.1l-2.5-6.8v6.8h-.8V.8h1.3l2.6 6.8L20.3.8zM23 5.6c0-1.9 1.2-2.8 2.4-2.8c1.2 0 2.1 1.1 2.1 2.4c-.02 0 0 .4 0 .4c0 0-3.8.02-3.8 0c0 1.5.8 2.1 1.6 2.1h.1c.7 0 1.2-.3 1.4-1h.7c-.3 1-1.1 1.6-2.1 1.6c-1.4 0-2.4-.9-2.4-2.7zm3.8-.6c0-.9-.6-1.6-1.4-1.6h-.1c-.7 0-1.4.4-1.6 1.6h3.1zm2.1 3.2V2.9h.6v1.2c.2-.8.9-1.2 1.6-1.2h.5v.6s-.43.02-.4 0c-1 0-1.7.8-1.7 2.1c.04.04 0 2.6 0 2.6h-.6zM32.6 2v-.9h.7v.9h-.7zm0 6.2V2.9h.7v5.3h-.7zm3.9 0c-.7 0-1-.3-1-1V3.5h-1.2v-.6h1.2V1.2h.7v1.7h1.3v.6h-1.3s-.02 3.69 0 3.7c0 .3.1.4.4.4c0 .01 1.1 0 1.1 0v.6h-1.2zm1.8-2.6c0-1.7 1.1-2.8 2.4-2.8c1.4 0 2.5 1.1 2.5 2.8c0 1.6-1.1 2.7-2.5 2.7c-1.3 0-2.4-1.1-2.4-2.7zm2.5 2.1c.9 0 1.7-.8 1.7-2.1c0-1.4-.8-2.2-1.7-2.2h-.1c-1 0-1.7.8-1.7 2.2c0 1.3.7 2.1 1.7 2.1h.1zm3.7.5V2.9h.7s-.01.92 0 .9c.3-.6 1-1 1.8-1c1.1 0 1.9.7 1.9 2c-.03-.04 0 3.4 0 3.4h-.7V5c0-1.1-.4-1.6-1.3-1.6c-1.2 0-1.7 1-1.7 2.2v2.6h-.7zM53.1 2v-.9h.8v.9h-.8zm0 6.2V2.9h.7v5.3h-.7zm2-1.6h.7c0 .7.6 1.1 1.3 1.1h.1c.8 0 1.2-.3 1.2-.9c0-.4-.2-.7-.9-.8l-.8-.2c-.8-.2-1.4-.5-1.4-1.4c0-1 .9-1.6 1.9-1.6c1.3 0 1.9.9 1.9 1.7h-.6c-.1-.6-.6-1.1-1.3-1.1h-.1c-.7 0-1.1.5-1.1.9c0 .5.2.7.9.9l.8.1c.8.2 1.4.5 1.4 1.4c0 1-.8 1.6-1.9 1.6c-1.4 0-2.1-.7-2.1-1.7zm7.7.1c0-1.1 1-1.5 1.8-1.5c.02-.03 1.7-.2 1.7-.2c0 0-.02-.17 0-.2c0-.9-.5-1.4-1.3-1.4h-.1c-.7 0-1.2.3-1.3 1h-.7c.1-.9.9-1.6 2-1.6c1.4 0 2.1 1 2.1 2v3.4h-.6c-.1-.2-.1-.6-.1-.8c-.2.4-.9.9-1.8.9c-1 0-1.7-.7-1.7-1.6zm1.8 1c.8 0 1.7-.6 1.7-1.4c-.02 0 0-.7 0-.7l-1.5.1c-.8.1-1.3.4-1.3 1c0 .6.4 1 1 1h.1zm9.7.5V6.4h-3.6v-.8L74.2.8h.8v5h1.2v.6H75v1.8h-.7zm-3-2.4h3V1.7l-3 4.1zm6 2.4V7.1h1.1v1.1h-1.1zm2.2-1.9h.7c.1.9.9 1.3 1.7 1.3h.1c1 0 1.7-.7 1.7-1.7c0-1-.6-1.6-1.5-1.6h-.2c-.5 0-1.2.3-1.5.8h-.7l.9-4.3h3.7v.7h-3.2s-.53 2.67-.5 2.7c.3-.4.9-.6 1.5-.6c1.4 0 2.3 1 2.3 2.2c0 1.5-1.1 2.5-2.5 2.5c-1.3 0-2.4-.7-2.5-2zm8.7-1.8c0-2.2 1.3-3.8 3.5-3.8c1.7 0 2.7 1 2.9 2.5h-.7c-.2-1.1-1-1.8-2.2-1.8h-.1c-1.5 0-2.6 1.1-2.6 3.1c0 2 1.1 3.1 2.6 3.1h.2c1.1 0 2.2-.7 2.2-2c-.04-.03 0-.4 0-.4h-2.3v-.7s2.26.02 2.3 0c.4 0 .6.2.6.7c.04 0 0 3 0 3h-.6s-.04-.97 0-1c-.5.7-1.3 1.1-2.3 1.1c-2.2 0-3.5-1.6-3.5-3.8zm7.6 1.1c0-1.7 1.1-2.8 2.4-2.8c1.4 0 2.5 1.1 2.5 2.8c0 1.6-1.1 2.7-2.5 2.7c-1.3 0-2.4-1.1-2.4-2.7zm2.5 2.1c.9 0 1.7-.8 1.7-2.1c0-1.4-.8-2.2-1.7-2.2h-.1c-.9 0-1.7.8-1.7 2.2c0 1.3.8 2.1 1.7 2.1h.1zm3.7.5V.8h.7v7.4h-.7zm2.1-2.6c0-1.7.9-2.8 2.3-2.8c.7 0 1.4.4 1.8 1c-.04-.02 0-3 0-3h.6v7.4h-.6s-.04-.85 0-.8c-.4.5-1.1.9-1.8.9c-1.4 0-2.3-1.1-2.3-2.7zm2.4 2.1c1.1 0 1.7-1 1.7-2.1c0-1.2-.6-2.2-1.7-2.2h-.1c-1.1 0-1.6 1-1.6 2.2c0 1.1.5 2.1 1.6 2.1h.1zm6.3-1.8h.7c0 1.1.8 1.7 2.1 1.7h.1c1.1 0 1.7-.6 1.7-1.4c0-.6-.4-1-1.4-1.2l-1.1-.3c-1.1-.2-1.8-.8-1.8-1.9c0-1.1 1-2.1 2.5-2.1c1.6 0 2.6.9 2.7 2.3h-.8c0-1-.8-1.6-1.8-1.6h-.1c-1 0-1.7.6-1.7 1.4c0 .7.4 1.1 1.2 1.2l1.1.2c1.3.3 1.9.9 1.9 2c0 1.3-.9 2.1-2.5 2.1c-1.8 0-2.8-.9-2.8-2.4zm8.4 2.3c-.7 0-1-.3-1-1c-.04.05 0-3.7 0-3.7H119v-.6h1.2V1.2h.6v1.7h1.4v.6h-1.4s.04 3.69 0 3.7c0 .3.1.4.5.4h1v.6s-1.14-.01-1.1 0zm1.9-1.5c0-1.1 1-1.5 1.8-1.5c-.02-.03 1.6-.2 1.6-.2c0 0 .04-.17 0-.2c0-.9-.5-1.4-1.3-1.4c-.7 0-1.3.3-1.3 1h-.7c0-.9.9-1.6 2-1.6c1.4 0 2 1 2 2v2.2c0 .3 0 .8.1 1.2h-.7v-.8c-.2.4-.9.9-1.9.9c-.9 0-1.6-.7-1.6-1.6zm1.8 1c.7 0 1.6-.6 1.6-1.4c.04 0 0-.7 0-.7l-1.5.1c-.7.1-1.2.4-1.2 1c0 .6.4 1 1 1h.1zm3.9.5V2.9h.7s-.02 1.24 0 1.2c.2-.8.9-1.2 1.6-1.2h.5v.6s-.44.02-.4 0c-1.1 0-1.7.8-1.7 2.1c.03.04 0 2.6 0 2.6h-.7zm6.1-6.2v-.9h.8v.9h-.8zm.1 6.2V2.9h.6v5.3h-.6zm2.1-3.7c0-2.1 1.2-3.8 3.3-3.8c1.6 0 2.8 1 2.9 2.4h-.8c-.1-.9-.7-1.7-2-1.7h-.1c-1.7 0-2.6 1.4-2.6 3.1c0 1.7.9 3.1 2.6 3.1h.1c1.3 0 1.9-.8 2-1.7h.8c-.1 1.4-1.3 2.4-2.9 2.4c-2.1 0-3.3-1.6-3.3-3.8zm7.7 3.7V.8h.7v7.4h-.7zm2.8 0V.8s2.97.04 3 0c1.3 0 2.2.9 2.2 2c0 .9-.4 1.5-1.1 1.8c.7 0 1 .2 1 1v2.6h-.7s-.02-2.64 0-2.6c0-.4-.2-.5-.5-.5h-3.2v3.1h-.7zm.7-3.8s2.17.01 2.2 0c.8 0 1.6-.6 1.6-1.5c0-.9-.6-1.4-1.6-1.4c-.03.02-2.2 0-2.2 0v2.9zm7.9 3.8V1.5h-2.6v-.7h6v.7H157v6.7h-.8zm6.7 0V2.9h.7s-.03 1.24 0 1.2c.2-.8.9-1.2 1.6-1.2h.5v.6s-.45.02-.5 0c-1 0-1.6.8-1.6 2.1c.02.04 0 2.6 0 2.6h-.7zm3.4-1.5c0-1.1 1-1.5 1.8-1.5c-.04-.03 1.6-.2 1.6-.2c0 0 .02-.17 0-.2c0-.9-.5-1.4-1.3-1.4c-.7 0-1.3.3-1.4 1h-.6c0-.9.9-1.6 2-1.6c1.3 0 2 1 2 2v2.2c0 .3 0 .8.1 1.2h-.7v-.8c-.2.4-1 .9-1.9.9c-.9 0-1.6-.7-1.6-1.6zm1.8 1c.7 0 1.6-.6 1.6-1.4c.02 0 0-.7 0-.7l-1.5.1c-.7.1-1.3.4-1.3 1c0 .6.5 1 1.1 1h.1zm5.4.5c-.7 0-1-.3-1-1c-.03.05 0-3.7 0-3.7h-1.2v-.6h1.2V1.2h.7v1.7h1.3v.6h-1.3s-.05 3.69 0 3.7c0 .3.1.4.4.4h1v.6s-1.13-.01-1.1 0zm1.8-2.6c0-1.9 1.1-2.8 2.3-2.8c1.3 0 2.2 1.1 2.2 2.4c-.03 0 0 .4 0 .4c0 0-3.81.02-3.8 0c0 1.5.8 2.1 1.6 2.1h.1c.7 0 1.2-.3 1.4-1h.7c-.3 1-1.1 1.6-2.2 1.6c-1.3 0-2.3-.9-2.3-2.7zm3.8-.6c0-.9-.6-1.6-1.4-1.6h-.1c-.7 0-1.4.4-1.6 1.6h3.1zm1.7.6c0-1.7 1-2.8 2.4-2.8c.7 0 1.4.4 1.7 1c.03-.02 0-3 0-3h.7v7.4h-.7s.03-.85 0-.8c-.3.5-1 .9-1.7.9c-1.4 0-2.4-1.1-2.4-2.7zm2.4 2.1c1.2 0 1.7-1 1.7-2.1c0-1.2-.5-2.2-1.7-2.2c-1.1 0-1.7 1-1.7 2.2c0 1.1.6 2.1 1.7 2.1zm6.4-2.1c0-1.7 1-2.8 2.3-2.8c.7 0 1.5.4 1.8 1v-3h.7v7.4h-.7v-.8c-.3.5-1.1.9-1.8.9c-1.3 0-2.3-1.1-2.3-2.7zm2.4 2.1c1.1 0 1.7-1 1.7-2.1c0-1.2-.6-2.2-1.7-2.2c-1.2 0-1.7 1-1.7 2.2c0 1.1.5 2.1 1.7 2.1zm3.7-2.1c0-1.9 1.2-2.8 2.4-2.8c1.3 0 2.1 1.1 2.1 2.4v.4s-3.78.02-3.8 0c0 1.5.8 2.1 1.7 2.1c.7 0 1.2-.3 1.4-1h.7c-.2 1-1 1.6-2.1 1.6c-1.3 0-2.4-.9-2.4-2.7zm3.8-.6c0-.9-.5-1.6-1.4-1.6h-.1c-.6 0-1.4.4-1.6 1.6h3.1zm5.5-2.1h.7l-2 5.3h-.8l-2.1-5.3h.8l1.7 4.7l1.7-4.7zm1.3 2.7c0-1.9 1.2-2.8 2.4-2.8c1.3 0 2.1 1.1 2.1 2.4v.4s-3.78.02-3.8 0c0 1.5.8 2.1 1.7 2.1c.7 0 1.2-.3 1.4-1h.7c-.2 1-1.1 1.6-2.1 1.6c-1.3 0-2.4-.9-2.4-2.7zm3.8-.6c0-.9-.6-1.6-1.4-1.6h-.1c-.6 0-1.4.4-1.6 1.6h3.1zm2.1 3.2V.8h.7v7.4h-.7zm2-2.6c0-1.7 1.1-2.8 2.4-2.8c1.4 0 2.4 1.1 2.4 2.8c0 1.6-1 2.7-2.4 2.7c-1.3 0-2.4-1.1-2.4-2.7zm2.5 2.1c.9 0 1.6-.8 1.6-2.1c0-1.4-.7-2.2-1.6-2.2h-.1c-1 0-1.7.8-1.7 2.2c0 1.3.7 2.1 1.7 2.1h.1zm3.7 2.6V2.9h.7s-.02.88 0 .9c.3-.6 1-1 1.7-1c1.4 0 2.4 1.1 2.4 2.8c0 1.6-1 2.7-2.4 2.7c-.7 0-1.4-.4-1.7-.9c-.02-.05 0 2.9 0 2.9h-.7zm2.4-2.6c1.1 0 1.7-1 1.7-2.1c0-1.2-.6-2.2-1.7-2.2c-1.2 0-1.7 1-1.7 2.2c0 1.1.5 2.1 1.7 2.1zm3.4-2.1c0-1.9 1.2-2.8 2.4-2.8c1.2 0 2.1 1.1 2.1 2.4c-.02 0 0 .4 0 .4c0 0-3.8.02-3.8 0c0 1.5.8 2.1 1.7 2.1c.7 0 1.2-.3 1.4-1h.7c-.3 1-1.1 1.6-2.1 1.6c-1.3 0-2.4-.9-2.4-2.7zM230 5c0-.9-.6-1.6-1.4-1.6h-.1c-.7 0-1.4.4-1.6 1.6h3.1zm2.1 3.2V2.9h.6v1.2c.2-.8.9-1.2 1.6-1.2h.5v.6s-.43.02-.4 0c-1 0-1.7.8-1.7 2.1c.04.04 0 2.6 0 2.6h-.6zm3 0V7.1h1.1v1.1h-1.1z" stroke="none" fill="#192d39"/></g></svg>