<?xml version="1.0" standalone="no"?><!DOCTYPE svg PUBLIC "-//W3C//DTD SVG 1.1//EN" "http://www.w3.org/Graphics/SVG/1.1/DTD/svg11.dtd"><svg xmlns="http://www.w3.org/2000/svg" version="1.1" width="184px" height="54.9px" viewBox="0 -3 184 54.9" style="top:-3px"><desc>For more information view the Environmental Energy Efficiency saving report</desc><defs/><g id="Polygon23099"><path d="m1.1 44.1V35h6.8v1.4H2.7v2.4h4.4v1.4H2.7v2.5h5.3v1.4H1.1zm8.9 0v-5.2H8.6v-1.3h1.4s-.04-1.01 0-1c0-1 .5-1.6 1.5-1.6c.02.04 1.9 0 1.9 0v1.3h-1.3c-.5 0-.6.1-.6.6c-.05.04 0 .7 0 .7h2.8s.02-1.01 0-1c0-1 .5-1.6 1.6-1.6c-.03.04 1.8 0 1.8 0v1.3h-1.3c-.5 0-.6.1-.6.6v.7h4.4v6.5h-1.5v-5.2h-2.9v5.2h-1.5v-5.2h-2.8v5.2H10zm8.6-7.4V35h1.6v1.7h-1.6zm3 4.2c0-2 1.3-3.4 3.2-3.4c1.6 0 2.6.8 2.8 2.4h-1.5c-.1-.7-.6-1.2-1.3-1.2h-.1c-1.1 0-1.6 1-1.6 2.2c0 1.1.5 2.1 1.6 2.1h.1c.7 0 1.2-.4 1.3-1.1h1.5c-.2 1.6-1.2 2.4-2.8 2.4c-1.9 0-3.2-1.4-3.2-3.4zm7.3-4.2V35h1.6v1.7h-1.6zm.1 7.4v-6.5h1.5v6.5H29zm2.9-3.2c0-2.1 1.3-3.4 3-3.4c1.9 0 2.9 1.3 2.9 3.1v.7h-4.5c.1 1.1.9 1.7 1.7 1.7h.1c.6 0 1.1-.3 1.2-.9h1.5c-.3 1.3-1.3 2.2-2.8 2.2c-1.7 0-3.1-1.2-3.1-3.4zm4.4-.8c0-.9-.6-1.4-1.3-1.4h-.1c-.7 0-1.4.5-1.5 1.4h2.9zm3 4v-6.5h1.5v1c.4-.6 1.1-1.1 2-1.1c1.5 0 2.3 1 2.3 2.4c.02 0 0 4.2 0 4.2h-1.5s.02-3.98 0-4c0-.8-.4-1.4-1.1-1.4h-.1c-.9 0-1.6.8-1.6 1.8v3.6h-1.5zm7.2-3.2c0-2 1.2-3.4 3.1-3.4c1.6 0 2.7.8 2.8 2.4h-1.5c-.1-.7-.5-1.2-1.2-1.2h-.1c-1.1 0-1.6 1-1.6 2.2c0 1.1.5 2.1 1.6 2.1h.1c.7 0 1.1-.4 1.2-1.1h1.5c-.1 1.6-1.2 2.4-2.8 2.4c-1.9 0-3.1-1.4-3.1-3.4zm13.4-3.3l-2.7 6.2s-.03 1.32 0 1.3c0 1-.6 1.6-1.6 1.6c.03-.03-2.2 0-2.2 0v-1.3s1.72-.04 1.7 0c.5 0 .7-.2.7-.7c-.04.04 0-.9 0-.9L53 37.6h1.6l1.9 4.4l1.8-4.4h1.6zm3 4.4h1.5c.1.7.6 1.1 1.3 1.1h.1c.6 0 1-.3 1-.7c0-.4-.2-.7-.8-.8l-.9-.2c-1.2-.2-1.9-.8-1.9-1.9c0-1.2 1-2 2.5-2c1.7 0 2.6.9 2.6 2.2h-1.5c0-.6-.4-1-1.1-1h-.1c-.5 0-.9.3-.9.7c0 .4.3.6.8.7l1 .3c1.1.2 1.8.8 1.8 1.9c0 1.1-1 2-2.6 2c-1.8 0-2.8-.9-2.8-2.3zm6.5.4c0-1.5 1.2-2 2.4-2.1c.01-.04 1.7-.2 1.7-.2c0 0 .02-.16 0-.2c0-.7-.4-1.2-1.2-1.2h-.1c-.6 0-1.1.4-1.1.9h-1.5c.1-1.2 1.1-2.1 2.7-2.1c1.7 0 2.7 1 2.7 2.4v4.2h-1.4v-.9c-.4.6-1.1 1.1-2 1.1c-1.2 0-2.2-.8-2.2-1.9zm2.5.6c.8 0 1.6-.6 1.6-1.4c.02.01 0-.4 0-.4c0 0-1.49.16-1.5.2c-.5 0-1.1.3-1.1.9c0 .4.4.7.9.7h.1zm9-5.4h1.5l-2.3 6.5h-2l-2.3-6.5h1.5l1.8 5.3l1.8-5.3zm2.6-.9V35h1.6v1.7h-1.6zm0 7.4v-6.5h1.5v6.5h-1.5zm3.3 0v-6.5h1.5s-.02.98 0 1c.4-.6 1.1-1.1 2-1.1c1.5 0 2.3 1 2.3 2.4v4.2h-1.5v-4c0-.8-.4-1.4-1.2-1.4h-.1c-.8 0-1.5.8-1.5 1.8c-.02.01 0 3.6 0 3.6h-1.5zm7.1.8h1.4c.1.6.7.9 1.6.9h.1c1 0 1.7-.6 1.7-1.8v-.8c-.4.6-1.1.9-1.9.9c-1.5 0-2.8-1.1-2.8-3.3c0-2.2 1.3-3.3 2.8-3.3c.8 0 1.6.4 1.9 1c-.01-.03 0-.9 0-.9h1.5s-.02 6.63 0 6.6c0 1.5-1.2 2.8-3.3 2.8c-1.8 0-3-.9-3-2.1zm3.2-2c.9 0 1.6-.8 1.6-2.1c0-1.3-.7-2.1-1.5-2.1h-.2c-.8 0-1.5.7-1.5 2.1c0 1.4.7 2.1 1.5 2.1h.1zm7.4 1.2v-6.5h1.5s-.04 1.39 0 1.4c.2-.9.9-1.4 1.8-1.4c.04-.02.5 0 .5 0v1.4s-.58-.02-.6 0c-1.1 0-1.7.6-1.7 1.8c-.02 0 0 3.3 0 3.3h-1.5zm4.6-3.2c0-2.1 1.2-3.4 3-3.4c1.9 0 2.9 1.3 2.9 3.1v.7h-4.5c.1 1.1.9 1.7 1.6 1.7h.1c.7 0 1.2-.3 1.3-.9h1.5c-.3 1.3-1.4 2.2-2.9 2.2c-1.6 0-3-1.2-3-3.4zm4.4-.8c0-.9-.6-1.4-1.4-1.4h-.1c-.7 0-1.3.5-1.5 1.4h3zm3 6.6v-9.1h1.5s-.02.91 0 .9c.3-.5 1.1-1 2-1c1.7 0 2.8 1.5 2.8 3.4c0 1.9-1.1 3.4-2.9 3.4c-.9 0-1.6-.5-1.9-1c-.02-.03 0 3.4 0 3.4h-1.5zm3.2-3.7c.9 0 1.6-.7 1.6-2.1c0-1.4-.7-2.2-1.6-2.2h-.1c-.8 0-1.6.8-1.6 2.2c0 1.4.8 2.1 1.6 2.1h.1zm4.2-2.1c0-2 1.3-3.4 3.2-3.4c1.9 0 3.2 1.4 3.2 3.4c0 2-1.3 3.4-3.2 3.4c-1.9 0-3.2-1.4-3.2-3.4zm3.2 2.1c1 0 1.7-.7 1.7-2.1c0-1.4-.7-2.2-1.7-2.2h-.1c-.9 0-1.6.8-1.6 2.2c0 1.4.7 2.1 1.6 2.1h.1zm4.6 1.1v-6.5h1.5v1.4c.3-.9 1-1.4 1.9-1.4c-.02-.02.4 0 .4 0v1.4s-.54-.02-.5 0c-1.2 0-1.8.6-1.8 1.8c.02 0 0 3.3 0 3.3h-1.5zm7.5 0c-1 0-1.5-.5-1.5-1.5c-.03-.03 0-3.7 0-3.7h-1.4v-1.3h1.4v-2.1h1.5v2.1h1.5v1.3h-1.5s-.04 3.32 0 3.3c0 .5.1.7.6.7c0-.05 1.1 0 1.1 0v1.2s-1.66.04-1.7 0z" stroke="none" fill="#192d39"/></g><g id="Polygon23098"><path d="m3.2 27.1c-1 0-1.6-.5-1.6-1.5v-3.7H.2v-1.3h1.4v-2.1h1.5v2.1h1.5v1.3H3.1s-.01 3.32 0 3.3c0 .5.1.7.6.7c.03-.05 1.1 0 1.1 0v1.2s-1.63.04-1.6 0zm2.8 0V18h1.5s-.02 3.58 0 3.6c.4-.6 1.1-1.1 2-1.1c1.5 0 2.3 1 2.3 2.4v4.2h-1.5v-4c0-.8-.4-1.4-1.2-1.4h-.1c-.8 0-1.5.8-1.5 1.8c-.02.01 0 3.6 0 3.6H6zm7.2-3.2c0-2.1 1.3-3.4 3-3.4c1.9 0 2.9 1.3 2.9 3.1v.7h-4.5c.1 1.1.9 1.7 1.7 1.7h.1c.6 0 1.1-.3 1.2-.9h1.5c-.3 1.3-1.3 2.2-2.8 2.2c-1.7 0-3.1-1.2-3.1-3.4zm4.5-.8c-.1-.9-.7-1.4-1.4-1.4h-.1c-.7 0-1.4.5-1.5 1.4h3zm5.6 4V18h6.8v1.4h-5.3v2.4h4.5v1.4h-4.5v2.5h5.4v1.4h-6.9zm8.2 0v-6.5h1.5s.02.98 0 1c.4-.6 1.1-1.1 2-1.1c1.6 0 2.3 1 2.3 2.4c.04 0 0 4.2 0 4.2h-1.5s.05-3.98 0-4c0-.8-.3-1.4-1.1-1.4h-.1c-.8 0-1.6.8-1.6 1.8c.02.01 0 3.6 0 3.6h-1.5zm11.8-6.5h1.5l-2.3 6.5h-2l-2.4-6.5h1.6l1.8 5.3l1.8-5.3zm2.5-.9V18h1.6v1.7h-1.6zm.1 7.4v-6.5h1.5v6.5h-1.5zm3.3 0v-6.5h1.4s.02 1.39 0 1.4c.3-.9 1-1.4 1.9-1.4c.01-.02.4 0 .4 0v1.4s-.51-.02-.5 0c-1.1 0-1.8.6-1.8 1.8c.05 0 0 3.3 0 3.3h-1.4zm4.5-3.2c0-2 1.3-3.4 3.2-3.4c1.9 0 3.2 1.4 3.2 3.4c0 2-1.3 3.4-3.2 3.4c-1.9 0-3.2-1.4-3.2-3.4zm3.2 2.1c1 0 1.7-.7 1.7-2.1c0-1.4-.7-2.2-1.7-2.2h-.1c-.9 0-1.6.8-1.6 2.2c0 1.4.7 2.1 1.6 2.1h.1zm4.6 1.1v-6.5h1.5v1c.4-.6 1.1-1.1 2-1.1c1.6 0 2.3 1 2.3 2.4c.02 0 0 4.2 0 4.2h-1.5s.02-3.98 0-4c0-.8-.4-1.4-1.1-1.4h-.1c-.9 0-1.6.8-1.6 1.8v3.6h-1.5zm7.6 0v-6.5h1.5s-.05.96 0 1c.4-.7 1.1-1.1 1.9-1.1c.9 0 1.7.4 2.1 1.2c.4-.9 1.3-1.2 2.1-1.2c1.6 0 2.3 1 2.3 2.4c.03.03 0 4.2 0 4.2h-1.5s.03-3.94 0-3.9c0-.9-.3-1.4-1.1-1.4h-.1c-.8 0-1.5.7-1.5 1.7c-.01.01 0 3.6 0 3.6h-1.5v-3.9c0-.9-.3-1.4-1.1-1.4h-.1c-.8 0-1.5.7-1.5 1.7c-.05.01 0 3.6 0 3.6h-1.5zm11.3-3.2c0-2.1 1.3-3.4 3.1-3.4c1.8 0 2.9 1.3 2.9 3.1c0 .2-.1.5-.1.7h-4.4c.1 1.1.9 1.7 1.6 1.7h.1c.6 0 1.1-.3 1.3-.9h1.4c-.2 1.3-1.3 2.2-2.8 2.2c-1.6 0-3.1-1.2-3.1-3.4zm4.5-.8c-.1-.9-.7-1.4-1.4-1.4h-.1c-.7 0-1.4.5-1.5 1.4h3zm2.9 4v-6.5h1.5s.04.98 0 1c.4-.6 1.1-1.1 2.1-1.1c1.5 0 2.3 1 2.3 2.4c-.04 0 0 4.2 0 4.2h-1.5s-.03-3.98 0-4c0-.8-.4-1.4-1.2-1.4h-.1c-.8 0-1.6.8-1.6 1.8c.04.01 0 3.6 0 3.6h-1.5zm9.8 0c-1 0-1.5-.5-1.5-1.5c-.04-.03 0-3.7 0-3.7h-1.4v-1.3h1.4v-2.1h1.4v2.1h1.5v1.3h-1.5s.05 3.32 0 3.3c0 .5.2.7.7.7c-.01-.05 1 0 1 0v1.2s-1.57.04-1.6 0zm2.6-1.7c0-1.5 1.2-2 2.4-2.1c-.01-.04 1.7-.2 1.7-.2v-.2c0-.7-.5-1.2-1.2-1.2h-.1c-.6 0-1.1.4-1.2.9h-1.5c.1-1.2 1.2-2.1 2.8-2.1c1.6 0 2.6 1 2.6 2.4v2.8c0 .4 0 1 .1 1.4h-1.4c0-.2-.1-.7-.1-.9c-.3.6-1 1.1-2 1.1c-1.2 0-2.1-.8-2.1-1.9zm2.5.6c.8 0 1.6-.6 1.6-1.4v-.4s-1.52.16-1.5.2c-.6 0-1.1.3-1.1.9c0 .4.4.7.9.7h.1zm4.8 1.1V18h1.5v9.1h-1.5zm6 0V18h6.8v1.4H115v2.4h4.5v1.4H115v2.5h5.4v1.4h-6.9zm8.2 0v-6.5h1.5s.04.98 0 1c.4-.6 1.1-1.1 2.1-1.1c1.5 0 2.3 1 2.3 2.4c-.05 0 0 4.2 0 4.2h-1.5s-.04-3.98 0-4c0-.8-.4-1.4-1.2-1.4h-.1c-.8 0-1.6.8-1.6 1.8c.04.01 0 3.6 0 3.6h-1.5zm7.2-3.2c0-2.1 1.3-3.4 3.1-3.4c1.8 0 2.9 1.3 2.9 3.1v.7h-4.5c.1 1.1.9 1.7 1.6 1.7h.1c.7 0 1.1-.3 1.3-.9h1.5c-.3 1.3-1.4 2.2-2.9 2.2c-1.6 0-3.1-1.2-3.1-3.4zm4.5-.8c0-.9-.7-1.4-1.4-1.4h-.1c-.7 0-1.4.5-1.5 1.4h3zm3 4v-6.5h1.4s.03 1.39 0 1.4c.3-.9 1-1.4 1.9-1.4c.02-.02.5 0 .5 0v1.4s-.6-.02-.6 0c-1.1 0-1.7.6-1.7 1.8c-.04 0 0 3.3 0 3.3h-1.5zm4.4.8h1.5c.1.6.7.9 1.6.9h.1c1 0 1.7-.6 1.7-1.8v-.8c-.4.6-1.1.9-1.9.9c-1.5 0-2.8-1.1-2.8-3.3c0-2.2 1.3-3.3 2.8-3.3c.8 0 1.5.4 1.9 1c-.03-.03 0-.9 0-.9h1.5s-.04 6.63 0 6.6c0 1.5-1.2 2.8-3.3 2.8c-1.8 0-3-.9-3.1-2.1zm3.3-2c.8 0 1.6-.8 1.6-2.1c0-1.3-.7-2.1-1.6-2.1h-.1c-.8 0-1.6.7-1.6 2.1c0 1.4.7 2.1 1.6 2.1h.1zm11.1-5.3l-2.7 6.2s-.03 1.32 0 1.3c0 1-.6 1.6-1.6 1.6c.02-.03-2.3 0-2.3 0v-1.3s1.82-.04 1.8 0c.5 0 .7-.2.7-.7c-.05.04 0-.9 0-.9l-2.8-6.2h1.6l1.9 4.4l1.8-4.4h1.6z" stroke="none" fill="#192d39"/></g><g id="Polygon23097"><path d="m1.1 10.1V1h6.5v1.4H2.7v2.6h4.3v1.4H2.7v3.7H1.1zm7.2-3.2c0-2 1.3-3.4 3.2-3.4c1.8 0 3.2 1.4 3.2 3.4c0 2-1.4 3.4-3.2 3.4c-1.9 0-3.2-1.4-3.2-3.4zM11.5 9c1 0 1.7-.7 1.7-2.1c0-1.4-.7-2.2-1.7-2.2h-.1c-.9 0-1.6.8-1.6 2.2c0 1.4.7 2.1 1.6 2.1h.1zm4.6 1.1V3.6h1.5s-.03 1.39 0 1.4c.2-.9.9-1.4 1.9-1.4c-.05-.02.4 0 .4 0v1.4s-.56-.02-.6 0c-1.1 0-1.7.6-1.7 1.8v3.3h-1.5zm7.5 0V3.6h1.5s-.05.96 0 1c.4-.7 1.1-1.1 1.9-1.1c.9 0 1.7.4 2.1 1.2c.4-.9 1.3-1.2 2.1-1.2c1.6 0 2.3 1 2.3 2.4c.03.03 0 4.2 0 4.2H32s.03-3.94 0-3.9c0-.9-.3-1.4-1.1-1.4h-.1c-.8 0-1.5.7-1.5 1.7c-.01.01 0 3.6 0 3.6h-1.5V6.2c0-.9-.3-1.4-1.1-1.4h-.1c-.8 0-1.5.7-1.5 1.7c-.05.01 0 3.6 0 3.6h-1.5zm11.3-3.2c0-2 1.3-3.4 3.2-3.4c1.9 0 3.2 1.4 3.2 3.4c0 2-1.3 3.4-3.2 3.4c-1.9 0-3.2-1.4-3.2-3.4zM38.2 9c.9 0 1.6-.7 1.6-2.1c0-1.4-.7-2.2-1.6-2.2h-.2c-.9 0-1.6.8-1.6 2.2c0 1.4.7 2.1 1.6 2.1h.2zm4.5 1.1V3.6h1.5v1.4c.3-.9 1-1.4 1.9-1.4c-.02-.02.4 0 .4 0v1.4s-.54-.02-.5 0c-1.2 0-1.8.6-1.8 1.8c.02 0 0 3.3 0 3.3h-1.5zm4.6-3.2c0-2.1 1.3-3.4 3-3.4c1.9 0 2.9 1.3 2.9 3.1v.7h-4.5c.1 1.1.9 1.7 1.7 1.7h.1c.6 0 1.1-.3 1.2-.9h1.5c-.3 1.3-1.3 2.2-2.8 2.2c-1.7 0-3.1-1.2-3.1-3.4zm4.5-.8c-.1-.9-.7-1.4-1.4-1.4h-.1c-.7 0-1.4.5-1.5 1.4h3zm5.3-3.4V1h1.6v1.7h-1.6zm.1 7.4V3.6h1.5v6.5h-1.5zm3.3 0V3.6h1.5s-.05.98 0 1c.3-.6 1-1.1 2-1.1c1.5 0 2.3 1 2.3 2.4c-.03 0 0 4.2 0 4.2h-1.5s-.02-3.98 0-4c0-.8-.4-1.4-1.2-1.4h-.1c-.8 0-1.5.8-1.5 1.8c-.05.01 0 3.6 0 3.6h-1.5zm8.2 0V4.9h-1.4V3.6h1.4v-1c0-1 .5-1.6 1.5-1.6c.04.04 1.9 0 1.9 0v1.3h-1.3c-.5 0-.6.1-.6.6c-.02.04 0 .7 0 .7h1.6v1.3h-1.6v5.2h-1.5zm3.8-3.2c0-2 1.3-3.4 3.2-3.4c1.8 0 3.2 1.4 3.2 3.4c0 2-1.4 3.4-3.2 3.4c-1.9 0-3.2-1.4-3.2-3.4zM75.7 9c1 0 1.7-.7 1.7-2.1c0-1.4-.7-2.2-1.7-2.2h-.1c-.9 0-1.6.8-1.6 2.2c0 1.4.7 2.1 1.6 2.1h.1zm4.6 1.1V3.6h1.5s-.03 1.39 0 1.4c.2-.9.9-1.4 1.9-1.4c-.05-.02.4 0 .4 0v1.4s-.56-.02-.6 0c-1.1 0-1.7.6-1.7 1.8v3.3h-1.5zm4.9 0V3.6h1.5v1c.4-.7 1.2-1.1 2-1.1c.9 0 1.6.4 2 1.2c.5-.9 1.3-1.2 2.2-1.2c1.6 0 2.3 1 2.3 2.4c-.02.03 0 4.2 0 4.2h-1.5V6.2c0-.9-.3-1.4-1.1-1.4h-.1c-.8 0-1.6.7-1.6 1.7c.04.01 0 3.6 0 3.6h-1.4s-.05-3.94 0-3.9c0-.9-.4-1.4-1.2-1.4h-.1c-.8 0-1.5.7-1.5 1.7c.01.01 0 3.6 0 3.6h-1.5zm11.4-1.7c0-1.5 1.2-2 2.4-2.1c-.03-.04 1.7-.2 1.7-.2c0 0-.03-.16 0-.2c0-.7-.5-1.2-1.2-1.2h-.1c-.7 0-1.1.4-1.2.9h-1.5c.1-1.2 1.2-2.1 2.7-2.1c1.7 0 2.7 1 2.7 2.4v2.8c0 .4 0 1 .1 1.4h-1.4c-.1-.2-.1-.7-.1-.9c-.3.6-1 1.1-2 1.1c-1.2 0-2.1-.8-2.1-1.9zm2.5.6c.8 0 1.6-.6 1.6-1.4c-.03.01 0-.4 0-.4c0 0-1.53.16-1.5.2c-.6 0-1.1.3-1.1.9c0 .4.4.7.9.7h.1zm7 1.1c-1 0-1.6-.5-1.6-1.5c.02-.03 0-3.7 0-3.7h-1.4V3.6h1.4V1.5h1.5v2.1h1.5v1.3H106s.01 3.32 0 3.3c0 .5.1.7.6.7c.05-.05 1.1 0 1.1 0v1.2s-1.61.04-1.6 0zm2.7-7.4V1h1.6v1.7h-1.6zm.1 7.4V3.6h1.5v6.5h-1.5zm2.9-3.2c0-2 1.3-3.4 3.2-3.4c1.8 0 3.2 1.4 3.2 3.4c0 2-1.4 3.4-3.2 3.4c-1.9 0-3.2-1.4-3.2-3.4zM115 9c1 0 1.7-.7 1.7-2.1c0-1.4-.7-2.2-1.7-2.2h-.1c-.9 0-1.6.8-1.6 2.2c0 1.4.7 2.1 1.6 2.1h.1zm4.6 1.1V3.6h1.5v1c.4-.6 1.1-1.1 2-1.1c1.5 0 2.3 1 2.3 2.4v4.2h-1.5v-4c0-.8-.4-1.4-1.1-1.4h-.2c-.8 0-1.5.8-1.5 1.8c-.01.01 0 3.6 0 3.6h-1.5zM134 3.6h1.6l-2.3 6.5h-2.1l-2.3-6.5h1.6l1.8 5.3l1.7-5.3zm2.6-.9V1h1.6v1.7h-1.6zm0 7.4V3.6h1.5v6.5h-1.5zm3-3.2c0-2.1 1.2-3.4 3-3.4c1.9 0 2.9 1.3 2.9 3.1v.7H141c.1 1.1.9 1.7 1.6 1.7h.1c.7 0 1.2-.3 1.3-.9h1.5c-.3 1.3-1.4 2.2-2.9 2.2c-1.6 0-3-1.2-3-3.4zm4.4-.8c0-.9-.6-1.4-1.4-1.4h-.1c-.7 0-1.3.5-1.4 1.4h2.9zm10.4-2.5h1.5l-1.9 6.5h-1.7L151 5.4l-1.2 4.7h-1.7l-2-6.5h1.6l1.3 5l1.2-5h1.6l1.3 5l1.3-5z" stroke="none" fill="#192d39"/></g></svg>