<?xml version="1.0" standalone="no"?><!DOCTYPE svg PUBLIC "-//W3C//DTD SVG 1.1//EN" "http://www.w3.org/Graphics/SVG/1.1/DTD/svg11.dtd"><svg xmlns="http://www.w3.org/2000/svg" version="1.1" width="39px" height="15px" viewBox="0 -2 39 15" style="top:-2px"><desc>25</desc><defs/><g id="Polygon23155"><path d="m15.6 6.1h3.1v.9h-4.4v-1s2.12-1.99 2.1-2c.7-.6 1.1-1 1.1-1.6c0-.5-.4-.9-.9-.9h-.1c-.6 0-1 .5-1 1.2h-1.1c0-1.3.9-2.1 2.1-2.1c1.2 0 2.1.7 2.1 1.8c0 .9-.5 1.4-1.3 2.2c-.03-.05-1.7 1.5-1.7 1.5zm4.1-.8h1c.1.6.6.9 1.2.9h.1c.6 0 1.1-.5 1.1-1.1c0-.7-.5-1.1-1.1-1.1h-.1c-.3 0-.7.1-1 .5h-1l.7-3.8h3.5v1h-2.7s-.35 1.82-.3 1.8c.2-.3.7-.4 1.1-.4c1.2 0 2 .8 2 1.9c0 1.3-.9 2.1-2.3 2.1c-1.2 0-2.1-.7-2.2-1.8z" stroke="none" fill="#192d39"/></g></svg>