<?xml version="1.0" standalone="no"?><!DOCTYPE svg PUBLIC "-//W3C//DTD SVG 1.1//EN" "http://www.w3.org/Graphics/SVG/1.1/DTD/svg11.dtd"><svg xmlns="http://www.w3.org/2000/svg" version="1.1" width="363px" height="23.4px" viewBox="0 -3 363 23.4" style="top:-3px"><desc>A 120 place onsite childcare centre makes your daily drop off effortless.</desc><defs/><g id="Polygon17490"><path d="m14.4 8.6l-.8-2.1h-4l-.8 2.1h-.8L11.1.9h1l3.2 7.7h-.9zM9.9 5.7h3.4l-1.7-4.1l-1.7 4.1zm10-4.8h.5v7.7h-.7V2l-1.8 1.7v-.9l2-1.9zm3 6.9h4.1v.8h-5v-.8s3.09-3.13 3.1-3.1c.9-.9 1-1.2 1-1.9c0-.7-.6-1.3-1.5-1.3h-.1c-1 0-1.7.6-1.7 1.6h-.7c0-1.4 1-2.3 2.4-2.3c1.4 0 2.4.8 2.4 2c0 1-.5 1.6-1.2 2.2c.04.03-2.8 2.8-2.8 2.8zm5.2-3.1c0-2.6 1.1-3.9 2.9-3.9c1.9 0 2.9 1.3 2.9 3.9c0 2.6-1 4-2.9 4c-1.8 0-2.9-1.4-2.9-4zm3 3.3c.9 0 2.1-.7 2.1-3.3c0-2.5-1.2-3.2-2.1-3.2h-.1c-1 0-2.1.7-2.1 3.2C28.9 7.3 30 8 31 8h.1zm4.3-2.4v-.6h2.7v.6h-2.7zm4.2 5.2V3.1h.7s.02.86 0 .9c.4-.6 1.1-1 1.9-1c1.4 0 2.4 1.1 2.4 2.8c0 1.8-1 2.9-2.4 2.9c-.8 0-1.5-.4-1.9-1c.02 0 0 3.1 0 3.1h-.7zm2.5-2.7c1.2 0 1.8-1.1 1.8-2.3c0-1.2-.6-2.2-1.8-2.2c-1.2 0-1.8 1-1.8 2.2c0 1.2.6 2.3 1.8 2.3zm4 .5V.9h.7v7.7h-.7zm2.1-1.5c0-1.2 1.1-1.6 1.9-1.7c.03.01 1.8-.1 1.8-.1c0 0-.04-.24 0-.2c0-1-.6-1.5-1.4-1.5h-.1c-.7 0-1.3.3-1.3 1h-.8c.1-1 1-1.6 2.2-1.6c1.4 0 2.1.9 2.1 2.1v3.5h-.6c-.1-.3-.1-.6-.1-.9c-.2.5-1 1-1.9 1c-1 0-1.8-.7-1.8-1.6zm2 1c.7 0 1.7-.7 1.7-1.5c-.04 0 0-.7 0-.7c0 0-1.63.07-1.6.1c-.8 0-1.4.4-1.4 1c0 .6.5 1.1 1.1 1.1h.2zm3.7-2.3c0-1.6.9-2.8 2.6-2.8c1.2 0 2 .7 2.1 1.8h-.7c-.1-.7-.6-1.2-1.4-1.2h-.1c-1.2 0-1.7 1-1.7 2.2c0 1.2.5 2.3 1.7 2.3h.1c.8 0 1.3-.6 1.4-1.3h.7c-.2 1.2-.9 1.9-2.1 1.9c-1.7 0-2.6-1.3-2.6-2.9zm5.8 0c0-1.9 1.2-2.8 2.5-2.8c1.3 0 2.2 1 2.2 2.4c-.02.05 0 .5 0 .5c0 0-3.98-.02-4 0c0 1.5.8 2.2 1.7 2.2h.1c.8 0 1.2-.4 1.5-1.1h.7c-.3 1.1-1.1 1.7-2.2 1.7c-1.4 0-2.5-1-2.5-2.9zm4-.5c-.1-1-.6-1.7-1.5-1.7h-.1c-.7 0-1.5.4-1.7 1.7h3.3zm4 .5c0-1.7 1.1-2.8 2.5-2.8c1.4 0 2.5 1.1 2.5 2.8c0 1.7-1.1 2.9-2.5 2.9c-1.4 0-2.5-1.2-2.5-2.9zm2.6 2.3c1 0 1.7-.9 1.7-2.3c0-1.4-.7-2.2-1.7-2.2h-.1c-1 0-1.8.8-1.8 2.2c0 1.4.8 2.3 1.8 2.3h.1zm3.9.5V3.1h.7s-.02.9 0 .9c.3-.6 1-1 1.9-1c1.1 0 1.9.7 1.9 2c.03-.02 0 3.6 0 3.6h-.7s.01-3.4 0-3.4c0-1.1-.4-1.6-1.3-1.6h-.1c-1.2 0-1.7 1-1.7 2.2c-.02.03 0 2.8 0 2.8h-.7zM80 6.9h.7c.1.8.7 1.2 1.5 1.2h.1c.7 0 1.2-.4 1.2-1c0-.4-.2-.7-1-.9l-.8-.1c-.8-.2-1.5-.6-1.5-1.5c0-1.1 1-1.6 2-1.6c1.4 0 2 .8 2.1 1.7h-.7c-.1-.6-.6-1.1-1.3-1.1h-.1c-.8 0-1.2.4-1.2.9c0 .5.3.7 1 .9l.8.2c.8.2 1.4.5 1.4 1.4c0 1.1-.8 1.7-2 1.7c-1.4 0-2.1-.8-2.2-1.8zm5.7-4.8v-.9h.8v.9h-.8zm0 6.5V3.1h.7v5.5h-.7zm4.1 0c-.7 0-1-.3-1-1V3.7h-1.3v-.6h1.3V1.3h.7v1.8h1.4v.6h-1.4v3.8c0 .4.1.5.4.5c.04-.02 1.1 0 1.1 0v.6s-1.17-.02-1.2 0zm1.9-2.8c0-1.9 1.2-2.8 2.5-2.8c1.3 0 2.2 1 2.2 2.4v.5s-3.97-.02-4 0c.1 1.5.9 2.2 1.8 2.2c.8 0 1.3-.4 1.5-1.1h.7c-.3 1.1-1.1 1.7-2.2 1.7c-1.4 0-2.5-1-2.5-2.9zm4-.5c-.1-1-.6-1.7-1.5-1.7h-.1c-.7 0-1.5.4-1.6 1.7h3.2zm4 .5c0-1.6.9-2.8 2.5-2.8c1.2 0 2.1.7 2.2 1.8h-.7c-.2-.7-.7-1.2-1.4-1.2h-.1c-1.2 0-1.8 1-1.8 2.2c0 1.2.6 2.3 1.8 2.3h.1c.7 0 1.2-.6 1.4-1.3h.7c-.2 1.2-1 1.9-2.2 1.9c-1.6 0-2.5-1.3-2.5-2.9zm6.1 2.8V.9h.7v3.1c.4-.6 1.1-1 2-1c1.2 0 1.8.8 1.8 1.9c.05.05 0 3.7 0 3.7h-.7s.03-3.43 0-3.4c0-1.1-.4-1.6-1.3-1.6h-.1c-.8 0-1.7.7-1.7 2v3h-.7zm6.2-6.5v-.9h.8v.9h-.8zm0 6.5V3.1h.8v5.5h-.8zm2.5 0V.9h.7v7.7h-.7zm2.1-2.8c0-1.7 1.1-2.8 2.5-2.8c.7 0 1.5.4 1.8 1c.03-.04 0-3.1 0-3.1h.7v7.7h-.7s.03-.9 0-.9c-.3.6-1.1 1-1.8 1c-1.4 0-2.5-1.1-2.5-2.9zm2.6 2.3c1.2 0 1.7-1.1 1.7-2.3c0-1.2-.5-2.2-1.7-2.2h-.1c-1.2 0-1.7 1-1.7 2.2c0 1.2.5 2.3 1.7 2.3h.1zm3.9-2.3c0-1.6.9-2.8 2.5-2.8c1.2 0 2 .7 2.2 1.8h-.8c-.1-.7-.6-1.2-1.3-1.2h-.1c-1.2 0-1.8 1-1.8 2.2c0 1.2.6 2.3 1.8 2.3h.1c.7 0 1.2-.6 1.3-1.3h.8c-.2 1.2-1 1.9-2.2 1.9c-1.6 0-2.5-1.3-2.5-2.9zm5.8 1.3c0-1.2 1-1.6 1.9-1.7l1.7-.1v-.2c0-1-.5-1.5-1.4-1.5c-.7 0-1.3.3-1.4 1h-.7c.1-1 .9-1.6 2.1-1.6c1.4 0 2.1.9 2.1 2.1v2.3c0 .3 0 .8.1 1.2h-.7v-.9c-.3.5-1 1-2 1c-1 0-1.7-.7-1.7-1.6zm1.9 1c.8 0 1.7-.7 1.7-1.5v-.7s-1.58.07-1.6.1c-.8 0-1.3.4-1.3 1c0 .6.5 1.1 1.1 1.1h.1zm4.1.5V3.1h.7s-.03 1.23 0 1.2c.2-.8.9-1.3 1.7-1.3c-.02.03.5 0 .5 0v.7s-.47-.02-.5 0c-1 0-1.7.8-1.7 2.2c.03.01 0 2.7 0 2.7h-.7zm3.5-2.8c0-1.9 1.2-2.8 2.5-2.8c1.3 0 2.2 1 2.2 2.4c.02.05 0 .5 0 .5c0 0-3.94-.02-3.9 0c0 1.5.8 2.2 1.7 2.2h.1c.7 0 1.2-.4 1.4-1.1h.7c-.2 1.1-1.1 1.7-2.2 1.7c-1.4 0-2.5-1-2.5-2.9zm4-.5c0-1-.6-1.7-1.5-1.7h-.1c-.7 0-1.5.4-1.6 1.7h3.2zm4 .5c0-1.6.9-2.8 2.6-2.8c1.2 0 2 .7 2.1 1.8h-.7c-.1-.7-.6-1.2-1.4-1.2h-.1c-1.2 0-1.8 1-1.8 2.2c0 1.2.6 2.3 1.8 2.3h.1c.8 0 1.2-.6 1.4-1.3h.7c-.2 1.2-.9 1.9-2.1 1.9c-1.7 0-2.6-1.3-2.6-2.9zm5.8 0c0-1.9 1.2-2.8 2.4-2.8c1.4 0 2.3 1 2.3 2.4c-.04.05 0 .5 0 .5c0 0-4-.02-4 0c0 1.5.8 2.2 1.7 2.2h.1c.7 0 1.2-.4 1.4-1.1h.8c-.3 1.1-1.1 1.7-2.3 1.7c-1.3 0-2.4-1-2.4-2.9zm3.9-.5c0-1-.5-1.7-1.4-1.7h-.1c-.7 0-1.5.4-1.7 1.7h3.2zm2.2 3.3V3.1h.7s.04.9 0 .9c.4-.6 1.1-1 2-1c1.1 0 1.9.7 1.9 2c-.01-.02 0 3.6 0 3.6h-.7s-.02-3.4 0-3.4c0-1.1-.5-1.6-1.3-1.6h-.1c-1.2 0-1.8 1-1.8 2.2c.04.03 0 2.8 0 2.8h-.7zm7.9 0c-.8 0-1.1-.3-1.1-1c.02-.01 0-3.9 0-3.9h-1.2v-.6h1.2V1.3h.7v1.8h1.4v.6h-1.4s.03 3.84 0 3.8c0 .4.1.5.5.5c-.03-.02 1.1 0 1.1 0v.6s-1.24-.02-1.2 0zm2.3 0V3.1h.7s-.03 1.23 0 1.2c.2-.8.9-1.3 1.7-1.3c-.03.03.5 0 .5 0v.7s-.47-.02-.5 0c-1 0-1.7.8-1.7 2.2c.02.01 0 2.7 0 2.7h-.7zm3.5-2.8c0-1.9 1.2-2.8 2.5-2.8c1.3 0 2.2 1 2.2 2.4v.5s-3.95-.02-3.9 0c0 1.5.8 2.2 1.7 2.2c.8 0 1.3-.4 1.5-1.1h.7c-.2 1.1-1.1 1.7-2.2 1.7c-1.4 0-2.5-1-2.5-2.9zm4-.5c0-1-.6-1.7-1.5-1.7h-.1c-.7 0-1.5.4-1.6 1.7h3.2zm4.4 3.3V3.1h.7s-.03.86 0 .9c.3-.6.9-1 1.8-1c.8 0 1.4.4 1.7 1.1c.4-.7 1.1-1.1 2-1.1c1 0 1.8.7 1.8 2c.04-.02 0 3.6 0 3.6h-.7s.03-3.4 0-3.4c0-1.1-.4-1.6-1.2-1.6h-.1c-1.1 0-1.6 1-1.6 2.2c-.05.03 0 2.8 0 2.8h-.8s.04-3.4 0-3.4c0-1.1-.4-1.6-1.2-1.6h-.1c-1.1 0-1.6 1-1.6 2.2c-.03.03 0 2.8 0 2.8h-.7zm9.4-1.5c0-1.2 1.1-1.6 1.9-1.7c.03.01 1.8-.1 1.8-.1c0 0-.03-.24 0-.2c0-1-.6-1.5-1.4-1.5h-.1c-.7 0-1.3.3-1.3 1h-.8c.1-1 1-1.6 2.2-1.6c1.4 0 2.1.9 2.1 2.1v3.5h-.6c-.1-.3-.1-.6-.1-.9c-.2.5-1 1-1.9 1c-1 0-1.8-.7-1.8-1.6zm2 1c.7 0 1.7-.7 1.7-1.5c-.03 0 0-.7 0-.7c0 0-1.63.07-1.6.1c-.8 0-1.3.4-1.3 1c0 .6.4 1.1 1.1 1.1h.1zm4.1.5V.9h.7v5l2.9-2.8h1l-2.3 2.2l2.4 3.3h-.9l-2-2.8l-1.1 1v1.8h-.7zm5.2-2.8c0-1.9 1.1-2.8 2.4-2.8c1.4 0 2.2 1 2.2 2.4c.03.05 0 .5 0 .5c0 0-3.93-.02-3.9 0c0 1.5.8 2.2 1.7 2.2h.1c.7 0 1.2-.4 1.4-1.1h.7c-.2 1.1-1.1 1.7-2.2 1.7c-1.4 0-2.4-1-2.4-2.9zm3.9-.5c0-1-.6-1.7-1.4-1.7h-.2c-.6 0-1.5.4-1.6 1.7h3.2zm1.8 1.6h.7c.1.8.7 1.2 1.5 1.2h.1c.7 0 1.2-.4 1.2-1c0-.4-.2-.7-1-.9l-.8-.1c-.8-.2-1.5-.6-1.5-1.5c0-1.1 1-1.6 2-1.6c1.4 0 2 .8 2.1 1.7h-.7c-.1-.6-.6-1.1-1.3-1.1h-.1c-.8 0-1.2.4-1.2.9c0 .5.3.7 1 .9l.8.2c.8.2 1.4.5 1.4 1.4c0 1.1-.8 1.7-2 1.7c-1.4 0-2.1-.8-2.2-1.8zm12.6-3.8l-2.3 5.3v1c0 .7-.3 1-1 1c-.03-.01-1.7 0-1.7 0v-.6h1.6c.3 0 .4-.1.4-.4v-1l-2.3-5.3h.7l1.9 4.4l1.9-4.4h.8zm.5 2.7c0-1.7 1.1-2.8 2.6-2.8c1.4 0 2.5 1.1 2.5 2.8c0 1.7-1.1 2.9-2.5 2.9c-1.5 0-2.6-1.2-2.6-2.9zm2.6 2.3c1 0 1.8-.9 1.8-2.3c0-1.4-.8-2.2-1.8-2.2h-.1c-1 0-1.7.8-1.7 2.2c0 1.4.7 2.3 1.7 2.3h.1zm3.9-1.4c-.03.01 0-3.6 0-3.6h.7s-.02 3.39 0 3.4c0 1 .4 1.6 1.3 1.6h.1c.8 0 1.6-.8 1.6-2.1V3.1h.7v5.5h-.7s.01-1.05 0-1.1c-.3.8-.9 1.2-1.8 1.2c-1.3 0-1.9-.8-1.9-2zm6.2 1.9V3.1h.6s.02 1.23 0 1.2c.3-.8 1-1.3 1.7-1.3c.02.03.5 0 .5 0v.7s-.42-.02-.4 0c-1.1 0-1.7.8-1.7 2.2c-.03.01 0 2.7 0 2.7h-.7zm5.8-2.8c0-1.7 1-2.8 2.4-2.8c.7 0 1.5.4 1.9 1c-.04-.04 0-3.1 0-3.1h.7v7.7h-.7s-.04-.9 0-.9c-.4.6-1.2 1-1.9 1c-1.4 0-2.4-1.1-2.4-2.9zm2.5 2.3c1.2 0 1.8-1.1 1.8-2.3c0-1.2-.6-2.2-1.8-2.2h-.1c-1.1 0-1.7 1-1.7 2.2c0 1.2.6 2.3 1.7 2.3h.1zm3.9-1c0-1.2 1.1-1.6 1.9-1.7c.01.01 1.8-.1 1.8-.1c0 0-.05-.24 0-.2c0-1-.6-1.5-1.4-1.5h-.1c-.7 0-1.3.3-1.4 1h-.7c.1-1 1-1.6 2.1-1.6c1.5 0 2.2.9 2.2 2.1v3.5h-.6c-.1-.3-.1-.6-.1-.9c-.2.5-1 1-1.9 1c-1 0-1.8-.7-1.8-1.6zm1.9 1c.8 0 1.8-.7 1.8-1.5c-.05 0 0-.7 0-.7c0 0-1.65.07-1.6.1c-.8 0-1.4.4-1.4 1c0 .6.5 1.1 1.1 1.1h.1zm4.1-6v-.9h.8v.9h-.8zm0 6.5V3.1h.8v5.5h-.8zm2.5 0V.9h.7v7.7h-.7zm7.2-5.5l-2.3 5.3v1c0 .7-.3 1-1.1 1h-1.6v-.6h1.5c.4 0 .5-.1.5-.4c-.02-.05 0-1 0-1l-2.4-5.3h.8l1.9 4.4l1.9-4.4h.8zm2.9 2.7c0-1.7 1-2.8 2.4-2.8c.7 0 1.5.4 1.9 1c-.05-.04 0-3.1 0-3.1h.7v7.7h-.7s-.05-.9 0-.9c-.4.6-1.2 1-1.9 1c-1.4 0-2.4-1.1-2.4-2.9zm2.5 2.3c1.2 0 1.8-1.1 1.8-2.3c0-1.2-.6-2.2-1.8-2.2h-.1c-1.1 0-1.7 1-1.7 2.2c0 1.2.6 2.3 1.7 2.3h.1zm4.2.5V3.1h.7s-.04 1.23 0 1.2c.2-.8.9-1.3 1.7-1.3c-.04.03.5 0 .5 0v.7s-.48-.02-.5 0c-1 0-1.7.8-1.7 2.2v2.7h-.7zm3.5-2.8c0-1.7 1.1-2.8 2.5-2.8c1.4 0 2.6 1.1 2.6 2.8c0 1.7-1.2 2.9-2.6 2.9c-1.4 0-2.5-1.2-2.5-2.9zm2.6 2.3c1 0 1.7-.9 1.7-2.3c0-1.4-.7-2.2-1.7-2.2h-.1c-1 0-1.8.8-1.8 2.2c0 1.4.8 2.3 1.8 2.3h.1zm3.9 2.7V3.1h.7s-.01.86 0 .9c.3-.6 1.1-1 1.8-1c1.5 0 2.5 1.1 2.5 2.8c0 1.8-1 2.9-2.5 2.9c-.7 0-1.5-.4-1.8-1v3.1h-.7zm2.5-2.7c1.2 0 1.8-1.1 1.8-2.3c0-1.2-.6-2.2-1.8-2.2c-1.2 0-1.8 1-1.8 2.2c0 1.2.6 2.3 1.8 2.3zm3.8-2.5v-.6h2.7v.6h-2.7zm4 .2c0-1.7 1.1-2.8 2.5-2.8c1.4 0 2.5 1.1 2.5 2.8c0 1.7-1.1 2.9-2.5 2.9c-1.4 0-2.5-1.2-2.5-2.9zm2.5 2.3c1 0 1.8-.9 1.8-2.3c0-1.4-.8-2.2-1.8-2.2h-.1c-1 0-1.7.8-1.7 2.2c0 1.4.7 2.3 1.7 2.3h.1zm4.5.5V3.7h-1.3v-.6h1.3s-.03-1.23 0-1.2c0-.7.3-1 1-1c.02-.02 1.4 0 1.4 0v.6s-1.27-.02-1.3 0c-.3 0-.4.1-.4.4v1.2h3s-.04-1.23 0-1.2c0-.7.3-1 1-1c0-.02 1.4 0 1.4 0v.6s-1.29-.02-1.3 0c-.3 0-.4.1-.4.4c-.03.02 0 1.2 0 1.2h1.4v.6h-1.4v4.9h-.7V3.7h-3v4.9h-.7zm8.8-2.8c0-1.9 1.2-2.8 2.4-2.8c1.4 0 2.2 1 2.2 2.4c.05.05 0 .5 0 .5c0 0-3.91-.02-3.9 0c0 1.5.8 2.2 1.7 2.2h.1c.7 0 1.2-.4 1.4-1.1h.7c-.2 1.1-1.1 1.7-2.2 1.7c-1.4 0-2.4-1-2.4-2.9zm3.9-.5c0-1-.6-1.7-1.4-1.7h-.1c-.7 0-1.5.4-1.7 1.7h3.2zm2.8 3.3V3.7h-1.3v-.6h1.3V1.9c0-.7.3-1 1-1c.04-.02 1.4 0 1.4 0v.6s-1.25-.02-1.3 0c-.3 0-.4.1-.4.4v1.2h3s-.02-1.23 0-1.2c0-.7.3-1 1-1c.02-.02 1.4 0 1.4 0v.6s-1.27-.02-1.3 0c-.3 0-.4.1-.4.4v1.2h1.4v.6h-1.4v4.9h-.7V3.7h-3v4.9h-.7zm6.5-2.8c0-1.7 1.1-2.8 2.5-2.8c1.5 0 2.6 1.1 2.6 2.8c0 1.7-1.1 2.9-2.6 2.9c-1.4 0-2.5-1.2-2.5-2.9zm2.6 2.3c1 0 1.7-.9 1.7-2.3c0-1.4-.7-2.2-1.7-2.2h-.1c-1 0-1.8.8-1.8 2.2c0 1.4.8 2.3 1.8 2.3h.1zm3.9.5V3.1h.7s-.05 1.23 0 1.2c.2-.8.9-1.3 1.7-1.3c-.04.03.5 0 .5 0v.7s-.49-.02-.5 0c-1 0-1.7.8-1.7 2.2v2.7h-.7zm5.9 0c-.7 0-1-.3-1-1c-.02-.01 0-3.9 0-3.9h-1.3v-.6h1.3V1.3h.7v1.8h1.4v.6h-1.4v3.8c0 .4.1.5.4.5c.03-.02 1.1 0 1.1 0v.6s-1.18-.02-1.2 0zm2.4 0V.9h.7v7.7h-.7zm2.1-2.8c0-1.9 1.2-2.8 2.5-2.8c1.3 0 2.2 1 2.2 2.4v.5s-3.96-.02-4 0c.1 1.5.9 2.2 1.8 2.2c.8 0 1.3-.4 1.5-1.1h.7c-.3 1.1-1.1 1.7-2.2 1.7c-1.4 0-2.5-1-2.5-2.9zm4-.5c0-1-.6-1.7-1.5-1.7h-.1c-.7 0-1.5.4-1.6 1.7h3.2zm1.8 1.6h.7c.1.8.7 1.2 1.4 1.2h.1c.8 0 1.3-.4 1.3-1c0-.4-.3-.7-1-.9l-.8-.1c-.8-.2-1.5-.6-1.5-1.5c0-1.1.9-1.6 2-1.6c1.4 0 2 .8 2 1.7h-.7c0-.6-.5-1.1-1.3-1.1h-.1c-.7 0-1.2.4-1.2.9c0 .5.3.7 1 .9l.9.2c.8.2 1.4.5 1.4 1.4c0 1.1-.8 1.7-2 1.7c-1.4 0-2.2-.8-2.2-1.8zm5.3 0h.7c.1.8.7 1.2 1.4 1.2h.1c.8 0 1.3-.4 1.3-1c0-.4-.2-.7-1-.9l-.8-.1c-.8-.2-1.5-.6-1.5-1.5c0-1.1.9-1.6 2-1.6c1.4 0 2 .8 2.1 1.7h-.8c0-.6-.5-1.1-1.3-1.1h-.1c-.7 0-1.2.4-1.2.9c0 .5.3.7 1 .9l.9.2c.8.2 1.4.5 1.4 1.4c0 1.1-.8 1.7-2 1.7c-1.4 0-2.1-.8-2.2-1.8zm5.7 1.7V7.5h1.1v1.1h-1.1z" stroke="none" fill="#192d39"/></g></svg>