<?xml version="1.0" standalone="no"?><!DOCTYPE svg PUBLIC "-//W3C//DTD SVG 1.1//EN" "http://www.w3.org/Graphics/SVG/1.1/DTD/svg11.dtd"><svg xmlns="http://www.w3.org/2000/svg" version="1.1" width="109.5px" height="41.4px" viewBox="0 -3 109.5 41.4" style="top:-3px"><desc>16km from Sydney CBD.</desc><defs/><g id="Polygon22388"><path d="m.6 19.9c0-2.3 1.3-4 3.5-4c1.7 0 2.9 1.1 3 2.5h-.8c-.1-.9-.8-1.8-2.1-1.8h-.1c-1.8 0-2.7 1.5-2.7 3.3c0 1.8.9 3.2 2.7 3.2h.1c1.3 0 2-.8 2.1-1.7h.8c-.1 1.4-1.3 2.4-3 2.4c-2.2 0-3.5-1.7-3.5-3.9zm8.1 3.8V16s3.22.03 3.2 0c1.2 0 2.1.8 2.1 2c0 .9-.5 1.6-1.2 1.8c.6.1 1.4.7 1.4 1.8c0 1.3-1 2.1-2.2 2.1c0 .03-3.3 0-3.3 0zm.8-4.2s2.34-.03 2.3 0c.9 0 1.5-.5 1.5-1.4c0-.9-.6-1.4-1.5-1.4c.04.04-2.3 0-2.3 0v2.8zm0 3.5s2.33.02 2.3 0c1 0 1.6-.5 1.6-1.4c0-.9-.6-1.4-1.6-1.4H9.5v2.8zm6.4.7V16s2.66.03 2.7 0c2.1 0 3.4 1.5 3.4 3.9c0 2.4-1.3 3.8-3.4 3.8c-.04.03-2.7 0-2.7 0zm.8-.7s1.75.02 1.8 0c1.7 0 2.8-1.1 2.8-3.1c0-2-1.1-3.2-2.8-3.2c-.05.04-1.8 0-1.8 0v6.3zm6.5.7v-1.1h1.1v1.1h-1.1z" stroke="none" fill="#192d39"/></g><g id="Polygon22387"><path d="m2.3.9h.6v7.7h-.7V2L.3 3.7v-.9l2-1.9zM9.9 6c0 1.7-1.1 2.7-2.5 2.7c-1.8 0-2.8-1.5-2.8-3.8c0-2.4 1.3-4.1 3-4.1c1.3 0 2.2.7 2.4 1.9h-.7c-.2-.7-.8-1.2-1.6-1.2h-.1c-1.3 0-2.3 1.4-2.3 3.4c.3-1 1.3-1.4 2.2-1.4c1.4 0 2.4 1.1 2.4 2.5zM7.4 8c1 0 1.8-.8 1.8-1.9c0-1.1-.7-1.9-1.8-1.9h-.1c-1 0-1.8.8-1.8 1.9c0 1.1.8 1.9 1.8 1.9h.1zm4.1.6V.9h.7v5l2.9-2.8h1l-2.3 2.2l2.4 3.3h-.9l-2-2.8l-1.1 1v1.8h-.7zm5.8 0V3.1h.8s-.05.86 0 .9c.3-.6.9-1 1.8-1c.8 0 1.4.4 1.7 1.1c.4-.7 1.1-1.1 2-1.1c1 0 1.8.7 1.8 2c.02-.02 0 3.6 0 3.6h-.7s.01-3.4 0-3.4c0-1.1-.4-1.6-1.3-1.6c-1.1 0-1.7 1-1.7 2.2c.04.03 0 2.8 0 2.8h-.7s.03-3.4 0-3.4c0-1.1-.4-1.6-1.2-1.6h-.1c-1.1 0-1.6 1-1.6 2.2c-.05.03 0 2.8 0 2.8h-.8zm12.6 0V3.7h-1.2v-.6h1.2s.05-1.23 0-1.2c0-.7.4-1 1.1-1c-.01-.02 1.4 0 1.4 0v.6s-1.3-.02-1.3 0c-.3 0-.4.1-.4.4c-.04.02 0 1.2 0 1.2h1.4v.6h-1.4v4.9h-.8zm3.3 0V3.1h.7s-.02 1.23 0 1.2c.2-.8.9-1.3 1.7-1.3c-.01.03.5 0 .5 0v.7s-.46-.02-.5 0c-1 0-1.7.8-1.7 2.2c.04.01 0 2.7 0 2.7h-.7zm3.5-2.8c0-1.7 1.1-2.8 2.6-2.8c1.4 0 2.5 1.1 2.5 2.8c0 1.7-1.1 2.9-2.5 2.9c-1.5 0-2.6-1.2-2.6-2.9zm2.6 2.3c1 0 1.8-.9 1.8-2.3c0-1.4-.8-2.2-1.8-2.2h-.1c-1 0-1.8.8-1.8 2.2c0 1.4.8 2.3 1.8 2.3h.1zm3.9.5V3.1h.7s.02.86 0 .9c.3-.6 1-1 1.8-1c.8 0 1.5.4 1.8 1.1c.4-.7 1-1.1 1.9-1.1c1.1 0 1.9.7 1.9 2c-.01-.02 0 3.6 0 3.6h-.7s-.03-3.4 0-3.4c0-1.1-.4-1.6-1.3-1.6h-.1c-1.1 0-1.6 1-1.6 2.2v2.8h-.7s-.01-3.4 0-3.4c0-1.1-.4-1.6-1.3-1.6c-1.2 0-1.7 1-1.7 2.2c.02.03 0 2.8 0 2.8h-.7zm11.6-2.4h.7c0 1.1.9 1.8 2.2 1.8h.1c1.2 0 1.9-.7 1.9-1.5c0-.7-.5-1.1-1.5-1.3L57 5c-1.2-.3-1.8-.9-1.8-2c0-1.2 1-2.2 2.6-2.2c1.7 0 2.7.9 2.7 2.3h-.7c-.1-1-.9-1.6-1.9-1.6h-.2c-1 0-1.8.6-1.8 1.5c0 .7.5 1 1.3 1.2l1.2.2c1.3.3 2 .9 2 2.1c0 1.4-1 2.2-2.7 2.2c-1.8 0-2.9-.9-2.9-2.5zm12.1-3.1l-2.3 5.3v1c0 .7-.3 1-1 1c-.03-.01-1.7 0-1.7 0v-.6h1.6c.3 0 .4-.1.4-.4v-1l-2.3-5.3h.7l1.9 4.4l1.9-4.4h.8zm.5 2.7c0-1.7 1.1-2.8 2.5-2.8c.7 0 1.5.4 1.8 1c.04-.04 0-3.1 0-3.1h.8v7.7h-.8s.04-.9 0-.9c-.3.6-1.1 1-1.8 1c-1.4 0-2.5-1.1-2.5-2.9zM70 8.1c1.2 0 1.7-1.1 1.7-2.3c0-1.2-.5-2.2-1.7-2.2h-.1c-1.2 0-1.7 1-1.7 2.2c0 1.2.5 2.3 1.7 2.3h.1zm4.2.5V3.1h.7v.9c.3-.6 1-1 1.9-1c1.1 0 1.9.7 1.9 2c.05-.02 0 3.6 0 3.6h-.7s.04-3.4 0-3.4c0-1.1-.4-1.6-1.3-1.6h-.1c-1.1 0-1.7 1-1.7 2.2v2.8h-.7zm6-2.8c0-1.9 1.1-2.8 2.4-2.8c1.3 0 2.2 1 2.2 2.4c.02.05 0 .5 0 .5c0 0-3.94-.02-3.9 0c0 1.5.8 2.2 1.7 2.2h.1c.7 0 1.2-.4 1.4-1.1h.7c-.2 1.1-1.1 1.7-2.2 1.7c-1.4 0-2.4-1-2.4-2.9zm3.9-.5c0-1-.6-1.7-1.5-1.7h-.1c-.7 0-1.5.4-1.6 1.7h3.2zm6.7-2.2l-2.3 5.3s.04 1.04 0 1c0 .7-.3 1-1 1c-.01-.01-1.7 0-1.7 0v-.6h1.6c.3 0 .4-.1.4-.4c.02-.05 0-1 0-1l-2.3-5.3h.8l1.9 4.4l1.9-4.4h.7z" stroke="none" fill="#192d39"/></g></svg>