<?xml version="1.0" standalone="no"?><!DOCTYPE svg PUBLIC "-//W3C//DTD SVG 1.1//EN" "http://www.w3.org/Graphics/SVG/1.1/DTD/svg11.dtd"><svg xmlns="http://www.w3.org/2000/svg" version="1.1" width="330px" height="229.9px" viewBox="0 -3 330 229.9" style="top:-3px"><desc>Over 80% of the apartments will capture views of the Sydney CBD skyline, the green expanse of Lane Cove National Park...</desc><defs/><g class="svg-tables"><g class="svg-table-background"/></g><g id="Polygon16991"><path d="m12.8 181.9h.7c.1.8.7 1.2 1.5 1.2h.1c.7 0 1.2-.4 1.2-1c0-.5-.2-.7-1-.9l-.8-.1c-.8-.2-1.5-.6-1.5-1.5c0-1.1 1-1.6 2-1.6c1.4 0 2 .8 2.1 1.7h-.7c-.1-.6-.6-1.1-1.3-1.1h-.1c-.8 0-1.2.4-1.2.9c0 .5.3.7 1 .9l.8.2c.8.1 1.4.5 1.4 1.4c0 1.1-.8 1.7-2 1.7c-1.4 0-2.1-.8-2.2-1.8zm5.7-.2c-.05-.01 0-3.6 0-3.6h.7s-.03 3.37 0 3.4c0 1 .4 1.6 1.3 1.6h.1c.8 0 1.6-.8 1.6-2.1v-2.9h.7v5.5h-.7s-.01-1.07 0-1.1c-.3.8-.9 1.2-1.8 1.2c-1.3 0-1.9-.9-1.9-2zm6.1 1.9v-5.5h.8s-.04.88 0 .9c.3-.6 1-1 1.9-1c1.1 0 1.9.6 1.9 2c.01-.04 0 3.6 0 3.6h-.7s-.01-3.42 0-3.4c0-1.1-.4-1.6-1.3-1.6h-.1c-1.2 0-1.7 1-1.7 2.2c-.04.01 0 2.8 0 2.8h-.8zm6.3 0v-7.7h.7v7.7h-.7zm2.4-6.5v-1h.8v1h-.8zm0 6.5v-5.5h.8v5.5h-.8zm2.1.7h.7c.1.7.8 1.1 1.7 1.1h.1c.9 0 1.8-.6 1.8-1.9v-.9c-.3.6-1 1-1.8 1c-1.4 0-2.4-1-2.4-2.8c0-1.7 1-2.8 2.4-2.8c.8 0 1.5.3 1.8.9c-.02.04 0-.8 0-.8h.7v5.4c0 1.4-.9 2.5-2.5 2.5c-1.6 0-2.4-.7-2.5-1.7zM38 183c1 0 1.7-.8 1.7-2.2c0-1.4-.7-2.2-1.7-2.2h-.1c-1 0-1.7.8-1.7 2.2c0 1.4.7 2.2 1.7 2.2h.1zm4.1.6v-7.7h.7s.04 3.1 0 3.1c.4-.7 1.1-1 2-1c1.2 0 1.9.8 1.9 1.9c-.01.03 0 3.7 0 3.7h-.7s-.02-3.45 0-3.4c0-1.1-.5-1.6-1.3-1.6h-.1c-.9 0-1.8.7-1.8 2c.04-.01 0 3 0 3h-.7zm7.9 0c-.7 0-1.1-.3-1.1-1c.03-.03 0-3.9 0-3.9h-1.2v-.6h1.2v-1.8h.7v1.8h1.4v.6h-1.4s.04 3.82 0 3.8c0 .3.2.5.5.5c-.02-.04 1.1 0 1.1 0v.6s-1.23-.04-1.2 0zm4.2-1.6c0-1.2 1-1.5 1.9-1.6c-.03-.01 1.7-.1 1.7-.1v-.3c0-.9-.5-1.4-1.4-1.4c-.7 0-1.3.3-1.4 1h-.7c.1-1 .9-1.6 2.1-1.6c1.4 0 2.1.9 2.1 2v2.4c0 .3 0 .8.1 1.2h-.7v-.9c-.3.5-1 1-2 1c-1 0-1.7-.7-1.7-1.7zm1.9 1.1c.8 0 1.7-.7 1.7-1.5v-.8s-1.59.15-1.6.2c-.8 0-1.3.4-1.3 1c0 .6.5 1.1 1.1 1.1h.1zm4.1.5v-5.5h.7s.02.88 0 .9c.3-.6 1-1 2-1c1.1 0 1.9.6 1.9 2c-.03-.04 0 3.6 0 3.6h-.7s-.04-3.42 0-3.4c0-1.1-.5-1.6-1.4-1.6c-1.2 0-1.8 1-1.8 2.2c.02.01 0 2.8 0 2.8h-.7zm6-2.8c0-1.7 1-2.8 2.4-2.8c.7 0 1.5.3 1.9.9c-.04.04 0-3 0-3h.7v7.7h-.7s-.04-.92 0-.9c-.4.6-1.2 1-1.9 1c-1.4 0-2.4-1.1-2.4-2.9zm2.5 2.3c1.2 0 1.8-1.1 1.8-2.3c0-1.2-.6-2.2-1.8-2.2h-.1c-1.1 0-1.7 1-1.7 2.2c0 1.2.6 2.3 1.7 2.3h.1zm7.1.5v-4.9h-1.3v-.6h1.3s-.04-1.25 0-1.2c0-.8.3-1 1-1c0-.04 1.4 0 1.4 0v.6s-1.29-.03-1.3 0c-.3 0-.4.1-.4.4c-.03.01 0 1.2 0 1.2h1.4v.6h-1.4v4.9h-.7zm3.2 0v-5.5h.7v1.2c.2-.9.9-1.3 1.7-1.3h.5v.7s-.45-.03-.4 0c-1.1 0-1.8.8-1.8 2.2c.05-.01 0 2.7 0 2.7h-.7zm3.6-2.8c0-1.9 1.1-2.8 2.4-2.8c1.4 0 2.2 1 2.2 2.4c.04.03 0 .5 0 .5c0 0-3.92-.03-3.9 0c0 1.5.8 2.2 1.7 2.2h.1c.7 0 1.2-.4 1.4-1.1h.7c-.2 1.1-1.1 1.7-2.2 1.7c-1.4 0-2.4-1-2.4-2.9zm3.9-.5c0-1-.6-1.7-1.4-1.7h-.2c-.6 0-1.4.4-1.6 1.7h3.2zm1.8 1.6h.7c.1.8.7 1.2 1.5 1.2h.1c.7 0 1.2-.4 1.2-1c0-.5-.2-.7-1-.9l-.8-.1c-.8-.2-1.5-.6-1.5-1.5c0-1.1 1-1.6 2-1.6c1.4 0 2 .8 2.1 1.7h-.7c-.1-.6-.6-1.1-1.3-1.1h-.1c-.8 0-1.2.4-1.2.9c0 .5.3.7 1 .9l.8.2c.8.1 1.4.5 1.4 1.4c0 1.1-.8 1.7-2 1.7c-1.4 0-2.1-.8-2.2-1.8zm5.7 1.7v-7.7h.7s.03 3.1 0 3.1c.4-.7 1.1-1 2-1c1.2 0 1.9.8 1.9 1.9c-.02.03 0 3.7 0 3.7h-.7s-.03-3.45 0-3.4c0-1.1-.5-1.6-1.4-1.6h-.1c-.8 0-1.7.7-1.7 2c.03-.01 0 3 0 3h-.7zm8.2-1.6c0-1.2 1-1.5 1.9-1.6c-.04-.01 1.7-.1 1.7-.1v-.3c0-.9-.5-1.4-1.4-1.4c-.7 0-1.3.3-1.4 1h-.7c0-1 .9-1.6 2.1-1.6c1.4 0 2.1.9 2.1 2v2.4c0 .3 0 .8.1 1.2h-.7v-.9c-.3.5-1 1-2 1c-1 0-1.7-.7-1.7-1.7zm1.9 1.1c.8 0 1.7-.7 1.7-1.5v-.8s-1.6.15-1.6.2c-.8 0-1.3.4-1.3 1c0 .6.5 1.1 1.1 1.1h.1zm4-6v-1h.9v1h-.9zm.1 6.5v-5.5h.7v5.5h-.7zm2.4 0v-5.5h.7v1.2c.2-.9.9-1.3 1.7-1.3h.5v.7s-.45-.03-.4 0c-1.1 0-1.8.8-1.8 2.2c.05-.01 0 2.7 0 2.7h-.7zm3.2 0v-1.1h1.1v1.1h-1.1z" stroke="none" fill="#192d39"/></g><g id="Polygon16990"><path d="m13.2 170.6v-7.7h.8s-.04.89 0 .9c.3-.6 1.1-1 1.8-1c1.4 0 2.5 1.1 2.5 2.9c0 1.7-1.1 2.8-2.5 2.8c-.7 0-1.5-.4-1.8-1c-.04.03 0 3.1 0 3.1h-.8zm2.6-2.7c1.2 0 1.7-1.1 1.7-2.2c0-1.2-.5-2.3-1.7-2.3h-.1c-1.2 0-1.7 1.1-1.7 2.3c0 1.1.5 2.2 1.7 2.2h.1zm3.6-2.2c0-1.7 1.1-2.9 2.5-2.9c1.4 0 2.5 1.2 2.5 2.9c0 1.7-1.1 2.8-2.5 2.8c-1.4 0-2.5-1.1-2.5-2.8zm2.6 2.2c1 0 1.7-.8 1.7-2.2c0-1.4-.7-2.3-1.7-2.3h-.1c-1 0-1.8.9-1.8 2.3c0 1.4.8 2.2 1.8 2.2h.1zm3.5-1.1h.7c.1.7.6 1.1 1.4 1.1h.1c.8 0 1.3-.4 1.3-1c0-.4-.3-.7-1-.8l-.8-.2c-.8-.2-1.5-.5-1.5-1.5c0-1 .9-1.6 2-1.6c1.3 0 2 .9 2 1.8h-.7c-.1-.6-.5-1.2-1.3-1.2h-.1c-.8 0-1.2.5-1.2 1c0 .4.3.7 1 .8l.9.2c.7.2 1.4.5 1.4 1.5c0 1-.8 1.6-2 1.6c-1.5 0-2.2-.7-2.2-1.7zm5.6-4.9v-.9h.8v.9h-.8zm.1 6.5v-5.5h.7v5.5h-.7zm4.1 0c-.7 0-1.1-.3-1.1-1c.04.02 0-3.9 0-3.9H33v-.6h1.2v-1.8h.8v1.8h1.3v.6H35s-.05 3.87 0 3.9c0 .3.1.4.4.4c-.01.01 1.1 0 1.1 0v.6h-1.2zm2.3-6.5v-.9h.8v.9h-.8zm0 6.5v-5.5h.7v5.5h-.7zm2.1-2.7c0-1.7 1.2-2.9 2.6-2.9c1.4 0 2.5 1.2 2.5 2.9c0 1.7-1.1 2.8-2.5 2.8c-1.4 0-2.6-1.1-2.6-2.8zm2.6 2.2c1 0 1.8-.8 1.8-2.2c0-1.4-.8-2.3-1.8-2.3h-.1c-1 0-1.7.9-1.7 2.3c0 1.4.7 2.2 1.7 2.2h.1zm3.9.5v-5.5h.7s.04.93 0 .9c.4-.6 1.1-1 2-1c1.1 0 1.9.7 1.9 2c-.01.01 0 3.6 0 3.6h-.7s-.02-3.37 0-3.4c0-1.1-.5-1.6-1.3-1.6h-.1c-1.2 0-1.8 1.1-1.8 2.3c.04-.04 0 2.7 0 2.7h-.7zm5.9-1.6h.7c.1.7.7 1.1 1.4 1.1h.1c.8 0 1.3-.4 1.3-1c0-.4-.3-.7-1-.8l-.8-.2c-.8-.2-1.5-.5-1.5-1.5c0-1 .9-1.6 2-1.6c1.4 0 2 .9 2 1.8h-.7c0-.6-.5-1.2-1.3-1.2h-.1c-.8 0-1.2.5-1.2 1c0 .4.3.7 1 .8l.9.2c.8.2 1.4.5 1.4 1.5c0 1-.8 1.6-2 1.6c-1.4 0-2.2-.7-2.2-1.7zm14.4-3.9h.8l-1.8 5.5h-1l-1.2-4.7l-1.2 4.7h-1l-1.8-5.5h.8l1.5 4.9l1.2-4.9h1l1.3 4.9l1.4-4.9zm1.9-1v-.9h.8v.9h-.8zm0 6.5v-5.5h.7v5.5h-.7zm4.1 0c-.7 0-1-.3-1-1v-3.9h-1.3v-.6h1.3v-1.8h.7v1.8h1.4v.6h-1.4v3.9c0 .3.1.4.5.4c-.05.01 1.1 0 1.1 0v.6h-1.3zm2.4 0v-7.7h.7v3.1c.4-.6 1.1-1 2-1c1.2 0 1.9.8 1.9 2c-.05-.02 0 3.6 0 3.6h-.8s.04-3.4 0-3.4c0-1.1-.4-1.6-1.3-1.6h-.1c-.8 0-1.7.8-1.7 2v3h-.7zm8.1-2.7c0-1.8 1.1-2.9 2.5-2.9c.7 0 1.5.4 1.8 1c.02-.01 0-3.1 0-3.1h.7v7.7h-.7s.02-.87 0-.9c-.3.6-1.1 1-1.8 1c-1.4 0-2.5-1.1-2.5-2.8zm2.6 2.2c1.1 0 1.7-1.1 1.7-2.2c0-1.2-.6-2.3-1.7-2.3h-.1c-1.2 0-1.7 1.1-1.7 2.3c0 1.1.5 2.2 1.7 2.2h.1zm4.1-1.4c.03.04 0-3.6 0-3.6h.7s.04 3.42 0 3.4c0 1.1.5 1.6 1.4 1.6h.1c.8 0 1.6-.7 1.6-2c-.03-.02 0-3 0-3h.7v5.5h-.7s-.03-1.02 0-1c-.3.7-1 1.1-1.9 1.1c-1.2 0-1.9-.8-1.9-2zm5.9.4c0-1.2 1.1-1.6 1.9-1.7c.03.04 1.8-.1 1.8-.1c0 0-.03-.21 0-.2c0-1-.6-1.5-1.4-1.5h-.1c-.7 0-1.3.4-1.3 1.1h-.8c.1-1 1-1.7 2.2-1.7c1.4 0 2.1 1 2.1 2.1v3.5h-.6c-.1-.2-.1-.6-.1-.9c-.2.5-1 1-1.9 1c-1 0-1.8-.7-1.8-1.6zm2 1c.7 0 1.7-.7 1.7-1.5c-.03.03 0-.7 0-.7l-1.6.1c-.8.1-1.4.4-1.4 1c0 .7.5 1.1 1.1 1.1h.2zm4.1.5v-7.7h.7v7.7h-.7zm4.3-1.5c0-1.2 1.1-1.6 1.9-1.7c.02.04 1.8-.1 1.8-.1c0 0-.04-.21 0-.2c0-1-.6-1.5-1.4-1.5h-.1c-.7 0-1.3.4-1.3 1.1h-.8c.1-1 1-1.7 2.2-1.7c1.4 0 2.1 1 2.1 2.1v3.5h-.6c-.1-.2-.1-.6-.1-.9c-.2.5-1 1-1.9 1c-1 0-1.8-.7-1.8-1.6zm2 1c.7 0 1.7-.7 1.7-1.5c-.04.03 0-.7 0-.7l-1.6.1c-.8.1-1.4.4-1.4 1c0 .7.5 1.1 1.1 1.1h.2zm3.7-1.1h.7c.1.7.6 1.1 1.4 1.1h.1c.8 0 1.3-.4 1.3-1c0-.4-.3-.7-1-.8l-.8-.2c-.8-.2-1.5-.5-1.5-1.5c0-1 .9-1.6 2-1.6c1.3 0 2 .9 2 1.8h-.7c-.1-.6-.5-1.2-1.3-1.2h-.1c-.8 0-1.2.5-1.2 1c0 .4.3.7 1 .8l.9.2c.7.2 1.4.5 1.4 1.5c0 1-.8 1.6-2 1.6c-1.5 0-2.2-.7-2.2-1.7zm5.7 3.8v-7.7h.7s-.02.89 0 .9c.3-.6 1.1-1 1.8-1c1.5 0 2.5 1.1 2.5 2.9c0 1.7-1 2.8-2.5 2.8c-.7 0-1.5-.4-1.8-1c-.02.03 0 3.1 0 3.1h-.7zm2.5-2.7c1.2 0 1.7-1.1 1.7-2.2c0-1.2-.5-2.3-1.7-2.3h-.1c-1.1 0-1.7 1.1-1.7 2.3c0 1.1.6 2.2 1.7 2.2h.1zm3.6-2.3c0-1.9 1.2-2.8 2.5-2.8c1.3 0 2.2 1.1 2.2 2.5v.4s-3.95.02-4 0c.1 1.6.9 2.2 1.8 2.2c.8 0 1.3-.3 1.5-1.1h.7c-.2 1.1-1.1 1.7-2.2 1.7c-1.4 0-2.5-1-2.5-2.9zm4-.5c0-1-.6-1.7-1.5-1.7h-.1c-.7 0-1.5.4-1.6 1.7h3.2zm1.9.6c0-1.7.9-2.9 2.5-2.9c1.2 0 2 .7 2.1 1.9h-.7c-.1-.8-.6-1.3-1.3-1.3h-.2c-1.2 0-1.7 1.1-1.7 2.3c0 1.2.5 2.2 1.7 2.2h.2c.7 0 1.2-.5 1.3-1.2h.7c-.2 1.1-.9 1.8-2.1 1.8c-1.6 0-2.5-1.2-2.5-2.8zm7.7 2.7c-.7 0-1-.3-1-1c-.03.02 0-3.9 0-3.9h-1.3v-.6h1.3v-1.8h.7v1.8h1.4v.6h-1.4v3.9c0 .3.1.4.4.4c.03.01 1.1 0 1.1 0v.6h-1.2zm2-1.6h.7c.1.7.7 1.1 1.5 1.1h.1c.7 0 1.2-.4 1.2-1c0-.4-.2-.7-1-.8l-.8-.2c-.8-.2-1.5-.5-1.5-1.5c0-1 1-1.6 2-1.6c1.4 0 2 .9 2.1 1.8h-.7c-.1-.6-.6-1.2-1.3-1.2h-.1c-.8 0-1.2.5-1.2 1c0 .4.2.7 1 .8l.8.2c.8.2 1.4.5 1.4 1.5c0 1-.8 1.6-2 1.6c-1.4 0-2.1-.7-2.2-1.7zm5.3 2.9v-.5s.3.04.3 0c.4 0 .7-.2.7-.6c-.04-.02 0-.2 0-.2h-.6v-1.1h1.1s-.05 1.33 0 1.3c0 .7-.4 1.1-1.1 1.1c.01-.02-.4 0-.4 0zm5.9-1.3v-4.9h-1.2v-.6h1.2s.02-1.2 0-1.2c0-.7.4-1 1.1-1c-.04.01 3.3 0 3.3 0v7.7h-.7v-7.1s-2.53.02-2.5 0c-.4 0-.5.1-.5.5c.03-.04 0 1.1 0 1.1h1.5v.6H151v4.9h-.7zm5.9-2.7c0-1.7 1.1-2.9 2.5-2.9c1.4 0 2.5 1.2 2.5 2.9c0 1.7-1.1 2.8-2.5 2.8c-1.4 0-2.5-1.1-2.5-2.8zm2.6 2.2c.9 0 1.7-.8 1.7-2.2c0-1.4-.8-2.3-1.7-2.3h-.2c-.9 0-1.7.9-1.7 2.3c0 1.4.8 2.2 1.7 2.2h.2zm3.6-2.2c0-1.7 1.1-2.9 2.5-2.9c1.4 0 2.5 1.2 2.5 2.9c0 1.7-1.1 2.8-2.5 2.8c-1.4 0-2.5-1.1-2.5-2.8zm2.5 2.2c1 0 1.8-.8 1.8-2.2c0-1.4-.8-2.3-1.8-2.3h-.1c-1 0-1.7.9-1.7 2.3c0 1.4.7 2.2 1.7 2.2h.1zm3.6-2.2c0-1.8 1.1-2.9 2.5-2.9c.7 0 1.5.4 1.8 1c.03-.01 0-3.1 0-3.1h.7v7.7h-.7s.03-.87 0-.9c-.3.6-1.1 1-1.8 1c-1.4 0-2.5-1.1-2.5-2.8zm2.6 2.2c1.2 0 1.7-1.1 1.7-2.2c0-1.2-.5-2.3-1.7-2.3h-.1c-1.2 0-1.7 1.1-1.7 2.3c0 1.1.5 2.2 1.7 2.2h.1zm4.1-6v-.9h.9v.9h-.9zm.1 6.5v-5.5h.7v5.5h-.7zm2.4 0v-5.5h.7s.04.93 0 .9c.4-.6 1.1-1 2-1c1.1 0 1.9.7 1.9 2c-.01.01 0 3.6 0 3.6h-.7s-.03-3.37 0-3.4c0-1.1-.5-1.6-1.3-1.6h-.1c-1.2 0-1.8 1.1-1.8 2.3c.04-.04 0 2.7 0 2.7h-.7zm5.9.8h.7c.1.7.7 1 1.7 1h.1c.9 0 1.8-.5 1.8-1.9v-.9c-.4.6-1 1-1.9 1c-1.3 0-2.3-1-2.3-2.7c0-1.8 1-2.9 2.3-2.9c.9 0 1.5.4 1.9 1c-.03-.01 0-.9 0-.9h.7s-.02 5.47 0 5.5c0 1.4-1 2.4-2.6 2.4c-1.6 0-2.3-.7-2.4-1.6zm2.6-1.4c1 0 1.7-.8 1.7-2.1c0-1.4-.7-2.3-1.7-2.3h-.1c-1 0-1.7.9-1.7 2.3c0 1.3.7 2.1 1.7 2.1h.1zm7.9.6c-.7 0-1-.3-1-1v-3.9h-1.3v-.6h1.3v-1.8h.7v1.8h1.4v.6h-1.4v3.9c0 .3.1.4.4.4c.04.01 1.1 0 1.1 0v.6h-1.2zm2.4 0v-7.7h.7v3.1c.4-.6 1.1-1 2-1c1.2 0 1.8.8 1.8 2c.05-.02 0 3.6 0 3.6h-.7s.03-3.4 0-3.4c0-1.1-.4-1.6-1.3-1.6h-.1c-.8 0-1.7.8-1.7 2v3h-.7zm5.9-2.8c0-1.9 1.2-2.8 2.5-2.8c1.3 0 2.2 1.1 2.2 2.5c.02-.02 0 .4 0 .4c0 0-3.94.02-3.9 0c0 1.6.8 2.2 1.7 2.2h.1c.7 0 1.2-.3 1.4-1.1h.7c-.2 1.1-1.1 1.7-2.2 1.7c-1.4 0-2.5-1-2.5-2.9zm4-.5c0-1-.6-1.7-1.5-1.7h-.1c-.7 0-1.5.4-1.6 1.7h3.2zm2.2 3.3v-5.5h.7v.9c.3-.6 1-1 1.8-1c.8 0 1.5.4 1.8 1.2c.3-.8 1-1.2 1.9-1.2c1.1 0 1.9.7 1.9 2c-.03.01 0 3.6 0 3.6h-.7s-.04-3.37 0-3.4c0-1.1-.5-1.6-1.3-1.6h-.1c-1.1 0-1.6 1.1-1.6 2.3v2.7h-.7s-.03-3.37 0-3.4c0-1.1-.4-1.6-1.3-1.6h-.1c-1.1 0-1.6 1.1-1.6 2.3v2.7h-.7zm18.6-5.5h.7l-1.8 5.5h-.9l-1.3-4.7l-1.2 4.7h-1l-1.7-5.5h.7l1.5 4.9l1.3-4.9h.9l1.3 4.9l1.5-4.9zm1.8-1v-.9h.8v.9h-.8zm0 6.5v-5.5h.7v5.5h-.7zm4.2 0c-.8 0-1.1-.3-1.1-1v-3.9h-1.3v-.6h1.3v-1.8h.7v1.8h1.4v.6h-1.4s.03 3.87 0 3.9c0 .3.1.4.5.4c-.03.01 1.1 0 1.1 0v.6h-1.2zm2.3 0v-7.7h.7s.02 3.15 0 3.1c.4-.6 1.1-1 2-1c1.2 0 1.9.8 1.9 2c-.03-.02 0 3.6 0 3.6h-.7s-.04-3.4 0-3.4c0-1.1-.5-1.6-1.4-1.6h-.1c-.8 0-1.7.8-1.7 2c.02.04 0 3 0 3h-.7zm8.5 0v-5.5h.7s-.01.93 0 .9c.3-.6 1-1 1.9-1c1.1 0 1.9.7 1.9 2c.04.01 0 3.6 0 3.6h-.7s.03-3.37 0-3.4c0-1.1-.4-1.6-1.3-1.6h-.1c-1.2 0-1.7 1.1-1.7 2.3v2.7h-.7zm5.9-1.5c0-1.2 1.1-1.6 1.9-1.7c.02.04 1.8-.1 1.8-.1c0 0-.04-.21 0-.2c0-1-.6-1.5-1.4-1.5h-.1c-.7 0-1.3.4-1.3 1.1h-.8c.1-1 1-1.7 2.1-1.7c1.5 0 2.2 1 2.2 2.1v3.5h-.6c-.1-.2-.1-.6-.1-.9c-.2.5-1 1-1.9 1c-1 0-1.8-.7-1.8-1.6zm2 1c.7 0 1.7-.7 1.7-1.5c-.04.03 0-.7 0-.7l-1.6.1c-.8.1-1.4.4-1.4 1c0 .7.5 1.1 1.1 1.1h.2zm5.6.5c-.7 0-1-.3-1-1c-.04.02 0-3.9 0-3.9h-1.3v-.6h1.3v-1.8h.7v1.8h1.4v.6h-1.4s-.02 3.87 0 3.9c0 .3.1.4.4.4c.02.01 1.1 0 1.1 0v.6h-1.2zm2.2-1.9c.04.04 0-3.6 0-3.6h.8s-.04 3.42 0 3.4c0 1.1.4 1.6 1.3 1.6h.1c.8 0 1.6-.7 1.6-2c-.02-.02 0-3 0-3h.7v5.5h-.7s-.02-1.02 0-1c-.3.7-1 1.1-1.9 1.1c-1.2 0-1.9-.8-1.9-2zm6.2 1.9v-5.5h.7v1.3c.2-.9.9-1.3 1.7-1.3c0-.04.5 0 .5 0v.6s-.45.02-.4 0c-1.1 0-1.8.9-1.8 2.2c.05.04 0 2.7 0 2.7h-.7zm3.7-1.5c0-1.2 1-1.6 1.9-1.7c-.03.04 1.7-.1 1.7-.1v-.2c0-1-.5-1.5-1.4-1.5c-.7 0-1.3.4-1.4 1.1h-.7c.1-1 .9-1.7 2.1-1.7c1.4 0 2.1 1 2.1 2.1v2.3c0 .3 0 .8.1 1.2h-.7v-.9c-.3.5-1 1-2 1c-.9 0-1.7-.7-1.7-1.6zm1.9 1c.8 0 1.7-.7 1.7-1.5v-.7l-1.6.1c-.8.1-1.3.4-1.3 1c0 .7.5 1.1 1.1 1.1h.1zm4.1.5v-7.7h.7v7.7h-.7z" stroke="none" fill="#192d39"/></g><g id="Polygon16989"><path d="m18.9 153.3l-.9-2.2h-3.9l-.9 2.2h-.7l3.1-7.7h1l3.1 7.7h-.8zm-4.5-2.9h3.4l-1.7-4.1l-1.7 4.1zm6.4 2.9v-7.7h.7v7.7h-.7zm2.5 0v-7.7h.7v7.7h-.7zm6.1-7.7h.5v7.7h-.7v-6.6l-1.8 1.7v-.9l2-1.9zm2.1 8.9v-.4h.3c.4 0 .7-.2.7-.7c-.03.03 0-.1 0-.1h-.6v-1.1h1.1s-.04 1.28 0 1.3c0 .6-.4 1-1.1 1c.02.03-.4 0-.4 0zm6.8-8.9h.5v7.7h-.7v-6.6l-1.8 1.7v-.9l2-1.9zm4.3 7.5v-2.3h-2.3v-.7h2.3v-2.3h.7v2.3h2.4v.7h-2.4v2.3h-.7zm11.3-7.5h1.2v7.7h-.7v-7.1l-2.7 7.1h-1.1l-2.7-7.1v7.1h-.7v-7.7h1.3l2.7 7.1l2.7-7.1zm3.3 7.7v-7.7s3.11-.04 3.1 0c1.3 0 2.4.8 2.4 2.2c0 1.5-1.1 2.3-2.4 2.3H58v3.2h-.8zm.8-3.9s2.14-.02 2.1 0c1.1 0 1.9-.5 1.9-1.6c0-1-.8-1.5-1.9-1.5c.04-.02-2.1 0-2.1 0v3.1zm6.1 3.9v-7.7s3.16-.04 3.2 0c1.3 0 2.3.8 2.3 2c0 .9-.5 1.6-1.2 1.9c.8 0 1.1.3 1.1 1v2.8h-.8s.03-2.79 0-2.8c0-.3-.1-.5-.5-.5c.04.02-3.3 0-3.3 0v3.3h-.8zm.8-4h2.2c.9 0 1.7-.6 1.7-1.6c0-.9-.6-1.4-1.7-1.4c.05-.02-2.2 0-2.2 0v3zm6.1 5.2v-.4h.3c.5 0 .7-.2.7-.7v-.1h-.6v-1.1h1.1v1.3c0 .6-.4 1-1.1 1c.04.03-.4 0-.4 0zm6-2h4v.8h-5v-.8s3.11-3.14 3.1-3.1c.9-.9 1-1.3 1-1.9c0-.7-.6-1.3-1.5-1.3h-.1c-1 0-1.6.6-1.7 1.6h-.7c0-1.4 1-2.3 2.4-2.3c1.4 0 2.4.8 2.4 2c0 .9-.5 1.5-1.1 2.2c-.04.01-2.8 2.8-2.8 2.8zm6.9.6v-2.3h-2.4v-.7h2.4v-2.3h.7v2.3h2.4v.7h-2.4v2.3h-.7zm11.2-7.5h1.3v7.7h-.8v-7.1l-2.6 7.1h-1.1l-2.7-7.1v7.1h-.8v-7.7h1.3l2.7 7.1l2.7-7.1zm3.4 7.7v-7.7s3.08-.04 3.1 0c1.3 0 2.4.8 2.4 2.2c0 1.5-1.1 2.3-2.4 2.3h-2.3v3.2h-.8zm.8-3.9s2.11-.02 2.1 0c1.1 0 1.8-.5 1.8-1.6c0-1-.7-1.5-1.8-1.5c.01-.02-2.1 0-2.1 0v3.1zm6.1 3.9v-7.7s3.12-.04 3.1 0c1.4 0 2.4.8 2.4 2c0 .9-.5 1.6-1.2 1.9c.8 0 1.1.3 1.1 1c-.03.01 0 2.8 0 2.8h-.8v-2.8c0-.3-.2-.5-.5-.5c0 .02-3.4 0-3.4 0v3.3h-.7zm.7-4h2.3c.9 0 1.7-.6 1.7-1.6c0-.9-.6-1.4-1.7-1.4c.01-.02-2.3 0-2.3 0v3zm6.2 5.2v-.4h.3c.4 0 .7-.2.7-.7c-.04.03 0-.1 0-.1h-.6v-1.1h1.1s-.04 1.28 0 1.3c0 .6-.4 1-1.1 1c.01.03-.4 0-.4 0zm5-3.2h.7c.2.9.8 1.4 1.7 1.4h.2c.9 0 1.7-.6 1.7-1.5c0-.9-.8-1.4-1.7-1.4c.01-.03-.5 0-.5 0v-.7s.6-.04.6 0c.9 0 1.5-.7 1.5-1.4c0-1-.7-1.5-1.6-1.5h-.1c-.9 0-1.6.6-1.6 1.3h-.8c.1-1.2 1.1-2 2.4-2c1.4 0 2.5.7 2.5 2.1c0 .8-.6 1.5-1.3 1.8c.7.2 1.3.9 1.3 1.8c0 1.4-1.2 2.2-2.5 2.2c-1.5 0-2.4-.8-2.5-2.1zm10.6 2c-1.1 0-2.1-.8-2.1-2.1c0-.9.5-1.6 1.3-1.8c-.7-.3-1.2-.9-1.2-1.9c0-1.2 1-1.9 2.1-1.9c.01-.04 1.4 0 1.4 0v.7s-1.31-.02-1.3 0c-.8 0-1.5.5-1.5 1.4c0 .8.7 1.3 1.6 1.3c-.05-.01 1.7 0 1.7 0v-1.4h.8v1.4h1.2v.7h-1.2v3.6s-2.79-.04-2.8 0zm2-.8v-2.8s-1.75.01-1.7 0c-.9 0-1.6.5-1.6 1.4c0 .9.7 1.4 1.6 1.4c-.03.05 1.7 0 1.7 0zm8.7.8v-1.9h-3.8v-.8l3.7-5h.8v5.1h1.3v.7h-1.3v1.9h-.7zm-3.1-2.6h3.1v-4.3l-3.1 4.3zm6.2-.5v-.6h2.7v.6h-2.7zm4.9 2.2c-.01-.02 0 .9 0 .9h-.7v-7.7h.7v3c.3-.6 1.1-.9 1.8-.9c1.5 0 2.5 1.1 2.5 2.8c0 1.8-1 2.9-2.5 2.9c-.7 0-1.5-.4-1.8-1zm1.8.4c1.2 0 1.8-1.1 1.8-2.3c0-1.2-.6-2.2-1.8-2.2h-.1c-1.1 0-1.7 1-1.7 2.2c0 1.2.6 2.3 1.7 2.3h.1zm3.6-2.3c0-1.9 1.2-2.8 2.5-2.8c1.3 0 2.2 1 2.2 2.4v.5s-3.95-.03-3.9 0c0 1.5.8 2.2 1.7 2.2c.8 0 1.3-.4 1.5-1.1h.7c-.2 1.1-1.1 1.7-2.2 1.7c-1.4 0-2.5-1-2.5-2.9zm4-.5c0-1-.6-1.7-1.5-1.7h-.1c-.7 0-1.5.4-1.6 1.7h3.2zm1.9.5c0-1.7 1-2.8 2.4-2.8c.7 0 1.5.3 1.9.9c-.03.04 0-3 0-3h.7v7.7h-.7s-.03-.92 0-.9c-.4.6-1.2 1-1.9 1c-1.4 0-2.4-1.1-2.4-2.9zm2.5 2.3c1.2 0 1.8-1.1 1.8-2.3c0-1.2-.6-2.2-1.8-2.2c-1.2 0-1.8 1-1.8 2.2c0 1.2.6 2.3 1.8 2.3zm6.1-1.1c0-1.2 1.1-1.5 1.9-1.6l1.8-.1s-.04-.26 0-.3c0-.9-.6-1.4-1.4-1.4h-.1c-.7 0-1.3.3-1.4 1h-.7c.1-1 1-1.6 2.1-1.6c1.5 0 2.2.9 2.2 2v3.6h-.6c-.1-.3-.1-.6-.1-.9c-.2.5-1 1-1.9 1c-1 0-1.8-.7-1.8-1.7zm1.9 1.1c.8 0 1.8-.7 1.8-1.5c-.04-.02 0-.8 0-.8c0 0-1.64.15-1.6.2c-.8 0-1.4.4-1.4 1c0 .6.5 1.1 1.1 1.1h.1zm4.2 2.7v-7.7h.7s-.03.84 0 .8c.3-.6 1.1-.9 1.8-.9c1.4 0 2.5 1.1 2.5 2.8c0 1.8-1.1 2.9-2.5 2.9c-.7 0-1.5-.4-1.8-1c-.03-.02 0 3.1 0 3.1h-.7zm2.5-2.7c1.2 0 1.7-1.1 1.7-2.3c0-1.2-.5-2.2-1.7-2.2h-.1c-1.2 0-1.7 1-1.7 2.2c0 1.2.5 2.3 1.7 2.3h.1zm3.6-1.1c0-1.2 1-1.5 1.9-1.6c-.03-.01 1.7-.1 1.7-.1v-.3c0-.9-.5-1.4-1.4-1.4c-.7 0-1.3.3-1.4 1h-.7c.1-1 .9-1.6 2.1-1.6c1.4 0 2.1.9 2.1 2v2.4c0 .3 0 .8.1 1.2h-.7v-.9c-.3.5-1 1-2 1c-1 0-1.7-.7-1.7-1.7zm1.9 1.1c.8 0 1.7-.7 1.7-1.5v-.8s-1.58.15-1.6.2c-.8 0-1.3.4-1.3 1c0 .6.5 1.1 1.1 1.1h.1zm4.1.5v-5.5h.7s-.03 1.21 0 1.2c.2-.9.9-1.3 1.7-1.3h.5v.7s-.47-.03-.5 0c-1 0-1.7.8-1.7 2.2c.03-.01 0 2.7 0 2.7h-.7zm5.9 0c-.7 0-1-.3-1-1v-3.9h-1.3v-.6h1.3V146h.7v1.8h1.4v.6h-1.4v3.8c0 .3.1.5.5.5c-.05-.04 1.1 0 1.1 0v.6s-1.26-.04-1.3 0zm2.4 0v-5.5h.7v.8c.3-.5 1-.9 1.8-.9c.8 0 1.5.3 1.8 1.1c.3-.7 1-1.1 1.9-1.1c1.1 0 1.9.6 1.9 2c-.03-.04 0 3.6 0 3.6h-.7s-.04-3.42 0-3.4c0-1.1-.5-1.6-1.3-1.6h-.1c-1.1 0-1.6 1-1.6 2.2v2.8h-.7s-.03-3.42 0-3.4c0-1.1-.4-1.6-1.3-1.6h-.1c-1.1 0-1.6 1-1.6 2.2v2.8h-.7zm9.5-2.8c0-1.9 1.2-2.8 2.4-2.8c1.4 0 2.3 1 2.3 2.4c-.04.03 0 .5 0 .5c0 0-4-.03-4 0c0 1.5.8 2.2 1.7 2.2h.1c.7 0 1.2-.4 1.4-1.1h.7c-.2 1.1-1 1.7-2.2 1.7c-1.3 0-2.4-1-2.4-2.9zm3.9-.5c0-1-.5-1.7-1.4-1.7h-.1c-.7 0-1.5.4-1.7 1.7h3.2zm2.2 3.3v-5.5h.7s.04.88 0 .9c.4-.6 1.1-1 2-1c1.1 0 1.9.6 1.9 2c-.01-.04 0 3.6 0 3.6h-.7s-.02-3.42 0-3.4c0-1.1-.5-1.6-1.3-1.6h-.1c-1.2 0-1.8 1-1.8 2.2c.04.01 0 2.8 0 2.8h-.7zm7.9 0c-.8 0-1.1-.3-1.1-1v-3.9h-1.3v-.6h1.3V146h.7v1.8h1.4v.6h-1.4s.03 3.82 0 3.8c0 .3.1.5.5.5c-.03-.04 1.1 0 1.1 0v.6s-1.24-.04-1.2 0zm2-1.7h.7c0 .8.6 1.2 1.4 1.2h.1c.8 0 1.2-.4 1.2-1c0-.5-.2-.7-.9-.9l-.8-.1c-.8-.2-1.5-.6-1.5-1.5c0-1.1.9-1.6 1.9-1.6c1.4 0 2.1.8 2.1 1.7h-.7c-.1-.6-.5-1.1-1.3-1.1h-.1c-.8 0-1.2.4-1.2.9c0 .5.3.7 1 .9l.9.2c.7.1 1.4.5 1.4 1.4c0 1.1-.8 1.7-2.1 1.7c-1.4 0-2.1-.8-2.1-1.8zm7.5-1.1c0-1.9 1.2-2.8 2.5-2.8c1.3 0 2.2 1 2.2 2.4c-.02.03 0 .5 0 .5c0 0-3.98-.03-4 0c0 1.5.8 2.2 1.7 2.2h.1c.8 0 1.2-.4 1.5-1.1h.7c-.3 1.1-1.1 1.7-2.2 1.7c-1.4 0-2.5-1-2.5-2.9zm4-.5c-.1-1-.6-1.7-1.5-1.7h-.1c-.7 0-1.5.4-1.7 1.7h3.3zm2.1 3.3v-5.5h.8s-.04.88 0 .9c.3-.6 1-1 1.9-1c1.1 0 1.9.6 1.9 2c.01-.04 0 3.6 0 3.6h-.7s-.01-3.42 0-3.4c0-1.1-.4-1.6-1.3-1.6h-.1c-1.2 0-1.7 1-1.7 2.2c-.04.01 0 2.8 0 2.8h-.8zm6.3-6.5v-1h.8v1h-.8zm-1.8 8.3v-.6s1.39-.03 1.4 0c.3 0 .4-.1.4-.5c.03.03 0-6.2 0-6.2h.7s.04 6.29 0 6.3c0 .7-.3 1-1 1c0-.02-1.5 0-1.5 0zm3.9-4.6c0-1.7 1.2-2.8 2.6-2.8c1.4 0 2.5 1.1 2.5 2.8c0 1.7-1.1 2.9-2.5 2.9c-1.4 0-2.6-1.2-2.6-2.9zm2.6 2.3c1 0 1.8-.9 1.8-2.3c0-1.4-.8-2.2-1.8-2.2h-.1c-1 0-1.7.8-1.7 2.2c0 1.4.7 2.3 1.7 2.3h.1zm8.4-5l-2.3 5.3s.05 1.02 0 1c0 .7-.3 1-1 1c0-.02-1.7 0-1.7 0v-.6s1.59-.03 1.6 0c.3 0 .4-.1.4-.5c.03.03 0-.9 0-.9l-2.3-5.3h.8l1.9 4.4l1.9-4.4h.7zm2.9 2.7c0-1.6.9-2.8 2.5-2.8c1.2 0 2.1.7 2.2 1.8h-.7c-.1-.7-.7-1.2-1.4-1.2h-.1c-1.2 0-1.8 1-1.8 2.2c0 1.2.6 2.3 1.8 2.3h.1c.7 0 1.2-.6 1.4-1.3h.7c-.2 1.1-1 1.9-2.2 1.9c-1.6 0-2.5-1.3-2.5-2.9zm5.8 0c0-1.7 1.1-2.8 2.5-2.8c1.4 0 2.5 1.1 2.5 2.8c0 1.7-1.1 2.9-2.5 2.9c-1.4 0-2.5-1.2-2.5-2.9zm2.5 2.3c1 0 1.8-.9 1.8-2.3c0-1.4-.8-2.2-1.8-2.2h-.1c-1 0-1.7.8-1.7 2.2c0 1.4.7 2.3 1.7 2.3h.1zm3.9.5v-5.5h.7v1.2c.3-.9.9-1.3 1.7-1.3h.5v.7s-.44-.03-.4 0c-1.1 0-1.7.8-1.7 2.2c-.04-.01 0 2.7 0 2.7h-.8zm4 0v-5.5h.7s.04.88 0 .9c.4-.6 1.1-1 2-1c1.1 0 1.9.6 1.9 2c-.01-.04 0 3.6 0 3.6h-.7s-.03-3.42 0-3.4c0-1.1-.5-1.6-1.3-1.6h-.1c-1.2 0-1.8 1-1.8 2.2c.04.01 0 2.8 0 2.8h-.7zm6-2.8c0-1.9 1.2-2.8 2.4-2.8c1.4 0 2.3 1 2.3 2.4c-.04.03 0 .5 0 .5c0 0-4-.03-4 0c0 1.5.8 2.2 1.7 2.2h.1c.7 0 1.2-.4 1.4-1.1h.7c-.2 1.1-1 1.7-2.2 1.7c-1.3 0-2.4-1-2.4-2.9zm3.9-.5c0-1-.5-1.7-1.4-1.7h-.1c-.7 0-1.5.4-1.7 1.7h3.2zm2.2 3.3v-5.5h.7v1.2c.2-.9.9-1.3 1.7-1.3h.5v.7s-.45-.03-.5 0c-1 0-1.7.8-1.7 2.2c.04-.01 0 2.7 0 2.7h-.7z" stroke="none" fill="#192d39"/></g><g id="Polygon16988"><path d="m12.8 121.4h.8c0 1.2.9 1.8 2.2 1.8h.1c1.2 0 1.8-.6 1.8-1.4c0-.7-.4-1.1-1.4-1.3l-1.2-.3c-1.2-.2-1.9-.9-1.9-2c0-1.2 1-2.2 2.7-2.2c1.6 0 2.6.9 2.7 2.4h-.8c0-1-.8-1.7-1.9-1.7h-.1c-1.1 0-1.8.7-1.8 1.5c0 .7.5 1.1 1.3 1.2l1.2.3c1.3.2 2 .9 2 2c0 1.4-1 2.2-2.7 2.2c-1.9 0-3-.9-3-2.5zm12.1-3.1l-2.2 5.3s-.03 1.08 0 1.1c0 .6-.4.9-1.1.9c.02.03-1.6 0-1.6 0v-.6s1.51.03 1.5 0c.3 0 .5-.1.5-.4c-.05-.01 0-.9 0-.9l-2.4-5.4h.8l1.9 4.5l1.9-4.5h.7zm.6 2.8c0-1.8 1-2.9 2.5-2.9c.7 0 1.5.4 1.8 1v-3.1h.7v7.7h-.7s-.01-.86 0-.9c-.3.6-1.1 1-1.8 1c-1.5 0-2.5-1.1-2.5-2.8zm2.5 2.2c1.2 0 1.8-1 1.8-2.2c0-1.2-.6-2.3-1.8-2.3c-1.2 0-1.8 1.1-1.8 2.3c0 1.2.6 2.2 1.8 2.2zm4.2.5v-5.5h.8s-.04.94 0 .9c.3-.6 1-1 1.9-1c1.1 0 1.9.7 1.9 2c.01.02 0 3.6 0 3.6h-.7s-.01-3.36 0-3.4c0-1.1-.4-1.6-1.3-1.6h-.1c-1.2 0-1.7 1.1-1.7 2.3c-.04-.03 0 2.7 0 2.7h-.8zm6-2.7c0-2 1.2-2.9 2.5-2.9c1.3 0 2.2 1.1 2.2 2.5c-.02-.02 0 .4 0 .4c0 0-3.98.02-4 0c0 1.6.8 2.2 1.7 2.2h.1c.8 0 1.2-.3 1.5-1.1h.7c-.3 1.1-1.1 1.7-2.2 1.7c-1.4 0-2.5-1-2.5-2.8zm4-.6c-.1-1-.6-1.7-1.5-1.7h-.1c-.7 0-1.5.4-1.7 1.7h3.3zm6.7-2.2l-2.3 5.3s-.01 1.08 0 1.1c0 .6-.3.9-1.1.9c.05.03-1.6 0-1.6 0v-.6s1.54.03 1.5 0c.4 0 .5-.1.5-.4c-.02-.01 0-.9 0-.9l-2.4-5.4h.8l1.9 4.5l1.9-4.5h.8zm2.9 1.7c0-2.3 1.3-4 3.5-4c1.7 0 2.9 1.1 3 2.5h-.8c-.1-.9-.7-1.8-2.1-1.8h-.1c-1.8 0-2.7 1.5-2.7 3.3c0 1.7.9 3.2 2.7 3.2h.1c1.4 0 2-.8 2.1-1.7h.8c-.1 1.4-1.3 2.4-3 2.4c-2.2 0-3.5-1.7-3.5-3.9zm8.1 3.8v-7.7s3.24.02 3.2 0c1.2 0 2.2.8 2.2 2c0 .9-.6 1.6-1.3 1.8c.6.1 1.4.6 1.4 1.8c0 1.3-1 2.1-2.2 2.1c.01.02-3.3 0-3.3 0zm.8-4.2s2.36-.04 2.4 0c.8 0 1.4-.5 1.4-1.4c0-.9-.6-1.4-1.4-1.4c-.04.03-2.4 0-2.4 0v2.8zm0 3.5h2.3c1 0 1.7-.5 1.7-1.4c0-1-.7-1.4-1.6-1.4c-.04-.02-2.4 0-2.4 0v2.8zm6.4.7v-7.7s2.68.02 2.7 0c2.1 0 3.4 1.5 3.4 3.9c0 2.4-1.3 3.8-3.4 3.8c-.02.02-2.7 0-2.7 0zm.8-.7h1.8c1.8 0 2.8-1.1 2.8-3.1c0-2-1-3.2-2.8-3.2c-.03.03-1.8 0-1.8 0v6.3zm8.6-.9h.7c.1.7.7 1.1 1.4 1.1h.1c.8 0 1.3-.4 1.3-1c0-.4-.2-.6-1-.8l-.8-.2c-.8-.2-1.5-.5-1.5-1.5c0-1 .9-1.6 2-1.6c1.4 0 2 .9 2.1 1.8h-.8c0-.6-.5-1.2-1.3-1.2h-.1c-.7 0-1.2.5-1.2 1c0 .5.3.7 1 .8l.9.2c.8.2 1.4.5 1.4 1.5c0 1-.8 1.6-2 1.6c-1.4 0-2.1-.7-2.2-1.7zm5.7 1.6v-7.7h.7v5.1l2.9-2.9h1l-2.3 2.2l2.4 3.3h-.9l-2-2.8l-1.1 1.1v1.7h-.7zm10.8-5.5l-2.3 5.3v1.1c0 .6-.3.9-1 .9c-.04.03-1.7 0-1.7 0v-.6s1.55.03 1.5 0c.4 0 .5-.1.5-.4c-.01-.01 0-.9 0-.9l-2.3-5.4h.7l1.9 4.5l1.9-4.5h.8zm1.1 5.5v-7.7h.7v7.7h-.7zm2.4-6.5v-.9h.8v.9h-.8zm0 6.5v-5.5h.7v5.5h-.7zm2.4 0v-5.5h.8s-.04.94 0 .9c.3-.6 1-1 1.9-1c1.1 0 1.9.7 1.9 2c.01.02 0 3.6 0 3.6h-.7v-3.4c0-1.1-.4-1.6-1.3-1.6h-.1c-1.2 0-1.7 1.1-1.7 2.3c-.04-.03 0 2.7 0 2.7h-.8zm6-2.7c0-2 1.2-2.9 2.5-2.9c1.3 0 2.2 1.1 2.2 2.5v.4s-3.97.02-4 0c0 1.6.9 2.2 1.8 2.2c.8 0 1.3-.3 1.5-1.1h.7c-.3 1.1-1.1 1.7-2.2 1.7c-1.4 0-2.5-1-2.5-2.8zm4-.6c-.1-1-.6-1.7-1.5-1.7h-.1c-.7 0-1.5.4-1.7 1.7h3.3zm6.2 3.3c-1.2 0-2.1-.7-2.1-2c0-.9.5-1.6 1.3-1.9c-.8-.3-1.3-.9-1.3-1.8c0-1.3 1-2 2.2-2c-.05.02 1.3 0 1.3 0v.7s-1.27.03-1.3 0c-.7 0-1.4.5-1.4 1.4c0 .8.6 1.4 1.5 1.4c0-.05 1.8 0 1.8 0v-1.4h.7v1.4h1.3v.7h-1.3v3.5s-2.75.02-2.7 0zm2-.7v-2.8s-1.8-.04-1.8 0c-.9 0-1.6.4-1.6 1.3c0 1 .7 1.5 1.6 1.5h1.8zm5-1.7h.7c0 1.2.9 1.8 2.2 1.8h.1c1.2 0 1.9-.6 1.9-1.4c0-.7-.5-1.1-1.5-1.3l-1.2-.3c-1.2-.2-1.8-.9-1.8-2c0-1.2 1-2.2 2.6-2.2c1.6 0 2.7.9 2.7 2.4h-.7c-.1-1-.9-1.7-1.9-1.7h-.2c-1 0-1.8.7-1.8 1.5c0 .7.5 1.1 1.3 1.2l1.2.3c1.3.2 2 .9 2 2c0 1.4-1 2.2-2.7 2.2c-1.8 0-2.9-.9-2.9-2.5zm12.1-3.1l-2.3 5.3s.01 1.08 0 1.1c0 .6-.3.9-1 .9c-.03.03-1.7 0-1.7 0v-.6s1.56.03 1.6 0c.3 0 .4-.1.4-.4v-.9l-2.3-5.4h.7l1.9 4.5l1.9-4.5h.8zm.5 2.8c0-1.8 1.1-2.9 2.5-2.9c.7 0 1.5.4 1.8 1c.04 0 0-3.1 0-3.1h.7v7.7h-.7s.04-.86 0-.9c-.3.6-1.1 1-1.8 1c-1.4 0-2.5-1.1-2.5-2.8zm2.6 2.2c1.2 0 1.7-1 1.7-2.2c0-1.2-.5-2.3-1.7-2.3h-.1c-1.2 0-1.7 1.1-1.7 2.3c0 1.2.5 2.2 1.7 2.2h.1zm4.2.5v-5.5h.7v.9c.3-.6 1-1 1.9-1c1.1 0 1.9.7 1.9 2c.05.02 0 3.6 0 3.6h-.7s.03-3.36 0-3.4c0-1.1-.4-1.6-1.3-1.6h-.1c-1.1 0-1.7 1.1-1.7 2.3v2.7h-.7zm5.9-2.7c0-2 1.2-2.9 2.5-2.9c1.3 0 2.2 1.1 2.2 2.5c.02-.02 0 .4 0 .4c0 0-3.94.02-3.9 0c0 1.6.8 2.2 1.7 2.2h.1c.7 0 1.2-.3 1.4-1.1h.7c-.2 1.1-1.1 1.7-2.2 1.7c-1.4 0-2.5-1-2.5-2.8zm4-.6c0-1-.6-1.7-1.5-1.7h-.1c-.7 0-1.5.4-1.6 1.7h3.2zm6.7-2.2l-2.3 5.3s.04 1.08 0 1.1c0 .6-.3.9-1 .9c-.01.03-1.7 0-1.7 0v-.6s1.58.03 1.6 0c.3 0 .4-.1.4-.4c.02-.01 0-.9 0-.9l-2.3-5.4h.8l1.9 4.5l1.9-4.5h.7zm3.4 5.5v-7.7h.8v3.5h4.3v-3.5h.8v7.7h-.8v-3.5h-4.3v3.5h-.8zm7.5-1.5c0-1.2 1.1-1.6 1.9-1.6c.03-.05 1.8-.2 1.8-.2c0 0-.03-.2 0-.2c0-.9-.6-1.5-1.4-1.5h-.1c-.7 0-1.3.4-1.3 1.1h-.8c.1-1 1-1.7 2.2-1.7c1.4 0 2.1 1 2.1 2.1v3.5h-.6c-.1-.2-.1-.6-.1-.9c-.2.5-1 1-1.9 1c-1 0-1.8-.7-1.8-1.6zm2 1c.7 0 1.7-.6 1.7-1.5c-.03.04 0-.7 0-.7l-1.6.1c-.8.1-1.4.5-1.4 1.1c0 .6.5 1 1.2 1h.1zm4.1.5v-5.5h.6s.03 1.27 0 1.3c.3-.9 1-1.3 1.7-1.3c.03-.04.5 0 .5 0v.6s-.41.02-.4 0c-1.1 0-1.7.9-1.7 2.2c-.02.04 0 2.7 0 2.7h-.7zm4.7-.9c-.04.04 0 .9 0 .9h-.7v-7.7h.7s-.04 3.1 0 3.1c.3-.6 1.1-1 1.8-1c1.4 0 2.5 1.1 2.5 2.9c0 1.7-1.1 2.8-2.5 2.8c-.7 0-1.5-.4-1.8-1zm1.8.4c1.2 0 1.7-1 1.7-2.2c0-1.2-.5-2.3-1.7-2.3h-.1c-1.2 0-1.7 1.1-1.7 2.3c0 1.2.5 2.2 1.7 2.2h.1zm3.6-2.2c0-1.7 1.1-2.9 2.5-2.9c1.4 0 2.5 1.2 2.5 2.9c0 1.7-1.1 2.8-2.5 2.8c-1.4 0-2.5-1.1-2.5-2.8zm2.6 2.2c1 0 1.7-.8 1.7-2.2c0-1.4-.7-2.3-1.7-2.3h-.1c-1 0-1.8.9-1.8 2.3c0 1.4.8 2.2 1.8 2.2h.1zm3.8-1.4c.02.05 0-3.6 0-3.6h.7s.04 3.43 0 3.4c0 1.1.5 1.6 1.4 1.6h.1c.8 0 1.6-.7 1.6-2c-.04-.01 0-3 0-3h.7v5.5h-.7s-.04-1.02 0-1c-.3.7-1 1.1-1.9 1.1c-1.2 0-1.9-.8-1.9-2zm6.2 1.9v-5.5h.7s-.03 1.27 0 1.3c.2-.9.9-1.3 1.7-1.3c-.03-.04.5 0 .5 0v.6s-.47.02-.5 0c-1 0-1.7.9-1.7 2.2c.02.04 0 2.7 0 2.7h-.7zm3.2 0v-1.1h1.1v1.1H201z" stroke="none" fill="#192d39"/></g><g id="Polygon16987"><path d="m13.2 108.7V101h.8v7.7h-.8zm2.2-2.8c0-1.9 1.2-2.8 2.5-2.8c1.3 0 2.2 1 2.2 2.4c-.02.03 0 .5 0 .5c0 0-3.98-.03-4 0c0 1.5.8 2.2 1.7 2.2h.1c.8 0 1.2-.4 1.5-1.1h.7c-.3 1.1-1.1 1.7-2.2 1.7c-1.4 0-2.5-1-2.5-2.9zm4-.5c-.1-1-.6-1.7-1.5-1.7h-.1c-.7 0-1.5.4-1.7 1.7h3.3zm5.7-2.2h.8l-2.1 5.5h-.9l-2.1-5.5h.7l1.8 4.8l1.8-4.8zm1.4 2.7c0-1.9 1.2-2.8 2.4-2.8c1.4 0 2.3 1 2.3 2.4c-.03.03 0 .5 0 .5c0 0-3.99-.03-4 0c0 1.5.8 2.2 1.7 2.2h.1c.7 0 1.2-.4 1.4-1.1h.8c-.3 1.1-1.1 1.7-2.3 1.7c-1.3 0-2.4-1-2.4-2.9zm4-.5c-.1-1-.6-1.7-1.5-1.7h-.1c-.7 0-1.5.4-1.7 1.7h3.3zm2.1 3.3V101h.8v7.7h-.8zm5.3-.8h4.1v.8h-5v-.8s3.09-3.14 3.1-3.1c.9-.9 1-1.2 1-1.9c0-.7-.6-1.3-1.5-1.3h-.1c-1 0-1.7.6-1.7 1.6h-.7c0-1.4 1-2.3 2.4-2.3c1.4 0 2.4.8 2.4 2c0 .9-.5 1.5-1.2 2.2c.04.02-2.8 2.8-2.8 2.8zm5.2-1.2h.7c.2.9.8 1.4 1.7 1.4h.1c1 0 1.8-.6 1.8-1.5c0-.9-.8-1.4-1.7-1.4c-.01-.02-.5 0-.5 0v-.7s.58-.03.6 0c.9 0 1.5-.7 1.5-1.4c0-1-.7-1.5-1.7-1.5h-.1c-.8 0-1.5.6-1.6 1.3h-.7c.1-1.2 1-2 2.4-2c1.4 0 2.4.7 2.4 2.1c0 .8-.5 1.5-1.2 1.8c.7.2 1.3.9 1.3 1.8c0 1.5-1.2 2.2-2.5 2.2c-1.5 0-2.4-.8-2.5-2.1zm6.1 3.2v-.4h.4c.4 0 .6-.2.6-.7c.04.03 0-.1 0-.1h-.6v-1.1h1.1s.03 1.29 0 1.3c0 .6-.3 1-1 1c-.01.03-.5 0-.5 0zm7-1.2c-.7 0-1.1-.3-1.1-1c.03-.02 0-3.9 0-3.9h-1.2v-.6h1.2v-1.8h.7v1.8h1.4v.6h-1.4s.04 3.82 0 3.8c0 .4.2.5.5.5c-.02-.04 1.1 0 1.1 0v.6s-1.23-.03-1.2 0zm2.3 0V101h.7s.04 3.1 0 3.1c.4-.6 1.1-1 2-1c1.2 0 1.9.8 1.9 1.9c-.01.04 0 3.7 0 3.7h-.7s-.03-3.44 0-3.4c0-1.1-.5-1.6-1.3-1.6h-.2c-.8 0-1.7.7-1.7 2c.04 0 0 3 0 3h-.7zm6-2.8c0-1.9 1.2-2.8 2.4-2.8c1.4 0 2.3 1 2.3 2.4c-.04.03 0 .5 0 .5c0 0-4-.03-4 0c0 1.5.8 2.2 1.7 2.2h.1c.7 0 1.2-.4 1.4-1.1h.7c-.2 1.1-1 1.7-2.2 1.7c-1.3 0-2.4-1-2.4-2.9zm3.9-.5c0-1-.5-1.7-1.4-1.7h-.1c-.7 0-1.5.4-1.7 1.7h3.2zm6.7-2.2l-2.2 5.3s-.03 1.03 0 1c0 .7-.4 1-1.1 1c.03-.02-1.6 0-1.6 0v-.6s1.52-.02 1.5 0c.4 0 .5-.1.5-.5c-.04.04 0-.9 0-.9l-2.4-5.3h.8l1.9 4.4l1.9-4.4h.7zm9.9 0h.7l-1.8 5.5h-.9l-1.3-4.8l-1.2 4.8h-1l-1.8-5.5h.8L80 108l1.3-4.8h.9l1.3 4.9l1.5-4.9zm1.8-1v-1h.8v1h-.8zm0 6.5v-5.5h.7v5.5h-.7zm2.5 0V101h.7v7.7h-.7zm2.4 0V101h.7v7.7h-.7zm4.4-2.8c0-1.6.9-2.8 2.5-2.8c1.2 0 2 .7 2.1 1.8h-.7c-.1-.7-.6-1.2-1.4-1.2h-.1c-1.2 0-1.7 1-1.7 2.2c0 1.2.5 2.3 1.7 2.3h.1c.8 0 1.3-.6 1.4-1.3h.7c-.2 1.1-.9 1.9-2.1 1.9c-1.6 0-2.5-1.3-2.5-2.9zm5.7 0c0-1.7 1.1-2.8 2.5-2.8c1.4 0 2.6 1.1 2.6 2.8c0 1.7-1.2 2.9-2.6 2.9c-1.4 0-2.5-1.2-2.5-2.9zm2.6 2.3c1 0 1.7-.9 1.7-2.3c0-1.4-.7-2.2-1.7-2.2h-.1c-1 0-1.8.8-1.8 2.2c0 1.4.8 2.3 1.8 2.3h.1zm3.9.5v-5.5h.7v.8c.3-.5 1-.9 1.8-.9c.8 0 1.5.4 1.7 1.1c.4-.7 1.1-1.1 2-1.1c1.1 0 1.9.7 1.9 2c-.04-.03 0 3.6 0 3.6h-.8s.05-3.41 0-3.4c0-1.1-.4-1.6-1.2-1.6h-.1c-1.1 0-1.6 1-1.6 2.2c-.02.02 0 2.8 0 2.8h-.7s-.04-3.41 0-3.4c0-1.1-.5-1.6-1.3-1.6h-.1c-1.1 0-1.6 1-1.6 2.2v2.8h-.7zm9.8 0v-5.5h.7v.8c.3-.5 1-.9 1.8-.9c.8 0 1.5.4 1.7 1.1c.4-.7 1.1-1.1 2-1.1c1.1 0 1.9.7 1.9 2c-.04-.03 0 3.6 0 3.6h-.8s.04-3.41 0-3.4c0-1.1-.4-1.6-1.2-1.6h-.1c-1.1 0-1.6 1-1.6 2.2c-.03.02 0 2.8 0 2.8h-.7s-.04-3.41 0-3.4c0-1.1-.5-1.6-1.3-1.6h-.1c-1.1 0-1.6 1-1.6 2.2v2.8h-.7zm9.5-1.5c0-1.3 1-1.6 1.8-1.7l1.8-.1v-.3c0-.9-.5-1.4-1.4-1.4c-.7 0-1.3.3-1.4 1h-.7c0-1 .9-1.6 2.1-1.6c1.4 0 2.1.9 2.1 2v2.4c0 .3 0 .8.1 1.2h-.7c0-.3-.1-.6-.1-.9c-.2.5-.9 1-1.9 1c-1 0-1.7-.7-1.7-1.6zm1.9 1c.7 0 1.7-.7 1.7-1.5v-.7s-1.61.06-1.6.1c-.8 0-1.3.4-1.3 1c0 .6.4 1.1 1.1 1.1h.1zm4.1.5v-5.5h.7s.01.89 0 .9c.3-.6 1-1 1.9-1c1.1 0 2 .7 2 2c-.04-.03 0 3.6 0 3.6h-.8s.04-3.41 0-3.4c0-1.1-.4-1.6-1.3-1.6c-1.2 0-1.8 1-1.8 2.2v2.8h-.7zm6-2.8c0-1.7 1-2.8 2.4-2.8c.7 0 1.5.3 1.8.9c.05.05 0-3 0-3h.8v7.7h-.8s.05-.91 0-.9c-.3.6-1.1 1-1.8 1c-1.4 0-2.4-1.1-2.4-2.9zm2.5 2.3c1.2 0 1.7-1.1 1.7-2.3c0-1.2-.5-2.2-1.7-2.2h-.1c-1.1 0-1.7 1-1.7 2.2c0 1.2.6 2.3 1.7 2.3h.1zm6.4-1.4c-.03 0 0-3.6 0-3.6h.7s-.02 3.38 0 3.4c0 1 .4 1.6 1.3 1.6h.1c.8 0 1.6-.8 1.6-2.1v-2.9h.7v5.5h-.7s.01-1.07 0-1.1c-.3.8-.9 1.2-1.8 1.2c-1.3 0-1.9-.8-1.9-2zm6.2 1.9v-5.5h.7s-.03.89 0 .9c.3-.6 1-1 1.9-1c1.1 0 1.9.7 1.9 2c.02-.03 0 3.6 0 3.6h-.7v-3.4c0-1.1-.4-1.6-1.3-1.6h-.1c-1.2 0-1.7 1-1.7 2.2c-.03.02 0 2.8 0 2.8h-.7zm6.2-6.5v-1h.8v1h-.8zm0 6.5v-5.5h.7v5.5h-.7zm2.4 0v-5.5h.8s-.04.89 0 .9c.3-.6 1-1 1.9-1c1.1 0 1.9.7 1.9 2c.01-.03 0 3.6 0 3.6h-.7v-3.4c0-1.1-.4-1.6-1.3-1.6h-.1c-1.2 0-1.7 1-1.7 2.2c-.04.02 0 2.8 0 2.8h-.8zm7.9 0c-.7 0-1.1-.3-1.1-1c.03-.02 0-3.9 0-3.9h-1.2v-.6h1.2v-1.8h.7v1.8h1.4v.6h-1.4s.05 3.82 0 3.8c0 .4.2.5.5.5c-.01-.04 1.1 0 1.1 0v.6s-1.22-.03-1.2 0zm1.9-2.8c0-1.9 1.2-2.8 2.4-2.8c1.4 0 2.2 1 2.2 2.4c.04.03 0 .5 0 .5c0 0-3.92-.03-3.9 0c0 1.5.8 2.2 1.7 2.2h.1c.7 0 1.2-.4 1.4-1.1h.7c-.2 1.1-1.1 1.7-2.2 1.7c-1.4 0-2.4-1-2.4-2.9zm3.9-.5c0-1-.6-1.7-1.4-1.7h-.1c-.7 0-1.5.4-1.7 1.7h3.2zm2.2 3.3v-5.5h.7s-.03 1.22 0 1.2c.2-.9.9-1.3 1.7-1.3h.5v.7s-.47-.03-.5 0c-1 0-1.7.8-1.7 2.2c.02-.01 0 2.7 0 2.7h-.7zm4 0v-5.5h.6s.05 1.22 0 1.2c.3-.9 1-1.3 1.8-1.3h.4v.7s-.39-.03-.4 0c-1.1 0-1.7.8-1.7 2.2v2.7h-.7zm3.9-1.9c.04 0 0-3.6 0-3.6h.8s-.05 3.38 0 3.4c0 1 .4 1.6 1.3 1.6h.1c.8 0 1.6-.8 1.6-2.1c-.02.04 0-2.9 0-2.9h.7v5.5h-.7s-.02-1.07 0-1.1c-.3.8-1 1.2-1.9 1.2c-1.2 0-1.9-.8-1.9-2zm6.2 4.1v-7.7h.7s.04.85 0 .8c.4-.6 1.2-.9 1.9-.9c1.4 0 2.4 1.1 2.4 2.8c0 1.8-1 2.9-2.4 2.9c-.7 0-1.5-.4-1.9-1c.04-.01 0 3.1 0 3.1h-.7zm2.6-2.7c1.1 0 1.7-1.1 1.7-2.3c0-1.2-.6-2.2-1.7-2.2h-.1c-1.2 0-1.8 1-1.8 2.2c0 1.2.6 2.3 1.8 2.3h.1zm5.4.5c-.7 0-1-.3-1-1c-.04-.02 0-3.9 0-3.9H199v-.6h1.3v-1.8h.7v1.8h1.3v.6H201s-.03 3.82 0 3.8c0 .4.1.5.4.5c.01-.04 1.1 0 1.1 0v.6s-1.2-.03-1.2 0zm1.9-2.8c0-1.9 1.2-2.8 2.4-2.8c1.4 0 2.3 1 2.3 2.4c-.04.03 0 .5 0 .5c0 0-4-.03-4 0c0 1.5.8 2.2 1.7 2.2h.1c.7 0 1.2-.4 1.4-1.1h.8c-.3 1.1-1.1 1.7-2.3 1.7c-1.3 0-2.4-1-2.4-2.9zm3.9-.5c0-1-.5-1.7-1.4-1.7h-.1c-.7 0-1.5.4-1.7 1.7h3.2zm1.9.5c0-1.7 1-2.8 2.5-2.8c.7 0 1.5.3 1.8.9c.02.05 0-3 0-3h.7v7.7h-.7s.02-.91 0-.9c-.3.6-1.1 1-1.8 1c-1.5 0-2.5-1.1-2.5-2.9zm2.6 2.3c1.1 0 1.7-1.1 1.7-2.3c0-1.2-.6-2.2-1.7-2.2h-.1c-1.2 0-1.7 1-1.7 2.2c0 1.2.5 2.3 1.7 2.3h.1zm10.1-5h.7l-2.1 5.5h-.9l-2.1-5.5h.8l1.8 4.8l1.8-4.8zm1.8-1v-1h.8v1h-.8zm.1 6.5v-5.5h.7v5.5h-.7zm2.1-2.8c0-1.9 1.2-2.8 2.5-2.8c1.3 0 2.2 1 2.2 2.4c-.02.03 0 .5 0 .5c0 0-3.98-.03-4 0c0 1.5.8 2.2 1.7 2.2h.1c.8 0 1.2-.4 1.5-1.1h.7c-.3 1.1-1.1 1.7-2.2 1.7c-1.4 0-2.5-1-2.5-2.9zm4-.5c-.1-1-.6-1.7-1.5-1.7h-.1c-.7 0-1.5.4-1.7 1.7h3.3zm8.6-2.2h.7l-1.7 5.5h-1l-1.2-4.8l-1.3 4.8h-.9l-1.8-5.5h.8l1.5 4.8l1.2-4.8h.9l1.3 4.9l1.5-4.9zm1.4 3.8h.7c.1.8.7 1.2 1.4 1.2h.1c.8 0 1.3-.4 1.3-1c0-.4-.2-.7-1-.9l-.8-.1c-.8-.2-1.5-.6-1.5-1.5c0-1.1.9-1.6 2-1.6c1.4 0 2 .8 2.1 1.7h-.8c0-.6-.5-1.1-1.3-1.1h-.1c-.7 0-1.2.4-1.2.9c0 .5.3.7 1 .9l.9.2c.8.1 1.4.5 1.4 1.4c0 1.1-.8 1.7-2 1.7c-1.4 0-2.1-.8-2.2-1.8zm9.5 1.7c-.7 0-1.1-.3-1.1-1c.03-.02 0-3.9 0-3.9h-1.2v-.6h1.2v-1.8h.7v1.8h1.4v.6h-1.4s.04 3.82 0 3.8c0 .4.2.5.5.5c-.02-.04 1.1 0 1.1 0v.6s-1.23-.03-1.2 0zm1.8-2.8c0-1.7 1.1-2.8 2.6-2.8c1.4 0 2.5 1.1 2.5 2.8c0 1.7-1.1 2.9-2.5 2.9c-1.5 0-2.6-1.2-2.6-2.9zm2.6 2.3c1 0 1.8-.9 1.8-2.3c0-1.4-.8-2.2-1.8-2.2h-.1c-1 0-1.8.8-1.8 2.2c0 1.4.8 2.3 1.8 2.3h.1zm7.7.5c-.7 0-1-.3-1-1c-.05-.02 0-3.9 0-3.9H259v-.6h1.3v-1.8h.7v1.8h1.3v.6H261s-.03 3.82 0 3.8c0 .4.1.5.4.5c.01-.04 1.1 0 1.1 0v.6s-1.2-.03-1.2 0zm2.3 0V101h.8s-.04 3.1 0 3.1c.3-.6 1-1 1.9-1c1.3 0 1.9.8 1.9 1.9c.01.04 0 3.7 0 3.7h-.7v-3.4c0-1.1-.4-1.6-1.3-1.6h-.1c-.9 0-1.7.7-1.7 2c-.04 0 0 3 0 3h-.8zm6-2.8c0-1.9 1.2-2.8 2.5-2.8c1.3 0 2.2 1 2.2 2.4c-.02.03 0 .5 0 .5c0 0-3.98-.03-4 0c0 1.5.8 2.2 1.8 2.2c.8 0 1.2-.4 1.5-1.1h.7c-.3 1.1-1.1 1.7-2.2 1.7c-1.4 0-2.5-1-2.5-2.9zm4-.5c-.1-1-.6-1.7-1.5-1.7h-.1c-.7 0-1.5.4-1.7 1.7h3.3z" stroke="none" fill="#192d39"/></g><g id="Polygon16986"><path d="m12.9 90.8c0-1.8 1-2.9 2.5-2.9c.7 0 1.5.4 1.8 1v-3.1h.7v7.7h-.7s.01-.86 0-.9c-.3.6-1.1 1-1.8 1c-1.5 0-2.5-1.1-2.5-2.8zm2.5 2.2c1.2 0 1.8-1 1.8-2.2c0-1.2-.6-2.3-1.8-2.3c-1.2 0-1.8 1.1-1.8 2.3c0 1.2.6 2.2 1.8 2.2zm4-2.2c0-2 1.2-2.9 2.4-2.9c1.4 0 2.2 1.1 2.2 2.5c.04-.02 0 .4 0 .4c0 0-3.92.02-3.9 0c0 1.6.8 2.2 1.7 2.2h.1c.7 0 1.2-.3 1.4-1.1h.7c-.2 1.1-1.1 1.7-2.2 1.7c-1.4 0-2.4-1-2.4-2.8zm3.9-.6c0-1-.6-1.7-1.4-1.7h-.1c-.7 0-1.5.4-1.7 1.7h3.2zm1.8 1.7h.7c.1.7.7 1.1 1.5 1.1h.1c.7 0 1.2-.4 1.2-1c0-.4-.2-.6-1-.8l-.8-.2c-.8-.2-1.5-.5-1.5-1.5c0-1 1-1.6 2-1.6c1.4 0 2 .9 2.1 1.8h-.7c-.1-.6-.6-1.2-1.3-1.2h-.1c-.8 0-1.2.5-1.2 1c0 .5.3.7 1 .8l.8.2c.8.2 1.4.5 1.4 1.5c0 1-.8 1.6-2 1.6c-1.4 0-2.1-.7-2.2-1.7zm5.7-4.9v-.9h.8v.9h-.8zm0 6.5V88h.7v5.5h-.7zm2.5 0V88h.6s.02 1.27 0 1.3c.3-.9 1-1.3 1.7-1.3c.02-.04.5 0 .5 0v.6s-.42.02-.4 0c-1.1 0-1.7.9-1.7 2.2c-.03.04 0 2.7 0 2.7h-.7zm3.9-6.5v-.9h.8v.9h-.8zm0 6.5V88h.7v5.5h-.7zm2.5 0V88h.7s-.01.94 0 .9c.3-.6 1-1 1.9-1c1.1 0 1.9.7 1.9 2c.04.02 0 3.6 0 3.6h-.7s.02-3.36 0-3.4c0-1.1-.4-1.6-1.3-1.6h-.1c-1.2 0-1.7 1.1-1.7 2.3v2.7h-.7zm5.8.8h.7c.2.7.8 1 1.7 1h.1c1 0 1.8-.5 1.8-1.9v-.9c-.3.6-.9 1-1.8 1c-1.4 0-2.4-1-2.4-2.7c0-1.8 1-2.9 2.4-2.9c.9 0 1.5.4 1.8 1c.02 0 0-.9 0-.9h.7s.03 5.47 0 5.5c0 1.4-.9 2.4-2.5 2.4c-1.6 0-2.4-.7-2.5-1.6zm2.6-1.4c1 0 1.7-.8 1.7-2.1c0-1.4-.7-2.3-1.7-2.3h-.1c-1 0-1.7.9-1.7 2.3c0 1.3.7 2.1 1.7 2.1h.1zm6.4.6v-7.7h.7v3.2c.4-.7 1.1-1.1 2-1.1c1.2 0 1.9.8 1.9 2c-.04-.01 0 3.6 0 3.6h-.8s.04-3.39 0-3.4c0-1-.4-1.6-1.3-1.6h-.1c-.8 0-1.7.8-1.7 2v3h-.7zm5.9-2.7c0-1.7 1.1-2.9 2.6-2.9c1.4 0 2.5 1.2 2.5 2.9c0 1.7-1.1 2.8-2.5 2.8c-1.5 0-2.6-1.1-2.6-2.8zM63 93c1 0 1.8-.8 1.8-2.2c0-1.4-.8-2.3-1.8-2.3h-.1c-1 0-1.7.9-1.7 2.3c0 1.4.7 2.2 1.7 2.2h.1zm3.9-1.4c-.03.05 0-3.6 0-3.6h.7s-.02 3.43 0 3.4c0 1.1.4 1.6 1.3 1.6h.1c.8 0 1.6-.7 1.6-2v-3h.7v5.5h-.7v-1c-.3.7-.9 1.1-1.8 1.1c-1.2 0-1.9-.8-1.9-2zm5.8.3h.7c.1.7.7 1.1 1.4 1.1h.1c.8 0 1.3-.4 1.3-1c0-.4-.3-.6-1-.8l-.8-.2c-.8-.2-1.5-.5-1.5-1.5c0-1 .9-1.6 2-1.6c1.3 0 2 .9 2 1.8h-.7c0-.6-.5-1.2-1.3-1.2h-.1c-.8 0-1.2.5-1.2 1c0 .5.3.7 1 .8l.9.2c.8.2 1.4.5 1.4 1.5c0 1-.8 1.6-2 1.6c-1.4 0-2.2-.7-2.2-1.7zm5.3-1.1c0-2 1.2-2.9 2.5-2.9c1.3 0 2.2 1.1 2.2 2.5c.02-.02 0 .4 0 .4c0 0-3.94.02-3.9 0c0 1.6.8 2.2 1.7 2.2h.1c.7 0 1.2-.3 1.4-1.1h.7c-.2 1.1-1.1 1.7-2.2 1.7c-1.4 0-2.5-1-2.5-2.8zm4-.6c0-1-.6-1.7-1.5-1.7h-.1c-.7 0-1.5.4-1.6 1.7h3.2zm2 .3v-.6h2.7v.6H84zm4.2 3v-7.7h.7v7.7h-.7zm2.4-6.5v-.9h.8v.9h-.8zm.1 6.5V88h.7v5.5h-.7zm2.4 0v-7.7h.7v5.1l2.9-2.9h1l-2.3 2.2l2.4 3.3h-.9l-2-2.8l-1.1 1.1v1.7h-.7zm5.2-2.7c0-2 1.2-2.9 2.4-2.9c1.4 0 2.3 1.1 2.3 2.5c-.03-.02 0 .4 0 .4c0 0-3.99.02-4 0c0 1.6.8 2.2 1.7 2.2h.1c.8 0 1.2-.3 1.4-1.1h.8c-.3 1.1-1.1 1.7-2.3 1.7c-1.3 0-2.4-1-2.4-2.8zm4-.6c-.1-1-.6-1.7-1.5-1.7h-.1c-.7 0-1.5.4-1.7 1.7h3.3zm4.3 5.5V88h.7s.02.9 0 .9c.4-.6 1.1-1 1.9-1c1.4 0 2.4 1.1 2.4 2.9c0 1.7-1 2.8-2.4 2.8c-.8 0-1.5-.4-1.9-1c.02.04 0 3.1 0 3.1h-.7zm2.5-2.7c1.2 0 1.8-1 1.8-2.2c0-1.2-.6-2.3-1.8-2.3c-1.2 0-1.8 1.1-1.8 2.3c0 1.2.6 2.2 1.8 2.2zm4 .5V88h.6s.02 1.27 0 1.3c.3-.9 1-1.3 1.7-1.3c.02-.04.5 0 .5 0v.6s-.42.02-.4 0c-1.1 0-1.7.9-1.7 2.2c-.03.04 0 2.7 0 2.7h-.7zm3.5-2.7c0-1.7 1.1-2.9 2.5-2.9c1.4 0 2.5 1.2 2.5 2.9c0 1.7-1.1 2.8-2.5 2.8c-1.4 0-2.5-1.1-2.5-2.8zm2.5 2.2c1 0 1.8-.8 1.8-2.2c0-1.4-.8-2.3-1.8-2.3h-.1c-1 0-1.7.9-1.7 2.3c0 1.4.7 2.2 1.7 2.2h.1zm3.9 2.7V88h.8s-.05.9 0 .9c.3-.6 1.1-1 1.8-1c1.4 0 2.4 1.1 2.4 2.9c0 1.7-1 2.8-2.4 2.8c-.7 0-1.5-.4-1.8-1c-.05.04 0 3.1 0 3.1h-.8zm2.6-2.7c1.1 0 1.7-1 1.7-2.2c0-1.2-.6-2.3-1.7-2.3h-.1c-1.2 0-1.7 1.1-1.7 2.3c0 1.2.5 2.2 1.7 2.2h.1zm3.6-2.2c0-1.7 1.1-2.9 2.5-2.9c1.4 0 2.5 1.2 2.5 2.9c0 1.7-1.1 2.8-2.5 2.8c-1.4 0-2.5-1.1-2.5-2.8zm2.6 2.2c1 0 1.7-.8 1.7-2.2c0-1.4-.7-2.3-1.7-2.3h-.1c-1 0-1.8.9-1.8 2.3c0 1.4.8 2.2 1.8 2.2h.1zm3.9.5V88h.6s.02 1.27 0 1.3c.3-.9 1-1.3 1.7-1.3c.02-.04.5 0 .5 0v.6s-.42.02-.4 0c-1.1 0-1.7.9-1.7 2.2c-.03.04 0 2.7 0 2.7h-.7zm5.9 0c-.7 0-1.1-.3-1.1-1c.04.03 0-3.9 0-3.9h-1.2v-.6h1.2v-1.8h.8v1.8h1.3v.6h-1.3s-.05 3.87 0 3.9c0 .3.1.4.4.4c-.01.01 1.1 0 1.1 0v.6s-1.22.02-1.2 0zm2.3-6.5v-.9h.8v.9h-.8zm0 6.5V88h.7v5.5h-.7zm2.1-2.7c0-1.7 1.2-2.9 2.6-2.9c1.4 0 2.5 1.2 2.5 2.9c0 1.7-1.1 2.8-2.5 2.8c-1.4 0-2.6-1.1-2.6-2.8zm2.6 2.2c1 0 1.8-.8 1.8-2.2c0-1.4-.8-2.3-1.8-2.3h-.1c-1 0-1.7.9-1.7 2.3c0 1.4.7 2.2 1.7 2.2h.1zm3.9.5V88h.7s.05.94 0 .9c.4-.6 1.1-1 2-1c1.1 0 1.9.7 1.9 2v3.6h-.7s-.02-3.36 0-3.4c0-1.1-.5-1.6-1.3-1.6h-.1c-1.2 0-1.8 1.1-1.8 2.3c.05-.03 0 2.7 0 2.7h-.7zm5.9-1.6h.7c.1.7.7 1.1 1.4 1.1h.1c.8 0 1.3-.4 1.3-1c0-.4-.3-.6-1-.8l-.8-.2c-.8-.2-1.5-.5-1.5-1.5c0-1 .9-1.6 2-1.6c1.4 0 2 .9 2 1.8h-.7c0-.6-.5-1.2-1.3-1.2h-.1c-.7 0-1.2.5-1.2 1c0 .5.3.7 1 .8l.9.2c.8.2 1.4.5 1.4 1.5c0 1-.8 1.6-2 1.6c-1.4 0-2.2-.7-2.2-1.7zm7.8-4.9v-.9h.8v.9h-.8zm.1 6.5V88h.7v5.5h-.7zm2.4 0V88h.7s.02.94 0 .9c.3-.6 1-1 1.9-1c1.1 0 2 .7 2 2c-.03.02 0 3.6 0 3.6h-.7s-.05-3.36 0-3.4c0-1.1-.5-1.6-1.4-1.6c-1.2 0-1.8 1.1-1.8 2.3c.02-.03 0 2.7 0 2.7h-.7zm10.1 0c-.7 0-1.1-.3-1.1-1c.02.03 0-3.9 0-3.9h-1.2v-.6h1.2v-1.8h.7v1.8h1.4v.6h-1.4s.04 3.87 0 3.9c0 .3.1.4.5.4c-.02.01 1.1 0 1.1 0v.6s-1.23.02-1.2 0zm2.3 0v-7.7h.7s.03 3.15 0 3.2c.4-.7 1.1-1.1 2-1.1c1.2 0 1.9.8 1.9 2c-.02-.01 0 3.6 0 3.6h-.7s-.03-3.39 0-3.4c0-1-.5-1.6-1.4-1.6h-.1c-.8 0-1.7.8-1.7 2c.03.05 0 3 0 3h-.7zm6-2.7c0-2 1.2-2.9 2.4-2.9c1.4 0 2.3 1.1 2.3 2.5c-.05-.02 0 .4 0 .4c0 0-4.01.02-4 0c0 1.6.8 2.2 1.7 2.2h.1c.7 0 1.2-.3 1.4-1.1h.7c-.2 1.1-1 1.7-2.2 1.7c-1.3 0-2.4-1-2.4-2.8zm3.9-.6c0-1-.6-1.7-1.4-1.7h-.1c-.7 0-1.5.4-1.7 1.7h3.2zm4 1.7h.7c.1.7.6 1.1 1.4 1.1h.1c.8 0 1.3-.4 1.3-1c0-.4-.3-.6-1-.8l-.8-.2c-.8-.2-1.5-.5-1.5-1.5c0-1 .9-1.6 2-1.6c1.3 0 2 .9 2 1.8h-.7c-.1-.6-.5-1.2-1.3-1.2h-.1c-.8 0-1.2.5-1.2 1c0 .5.3.7 1 .8l.9.2c.7.2 1.4.5 1.4 1.5c0 1-.8 1.6-2 1.6c-1.5 0-2.2-.7-2.2-1.7zm5.7 1.6v-7.7h.7v5.1l2.9-2.9h1l-2.3 2.2l2.4 3.3h-.9l-2-2.8l-1.1 1.1v1.7h-.7zm10.7-5.5l-2.2 5.3s-.03 1.08 0 1.1c0 .6-.4.9-1.1.9c.02.03-1.6 0-1.6 0v-.6s1.51.03 1.5 0c.3 0 .5-.1.5-.4c-.05-.01 0-.9 0-.9l-2.4-5.4h.8l1.9 4.5l1.9-4.5h.7zm.4 5.5v-1.1h1.1v1.1h-1.1zm4.5-2.4h.8c0 1.2.9 1.8 2.2 1.8h.1c1.2 0 1.8-.6 1.8-1.4c0-.7-.4-1.1-1.4-1.3l-1.2-.3c-1.2-.2-1.9-.9-1.9-2c0-1.2 1-2.2 2.7-2.2c1.6 0 2.7.9 2.7 2.4h-.8c0-1-.8-1.7-1.9-1.7h-.1c-1.1 0-1.8.7-1.8 1.5c0 .7.5 1.1 1.3 1.2l1.2.3c1.3.2 2 .9 2 2c0 1.4-1 2.2-2.7 2.2c-1.9 0-3-.9-3-2.5zm9.1 2.4c-.7 0-1-.3-1-1c-.04.03 0-3.9 0-3.9h-1.3v-.6h1.3v-1.8h.7v1.8h1.3v.6h-1.3s-.03 3.87 0 3.9c0 .3.1.4.4.4c.01.01 1.1 0 1.1 0v.6s-1.2.02-1.2 0zm2.1-1.5c0-1.2 1-1.6 1.9-1.6c-.01-.05 1.7-.2 1.7-.2c0 0 .03-.2 0-.2c0-.9-.5-1.5-1.4-1.5c-.7 0-1.3.4-1.4 1.1h-.7c.1-1 .9-1.7 2.1-1.7c1.4 0 2.1 1 2.1 2.1v2.3c0 .3 0 .8.1 1.2h-.7v-.9c-.2.5-1 1-2 1c-.9 0-1.7-.7-1.7-1.6zm1.9 1c.8 0 1.7-.6 1.7-1.5c.03.04 0-.7 0-.7c0 0-1.57.11-1.6.1c-.8.1-1.3.5-1.3 1.1c0 .6.5 1 1.1 1h.1zm4.1.5V88h.7v1.3c.2-.9.9-1.3 1.7-1.3c-.01-.04.5 0 .5 0v.6s-.45.02-.5 0c-1 0-1.7.9-1.7 2.2c.04.04 0 2.7 0 2.7h-.7zm6 0c-.8 0-1.1-.3-1.1-1v-3.9h-1.3v-.6h1.3v-1.8h.7v1.8h1.4v.6h-1.4s.03 3.87 0 3.9c0 .3.1.4.5.4c-.03.01 1.1 0 1.1 0v.6s-1.24.02-1.2 0zm2.2-6.5v-.9h.9v.9h-.9zm.1 6.5V88h.7v5.5h-.7zm2.4 0V88h.8s-.05.94 0 .9c.3-.6 1-1 1.9-1c1.1 0 1.9.7 1.9 2v3.6h-.7s-.01-3.36 0-3.4c0-1.1-.4-1.6-1.3-1.6h-.1c-1.2 0-1.7 1.1-1.7 2.3c-.05-.03 0 2.7 0 2.7h-.8zm5.9.8h.7c.1.7.8 1 1.7 1h.1c.9 0 1.8-.5 1.8-1.9v-.9c-.3.6-1 1-1.8 1c-1.4 0-2.4-1-2.4-2.7c0-1.8 1-2.9 2.4-2.9c.8 0 1.5.4 1.8 1c-.02 0 0-.9 0-.9h.7v5.5c0 1.4-.9 2.4-2.5 2.4c-1.6 0-2.4-.7-2.5-1.6zm2.6-1.4c1 0 1.7-.8 1.7-2.1c0-1.4-.7-2.3-1.7-2.3h-.1c-1 0-1.7.9-1.7 2.3c0 1.3.7 2.1 1.7 2.1h.1zm7 .6v-4.9h-1.3v-.6h1.3s-.02-1.19 0-1.2c0-.7.3-1 1-1c.02.02 1.4 0 1.4 0v.6s-1.27.02-1.3 0c-.3 0-.4.1-.4.5c-.01-.04 0 1.1 0 1.1h1.4v.6h-1.4v4.9h-.7zm3.3 0V88h.6v1.3c.3-.9 1-1.3 1.7-1.3c.01-.04.5 0 .5 0v.6s-.43.02-.4 0c-1.1 0-1.7.9-1.7 2.2c-.04.04 0 2.7 0 2.7h-.7zm3.4-2.7c0-1.7 1.2-2.9 2.6-2.9c1.4 0 2.5 1.2 2.5 2.9c0 1.7-1.1 2.8-2.5 2.8c-1.4 0-2.6-1.1-2.6-2.8zM269 93c1 0 1.8-.8 1.8-2.2c0-1.4-.8-2.3-1.8-2.3h-.1c-1 0-1.7.9-1.7 2.3c0 1.4.7 2.2 1.7 2.2h.1zm3.9.5V88h.7s.05.9 0 .9c.4-.6 1-1 1.9-1c.8 0 1.4.4 1.7 1.2c.4-.8 1.1-1.2 1.9-1.2c1.1 0 1.9.7 1.9 2c.02.02 0 3.6 0 3.6h-.7v-3.4c0-1.1-.4-1.6-1.3-1.6c-1.1 0-1.7 1.1-1.7 2.3c.03-.03 0 2.7 0 2.7h-.7s.02-3.36 0-3.4c0-1.1-.4-1.6-1.2-1.6h-.1c-1.1 0-1.7 1.1-1.7 2.3c.05-.03 0 2.7 0 2.7h-.7z" stroke="none" fill="#192d39"/></g><g id="Polygon16985"><path d="m12.9 75.6c0-1.6.9-2.8 2.5-2.8c1.2 0 2.1.7 2.2 1.8h-.7c-.1-.7-.7-1.2-1.4-1.2h-.1c-1.2 0-1.8 1-1.8 2.2c0 1.2.6 2.3 1.8 2.3h.1c.7 0 1.2-.6 1.4-1.3h.7c-.2 1.1-1 1.9-2.2 1.9c-1.6 0-2.5-1.3-2.5-2.9zm5.8 1.3c0-1.3 1.1-1.6 1.9-1.7l1.7-.1s.04-.25 0-.3c0-.9-.5-1.4-1.3-1.4h-.1c-.7 0-1.3.3-1.4 1h-.7c.1-1 1-1.6 2.1-1.6c1.5 0 2.2.9 2.2 2v3.6h-.6c-.1-.3-.1-.6-.1-.9c-.2.5-1 1-1.9 1c-1 0-1.8-.7-1.8-1.6zm1.9 1c.8 0 1.7-.7 1.7-1.5c.04-.01 0-.7 0-.7c0 0-1.55.06-1.6.1c-.7 0-1.3.4-1.3 1c0 .6.5 1.1 1.1 1.1h.1zm5.7.5c-.7 0-1.1-.3-1.1-1c.05-.02 0-3.9 0-3.9H24v-.6h1.2v-1.8h.8v1.8h1.3v.6H26s-.04 3.82 0 3.8c0 .4.1.5.4.5c0-.04 1.1 0 1.1 0v.6s-1.21-.03-1.2 0zm1.9-2.8c0-1.9 1.2-2.8 2.4-2.8c1.4 0 2.3 1 2.3 2.4c-.05.03 0 .5 0 .5c0 0-4.01-.03-4 0c0 1.5.8 2.2 1.7 2.2h.1c.7 0 1.2-.4 1.4-1.1h.7c-.2 1.1-1 1.7-2.2 1.7c-1.3 0-2.4-1-2.4-2.9zm3.9-.5c0-1-.6-1.7-1.4-1.7h-.1c-.7 0-1.5.4-1.7 1.7h3.2zm2.2 3.3v-5.5h.7s-.02 1.22 0 1.2c.2-.9.9-1.3 1.7-1.3h.5v.7s-.46-.03-.5 0c-1 0-1.7.8-1.7 2.2c.03-.01 0 2.7 0 2.7h-.7zm3.9-6.5v-1h.9v1h-.9zm.1 6.5v-5.5h.7v5.5h-.7zm2.4 0v-5.5h.8s-.05.89 0 .9c.3-.6 1-1 1.9-1c1.1 0 1.9.7 1.9 2v3.6h-.7s-.01-3.41 0-3.4c0-1.1-.5-1.6-1.3-1.6h-.1c-1.2 0-1.7 1-1.7 2.2c-.05.02 0 2.8 0 2.8h-.8zm5.9.7h.7c.1.7.8 1.1 1.7 1.1h.1c.9 0 1.8-.6 1.8-1.9v-.9c-.3.6-1 1-1.8 1c-1.4 0-2.4-1-2.4-2.8c0-1.7 1-2.8 2.4-2.8c.8 0 1.5.3 1.8.9c-.02.05 0-.8 0-.8h.7v5.4c0 1.5-.9 2.5-2.5 2.5c-1.6 0-2.4-.7-2.5-1.7zm2.6-1.3c1 0 1.7-.8 1.7-2.2c0-1.4-.7-2.2-1.7-2.2h-.1c-1 0-1.7.8-1.7 2.2c0 1.4.7 2.2 1.7 2.2h.1zm8 .6c-.8 0-1.1-.3-1.1-1v-3.9h-1.3v-.6h1.3v-1.8h.7v1.8h1.4v.6h-1.4s.02 3.82 0 3.8c0 .4.1.5.5.5c-.04-.04 1.1 0 1.1 0v.6s-1.25-.03-1.2 0zm1.8-2.8c0-1.7 1.1-2.8 2.5-2.8c1.4 0 2.6 1.1 2.6 2.8c0 1.7-1.2 2.9-2.6 2.9c-1.4 0-2.5-1.2-2.5-2.9zm2.6 2.3c1 0 1.7-.9 1.7-2.3c0-1.4-.7-2.2-1.7-2.2h-.1c-1 0-1.8.8-1.8 2.2c0 1.4.8 2.3 1.8 2.3h.1zm7.7.5c-.7 0-1.1-.3-1.1-1c.03-.02 0-3.9 0-3.9H67v-.6h1.2v-1.8h.7v1.8h1.4v.6h-1.4s.04 3.82 0 3.8c0 .4.2.5.5.5c-.02-.04 1.1 0 1.1 0v.6s-1.23-.03-1.2 0zm2.3 0v-7.7h.7s.04 3.1 0 3.1c.4-.6 1.1-1 2-1c1.2 0 1.9.8 1.9 1.9c-.01.04 0 3.7 0 3.7h-.7s-.03-3.44 0-3.4c0-1.1-.5-1.6-1.3-1.6h-.2c-.8 0-1.7.7-1.7 2c.04 0 0 3 0 3h-.7zm6-2.8c0-1.9 1.2-2.8 2.4-2.8c1.4 0 2.3 1 2.3 2.4c-.04.03 0 .5 0 .5c0 0-4-.03-4 0c0 1.5.8 2.2 1.7 2.2h.1c.7 0 1.2-.4 1.4-1.1h.7c-.2 1.1-1 1.7-2.2 1.7c-1.3 0-2.4-1-2.4-2.9zm3.9-.5c0-1-.5-1.7-1.4-1.7h-.1c-.7 0-1.5.4-1.7 1.7h3.2zm4.4 3.3v-7.7h.7s.02 3.1 0 3.1c.4-.6 1.1-1 2-1c1.2 0 1.9.8 1.9 1.9c-.03.04 0 3.7 0 3.7h-.7s-.05-3.44 0-3.4c0-1.1-.5-1.6-1.4-1.6h-.1c-.8 0-1.7.7-1.7 2c.02 0 0 3 0 3h-.7zm6.2-6.5v-1h.8v1h-.8zm.1 6.5v-5.5h.7v5.5h-.7zm2 .7h.7c.1.7.8 1.1 1.7 1.1h.1c1 0 1.8-.6 1.8-1.9v-.9c-.3.6-1 1-1.8 1c-1.4 0-2.4-1-2.4-2.8c0-1.7 1-2.8 2.4-2.8c.8 0 1.5.3 1.8.9v-.8h.7v5.4c0 1.5-.9 2.5-2.5 2.5c-1.6 0-2.4-.7-2.5-1.7zm2.6-1.3c1 0 1.7-.8 1.7-2.2c0-1.4-.7-2.2-1.7-2.2h-.1c-1 0-1.7.8-1.7 2.2c0 1.4.7 2.2 1.7 2.2h.1zm4.1.6v-7.7h.8s-.04 3.1 0 3.1c.3-.6 1-1 1.9-1c1.3 0 1.9.8 1.9 1.9c.01.04 0 3.7 0 3.7h-.7s-.01-3.44 0-3.4c0-1.1-.4-1.6-1.3-1.6h-.1c-.9 0-1.7.7-1.7 2c-.04 0 0 3 0 3h-.8zm8.2-2.8c0-1.7 1-2.8 2.4-2.8c.7 0 1.5.3 1.9.9c-.03.05 0-3 0-3h.7v7.7h-.7s-.03-.91 0-.9c-.4.6-1.2 1-1.9 1c-1.4 0-2.4-1.1-2.4-2.9zm2.5 2.3c1.2 0 1.8-1.1 1.8-2.3c0-1.2-.6-2.2-1.8-2.2c-1.2 0-1.8 1-1.8 2.2c0 1.2.6 2.3 1.8 2.3zm3.9-2.3c0-1.9 1.2-2.8 2.5-2.8c1.3 0 2.2 1 2.2 2.4v.5s-3.96-.03-4 0c.1 1.5.9 2.2 1.8 2.2c.8 0 1.3-.4 1.5-1.1h.7c-.2 1.1-1.1 1.7-2.2 1.7c-1.4 0-2.5-1-2.5-2.9zm4-.5c0-1-.6-1.7-1.5-1.7h-.1c-.7 0-1.5.4-1.6 1.7h3.2zm2.2 3.3v-5.5h.7v.8c.3-.5 1-.9 1.8-.9c.8 0 1.5.4 1.7 1.1c.4-.7 1.1-1.1 2-1.1c1.1 0 1.9.7 1.9 2c-.04-.03 0 3.6 0 3.6h-.8s.04-3.41 0-3.4c0-1.1-.4-1.6-1.2-1.6h-.1c-1.1 0-1.6 1-1.6 2.2c-.03.02 0 2.8 0 2.8h-.7s-.04-3.41 0-3.4c0-1.1-.5-1.6-1.3-1.6h-.1c-1.1 0-1.6 1-1.6 2.2v2.8h-.7zm9.5-1.5c0-1.3 1-1.6 1.8-1.7l1.8-.1v-.3c0-.9-.5-1.4-1.4-1.4c-.7 0-1.3.3-1.4 1h-.7c0-1 .9-1.6 2.1-1.6c1.4 0 2.1.9 2.1 2v2.4c0 .3 0 .8.1 1.2h-.7c0-.3-.1-.6-.1-.9c-.2.5-.9 1-1.9 1c-1 0-1.7-.7-1.7-1.6zm1.9 1c.7 0 1.7-.7 1.7-1.5v-.7s-1.61.06-1.6.1c-.8 0-1.3.4-1.3 1c0 .6.4 1.1 1.1 1.1h.1zm4.1.5v-5.5h.7v.9c.3-.6 1-1 1.9-1c1.1 0 2 .7 2 2c-.05-.03 0 3.6 0 3.6h-.8s.04-3.41 0-3.4c0-1.1-.4-1.6-1.3-1.6c-1.2 0-1.8 1-1.8 2.2v2.8h-.7zm6-2.8c0-1.7 1-2.8 2.4-2.8c.7 0 1.5.3 1.8.9c.04.05 0-3 0-3h.8v7.7h-.8s.04-.91 0-.9c-.3.6-1.1 1-1.8 1c-1.4 0-2.4-1.1-2.4-2.9zm2.5 2.3c1.2 0 1.7-1.1 1.7-2.3c0-1.2-.5-2.2-1.7-2.2h-.1c-1.1 0-1.7 1-1.7 2.2c0 1.2.6 2.3 1.7 2.3h.1zm7 .5v-4.9h-1.2v-.6h1.2s.03-1.24 0-1.2c0-.8.4-1 1.1-1c-.02-.03 1.4 0 1.4 0v.6s-1.31-.03-1.3 0c-.3 0-.5.1-.5.4c.05.01 0 1.2 0 1.2h1.5v.6h-1.5v4.9h-.7zm3.3 0v-5.5h.7s-.03 1.22 0 1.2c.2-.9.9-1.3 1.7-1.3h.5v.7s-.47-.03-.5 0c-1 0-1.7.8-1.7 2.2c.02-.01 0 2.7 0 2.7h-.7zm3.5-2.8c0-1.7 1.1-2.8 2.5-2.8c1.5 0 2.6 1.1 2.6 2.8c0 1.7-1.1 2.9-2.6 2.9c-1.4 0-2.5-1.2-2.5-2.9zm2.6 2.3c1 0 1.7-.9 1.7-2.3c0-1.4-.7-2.2-1.7-2.2h-.1c-1 0-1.8.8-1.8 2.2c0 1.4.8 2.3 1.8 2.3h.1zm3.9.5v-5.5h.7v.8c.3-.5 1-.9 1.8-.9c.8 0 1.5.4 1.8 1.1c.3-.7 1-1.1 1.9-1.1c1.1 0 1.9.7 1.9 2c-.02-.03 0 3.6 0 3.6h-.7s-.04-3.41 0-3.4c0-1.1-.5-1.6-1.3-1.6h-.1c-1.1 0-1.6 1-1.6 2.2v2.8h-.7s-.02-3.41 0-3.4c0-1.1-.4-1.6-1.3-1.6h-.1c-1.1 0-1.6 1-1.6 2.2v2.8h-.7zm12.6 0v-4.9h-1.3v-.6h1.3v-1.2c0-.8.3-1 1-1c.04-.03 1.4 0 1.4 0v.6s-1.25-.03-1.2 0c-.4 0-.5.1-.5.4v1.2h1.4v.6h-1.4v4.9h-.7zm2.9-1.5c0-1.3 1.1-1.6 1.9-1.7l1.8-.1s-.03-.25 0-.3c0-.9-.6-1.4-1.4-1.4h-.1c-.7 0-1.3.3-1.3 1h-.7c0-1 .9-1.6 2.1-1.6c1.4 0 2.1.9 2.1 2v3.6h-.6c-.1-.3-.1-.6-.1-.9c-.2.5-.9 1-1.9 1c-1 0-1.8-.7-1.8-1.6zm2 1c.7 0 1.7-.7 1.7-1.5c-.03-.01 0-.7 0-.7c0 0-1.62.06-1.6.1c-.8 0-1.3.4-1.3 1c0 .6.4 1.1 1.1 1.1h.1zm4.1.5v-5.5h.7v.8c.3-.5 1-.9 1.8-.9c.8 0 1.5.4 1.7 1.1c.4-.7 1.1-1.1 2-1.1c1.1 0 1.9.7 1.9 2c-.04-.03 0 3.6 0 3.6h-.8s.05-3.41 0-3.4c0-1.1-.4-1.6-1.2-1.6h-.1c-1.1 0-1.6 1-1.6 2.2c-.02.02 0 2.8 0 2.8h-.7s-.04-3.41 0-3.4c0-1.1-.5-1.6-1.3-1.6h-.1c-1.1 0-1.6 1-1.6 2.2v2.8h-.7zm9.7-6.5v-1h.8v1h-.8zm.1 6.5v-5.5h.7v5.5h-.7zm2.4 0v-7.7h.7v7.7h-.7zm2.4-6.5v-1h.8v1h-.8zm0 6.5v-5.5h.8v5.5h-.8zm2.2-2.8c0-1.9 1.2-2.8 2.4-2.8c1.4 0 2.3 1 2.3 2.4c-.04.03 0 .5 0 .5c0 0-4-.03-4 0c0 1.5.8 2.2 1.7 2.2h.1c.7 0 1.2-.4 1.4-1.1h.7c-.2 1.1-1 1.7-2.2 1.7c-1.3 0-2.4-1-2.4-2.9zm3.9-.5c0-1-.5-1.7-1.4-1.7h-.1c-.7 0-1.5.4-1.7 1.7h3.2zm1.8 1.6h.8c0 .8.6 1.2 1.4 1.2h.1c.8 0 1.2-.4 1.2-1c0-.4-.2-.7-.9-.9l-.8-.1c-.9-.2-1.5-.6-1.5-1.5c0-1.1.9-1.6 1.9-1.6c1.4 0 2 .8 2.1 1.7h-.7c-.1-.6-.6-1.1-1.3-1.1h-.1c-.8 0-1.2.4-1.2.9c0 .5.3.7 1 .9l.8.2c.8.1 1.4.5 1.4 1.4c0 1.1-.8 1.7-2 1.7c-1.4 0-2.1-.8-2.2-1.8zm7.6.2c0-1.3 1-1.6 1.9-1.7l1.7-.1s.03-.25 0-.3c0-.9-.5-1.4-1.3-1.4h-.1c-.7 0-1.3.3-1.4 1h-.7c.1-1 .9-1.6 2.1-1.6c1.5 0 2.1.9 2.1 2v2.4c0 .3 0 .8.1 1.2h-.7v-.9c-.2.5-1 1-2 1c-.9 0-1.7-.7-1.7-1.6zm1.9 1c.8 0 1.7-.7 1.7-1.5c.03-.01 0-.7 0-.7c0 0-1.56.06-1.6.1c-.7 0-1.3.4-1.3 1c0 .6.5 1.1 1.1 1.1h.1zm4.1.5v-5.5h.8s-.05.89 0 .9c.3-.6 1-1 1.9-1c1.1 0 1.9.7 1.9 2v3.6h-.7s-.01-3.41 0-3.4c0-1.1-.5-1.6-1.3-1.6h-.1c-1.2 0-1.7 1-1.7 2.2c-.05.02 0 2.8 0 2.8h-.8zm6-2.8c0-1.7 1-2.8 2.5-2.8c.7 0 1.5.3 1.8.9v-3h.7v7.7h-.7s-.01-.91 0-.9c-.3.6-1.1 1-1.8 1c-1.5 0-2.5-1.1-2.5-2.9zm2.5 2.3c1.2 0 1.8-1.1 1.8-2.3c0-1.2-.6-2.2-1.8-2.2c-1.2 0-1.8 1-1.8 2.2c0 1.2.6 2.3 1.8 2.3zm8.1.5c-.8 0-1.1-.3-1.1-1c.02-.02 0-3.9 0-3.9H238v-.6h1.2v-1.8h.7v1.8h1.4v.6h-1.4s.03 3.82 0 3.8c0 .4.1.5.5.5c-.03-.04 1.1 0 1.1 0v.6s-1.24-.03-1.2 0zm2.3 0v-7.7h.7s.02 3.1 0 3.1c.4-.6 1.1-1 2-1c1.2 0 1.9.8 1.9 1.9c-.03.04 0 3.7 0 3.7h-.7s-.04-3.44 0-3.4c0-1.1-.5-1.6-1.4-1.6h-.1c-.8 0-1.7.7-1.7 2c.02 0 0 3 0 3h-.7zm6-2.8c0-1.7 1.1-2.8 2.5-2.8c1.4 0 2.5 1.1 2.5 2.8c0 1.7-1.1 2.9-2.5 2.9c-1.4 0-2.5-1.2-2.5-2.9zm2.5 2.3c1 0 1.8-.9 1.8-2.3c0-1.4-.8-2.2-1.8-2.2h-.1c-1 0-1.7.8-1.7 2.2c0 1.4.7 2.3 1.7 2.3h.1zm3.5-1.2h.8c0 .8.6 1.2 1.4 1.2h.1c.8 0 1.2-.4 1.2-1c0-.4-.2-.7-.9-.9l-.8-.1c-.9-.2-1.5-.6-1.5-1.5c0-1.1.9-1.6 1.9-1.6c1.4 0 2 .8 2.1 1.7h-.7c-.1-.6-.6-1.1-1.3-1.1h-.1c-.8 0-1.2.4-1.2.9c0 .5.3.7 1 .9l.8.2c.8.1 1.4.5 1.4 1.4c0 1.1-.8 1.7-2 1.7c-1.4 0-2.1-.8-2.2-1.8zm5.4-1.1c0-1.9 1.2-2.8 2.5-2.8c1.3 0 2.2 1 2.2 2.4c-.03.03 0 .5 0 .5c0 0-3.99-.03-4 0c0 1.5.8 2.2 1.7 2.2h.1c.8 0 1.2-.4 1.4-1.1h.8c-.3 1.1-1.1 1.7-2.2 1.7c-1.4 0-2.5-1-2.5-2.9zm4-.5c-.1-1-.6-1.7-1.5-1.7h-.1c-.7 0-1.5.4-1.7 1.7h3.3z" stroke="none" fill="#192d39"/></g><g id="Polygon16984"><path d="m15.3 63.2v-7h-2.8v-.7h6.4v.7h-2.8v7h-.8zm3.7 0v-5.5h.7s-.03 1.27 0 1.3c.2-.9.9-1.3 1.7-1.3c-.02-.04.5 0 .5 0v.6s-.47.02-.5 0c-1 0-1.7.9-1.7 2.2c.03.04 0 2.7 0 2.7h-.7zm3.9-6.5v-.9h.9v.9h-.9zm.1 6.5v-5.5h.7v5.5h-.7zm2.4 0v-7.7h.7v7.7h-.7zm2.2-2.7c0-1.7 1.1-2.9 2.5-2.9c1.4 0 2.5 1.2 2.5 2.9c0 1.7-1.1 2.8-2.5 2.8c-1.4 0-2.5-1.1-2.5-2.8zm2.6 2.2c.9 0 1.7-.8 1.7-2.2c0-1.4-.8-2.3-1.7-2.3h-.2c-.9 0-1.7.9-1.7 2.3c0 1.4.8 2.2 1.7 2.2h.2zm3.5 1.3h.7c.1.7.7 1 1.7 1h.1c.9 0 1.8-.5 1.8-1.9v-.9c-.4.6-1 1-1.9 1c-1.3 0-2.3-1-2.3-2.7c0-1.8 1-2.9 2.3-2.9c.9 0 1.5.4 1.9 1c-.04 0 0-.9 0-.9h.7s-.02 5.47 0 5.5c0 1.4-1 2.4-2.6 2.4c-1.6 0-2.3-.7-2.4-1.6zm2.6-1.4c1 0 1.7-.8 1.7-2.1c0-1.4-.7-2.3-1.7-2.3h-.1c-1 0-1.7.9-1.7 2.3c0 1.3.7 2.1 1.7 2.1h.1zm8.8-4.9L42.9 63s-.02 1.08 0 1.1c0 .6-.4.9-1.1.9c.04.03-1.6 0-1.6 0v-.6s1.53.03 1.5 0c.4 0 .5-.1.5-.4c-.03-.01 0-.9 0-.9l-2.4-5.4h.8l1.9 4.5l1.9-4.5h.7zm3 2.8c0-1.6.9-2.9 2.5-2.9c1.2 0 2 .7 2.1 1.9h-.7c-.1-.8-.6-1.3-1.4-1.3h-.1c-1.2 0-1.7 1.1-1.7 2.3c0 1.2.5 2.2 1.7 2.2h.1c.8 0 1.3-.5 1.4-1.2h.7c-.2 1.1-.9 1.8-2.1 1.8c-1.6 0-2.5-1.2-2.5-2.8zm5.7 0c0-1.7 1.1-2.9 2.5-2.9c1.4 0 2.5 1.2 2.5 2.9c0 1.7-1.1 2.8-2.5 2.8c-1.4 0-2.5-1.1-2.5-2.8zm2.6 2.2c1 0 1.7-.8 1.7-2.2c0-1.4-.7-2.3-1.7-2.3h-.1c-1 0-1.8.9-1.8 2.3c0 1.4.8 2.2 1.8 2.2h.1zm3.9.5v-5.5h.7s-.01.94 0 .9c.3-.6 1-1 1.9-1c1.1 0 1.9.7 1.9 2c.04.02 0 3.6 0 3.6h-.7s.02-3.36 0-3.4c0-1.1-.4-1.6-1.3-1.6h-.1c-1.2 0-1.7 1.1-1.7 2.3v2.7h-.7zm7.8 0c-.7 0-1-.3-1-1c-.04.03 0-3.9 0-3.9h-1.3v-.6h1.3v-1.8h.7v1.8h1.3v.6h-1.3s-.03 3.87 0 3.9c0 .3.1.4.4.4c.01.01 1.1 0 1.1 0v.6s-1.2.02-1.2 0zm2.1-1.5c0-1.2 1-1.6 1.9-1.6c-.01-.05 1.7-.2 1.7-.2c0 0 .03-.2 0-.2c0-.9-.5-1.5-1.3-1.5h-.1c-.7 0-1.3.4-1.4 1.1h-.7c.1-1 .9-1.7 2.1-1.7c1.4 0 2.1 1 2.1 2.1v2.3c0 .3 0 .8.1 1.2h-.7v-.9c-.2.5-1 1-2 1c-.9 0-1.7-.7-1.7-1.6zm1.9 1c.8 0 1.7-.6 1.7-1.5c.03.04 0-.7 0-.7c0 0-1.57.11-1.6.1c-.7.1-1.3.5-1.3 1.1c0 .6.5 1 1.1 1h.1zm4.1-6v-.9h.8v.9h-.8zm0 6.5v-5.5h.7v5.5h-.7zm2.5 0v-5.5h.7s-.02.94 0 .9c.3-.6 1-1 1.9-1c1.1 0 1.9.7 1.9 2c.03.02 0 3.6 0 3.6h-.7s.01-3.36 0-3.4c0-1.1-.4-1.6-1.3-1.6h-.1c-1.2 0-1.7 1.1-1.7 2.3c-.02-.03 0 2.7 0 2.7h-.7zm5.8-1.6h.7c.1.7.7 1.1 1.5 1.1h.1c.7 0 1.2-.4 1.2-1c0-.4-.2-.6-1-.8l-.8-.2c-.8-.2-1.5-.5-1.5-1.5c0-1 1-1.6 2-1.6c1.4 0 2 .9 2.1 1.8h-.7c-.1-.6-.6-1.2-1.3-1.2h-.1c-.8 0-1.2.5-1.2 1c0 .5.3.7 1 .8l.8.2c.8.2 1.4.5 1.4 1.5c0 1-.8 1.6-2 1.6c-1.4 0-2.1-.7-2.2-1.7zm7.6.1c0-1.2 1-1.6 1.9-1.6c-.03-.05 1.7-.2 1.7-.2v-.2c0-.9-.5-1.5-1.4-1.5c-.7 0-1.3.4-1.4 1.1h-.7c.1-1 .9-1.7 2.1-1.7c1.4 0 2.1 1 2.1 2.1v2.3c0 .3 0 .8.1 1.2h-.7v-.9c-.3.5-1 1-2 1c-1 0-1.7-.7-1.7-1.6zm1.9 1c.8 0 1.7-.6 1.7-1.5v-.7s-1.59.11-1.6.1c-.8.1-1.3.5-1.3 1.1c0 .6.5 1 1.1 1h.1zm6.3-1.4c-.03.05 0-3.6 0-3.6h.7s-.01 3.43 0 3.4c0 1.1.4 1.6 1.3 1.6h.1c.8 0 1.6-.7 1.6-2v-3h.7v5.5h-.7v-1c-.3.7-.9 1.1-1.8 1.1c-1.2 0-1.9-.8-1.9-2zm6.2 1.9v-5.5h.7s-.03.94 0 .9c.3-.6 1-1 1.9-1c1.1 0 1.9.7 1.9 2c.02.02 0 3.6 0 3.6h-.7s.01-3.36 0-3.4c0-1.1-.4-1.6-1.3-1.6h-.1c-1.2 0-1.7 1.1-1.7 2.3c-.03-.03 0 2.7 0 2.7h-.7zm6.2-6.5v-.9h.8v.9h-.8zm0 6.5v-5.5h.7v5.5h-.7zm6.4 2.2s.05-3.06 0-3.1c-.3.6-1.1 1-1.8 1c-1.4 0-2.4-1.1-2.4-2.8c0-1.8 1-2.9 2.4-2.9c.7 0 1.5.4 1.8 1c.05 0 0-.9 0-.9h.8v7.7h-.8zm-1.7-2.7c1.2 0 1.7-1 1.7-2.2c0-1.2-.5-2.3-1.7-2.3h-.1c-1.1 0-1.7 1.1-1.7 2.3c0 1.2.6 2.2 1.7 2.2h.1zm4.2-1.4c-.04.05 0-3.6 0-3.6h.7s-.03 3.43 0 3.4c0 1.1.4 1.6 1.3 1.6h.1c.8 0 1.6-.7 1.6-2v-3h.7v5.5h-.7v-1c-.3.7-.9 1.1-1.8 1.1c-1.3 0-1.9-.8-1.9-2zm5.9-.8c0-2 1.1-2.9 2.4-2.9c1.4 0 2.2 1.1 2.2 2.5c.03-.02 0 .4 0 .4c0 0-3.93.02-3.9 0c0 1.6.8 2.2 1.7 2.2h.1c.7 0 1.2-.3 1.4-1.1h.7c-.2 1.1-1.1 1.7-2.2 1.7c-1.4 0-2.4-1-2.4-2.8zm3.9-.6c0-1-.6-1.7-1.4-1.7h-.2c-.6 0-1.5.4-1.6 1.7h3.2zm3.9 1.7h.8c0 .7.6 1.1 1.4 1.1h.1c.8 0 1.2-.4 1.2-1c0-.4-.2-.6-.9-.8l-.8-.2c-.9-.2-1.5-.5-1.5-1.5c0-1 .9-1.6 1.9-1.6c1.4 0 2 .9 2.1 1.8h-.7c-.1-.6-.6-1.2-1.3-1.2h-.1c-.8 0-1.2.5-1.2 1c0 .5.3.7 1 .8l.8.2c.8.2 1.4.5 1.4 1.5c0 1-.8 1.6-2 1.6c-1.4 0-2.1-.7-2.2-1.7zm5.4-1.1c0-2 1.2-2.9 2.5-2.9c1.3 0 2.2 1.1 2.2 2.5c-.02-.02 0 .4 0 .4c0 0-3.98.02-4 0c0 1.6.8 2.2 1.7 2.2h.1c.8 0 1.2-.3 1.5-1.1h.7c-.3 1.1-1.1 1.7-2.2 1.7c-1.4 0-2.5-1-2.5-2.8zm4-.6c-.1-1-.6-1.7-1.5-1.7h-.1c-.7 0-1.5.4-1.7 1.7h3.3zm2.2 3.3v-7.7h.7v7.7h-.7zm2.1-2.7c0-2 1.2-2.9 2.5-2.9c1.3 0 2.2 1.1 2.2 2.5v.4s-3.97.02-4 0c.1 1.6.9 2.2 1.8 2.2c.8 0 1.3-.3 1.5-1.1h.7c-.3 1.1-1.1 1.7-2.2 1.7c-1.4 0-2.5-1-2.5-2.8zm4-.6c-.1-1-.6-1.7-1.5-1.7h-.1c-.7 0-1.5.4-1.6 1.7h3.2zm1.9.6c0-1.6.9-2.9 2.5-2.9c1.2 0 2 .7 2.1 1.9h-.7c-.1-.8-.6-1.3-1.4-1.3h-.1c-1.2 0-1.7 1.1-1.7 2.3c0 1.2.5 2.2 1.7 2.2h.1c.8 0 1.3-.5 1.4-1.2h.7c-.2 1.1-.9 1.8-2.1 1.8c-1.6 0-2.5-1.2-2.5-2.8zm7.7 2.7c-.7 0-1-.3-1-1c-.04.03 0-3.9 0-3.9h-1.3v-.6h1.3v-1.8h.7v1.8h1.3v.6h-1.3s-.03 3.87 0 3.9c0 .3.1.4.4.4c.01.01 1.1 0 1.1 0v.6s-1.2.02-1.2 0zm2.3-6.5v-.9h.8v.9h-.8zm0 6.5v-5.5h.8v5.5h-.8zm2.2-2.7c0-1.7 1.1-2.9 2.5-2.9c1.4 0 2.5 1.2 2.5 2.9c0 1.7-1.1 2.8-2.5 2.8c-1.4 0-2.5-1.1-2.5-2.8zm2.6 2.2c.9 0 1.7-.8 1.7-2.2c0-1.4-.8-2.3-1.7-2.3h-.2c-1 0-1.7.9-1.7 2.3c0 1.4.7 2.2 1.7 2.2h.2zm3.8.5v-5.5h.8s-.04.94 0 .9c.3-.6 1-1 1.9-1c1.1 0 1.9.7 1.9 2c.01.02 0 3.6 0 3.6h-.7v-3.4c0-1.1-.4-1.6-1.3-1.6h-.1c-1.2 0-1.7 1.1-1.7 2.3c-.04-.03 0 2.7 0 2.7h-.8zm8.2-2.7c0-1.7 1.1-2.9 2.5-2.9c1.4 0 2.5 1.2 2.5 2.9c0 1.7-1.1 2.8-2.5 2.8c-1.4 0-2.5-1.1-2.5-2.8zm2.6 2.2c1 0 1.7-.8 1.7-2.2c0-1.4-.7-2.3-1.7-2.3h-.1c-1 0-1.8.9-1.8 2.3c0 1.4.8 2.2 1.8 2.2h.1zm4.4.5v-4.9h-1.3v-.6h1.3s-.04-1.19 0-1.2c0-.7.3-1 1-1c.01.02 1.4 0 1.4 0v.6s-1.28.02-1.3 0c-.3 0-.4.1-.4.5c-.02-.04 0 1.1 0 1.1h1.4v.6h-1.4v4.9h-.7zm8.7 0v-1.8h-3.9v-.9l3.8-5h.8v5.2h1.3v.7h-1.3v1.8h-.7zm-3.2-2.5h3.2v-4.3l-3.2 4.3zm9.3 1.6c.01.04 0 .9 0 .9h-.7v-7.7h.7v3.1c.3-.6 1.1-1 1.8-1c1.5 0 2.5 1.1 2.5 2.9c0 1.7-1 2.8-2.5 2.8c-.7 0-1.5-.4-1.8-1zm1.8.4c1.2 0 1.8-1 1.8-2.2c0-1.2-.6-2.3-1.8-2.3c-1.2 0-1.8 1.1-1.8 2.3c0 1.2.6 2.2 1.8 2.2zm3.7-2.2c0-2 1.1-2.9 2.4-2.9c1.4 0 2.2 1.1 2.2 2.5c.04-.02 0 .4 0 .4c0 0-3.92.02-3.9 0c0 1.6.8 2.2 1.7 2.2h.1c.7 0 1.2-.3 1.4-1.1h.7c-.2 1.1-1.1 1.7-2.2 1.7c-1.4 0-2.4-1-2.4-2.8zm3.9-.6c0-1-.6-1.7-1.4-1.7h-.2c-.6 0-1.4.4-1.6 1.7h3.2zm1.9.6c0-1.8 1-2.9 2.5-2.9c.7 0 1.5.4 1.8 1v-3.1h.7v7.7h-.7s-.01-.86 0-.9c-.3.6-1.1 1-1.8 1c-1.5 0-2.5-1.1-2.5-2.8zm2.5 2.2c1.2 0 1.8-1 1.8-2.2c0-1.2-.6-2.3-1.8-2.3c-1.2 0-1.8 1.1-1.8 2.3c0 1.2.6 2.2 1.8 2.2zm6.5.5v-5.5h.6s.03 1.27 0 1.3c.3-.9 1-1.3 1.7-1.3c.03-.04.5 0 .5 0v.6s-.41.02-.4 0c-1.1 0-1.7.9-1.7 2.2c-.02.04 0 2.7 0 2.7h-.7zm3.5-2.7c0-2 1.2-2.9 2.5-2.9c1.3 0 2.2 1.1 2.2 2.5c-.03-.02 0 .4 0 .4c0 0-3.99.02-4 0c0 1.6.8 2.2 1.7 2.2h.1c.8 0 1.2-.3 1.4-1.1h.8c-.3 1.1-1.1 1.7-2.2 1.7c-1.4 0-2.5-1-2.5-2.8zm4-.6c-.1-1-.6-1.7-1.5-1.7h-.1c-.7 0-1.5.4-1.7 1.7h3.3zm1.8 1.7h.7c.1.7.6 1.1 1.4 1.1h.1c.8 0 1.2-.4 1.2-1c0-.4-.2-.6-.9-.8l-.8-.2c-.8-.2-1.5-.5-1.5-1.5c0-1 .9-1.6 1.9-1.6c1.4 0 2.1.9 2.1 1.8h-.7c-.1-.6-.5-1.2-1.3-1.2h-.1c-.8 0-1.2.5-1.2 1c0 .5.3.7 1 .8l.9.2c.7.2 1.4.5 1.4 1.5c0 1-.8 1.6-2.1 1.6c-1.4 0-2.1-.7-2.1-1.7zm5.6-4.9v-.9h.8v.9h-.8zm0 6.5v-5.5h.8v5.5h-.8zm2.2-2.7c0-1.8 1-2.9 2.4-2.9c.8 0 1.5.4 1.9 1c-.02 0 0-3.1 0-3.1h.7v7.7h-.7s-.02-.86 0-.9c-.4.6-1.1 1-1.9 1c-1.4 0-2.4-1.1-2.4-2.8zm2.5 2.2c1.2 0 1.8-1 1.8-2.2c0-1.2-.6-2.3-1.8-2.3c-1.2 0-1.8 1.1-1.8 2.3c0 1.2.6 2.2 1.8 2.2zm3.9-2.2c0-2 1.2-2.9 2.5-2.9c1.3 0 2.2 1.1 2.2 2.5v.4s-3.95.02-3.9 0c0 1.6.8 2.2 1.7 2.2c.8 0 1.3-.3 1.5-1.1h.7c-.2 1.1-1.1 1.7-2.2 1.7c-1.4 0-2.5-1-2.5-2.8zm4-.6c0-1-.6-1.7-1.5-1.7h-.1c-.7 0-1.5.4-1.6 1.7h3.2zm2.2 3.3v-5.5h.7s-.01.94 0 .9c.3-.6 1-1 1.9-1c1.1 0 1.9.7 1.9 2c.04.02 0 3.6 0 3.6h-.7s.03-3.36 0-3.4c0-1.1-.4-1.6-1.3-1.6h-.1c-1.1 0-1.7 1.1-1.7 2.3v2.7h-.7zm5.9-2.7c0-1.6.9-2.9 2.6-2.9c1.2 0 2 .7 2.1 1.9h-.7c-.1-.8-.6-1.3-1.4-1.3h-.1c-1.2 0-1.7 1.1-1.7 2.3c0 1.2.5 2.2 1.7 2.2h.1c.8 0 1.3-.5 1.4-1.2h.7c-.2 1.1-.9 1.8-2.1 1.8c-1.7 0-2.6-1.2-2.6-2.8zm5.8 0c0-2 1.2-2.9 2.5-2.9c1.3 0 2.2 1.1 2.2 2.5c-.03-.02 0 .4 0 .4c0 0-3.99.02-4 0c0 1.6.8 2.2 1.7 2.2h.1c.8 0 1.2-.3 1.4-1.1h.8c-.3 1.1-1.1 1.7-2.2 1.7c-1.4 0-2.5-1-2.5-2.8zm4-.6c-.1-1-.6-1.7-1.5-1.7h-.1c-.7 0-1.5.4-1.7 1.7h3.3zm1.8 1.7h.7c.1.7.6 1.1 1.4 1.1h.1c.8 0 1.2-.4 1.2-1c0-.4-.2-.6-.9-.8l-.8-.2c-.8-.2-1.5-.5-1.5-1.5c0-1 .9-1.6 1.9-1.6c1.4 0 2.1.9 2.1 1.8h-.7c-.1-.6-.5-1.2-1.3-1.2h-.1c-.8 0-1.2.5-1.2 1c0 .5.3.7 1 .8l.9.2c.7.2 1.4.5 1.4 1.5c0 1-.8 1.6-2 1.6c-1.5 0-2.2-.7-2.2-1.7z" stroke="none" fill="#192d39"/></g><g id="Polygon16983"><path d="m14.8 38.9c-.7 0-1-.3-1-1V34h-1.3v-.6h1.3v-1.8h.7v1.8h1.4v.6h-1.4v3.8c0 .4.1.5.5.5c-.05-.02 1.1 0 1.1 0v.6s-1.26-.02-1.3 0zm2.4 0v-7.7h.7s-.02 3.11 0 3.1c.4-.6 1-1 2-1c1.2 0 1.8.8 1.8 1.9c.03.05 0 3.7 0 3.7h-.7s.01-3.43 0-3.4c0-1.1-.4-1.6-1.3-1.6h-.1c-.9 0-1.7.7-1.7 2c-.02.01 0 3 0 3h-.7zm5.9-2.8c0-1.9 1.2-2.8 2.5-2.8c1.3 0 2.2 1 2.2 2.4c-.02.05 0 .5 0 .5c0 0-3.98-.02-4 0c0 1.5.8 2.2 1.7 2.2h.1c.8 0 1.2-.4 1.5-1.1h.7c-.3 1.1-1.1 1.7-2.2 1.7c-1.4 0-2.5-1-2.5-2.9zm4-.5c-.1-1-.6-1.7-1.5-1.7h-.1c-.7 0-1.5.4-1.7 1.7h3.3zm4.4 1.6h.8c0 .8.6 1.2 1.4 1.2h.1c.8 0 1.2-.4 1.2-1c0-.4-.2-.7-.9-.9l-.8-.1c-.9-.2-1.5-.6-1.5-1.5c0-1.1.9-1.6 1.9-1.6c1.4 0 2 .8 2.1 1.7h-.7c-.1-.6-.6-1.1-1.3-1.1h-.1c-.8 0-1.2.4-1.2.9c0 .5.3.7 1 .9l.8.2c.8.2 1.4.5 1.4 1.4c0 1.1-.8 1.7-2 1.7c-1.4 0-2.1-.8-2.2-1.8zm5.7-.2c-.04.01 0-3.6 0-3.6h.7s-.02 3.39 0 3.4c0 1 .4 1.6 1.3 1.6h.1c.8 0 1.6-.8 1.6-2.1v-2.9h.7v5.5h-.7v-1.1c-.3.8-.9 1.2-1.8 1.2c-1.3 0-1.9-.8-1.9-2zm6.2 1.9v-5.5h.6s.04 1.23 0 1.2c.3-.8 1-1.3 1.7-1.3c.04.03.5 0 .5 0v.7s-.4-.02-.4 0c-1.1 0-1.7.8-1.7 2.2v2.7h-.7zm3.9 0v-5.5h.7s-.03 1.23 0 1.2c.2-.8.9-1.3 1.7-1.3c-.02.03.5 0 .5 0v.7s-.47-.02-.5 0c-1 0-1.7.8-1.7 2.2c.03.01 0 2.7 0 2.7h-.7zm3.3-2.8c0-1.7 1.2-2.8 2.6-2.8c1.4 0 2.5 1.1 2.5 2.8c0 1.7-1.1 2.9-2.5 2.9c-1.4 0-2.6-1.2-2.6-2.9zm2.6 2.3c1 0 1.8-.9 1.8-2.3c0-1.4-.8-2.2-1.8-2.2h-.1c-1 0-1.7.8-1.7 2.2c0 1.4.7 2.3 1.7 2.3h.1zm3.9-1.4c-.03.01 0-3.6 0-3.6h.7s-.01 3.39 0 3.4c0 1 .4 1.6 1.3 1.6h.1c.8 0 1.6-.8 1.6-2.1v-2.9h.7v5.5h-.7s.01-1.05 0-1.1c-.3.8-.9 1.2-1.8 1.2c-1.2 0-1.9-.8-1.9-2zm6.2 1.9v-5.5h.7v.9c.3-.6 1-1 1.9-1c1.1 0 2 .7 2 2c-.05-.02 0 3.6 0 3.6h-.8s.04-3.4 0-3.4c0-1.1-.4-1.6-1.3-1.6c-1.2 0-1.8 1-1.8 2.2v2.8h-.7zm5.9-2.8c0-1.7 1-2.8 2.5-2.8c.7 0 1.5.4 1.8 1c.02-.04 0-3.1 0-3.1h.7v7.7h-.7s.02-.9 0-.9c-.3.6-1.1 1-1.8 1c-1.5 0-2.5-1.1-2.5-2.9zm2.6 2.3c1.1 0 1.7-1.1 1.7-2.3c0-1.2-.6-2.2-1.7-2.2h-.1c-1.2 0-1.7 1-1.7 2.2c0 1.2.5 2.3 1.7 2.3h.1zm4.1-6v-.9h.9v.9h-.9zm.1 6.5v-5.5h.7v5.5h-.7zm2.5 0v-5.5h.7s-.02.9 0 .9c.3-.6 1-1 1.9-1c1.1 0 1.9.7 1.9 2c.03-.02 0 3.6 0 3.6h-.7s.02-3.4 0-3.4c0-1.1-.4-1.6-1.3-1.6h-.1c-1.2 0-1.7 1-1.7 2.2c-.02.03 0 2.8 0 2.8h-.7zm5.8.7h.7c.2.7.8 1.1 1.7 1.1h.1c1 0 1.8-.5 1.8-1.9v-.9c-.3.6-.9 1-1.8 1c-1.4 0-2.4-1-2.4-2.8c0-1.7 1-2.8 2.4-2.8c.9 0 1.5.4 1.8 1c.01-.04 0-.9 0-.9h.7s.02 5.44 0 5.4c0 1.5-.9 2.5-2.5 2.5c-1.6 0-2.4-.7-2.5-1.7zm2.6-1.3c1 0 1.7-.8 1.7-2.2c0-1.3-.7-2.2-1.7-2.2h-.1c-1 0-1.7.9-1.7 2.2c0 1.4.7 2.2 1.7 2.2h.1zm6.6-2.2c0-1.7 1-2.8 2.5-2.8c.7 0 1.5.4 1.8 1v-3.1h.7v7.7h-.7s-.01-.9 0-.9c-.3.6-1.1 1-1.8 1c-1.5 0-2.5-1.1-2.5-2.9zm2.5 2.3c1.2 0 1.8-1.1 1.8-2.3c0-1.2-.6-2.2-1.8-2.2c-1.2 0-1.8 1-1.8 2.2c0 1.2.6 2.3 1.8 2.3zm4.2-6v-.9h.8v.9h-.8zm.1 6.5v-5.5h.7v5.5h-.7zm2-1.7h.7c.1.8.7 1.2 1.4 1.2h.2c.7 0 1.2-.4 1.2-1c0-.4-.2-.7-1-.9l-.8-.1c-.8-.2-1.5-.6-1.5-1.5c0-1.1 1-1.6 2-1.6c1.4 0 2 .8 2.1 1.7h-.7c-.1-.6-.6-1.1-1.3-1.1h-.2c-.7 0-1.2.4-1.2.9c0 .5.3.7 1 .9l.9.2c.8.2 1.4.5 1.4 1.4c0 1.1-.8 1.7-2 1.7c-1.4 0-2.1-.8-2.2-1.8zm7.2 1.7c-.7 0-1-.3-1-1c-.04-.01 0-3.9 0-3.9h-1.3v-.6h1.3v-1.8h.7v1.8h1.4v.6h-1.4s-.02 3.84 0 3.8c0 .4.1.5.4.5c.02-.02 1.1 0 1.1 0v.6s-1.19-.02-1.2 0zm2.3 0v-5.5h.7v1.2c.2-.8.9-1.3 1.7-1.3c-.01.03.5 0 .5 0v.7s-.45-.02-.5 0c-1 0-1.7.8-1.7 2.2c.04.01 0 2.7 0 2.7h-.7zm3.9-6.5v-.9h.8v.9h-.8zm.1 6.5v-5.5h.7v5.5h-.7zm2.1-2.8c0-1.6.9-2.8 2.5-2.8c1.2 0 2.1.7 2.2 1.8h-.7c-.1-.7-.7-1.2-1.4-1.2h-.1c-1.2 0-1.8 1-1.8 2.2c0 1.2.6 2.3 1.8 2.3h.1c.7 0 1.2-.6 1.4-1.3h.7c-.2 1.2-1 1.9-2.2 1.9c-1.6 0-2.5-1.3-2.5-2.9zm7.6 2.8c-.7 0-1-.3-1-1c-.04-.01 0-3.9 0-3.9h-1.3v-.6h1.3v-1.8h.7v1.8h1.3v.6h-1.3s-.03 3.84 0 3.8c0 .4.1.5.4.5c.01-.02 1.1 0 1.1 0v.6s-1.2-.02-1.2 0zm2.2 0v-1.1h1.1v1.1h-1.1z" stroke="none" fill="#192d39"/></g><g id="Polygon16982"><path d="m13 19.9c0-2.3 1.3-4 3.5-4c1.7 0 2.9 1.1 3 2.5h-.8c-.1-.9-.8-1.8-2.2-1.8h-.1c-1.7 0-2.7 1.5-2.7 3.3c0 1.8 1 3.2 2.7 3.2h.1c1.4 0 2.1-.8 2.2-1.7h.8c-.1 1.4-1.3 2.4-3 2.4c-2.2 0-3.5-1.7-3.5-3.9zm8.1 3.8V16s3.18.03 3.2 0c1.2 0 2.1.8 2.1 2c0 .9-.6 1.6-1.2 1.8c.6.1 1.4.7 1.4 1.8c0 1.3-1 2.1-2.2 2.1c-.04.03-3.3 0-3.3 0zm.7-4.2s2.4-.03 2.4 0c.8 0 1.4-.5 1.4-1.4c0-.9-.6-1.4-1.4-1.4c0 .04-2.4 0-2.4 0v2.8zm0 3.5s2.39.02 2.4 0c.9 0 1.6-.5 1.6-1.4c0-.9-.7-1.4-1.6-1.4h-2.4v2.8zm6.5.7V16s2.63.03 2.6 0c2.1 0 3.5 1.5 3.5 3.9c0 2.4-1.4 3.8-3.5 3.8c.03.03-2.6 0-2.6 0zm.8-.7s1.71.02 1.7 0c1.8 0 2.8-1.1 2.8-3.1c0-2-1-3.2-2.8-3.2c.01.04-1.7 0-1.7 0v6.3zm9.1-.9h.7c.1.7.7 1.1 1.4 1.1h.1c.8 0 1.3-.3 1.3-1c0-.4-.2-.6-1-.8l-.8-.2c-.8-.2-1.5-.5-1.5-1.5c0-1 .9-1.6 2-1.6c1.4 0 2 .9 2.1 1.8h-.8c0-.6-.5-1.2-1.3-1.2h-.1c-.7 0-1.2.5-1.2 1c0 .5.3.7 1 .9l.9.1c.8.2 1.4.6 1.4 1.5c0 1-.8 1.6-2 1.6c-1.4 0-2.1-.7-2.2-1.7zm5.7 1.6V16h.7v5.1l2.9-2.9h1l-2.3 2.2l2.4 3.3h-.9l-2-2.8l-1.1 1.1v1.7h-.7zm10.4-5.5l-2.2 5.3s-.04 1.09 0 1.1c0 .7-.4.9-1.1.9c.01.04-1.7 0-1.7 0v-.6s1.6.04 1.6 0c.3 0 .4-.1.4-.4c.04 0 0-.9 0-.9L49 18.2h.8l1.9 4.5l1.9-4.5h.7zm1.1 5.5V16h.7v7.7h-.7zm2.4-6.5v-.9h.8v.9h-.8zm0 6.5v-5.5h.7v5.5h-.7zm2.5 0v-5.5h.7s.02.95 0 1c.3-.7 1-1.1 1.9-1.1c1.1 0 2 .7 2 2c-.03.03 0 3.6 0 3.6h-.7s-.04-3.35 0-3.3c0-1.1-.5-1.7-1.4-1.7c-1.2 0-1.8 1.1-1.8 2.3c.02-.02 0 2.7 0 2.7h-.7zm5.9-2.7c0-2 1.2-2.9 2.5-2.9c1.3 0 2.2 1.1 2.2 2.5c.02 0 0 .4 0 .4c0 0-3.94.03-3.9 0c0 1.6.8 2.2 1.7 2.2h.1c.7 0 1.2-.3 1.4-1h.7c-.2 1.1-1.1 1.6-2.2 1.6c-1.4 0-2.5-.9-2.5-2.8zm4-.6c0-.9-.6-1.7-1.5-1.7h-.1c-.7 0-1.5.4-1.6 1.7h3.2zm1.7 4.6v-.4s.3-.04.3 0c.4 0 .7-.3.7-.7c-.04-.01 0-.2 0-.2h-.6v-1.1h1.1s-.05 1.35 0 1.3c0 .7-.4 1.1-1.1 1.1h-.4zm7.2-1.3c-.7 0-1-.2-1-1c-.02.04 0-3.9 0-3.9h-1.3v-.6h1.3v-1.8h.7v1.8h1.4v.6h-1.4v3.9c0 .3.1.4.4.4c.04.03 1.1 0 1.1 0v.6s-1.17.03-1.2 0zm2.3 0V16h.8s-.04 3.16 0 3.2c.3-.7 1-1.1 1.9-1.1c1.3 0 1.9.8 1.9 2c.01 0 0 3.6 0 3.6h-.7v-3.4c0-1-.4-1.6-1.3-1.6h-.1c-.9 0-1.7.8-1.7 2.1c-.04-.04 0 2.9 0 2.9h-.8zm6-2.7c0-2 1.2-2.9 2.4-2.9c1.4 0 2.3 1.1 2.3 2.5c-.04 0 0 .4 0 .4c0 0-4 .03-4 0c0 1.6.8 2.2 1.7 2.2h.1c.7 0 1.2-.3 1.4-1h.8c-.3 1.1-1.1 1.6-2.3 1.6c-1.3 0-2.4-.9-2.4-2.8zm3.9-.6c0-.9-.5-1.7-1.4-1.7h-.1c-.7 0-1.5.4-1.7 1.7h3.2zm4.5 4.1h.7c.2.7.8 1 1.7 1h.2c.9 0 1.7-.5 1.7-1.9v-.9c-.3.6-.9 1-1.8 1c-1.4 0-2.4-1-2.4-2.7c0-1.8 1-2.9 2.4-2.9c.9 0 1.5.4 1.8 1c.03.01 0-.9 0-.9h.7s.04 5.49 0 5.5c0 1.4-.9 2.4-2.5 2.4c-1.6 0-2.4-.6-2.5-1.6zm2.6-1.4c1 0 1.7-.7 1.7-2.1c0-1.4-.7-2.3-1.7-2.3h-.1c-1 0-1.7.9-1.7 2.3c0 1.4.7 2.1 1.7 2.1h.1zm4.2.6v-5.5h.7s-.04 1.28 0 1.3c.2-.9.9-1.3 1.7-1.3c-.04-.02.5 0 .5 0v.6s-.48.03-.5 0c-1 0-1.7.9-1.7 2.3v2.6h-.7zm3.3-2.7c0-2 1.2-2.9 2.5-2.9c1.3 0 2.2 1.1 2.2 2.5c.02 0 0 .4 0 .4c0 0-3.94.03-3.9 0c0 1.6.8 2.2 1.7 2.2h.1c.7 0 1.2-.3 1.4-1h.7c-.2 1.1-1.1 1.6-2.2 1.6c-1.4 0-2.5-.9-2.5-2.8zm4-.6c0-.9-.6-1.7-1.5-1.7h-.1c-.7 0-1.5.4-1.6 1.7h3.2zm1.8.6c0-2 1.2-2.9 2.5-2.9c1.3 0 2.2 1.1 2.2 2.5v.4s-3.96.03-4 0c.1 1.6.9 2.2 1.8 2.2c.8 0 1.3-.3 1.5-1h.7c-.2 1.1-1.1 1.6-2.2 1.6c-1.4 0-2.5-.9-2.5-2.8zm4-.6c0-.9-.6-1.7-1.5-1.7h-.1c-.7 0-1.5.4-1.6 1.7h3.2zm2.1 3.3v-5.5h.8s-.04.95 0 1c.3-.7 1-1.1 1.9-1.1c1.1 0 1.9.7 1.9 2c.01.03 0 3.6 0 3.6h-.7v-3.3c0-1.1-.4-1.7-1.3-1.7h-.1c-1.2 0-1.7 1.1-1.7 2.3c-.04-.02 0 2.7 0 2.7h-.8zm8.7-2.7c0-2 1.2-2.9 2.5-2.9c1.3 0 2.2 1.1 2.2 2.5v.4s-3.95.03-4 0c.1 1.6.9 2.2 1.8 2.2c.8 0 1.3-.3 1.5-1h.7c-.2 1.1-1.1 1.6-2.2 1.6c-1.4 0-2.5-.9-2.5-2.8zm4-.6c0-.9-.6-1.7-1.5-1.7h-.1c-.7 0-1.5.4-1.6 1.7h3.2zm1.3 3.3l2.1-2.8l-2-2.7h.8l1.6 2.2l1.7-2.2h.8l-2.1 2.7l2.2 2.8h-.9l-1.7-2.2l-1.7 2.2h-.8zm6.2 2.2v-7.7h.7s-.02.91 0 .9c.3-.6 1.1-1 1.8-1c1.4 0 2.5 1.1 2.5 2.9c0 1.7-1.1 2.8-2.5 2.8c-.7 0-1.5-.3-1.8-.9c-.02-.05 0 3 0 3h-.7zm2.5-2.7c1.2 0 1.7-1 1.7-2.2c0-1.2-.5-2.3-1.7-2.3h-.1c-1.1 0-1.7 1.1-1.7 2.3c0 1.2.6 2.2 1.7 2.2h.1zm3.6-1c0-1.2 1-1.6 1.9-1.6c-.03-.04 1.7-.2 1.7-.2v-.2c0-.9-.5-1.5-1.4-1.5c-.7 0-1.3.4-1.4 1.1h-.7c.1-1 .9-1.7 2.1-1.7c1.4 0 2.1 1 2.1 2.1v2.3c0 .3 0 .8.1 1.2h-.7v-.8c-.3.5-1 .9-2 .9c-1 0-1.7-.7-1.7-1.6zm1.9 1c.8 0 1.7-.6 1.7-1.5v-.7s-1.58.12-1.6.1c-.8.1-1.3.5-1.3 1.1c0 .6.5 1 1.1 1h.1zm4.1.5v-5.5h.7s.04.95 0 1c.4-.7 1.1-1.1 2-1.1c1.1 0 1.9.7 1.9 2c-.01.03 0 3.6 0 3.6h-.7s-.02-3.35 0-3.3c0-1.1-.5-1.7-1.3-1.7h-.1c-1.2 0-1.8 1.1-1.8 2.3c.04-.02 0 2.7 0 2.7h-.7zm5.9-1.6h.7c.1.7.6 1.1 1.4 1.1h.1c.8 0 1.3-.3 1.3-1c0-.4-.3-.6-1-.8l-.8-.2c-.8-.2-1.5-.5-1.5-1.5c0-1 .9-1.6 2-1.6c1.3 0 2 .9 2 1.8h-.7c-.1-.6-.5-1.2-1.3-1.2h-.1c-.8 0-1.2.5-1.2 1c0 .5.3.7 1 .9l.9.1c.7.2 1.4.6 1.4 1.5c0 1-.8 1.6-2 1.6c-1.5 0-2.2-.7-2.2-1.7zm5.3-1.1c0-2 1.2-2.9 2.5-2.9c1.3 0 2.2 1.1 2.2 2.5v.4s-3.97.03-4 0c.1 1.6.9 2.2 1.8 2.2c.8 0 1.3-.3 1.5-1h.7c-.3 1.1-1.1 1.6-2.2 1.6c-1.4 0-2.5-.9-2.5-2.8zm4-.6c-.1-.9-.6-1.7-1.5-1.7h-.1c-.7 0-1.5.4-1.6 1.7h3.2zm4.5.6c0-1.7 1.2-2.9 2.6-2.9c1.4 0 2.5 1.2 2.5 2.9c0 1.7-1.1 2.8-2.5 2.8c-1.4 0-2.6-1.1-2.6-2.8zm2.6 2.2c1 0 1.8-.8 1.8-2.2c0-1.4-.8-2.3-1.8-2.3h-.1c-1 0-1.7.9-1.7 2.3c0 1.4.7 2.2 1.7 2.2h.1zm4.4.5v-4.9h-1.3v-.6h1.3s-.02-1.18 0-1.2c0-.7.3-1 1-1c.03.03 1.4 0 1.4 0v.6s-1.26.03-1.3 0c-.3 0-.4.1-.4.5v1.1h1.4v.6h-1.4v4.9h-.7zm5.9 0V16h.8v7h4.6v.7h-5.4zm6.1-1.5c0-1.2 1.1-1.6 1.9-1.6c.02-.04 1.8-.2 1.8-.2c0 0-.04-.19 0-.2c0-.9-.6-1.5-1.4-1.5h-.1c-.7 0-1.3.4-1.3 1.1h-.8c.1-1 1-1.7 2.1-1.7c1.5 0 2.2 1 2.2 2.1v3.5h-.6c-.1-.2-.1-.6-.1-.8c-.2.5-1 .9-1.9.9c-1 0-1.8-.7-1.8-1.6zm2 1c.7 0 1.7-.6 1.7-1.5c-.04.05 0-.7 0-.7c0 0-1.64.12-1.6.1c-.8.1-1.4.5-1.4 1.1c0 .6.5 1 1.1 1h.2zm4.1.5v-5.5h.7v1c.3-.7 1-1.1 1.9-1.1c1.1 0 1.9.7 1.9 2c.04.03 0 3.6 0 3.6h-.7s.03-3.35 0-3.3c0-1.1-.4-1.7-1.3-1.7h-.1c-1.1 0-1.7 1.1-1.7 2.3v2.7h-.7zm5.9-2.7c0-2 1.2-2.9 2.5-2.9c1.3 0 2.2 1.1 2.2 2.5v.4s-3.97.03-4 0c.1 1.6.9 2.2 1.8 2.2c.8 0 1.3-.3 1.5-1h.7c-.3 1.1-1.1 1.6-2.2 1.6c-1.4 0-2.5-.9-2.5-2.8zm4-.6c-.1-.9-.6-1.7-1.5-1.7h-.1c-.7 0-1.5.4-1.6 1.7h3.2zm4.6-.5c0-2.3 1.3-4 3.5-4c1.7 0 2.9 1.1 3 2.5h-.8c-.1-.9-.8-1.8-2.1-1.8h-.1c-1.8 0-2.7 1.5-2.7 3.3c0 1.8.9 3.2 2.7 3.2h.1c1.3 0 2-.8 2.1-1.7h.8c-.1 1.4-1.3 2.4-3 2.4c-2.2 0-3.5-1.7-3.5-3.9zM217 21c0-1.7 1.1-2.9 2.5-2.9c1.4 0 2.5 1.2 2.5 2.9c0 1.7-1.1 2.8-2.5 2.8c-1.4 0-2.5-1.1-2.5-2.8zm2.6 2.2c1 0 1.7-.8 1.7-2.2c0-1.4-.7-2.3-1.7-2.3h-.1c-1 0-1.8.9-1.8 2.3c0 1.4.8 2.2 1.8 2.2h.1zm7.4-5h.8l-2.1 5.5h-.9l-2.1-5.5h.7l1.8 4.9l1.8-4.9zm1.4 2.8c0-2 1.2-2.9 2.5-2.9c1.3 0 2.2 1.1 2.2 2.5v.4s-3.97.03-4 0c.1 1.6.9 2.2 1.8 2.2c.8 0 1.3-.3 1.5-1h.7c-.3 1.1-1.1 1.6-2.2 1.6c-1.4 0-2.5-.9-2.5-2.8zm4-.6c-.1-.9-.6-1.7-1.5-1.7h-.1c-.7 0-1.5.4-1.6 1.7h3.2zm10.3-4.4h.8v7.7h-1l-4.3-6.6v6.6h-.7V16h1l4.2 6.6V16zm2.3 6.2c0-1.2 1.1-1.6 1.9-1.6c.03-.04 1.8-.2 1.8-.2c0 0-.03-.19 0-.2c0-.9-.6-1.5-1.4-1.5h-.1c-.7 0-1.3.4-1.3 1.1h-.8c.1-1 1-1.7 2.2-1.7c1.4 0 2.1 1 2.1 2.1v3.5h-.6c-.1-.2-.1-.6-.1-.8c-.2.5-1 .9-1.9.9c-1 0-1.8-.7-1.8-1.6zm2 1c.7 0 1.7-.6 1.7-1.5c-.03.05 0-.7 0-.7c0 0-1.63.12-1.6.1c-.8.1-1.3.5-1.3 1.1c0 .6.4 1 1.1 1h.1zm5.6.5c-.7 0-1-.2-1-1c-.05.04 0-3.9 0-3.9h-1.3v-.6h1.3v-1.8h.7v1.8h1.3v.6h-1.3s-.04 3.89 0 3.9c0 .3.1.4.4.4c0 .03 1.1 0 1.1 0v.6s-1.21.03-1.2 0zm2.3-6.5v-.9h.8v.9h-.8zm0 6.5v-5.5h.7v5.5h-.7zM257 21c0-1.7 1.2-2.9 2.6-2.9c1.4 0 2.5 1.2 2.5 2.9c0 1.7-1.1 2.8-2.5 2.8c-1.4 0-2.6-1.1-2.6-2.8zm2.6 2.2c1 0 1.8-.8 1.8-2.2c0-1.4-.8-2.3-1.8-2.3h-.1c-1 0-1.7.9-1.7 2.3c0 1.4.7 2.2 1.7 2.2h.1zm3.9.5v-5.5h.7s.04.95 0 1c.4-.7 1.1-1.1 2-1.1c1.1 0 1.9.7 1.9 2c-.01.03 0 3.6 0 3.6h-.7s-.02-3.35 0-3.3c0-1.1-.5-1.7-1.3-1.7h-.1c-1.2 0-1.8 1.1-1.8 2.3c.04-.02 0 2.7 0 2.7h-.7zm6-1.5c0-1.2 1-1.6 1.9-1.6c-.03-.04 1.7-.2 1.7-.2v-.2c0-.9-.5-1.5-1.4-1.5c-.7 0-1.3.4-1.4 1.1h-.7c.1-1 .9-1.7 2.1-1.7c1.4 0 2.1 1 2.1 2.1v2.3c0 .3 0 .8.1 1.2h-.7v-.8c-.3.5-1 .9-2 .9c-1 0-1.7-.7-1.7-1.6zm1.9 1c.8 0 1.7-.6 1.7-1.5v-.7s-1.59.12-1.6.1c-.8.1-1.3.5-1.3 1.1c0 .6.5 1 1.1 1h.1zm4.1.5V16h.7v7.7h-.7zm5.4 0V16s3.12.03 3.1 0c1.3 0 2.4.8 2.4 2.3c0 1.5-1.1 2.3-2.4 2.3c.02-.04-2.3 0-2.3 0v3.1h-.8zm.8-3.9s2.16.05 2.2 0c1 0 1.8-.4 1.8-1.5c0-1-.8-1.6-1.8-1.6c-.04.04-2.2 0-2.2 0v3.1zm5.6 2.4c0-1.2 1-1.6 1.9-1.6c-.01-.04 1.7-.2 1.7-.2c0 0 .03-.19 0-.2c0-.9-.5-1.5-1.3-1.5h-.1c-.7 0-1.3.4-1.4 1.1h-.7c.1-1 .9-1.7 2.1-1.7c1.5 0 2.1 1 2.1 2.1v2.3c0 .3 0 .8.1 1.2h-.7v-.8c-.2.5-1 .9-2 .9c-.9 0-1.7-.7-1.7-1.6zm1.9 1c.8 0 1.7-.6 1.7-1.5c.03.05 0-.7 0-.7c0 0-1.57.12-1.6.1c-.7.1-1.3.5-1.3 1.1c0 .6.5 1 1.1 1h.1zm4.1.5v-5.5h.7v1.3c.3-.9 1-1.3 1.7-1.3c.01-.02.5 0 .5 0v.6s-.43.03-.4 0c-1.1 0-1.7.9-1.7 2.3c-.04-.04 0 2.6 0 2.6h-.8zm4 0V16h.7v5.1l2.9-2.9h1l-2.3 2.2l2.4 3.3h-.9l-2-2.8L298 22v1.7h-.7zm8.2-2.7c0-1.7 1.1-2.9 2.5-2.9c1.4 0 2.5 1.2 2.5 2.9c0 1.7-1.1 2.8-2.5 2.8c-1.4 0-2.5-1.1-2.5-2.8zm2.5 2.2c1 0 1.8-.8 1.8-2.2c0-1.4-.8-2.3-1.8-2.3h-.1c-1 0-1.7.9-1.7 2.3c0 1.4.7 2.2 1.7 2.2h.1zm3.9.5v-5.5h.7v1.3c.3-.9.9-1.3 1.7-1.3c0-.02.5 0 .5 0v.6s-.44.03-.4 0c-1.1 0-1.7.9-1.7 2.3c-.05-.04 0 2.6 0 2.6h-.8z" stroke="none" fill="#192d39"/></g><g id="Polygon16981"><path d="m13 4.7C13 2.3 14.5.8 16.5.8c2 0 3.5 1.5 3.5 3.9c0 2.5-1.5 4-3.5 4c-2 0-3.5-1.5-3.5-4zM16.5 8c1.6 0 2.7-1.3 2.7-3.3c0-2-1.1-3.2-2.7-3.2h-.1c-1.5 0-2.7 1.2-2.7 3.2c0 2 1.2 3.3 2.7 3.3h.1zm8.7-4.9h.7l-2.1 5.5h-.9l-2.1-5.5h.8l1.8 4.8l1.8-4.8zm1.4 2.7C26.6 3.9 27.7 3 29 3c1.4 0 2.2 1 2.2 2.4c.03.05 0 .5 0 .5c0 0-3.93-.02-3.9 0c0 1.5.8 2.2 1.7 2.2h.1c.7 0 1.2-.4 1.4-1.1h.7C31 8.1 30.1 8.7 29 8.7c-1.4 0-2.4-1-2.4-2.9zm3.9-.5c0-1-.6-1.7-1.4-1.7h-.2c-.6 0-1.5.4-1.6 1.7h3.2zm2.2 3.3V3.1h.6s.03 1.23 0 1.2c.3-.8 1-1.3 1.7-1.3c.04.03.5 0 .5 0v.7s-.41-.02-.4 0c-1.1 0-1.7.8-1.7 2.2v2.7h-.7zm6.3-2c0-.9.7-1.6 1.3-1.8c-.7-.2-1.4-.9-1.4-1.9c0-1.3 1-2.1 2.4-2.1c1.5 0 2.5.8 2.5 2.1c0 1-.8 1.7-1.5 1.9c.7.2 1.3.9 1.3 1.8c0 1.3-.9 2.1-2.3 2.1c-1.3 0-2.3-.8-2.3-2.1zm2.4-2.2c.9 0 1.6-.6 1.6-1.4c0-.9-.7-1.5-1.6-1.5h-.1c-1 0-1.7.6-1.7 1.5c0 .8.7 1.4 1.7 1.4h.1zm0 3.6c.8 0 1.5-.6 1.5-1.4c0-.8-.7-1.4-1.5-1.4h-.1c-.9 0-1.6.6-1.6 1.4c0 .8.7 1.4 1.6 1.4h.1zm3.7-3.3c0-2.6 1-3.9 2.9-3.9c1.8 0 2.9 1.3 2.9 3.9c0 2.6-1.1 4-2.9 4c-1.9 0-2.9-1.4-2.9-4zM48 8c1 0 2.1-.7 2.1-3.3c0-2.5-1.1-3.2-2.1-3.2h-.1c-.9 0-2.1.7-2.1 3.2C45.8 7.3 47 8 47.9 8h.1zm3.9-4.9c0-1.4.7-2.3 1.8-2.3c1.1 0 1.8.9 1.8 2.3c0 1.3-.7 2.2-1.8 2.2c-1.1 0-1.8-.9-1.8-2.2zm1.9 5.5L58.5.9h.7l-4.6 7.7h-.8zm-.1-3.9c.8 0 1.1-.8 1.1-1.6c0-.9-.3-1.7-1.1-1.7c-.7 0-1.1.8-1.1 1.7c0 .8.4 1.6 1.1 1.6zm3.8 1.7c0-1.3.7-2.2 1.8-2.2c1.1 0 1.8.9 1.8 2.2c0 1.4-.7 2.2-1.8 2.2c-1.1 0-1.8-.8-1.8-2.2zm1.8 1.7c.8 0 1.1-.9 1.1-1.7c0-.8-.3-1.7-1.1-1.7c-.7 0-1.1.9-1.1 1.7c0 .8.4 1.7 1.1 1.7zm5.5-2.3c0-1.7 1.1-2.8 2.5-2.8c1.4 0 2.6 1.1 2.6 2.8c0 1.7-1.2 2.9-2.6 2.9c-1.4 0-2.5-1.2-2.5-2.9zm2.6 2.3c1 0 1.7-.9 1.7-2.3c0-1.4-.7-2.2-1.7-2.2h-.1c-1 0-1.8.8-1.8 2.2c0 1.4.8 2.3 1.8 2.3h.1zm4.3.5V3.7h-1.2v-.6h1.2s.04-1.23 0-1.2c0-.7.4-1 1.1-1c-.02-.02 1.4 0 1.4 0v.6s-1.31-.02-1.3 0c-.3 0-.5.1-.5.4c.05.02 0 1.2 0 1.2h1.5v.6h-1.5v4.9h-.7zm7.2 0c-.8 0-1.1-.3-1.1-1V3.7h-1.3v-.6h1.3V1.3h.7v1.8h1.4v.6h-1.4s.02 3.84 0 3.8c0 .4.1.5.5.5c-.04-.02 1.1 0 1.1 0v.6s-1.25-.02-1.2 0zm2.3 0V.9h.7v3.1c.4-.6 1-1 2-1c1.2 0 1.8.8 1.8 1.9c.04.05 0 3.7 0 3.7h-.7s.02-3.43 0-3.4c0-1.1-.4-1.6-1.3-1.6h-.1c-.9 0-1.7.7-1.7 2v3h-.7zm5.9-2.8c0-1.9 1.2-2.8 2.5-2.8c1.3 0 2.2 1 2.2 2.4v.5s-3.97-.02-4 0c0 1.5.9 2.2 1.8 2.2c.8 0 1.3-.4 1.5-1.1h.7c-.3 1.1-1.1 1.7-2.2 1.7c-1.4 0-2.5-1-2.5-2.9zm4-.5c-.1-1-.6-1.7-1.5-1.7h-.1c-.7 0-1.5.4-1.7 1.7h3.3zm4.6 1.8c0-1.2 1-1.6 1.9-1.7l1.7-.1v-.2c0-1-.5-1.5-1.4-1.5c-.7 0-1.3.3-1.4 1h-.7c0-1 .9-1.6 2.1-1.6c1.4 0 2.1.9 2.1 2.1v2.3c0 .3 0 .8.1 1.2h-.7c0-.3-.1-.6-.1-.9c-.2.5-.9 1-1.9 1c-1 0-1.7-.7-1.7-1.6zm1.9 1c.7 0 1.7-.7 1.7-1.5v-.7s-1.61.07-1.6.1c-.8 0-1.3.4-1.3 1c0 .6.4 1.1 1.1 1.1h.1zm4.1 2.7V3.1h.7s.02.86 0 .9c.4-.6 1.1-1 1.9-1c1.4 0 2.4 1.1 2.4 2.8c0 1.8-1 2.9-2.4 2.9c-.8 0-1.5-.4-1.9-1c.02 0 0 3.1 0 3.1h-.7zm2.5-2.7c1.2 0 1.8-1.1 1.8-2.3c0-1.2-.6-2.2-1.8-2.2c-1.2 0-1.8 1-1.8 2.2c0 1.2.6 2.3 1.8 2.3zm3.6-1c0-1.2 1.1-1.6 1.9-1.7c.02.01 1.8-.1 1.8-.1c0 0-.04-.24 0-.2c0-1-.6-1.5-1.4-1.5h-.1c-.7 0-1.3.3-1.4 1h-.7c.1-1 1-1.6 2.1-1.6c1.5 0 2.2.9 2.2 2.1v3.5h-.6c-.1-.3-.1-.6-.1-.9c-.2.5-1 1-1.9 1c-1 0-1.8-.7-1.8-1.6zm2 1c.7 0 1.7-.7 1.7-1.5c-.04 0 0-.7 0-.7c0 0-1.64.07-1.6.1c-.8 0-1.4.4-1.4 1c0 .6.5 1.1 1.1 1.1h.2zm4.1.5V3.1h.6s.03 1.23 0 1.2c.3-.8 1-1.3 1.7-1.3c.04.03.5 0 .5 0v.7s-.41-.02-.4 0c-1.1 0-1.7.8-1.7 2.2v2.7h-.7zm5.5 0c-.7 0-1-.3-1-1c-.04-.01 0-3.9 0-3.9h-1.3v-.6h1.3V1.3h.7v1.8h1.4v.6h-1.4s-.02 3.84 0 3.8c0 .4.1.5.4.5c.02-.02 1.1 0 1.1 0v.6s-1.19-.02-1.2 0zm2.3 0V3.1h.7s.04.86 0 .9c.4-.6 1-1 1.9-1c.8 0 1.4.4 1.7 1.1c.4-.7 1.1-1.1 1.9-1.1c1.1 0 1.9.7 1.9 2c.01-.02 0 3.6 0 3.6h-.7V5.2c0-1.1-.4-1.6-1.3-1.6c-1.1 0-1.7 1-1.7 2.2c.03.03 0 2.8 0 2.8h-.7s.01-3.4 0-3.4c0-1.1-.4-1.6-1.3-1.6c-1.1 0-1.7 1-1.7 2.2c.04.03 0 2.8 0 2.8h-.7zm9.5-2.8c0-1.9 1.2-2.8 2.4-2.8c1.4 0 2.3 1 2.3 2.4c-.04.05 0 .5 0 .5c0 0-4-.02-4 0c0 1.5.8 2.2 1.7 2.2h.1c.7 0 1.2-.4 1.4-1.1h.8c-.3 1.1-1.1 1.7-2.3 1.7c-1.3 0-2.4-1-2.4-2.9zm3.9-.5c0-1-.5-1.7-1.4-1.7h-.1c-.7 0-1.5.4-1.7 1.7h3.2zm2.2 3.3V3.1h.7s.02.9 0 .9c.3-.6 1-1 1.9-1c1.1 0 2 .7 2 2c-.03-.02 0 3.6 0 3.6h-.7s-.04-3.4 0-3.4c0-1.1-.5-1.6-1.4-1.6c-1.2 0-1.8 1-1.8 2.2c.02.03 0 2.8 0 2.8h-.7zm7.8 0c-.7 0-1-.3-1-1c-.04-.01 0-3.9 0-3.9h-1.3v-.6h1.3V1.3h.7v1.8h1.3v.6h-1.3s-.03 3.84 0 3.8c0 .4.1.5.4.5c.01-.02 1.1 0 1.1 0v.6s-1.2-.02-1.2 0zm1.9-1.7h.7c.1.8.7 1.2 1.4 1.2h.1c.8 0 1.3-.4 1.3-1c0-.4-.2-.7-1-.9l-.8-.1c-.8-.2-1.5-.6-1.5-1.5c0-1.1.9-1.6 2-1.6c1.4 0 2 .8 2.1 1.7h-.8c0-.6-.5-1.1-1.3-1.1h-.1c-.7 0-1.2.4-1.2.9c0 .5.3.7 1 .9l.9.2c.8.2 1.4.5 1.4 1.4c0 1.1-.8 1.7-2 1.7c-1.4 0-2.1-.8-2.2-1.8zm15-3.8h.7L161 8.6h-1l-1.2-4.8l-1.3 4.8h-.9l-1.8-5.5h.7l1.6 4.8l1.2-4.8h.9l1.3 4.9l1.5-4.9zm1.8-1v-.9h.8v.9h-.8zm0 6.5V3.1h.8v5.5h-.8zm2.5 0V.9h.7v7.7h-.7zm2.5 0V.9h.7v7.7h-.7zm4.9-2.8c0-1.6.9-2.8 2.5-2.8c1.2 0 2.1.7 2.2 1.8h-.7c-.2-.7-.7-1.2-1.4-1.2h-.1c-1.2 0-1.8 1-1.8 2.2c0 1.2.6 2.3 1.8 2.3h.1c.7 0 1.2-.6 1.4-1.3h.7c-.2 1.2-1 1.9-2.2 1.9c-1.6 0-2.5-1.3-2.5-2.9zm5.7 1.3c0-1.2 1.1-1.6 1.9-1.7c.03.01 1.8-.1 1.8-.1c0 0-.04-.24 0-.2c0-1-.6-1.5-1.4-1.5h-.1c-.7 0-1.3.3-1.3 1h-.8c.1-1 1-1.6 2.2-1.6c1.4 0 2.1.9 2.1 2.1v3.5h-.6c-.1-.3-.1-.6-.1-.9c-.2.5-1 1-1.9 1c-1 0-1.8-.7-1.8-1.6zm2 1c.7 0 1.7-.7 1.7-1.5c-.04 0 0-.7 0-.7c0 0-1.63.07-1.6.1c-.8 0-1.4.4-1.4 1c0 .6.5 1.1 1.1 1.1h.2zm4.1 2.7V3.1h.7v.9c.3-.6 1.1-1 1.8-1c1.5 0 2.5 1.1 2.5 2.8c0 1.8-1 2.9-2.5 2.9c-.7 0-1.5-.4-1.8-1v3.1h-.7zm2.5-2.7c1.2 0 1.8-1.1 1.8-2.3c0-1.2-.6-2.2-1.8-2.2c-1.2 0-1.8 1-1.8 2.2c0 1.2.6 2.3 1.8 2.3zm5.4.5c-.7 0-1-.3-1-1c-.04-.01 0-3.9 0-3.9h-1.3v-.6h1.3V1.3h.7v1.8h1.3v.6h-1.3s-.03 3.84 0 3.8c0 .4.1.5.4.5c.01-.02 1.1 0 1.1 0v.6s-1.2-.02-1.2 0zm2.3-1.9c-.03.01 0-3.6 0-3.6h.7s-.02 3.39 0 3.4c0 1 .4 1.6 1.3 1.6h.1c.8 0 1.6-.8 1.6-2.1V3.1h.7v5.5h-.7s.01-1.05 0-1.1c-.3.8-.9 1.2-1.8 1.2c-1.2 0-1.9-.8-1.9-2zm6.2 1.9V3.1h.6s.04 1.23 0 1.2c.3-.8 1-1.3 1.7-1.3c.05.03.5 0 .5 0v.7s-.4-.02-.4 0c-1.1 0-1.7.8-1.7 2.2v2.7h-.7zm3.3-2.8c0-1.9 1.2-2.8 2.5-2.8c1.3 0 2.2 1 2.2 2.4v.5s-3.96-.02-4 0c.1 1.5.9 2.2 1.8 2.2c.8 0 1.3-.4 1.5-1.1h.7c-.2 1.1-1.1 1.7-2.2 1.7c-1.4 0-2.5-1-2.5-2.9zm4-.5c0-1-.6-1.7-1.5-1.7h-.1c-.7 0-1.5.4-1.6 1.7h3.2zm8.6-2.2h.7l-2.1 5.5h-.9l-2.1-5.5h.8l1.8 4.8l1.8-4.8zm1.8-1v-.9h.8v.9h-.8zm0 6.5V3.1h.7v5.5h-.7zm2.2-2.8c0-1.9 1.2-2.8 2.4-2.8c1.4 0 2.2 1 2.2 2.4c.05.05 0 .5 0 .5c0 0-3.91-.02-3.9 0c0 1.5.8 2.2 1.7 2.2h.1c.7 0 1.2-.4 1.4-1.1h.7c-.2 1.1-1.1 1.7-2.2 1.7c-1.3 0-2.4-1-2.4-2.9zm3.9-.5c0-1-.6-1.7-1.4-1.7h-.1c-.7 0-1.5.4-1.7 1.7h3.2zm8.7-2.2h.7l-1.8 5.5h-.9l-1.3-4.8l-1.2 4.8h-.9l-1.8-5.5h.7l1.6 4.8l1.2-4.8h.9l1.3 4.9l1.5-4.9zm1.3 3.8h.7c.1.8.7 1.2 1.5 1.2h.1c.7 0 1.2-.4 1.2-1c0-.4-.2-.7-1-.9l-.8-.1c-.8-.2-1.5-.6-1.5-1.5c0-1.1 1-1.6 2-1.6c1.4 0 2 .8 2.1 1.7h-.7c-.1-.6-.6-1.1-1.3-1.1h-.1c-.8 0-1.2.4-1.2.9c0 .5.3.7 1 .9l.8.2c.8.2 1.4.5 1.4 1.4c0 1.1-.8 1.7-2 1.7c-1.4 0-2.1-.8-2.2-1.8zm8.1-1.1c0-1.7 1.1-2.8 2.5-2.8c1.5 0 2.6 1.1 2.6 2.8c0 1.7-1.1 2.9-2.6 2.9c-1.4 0-2.5-1.2-2.5-2.9zm2.6 2.3c1 0 1.7-.9 1.7-2.3c0-1.4-.7-2.2-1.7-2.2h-.1c-1 0-1.8.8-1.8 2.2c0 1.4.8 2.3 1.8 2.3h.1zm4.3.5V3.7h-1.2v-.6h1.2s.05-1.23 0-1.2c0-.7.4-1 1.1-1c-.01-.02 1.4 0 1.4 0v.6s-1.3-.02-1.3 0c-.3 0-.4.1-.4.4c-.04.02 0 1.2 0 1.2h1.4v.6h-1.4v4.9h-.8zm7.2 0c-.8 0-1.1-.3-1.1-1c.02-.01 0-3.9 0-3.9h-1.2v-.6h1.2V1.3h.7v1.8h1.4v.6h-1.4s.03 3.84 0 3.8c0 .4.1.5.5.5c-.03-.02 1.1 0 1.1 0v.6s-1.24-.02-1.2 0zm2.3 0V.9h.7v3.1c.4-.6 1.1-1 2-1c1.2 0 1.8.8 1.8 1.9c.05.05 0 3.7 0 3.7h-.7s.04-3.43 0-3.4c0-1.1-.4-1.6-1.3-1.6h-.1c-.8 0-1.7.7-1.7 2v3h-.7zm5.9-2.8c0-1.9 1.2-2.8 2.5-2.8c1.3 0 2.2 1 2.2 2.4v.5s-3.96-.02-4 0c.1 1.5.9 2.2 1.8 2.2c.8 0 1.3-.4 1.5-1.1h.7c-.3 1.1-1.1 1.7-2.2 1.7c-1.4 0-2.5-1-2.5-2.9zm4-.5c0-1-.6-1.7-1.5-1.7h-.1c-.7 0-1.5.4-1.6 1.7h3.2zm4.5.9h.7c0 1.1.9 1.8 2.2 1.8h.1c1.2 0 1.9-.7 1.9-1.5c0-.7-.5-1.1-1.5-1.3l-1.2-.2c-1.2-.3-1.8-.9-1.8-2c0-1.2 1-2.2 2.6-2.2c1.6 0 2.7.9 2.7 2.3h-.7c-.1-1-.9-1.6-1.9-1.6h-.2c-1 0-1.8.6-1.8 1.5c0 .7.5 1 1.3 1.2l1.2.2c1.3.3 2 .9 2 2.1c0 1.4-1 2.2-2.7 2.2c-1.8 0-2.9-.9-2.9-2.5zm11.9-3.1l-2.3 5.3v1c0 .7-.3 1-1 1c-.04-.01-1.7 0-1.7 0v-.6h1.6c.3 0 .4-.1.4-.4v-1l-2.3-5.3h.7l1.9 4.4l1.9-4.4h.8zm.6 2.7c0-1.7 1-2.8 2.4-2.8c.7 0 1.5.4 1.8 1c.05-.04 0-3.1 0-3.1h.8v7.7h-.8s.05-.9 0-.9c-.3.6-1.1 1-1.8 1c-1.4 0-2.4-1.1-2.4-2.9zm2.5 2.3c1.2 0 1.7-1.1 1.7-2.3c0-1.2-.5-2.2-1.7-2.2h-.1c-1.1 0-1.7 1-1.7 2.2c0 1.2.6 2.3 1.7 2.3h.1zm4.2.5V3.1h.7s.04.9 0 .9c.4-.6 1.1-1 2-1c1.1 0 1.9.7 1.9 2c-.01-.02 0 3.6 0 3.6h-.7s-.03-3.4 0-3.4c0-1.1-.5-1.6-1.3-1.6h-.1c-1.2 0-1.8 1-1.8 2.2c.04.03 0 2.8 0 2.8h-.7zm6-2.8c0-1.9 1.1-2.8 2.4-2.8c1.4 0 2.2 1 2.2 2.4c.04.05 0 .5 0 .5c0 0-3.92-.02-3.9 0c0 1.5.8 2.2 1.7 2.2h.1c.7 0 1.2-.4 1.4-1.1h.7c-.2 1.1-1.1 1.7-2.2 1.7c-1.4 0-2.4-1-2.4-2.9zm3.9-.5c0-1-.6-1.7-1.4-1.7h-.2c-.6 0-1.4.4-1.6 1.7h3.2zm6.8-2.2l-2.3 5.3v1c0 .7-.3 1-1 1c-.05-.01-1.7 0-1.7 0v-.6h1.5c.4 0 .5-.1.5-.4c-.02-.05 0-1 0-1l-2.3-5.3h.7l1.9 4.4l1.9-4.4h.8z" stroke="none" fill="#192d39"/></g></svg>