<?xml version="1.0" standalone="no"?><!DOCTYPE svg PUBLIC "-//W3C//DTD SVG 1.1//EN" "http://www.w3.org/Graphics/SVG/1.1/DTD/svg11.dtd"><svg xmlns="http://www.w3.org/2000/svg" version="1.1" width="289px" height="231.4px" viewBox="0 -3 289 231.4" style="top:-3px"><desc>a vibrant new retail destination home to shops, cafes and a 120 place childcare centre, all of which will elevate you...</desc><defs/><g id="Polygon16532"><path d="m.6 210.3c0-1.9 1.1-2.9 2.4-2.9c1.3 0 2.2 1.1 2.2 2.5c.02.02 0 .5 0 .5c0 0-3.94-.04-3.9 0c0 1.5.8 2.2 1.7 2.2h.1c.7 0 1.2-.4 1.4-1.1h.7c-.2 1.1-1.1 1.7-2.2 1.7c-1.4 0-2.4-1-2.4-2.9zm3.9-.5c0-1-.6-1.7-1.5-1.7h-.1c-.7 0-1.5.3-1.6 1.7h3.2zm1.3 3.3l2.2-2.8l-2.1-2.7h.8l1.7 2.1l1.6-2.1h.8l-2 2.6l2.1 2.9h-.8l-1.7-2.3l-1.8 2.3h-.8zm5.7-2.8c0-1.6.9-2.9 2.5-2.9c1.2 0 2 .8 2.1 1.9h-.7c-.1-.7-.6-1.2-1.4-1.2h-.1c-1.2 0-1.7 1-1.7 2.2c0 1.2.5 2.3 1.7 2.3h.1c.8 0 1.3-.6 1.4-1.3h.7c-.2 1.1-.9 1.9-2.1 1.9c-1.6 0-2.5-1.3-2.5-2.9zm5.7 0c0-1.9 1.2-2.9 2.5-2.9c1.3 0 2.2 1.1 2.2 2.5v.5s-3.97-.04-4 0c.1 1.5.9 2.2 1.8 2.2c.8 0 1.3-.4 1.5-1.1h.7c-.3 1.1-1.1 1.7-2.2 1.7c-1.4 0-2.5-1-2.5-2.9zm4-.5c-.1-1-.6-1.7-1.5-1.7h-.1c-.7 0-1.5.3-1.6 1.7h3.2zm2.2 5.5v-7.7h.7s-.03.84 0 .8c.3-.6 1.1-1 1.8-1c1.4 0 2.5 1.1 2.5 2.9c0 1.8-1.1 2.9-2.5 2.9c-.7 0-1.5-.4-1.8-1c-.03-.02 0 3.1 0 3.1h-.7zm2.5-2.7c1.2 0 1.7-1.1 1.7-2.3c0-1.2-.5-2.2-1.7-2.2h-.1c-1.2 0-1.7 1-1.7 2.2c0 1.2.5 2.3 1.7 2.3h.1zm5.4.5c-.7 0-1-.3-1-1v-3.9H29v-.6h1.3v-1.8h.7v1.8h1.4v.6H31v3.8c0 .3.1.5.4.5c.04-.05 1.1 0 1.1 0v.6s-1.17-.04-1.2 0zm2.3-6.5v-1h.8v1h-.8zm.1 6.5v-5.5h.7v5.5h-.7zm2.1-2.8c0-1.7 1.1-2.9 2.5-2.9c1.4 0 2.6 1.2 2.6 2.9c0 1.7-1.2 2.9-2.6 2.9c-1.4 0-2.5-1.2-2.5-2.9zm2.6 2.3c1 0 1.7-.9 1.7-2.3c0-1.4-.7-2.2-1.7-2.2h-.1c-1 0-1.8.8-1.8 2.2c0 1.4.8 2.3 1.8 2.3h.1zm3.9.5v-5.5h.7s-.01.88 0 .9c.3-.6 1-1.1 1.9-1.1c1.1 0 1.9.7 1.9 2.1c.04-.04 0 3.6 0 3.6h-.7s.03-3.42 0-3.4c0-1.1-.4-1.6-1.3-1.6h-.1c-1.1 0-1.7 1-1.7 2.2v2.8h-.7zm5.9-1.6c0-1.2 1.1-1.5 1.9-1.6l1.8-.1s-.04-.26 0-.3c0-.9-.6-1.4-1.4-1.4h-.1c-.7 0-1.3.3-1.3 1h-.8c.1-1 1-1.7 2.2-1.7c1.4 0 2.1 1 2.1 2.1v3.6h-.6c-.1-.3-.1-.6-.1-.9c-.2.5-1 1-1.9 1c-1 0-1.8-.7-1.8-1.7zm2 1.1c.7 0 1.7-.7 1.7-1.5c-.04-.02 0-.8 0-.8c0 0-1.63.15-1.6.1c-.8.1-1.4.5-1.4 1.1c0 .6.5 1.1 1.1 1.1h.2zm4.1.5v-7.7h.7v7.7h-.7zm4.6 0v-7.7h.8v7.7h-.8zm2.2-2.8c0-1.7 1.1-2.9 2.5-2.9c1.4 0 2.5 1.2 2.5 2.9c0 1.7-1.1 2.9-2.5 2.9c-1.4 0-2.5-1.2-2.5-2.9zm2.6 2.3c1 0 1.7-.9 1.7-2.3c0-1.4-.7-2.2-1.7-2.2h-.1c-1 0-1.8.8-1.8 2.2c0 1.4.8 2.3 1.8 2.3h.1zm3.6-2.3c0-1.6.9-2.9 2.5-2.9c1.2 0 2 .8 2.1 1.9h-.7c-.1-.7-.6-1.2-1.3-1.2h-.2c-1.2 0-1.7 1-1.7 2.2c0 1.2.5 2.3 1.7 2.3h.2c.7 0 1.2-.6 1.3-1.3h.7c-.1 1.1-.9 1.9-2.1 1.9c-1.6 0-2.5-1.3-2.5-2.9zm5.8 1.2c0-1.2 1-1.5 1.9-1.6c-.04-.01 1.7-.1 1.7-.1v-.3c0-.9-.5-1.4-1.4-1.4c-.7 0-1.3.3-1.4 1h-.7c0-1 .9-1.7 2.1-1.7c1.4 0 2.1 1 2.1 2.1v2.3c0 .4 0 .9.1 1.3h-.7v-.9c-.3.5-1 1-2 1c-1 0-1.7-.7-1.7-1.7zm1.9 1.1c.8 0 1.7-.7 1.7-1.5v-.8s-1.6.15-1.6.1c-.8.1-1.3.5-1.3 1.1c0 .6.5 1.1 1.1 1.1h.1zm5.6.5c-.7 0-1-.3-1-1v-3.9h-1.3v-.6h1.3v-1.8h.7v1.8h1.4v.6h-1.4s.02 3.81 0 3.8c0 .3.1.5.5.5c-.04-.05 1.1 0 1.1 0v.6s-1.25-.04-1.3 0zm2.3-6.5v-1h.9v1h-.9zm.1 6.5v-5.5h.7v5.5h-.7zm2.1-2.8c0-1.7 1.1-2.9 2.5-2.9c1.5 0 2.6 1.2 2.6 2.9c0 1.7-1.1 2.9-2.6 2.9c-1.4 0-2.5-1.2-2.5-2.9zm2.6 2.3c1 0 1.7-.9 1.7-2.3c0-1.4-.7-2.2-1.7-2.2h-.1c-1 0-1.8.8-1.8 2.2c0 1.4.8 2.3 1.8 2.3h.1zm3.9.5v-5.5h.7s.01.88 0 .9c.3-.6 1-1.1 1.9-1.1c1.1 0 2 .7 2 2.1c-.04-.04 0 3.6 0 3.6h-.8s.04-3.42 0-3.4c0-1.1-.4-1.6-1.3-1.6c-1.2 0-1.8 1-1.8 2.2v2.8h-.7zm8.1-1.6c0-1.2 1.1-1.5 1.9-1.6l1.8-.1s-.02-.26 0-.3c0-.9-.6-1.4-1.4-1.4h-.1c-.7 0-1.3.3-1.3 1h-.7c0-1 .9-1.7 2.1-1.7c1.4 0 2.1 1 2.1 2.1v3.6h-.6c-.1-.3-.1-.6-.1-.9c-.2.5-.9 1-1.9 1c-1 0-1.8-.7-1.8-1.7zm2 1.1c.7 0 1.7-.7 1.7-1.5c-.02-.02 0-.8 0-.8c0 0-1.62.15-1.6.1c-.8.1-1.3.5-1.3 1.1c0 .6.4 1.1 1.1 1.1h.1zm4.1.5v-5.5h.7s-.01.88 0 .9c.3-.6 1-1.1 1.9-1.1c1.1 0 1.9.7 1.9 2.1c.04-.04 0 3.6 0 3.6h-.7s.03-3.42 0-3.4c0-1.1-.4-1.6-1.3-1.6h-.1c-1.1 0-1.7 1-1.7 2.2v2.8h-.7zm5.9-2.8c0-1.8 1.1-2.9 2.5-2.9c.7 0 1.5.4 1.8 1c.03.04 0-3 0-3h.7v7.7h-.7s.03-.92 0-.9c-.3.6-1.1 1-1.8 1c-1.4 0-2.5-1.1-2.5-2.9zm2.6 2.3c1.2 0 1.7-1.1 1.7-2.3c0-1.2-.5-2.2-1.7-2.2h-.1c-1.2 0-1.7 1-1.7 2.2c0 1.2.5 2.3 1.7 2.3h.1zm10.4 2.7s-.03-3.12 0-3.1c-.4.6-1.2 1-1.9 1c-1.4 0-2.4-1.1-2.4-2.9c0-1.8 1-2.9 2.4-2.9c.7 0 1.5.4 1.9 1c-.03.04 0-.8 0-.8h.7v7.7h-.7zm-1.8-2.7c1.2 0 1.8-1.1 1.8-2.3c0-1.2-.6-2.2-1.8-2.2c-1.2 0-1.8 1-1.8 2.2c0 1.2.6 2.3 1.8 2.3zm4.2-1.4c-.02-.01 0-3.6 0-3.6h.7s-.01 3.37 0 3.4c0 1 .4 1.6 1.3 1.6h.1c.8 0 1.6-.8 1.6-2.1c.02.03 0-2.9 0-2.9h.7v5.5h-.7s.02-1.08 0-1.1c-.3.7-.9 1.2-1.8 1.2c-1.2 0-1.9-.9-1.9-2zm5.9.3c0-1.2 1-1.5 1.9-1.6c-.02-.01 1.7-.1 1.7-.1c0 0 .02-.26 0-.3c0-.9-.5-1.4-1.4-1.4c-.7 0-1.3.3-1.4 1h-.7c.1-1 .9-1.7 2.1-1.7c1.4 0 2.1 1 2.1 2.1v2.3c0 .4 0 .9.1 1.3h-.7v-.9c-.2.5-1 1-2 1c-.9 0-1.7-.7-1.7-1.7zm1.9 1.1c.8 0 1.7-.7 1.7-1.5c.02-.02 0-.8 0-.8c0 0-1.58.15-1.6.1c-.8.1-1.3.5-1.3 1.1c0 .6.5 1.1 1.1 1.1h.1zm4.1.5v-7.7h.7v7.7h-.7zm2.4-6.5v-1h.8v1h-.8zm.1 6.5v-5.5h.7v5.5h-.7zm4.1 0c-.7 0-1.1-.3-1.1-1c.04-.03 0-3.9 0-3.9h-1.2v-.6h1.2v-1.8h.8v1.8h1.3v.6h-1.3s-.04 3.81 0 3.8c0 .3.1.5.4.5c0-.05 1.1 0 1.1 0v.6s-1.21-.04-1.2 0zm7.2-5.5l-2.2 5.3s-.02 1.02 0 1c0 .7-.3 1-1.1 1c.04-.03-1.6 0-1.6 0v-.6s1.53-.03 1.5 0c.4 0 .5-.1.5-.5c-.03.03 0-.9 0-.9l-2.4-5.3h.8l1.9 4.4l1.9-4.4h.7zm3.3 7.7v-7.7h.7v.8c.3-.6 1.1-1 1.8-1c1.5 0 2.5 1.1 2.5 2.9c0 1.8-1 2.9-2.5 2.9c-.7 0-1.5-.4-1.8-1v3.1h-.7zm2.5-2.7c1.2 0 1.8-1.1 1.8-2.3c0-1.2-.6-2.2-1.8-2.2c-1.2 0-1.8 1-1.8 2.2c0 1.2.6 2.3 1.8 2.3zm3.9.5v-5.5h.7v1.2c.2-.9.9-1.3 1.7-1.3h.5v.7s-.45-.04-.5 0c-1 0-1.7.8-1.7 2.2c.04-.02 0 2.7 0 2.7h-.7zm3.5-2.8c0-1.7 1.1-2.9 2.6-2.9c1.4 0 2.5 1.2 2.5 2.9c0 1.7-1.1 2.9-2.5 2.9c-1.5 0-2.6-1.2-2.6-2.9zm2.6 2.3c1 0 1.8-.9 1.8-2.3c0-1.4-.8-2.2-1.8-2.2h-.1c-1 0-1.7.8-1.7 2.2c0 1.4.7 2.3 1.7 2.3h.1zm3.6-2.3c0-1.8 1-2.9 2.5-2.9c.7 0 1.5.4 1.8 1v-3h.7v7.7h-.7s.01-.92 0-.9c-.3.6-1.1 1-1.8 1c-1.5 0-2.5-1.1-2.5-2.9zm2.5 2.3c1.2 0 1.8-1.1 1.8-2.3c0-1.2-.6-2.2-1.8-2.2c-1.2 0-1.8 1-1.8 2.2c0 1.2.6 2.3 1.8 2.3zm4.2-1.4c.02-.01 0-3.6 0-3.6h.7s.04 3.37 0 3.4c0 1 .5 1.6 1.4 1.6h.1c.8 0 1.6-.8 1.6-2.1c-.04.03 0-2.9 0-2.9h.7v5.5h-.7s-.04-1.08 0-1.1c-.3.7-1 1.2-1.9 1.2c-1.2 0-1.9-.9-1.9-2zm5.9-.9c0-1.6.9-2.9 2.6-2.9c1.1 0 2 .8 2.1 1.9h-.7c-.1-.7-.7-1.2-1.4-1.2h-.1c-1.2 0-1.8 1-1.8 2.2c0 1.2.6 2.3 1.8 2.3h.1c.7 0 1.2-.6 1.4-1.3h.7c-.2 1.1-1 1.9-2.1 1.9c-1.7 0-2.6-1.3-2.6-2.9zm7.8 2.8c-.7 0-1.1-.3-1.1-1c.02-.03 0-3.9 0-3.9h-1.2v-.6h1.2v-1.8h.7v1.8h1.4v.6h-1.4s.04 3.81 0 3.8c0 .3.1.5.5.5c-.02-.05 1.1 0 1.1 0v.6s-1.23-.04-1.2 0zm2.3 0V212h1.1v1.1h-1.1z" stroke="none" fill="#dcddce"/></g><g id="Polygon16531"><path d="m.6 196.4c0-1.2 1-1.6 1.9-1.7c-.05.04 1.7-.1 1.7-.1v-.2c0-1-.5-1.5-1.4-1.5c-.7 0-1.3.4-1.4 1h-.7c0-.9.9-1.6 2.1-1.6c1.4 0 2.1 1 2.1 2.1v2.3c0 .3 0 .8.1 1.2h-.7c0-.2-.1-.6-.1-.9c-.2.5-.9 1-1.9 1c-1 0-1.7-.7-1.7-1.6zm1.9 1c.7 0 1.7-.7 1.7-1.5v-.7l-1.6.1c-.8.1-1.3.4-1.3 1c0 .7.4 1.1 1.1 1.1h.1zm4.1.5v-5.5h.7s-.05 1.26 0 1.3c.2-.9.9-1.3 1.7-1.3c-.04-.05.5 0 .5 0v.6h-.5c-1 0-1.7.8-1.7 2.2v2.7h-.7zm3.5-2.8c0-1.9 1.2-2.8 2.5-2.8c1.3 0 2.2 1.1 2.2 2.5v.4h-4c.1 1.6.9 2.2 1.8 2.2c.8 0 1.3-.3 1.5-1.1h.7c-.3 1.1-1.1 1.7-2.2 1.7c-1.4 0-2.5-1-2.5-2.9zm4-.5c0-1-.6-1.7-1.5-1.7h-.1c-.7 0-1.5.4-1.6 1.7h3.2zm4.3 3.3v-5.5h.8s-.04.93 0 .9c.3-.6 1-1 1.9-1c1.1 0 1.9.7 1.9 2c.01.01 0 3.6 0 3.6h-.7s-.01-3.37 0-3.4c0-1.1-.4-1.6-1.3-1.6h-.1c-1.2 0-1.7 1.1-1.7 2.3c-.04-.04 0 2.7 0 2.7h-.8zm6-2.7c0-1.7 1.1-2.9 2.5-2.9c1.4 0 2.5 1.2 2.5 2.9c0 1.7-1.1 2.8-2.5 2.8c-1.4 0-2.5-1.1-2.5-2.8zm2.6 2.2c1 0 1.7-.8 1.7-2.2c0-1.5-.7-2.3-1.7-2.3h-.1c-1 0-1.8.8-1.8 2.3c0 1.4.8 2.2 1.8 2.2h.1zm10.3-5h.7l-1.7 5.5h-1l-1.2-4.7l-1.3 4.7h-.9l-1.8-5.5h.8l1.5 4.9l1.2-4.9h.9l1.3 4.9l1.5-4.9zm3.6 3.9h.8c0 .7.6 1.1 1.4 1.1h.1c.8 0 1.2-.4 1.2-1c0-.4-.2-.7-.9-.8l-.8-.2c-.9-.2-1.5-.6-1.5-1.5c0-1 .9-1.6 1.9-1.6c1.4 0 2 .9 2.1 1.8h-.7c-.1-.6-.6-1.2-1.3-1.2h-.1c-.8 0-1.2.5-1.2.9c0 .5.3.8 1 .9l.8.2c.8.2 1.4.5 1.4 1.5c0 1-.8 1.6-2 1.6c-1.4 0-2.1-.7-2.2-1.7zm5.4-1.1c0-1.7 1.1-2.9 2.5-2.9c1.4 0 2.5 1.2 2.5 2.9c0 1.7-1.1 2.8-2.5 2.8c-1.4 0-2.5-1.1-2.5-2.8zm2.6 2.2c.9 0 1.7-.8 1.7-2.2c0-1.5-.8-2.3-1.7-2.3h-.2c-.9 0-1.7.8-1.7 2.3c0 1.4.8 2.2 1.7 2.2h.2zm3.9.5v-7.7h.7v7.7h-.7zm2.1-2.7c0-1.8 1-2.9 2.5-2.9c.7 0 1.5.4 1.8 1v-3.1h.7v7.7h-.7s.01-.87 0-.9c-.3.6-1.1 1-1.8 1c-1.5 0-2.5-1.1-2.5-2.8zm2.6 2.2c1.1 0 1.7-1.1 1.7-2.2c0-1.2-.6-2.3-1.7-2.3h-.1c-1.2 0-1.8 1.1-1.8 2.3c0 1.1.6 2.2 1.8 2.2h.1zm6.1-1c0-1.2 1-1.6 1.9-1.7c-.04.04 1.7-.1 1.7-.1v-.2c0-1-.5-1.5-1.4-1.5c-.7 0-1.3.4-1.4 1h-.7c0-.9.9-1.6 2.1-1.6c1.4 0 2.1 1 2.1 2.1v2.3c0 .3 0 .8.1 1.2h-.7v-.9c-.3.5-1 1-2 1c-1 0-1.7-.7-1.7-1.6zm1.9 1c.8 0 1.7-.7 1.7-1.5v-.7l-1.6.1c-.8.1-1.3.4-1.3 1c0 .7.5 1.1 1.1 1.1h.1zm4.1.5v-5.5h.7s.02.93 0 .9c.3-.6 1-1 1.9-1c1.1 0 2 .7 2 2c-.03.01 0 3.6 0 3.6h-.7s-.05-3.37 0-3.4c0-1.1-.5-1.6-1.4-1.6c-1.2 0-1.8 1.1-1.8 2.3c.02-.04 0 2.7 0 2.7h-.7zm6-2.7c0-1.8 1-2.9 2.4-2.9c.7 0 1.5.4 1.9 1c-.04-.01 0-3.1 0-3.1h.7v7.7h-.7s-.04-.87 0-.9c-.4.6-1.2 1-1.9 1c-1.4 0-2.4-1.1-2.4-2.8zm2.5 2.2c1.2 0 1.8-1.1 1.8-2.2c0-1.2-.6-2.3-1.8-2.3h-.1c-1.1 0-1.7 1.1-1.7 2.3c0 1.1.6 2.2 1.7 2.2h.1zm6.1-2.2c0-1.7 1.1-2.9 2.5-2.9c1.4 0 2.6 1.2 2.6 2.9c0 1.7-1.2 2.8-2.6 2.8c-1.4 0-2.5-1.1-2.5-2.8zm2.6 2.2c1 0 1.7-.8 1.7-2.2c0-1.5-.7-2.3-1.7-2.3h-.1c-1 0-1.8.8-1.8 2.3c0 1.4.8 2.2 1.8 2.2h.1zm3.6-2.2c0-1.7.9-2.9 2.5-2.9c1.2 0 2 .7 2.2 1.9h-.8c-.1-.8-.6-1.3-1.3-1.3h-.1c-1.2 0-1.8 1.1-1.8 2.3c0 1.2.6 2.2 1.8 2.2h.1c.7 0 1.2-.5 1.3-1.3h.8c-.2 1.2-1 1.9-2.2 1.9c-1.6 0-2.5-1.2-2.5-2.8zm5.7 0c0-1.7.9-2.9 2.6-2.9c1.2 0 2 .7 2.1 1.9h-.7c-.1-.8-.6-1.3-1.4-1.3h-.1c-1.2 0-1.8 1.1-1.8 2.3c0 1.2.6 2.2 1.8 2.2h.1c.8 0 1.3-.5 1.4-1.3h.7c-.2 1.2-.9 1.9-2.1 1.9c-1.7 0-2.6-1.2-2.6-2.8zm6.1.8c-.05.04 0-3.6 0-3.6h.7s-.04 3.42 0 3.4c0 1.1.4 1.6 1.3 1.6h.1c.8 0 1.6-.7 1.6-2v-3h.7v5.5h-.7v-1c-.3.7-.9 1.1-1.8 1.1c-1.3 0-1.9-.8-1.9-2zm6.1 4.1v-7.7h.8s-.05.89 0 .9c.3-.6 1.1-1 1.8-1c1.4 0 2.4 1.1 2.4 2.9c0 1.7-1 2.8-2.4 2.8c-.7 0-1.5-.4-1.8-1c-.05.03 0 3.1 0 3.1h-.8zm2.6-2.7c1.1 0 1.7-1.1 1.7-2.2c0-1.2-.6-2.3-1.7-2.3h-.1c-1.2 0-1.7 1.1-1.7 2.3c0 1.1.5 2.2 1.7 2.2h.1zm3.8-6v-.9h.8v.9h-.8zm.1 6.5v-5.5h.7v5.5h-.7zm2.1-2.8c0-1.9 1.2-2.8 2.5-2.8c1.3 0 2.2 1.1 2.2 2.5v.4h-4c.1 1.6.9 2.2 1.8 2.2c.8 0 1.3-.3 1.5-1.1h.7c-.3 1.1-1.1 1.7-2.2 1.7c-1.4 0-2.5-1-2.5-2.9zm4-.5c-.1-1-.6-1.7-1.5-1.7h-.1c-.7 0-1.5.4-1.6 1.7h3.2zm1.9.6c0-1.8 1-2.9 2.4-2.9c.7 0 1.5.4 1.9 1c-.05-.01 0-3.1 0-3.1h.7v7.7h-.7s-.05-.87 0-.9c-.4.6-1.2 1-1.9 1c-1.4 0-2.4-1.1-2.4-2.8zm2.5 2.2c1.2 0 1.8-1.1 1.8-2.2c0-1.2-.6-2.3-1.8-2.3h-.1c-1.1 0-1.7 1.1-1.7 2.3c0 1.1.6 2.2 1.7 2.2h.1zm3.8 1.8v-.5s.31.03.3 0c.4 0 .7-.2.7-.6c-.03-.03 0-.2 0-.2h-.6v-1.1h1.1s-.04 1.33 0 1.3c0 .7-.4 1.1-1.1 1.1c.02-.03-.4 0-.4 0zm11.9-6.8h.7l-1.8 5.5h-.9l-1.3-4.7l-1.2 4.7h-.9l-1.8-5.5h.7l1.6 4.9l1.2-4.9h.9l1.3 4.9l1.5-4.9zm1.9 5.5v-7.7h.7s-.02 3.14 0 3.1c.4-.6 1-1 2-1c1.2 0 1.8.8 1.8 2c.03-.02 0 3.6 0 3.6h-.7s.02-3.4 0-3.4c0-1.1-.4-1.6-1.3-1.6h-.1c-.9 0-1.7.8-1.7 2c-.02.04 0 3 0 3h-.7zm6.2-6.5v-.9h.8v.9h-.8zm0 6.5v-5.5h.7v5.5h-.7zm2.2-2.7c0-1.7.9-2.9 2.5-2.9c1.2 0 2 .7 2.1 1.9h-.7c-.1-.8-.6-1.3-1.3-1.3h-.2c-1.2 0-1.7 1.1-1.7 2.3c0 1.2.5 2.2 1.7 2.2h.2c.7 0 1.2-.5 1.3-1.3h.7c-.2 1.2-.9 1.9-2.1 1.9c-1.6 0-2.5-1.2-2.5-2.8zm6 2.7v-7.7h.8s-.04 3.14 0 3.1c.3-.6 1-1 1.9-1c1.3 0 1.9.8 1.9 2c.01-.02 0 3.6 0 3.6h-.7v-3.4c0-1.1-.4-1.6-1.3-1.6h-.1c-.9 0-1.7.8-1.7 2c-.04.04 0 3 0 3h-.8zm8.5-6.5v-.9h.8v.9h-.8zm0 6.5v-5.5h.7v5.5h-.7zm2.1-1.6h.7c.1.7.6 1.1 1.4 1.1h.1c.8 0 1.3-.4 1.3-1c0-.4-.3-.7-1-.8l-.8-.2c-.8-.2-1.5-.6-1.5-1.5c0-1 .9-1.6 2-1.6c1.3 0 2 .9 2 1.8h-.7c-.1-.6-.5-1.2-1.3-1.2h-.1c-.8 0-1.2.5-1.2.9c0 .5.3.8 1 .9l.9.2c.7.2 1.4.5 1.4 1.5c0 1-.8 1.6-2 1.6c-1.5 0-2.2-.7-2.2-1.7zm7.5.1c0-1.2 1.1-1.6 1.9-1.7c.02.04 1.8-.1 1.8-.1c0 0-.04-.21 0-.2c0-1-.6-1.5-1.4-1.5h-.1c-.7 0-1.3.4-1.4 1h-.7c.1-.9 1-1.6 2.1-1.6c1.5 0 2.2 1 2.2 2.1v3.5h-.6c-.1-.2-.1-.6-.1-.9c-.2.5-1 1-1.9 1c-1 0-1.8-.7-1.8-1.6zm2 1c.7 0 1.7-.7 1.7-1.5c-.04.03 0-.7 0-.7l-1.6.1c-.8.1-1.4.4-1.4 1c0 .7.5 1.1 1.1 1.1h.2zm7.9.5c-.7 0-1.1-.3-1.1-1c.03.02 0-3.9 0-3.9H183v-.6h1.2v-1.8h.7v1.8h1.4v.6h-1.4s.04 3.86 0 3.9c0 .3.1.4.5.4h1.1v.6h-1.2zm1.9-2.8c0-1.9 1.1-2.8 2.4-2.8c1.4 0 2.2 1.1 2.2 2.5c.03-.03 0 .4 0 .4h-3.9c0 1.6.8 2.2 1.7 2.2h.1c.7 0 1.2-.3 1.4-1.1h.7c-.2 1.1-1.1 1.7-2.2 1.7c-1.4 0-2.4-1-2.4-2.9zm3.9-.5c0-1-.6-1.7-1.4-1.7h-.2c-.6 0-1.5.4-1.6 1.7h3.2zm1.8 1.7h.7c.1.7.7 1.1 1.5 1.1h.1c.7 0 1.2-.4 1.2-1c0-.4-.2-.7-1-.8l-.8-.2c-.8-.2-1.5-.6-1.5-1.5c0-1 1-1.6 2-1.6c1.4 0 2 .9 2.1 1.8h-.7c-.1-.6-.6-1.2-1.3-1.2h-.1c-.8 0-1.2.5-1.2.9c0 .5.3.8 1 .9l.8.2c.8.2 1.4.5 1.4 1.5c0 1-.8 1.6-2 1.6c-1.4 0-2.1-.7-2.2-1.7zm7.4 1.6c-.7 0-1-.3-1-1c-.05.02 0-3.9 0-3.9H198v-.6h1.3v-1.8h.7v1.8h1.3v.6H200s-.03 3.86 0 3.9c0 .3.1.4.4.4h1.1v.6h-1.2zm2.1-1.5c0-1.2 1-1.6 1.9-1.7c-.02.04 1.7-.1 1.7-.1c0 0 .02-.21 0-.2c0-1-.5-1.5-1.4-1.5c-.7 0-1.3.4-1.4 1h-.7c.1-.9.9-1.6 2.1-1.6c1.4 0 2.1 1 2.1 2.1v2.3c0 .3 0 .8.1 1.2h-.7v-.9c-.2.5-1 1-2 1c-.9 0-1.7-.7-1.7-1.6zm1.9 1c.8 0 1.7-.7 1.7-1.5c.02.03 0-.7 0-.7l-1.6.1c-.8.1-1.3.4-1.3 1c0 .7.5 1.1 1.1 1.1h.1zm4.1.5v-5.5h.7s.04.89 0 .9c.4-.6 1-1 1.9-1c.8 0 1.4.4 1.7 1.2c.4-.8 1-1.2 1.9-1.2c1.1 0 1.9.7 1.9 2c.01.01 0 3.6 0 3.6h-.7s-.01-3.37 0-3.4c0-1.1-.4-1.6-1.3-1.6c-1.1 0-1.7 1.1-1.7 2.3c.02-.04 0 2.7 0 2.7h-.7s.01-3.37 0-3.4c0-1.1-.4-1.6-1.3-1.6c-1.1 0-1.7 1.1-1.7 2.3c.04-.04 0 2.7 0 2.7h-.7zm9.5-2.8c0-1.9 1.2-2.8 2.5-2.8c1.3 0 2.2 1.1 2.2 2.5v.4h-4c.1 1.6.9 2.2 1.8 2.2c.8 0 1.3-.3 1.5-1.1h.7c-.3 1.1-1.1 1.7-2.2 1.7c-1.4 0-2.5-1-2.5-2.9zm4-.5c-.1-1-.6-1.7-1.5-1.7h-.1c-.7 0-1.5.4-1.6 1.7h3.2zm2.2 3.3v-5.5h.7s-.03.93 0 .9c.3-.6 1-1 1.9-1c1.1 0 1.9.7 1.9 2c.02.01 0 3.6 0 3.6h-.7s.01-3.37 0-3.4c0-1.1-.4-1.6-1.3-1.6h-.1c-1.2 0-1.7 1.1-1.7 2.3c-.03-.04 0 2.7 0 2.7h-.7zm7.8 0c-.7 0-1.1-.3-1.1-1c.05.02 0-3.9 0-3.9h-1.2v-.6h1.2v-1.8h.8v1.8h1.3v.6h-1.3s-.04 3.86 0 3.9c0 .3.1.4.4.4h1.1v.6h-1.2zm6.1 0c-.7 0-1-.3-1-1c-.04.02 0-3.9 0-3.9h-1.3v-.6h1.3v-1.8h.7v1.8h1.4v.6h-1.4s-.02 3.86 0 3.9c0 .3.1.4.4.4h1.1v.6H238zm1.9-2.7c0-1.7 1.1-2.9 2.5-2.9c1.4 0 2.5 1.2 2.5 2.9c0 1.7-1.1 2.8-2.5 2.8c-1.4 0-2.5-1.1-2.5-2.8zm2.5 2.2c1 0 1.8-.8 1.8-2.2c0-1.5-.8-2.3-1.8-2.3h-.1c-1 0-1.7.8-1.7 2.3c0 1.4.7 2.2 1.7 2.2h.1zm7.7.5c-.7 0-1-.3-1-1V193h-1.3v-.6h1.3v-1.8h.7v1.8h1.4v.6h-1.4v3.9c0 .3.1.4.4.4h1.1v.6h-1.2zm2.4 0v-7.7h.7v3.1c.4-.6 1-1 2-1c1.2 0 1.8.8 1.8 2c.04-.02 0 3.6 0 3.6h-.7s.03-3.4 0-3.4c0-1.1-.4-1.6-1.3-1.6h-.1c-.9 0-1.7.8-1.7 2v3h-.7zm6.2-6.5v-.9h.8v.9h-.8zm0 6.5v-5.5h.7v5.5h-.7zm2.1-1.6h.7c.1.7.7 1.1 1.4 1.1h.1c.8 0 1.3-.4 1.3-1c0-.4-.3-.7-1-.8l-.8-.2c-.8-.2-1.5-.6-1.5-1.5c0-1 .9-1.6 2-1.6c1.3 0 2 .9 2 1.8h-.7c0-.6-.5-1.2-1.3-1.2h-.1c-.8 0-1.2.5-1.2.9c0 .5.3.8 1 .9l.9.2c.8.2 1.4.5 1.4 1.5c0 1-.8 1.6-2 1.6c-1.4 0-2.2-.7-2.2-1.7z" stroke="none" fill="#dcddce"/></g><g id="Polygon16530"><path d="m7.5 177.3h.7l-1.8 5.5h-.9L4.2 178l-1.2 4.8h-1l-1.7-5.5h.7l1.5 4.8l1.3-4.8h.9l1.3 4.9l1.5-4.9zm1.8-1v-1h.8v1h-.8zm0 6.5v-5.5h.8v5.5h-.8zm4.2 0c-.8 0-1.1-.3-1.1-1c.02-.03 0-3.9 0-3.9h-1.2v-.6h1.2v-1.8h.7v1.8h1.4v.6h-1.4s.03 3.81 0 3.8c0 .3.1.5.5.5c-.03-.05 1.1 0 1.1 0v.6s-1.24-.04-1.2 0zm2.3 0v-7.7h.7s.02 3.09 0 3.1c.4-.7 1.1-1.1 2-1.1c1.2 0 1.9.9 1.9 2c-.03.03 0 3.7 0 3.7h-.7s-.04-3.45 0-3.5c0-1-.5-1.5-1.4-1.5h-.1c-.8 0-1.7.7-1.7 2c.02-.01 0 3 0 3h-.7zm6.2-6.5v-1h.8v1h-.8zm.1 6.5v-5.5h.7v5.5h-.7zm2.4 0v-5.5h.7s.01.88 0 .9c.3-.6 1-1.1 1.9-1.1c1.1 0 2 .7 2 2.1c-.04-.04 0 3.6 0 3.6h-.7s-.05-3.42 0-3.4c0-1.1-.5-1.6-1.4-1.6c-1.2 0-1.8 1-1.8 2.2v2.8h-.7zm10.1 0c-.8 0-1.1-.3-1.1-1c.02-.03 0-3.9 0-3.9h-1.2v-.6h1.2v-1.8h.7v1.8h1.4v.6h-1.4s.03 3.81 0 3.8c0 .3.1.5.5.5c-.03-.05 1.1 0 1.1 0v.6s-1.24-.04-1.2 0zm2.3 0v-7.7h.7s.03 3.09 0 3.1c.4-.7 1.1-1.1 2-1.1c1.2 0 1.9.9 1.9 2c-.02.03 0 3.7 0 3.7h-.7s-.04-3.45 0-3.5c0-1-.5-1.5-1.4-1.5h-.1c-.8 0-1.7.7-1.7 2c.03-.01 0 3 0 3h-.7zm6-2.8c0-1.9 1.2-2.9 2.4-2.9c1.4 0 2.3 1.1 2.3 2.5c-.05.02 0 .5 0 .5c0 0-4.01-.04-4 0c0 1.5.8 2.2 1.7 2.2h.1c.7 0 1.2-.4 1.4-1.1h.7c-.2 1.1-1 1.7-2.2 1.7c-1.3 0-2.4-1-2.4-2.9zm3.9-.5c0-1-.6-1.7-1.4-1.7h-.1c-.7 0-1.5.3-1.7 1.7h3.2zm4.4 5.5v-7.7h.7v.8c.3-.6 1.1-1 1.8-1c1.5 0 2.5 1.1 2.5 2.9c0 1.8-1 2.9-2.5 2.9c-.7 0-1.5-.4-1.8-1v3.1h-.7zm2.5-2.7c1.2 0 1.8-1.1 1.8-2.3c0-1.2-.6-2.2-1.8-2.2c-1.2 0-1.8 1-1.8 2.2c0 1.2.6 2.3 1.8 2.3zm3.9.5v-5.5h.7v1.2c.3-.9.9-1.3 1.7-1.3h.5v.7s-.44-.04-.4 0c-1.1 0-1.7.8-1.7 2.2c-.04-.02 0 2.7 0 2.7h-.8zm3.6-2.8c0-1.9 1.2-2.9 2.4-2.9c1.4 0 2.2 1.1 2.2 2.5c.05.02 0 .5 0 .5c0 0-3.91-.04-3.9 0c0 1.5.8 2.2 1.7 2.2h.1c.7 0 1.2-.4 1.4-1.1h.7c-.2 1.1-1.1 1.7-2.2 1.7c-1.4 0-2.4-1-2.4-2.9zm3.9-.5c0-1-.6-1.7-1.4-1.7h-.1c-.7 0-1.5.3-1.7 1.7h3.2zm1.9.5c0-1.6.9-2.9 2.5-2.9c1.2 0 2.1.8 2.2 1.9h-.7c-.1-.7-.7-1.2-1.4-1.2h-.1c-1.2 0-1.8 1-1.8 2.2c0 1.2.6 2.3 1.8 2.3h.1c.7 0 1.2-.6 1.4-1.3h.7c-.2 1.1-1 1.9-2.2 1.9c-1.6 0-2.5-1.3-2.5-2.9zm6-3.7v-1h.9v1h-.9zm.1 6.5v-5.5h.7v5.5h-.7zm2.4 0v-5.5h.7s.04.88 0 .9c.4-.6 1.1-1.1 2-1.1c1.1 0 1.9.7 1.9 2.1c-.01-.04 0 3.6 0 3.6h-.7s-.03-3.42 0-3.4c0-1.1-.5-1.6-1.3-1.6h-.1c-1.2 0-1.8 1-1.8 2.2c.04.01 0 2.8 0 2.8h-.7zm6-2.8c0-1.6.9-2.9 2.5-2.9c1.2 0 2 .8 2.2 1.9h-.8c-.1-.7-.6-1.2-1.3-1.2h-.1c-1.2 0-1.8 1-1.8 2.2c0 1.2.6 2.3 1.8 2.3h.1c.7 0 1.2-.6 1.3-1.3h.8c-.2 1.1-1 1.9-2.2 1.9c-1.6 0-2.5-1.3-2.5-2.9zm7.7 2.8c-.7 0-1-.3-1-1v-3.9h-1.3v-.6h1.3v-1.8h.7v1.8h1.4v.6h-1.4v3.8c0 .3.1.5.4.5c.04-.05 1.1 0 1.1 0v.6s-1.17-.04-1.2 0zm2 1.2v-.4s.29-.02.3 0c.4 0 .7-.2.7-.7c-.05.02 0-.1 0-.1h-.7v-1.1h1.1s.05 1.28 0 1.3c0 .6-.3 1-1 1c0 .02-.4 0-.4 0zm5.5-1.2v-7.7s2.62-.04 2.6 0c2.1 0 3.5 1.4 3.5 3.8c0 2.4-1.4 3.9-3.5 3.9c.02-.04-2.6 0-2.6 0zm.8-.8s1.71.04 1.7 0c1.8 0 2.8-1.1 2.8-3.1c0-2-1-3.1-2.8-3.1c.01-.03-1.7 0-1.7 0v6.2zm6.5-2c0-1.9 1.2-2.9 2.5-2.9c1.3 0 2.2 1.1 2.2 2.5v.5s-3.97-.04-4 0c0 1.5.9 2.2 1.8 2.2c.8 0 1.3-.4 1.5-1.1h.7c-.3 1.1-1.1 1.7-2.2 1.7c-1.4 0-2.5-1-2.5-2.9zm4-.5c-.1-1-.6-1.7-1.5-1.7h-.1c-.7 0-1.5.3-1.7 1.7h3.3zm1.8 1.6h.7c.1.8.6 1.2 1.4 1.2h.1c.8 0 1.3-.4 1.3-1c0-.5-.3-.7-1-.9l-.8-.2c-.8-.1-1.5-.5-1.5-1.4c0-1.1.9-1.7 2-1.7c1.3 0 2 .9 2 1.8h-.7c0-.6-.5-1.1-1.3-1.1h-.1c-.8 0-1.2.4-1.2.9c0 .5.3.7 1 .9l.9.2c.7.1 1.4.5 1.4 1.4c0 1.1-.8 1.7-2 1.7c-1.5 0-2.2-.8-2.2-1.8zm7.4 1.7c-.8 0-1.1-.3-1.1-1v-3.9h-1.3v-.6h1.3v-1.8h.7v1.8h1.4v.6h-1.4s.02 3.81 0 3.8c0 .3.1.5.5.5c-.04-.05 1.1 0 1.1 0v.6s-1.25-.04-1.2 0zm2.2-6.5v-1h.9v1h-.9zm.1 6.5v-5.5h.7v5.5h-.7zm2.4 0v-5.5h.8s-.05.88 0 .9c.3-.6 1-1.1 1.9-1.1c1.1 0 1.9.7 1.9 2.1v3.6h-.7s-.01-3.42 0-3.4c0-1.1-.5-1.6-1.3-1.6h-.1c-1.2 0-1.7 1-1.7 2.2c-.05.01 0 2.8 0 2.8h-.8zm6-1.6c0-1.2 1-1.5 1.9-1.6c-.02-.01 1.7-.1 1.7-.1c0 0 .02-.26 0-.3c0-.9-.5-1.4-1.4-1.4c-.7 0-1.3.3-1.4 1h-.7c.1-1 .9-1.7 2.1-1.7c1.4 0 2.1 1 2.1 2.1v2.3c0 .4 0 .9.1 1.3h-.7v-.9c-.2.5-1 1-2 1c-.9 0-1.7-.7-1.7-1.7zm1.9 1.1c.8 0 1.7-.7 1.7-1.5c.02-.02 0-.8 0-.8c0 0-1.58.15-1.6.1c-.8.1-1.3.5-1.3 1.1c0 .6.5 1.1 1.1 1.1h.1zm5.7.5c-.7 0-1.1-.3-1.1-1c.02-.03 0-3.9 0-3.9h-1.2v-.6h1.2v-1.8h.7v1.8h1.4v.6h-1.4s.04 3.81 0 3.8c0 .3.1.5.5.5c-.02-.05 1.1 0 1.1 0v.6s-1.23-.04-1.2 0zm2.3-6.5v-1h.8v1h-.8zm0 6.5v-5.5h.7v5.5h-.7zm2.1-2.8c0-1.7 1.1-2.9 2.6-2.9c1.4 0 2.5 1.2 2.5 2.9c0 1.7-1.1 2.9-2.5 2.9c-1.5 0-2.6-1.2-2.6-2.9zm2.6 2.3c1 0 1.8-.9 1.8-2.3c0-1.4-.8-2.2-1.8-2.2h-.1c-1 0-1.7.8-1.7 2.2c0 1.4.7 2.3 1.7 2.3h.1zm3.9.5v-5.5h.7s.03.88 0 .9c.3-.6 1.1-1.1 2-1.1c1.1 0 1.9.7 1.9 2.1c-.02-.04 0 3.6 0 3.6h-.7s-.03-3.42 0-3.4c0-1.1-.5-1.6-1.4-1.6c-1.2 0-1.8 1-1.8 2.2c.03.01 0 2.8 0 2.8h-.7zm5.9 1.2v-.4s.29-.02.3 0c.4 0 .7-.2.7-.7c-.05.02 0-.1 0-.1h-.7v-1.1h1.1s.05 1.28 0 1.3c0 .6-.3 1-1 1c0 .02-.4 0-.4 0zm11.9-6.7h.7l-1.8 5.5h-.9l-1.3-4.8l-1.2 4.8h-1l-1.7-5.5h.7l1.5 4.8l1.3-4.8h.9l1.3 4.9l1.5-4.9zm1.9 5.5v-7.7h.7s-.03 3.09 0 3.1c.3-.7 1-1.1 2-1.1c1.2 0 1.8.9 1.8 2c.02.03 0 3.7 0 3.7h-.7v-3.5c0-1-.4-1.5-1.3-1.5h-.1c-.9 0-1.7.7-1.7 2c-.03-.01 0 3 0 3h-.7zm5.9-2.8c0-1.9 1.2-2.9 2.5-2.9c1.3 0 2.2 1.1 2.2 2.5v.5s-3.97-.04-4 0c.1 1.5.9 2.2 1.8 2.2c.8 0 1.3-.4 1.5-1.1h.7c-.3 1.1-1.1 1.7-2.2 1.7c-1.4 0-2.5-1-2.5-2.9zm4-.5c-.1-1-.6-1.7-1.5-1.7h-.1c-.7 0-1.5.3-1.6 1.7h3.2zm2.2 3.3v-5.5h.6s.02 1.21 0 1.2c.3-.9 1-1.3 1.7-1.3h.5v.7s-.42-.04-.4 0c-1.1 0-1.7.8-1.7 2.2c-.03-.02 0 2.7 0 2.7h-.7zm3.5-2.8c0-1.9 1.2-2.9 2.4-2.9c1.4 0 2.3 1.1 2.3 2.5c-.03.02 0 .5 0 .5c0 0-3.99-.04-4 0c0 1.5.8 2.2 1.7 2.2h.1c.7 0 1.2-.4 1.4-1.1h.8c-.3 1.1-1.1 1.7-2.3 1.7c-1.3 0-2.4-1-2.4-2.9zm4-.5c-.1-1-.6-1.7-1.5-1.7h-.1c-.7 0-1.5.3-1.7 1.7h3.3zm4 1.7c0-1.2 1-1.5 1.9-1.6c-.02-.01 1.7-.1 1.7-.1c0 0 .02-.26 0-.3c0-.9-.5-1.4-1.4-1.4c-.7 0-1.3.3-1.4 1h-.7c.1-1 .9-1.7 2.1-1.7c1.4 0 2.1 1 2.1 2.1v2.3c0 .4 0 .9.1 1.3h-.7v-.9c-.2.5-1 1-2 1c-.9 0-1.7-.7-1.7-1.7zm1.9 1.1c.8 0 1.7-.7 1.7-1.5c.02-.02 0-.8 0-.8c0 0-1.58.15-1.6.1c-.8.1-1.3.5-1.3 1.1c0 .6.5 1.1 1.1 1.1h.1zm4.1.5v-7.7h.7v7.7h-.7zm2.5 0v-7.7h.7v7.7h-.7zm4.3-1.6c0-1.2 1.1-1.5 1.9-1.6l1.7-.1s.05-.26 0-.3c0-.9-.5-1.4-1.3-1.4h-.1c-.7 0-1.3.3-1.4 1h-.7c.1-1 1-1.7 2.1-1.7c1.5 0 2.2 1 2.2 2.1v3.6h-.6c-.1-.3-.1-.6-.1-.9c-.2.5-1 1-1.9 1c-1 0-1.8-.7-1.8-1.7zm1.9 1.1c.8 0 1.7-.7 1.7-1.5c.05-.02 0-.8 0-.8c0 0-1.55.15-1.5.1c-.8.1-1.4.5-1.4 1.1c0 .6.5 1.1 1.1 1.1h.1zm4.2 2.7v-7.7h.7s-.03.84 0 .8c.3-.6 1.1-1 1.8-1c1.4 0 2.5 1.1 2.5 2.9c0 1.8-1.1 2.9-2.5 2.9c-.7 0-1.5-.4-1.8-1c-.03-.02 0 3.1 0 3.1h-.7zm2.5-2.7c1.2 0 1.7-1.1 1.7-2.3c0-1.2-.5-2.2-1.7-2.2h-.1c-1.2 0-1.7 1-1.7 2.2c0 1.2.5 2.3 1.7 2.3h.1zm3.6-1.1c0-1.2 1-1.5 1.9-1.6c-.03-.01 1.7-.1 1.7-.1v-.3c0-.9-.5-1.4-1.4-1.4c-.7 0-1.3.3-1.4 1h-.7c.1-1 .9-1.7 2.1-1.7c1.4 0 2.1 1 2.1 2.1v2.3c0 .4 0 .9.1 1.3h-.7v-.9c-.3.5-1 1-2 1c-1 0-1.7-.7-1.7-1.7zm1.9 1.1c.8 0 1.7-.7 1.7-1.5v-.8s-1.59.15-1.6.1c-.8.1-1.3.5-1.3 1.1c0 .6.5 1.1 1.1 1.1h.1zm4.1.5v-5.5h.7s-.03 1.21 0 1.2c.2-.9.9-1.3 1.7-1.3h.5v.7s-.47-.04-.5 0c-1 0-1.7.8-1.7 2.2c.02-.02 0 2.7 0 2.7h-.7zm5.9 0c-.7 0-1-.3-1-1v-3.9h-1.3v-.6h1.3v-1.8h.7v1.8h1.4v.6h-1.4v3.8c0 .3.1.5.4.5c.05-.05 1.1 0 1.1 0v.6s-1.16-.04-1.2 0zm2.4 0v-5.5h.7v.8c.3-.5 1-1 1.8-1c.8 0 1.5.4 1.8 1.2c.3-.7 1-1.2 1.9-1.2c1.1 0 1.9.7 1.9 2.1c-.03-.04 0 3.6 0 3.6h-.7s-.05-3.42 0-3.4c0-1.1-.5-1.6-1.3-1.6h-.1c-1.1 0-1.6 1-1.6 2.2c-.02.01 0 2.8 0 2.8h-.7s-.03-3.42 0-3.4c0-1.1-.4-1.6-1.3-1.6h-.1c-1.1 0-1.6 1-1.6 2.2v2.8h-.7zm9.5-2.8c0-1.9 1.2-2.9 2.4-2.9c1.4 0 2.3 1.1 2.3 2.5c-.05.02 0 .5 0 .5c0 0-4.01-.04-4 0c0 1.5.8 2.2 1.7 2.2h.1c.7 0 1.2-.4 1.4-1.1h.7c-.2 1.1-1 1.7-2.2 1.7c-1.3 0-2.4-1-2.4-2.9zm3.9-.5c0-1-.6-1.7-1.4-1.7h-.1c-.7 0-1.5.3-1.7 1.7h3.2zm2.2 3.3v-5.5h.7s.03.88 0 .9c.4-.6 1.1-1.1 2-1.1c1.1 0 1.9.7 1.9 2.1c-.02-.04 0 3.6 0 3.6h-.7s-.03-3.42 0-3.4c0-1.1-.5-1.6-1.3-1.6h-.1c-1.2 0-1.8 1-1.8 2.2c.03.01 0 2.8 0 2.8h-.7zm7.9 0c-.8 0-1.1-.3-1.1-1v-3.9h-1.3v-.6h1.3v-1.8h.7v1.8h1.4v.6h-1.4s.02 3.81 0 3.8c0 .3.1.5.5.5c-.04-.05 1.1 0 1.1 0v.6s-1.25-.04-1.2 0zm2-1.7h.7c0 .8.6 1.2 1.4 1.2h.1c.8 0 1.2-.4 1.2-1c0-.5-.2-.7-.9-.9l-.8-.2c-.8-.1-1.5-.5-1.5-1.4c0-1.1.9-1.7 1.9-1.7c1.4 0 2.1.9 2.1 1.8h-.7c-.1-.6-.5-1.1-1.3-1.1h-.1c-.8 0-1.2.4-1.2.9c0 .5.3.7 1 .9l.8.2c.8.1 1.5.5 1.5 1.4c0 1.1-.8 1.7-2.1 1.7c-1.4 0-2.1-.8-2.1-1.8z" stroke="none" fill="#dcddce"/></g><g id="Polygon16529"><path d="m3 167.6v-7H.2v-.7h6.3v.7H3.7v7h-.7zm3.6 0v-5.5h.7v1.3c.3-.9 1-1.3 1.7-1.3c.01-.05.5 0 .5 0v.6h-.4c-1.1 0-1.7.8-1.7 2.2c-.04.03 0 2.7 0 2.7h-.8zm4-6.5v-.9h.8v.9h-.8zm0 6.5v-5.5h.7v5.5h-.7zm2.5 0v-7.7h.7v7.7h-.7zm2.1-2.7c0-1.7 1.1-2.9 2.5-2.9c1.5 0 2.6 1.2 2.6 2.9c0 1.7-1.1 2.8-2.6 2.8c-1.4 0-2.5-1.1-2.5-2.8zm2.6 2.2c1 0 1.7-.8 1.7-2.2c0-1.5-.7-2.3-1.7-2.3h-.1c-1 0-1.8.8-1.8 2.3c0 1.4.8 2.2 1.8 2.2h.1zm3.5 1.3h.7c.1.7.8 1 1.7 1h.1c1 0 1.8-.5 1.8-1.9v-.9c-.3.6-1 1-1.8 1c-1.4 0-2.4-1-2.4-2.7c0-1.8 1-2.9 2.4-2.9c.8 0 1.5.4 1.8 1v-.9h.7v5.5c0 1.4-.9 2.4-2.5 2.4c-1.6 0-2.4-.7-2.5-1.6zm2.6-1.4c1 0 1.7-.8 1.7-2.1c0-1.4-.7-2.3-1.7-2.3h-.1c-1 0-1.7.9-1.7 2.3c0 1.3.7 2.1 1.7 2.1h.1zm8.9-4.9l-2.3 5.3s.01 1.07 0 1.1c0 .6-.3.9-1 .9c-.03.02-1.7 0-1.7 0v-.6s1.56.02 1.6 0c.3 0 .4-.1.4-.4v-.9l-2.3-5.4h.7l1.9 4.5l1.9-4.5h.8zm3.9 4.6c.03.03 0 .9 0 .9h-.7v-7.7h.7s.03 3.09 0 3.1c.4-.6 1.1-1 1.9-1c1.4 0 2.4 1.1 2.4 2.9c0 1.7-1 2.8-2.4 2.8c-.8 0-1.5-.4-1.9-1zm1.8.4c1.2 0 1.8-1.1 1.8-2.2c0-1.2-.6-2.3-1.8-2.3c-1.2 0-1.8 1.1-1.8 2.3c0 1.1.6 2.2 1.8 2.2zm3.9-1.4c.02.04 0-3.6 0-3.6h.7s.03 3.42 0 3.4c0 1.1.5 1.6 1.4 1.6h.1c.8 0 1.6-.7 1.6-2c-.04-.02 0-3 0-3h.7v5.5h-.7s-.04-1.03 0-1c-.3.7-1 1.1-1.9 1.1c-1.2 0-1.9-.8-1.9-2zm6.2-4.6v-.9h.8v.9h-.8zm0 6.5v-5.5h.7v5.5h-.7zm2.4 0v-7.7h.8v7.7h-.8zm2.2-2.7c0-1.8 1-2.9 2.5-2.9c.7 0 1.5.4 1.8 1v-3.1h.7v7.7h-.7s-.01-.87 0-.9c-.3.6-1.1 1-1.8 1c-1.5 0-2.5-1.1-2.5-2.8zm2.5 2.2c1.2 0 1.8-1.1 1.8-2.2c0-1.2-.6-2.3-1.8-2.3c-1.2 0-1.8 1.1-1.8 2.3c0 1.1.6 2.2 1.8 2.2zm3.9-1.1h.7c.1.7.6 1.1 1.4 1.1h.1c.8 0 1.3-.4 1.3-1c0-.4-.3-.7-1-.8l-.8-.2c-.8-.2-1.5-.6-1.5-1.5c0-1 .9-1.6 2-1.6c1.3 0 2 .9 2 1.8h-.7c-.1-.6-.5-1.2-1.3-1.2h-.1c-.8 0-1.2.5-1.2.9c0 .5.3.8 1 .9l.9.2c.7.2 1.4.5 1.4 1.5c0 1-.8 1.6-2 1.6c-1.5 0-2.2-.7-2.2-1.7zm7.5-1.1c0-1.7 1.1-2.9 2.5-2.9c1.5 0 2.6 1.2 2.6 2.9c0 1.7-1.1 2.8-2.6 2.8c-1.4 0-2.5-1.1-2.5-2.8zm2.6 2.2c1 0 1.7-.8 1.7-2.2c0-1.5-.7-2.3-1.7-2.3h-.1c-1 0-1.8.8-1.8 2.3c0 1.4.8 2.2 1.8 2.2h.1zm3.9.5v-5.5h.7v.9c.3-.6 1-1 1.9-1c1.1 0 1.9.7 1.9 2c.05.01 0 3.6 0 3.6h-.7s.04-3.37 0-3.4c0-1.1-.4-1.6-1.3-1.6h-.1c-1.1 0-1.7 1.1-1.7 2.3v2.7h-.7zm10 0c-.7 0-1-.3-1-1v-3.9h-1.3v-.6h1.3v-1.8h.7v1.8h1.4v.6h-1.4s.02 3.86 0 3.9c0 .3.1.4.5.4h1.1v.6h-1.3zm2.4 0v-7.7h.7v3.1c.4-.6 1.1-1 2-1c1.2 0 1.9.8 1.9 2c-.04-.02 0 3.6 0 3.6h-.8s.05-3.4 0-3.4c0-1.1-.4-1.6-1.3-1.6h-.1c-.8 0-1.7.8-1.7 2v3h-.7zm6-2.8c0-1.9 1.1-2.8 2.4-2.8c1.4 0 2.2 1.1 2.2 2.5c.04-.03 0 .4 0 .4h-3.9c0 1.6.8 2.2 1.7 2.2h.1c.7 0 1.2-.3 1.4-1.1h.7c-.2 1.1-1.1 1.7-2.2 1.7c-1.4 0-2.4-1-2.4-2.9zm3.9-.5c0-1-.6-1.7-1.4-1.7h-.2c-.6 0-1.4.4-1.6 1.7h3.2zm3.9 1.7h.8c0 .7.6 1.1 1.4 1.1h.1c.8 0 1.2-.4 1.2-1c0-.4-.2-.7-.9-.8l-.8-.2c-.9-.2-1.5-.6-1.5-1.5c0-1 .9-1.6 1.9-1.6c1.4 0 2.1.9 2.1 1.8h-.7c-.1-.6-.5-1.2-1.3-1.2h-.1c-.8 0-1.2.5-1.2.9c0 .5.3.8 1 .9l.8.2c.8.2 1.4.5 1.4 1.5c0 1-.8 1.6-2 1.6c-1.4 0-2.1-.7-2.2-1.7zm5.7-.3c-.02.04 0-3.6 0-3.6h.7v3.4c0 1.1.4 1.6 1.3 1.6h.1c.8 0 1.6-.7 1.6-2c.02-.02 0-3 0-3h.7v5.5h-.7s.02-1.03 0-1c-.3.7-.9 1.1-1.8 1.1c-1.2 0-1.9-.8-1.9-2zm5.9-.8c0-1.7.9-2.9 2.5-2.9c1.2 0 2 .7 2.2 1.9h-.8c-.1-.8-.6-1.3-1.3-1.3h-.1c-1.2 0-1.8 1.1-1.8 2.3c0 1.2.6 2.2 1.8 2.2h.1c.7 0 1.2-.5 1.3-1.3h.8c-.2 1.2-1 1.9-2.2 1.9c-1.6 0-2.5-1.2-2.5-2.8zm5.7 0c0-1.7.9-2.9 2.6-2.9c1.2 0 2 .7 2.1 1.9h-.7c-.1-.8-.6-1.3-1.4-1.3h-.1c-1.2 0-1.8 1.1-1.8 2.3c0 1.2.6 2.2 1.8 2.2h.1c.8 0 1.3-.5 1.4-1.3h.7c-.2 1.2-.9 1.9-2.1 1.9c-1.7 0-2.6-1.2-2.6-2.8zm5.8-.1c0-1.9 1.2-2.8 2.4-2.8c1.4 0 2.3 1.1 2.3 2.5c-.04-.03 0 .4 0 .4h-4c0 1.6.8 2.2 1.7 2.2h.1c.7 0 1.2-.3 1.4-1.1h.8c-.3 1.1-1.1 1.7-2.3 1.7c-1.3 0-2.4-1-2.4-2.9zm3.9-.5c0-1-.5-1.7-1.4-1.7h-.1c-.7 0-1.5.4-1.7 1.7h3.2zm1.9 1.7h.7c0 .7.6 1.1 1.4 1.1h.1c.8 0 1.2-.4 1.2-1c0-.4-.2-.7-.9-.8l-.8-.2c-.8-.2-1.5-.6-1.5-1.5c0-1 .9-1.6 1.9-1.6c1.4 0 2.1.9 2.1 1.8h-.7c-.1-.6-.5-1.2-1.3-1.2h-.1c-.8 0-1.2.5-1.2.9c0 .5.3.8 1 .9l.8.2c.8.2 1.5.5 1.5 1.5c0 1-.8 1.6-2.1 1.6c-1.4 0-2.1-.7-2.1-1.7zm5.3 0h.7c.1.7.6 1.1 1.4 1.1h.1c.8 0 1.3-.4 1.3-1c0-.4-.3-.7-1-.8l-.8-.2c-.8-.2-1.5-.6-1.5-1.5c0-1 .9-1.6 2-1.6c1.3 0 2 .9 2 1.8h-.7c-.1-.6-.5-1.2-1.3-1.2h-.1c-.8 0-1.2.5-1.2.9c0 .5.3.8 1 .9l.9.2c.7.2 1.4.5 1.4 1.5c0 1-.8 1.6-2 1.6c-1.5 0-2.2-.7-2.2-1.7zm7.5-1.1c0-1.7 1.1-2.9 2.5-2.9c1.4 0 2.6 1.2 2.6 2.9c0 1.7-1.2 2.8-2.6 2.8c-1.4 0-2.5-1.1-2.5-2.8zm2.6 2.2c1 0 1.7-.8 1.7-2.2c0-1.5-.7-2.3-1.7-2.3h-.1c-1 0-1.8.8-1.8 2.3c0 1.4.8 2.2 1.8 2.2h.1zm4.4.5v-4.9h-1.3v-.6h1.3v-1.2c0-.7.3-1 1-1h1.4v.6h-1.3c-.3 0-.4.1-.4.5v1.1h1.4v.6h-1.4v4.9h-.7zm12.3-7.7h1.3v7.7h-.8v-7.1l-2.7 7.1h-1l-2.7-7.1v7.1h-.8v-7.7h1.3l2.7 7.1l2.7-7.1zm2.9 4.9c0-1.9 1.2-2.8 2.5-2.8c1.3 0 2.2 1.1 2.2 2.5v.4h-4c.1 1.6.9 2.2 1.8 2.2c.8 0 1.3-.3 1.5-1.1h.7c-.3 1.1-1.1 1.7-2.2 1.7c-1.4 0-2.5-1-2.5-2.9zm4-.5c-.1-1-.6-1.7-1.5-1.7h-.1c-.7 0-1.5.4-1.6 1.7h3.2zm2.2 3.3v-5.5h.6s.02 1.26 0 1.3c.3-.9 1-1.3 1.7-1.3c.02-.05.5 0 .5 0v.6h-.4c-1.1 0-1.7.8-1.7 2.2c-.03.03 0 2.7 0 2.7h-.7zm3.9-6.5v-.9h.8v.9h-.8zm0 6.5v-5.5h.8v5.5h-.8zm4.2 0c-.8 0-1.1-.3-1.1-1c.02.02 0-3.9 0-3.9h-1.2v-.6h1.2v-1.8h.7v1.8h1.4v.6h-1.4s.03 3.86 0 3.9c0 .3.1.4.5.4h1.1v.6H178zm1.8-2.7c0-1.7 1.1-2.9 2.5-2.9c1.5 0 2.6 1.2 2.6 2.9c0 1.7-1.1 2.8-2.6 2.8c-1.4 0-2.5-1.1-2.5-2.8zm2.6 2.2c1 0 1.7-.8 1.7-2.2c0-1.5-.7-2.3-1.7-2.3h-.1c-1 0-1.8.8-1.8 2.3c0 1.4.8 2.2 1.8 2.2h.1zm3.9.5v-5.5h.7s.01.93 0 .9c.3-.6 1-1 1.9-1c1.1 0 2 .7 2 2c-.04.01 0 3.6 0 3.6h-.8s.04-3.37 0-3.4c0-1.1-.4-1.6-1.3-1.6c-1.2 0-1.8 1.1-1.8 2.3v2.7h-.7zm5.9-5.3v-.5s.3.03.3 0c.4 0 .7-.2.7-.6c-.04-.03 0-.2 0-.2h-.6v-1.1h1.1s-.05 1.33 0 1.3c0 .7-.4 1.1-1.1 1.1c.01-.03-.4 0-.4 0zm2.1 3.7h.7c.1.7.7 1.1 1.5 1.1h.1c.7 0 1.2-.4 1.2-1c0-.4-.2-.7-1-.8l-.8-.2c-.8-.2-1.5-.6-1.5-1.5c0-1 1-1.6 2-1.6c1.4 0 2 .9 2.1 1.8h-.7c-.1-.6-.6-1.2-1.3-1.2h-.1c-.8 0-1.2.5-1.2.9c0 .5.3.8 1 .9l.8.2c.8.2 1.4.5 1.4 1.5c0 1-.8 1.6-2 1.6c-1.4 0-2.1-.7-2.2-1.7zm8.5 1.6v-4.9h-1.3v-.6h1.3v-1.2c0-.7.3-1 1.1-1h1.3v.6H204c-.4 0-.5.1-.5.5c.03-.05 0 1.1 0 1.1h3.7v5.5h-.7v-4.9h-3v4.9h-.7zm3.6-6.5v-.9h.9v.9h-.9zm2.6 6.5v-5.5h.6s.03 1.26 0 1.3c.3-.9 1-1.3 1.7-1.3c.04-.05.5 0 .5 0v.6h-.4c-1.1 0-1.7.8-1.7 2.2v2.7h-.7zm3.5-1.6h.8c0 .7.6 1.1 1.4 1.1h.1c.8 0 1.2-.4 1.2-1c0-.4-.2-.7-.9-.8l-.8-.2c-.9-.2-1.5-.6-1.5-1.5c0-1 .9-1.6 1.9-1.6c1.4 0 2 .9 2.1 1.8h-.7c-.1-.6-.6-1.2-1.3-1.2h-.1c-.8 0-1.2.5-1.2.9c0 .5.3.8 1 .9l.8.2c.8.2 1.4.5 1.4 1.5c0 1-.8 1.6-2 1.6c-1.4 0-2.1-.7-2.2-1.7zm7.4 1.6c-.7 0-1-.3-1-1c-.02.02 0-3.9 0-3.9h-1.3v-.6h1.3v-1.8h.7v1.8h1.4v.6h-1.4v3.9c0 .3.1.4.4.4h1.1v.6h-1.2zm4.2-2.7c0-1.8 1-2.9 2.5-2.9c.7 0 1.5.4 1.8 1v-3.1h.7v7.7h-.7v-.9c-.3.6-1.1 1-1.8 1c-1.5 0-2.5-1.1-2.5-2.8zm2.5 2.2c1.2 0 1.8-1.1 1.8-2.2c0-1.2-.6-2.3-1.8-2.3c-1.2 0-1.8 1.1-1.8 2.3c0 1.1.6 2.2 1.8 2.2zm4-2.3c0-1.9 1.1-2.8 2.4-2.8c1.4 0 2.2 1.1 2.2 2.5c.04-.03 0 .4 0 .4h-3.9c0 1.6.8 2.2 1.7 2.2h.1c.7 0 1.2-.3 1.4-1.1h.7c-.2 1.1-1.1 1.7-2.2 1.7c-1.4 0-2.4-1-2.4-2.9zm3.9-.5c0-1-.6-1.7-1.4-1.7h-.2c-.6 0-1.4.4-1.6 1.7h3.2zm5.8-2.2h.7l-2.1 5.5h-.9l-2.1-5.5h.8l1.8 4.9l1.8-4.9zm1.3 2.7c0-1.9 1.2-2.8 2.5-2.8c1.3 0 2.2 1.1 2.2 2.5c.02-.03 0 .4 0 .4h-3.9c0 1.6.8 2.2 1.7 2.2h.1c.7 0 1.2-.3 1.4-1.1h.7c-.2 1.1-1.1 1.7-2.2 1.7c-1.4 0-2.5-1-2.5-2.9zm4-.5c0-1-.6-1.7-1.5-1.7h-.1c-.7 0-1.5.4-1.6 1.7h3.2zm2.2 3.3v-7.7h.7v7.7h-.7zm2.1-2.7c0-1.7 1.1-2.9 2.6-2.9c1.4 0 2.5 1.2 2.5 2.9c0 1.7-1.1 2.8-2.5 2.8c-1.5 0-2.6-1.1-2.6-2.8zm2.6 2.2c1 0 1.8-.8 1.8-2.2c0-1.5-.8-2.3-1.8-2.3h-.1c-1 0-1.7.8-1.7 2.3c0 1.4.7 2.2 1.7 2.2h.1zm3.9 2.7v-7.7h.7s.03.89 0 .9c.4-.6 1.2-1 1.9-1c1.4 0 2.4 1.1 2.4 2.9c0 1.7-1 2.8-2.4 2.8c-.7 0-1.5-.4-1.9-1c.03.03 0 3.1 0 3.1h-.7zm2.5-2.7c1.2 0 1.8-1.1 1.8-2.2c0-1.2-.6-2.3-1.8-2.3c-1.2 0-1.8 1.1-1.8 2.3c0 1.1.6 2.2 1.8 2.2zm4 .5v-5.5h.7s-.02.89 0 .9c.3-.6.9-1 1.8-1c.8 0 1.5.4 1.7 1.2c.4-.8 1.1-1.2 2-1.2c1 0 1.8.7 1.8 2c.05.01 0 3.6 0 3.6h-.7s.04-3.37 0-3.4c0-1.1-.4-1.6-1.2-1.6h-.1c-1.1 0-1.6 1.1-1.6 2.3c-.04-.04 0 2.7 0 2.7h-.7s-.05-3.37 0-3.4c0-1.1-.5-1.6-1.3-1.6h-.1c-1.1 0-1.6 1.1-1.6 2.3c-.02-.04 0 2.7 0 2.7h-.7zm9.5-2.8c0-1.9 1.1-2.8 2.4-2.8c1.4 0 2.2 1.1 2.2 2.5c.03-.03 0 .4 0 .4h-3.9c0 1.6.8 2.2 1.7 2.2h.1c.7 0 1.2-.3 1.4-1.1h.7c-.2 1.1-1.1 1.7-2.2 1.7c-1.4 0-2.4-1-2.4-2.9zm3.9-.5c0-1-.6-1.7-1.4-1.7h-.2c-.6 0-1.4.4-1.6 1.7h3.2zm2.2 3.3v-5.5h.7s.02.93 0 .9c.3-.6 1-1 1.9-1c1.1 0 2 .7 2 2c-.03.01 0 3.6 0 3.6h-.7s-.05-3.37 0-3.4c0-1.1-.5-1.6-1.4-1.6c-1.2 0-1.8 1.1-1.8 2.3c.02-.04 0 2.7 0 2.7h-.7zm7.8 0c-.7 0-1-.3-1-1v-3.9H284v-.6h1.3v-1.8h.7v1.8h1.4v.6H286v3.9c0 .3.1.4.4.4h1.1v.6h-1.2z" stroke="none" fill="#dcddce"/></g><g id="Polygon16528"><path d="m.6 139.6c0-1.2 1-1.6 1.9-1.6c-.05-.05 1.7-.2 1.7-.2v-.2c0-.9-.5-1.5-1.4-1.5c-.7 0-1.3.4-1.4 1.1h-.7c0-1 .9-1.7 2.1-1.7c1.4 0 2.1 1 2.1 2.1v2.3c0 .3 0 .8.1 1.2h-.7c0-.2-.1-.6-.1-.9c-.2.5-.9 1-1.9 1c-1 0-1.7-.7-1.7-1.6zm1.9 1c.7 0 1.7-.6 1.7-1.5v-.7l-1.6.1c-.8.1-1.3.5-1.3 1.1c0 .6.4 1 1.1 1h.1zm10.5-5h.8l-1.8 5.5h-1l-1.2-4.7l-1.2 4.7h-1l-1.8-5.5h.8l1.5 4.9l1.2-4.9h1l1.3 4.9l1.4-4.9zm1.5 4c0-1.2 1.1-1.6 1.9-1.6c.01-.05 1.7-.2 1.7-.2c0 0 .05-.2 0-.2c0-.9-.5-1.5-1.3-1.5h-.1c-.7 0-1.3.4-1.4 1.1h-.7c.1-1 1-1.7 2.1-1.7c1.5 0 2.2 1 2.2 2.1v3.5h-.6c-.1-.2-.1-.6-.1-.9c-.2.5-1 1-1.9 1c-1 0-1.8-.7-1.8-1.6zm1.9 1c.8 0 1.7-.6 1.7-1.5c.05.04 0-.7 0-.7l-1.5.1c-.8.1-1.4.5-1.4 1.1c0 .6.5 1 1.1 1h.1zm8.6-5l-2.2 5.3s-.04 1.08 0 1.1c0 .6-.4.9-1.1.9c.02.03-1.7 0-1.7 0v-.6s1.61.03 1.6 0c.3 0 .5-.1.5-.4c-.05-.01 0-.9 0-.9l-2.4-5.4h.8l1.9 4.5l1.9-4.5h.7zm.4 5.5V140h1.1v1.1h-1.1z" stroke="none" fill="#dcddce"/></g><g id="Polygon16527"><path d="m7.5 120.5h.7L6.4 126h-.9l-1.3-4.8L3 126h-1l-1.7-5.5h.7l1.5 4.8l1.3-4.8h.9l1.3 4.9l1.5-4.9zm1.8-1v-1h.8v1h-.8zm0 6.5v-5.5h.8v5.5h-.8zm4.2 0c-.8 0-1.1-.3-1.1-1c.02-.02 0-3.9 0-3.9h-1.2v-.6h1.2v-1.8h.7v1.8h1.4v.6h-1.4s.03 3.82 0 3.8c0 .4.1.5.5.5c-.03-.04 1.1 0 1.1 0v.6s-1.24-.03-1.2 0zm2.3 0v-7.7h.7s.02 3.1 0 3.1c.4-.6 1.1-1 2-1c1.2 0 1.9.8 1.9 1.9c-.03.04 0 3.7 0 3.7h-.7s-.04-3.44 0-3.4c0-1.1-.5-1.6-1.4-1.6h-.1c-.8 0-1.7.7-1.7 2c.02 0 0 3 0 3h-.7zm10.1 0c-.7 0-1.1-.3-1.1-1c.03-.02 0-3.9 0-3.9h-1.2v-.6h1.2v-1.8h.7v1.8h1.4v.6h-1.4s.04 3.82 0 3.8c0 .4.2.5.5.5c-.02-.04 1.1 0 1.1 0v.6s-1.23-.03-1.2 0zm2.3 0v-7.7h.7s.03 3.1 0 3.1c.4-.6 1.1-1 2-1c1.2 0 1.9.8 1.9 1.9c-.02.04 0 3.7 0 3.7h-.7s-.03-3.44 0-3.4c0-1.1-.5-1.6-1.4-1.6h-.1c-.8 0-1.7.7-1.7 2c.03 0 0 3 0 3h-.7zm6-2.8c0-1.9 1.2-2.8 2.4-2.8c1.4 0 2.3 1 2.3 2.4c-.04.03 0 .5 0 .5c0 0-4-.03-4 0c0 1.5.8 2.2 1.7 2.2h.1c.7 0 1.2-.4 1.4-1.1h.7c-.2 1.1-1 1.7-2.2 1.7c-1.3 0-2.4-1-2.4-2.9zm3.9-.5c0-1-.6-1.7-1.4-1.7h-.1c-.7 0-1.5.4-1.7 1.7h3.2zm11.3-4.4h1.3v7.7h-.8v-7.1l-2.7 7.1h-1l-2.8-7.1v7.1h-.7v-7.7h1.3l2.7 7.1l2.7-7.1zm2.9 6.2c0-1.3 1-1.6 1.9-1.7l1.7-.1s.02-.25 0-.3c0-.9-.5-1.4-1.4-1.4c-.7 0-1.3.3-1.4 1h-.7c.1-1 .9-1.6 2.1-1.6c1.4 0 2.1.9 2.1 2v2.4c0 .3 0 .8.1 1.2h-.7v-.9c-.2.5-1 1-2 1c-.9 0-1.7-.7-1.7-1.6zm1.9 1c.8 0 1.7-.7 1.7-1.5c.02-.01 0-.7 0-.7c0 0-1.57.06-1.6.1c-.8 0-1.3.4-1.3 1c0 .6.5 1.1 1.1 1.1h.1zm3.8-2.3c0-1.6.9-2.8 2.5-2.8c1.2 0 2.1.7 2.2 1.8h-.7c-.2-.7-.7-1.2-1.4-1.2h-.1c-1.2 0-1.8 1-1.8 2.2c0 1.2.6 2.3 1.8 2.3h.1c.7 0 1.2-.6 1.4-1.3h.7c-.2 1.1-1 1.9-2.2 1.9c-1.6 0-2.5-1.3-2.5-2.9zm10.1 5s-.05-3.11 0-3.1c-.4.6-1.2 1-1.9 1c-1.4 0-2.4-1.1-2.4-2.9c0-1.7 1-2.8 2.4-2.8c.7 0 1.5.3 1.9.9c-.05.05 0-.8 0-.8h.7v7.7h-.7zm-1.8-2.7c1.2 0 1.8-1.1 1.8-2.3c0-1.2-.6-2.2-1.8-2.2h-.1c-1.1 0-1.7 1-1.7 2.2c0 1.2.6 2.3 1.7 2.3h.1zm4.2-1.4c-.04 0 0-3.6 0-3.6h.7s-.02 3.38 0 3.4c0 1 .4 1.6 1.3 1.6h.1c.8 0 1.6-.8 1.6-2.1v-2.9h.7v5.5h-.7v-1.1c-.3.8-.9 1.2-1.8 1.2c-1.3 0-1.9-.8-1.9-2zm5.9.4c0-1.3 1-1.6 1.9-1.7l1.7-.1v-.3c0-.9-.5-1.4-1.4-1.4c-.7 0-1.3.3-1.4 1h-.7c0-1 .9-1.6 2.1-1.6c1.4 0 2.1.9 2.1 2v2.4c0 .3 0 .8.1 1.2h-.7v-.9c-.3.5-1 1-2 1c-1 0-1.7-.7-1.7-1.6zm1.9 1c.8 0 1.7-.7 1.7-1.5v-.7s-1.6.06-1.6.1c-.8 0-1.3.4-1.3 1c0 .6.5 1.1 1.1 1.1h.1zm4.1.5v-5.5h.7s-.04 1.22 0 1.2c.2-.9.9-1.3 1.7-1.3h.5v.7s-.48-.03-.5 0c-1 0-1.7.8-1.7 2.2c.02-.01 0 2.7 0 2.7h-.7zm3.9-6.5v-1h.9v1h-.9zm.1 6.5v-5.5h.7v5.5h-.7zm2.1-2.8c0-1.9 1.2-2.8 2.5-2.8c1.3 0 2.2 1 2.2 2.4v.5s-3.96-.03-4 0c.1 1.5.9 2.2 1.8 2.2c.8 0 1.3-.4 1.5-1.1h.7c-.3 1.1-1.1 1.7-2.2 1.7c-1.4 0-2.5-1-2.5-2.9zm4-.5c0-1-.6-1.7-1.5-1.7h-.1c-.7 0-1.5.4-1.6 1.7h3.2zm4.4.5c.05.02 0-4.9 0-4.9h.8s.02 4.81 0 4.8c0 1.4.7 2.3 2 2.3h.1c1.3 0 2-.9 2-2.3v-4.8h.8s-.04 4.92 0 4.9c0 1.7-1 2.9-2.8 2.9c-1.9 0-2.9-1.2-2.9-2.9zm7.5 2.8v-5.5h.7s.01.89 0 .9c.3-.6 1-1 1.9-1c1.1 0 2 .7 2 2c-.04-.03 0 3.6 0 3.6h-.8s.05-3.41 0-3.4c0-1.1-.4-1.6-1.3-1.6c-1.2 0-1.8 1-1.8 2.2v2.8h-.7zm6.2-6.5v-1h.8v1h-.8zm.1 6.5v-5.5h.7v5.5h-.7zm6.2-5.5h.7l-2.1 5.5h-.9l-2.1-5.5h.7l1.8 4.8l1.9-4.8zm1.3 2.7c0-1.9 1.2-2.8 2.5-2.8c1.3 0 2.2 1 2.2 2.4v.5s-3.96-.03-4 0c.1 1.5.9 2.2 1.8 2.2c.8 0 1.3-.4 1.5-1.1h.7c-.3 1.1-1.1 1.7-2.2 1.7c-1.4 0-2.5-1-2.5-2.9zm4-.5c0-1-.6-1.7-1.5-1.7h-.1c-.7 0-1.5.4-1.6 1.7h3.2zm2.2 3.3v-5.5h.6s.02 1.22 0 1.2c.3-.9 1-1.3 1.7-1.3h.5v.7s-.42-.03-.4 0c-1.1 0-1.7.8-1.7 2.2c-.02-.01 0 2.7 0 2.7h-.7zm3.5-1.7h.8c0 .8.6 1.2 1.4 1.2h.1c.8 0 1.2-.4 1.2-1c0-.4-.2-.7-.9-.9l-.8-.1c-.9-.2-1.5-.6-1.5-1.5c0-1.1.9-1.6 1.9-1.6c1.4 0 2 .8 2.1 1.7h-.7c-.1-.6-.6-1.1-1.3-1.1h-.1c-.8 0-1.2.4-1.2.9c0 .5.3.7 1 .9l.8.2c.8.1 1.4.5 1.4 1.4c0 1.1-.8 1.7-2 1.7c-1.4 0-2.1-.8-2.2-1.8zm5.7-4.8v-1h.8v1h-.8zm0 6.5v-5.5h.7v5.5h-.7zm4.1 0c-.7 0-1-.3-1-1v-3.9h-1.3v-.6h1.3v-1.8h.7v1.8h1.4v.6h-1.4s.02 3.82 0 3.8c0 .4.1.5.5.5c-.04-.04 1.1 0 1.1 0v.6s-1.25-.03-1.3 0zm7.3-5.5l-2.3 5.3s.04 1.03 0 1c0 .7-.3 1-1 1c0-.02-1.7 0-1.7 0v-.6s1.59-.02 1.6 0c.3 0 .4-.1.4-.5c.03.04 0-.9 0-.9l-2.3-5.3h.8l1.9 4.4l1.9-4.4h.7zm10.1-2.2h1.3v7.7h-.8v-7.1L153 126h-1.1l-2.7-7.1v7.1h-.8v-7.7h1.3l2.7 7.1l2.7-7.1zm2.9 4.9c0-1.9 1.2-2.8 2.5-2.8c1.3 0 2.2 1 2.2 2.4v.5s-3.95-.03-4 0c.1 1.5.9 2.2 1.8 2.2c.8 0 1.3-.4 1.5-1.1h.7c-.2 1.1-1.1 1.7-2.2 1.7c-1.4 0-2.5-1-2.5-2.9zm4-.5c0-1-.6-1.7-1.5-1.7h-.1c-.7 0-1.5.4-1.6 1.7h3.2zm3.7 3.3c-.7 0-1-.3-1-1v-3.9h-1.3v-.6h1.3v-1.8h.7v1.8h1.4v.6h-1.4v3.8c0 .4.1.5.5.5c-.05-.04 1.1 0 1.1 0v.6s-1.26-.03-1.3 0zm2.4 0v-5.5h.6s.05 1.22 0 1.2c.3-.9 1-1.3 1.8-1.3h.4v.7s-.39-.03-.4 0c-1 0-1.7.8-1.7 2.2v2.7h-.7zm3.5-2.8c0-1.7 1.1-2.8 2.5-2.8c1.4 0 2.5 1.1 2.5 2.8c0 1.7-1.1 2.9-2.5 2.9c-1.4 0-2.5-1.2-2.5-2.9zm2.6 2.3c1 0 1.7-.9 1.7-2.3c0-1.4-.7-2.2-1.7-2.2h-.1c-1 0-1.8.8-1.8 2.2c0 1.4.8 2.3 1.8 2.3h.1zm5.6-2h.8c0 1.2.9 1.9 2.2 1.9h.1c1.2 0 1.8-.7 1.8-1.5c0-.7-.4-1.1-1.4-1.3l-1.2-.2c-1.2-.3-1.9-.9-1.9-2c0-1.3 1-2.2 2.7-2.2c1.6 0 2.7.9 2.7 2.3h-.7c-.1-1-.9-1.6-2-1.6h-.1c-1 0-1.8.6-1.8 1.4c0 .7.5 1.1 1.3 1.3l1.2.2c1.3.3 2 .9 2 2.1c0 1.3-1 2.2-2.7 2.2c-1.9 0-3-.9-3-2.6zm9.1 2.5c-.7 0-1-.3-1-1c-.03-.02 0-3.9 0-3.9h-1.3v-.6h1.3v-1.8h.7v1.8h1.4v.6h-1.4s-.02 3.82 0 3.8c0 .4.1.5.4.5c.02-.04 1.1 0 1.1 0v.6s-1.19-.03-1.2 0zm2.1-1.5c0-1.3 1-1.6 1.9-1.7l1.7-.1s.03-.25 0-.3c0-.9-.5-1.4-1.3-1.4h-.1c-.7 0-1.3.3-1.4 1h-.7c.1-1 .9-1.6 2.1-1.6c1.5 0 2.1.9 2.1 2v2.4c0 .3 0 .8.1 1.2h-.7v-.9c-.2.5-1 1-2 1c-.9 0-1.7-.7-1.7-1.6zm1.9 1c.8 0 1.7-.7 1.7-1.5c.03-.01 0-.7 0-.7c0 0-1.56.06-1.6.1c-.7 0-1.3.4-1.3 1c0 .6.5 1.1 1.1 1.1h.1zm5.7.5c-.7 0-1.1-.3-1.1-1c.04-.02 0-3.9 0-3.9h-1.2v-.6h1.2v-1.8h.8v1.8h1.3v.6h-1.3s-.05 3.82 0 3.8c0 .4.1.5.4.5c-.01-.04 1.1 0 1.1 0v.6s-1.22-.03-1.2 0zm2.3-6.5v-1h.8v1h-.8zm0 6.5v-5.5h.7v5.5h-.7zm2.1-2.8c0-1.7 1.2-2.8 2.6-2.8c1.4 0 2.5 1.1 2.5 2.8c0 1.7-1.1 2.9-2.5 2.9c-1.4 0-2.6-1.2-2.6-2.9zm2.6 2.3c1 0 1.8-.9 1.8-2.3c0-1.4-.8-2.2-1.8-2.2h-.1c-1 0-1.7.8-1.7 2.2c0 1.4.7 2.3 1.7 2.3h.1zm3.9.5v-5.5h.7s.04.89 0 .9c.4-.6 1.1-1 2-1c1.1 0 1.9.7 1.9 2c-.01-.03 0 3.6 0 3.6h-.7s-.02-3.41 0-3.4c0-1.1-.5-1.6-1.3-1.6h-.1c-1.2 0-1.8 1-1.8 2.2c.04.02 0 2.8 0 2.8h-.7zm8.5-6.5v-1h.9v1h-.9zm-1.8 8.3v-.6s1.45-.02 1.4 0c.4 0 .5-.1.5-.5v-6.2h.7v6.3c0 .7-.3 1-1 1c-.04-.02-1.6 0-1.6 0zm4.3-3.7c-.03 0 0-3.6 0-3.6h.7s-.02 3.38 0 3.4c0 1 .4 1.6 1.3 1.6h.1c.8 0 1.6-.8 1.6-2.1v-2.9h.7v5.5h-.7s.01-1.06 0-1.1c-.3.8-.9 1.2-1.8 1.2c-1.2 0-1.9-.8-1.9-2zm5.8.2h.7c.1.8.7 1.2 1.4 1.2h.1c.8 0 1.3-.4 1.3-1c0-.4-.3-.7-1-.9l-.8-.1c-.8-.2-1.5-.6-1.5-1.5c0-1.1.9-1.6 2-1.6c1.3 0 2 .8 2 1.7h-.7c0-.6-.5-1.1-1.3-1.1h-.1c-.8 0-1.2.4-1.2.9c0 .5.3.7 1 .9l.9.2c.8.1 1.4.5 1.4 1.4c0 1.1-.8 1.7-2 1.7c-1.4 0-2.2-.8-2.2-1.8zm7.4 1.7c-.8 0-1.1-.3-1.1-1c.02-.02 0-3.9 0-3.9h-1.2v-.6h1.2v-1.8h.7v1.8h1.4v.6h-1.4s.03 3.82 0 3.8c0 .4.1.5.5.5c-.03-.04 1.1 0 1.1 0v.6s-1.24-.03-1.2 0zm4.2-2h.7c.2.9.8 1.4 1.7 1.4h.1c1 0 1.8-.6 1.8-1.5c0-.9-.8-1.4-1.7-1.4c-.02-.02-.5 0-.5 0v-.7s.58-.03.6 0c.9 0 1.5-.7 1.5-1.4c0-1-.7-1.5-1.7-1.5h-.1c-.9 0-1.5.6-1.6 1.3h-.7c.1-1.2 1-2 2.4-2c1.4 0 2.4.7 2.4 2.1c0 .8-.5 1.5-1.2 1.8c.7.2 1.3.9 1.3 1.8c0 1.5-1.2 2.2-2.5 2.2c-1.5 0-2.4-.8-2.5-2.1zm6.2 0h.7c.2.9.9 1.4 1.8 1.4h.2c1 0 1.7-.8 1.7-1.9c0-.9-.6-1.6-1.6-1.6h-.1c-.6 0-1.3.3-1.7.8c.02.05-.7 0-.7 0l.9-4.4h3.9v.7h-3.3s-.57 2.76-.6 2.8c.4-.4 1-.6 1.6-.6c1.5 0 2.4 1 2.4 2.3c0 1.5-1.1 2.6-2.6 2.6c-1.4 0-2.5-.7-2.6-2.1zm6.4-1.9c0-2.6 1.1-3.9 2.9-3.9c1.9 0 3 1.3 3 3.9c0 2.6-1.1 4-3 4c-1.8 0-2.9-1.4-2.9-4zm3 3.3c.9 0 2.1-.7 2.1-3.3c0-2.5-1.2-3.2-2.1-3.2h-.1c-.9 0-2.1.7-2.1 3.2c0 2.6 1.2 3.3 2.1 3.3h.1zm4.5.6v-5.5h.7s-.02.85 0 .8c.3-.5 1-.9 1.8-.9c.8 0 1.5.4 1.7 1.1c.4-.7 1.1-1.1 2-1.1c1.1 0 1.9.7 1.9 2c-.05-.03 0 3.6 0 3.6h-.8s.04-3.41 0-3.4c0-1.1-.4-1.6-1.2-1.6h-.1c-1.1 0-1.6 1-1.6 2.2c-.03.02 0 2.8 0 2.8h-.7s-.05-3.41 0-3.4c0-1.1-.5-1.6-1.3-1.6h-.1c-1.1 0-1.6 1-1.6 2.2c-.02.02 0 2.8 0 2.8h-.7z" stroke="none" fill="#dcddce"/></g><g id="Polygon16526"><path d="m7.8 103.1h1.2v7.7h-.7v-7.1l-2.7 7.1H4.5l-2.7-7.1v7.1h-.7v-7.7h1.3l2.7 7.1l2.7-7.1zm2.9 6.2c0-1.2 1-1.6 1.9-1.6c-.03-.05 1.7-.2 1.7-.2v-.2c0-.9-.5-1.5-1.4-1.5c-.7 0-1.3.4-1.4 1.1h-.7c.1-1 .9-1.7 2.1-1.7c1.4 0 2.1 1 2.1 2.1v2.3c0 .3 0 .8.1 1.2h-.7v-.9c-.3.5-1 1-2 1c-1 0-1.7-.7-1.7-1.6zm1.9 1c.8 0 1.7-.6 1.7-1.5v-.7s-1.59.11-1.6.1c-.8.1-1.3.5-1.3 1.1c0 .6.5 1 1.1 1h.1zm3.8-2.2c0-1.6.9-2.9 2.5-2.9c1.2 0 2.1.7 2.2 1.9h-.7c-.2-.8-.7-1.3-1.4-1.3h-.1c-1.2 0-1.8 1.1-1.8 2.3c0 1.2.6 2.2 1.8 2.2h.1c.7 0 1.2-.5 1.4-1.2h.7c-.2 1.1-1 1.8-2.2 1.8c-1.6 0-2.5-1.2-2.5-2.8zm10 4.9s.03-3.06 0-3.1c-.3.6-1.1 1-1.8 1c-1.4 0-2.5-1.1-2.5-2.8c0-1.8 1.1-2.9 2.5-2.9c.7 0 1.5.4 1.8 1c.03 0 0-.9 0-.9h.7v7.7h-.7zm-1.7-2.7c1.2 0 1.7-1 1.7-2.2c0-1.2-.5-2.3-1.7-2.3h-.1c-1.2 0-1.7 1.1-1.7 2.3c0 1.2.5 2.2 1.7 2.2h.1zm4.1-1.4c.04.05 0-3.6 0-3.6h.8s-.04 3.43 0 3.4c0 1.1.4 1.6 1.3 1.6h.1c.8 0 1.6-.7 1.6-2c-.02-.01 0-3 0-3h.7v5.5h-.7s-.02-1.01 0-1c-.3.7-1 1.1-1.9 1.1c-1.2 0-1.9-.8-1.9-2zm5.9.4c0-1.2 1.1-1.6 1.9-1.6c.04-.05 1.8-.2 1.8-.2c0 0-.02-.2 0-.2c0-.9-.5-1.5-1.4-1.5h-.1c-.7 0-1.2.4-1.3 1.1h-.7c0-1 .9-1.7 2.1-1.7c1.4 0 2.1 1 2.1 2.1v3.5h-.6c-.1-.2-.1-.6-.1-.9c-.2.5-.9 1-1.9 1c-1 0-1.8-.7-1.8-1.6zm2 1c.7 0 1.7-.6 1.7-1.5c-.02.04 0-.7 0-.7l-1.6.1c-.8.1-1.3.5-1.3 1.1c0 .6.4 1 1.1 1h.1zm4.1.5v-5.5h.6s.04 1.27 0 1.3c.3-.9 1-1.3 1.7-1.3c.05-.04.5 0 .5 0v.6s-.4.02-.4 0c-1.1 0-1.7.9-1.7 2.2v2.7h-.7zm3.9-6.5v-.9h.8v.9h-.8zm.1 6.5v-5.5h.7v5.5h-.7zm2.1-2.7c0-2 1.2-2.9 2.5-2.9c1.3 0 2.2 1.1 2.2 2.5c-.02-.02 0 .4 0 .4c0 0-3.98.02-4 0c0 1.6.8 2.2 1.7 2.2h.1c.8 0 1.2-.3 1.5-1.1h.7c-.3 1.1-1.1 1.7-2.2 1.7c-1.4 0-2.5-1-2.5-2.8zm4-.6c-.1-1-.6-1.7-1.5-1.7h-.1c-.7 0-1.5.4-1.7 1.7h3.3zm4.4.6c.03-.03 0-5 0-5h.8v4.9c0 1.4.7 2.2 2 2.2h.1c1.3 0 2-.8 2-2.2c-.03-.04 0-4.9 0-4.9h.7s.04 4.97 0 5c0 1.7-.9 2.8-2.8 2.8c-1.9 0-2.8-1.1-2.8-2.8zm7.5 2.7v-5.5h.7s-.01.94 0 .9c.3-.6 1-1 1.9-1c1.1 0 1.9.7 1.9 2c.04.02 0 3.6 0 3.6h-.7s.03-3.36 0-3.4c0-1.1-.4-1.6-1.3-1.6h-.1c-1.1 0-1.7 1.1-1.7 2.3v2.7h-.7zm6.2-6.5v-.9h.8v.9h-.8zm0 6.5v-5.5h.7v5.5h-.7zm6.2-5.5h.8l-2.1 5.5h-.9l-2.1-5.5h.7l1.8 4.9l1.8-4.9zm1.4 2.8c0-2 1.2-2.9 2.5-2.9c1.3 0 2.2 1.1 2.2 2.5c-.02-.02 0 .4 0 .4c0 0-3.98.02-4 0c0 1.6.8 2.2 1.7 2.2h.1c.8 0 1.2-.3 1.5-1.1h.7c-.3 1.1-1.1 1.7-2.2 1.7c-1.4 0-2.5-1-2.5-2.8zm4-.6c-.1-1-.6-1.7-1.5-1.7h-.1c-.7 0-1.5.4-1.7 1.7h3.3zm2.1 3.3v-5.5h.7v1.3c.3-.9 1-1.3 1.7-1.3c.01-.04.5 0 .5 0v.6s-.43.02-.4 0c-1.1 0-1.7.9-1.7 2.2c-.04.04 0 2.7 0 2.7h-.8zm3.6-1.6h.7c.1.7.7 1.1 1.5 1.1h.1c.7 0 1.2-.4 1.2-1c0-.4-.2-.6-1-.8l-.8-.2c-.8-.2-1.5-.5-1.5-1.5c0-1 1-1.6 2-1.6c1.4 0 2 .9 2.1 1.8h-.7c-.1-.6-.6-1.2-1.3-1.2h-.1c-.8 0-1.2.5-1.2 1c0 .5.3.7 1 .8l.8.2c.8.2 1.4.5 1.4 1.5c0 1-.8 1.6-2 1.6c-1.4 0-2.1-.7-2.2-1.7zm5.7-4.9v-.9h.8v.9h-.8zm0 6.5v-5.5h.7v5.5h-.7zm4.1 0c-.7 0-1-.3-1-1v-3.9h-1.3v-.6h1.3v-1.8h.7v1.8h1.4v.6h-1.4v3.9c0 .3.1.4.4.4c.04.01 1.1 0 1.1 0v.6s-1.17.02-1.2 0zm7.3-5.5l-2.3 5.3s.02 1.08 0 1.1c0 .6-.3.9-1 .9c-.02.03-1.7 0-1.7 0v-.6s1.57.03 1.6 0c.3 0 .4-.1.4-.4c.01-.01 0-.9 0-.9l-2.3-5.4h.8l1.8 4.5l1.9-4.5h.8zm2.9 4c0-1.2 1-1.6 1.9-1.6c0-.05 1.7-.2 1.7-.2c0 0 .03-.2 0-.2c0-.9-.5-1.5-1.3-1.5h-.1c-.7 0-1.3.4-1.4 1.1h-.7c.1-1 .9-1.7 2.1-1.7c1.5 0 2.1 1 2.1 2.1v2.3c0 .3 0 .8.1 1.2h-.7v-.9c-.2.5-1 1-2 1c-.9 0-1.7-.7-1.7-1.6zm1.9 1c.8 0 1.7-.6 1.7-1.5c.03.04 0-.7 0-.7c0 0-1.56.11-1.6.1c-.7.1-1.3.5-1.3 1.1c0 .6.5 1 1.1 1h.1zm4.1.5v-5.5h.8s-.05.94 0 .9c.3-.6 1-1 1.9-1c1.1 0 1.9.7 1.9 2v3.6h-.7s-.01-3.36 0-3.4c0-1.1-.5-1.6-1.3-1.6h-.1c-1.2 0-1.7 1.1-1.7 2.3c-.05-.03 0 2.7 0 2.7h-.8zm6-2.7c0-1.8 1-2.9 2.5-2.9c.7 0 1.5.4 1.8 1v-3.1h.7v7.7h-.7s-.01-.86 0-.9c-.3.6-1.1 1-1.8 1c-1.5 0-2.5-1.1-2.5-2.8zm2.5 2.2c1.2 0 1.8-1 1.8-2.2c0-1.2-.6-2.3-1.8-2.3c-1.2 0-1.8 1.1-1.8 2.3c0 1.2.6 2.2 1.8 2.2zm13.4-7.2h1.2v7.7h-.7v-7.1l-2.7 7.1h-1.1l-2.7-7.1v7.1h-.7v-7.7h1.3l2.7 7.1l2.7-7.1zm2.9 6.2c0-1.2 1-1.6 1.9-1.6c-.04-.05 1.7-.2 1.7-.2v-.2c0-.9-.5-1.5-1.4-1.5c-.7 0-1.3.4-1.4 1.1h-.7c0-1 .9-1.7 2.1-1.7c1.4 0 2.1 1 2.1 2.1v2.3c0 .3 0 .8.1 1.2h-.7c0-.2-.1-.6-.1-.9c-.2.5-.9 1-1.9 1c-1 0-1.7-.7-1.7-1.6zm1.9 1c.7 0 1.7-.6 1.7-1.5v-.7l-1.6.1c-.8.1-1.3.5-1.3 1.1c0 .6.5 1 1.1 1h.1zm3.8-2.2c0-1.6.9-2.9 2.5-2.9c1.2 0 2 .7 2.2 1.9h-.8c-.1-.8-.6-1.3-1.3-1.3h-.1c-1.2 0-1.8 1.1-1.8 2.3c0 1.2.6 2.2 1.8 2.2h.1c.7 0 1.2-.5 1.3-1.2h.8c-.2 1.1-1 1.8-2.2 1.8c-1.6 0-2.5-1.2-2.5-2.8zm10 4.9s.02-3.06 0-3.1c-.3.6-1.1 1-1.8 1c-1.4 0-2.5-1.1-2.5-2.8c0-1.8 1.1-2.9 2.5-2.9c.7 0 1.5.4 1.8 1c.02 0 0-.9 0-.9h.7v7.7h-.7zm-1.7-2.7c1.1 0 1.7-1 1.7-2.2c0-1.2-.6-2.3-1.7-2.3h-.1c-1.2 0-1.7 1.1-1.7 2.3c0 1.2.5 2.2 1.7 2.2h.1zm4.1-1.4c.03.05 0-3.6 0-3.6h.7s.05 3.43 0 3.4c0 1.1.5 1.6 1.4 1.6h.1c.8 0 1.6-.7 1.6-2c-.03-.01 0-3 0-3h.7v5.5h-.7s-.03-1.01 0-1c-.3.7-1 1.1-1.9 1.1c-1.2 0-1.9-.8-1.9-2zm5.9.4c0-1.2 1.1-1.6 1.9-1.6c.03-.05 1.8-.2 1.8-.2c0 0-.03-.2 0-.2c0-.9-.6-1.5-1.4-1.5h-.1c-.7 0-1.3.4-1.3 1.1h-.8c.1-1 1-1.7 2.2-1.7c1.4 0 2.1 1 2.1 2.1v3.5h-.6c-.1-.2-.1-.6-.1-.9c-.2.5-1 1-1.9 1c-1 0-1.8-.7-1.8-1.6zm2 1c.7 0 1.7-.6 1.7-1.5c-.03.04 0-.7 0-.7l-1.6.1c-.8.1-1.3.5-1.3 1.1c0 .6.4 1 1.1 1h.1zm4.1.5v-5.5h.6s.03 1.27 0 1.3c.3-.9 1-1.3 1.7-1.3c.04-.04.5 0 .5 0v.6s-.41.02-.4 0c-1.1 0-1.7.9-1.7 2.2v2.7h-.7zm3.9-6.5v-.9h.8v.9h-.8zm.1 6.5v-5.5h.7v5.5h-.7zm2.1-2.7c0-2 1.2-2.9 2.4-2.9c1.4 0 2.3 1.1 2.3 2.5c-.03-.02 0 .4 0 .4c0 0-3.99.02-4 0c0 1.6.8 2.2 1.7 2.2h.1c.7 0 1.2-.3 1.4-1.1h.8c-.3 1.1-1.1 1.7-2.3 1.7c-1.3 0-2.4-1-2.4-2.8zm4-.6c-.1-1-.6-1.7-1.5-1.7h-.1c-.7 0-1.5.4-1.7 1.7h3.3zm4.4.6c.02-.03 0-5 0-5h.8v4.9c0 1.4.7 2.2 2 2.2h.1c1.3 0 2-.8 2-2.2c-.04-.04 0-4.9 0-4.9h.7s.03 4.97 0 5c0 1.7-.9 2.8-2.8 2.8c-1.9 0-2.8-1.1-2.8-2.8zm7.5 2.7v-5.5h.7s-.02.94 0 .9c.3-.6 1-1 1.9-1c1.1 0 1.9.7 1.9 2c.03.02 0 3.6 0 3.6h-.7s.02-3.36 0-3.4c0-1.1-.4-1.6-1.3-1.6h-.1c-1.2 0-1.7 1.1-1.7 2.3c-.02-.03 0 2.7 0 2.7h-.7zm6.2-6.5v-.9h.8v.9h-.8zm0 6.5v-5.5h.7v5.5h-.7zm6.2-5.5h.8l-2.1 5.5h-.9l-2.1-5.5h.7l1.8 4.9l1.8-4.9zm1.4 2.8c0-2 1.2-2.9 2.4-2.9c1.4 0 2.3 1.1 2.3 2.5c-.03-.02 0 .4 0 .4c0 0-3.99.02-4 0c0 1.6.8 2.2 1.7 2.2h.1c.7 0 1.2-.3 1.4-1.1h.8c-.3 1.1-1.1 1.7-2.3 1.7c-1.3 0-2.4-1-2.4-2.8zm4-.6c-.1-1-.6-1.7-1.5-1.7h-.1c-.7 0-1.5.4-1.7 1.7h3.3zm2.1 3.3v-5.5h.7v1.3c.2-.9.9-1.3 1.7-1.3c0-.04.5 0 .5 0v.6s-.45.02-.4 0c-1.1 0-1.8.9-1.8 2.2c.05.04 0 2.7 0 2.7h-.7zm3.6-1.6h.7c.1.7.7 1.1 1.4 1.1h.2c.7 0 1.2-.4 1.2-1c0-.4-.2-.6-1-.8l-.8-.2c-.8-.2-1.5-.5-1.5-1.5c0-1 1-1.6 2-1.6c1.4 0 2 .9 2.1 1.8h-.8c0-.6-.5-1.2-1.2-1.2h-.2c-.7 0-1.2.5-1.2 1c0 .5.3.7 1 .8l.9.2c.8.2 1.4.5 1.4 1.5c0 1-.8 1.6-2 1.6c-1.4 0-2.1-.7-2.2-1.7zm5.6-4.9v-.9h.9v.9h-.9zm.1 6.5v-5.5h.7v5.5h-.7zm4.1 0c-.7 0-1-.3-1-1c-.03.03 0-3.9 0-3.9h-1.3v-.6h1.3v-1.8h.7v1.8h1.4v.6h-1.4v3.9c0 .3.1.4.4.4c.03.01 1.1 0 1.1 0v.6s-1.18.02-1.2 0zm7.3-5.5l-2.3 5.3s.01 1.08 0 1.1c0 .6-.3.9-1 .9c-.03.03-1.7 0-1.7 0v-.6s1.56.03 1.6 0c.3 0 .4-.1.4-.4v-.9l-2.3-5.4h.7l1.9 4.5l1.9-4.5h.8zm3.4 5.5v-7.7h.8v3.5h4.3v-3.5h.8v7.7h-.8v-3.5H234v3.5h-.8zm7.5-2.7c0-1.7 1.1-2.9 2.5-2.9c1.4 0 2.5 1.2 2.5 2.9c0 1.7-1.1 2.8-2.5 2.8c-1.4 0-2.5-1.1-2.5-2.8zm2.6 2.2c1 0 1.7-.8 1.7-2.2c0-1.4-.7-2.3-1.7-2.3h-.1c-1 0-1.8.9-1.8 2.3c0 1.4.8 2.2 1.8 2.2h.1zm3.5-1.1h.7c.1.7.6 1.1 1.4 1.1h.1c.8 0 1.3-.4 1.3-1c0-.4-.3-.6-1-.8l-.8-.2c-.8-.2-1.5-.5-1.5-1.5c0-1 .9-1.6 2-1.6c1.3 0 2 .9 2 1.8h-.7c-.1-.6-.5-1.2-1.3-1.2h-.1c-.8 0-1.2.5-1.2 1c0 .5.3.7 1 .8l.9.2c.7.2 1.4.5 1.4 1.5c0 1-.8 1.6-2 1.6c-1.5 0-2.2-.7-2.2-1.7zm5.7 3.8v-7.7h.7s-.02.9 0 .9c.3-.6 1.1-1 1.8-1c1.4 0 2.5 1.1 2.5 2.9c0 1.7-1.1 2.8-2.5 2.8c-.7 0-1.5-.4-1.8-1c-.02.04 0 3.1 0 3.1h-.7zm2.5-2.7c1.2 0 1.7-1 1.7-2.2c0-1.2-.5-2.3-1.7-2.3h-.1c-1.1 0-1.7 1.1-1.7 2.3c0 1.2.6 2.2 1.7 2.2h.1zm3.9-6v-.9h.8v.9h-.8zm0 6.5v-5.5h.7v5.5h-.7zm4.1 0c-.7 0-1-.3-1-1v-3.9h-1.3v-.6h1.3v-1.8h.7v1.8h1.4v.6h-1.4v3.9c0 .3.1.4.4.4c.04.01 1.1 0 1.1 0v.6s-1.17.02-1.2 0zm2.1-1.5c0-1.2 1.1-1.6 1.9-1.6c.01-.05 1.8-.2 1.8-.2c0 0-.05-.2 0-.2c0-.9-.6-1.5-1.4-1.5h-.1c-.7 0-1.3.4-1.4 1.1h-.7c.1-1 1-1.7 2.1-1.7c1.5 0 2.2 1 2.2 2.1v3.5h-.6c-.1-.2-.1-.6-.1-.9c-.2.5-1 1-1.9 1c-1 0-1.8-.7-1.8-1.6zm1.9 1c.8 0 1.8-.6 1.8-1.5c-.05.04 0-.7 0-.7l-1.6.1c-.8.1-1.4.5-1.4 1.1c0 .6.5 1 1.1 1h.1zm4.2.5v-7.7h.7v7.7h-.7zm2 1.3v-.5s.3.04.3 0c.4 0 .7-.2.7-.6c-.04-.02 0-.2 0-.2h-.6v-1.1h1.1s-.04 1.34 0 1.3c0 .7-.4 1.1-1.1 1.1c.01-.02-.4 0-.4 0z" stroke="none" fill="#dcddce"/></g><g id="Polygon16525"><path d="m.8 89.2v-1h.8v1h-.8zm.1 6.5v-5.5h.7v5.5h-.7zm2.4 0v-5.5h.7s.03.89 0 .9c.4-.6 1.1-1 2-1c1.1 0 1.9.7 1.9 2c-.02-.03 0 3.6 0 3.6h-.7s-.03-3.41 0-3.4c0-1.1-.5-1.6-1.4-1.6c-1.2 0-1.8 1-1.8 2.2c.03.02 0 2.8 0 2.8h-.7zM17.2 88h.8v7.7h-1L12.7 89v6.7h-.7V88h1l4.2 6.5V88zm2.3 5.2h.8c0 1.2.9 1.9 2.2 1.9h.1c1.2 0 1.8-.7 1.8-1.5c0-.7-.5-1.1-1.4-1.3l-1.3-.2c-1.1-.3-1.8-.9-1.8-2c0-1.3 1-2.2 2.6-2.2c1.7 0 2.7.9 2.8 2.3h-.8c-.1-1-.8-1.6-1.9-1.6h-.1c-1.1 0-1.8.6-1.8 1.4c0 .7.5 1.1 1.2 1.3l1.3.2c1.2.3 2 .9 2 2.1c0 1.3-1.1 2.2-2.7 2.2c-1.9 0-3-.9-3-2.6zM34.9 88h.8l-1.9 7.7h-1.2l-1.7-6.9l-1.7 6.9H28L26.1 88h.8l1.7 7.1l1.7-7.1h1.2l1.7 7l1.7-7zm1.1 8.9v-.4h.3c.5 0 .7-.2.7-.7v-.1h-.6v-1.1h1.1v1.3c0 .6-.4 1-1.1 1c.04.03-.4 0-.4 0zm6.9-1.2c-.7 0-1-.3-1-1v-3.9h-1.3v-.6h1.3v-1.8h.7v1.8h1.4v.6h-1.4v3.8c0 .4.1.5.4.5c.04-.04 1.1 0 1.1 0v.6s-1.17-.03-1.2 0zm2.4 0V88h.7v3.1c.4-.6 1.1-1 2-1c1.2 0 1.8.8 1.8 1.9c.04.04 0 3.7 0 3.7h-.7s.03-3.44 0-3.4c0-1.1-.4-1.6-1.3-1.6h-.1c-.8 0-1.7.7-1.7 2v3h-.7zm5.9-2.8c0-1.9 1.2-2.8 2.5-2.8c1.3 0 2.2 1 2.2 2.4c.02.03 0 .5 0 .5c0 0-3.94-.03-3.9 0c0 1.5.8 2.2 1.7 2.2h.1c.7 0 1.2-.4 1.4-1.1h.7c-.2 1.1-1.1 1.7-2.2 1.7c-1.4 0-2.5-1-2.5-2.9zm4-.5c0-1-.6-1.7-1.5-1.7h-.1c-.7 0-1.5.4-1.6 1.7h3.2zM66.4 88h1.3v7.7h-.7v-7.1l-2.7 7.1h-1.1l-2.7-7.1v7.1h-.8V88h1.4l2.7 7.1l2.6-7.1zm3 6.2c0-1.3 1-1.6 1.8-1.7l1.8-.1v-.3c0-.9-.5-1.4-1.4-1.4c-.7 0-1.3.3-1.4 1h-.7c0-1 .9-1.6 2.1-1.6c1.4 0 2.1.9 2.1 2v2.4c0 .3 0 .8.1 1.2h-.7c0-.3-.1-.6-.1-.9c-.2.5-.9 1-1.9 1c-1 0-1.7-.7-1.7-1.6zm1.9 1c.7 0 1.7-.7 1.7-1.5v-.7s-1.61.06-1.6.1c-.8 0-1.3.4-1.3 1c0 .6.4 1.1 1.1 1.1h.1zm3.8-2.3c0-1.6.9-2.8 2.5-2.8c1.2 0 2 .7 2.1 1.8h-.7c-.1-.7-.6-1.2-1.3-1.2h-.2c-1.2 0-1.7 1-1.7 2.2c0 1.2.5 2.3 1.7 2.3h.2c.7 0 1.2-.6 1.3-1.3h.7c-.2 1.1-.9 1.9-2.1 1.9c-1.6 0-2.5-1.3-2.5-2.9zm10 5v-3.1c-.3.6-1.1 1-1.8 1c-1.5 0-2.5-1.1-2.5-2.9c0-1.7 1-2.8 2.5-2.8c.7 0 1.5.3 1.8.9v-.8h.7v7.7h-.7zm-1.7-2.7c1.1 0 1.7-1.1 1.7-2.3c0-1.2-.6-2.2-1.7-2.2h-.1c-1.2 0-1.8 1-1.8 2.2c0 1.2.6 2.3 1.8 2.3h.1zm4.1-1.4c.02 0 0-3.6 0-3.6h.7s.04 3.38 0 3.4c0 1 .5 1.6 1.4 1.6h.1c.8 0 1.6-.8 1.6-2.1c-.04.04 0-2.9 0-2.9h.7v5.5h-.7s-.04-1.06 0-1.1c-.3.8-1 1.2-1.9 1.2c-1.2 0-1.9-.8-1.9-2zm5.9.4c0-1.3 1.1-1.6 1.9-1.7l1.8-.1s-.04-.25 0-.3c0-.9-.6-1.4-1.4-1.4h-.1c-.7 0-1.3.3-1.3 1h-.8c.1-1 1-1.6 2.2-1.6c1.4 0 2.1.9 2.1 2v3.6h-.6c-.1-.3-.1-.6-.1-.9c-.2.5-1 1-1.9 1c-1 0-1.8-.7-1.8-1.6zm2 1c.7 0 1.7-.7 1.7-1.5c-.04-.01 0-.7 0-.7c0 0-1.64.06-1.6.1c-.8 0-1.4.4-1.4 1c0 .6.5 1.1 1.1 1.1h.2zm4.1.5v-5.5h.6s.02 1.22 0 1.2c.3-.9 1-1.3 1.7-1.3h.5v.7s-.42-.03-.4 0c-1.1 0-1.7.8-1.7 2.2c-.02-.01 0 2.7 0 2.7h-.7zm3.9-6.5v-1h.8v1h-.8zm0 6.5v-5.5h.8v5.5h-.8zm2.2-2.8c0-1.9 1.2-2.8 2.4-2.8c1.4 0 2.3 1 2.3 2.4c-.04.03 0 .5 0 .5c0 0-4-.03-4 0c0 1.5.8 2.2 1.7 2.2h.1c.7 0 1.2-.4 1.4-1.1h.7c-.2 1.1-1 1.7-2.2 1.7c-1.3 0-2.4-1-2.4-2.9zm3.9-.5c0-1-.5-1.7-1.4-1.7h-.1c-.7 0-1.5.4-1.7 1.7h3.2zm4.1-.6c0-2.2 1.3-3.9 3.5-3.9c1.7 0 2.9 1 3 2.4h-.8c-.1-.9-.7-1.7-2.1-1.7h-.1c-1.8 0-2.7 1.4-2.7 3.2c0 1.8.9 3.3 2.7 3.3h.1c1.4 0 2-.9 2.1-1.8h.8c-.1 1.4-1.3 2.5-3 2.5c-2.2 0-3.5-1.7-3.5-4zm7.7 1.1c0-1.9 1.2-2.8 2.4-2.8c1.4 0 2.2 1 2.2 2.4c.05.03 0 .5 0 .5c0 0-3.91-.03-3.9 0c0 1.5.8 2.2 1.7 2.2h.1c.7 0 1.2-.4 1.4-1.1h.7c-.2 1.1-1.1 1.7-2.2 1.7c-1.4 0-2.4-1-2.4-2.9zm3.9-.5c0-1-.6-1.7-1.4-1.7h-.1c-.7 0-1.5.4-1.7 1.7h3.2zm2.2 3.3v-5.5h.7s.03.89 0 .9c.3-.6 1-1 2-1c1.1 0 1.9.7 1.9 2c-.02-.03 0 3.6 0 3.6h-.7s-.04-3.41 0-3.4c0-1.1-.5-1.6-1.4-1.6c-1.2 0-1.8 1-1.8 2.2c.03.02 0 2.8 0 2.8h-.7zm7.8 0c-.7 0-1-.3-1-1v-3.9h-1.3v-.6h1.3v-1.8h.7v1.8h1.4v.6h-1.4v3.8c0 .4.1.5.5.5c-.05-.04 1.1 0 1.1 0v.6s-1.26-.03-1.3 0zm2.4 0v-5.5h.7s-.05 1.22 0 1.2c.2-.9.9-1.3 1.7-1.3h.5v.7s-.49-.03-.5 0c-1 0-1.7.8-1.7 2.2v2.7h-.7zm3.5-2.8c0-1.9 1.2-2.8 2.5-2.8c1.3 0 2.2 1 2.2 2.4v.5s-3.96-.03-4 0c.1 1.5.9 2.2 1.8 2.2c.8 0 1.3-.4 1.5-1.1h.7c-.3 1.1-1.1 1.7-2.2 1.7c-1.4 0-2.5-1-2.5-2.9zm4-.5c-.1-1-.6-1.7-1.5-1.7h-.1c-.7 0-1.5.4-1.6 1.7h3.2zm4.3 3.3v-5.5h.8s-.05.85 0 .8c.3-.5.9-.9 1.8-.9c.8 0 1.4.4 1.7 1.1c.4-.7 1.1-1.1 2-1.1c1 0 1.8.7 1.8 2c.02-.03 0 3.6 0 3.6h-.7s.01-3.41 0-3.4c0-1.1-.4-1.6-1.3-1.6c-1.1 0-1.7 1-1.7 2.2c.04.02 0 2.8 0 2.8h-.7s.02-3.41 0-3.4c0-1.1-.4-1.6-1.2-1.6h-.1c-1.1 0-1.6 1-1.6 2.2c-.05.02 0 2.8 0 2.8h-.8zm9.5-1.5c0-1.3 1.1-1.6 1.9-1.7l1.8-.1s-.05-.25 0-.3c0-.9-.6-1.4-1.4-1.4h-.1c-.7 0-1.3.3-1.4 1h-.7c.1-1 1-1.6 2.1-1.6c1.5 0 2.2.9 2.2 2v3.6h-.6c-.1-.3-.1-.6-.1-.9c-.2.5-1 1-1.9 1c-1 0-1.8-.7-1.8-1.6zm1.9 1c.8 0 1.8-.7 1.8-1.5c-.05-.01 0-.7 0-.7c0 0-1.64.06-1.6.1c-.8 0-1.4.4-1.4 1c0 .6.5 1.1 1.1 1.1h.1zm4.2-6v-1h.8v1h-.8zm-1.9 8.3v-.6s1.47-.02 1.5 0c.3 0 .4-.1.4-.5v-6.2h.7s.03 6.29 0 6.3c0 .7-.3 1-1 1c-.02-.02-1.6 0-1.6 0zm4-4.6c0-1.7 1.1-2.8 2.6-2.8c1.4 0 2.5 1.1 2.5 2.8c0 1.7-1.1 2.9-2.5 2.9c-1.5 0-2.6-1.2-2.6-2.9zm2.6 2.3c1 0 1.8-.9 1.8-2.3c0-1.4-.8-2.2-1.8-2.2h-.1c-1 0-1.7.8-1.7 2.2c0 1.4.7 2.3 1.7 2.3h.1zm3.9.5v-5.5h.7s-.03 1.22 0 1.2c.2-.9.9-1.3 1.7-1.3h.5v.7s-.47-.03-.5 0c-1 0-1.7.8-1.7 2.2c.03-.01 0 2.7 0 2.7h-.7zm6.2 0v-5.5h.6v1.2c.3-.9 1-1.3 1.7-1.3h.5v.7s-.43-.03-.4 0c-1.1 0-1.7.8-1.7 2.2c-.03-.01 0 2.7 0 2.7h-.7zm3.5-2.8c0-1.9 1.2-2.8 2.4-2.8c1.4 0 2.3 1 2.3 2.4c-.04.03 0 .5 0 .5c0 0-4-.03-4 0c0 1.5.8 2.2 1.7 2.2h.1c.7 0 1.2-.4 1.4-1.1h.7c-.2 1.1-1 1.7-2.2 1.7c-1.3 0-2.4-1-2.4-2.9zm3.9-.5c0-1-.6-1.7-1.4-1.7h-.1c-.7 0-1.5.4-1.7 1.7h3.2zm3.8 3.3c-.7 0-1.1-.3-1.1-1c.05-.02 0-3.9 0-3.9h-1.2v-.6h1.2v-1.8h.8v1.8h1.3v.6h-1.3s-.04 3.82 0 3.8c0 .4.1.5.4.5c0-.04 1.1 0 1.1 0v.6s-1.21-.03-1.2 0zm2.1-1.5c0-1.3 1-1.6 1.9-1.7l1.7-.1v-.3c0-.9-.5-1.4-1.4-1.4c-.7 0-1.3.3-1.4 1h-.7c.1-1 .9-1.6 2.1-1.6c1.4 0 2.1.9 2.1 2v2.4c0 .3 0 .8.1 1.2h-.7v-.9c-.3.5-1 1-2 1c-.9 0-1.7-.7-1.7-1.6zm1.9 1c.8 0 1.7-.7 1.7-1.5v-.7s-1.58.06-1.6.1c-.8 0-1.3.4-1.3 1c0 .6.5 1.1 1.1 1.1h.1zm4.1-6v-1h.8v1h-.8zm0 6.5v-5.5h.7v5.5h-.7zm2.5 0V88h.7v7.7h-.7zm4.6 2.2v-7.7h.7s.04.85 0 .8c.4-.6 1.2-.9 1.9-.9c1.4 0 2.4 1.1 2.4 2.8c0 1.8-1 2.9-2.4 2.9c-.7 0-1.5-.4-1.9-1c.04-.01 0 3.1 0 3.1h-.7zm2.6-2.7c1.1 0 1.7-1.1 1.7-2.3c0-1.2-.6-2.2-1.7-2.2h-.1c-1.2 0-1.8 1-1.8 2.2c0 1.2.6 2.3 1.8 2.3h.1zm3.9.5v-5.5h.6s.03 1.22 0 1.2c.3-.9 1-1.3 1.7-1.3h.5v.7s-.41-.03-.4 0c-1.1 0-1.7.8-1.7 2.2v2.7h-.7zm3.5-2.8c0-1.9 1.2-2.8 2.5-2.8c1.3 0 2.2 1 2.2 2.4c-.02.03 0 .5 0 .5c0 0-3.98-.03-4 0c0 1.5.8 2.2 1.7 2.2h.1c.8 0 1.2-.4 1.5-1.1h.7c-.3 1.1-1.1 1.7-2.2 1.7c-1.4 0-2.5-1-2.5-2.9zm4-.5c-.1-1-.6-1.7-1.5-1.7h-.1c-.7 0-1.5.4-1.7 1.7h3.3zm1.8.5c0-1.6.9-2.8 2.6-2.8c1.2 0 2 .7 2.1 1.8h-.7c-.1-.7-.6-1.2-1.4-1.2h-.1c-1.2 0-1.7 1-1.7 2.2c0 1.2.5 2.3 1.7 2.3h.1c.8 0 1.3-.6 1.4-1.3h.7c-.2 1.1-.9 1.9-2.1 1.9c-1.7 0-2.6-1.3-2.6-2.9zm6.1-3.7v-1h.8v1h-.8zm0 6.5v-5.5h.7v5.5h-.7zm2.5 0v-5.5h.7s-.03.89 0 .9c.3-.6 1-1 1.9-1c1.1 0 1.9.7 1.9 2c.02-.03 0 3.6 0 3.6h-.7s.01-3.41 0-3.4c0-1.1-.4-1.6-1.3-1.6h-.1c-1.2 0-1.7 1-1.7 2.2c-.03.02 0 2.8 0 2.8h-.7zm5.9-2.8c0-1.6.9-2.8 2.5-2.8c1.2 0 2.1.7 2.2 1.8h-.7c-.1-.7-.7-1.2-1.4-1.2h-.1c-1.2 0-1.8 1-1.8 2.2c0 1.2.6 2.3 1.8 2.3h.1c.7 0 1.2-.6 1.4-1.3h.7c-.2 1.1-1 1.9-2.2 1.9c-1.6 0-2.5-1.3-2.5-2.9zm7.8 2.8c-.7 0-1.1-.3-1.1-1c.02-.02 0-3.9 0-3.9H242v-.6h1.2v-1.8h.7v1.8h1.4v.6h-1.4s.03 3.82 0 3.8c0 .4.1.5.5.5c-.03-.04 1.1 0 1.1 0v.6s-1.24-.03-1.2 0zm1.9 1.2v-.4h.3c.5 0 .7-.2.7-.7v-.1h-.6v-1.1h1.1s-.02 1.29 0 1.3c0 .6-.4 1-1.1 1c.04.03-.4 0-.4 0z" stroke="none" fill="#dcddce"/></g><g id="Polygon16524"><path d="m1.1 80.5v-7.7s3.05.02 3 0c1.4 0 2.5.8 2.5 2.3c0 1.5-1.1 2.2-2.5 2.2c.05.05-2.3 0-2.3 0v3.2h-.7zm.7-3.9s2.18.04 2.2 0c1.1 0 1.8-.5 1.8-1.5c0-1-.7-1.6-1.8-1.6c-.02.03-2.2 0-2.2 0v3.1zM7.5 79c0-1.2 1-1.6 1.9-1.6c0-.05 1.7-.2 1.7-.2c0 0 .03-.2 0-.2c0-.9-.5-1.5-1.3-1.5h-.1c-.7 0-1.3.4-1.4 1.1h-.7c.1-1 .9-1.7 2.1-1.7c1.5 0 2.1 1 2.1 2.1v2.3c0 .3 0 .8.1 1.2h-.7v-.9c-.2.5-1 1-2 1c-.9 0-1.7-.7-1.7-1.6zm1.9 1c.8 0 1.7-.6 1.7-1.5c.03.04 0-.7 0-.7c0 0-1.56.11-1.6.1c-.7.1-1.3.5-1.3 1.1c0 .6.5 1 1.1 1h.1zm4.1.5V75h.7v1.3c.3-.9.9-1.3 1.7-1.3c0-.04.5 0 .5 0v.6s-.44.02-.4 0c-1.1 0-1.7.9-1.7 2.2c-.05.04 0 2.7 0 2.7h-.8zm4 0v-7.7h.7v5.1l3-2.9h.9l-2.3 2.2l2.4 3.3h-.8l-2.1-2.8l-1.1 1.1v1.7h-.7zm8.2 0v-7.7s3.18.02 3.2 0c1.2 0 2.1.8 2.1 2c0 .9-.6 1.6-1.2 1.8c.6.1 1.4.6 1.4 1.8c0 1.3-1 2.1-2.2 2.1c-.04.02-3.3 0-3.3 0zm.7-4.2s2.4-.04 2.4 0c.8 0 1.4-.5 1.4-1.4c0-.9-.6-1.4-1.4-1.4c0 .03-2.4 0-2.4 0v2.8zm0 3.5h2.4c.9 0 1.6-.5 1.6-1.4c0-1-.7-1.4-1.6-1.4c0-.02-2.4 0-2.4 0v2.8zm6.3-1.2c-.02.05 0-3.6 0-3.6h.7v3.4c0 1.1.4 1.6 1.3 1.6h.1c.8 0 1.6-.7 1.6-2c.02-.01 0-3 0-3h.7v5.5h-.7s.02-1.01 0-1c-.3.7-.9 1.1-1.8 1.1c-1.2 0-1.9-.8-1.9-2zm5.8.3h.7c.1.7.7 1.1 1.4 1.1h.1c.8 0 1.3-.4 1.3-1c0-.4-.2-.6-1-.8l-.8-.2c-.8-.2-1.5-.5-1.5-1.5c0-1 .9-1.6 2-1.6c1.4 0 2 .9 2.1 1.8h-.8c0-.6-.5-1.2-1.3-1.2h-.1c-.7 0-1.2.5-1.2 1c0 .5.3.7 1 .8l.9.2c.8.2 1.4.5 1.4 1.5c0 1-.8 1.6-2 1.6c-1.4 0-2.1-.7-2.2-1.7zm5.6-4.9v-.9h.9v.9h-.9zm.1 6.5V75h.7v5.5h-.7zm2.4 0V75h.7s.04.94 0 .9c.4-.6 1.1-1 2-1c1.1 0 1.9.7 1.9 2c-.01.02 0 3.6 0 3.6h-.7s-.02-3.36 0-3.4c0-1.1-.5-1.6-1.3-1.6h-.1c-1.2 0-1.8 1.1-1.8 2.3c.04-.03 0 2.7 0 2.7h-.7zm6-2.7c0-2 1.2-2.9 2.4-2.9c1.4 0 2.3 1.1 2.3 2.5c-.04-.02 0 .4 0 .4c0 0-4 .02-4 0c0 1.6.8 2.2 1.7 2.2h.1c.7 0 1.2-.3 1.4-1.1h.8c-.3 1.1-1.1 1.7-2.3 1.7c-1.3 0-2.4-1-2.4-2.8zm3.9-.6c0-1-.5-1.7-1.4-1.7h-.1c-.7 0-1.5.4-1.7 1.7h3.2zm1.9 1.7h.7c0 .7.6 1.1 1.4 1.1h.1c.8 0 1.2-.4 1.2-1c0-.4-.2-.6-.9-.8l-.8-.2c-.8-.2-1.5-.5-1.5-1.5c0-1 .9-1.6 1.9-1.6c1.4 0 2.1.9 2.1 1.8h-.7c-.1-.6-.5-1.2-1.3-1.2h-.1c-.8 0-1.2.5-1.2 1c0 .5.3.7 1 .8l.8.2c.8.2 1.5.5 1.5 1.5c0 1-.8 1.6-2.1 1.6c-1.4 0-2.1-.7-2.1-1.7zm5.3 0h.7c.1.7.6 1.1 1.4 1.1h.1c.8 0 1.3-.4 1.3-1c0-.4-.3-.6-1-.8l-.8-.2c-.8-.2-1.5-.5-1.5-1.5c0-1 .9-1.6 2-1.6c1.3 0 2 .9 2 1.8h-.7c-.1-.6-.5-1.2-1.3-1.2h-.1c-.8 0-1.2.5-1.2 1c0 .5.3.7 1 .8l.9.2c.7.2 1.4.5 1.4 1.5c0 1-.8 1.6-2 1.6c-1.5 0-2.2-.7-2.2-1.7zm7.6-2.2c0-2.3 1.3-4 3.5-4c1.7 0 2.9 1.1 2.9 2.5h-.7c-.1-.9-.8-1.8-2.2-1.8h-.1c-1.7 0-2.7 1.5-2.7 3.3c0 1.7 1 3.2 2.7 3.2h.1c1.4 0 2.1-.8 2.2-1.7h.7c0 1.4-1.2 2.4-2.9 2.4c-2.2 0-3.5-1.7-3.5-3.9zm7.6 1.1c0-2 1.2-2.9 2.5-2.9c1.3 0 2.2 1.1 2.2 2.5c-.02-.02 0 .4 0 .4c0 0-3.98.02-4 0c0 1.6.9 2.2 1.8 2.2c.8 0 1.3-.3 1.5-1.1h.7c-.3 1.1-1.1 1.7-2.2 1.7c-1.4 0-2.5-1-2.5-2.8zm4-.6c-.1-1-.6-1.7-1.5-1.7h-.1c-.7 0-1.5.4-1.7 1.7h3.3zm2.2 3.3V75h.7s-.03.94 0 .9c.3-.6 1-1 1.9-1c1.1 0 1.9.7 1.9 2c.02.02 0 3.6 0 3.6h-.7v-3.4c0-1.1-.4-1.6-1.3-1.6h-.1c-1.2 0-1.7 1.1-1.7 2.3c-.03-.03 0 2.7 0 2.7h-.7zm7.8 0c-.7 0-1.1-.3-1.1-1c.04.03 0-3.9 0-3.9h-1.2v-.6h1.2v-1.8h.8v1.8h1.3v.6h-1.3s-.05 3.87 0 3.9c0 .3.1.4.4.4c-.01.01 1.1 0 1.1 0v.6s-1.22.02-1.2 0zm2.3 0V75h.7v1.3c.2-.9.9-1.3 1.7-1.3c-.01-.04.5 0 .5 0v.6s-.45.02-.5 0c-1 0-1.7.9-1.7 2.2c.04.04 0 2.7 0 2.7h-.7zm3.6-2.7c0-2 1.1-2.9 2.4-2.9c1.4 0 2.2 1.1 2.2 2.5c.04-.02 0 .4 0 .4c0 0-3.92.02-3.9 0c0 1.6.8 2.2 1.7 2.2h.1c.7 0 1.2-.3 1.4-1.1h.7c-.2 1.1-1.1 1.7-2.2 1.7c-1.4 0-2.4-1-2.4-2.8zm3.9-.6c0-1-.6-1.7-1.4-1.7h-.2c-.6 0-1.4.4-1.6 1.7h3.2zm1.7 4.6v-.5s.35.04.3 0c.5 0 .7-.2.7-.6v-.2h-.6v-1.1h1.1v1.3c0 .7-.4 1.1-1 1.1c-.04-.02-.5 0-.5 0zm6.9-1.3c-.7 0-1-.3-1-1v-3.9H109v-.6h1.3v-1.8h.7v1.8h1.4v.6H111v3.9c0 .3.1.4.5.4c-.05.01 1.1 0 1.1 0v.6s-1.26.02-1.3 0zm2.4 0v-7.7h.7v3.2c.4-.7 1.1-1.1 2-1.1c1.2 0 1.9.8 1.9 2c-.04-.01 0 3.6 0 3.6h-.8s.04-3.39 0-3.4c0-1-.4-1.6-1.3-1.6h-.1c-.8 0-1.7.8-1.7 2v3h-.7zm6-2.7c0-2 1.1-2.9 2.4-2.9c1.4 0 2.2 1.1 2.2 2.5c.03-.02 0 .4 0 .4c0 0-3.93.02-3.9 0c0 1.6.8 2.2 1.7 2.2h.1c.7 0 1.2-.3 1.4-1.1h.7c-.2 1.1-1.1 1.7-2.2 1.7c-1.4 0-2.4-1-2.4-2.8zm3.9-.6c0-1-.6-1.7-1.4-1.7h-.2c-.6 0-1.5.4-1.6 1.7h3.2zm3.9 1.7h.8c0 .7.6 1.1 1.4 1.1h.1c.8 0 1.2-.4 1.2-1c0-.4-.2-.6-.9-.8l-.8-.2c-.9-.2-1.5-.5-1.5-1.5c0-1 .9-1.6 1.9-1.6c1.4 0 2 .9 2.1 1.8h-.7c-.1-.6-.6-1.2-1.3-1.2h-.1c-.8 0-1.2.5-1.2 1c0 .5.3.7 1 .8l.8.2c.8.2 1.4.5 1.4 1.5c0 1-.8 1.6-2 1.6c-1.4 0-2.1-.7-2.2-1.7zm5.4-1.1c0-2 1.2-2.9 2.5-2.9c1.3 0 2.2 1.1 2.2 2.5c-.02-.02 0 .4 0 .4c0 0-3.98.02-4 0c0 1.6.8 2.2 1.7 2.2h.1c.8 0 1.2-.3 1.5-1.1h.7c-.3 1.1-1.1 1.7-2.2 1.7c-1.4 0-2.5-1-2.5-2.8zm4-.6c-.1-1-.6-1.7-1.5-1.7h-.1c-.7 0-1.5.4-1.7 1.7h3.3zm1.8.6c0-1.6.9-2.9 2.6-2.9c1.2 0 2 .7 2.1 1.9h-.7c-.1-.8-.6-1.3-1.4-1.3h-.1c-1.2 0-1.7 1.1-1.7 2.3c0 1.2.5 2.2 1.7 2.2h.1c.8 0 1.3-.5 1.4-1.2h.7c-.2 1.1-.9 1.8-2.1 1.8c-1.7 0-2.6-1.2-2.6-2.8zm5.8 0c0-1.7 1.1-2.9 2.5-2.9c1.4 0 2.5 1.2 2.5 2.9c0 1.7-1.1 2.8-2.5 2.8c-1.4 0-2.5-1.1-2.5-2.8zm2.6 2.2c1 0 1.7-.8 1.7-2.2c0-1.4-.7-2.3-1.7-2.3h-.1c-1 0-1.8.9-1.8 2.3c0 1.4.8 2.2 1.8 2.2h.1zm3.9.5V75h.7s-.02.94 0 .9c.3-.6 1-1 1.9-1c1.1 0 1.9.7 1.9 2c.03.02 0 3.6 0 3.6h-.7s.02-3.36 0-3.4c0-1.1-.4-1.6-1.3-1.6h-.1c-1.2 0-1.7 1.1-1.7 2.3c-.02-.03 0 2.7 0 2.7h-.7zm5.9-2.7c0-1.8 1.1-2.9 2.5-2.9c.7 0 1.5.4 1.8 1c.02 0 0-3.1 0-3.1h.7v7.7h-.7s.02-.86 0-.9c-.3.6-1.1 1-1.8 1c-1.4 0-2.5-1.1-2.5-2.8zm2.6 2.2c1.2 0 1.7-1 1.7-2.2c0-1.2-.5-2.3-1.7-2.3h-.1c-1.2 0-1.7 1.1-1.7 2.3c0 1.2.5 2.2 1.7 2.2h.1zm3.9-2.5v-.6h2.8v.6h-2.8zm4.3 3v-7.7h.7v7.7h-.7zm2.1-1.5c0-1.2 1.1-1.6 1.9-1.6c.01-.05 1.7-.2 1.7-.2c0 0 .05-.2 0-.2c0-.9-.5-1.5-1.3-1.5h-.1c-.7 0-1.3.4-1.4 1.1h-.7c.1-1 1-1.7 2.1-1.7c1.5 0 2.2 1 2.2 2.1v3.5h-.6c-.1-.2-.1-.6-.1-.9c-.2.5-1 1-1.9 1c-1 0-1.8-.7-1.8-1.6zm1.9 1c.8 0 1.7-.6 1.7-1.5c.05.04 0-.7 0-.7c0 0-1.55.11-1.6.1c-.7.1-1.3.5-1.3 1.1c0 .6.5 1 1.1 1h.1zm4.1.5V75h.7v1.3c.3-.9 1-1.3 1.7-1.3c.01-.04.5 0 .5 0v.6s-.43.02-.4 0c-1.1 0-1.7.9-1.7 2.2c-.04.04 0 2.7 0 2.7h-.8zm3.5.8h.7c.1.7.8 1 1.7 1h.1c1 0 1.8-.5 1.8-1.9v-.9c-.3.6-1 1-1.8 1c-1.4 0-2.4-1-2.4-2.7c0-1.8 1-2.9 2.4-2.9c.8 0 1.5.4 1.8 1c-.01 0 0-.9 0-.9h.7v5.5c0 1.4-.9 2.4-2.5 2.4c-1.6 0-2.4-.7-2.5-1.6zm2.6-1.4c1 0 1.7-.8 1.7-2.1c0-1.4-.7-2.3-1.7-2.3h-.1c-1 0-1.7.9-1.7 2.3c0 1.3.7 2.1 1.7 2.1h.1zm3.8-2.1c0-2 1.2-2.9 2.5-2.9c1.3 0 2.2 1.1 2.2 2.5c.02-.02 0 .4 0 .4c0 0-3.94.02-3.9 0c0 1.6.8 2.2 1.7 2.2h.1c.7 0 1.2-.3 1.4-1.1h.7c-.2 1.1-1.1 1.7-2.2 1.7c-1.4 0-2.5-1-2.5-2.8zm4-.6c0-1-.6-1.7-1.5-1.7h-.1c-.7 0-1.5.4-1.6 1.7h3.2zm1.8 1.7h.7c.1.7.7 1.1 1.4 1.1h.2c.7 0 1.2-.4 1.2-1c0-.4-.2-.6-1-.8l-.8-.2c-.8-.2-1.5-.5-1.5-1.5c0-1 1-1.6 2-1.6c1.4 0 2 .9 2.1 1.8h-.7c-.1-.6-.6-1.2-1.3-1.2h-.2c-.7 0-1.2.5-1.2 1c0 .5.3.7 1 .8l.9.2c.8.2 1.4.5 1.4 1.5c0 1-.8 1.6-2 1.6c-1.4 0-2.1-.7-2.2-1.7zm7.4 1.6c-.7 0-1.1-.3-1.1-1c.04.03 0-3.9 0-3.9h-1.2v-.6h1.2v-1.8h.8v1.8h1.3v.6h-1.3s-.04 3.87 0 3.9c0 .3.1.4.4.4c0 .01 1.1 0 1.1 0v.6s-1.21.02-1.2 0zm5.2-.9c.02.04 0 .9 0 .9h-.7v-7.7h.7s.02 3.1 0 3.1c.4-.6 1.1-1 1.9-1c1.4 0 2.4 1.1 2.4 2.9c0 1.7-1 2.8-2.4 2.8c-.8 0-1.5-.4-1.9-1zm1.8.4c1.2 0 1.8-1 1.8-2.2c0-1.2-.6-2.3-1.8-2.3c-1.2 0-1.8 1.1-1.8 2.3c0 1.2.6 2.2 1.8 2.2zm3.9-1.4c.01.05 0-3.6 0-3.6h.7s.03 3.43 0 3.4c0 1.1.5 1.6 1.3 1.6h.2c.8 0 1.6-.7 1.6-2c-.05-.01 0-3 0-3h.7v5.5h-.7s-.05-1.01 0-1c-.3.7-1 1.1-1.9 1.1c-1.2 0-1.9-.8-1.9-2zm5.8.3h.7c.1.7.7 1.1 1.5 1.1h.1c.7 0 1.2-.4 1.2-1c0-.4-.2-.6-1-.8l-.8-.2c-.8-.2-1.5-.5-1.5-1.5c0-1 1-1.6 2-1.6c1.4 0 2 .9 2.1 1.8h-.7c-.1-.6-.6-1.2-1.3-1.2h-.1c-.8 0-1.2.5-1.2 1c0 .5.3.7 1 .8l.8.2c.8.2 1.4.5 1.4 1.5c0 1-.8 1.6-2 1.6c-1.4 0-2.1-.7-2.2-1.7zm5.7-4.9v-.9h.8v.9h-.8zm0 6.5V75h.7v5.5h-.7zm2.5 0V75h.7s-.03.94 0 .9c.3-.6 1-1 1.9-1c1.1 0 1.9.7 1.9 2c.02.02 0 3.6 0 3.6h-.7v-3.4c0-1.1-.4-1.6-1.3-1.6h-.1c-1.2 0-1.7 1.1-1.7 2.3c-.03-.03 0 2.7 0 2.7h-.7zm5.9-2.7c0-2 1.2-2.9 2.5-2.9c1.3 0 2.2 1.1 2.2 2.5v.4s-3.97.02-4 0c.1 1.6.9 2.2 1.8 2.2c.8 0 1.3-.3 1.5-1.1h.7c-.3 1.1-1.1 1.7-2.2 1.7c-1.4 0-2.5-1-2.5-2.8zm4-.6c-.1-1-.6-1.7-1.5-1.7h-.1c-.7 0-1.5.4-1.6 1.7h3.2zm1.8 1.7h.7c.1.7.7 1.1 1.4 1.1h.1c.8 0 1.3-.4 1.3-1c0-.4-.3-.6-1-.8l-.8-.2c-.8-.2-1.5-.5-1.5-1.5c0-1 .9-1.6 2-1.6c1.3 0 2 .9 2 1.8h-.7c0-.6-.5-1.2-1.3-1.2h-.1c-.8 0-1.2.5-1.2 1c0 .5.3.7 1 .8l.9.2c.8.2 1.4.5 1.4 1.5c0 1-.8 1.6-2 1.6c-1.5 0-2.2-.7-2.2-1.7zm5.3 0h.7c.1.7.7 1.1 1.4 1.1h.1c.8 0 1.3-.4 1.3-1c0-.4-.3-.6-1-.8l-.8-.2c-.8-.2-1.5-.5-1.5-1.5c0-1 .9-1.6 2-1.6c1.4 0 2 .9 2 1.8h-.7c0-.6-.5-1.2-1.3-1.2h-.1c-.7 0-1.2.5-1.2 1c0 .5.3.7 1 .8l.9.2c.8.2 1.4.5 1.4 1.5c0 1-.8 1.6-2 1.6c-1.4 0-2.2-.7-2.2-1.7zm7.5-1.1c0-1.8 1.1-2.9 2.5-2.9c.7 0 1.5.4 1.8 1c.03 0 0-3.1 0-3.1h.7v7.7h-.7s.03-.86 0-.9c-.3.6-1.1 1-1.8 1c-1.4 0-2.5-1.1-2.5-2.8zm2.6 2.2c1.2 0 1.7-1 1.7-2.2c0-1.2-.5-2.3-1.7-2.3h-.1c-1.2 0-1.7 1.1-1.7 2.3c0 1.2.5 2.2 1.7 2.2h.1zm4.1-6v-.9h.8v.9h-.8zm.1 6.5V75h.7v5.5h-.7zm2-1.6h.7c.1.7.7 1.1 1.5 1.1h.1c.7 0 1.2-.4 1.2-1c0-.4-.2-.6-1-.8l-.8-.2c-.8-.2-1.5-.5-1.5-1.5c0-1 1-1.6 2-1.6c1.4 0 2 .9 2.1 1.8h-.7c-.1-.6-.6-1.2-1.3-1.2h-.1c-.8 0-1.2.5-1.2 1c0 .5.3.7 1 .8l.8.2c.8.2 1.4.5 1.4 1.5c0 1-.8 1.6-2 1.6c-1.4 0-2.1-.7-2.2-1.7zm7.4 1.6c-.7 0-1-.3-1-1c-.04.03 0-3.9 0-3.9h-1.3v-.6h1.3v-1.8h.7v1.8h1.3v.6h-1.3s-.03 3.87 0 3.9c0 .3.1.4.4.4c.01.01 1.1 0 1.1 0v.6s-1.2.02-1.2 0zm2.4 0V75h.6v1.3c.3-.9 1-1.3 1.7-1.3c.02-.04.5 0 .5 0v.6s-.43.02-.4 0c-1.1 0-1.7.9-1.7 2.2c-.03.04 0 2.7 0 2.7h-.7zm3.9-6.5v-.9h.8v.9h-.8zm0 6.5V75h.7v5.5h-.7zm2.2-2.7c0-1.6.9-2.9 2.5-2.9c1.2 0 2 .7 2.1 1.9h-.7c-.1-.8-.6-1.3-1.3-1.3h-.2c-1.2 0-1.7 1.1-1.7 2.3c0 1.2.5 2.2 1.7 2.2h.2c.7 0 1.2-.5 1.3-1.2h.7c-.1 1.1-.9 1.8-2.1 1.8c-1.6 0-2.5-1.2-2.5-2.8zm7.7 2.7c-.7 0-1-.3-1-1c-.02.03 0-3.9 0-3.9h-1.3v-.6h1.3v-1.8h.7v1.8h1.4v.6h-1.4v3.9c0 .3.1.4.4.4c.03.01 1.1 0 1.1 0v.6s-1.18.02-1.2 0z" stroke="none" fill="#dcddce"/></g><g id="Polygon16523"><path d="m3 65.4v-7H.2v-.7h6.3v.7H3.7v7h-.7zm4.7 0v-7.7h.7v3.1c.4-.6 1.1-1 2-1c1.2 0 1.8.8 1.8 1.9c.05.04 0 3.7 0 3.7h-.7s.04-3.44 0-3.4c0-1.1-.4-1.6-1.3-1.6h-.1c-.8 0-1.7.7-1.7 2v3h-.7zm6.2-6.5v-1h.8v1h-.8zm0 6.5v-5.5h.8v5.5h-.8zm2.1-1.7h.7c.1.8.7 1.2 1.4 1.2h.1c.8 0 1.3-.4 1.3-1c0-.4-.3-.7-1-.9l-.8-.1c-.8-.2-1.5-.6-1.5-1.5c0-1.1.9-1.6 2-1.6c1.4 0 2 .8 2 1.7h-.7c0-.6-.5-1.1-1.3-1.1h-.1c-.7 0-1.2.4-1.2.9c0 .5.3.7 1 .9l.9.2c.8.1 1.4.5 1.4 1.4c0 1.1-.8 1.7-2 1.7c-1.4 0-2.2-.8-2.2-1.8zm7.8-.2c.01 0 0-3.6 0-3.6h.7s.03 3.38 0 3.4c0 1 .5 1.6 1.3 1.6h.2c.8 0 1.6-.8 1.6-2.1c-.05.04 0-2.9 0-2.9h.7v5.5h-.7s-.05-1.06 0-1.1c-.3.8-1 1.2-1.9 1.2c-1.2 0-1.9-.8-1.9-2zm6.2 1.9v-5.5h.7s.01.89 0 .9c.3-.6 1-1 1.9-1c1.1 0 2 .7 2 2c-.04-.03 0 3.6 0 3.6h-.7s-.05-3.41 0-3.4c0-1.1-.5-1.6-1.4-1.6c-1.2 0-1.8 1-1.8 2.2v2.8h-.7zm6.3 0v-5.5h.6s.02 1.22 0 1.2c.3-.9 1-1.3 1.7-1.3h.5v.7s-.42-.03-.4 0c-1.1 0-1.7.8-1.7 2.2c-.02-.01 0 2.7 0 2.7h-.7zm3.9-6.5v-1h.8v1h-.8zm0 6.5v-5.5h.8v5.5h-.8zm6.2-5.5h.8l-2.1 5.5h-.9l-2.1-5.5h.7l1.8 4.8l1.8-4.8zm1.5 4c0-1.3 1-1.6 1.9-1.7l1.7-.1s.03-.25 0-.3c0-.9-.5-1.4-1.3-1.4h-.1c-.7 0-1.3.3-1.4 1h-.7c.1-1 .9-1.6 2.1-1.6c1.4 0 2.1.9 2.1 2v2.4c0 .3 0 .8.1 1.2h-.7v-.9c-.2.5-1 1-2 1c-.9 0-1.7-.7-1.7-1.6zm1.9 1c.8 0 1.7-.7 1.7-1.5c.03-.01 0-.7 0-.7c0 0-1.57.06-1.6.1c-.8 0-1.3.4-1.3 1c0 .6.5 1.1 1.1 1.1h.1zm4.1.5v-7.7h.7v7.7h-.7zm2.5 0v-7.7h.7v7.7h-.7zm2.1-2.8c0-1.9 1.2-2.8 2.5-2.8c1.3 0 2.2 1 2.2 2.4v.5s-3.96-.03-4 0c.1 1.5.9 2.2 1.8 2.2c.8 0 1.3-.4 1.5-1.1h.7c-.2 1.1-1.1 1.7-2.2 1.7c-1.4 0-2.5-1-2.5-2.9zm4-.5c0-1-.6-1.7-1.5-1.7h-.1c-.7 0-1.5.4-1.6 1.7h3.2zm1.9.5c0-1.7 1-2.8 2.4-2.8c.7 0 1.5.3 1.9.9c-.04.05 0-3 0-3h.7v7.7h-.7s-.04-.91 0-.9c-.4.6-1.2 1-1.9 1c-1.4 0-2.4-1.1-2.4-2.9zm2.5 2.3c1.2 0 1.8-1.1 1.8-2.3c0-1.2-.6-2.2-1.8-2.2h-.1c-1.1 0-1.7 1-1.7 2.2c0 1.2.6 2.3 1.7 2.3h.1zm6.1-1c0-1.3 1.1-1.6 1.9-1.7l1.7-.1s.05-.25 0-.3c0-.9-.5-1.4-1.3-1.4h-.1c-.7 0-1.3.3-1.4 1h-.7c.1-1 1-1.6 2.1-1.6c1.5 0 2.2.9 2.2 2v3.6h-.6c-.1-.3-.1-.6-.1-.9c-.2.5-1 1-1.9 1c-1 0-1.8-.7-1.8-1.6zm1.9 1c.8 0 1.7-.7 1.7-1.5c.05-.01 0-.7 0-.7c0 0-1.55.06-1.5.1c-.8 0-1.4.4-1.4 1c0 .6.5 1.1 1.1 1.1h.1zm3.8-2.3c0-1.7 1.1-2.8 2.5-2.8c.7 0 1.5.3 1.8.9c.02.05 0-3 0-3h.7v7.7h-.7s.02-.91 0-.9c-.3.6-1.1 1-1.8 1c-1.4 0-2.5-1.1-2.5-2.9zm2.6 2.3c1.1 0 1.7-1.1 1.7-2.3c0-1.2-.6-2.2-1.7-2.2h-.1c-1.2 0-1.7 1-1.7 2.2c0 1.2.5 2.3 1.7 2.3h.1zm3.9-2.3c0-1.7 1-2.8 2.4-2.8c.7 0 1.5.3 1.9.9c-.03.05 0-3 0-3h.7v7.7h-.7s-.03-.91 0-.9c-.4.6-1.2 1-1.9 1c-1.4 0-2.4-1.1-2.4-2.9zm2.5 2.3c1.2 0 1.8-1.1 1.8-2.3c0-1.2-.6-2.2-1.8-2.2c-1.2 0-1.8 1-1.8 2.2c0 1.2.6 2.3 1.8 2.3zm4.2.5v-5.5h.7s-.02 1.22 0 1.2c.2-.9.9-1.3 1.7-1.3h.5v.7s-.46-.03-.5 0c-1 0-1.7.8-1.7 2.2c.03-.01 0 2.7 0 2.7h-.7zm3.5-2.8c0-1.9 1.2-2.8 2.5-2.8c1.3 0 2.2 1 2.2 2.4c.02.03 0 .5 0 .5c0 0-3.94-.03-3.9 0c0 1.5.8 2.2 1.7 2.2h.1c.7 0 1.2-.4 1.4-1.1h.7c-.2 1.1-1.1 1.7-2.2 1.7c-1.4 0-2.5-1-2.5-2.9zm4-.5c0-1-.6-1.7-1.5-1.7h-.1c-.7 0-1.5.4-1.6 1.7h3.2zm1.8 1.6h.7c.1.8.7 1.2 1.4 1.2h.2c.7 0 1.2-.4 1.2-1c0-.4-.2-.7-1-.9l-.8-.1c-.8-.2-1.5-.6-1.5-1.5c0-1.1 1-1.6 2-1.6c1.4 0 2 .8 2.1 1.7h-.7c-.1-.6-.6-1.1-1.3-1.1h-.2c-.7 0-1.2.4-1.2.9c0 .5.3.7 1 .9l.9.2c.8.1 1.4.5 1.4 1.4c0 1.1-.8 1.7-2 1.7c-1.4 0-2.1-.8-2.2-1.8zm5.3 0h.7c.1.8.7 1.2 1.5 1.2h.1c.7 0 1.2-.4 1.2-1c0-.4-.2-.7-1-.9l-.8-.1c-.8-.2-1.5-.6-1.5-1.5c0-1.1 1-1.6 2-1.6c1.4 0 2 .8 2.1 1.7h-.7c-.1-.6-.6-1.1-1.3-1.1h-.1c-.8 0-1.2.4-1.2.9c0 .5.3.7 1 .9l.8.2c.8.1 1.4.5 1.4 1.4c0 1.1-.8 1.7-2 1.7c-1.4 0-2.1-.8-2.2-1.8zm7.9 1.7v-7.7h.7v7.7h-.7zm2.4-6.5v-1h.8v1h-.8zm0 6.5v-5.5h.8v5.5h-.8zm2.2-2.8c0-1.9 1.2-2.8 2.4-2.8c1.4 0 2.3 1 2.3 2.4c-.05.03 0 .5 0 .5c0 0-4.01-.03-4 0c0 1.5.8 2.2 1.7 2.2h.1c.7 0 1.2-.4 1.4-1.1h.7c-.2 1.1-1 1.7-2.2 1.7c-1.3 0-2.4-1-2.4-2.9zm3.9-.5c0-1-.6-1.7-1.4-1.7h-.1c-.7 0-1.5.4-1.7 1.7h3.2zm1.8 1.6h.8c0 .8.6 1.2 1.4 1.2h.1c.8 0 1.2-.4 1.2-1c0-.4-.2-.7-.9-.9l-.8-.1c-.9-.2-1.5-.6-1.5-1.5c0-1.1.9-1.6 1.9-1.6c1.4 0 2 .8 2.1 1.7h-.7c-.1-.6-.6-1.1-1.3-1.1h-.1c-.8 0-1.2.4-1.2.9c0 .5.3.7 1 .9l.8.2c.8.1 1.4.5 1.4 1.4c0 1.1-.8 1.7-2 1.7c-1.4 0-2.1-.8-2.2-1.8zm8-4.8v-1h.8v1h-.8zm-1.9 8.3v-.6s1.47-.02 1.5 0c.3 0 .4-.1.4-.5v-6.2h.7s.02 6.29 0 6.3c0 .7-.3 1-1 1c-.02-.02-1.6 0-1.6 0zm4.3-3.7c-.01 0 0-3.6 0-3.6h.7v3.4c0 1 .4 1.6 1.3 1.6h.1c.8 0 1.6-.8 1.6-2.1c.03.04 0-2.9 0-2.9h.7v5.5h-.7s.03-1.06 0-1.1c-.3.8-.9 1.2-1.8 1.2c-1.2 0-1.9-.8-1.9-2zm5.8.2h.7c.1.8.7 1.2 1.4 1.2h.1c.8 0 1.3-.4 1.3-1c0-.4-.2-.7-1-.9l-.8-.1c-.8-.2-1.5-.6-1.5-1.5c0-1.1.9-1.6 2-1.6c1.4 0 2 .8 2.1 1.7h-.8c0-.6-.5-1.1-1.3-1.1h-.1c-.7 0-1.2.4-1.2.9c0 .5.3.7 1 .9l.9.2c.8.1 1.4.5 1.4 1.4c0 1.1-.8 1.7-2 1.7c-1.4 0-2.1-.8-2.2-1.8zm7.4 1.7c-.7 0-1.1-.3-1.1-1c.04-.02 0-3.9 0-3.9H146v-.6h1.2v-1.8h.8v1.8h1.3v.6H148s-.05 3.82 0 3.8c0 .4.1.5.4.5c-.01-.04 1.1 0 1.1 0v.6s-1.22-.03-1.2 0zm5.1 0v-4.9h-1.2v-.6h1.2s.02-1.24 0-1.2c0-.8.3-1 1.1-1c-.04-.03 1.3 0 1.3 0v.6s-1.23-.03-1.2 0c-.4 0-.5.1-.5.4c.03.01 0 1.2 0 1.2h1.5v.6h-1.5v4.9h-.7zm2.8-2.8c0-1.7 1.1-2.8 2.5-2.8c1.5 0 2.6 1.1 2.6 2.8c0 1.7-1.1 2.9-2.6 2.9c-1.4 0-2.5-1.2-2.5-2.9zm2.6 2.3c1 0 1.7-.9 1.7-2.3c0-1.4-.7-2.2-1.7-2.2h-.1c-1 0-1.8.8-1.8 2.2c0 1.4.8 2.3 1.8 2.3h.1zm3.6-2.3c0-1.7 1.1-2.8 2.5-2.8c1.4 0 2.6 1.1 2.6 2.8c0 1.7-1.2 2.9-2.6 2.9c-1.4 0-2.5-1.2-2.5-2.9zm2.6 2.3c1 0 1.7-.9 1.7-2.3c0-1.4-.7-2.2-1.7-2.2h-.1c-1 0-1.8.8-1.8 2.2c0 1.4.8 2.3 1.8 2.3h.1zm5.4.5c-.7 0-1-.3-1-1c-.05-.02 0-3.9 0-3.9h-1.3v-.6h1.3v-1.8h.7v1.8h1.3v.6h-1.3s-.04 3.82 0 3.8c0 .4.1.5.4.5c0-.04 1.1 0 1.1 0v.6s-1.21-.03-1.2 0zm2-1.7h.7c.1.8.7 1.2 1.4 1.2h.1c.8 0 1.3-.4 1.3-1c0-.4-.2-.7-1-.9l-.8-.1c-.8-.2-1.5-.6-1.5-1.5c0-1.1.9-1.6 2-1.6c1.4 0 2 .8 2.1 1.7h-.8c0-.6-.5-1.1-1.3-1.1h-.1c-.7 0-1.2.4-1.2.9c0 .5.3.7 1 .9l.9.2c.8.1 1.4.5 1.4 1.4c0 1.1-.8 1.7-2 1.7c-1.4 0-2.2-.8-2.2-1.8zm7.4 1.7c-.7 0-1.1-.3-1.1-1c.03-.02 0-3.9 0-3.9h-1.2v-.6h1.2v-1.8h.7v1.8h1.4v.6h-1.4s.04 3.82 0 3.8c0 .4.2.5.5.5c-.02-.04 1.1 0 1.1 0v.6s-1.23-.03-1.2 0zm1.9-2.8c0-1.9 1.1-2.8 2.4-2.8c1.4 0 2.2 1 2.2 2.4c.03.03 0 .5 0 .5c0 0-3.93-.03-3.9 0c0 1.5.8 2.2 1.7 2.2h.1c.7 0 1.2-.4 1.4-1.1h.7c-.2 1.1-1.1 1.7-2.2 1.7c-1.4 0-2.4-1-2.4-2.9zm3.9-.5c0-1-.6-1.7-1.4-1.7h-.2c-.6 0-1.5.4-1.6 1.7h3.2zm2.2 5.5v-7.7h.7v.8c.3-.6 1.1-.9 1.9-.9c1.4 0 2.4 1.1 2.4 2.8c0 1.8-1 2.9-2.4 2.9c-.8 0-1.6-.4-1.9-1v3.1h-.7zm2.5-2.7c1.2 0 1.8-1.1 1.8-2.3c0-1.2-.6-2.2-1.8-2.2c-1.2 0-1.8 1-1.8 2.2c0 1.2.6 2.3 1.8 2.3zm3.5-1.2h.8c0 .8.6 1.2 1.4 1.2h.1c.8 0 1.2-.4 1.2-1c0-.4-.2-.7-.9-.9l-.8-.1c-.9-.2-1.5-.6-1.5-1.5c0-1.1.9-1.6 1.9-1.6c1.4 0 2 .8 2.1 1.7h-.7c-.1-.6-.6-1.1-1.3-1.1h-.1c-.8 0-1.2.4-1.2.9c0 .5.3.7 1 .9l.8.2c.8.1 1.4.5 1.4 1.4c0 1.1-.8 1.7-2 1.7c-1.4 0-2.1-.8-2.2-1.8zm8.5 1.7v-4.9h-1.2v-.6h1.2s.04-1.24 0-1.2c0-.8.4-1 1.1-1c-.02-.03 1.4 0 1.4 0v.6s-1.31-.03-1.3 0c-.3 0-.5.1-.5.4c.05.01 0 1.2 0 1.2h1.5v.6H203v4.9h-.7zm3.3 0v-5.5h.7s-.03 1.22 0 1.2c.2-.9.9-1.3 1.7-1.3h.5v.7s-.47-.03-.5 0c-1 0-1.7.8-1.7 2.2c.02-.01 0 2.7 0 2.7h-.7zm3.5-2.8c0-1.7 1.1-2.8 2.5-2.8c1.5 0 2.6 1.1 2.6 2.8c0 1.7-1.1 2.9-2.6 2.9c-1.4 0-2.5-1.2-2.5-2.9zm2.6 2.3c1 0 1.7-.9 1.7-2.3c0-1.4-.7-2.2-1.7-2.2h-.1c-1 0-1.8.8-1.8 2.2c0 1.4.8 2.3 1.8 2.3h.1zm3.9.5v-5.5h.7v.8c.3-.5 1-.9 1.8-.9c.8 0 1.5.4 1.8 1.1c.3-.7 1-1.1 1.9-1.1c1.1 0 1.9.7 1.9 2c-.02-.03 0 3.6 0 3.6h-.7s-.04-3.41 0-3.4c0-1.1-.5-1.6-1.3-1.6h-.1c-1.1 0-1.6 1-1.6 2.2v2.8h-.7s-.02-3.41 0-3.4c0-1.1-.4-1.6-1.3-1.6h-.1c-1.1 0-1.6 1-1.6 2.2v2.8h-.7zm18.9-7.7h1.2v7.7h-.7v-7.1l-2.7 7.1h-1.1l-2.7-7.1v7.1h-.7v-7.7h1.3l2.7 7.1l2.7-7.1zm2.9 6.2c0-1.3 1-1.6 1.9-1.7l1.7-.1v-.3c0-.9-.5-1.4-1.4-1.4c-.7 0-1.3.3-1.4 1h-.7c.1-1 .9-1.6 2.1-1.6c1.4 0 2.1.9 2.1 2v2.4c0 .3 0 .8.1 1.2h-.7v-.9c-.3.5-1 1-2 1c-1 0-1.7-.7-1.7-1.6zm1.9 1c.8 0 1.7-.7 1.7-1.5v-.7s-1.59.06-1.6.1c-.8 0-1.3.4-1.3 1c0 .6.5 1.1 1.1 1.1h.1zm3.8-2.3c0-1.6.9-2.8 2.5-2.8c1.2 0 2.1.7 2.2 1.8h-.7c-.2-.7-.7-1.2-1.4-1.2h-.1c-1.2 0-1.8 1-1.8 2.2c0 1.2.6 2.3 1.8 2.3h.1c.7 0 1.2-.6 1.4-1.3h.7c-.2 1.1-1 1.9-2.2 1.9c-1.6 0-2.5-1.3-2.5-2.9zm10 5s.03-3.11 0-3.1c-.3.6-1.1 1-1.8 1c-1.4 0-2.5-1.1-2.5-2.9c0-1.7 1.1-2.8 2.5-2.8c.7 0 1.5.3 1.8.9c.03.05 0-.8 0-.8h.7v7.7h-.7zm-1.7-2.7c1.2 0 1.7-1.1 1.7-2.3c0-1.2-.5-2.2-1.7-2.2h-.1c-1.2 0-1.7 1-1.7 2.2c0 1.2.5 2.3 1.7 2.3h.1zm4.1-1.4c.05 0 0-3.6 0-3.6h.8s-.04 3.38 0 3.4c0 1 .4 1.6 1.3 1.6h.1c.8 0 1.6-.8 1.6-2.1v-2.9h.7v5.5h-.7s-.01-1.06 0-1.1c-.3.8-.9 1.2-1.9 1.2c-1.2 0-1.9-.8-1.9-2zm6 .4c0-1.3 1-1.6 1.8-1.7l1.8-.1s-.02-.25 0-.3c0-.9-.5-1.4-1.4-1.4c-.8 0-1.3.3-1.4 1h-.7c0-1 .9-1.6 2.1-1.6c1.4 0 2.1.9 2.1 2v3.6h-.6c-.1-.3-.1-.6-.1-.9c-.2.5-.9 1-1.9 1c-1 0-1.7-.7-1.7-1.6zm1.9 1c.7 0 1.7-.7 1.7-1.5c-.02-.01 0-.7 0-.7c0 0-1.61.06-1.6.1c-.8 0-1.3.4-1.3 1c0 .6.4 1.1 1.1 1.1h.1zm4.1.5v-5.5h.6s.04 1.22 0 1.2c.3-.9 1-1.3 1.7-1.3h.5v.7s-.4-.03-.4 0c-1.1 0-1.7.8-1.7 2.2v2.7h-.7zm3.9-6.5v-1h.8v1h-.8zm.1 6.5v-5.5h.7v5.5h-.7zm2.1-2.8c0-1.9 1.2-2.8 2.5-2.8c1.3 0 2.2 1 2.2 2.4c-.02.03 0 .5 0 .5c0 0-3.98-.03-4 0c0 1.5.8 2.2 1.7 2.2h.1c.8 0 1.2-.4 1.5-1.1h.7c-.3 1.1-1.1 1.7-2.2 1.7c-1.4 0-2.5-1-2.5-2.9zm4-.5c-.1-1-.6-1.7-1.5-1.7h-.1c-.7 0-1.5.4-1.7 1.7h3.3z" stroke="none" fill="#dcddce"/></g><g id="Polygon16522"><path d="m.6 36.1c0-1.9 1.1-2.8 2.4-2.8c1.3 0 2.2 1 2.2 2.4c.02.05 0 .5 0 .5c0 0-3.94-.02-3.9 0c0 1.5.8 2.2 1.7 2.2h.1c.7 0 1.2-.4 1.4-1.1h.7C5 38.4 4.1 39 3 39c-1.4 0-2.4-1-2.4-2.9zm3.9-.5c0-1-.6-1.7-1.5-1.7h-.1c-.7 0-1.5.4-1.6 1.7h3.2zm1.1 3.3l2.2-2.8l-2.1-2.7h.9l1.6 2.1l1.6-2.1h.8l-2 2.7l2.1 2.8h-.8l-1.7-2.3l-1.8 2.3h-.8zm6 2.2v-7.7h.7s.05.86 0 .9c.4-.6 1.2-1 1.9-1c1.4 0 2.4 1.1 2.4 2.8c0 1.8-1 2.9-2.4 2.9c-.7 0-1.5-.4-1.9-1c.05 0 0 3.1 0 3.1h-.7zm2.6-2.7c1.1 0 1.7-1.1 1.7-2.3c0-1.2-.6-2.2-1.7-2.2h-.1c-1.2 0-1.8 1-1.8 2.2c0 1.2.6 2.3 1.8 2.3h.1zm3.4-2.3c0-1.9 1.2-2.8 2.5-2.8c1.3 0 2.2 1 2.2 2.4c-.02.05 0 .5 0 .5c0 0-3.98-.02-4 0c0 1.5.8 2.2 1.7 2.2h.1c.8 0 1.2-.4 1.5-1.1h.7c-.3 1.1-1.1 1.7-2.2 1.7c-1.4 0-2.5-1-2.5-2.9zm4-.5c-.1-1-.6-1.7-1.5-1.7h-.1c-.7 0-1.5.4-1.7 1.7h3.3zm1.9 3.3v-5.5h.7v1.2c.3-.8 1-1.3 1.7-1.3c.01.03.5 0 .5 0v.7s-.44-.02-.4 0c-1.1 0-1.7.8-1.7 2.2c-.04.01 0 2.7 0 2.7h-.8zm3.8-6.5v-.9h.8v.9h-.8zm0 6.5v-5.5h.7v5.5h-.7zm2-2.8c0-1.9 1.2-2.8 2.4-2.8c1.4 0 2.2 1 2.2 2.4c.04.05 0 .5 0 .5c0 0-3.92-.02-3.9 0c0 1.5.8 2.2 1.7 2.2h.1c.7 0 1.2-.4 1.4-1.1h.7c-.2 1.1-1.1 1.7-2.2 1.7c-1.4 0-2.4-1-2.4-2.9zm3.9-.5c0-1-.6-1.7-1.4-1.7h-.1c-.7 0-1.5.4-1.7 1.7h3.2zm2 3.3v-5.5h.7s.03.9 0 .9c.3-.6 1.1-1 2-1c1.1 0 1.9.7 1.9 2c-.02-.02 0 3.6 0 3.6h-.7s-.04-3.4 0-3.4c0-1.1-.5-1.6-1.4-1.6c-1.2 0-1.8 1-1.8 2.2c.03.03 0 2.8 0 2.8h-.7zm5.8-2.8c0-1.6.9-2.8 2.5-2.8c1.2 0 2 .7 2.2 1.8h-.8c-.1-.7-.6-1.2-1.3-1.2h-.1c-1.2 0-1.8 1-1.8 2.2c0 1.2.6 2.3 1.8 2.3h.1c.7 0 1.2-.6 1.3-1.3h.8c-.2 1.2-1 1.9-2.2 1.9c-1.6 0-2.5-1.3-2.5-2.9zm5.5 0c0-1.9 1.2-2.8 2.5-2.8c1.3 0 2.2 1 2.2 2.4v.5s-3.95-.02-3.9 0c0 1.5.8 2.2 1.7 2.2c.8 0 1.3-.4 1.5-1.1h.7C51 38.4 50.1 39 49 39c-1.4 0-2.5-1-2.5-2.9zm4-.5c0-1-.6-1.7-1.5-1.7h-.1c-.7 0-1.5.4-1.6 1.7h3.2zm3.6.5c0-1.7 1.1-2.8 2.5-2.8c1.5 0 2.6 1.1 2.6 2.8c0 1.7-1.1 2.9-2.6 2.9c-1.4 0-2.5-1.2-2.5-2.9zm2.6 2.3c1 0 1.8-.9 1.8-2.3c0-1.4-.8-2.2-1.8-2.2h-.1c-1 0-1.8.8-1.8 2.2c0 1.4.8 2.3 1.8 2.3h.1zm4.2.5V34h-1.3v-.6h1.3v-1.2c0-.7.3-1 1-1c.05-.02 1.4 0 1.4 0v.6s-1.24-.02-1.2 0c-.4 0-.5.1-.5.4c.02.02 0 1.2 0 1.2h1.4v.6h-1.4v4.9h-.7zm6.6 0c-.7 0-1-.3-1-1V34h-1.3v-.6h1.3v-1.8h.7v1.8h1.4v.6h-1.4s.02 3.84 0 3.8c0 .4.1.5.5.5c-.04-.02 1.1 0 1.1 0v.6s-1.25-.02-1.3 0zm2.2 0v-7.7h.7v3.1c.4-.6 1.1-1 2-1c1.2 0 1.9.8 1.9 1.9c-.04.05 0 3.7 0 3.7h-.8s.05-3.43 0-3.4c0-1.1-.4-1.6-1.3-1.6h-.1c-.8 0-1.7.7-1.7 2v3h-.7zm5.8-2.8c0-1.9 1.2-2.8 2.4-2.8c1.4 0 2.2 1 2.2 2.4c.04.05 0 .5 0 .5c0 0-3.92-.02-3.9 0c0 1.5.8 2.2 1.7 2.2h.1c.7 0 1.2-.4 1.4-1.1h.7c-.2 1.1-1.1 1.7-2.2 1.7c-1.4 0-2.4-1-2.4-2.9zm3.9-.5c0-1-.6-1.7-1.4-1.7h-.1c-.7 0-1.5.4-1.7 1.7h3.2zm1.6 1.6h.7c.1.8.7 1.2 1.5 1.2h.1c.7 0 1.2-.4 1.2-1c0-.4-.2-.7-1-.9l-.8-.1c-.8-.2-1.5-.6-1.5-1.5c0-1.1 1-1.6 2-1.6c1.4 0 2 .8 2.1 1.7h-.7c-.1-.6-.6-1.1-1.3-1.1h-.1c-.8 0-1.2.4-1.2.9c0 .5.3.7 1 .9l.8.2c.8.2 1.4.5 1.4 1.4c0 1.1-.8 1.7-2 1.7c-1.4 0-2.1-.8-2.2-1.8zm5.2-1.1c0-1.9 1.2-2.8 2.4-2.8c1.4 0 2.3 1 2.3 2.4c-.03.05 0 .5 0 .5c0 0-3.99-.02-4 0c0 1.5.8 2.2 1.7 2.2h.1c.7 0 1.2-.4 1.4-1.1h.8c-.3 1.1-1.1 1.7-2.3 1.7c-1.3 0-2.4-1-2.4-2.9zm4-.5c-.1-1-.6-1.7-1.5-1.7h-.1c-.7 0-1.5.4-1.7 1.7h3.3zm4.6 2.4c.03 0 0 .9 0 .9h-.7v-7.7h.7s.03 3.06 0 3.1c.4-.6 1.1-1 1.9-1c1.4 0 2.4 1.1 2.4 2.8c0 1.8-1 2.9-2.4 2.9c-.8 0-1.5-.4-1.9-1zm1.8.4c1.2 0 1.8-1.1 1.8-2.3c0-1.2-.6-2.2-1.8-2.2c-1.2 0-1.8 1-1.8 2.2c0 1.2.6 2.3 1.8 2.3zm3.5-2.3c0-1.9 1.2-2.8 2.4-2.8c1.4 0 2.3 1 2.3 2.4c-.05.05 0 .5 0 .5c0 0-4.01-.02-4 0c0 1.5.8 2.2 1.7 2.2h.1c.7 0 1.2-.4 1.4-1.1h.7c-.2 1.1-1 1.7-2.2 1.7c-1.3 0-2.4-1-2.4-2.9zm3.9-.5c0-1-.6-1.7-1.4-1.7h-.1c-.7 0-1.5.4-1.7 1.7h3.2zm1.7 1.8c0-1.2 1-1.6 1.9-1.7l1.7-.1s.03-.24 0-.2c0-1-.5-1.5-1.3-1.5h-.1c-.7 0-1.3.3-1.4 1h-.7c.1-1 .9-1.6 2.1-1.6c1.5 0 2.1.9 2.1 2.1v2.3c0 .3 0 .8.1 1.2h-.7v-.9c-.2.5-1 1-2 1c-.9 0-1.7-.7-1.7-1.6zm1.9 1c.8 0 1.7-.7 1.7-1.5c.03 0 0-.7 0-.7c0 0-1.56.07-1.6.1c-.7 0-1.3.4-1.3 1c0 .6.5 1.1 1.1 1.1h.1zm3.9-1.4c-.04.01 0-3.6 0-3.6h.7s-.02 3.39 0 3.4c0 1 .4 1.6 1.3 1.6h.1c.8 0 1.6-.8 1.6-2.1v-2.9h.7v5.5h-.7v-1.1c-.3.8-.9 1.2-1.8 1.2c-1.3 0-1.9-.8-1.9-2zm7.6 1.9c-.7 0-1-.3-1-1V34h-1.3v-.6h1.3v-1.8h.7v1.8h1.4v.6h-1.4v3.8c0 .4.1.5.4.5c.05-.02 1.1 0 1.1 0v.6s-1.16-.02-1.2 0zm2.1-6.5v-.9h.9v.9h-.9zm.1 6.5v-5.5h.7v5.5h-.7zm2.9 0V34h-1.3v-.6h1.3v-1.2c0-.7.3-1 1-1c.05-.02 1.4 0 1.4 0v.6s-1.24-.02-1.2 0c-.4 0-.5.1-.5.4c.02.02 0 1.2 0 1.2h1.4v.6h-1.4v4.9h-.7zm3.1-1.9c-.05.01 0-3.6 0-3.6h.7s-.03 3.39 0 3.4c0 1 .4 1.6 1.3 1.6h.1c.8 0 1.6-.8 1.6-2.1v-2.9h.7v5.5h-.7s-.01-1.05 0-1.1c-.3.8-.9 1.2-1.8 1.2c-1.3 0-1.9-.8-1.9-2zm5.9 1.9v-7.7h.8v7.7h-.8zm2.3 0v-7.7h.7v7.7h-.7zm7-5.5l-2.3 5.3v1c0 .7-.3 1-1.1 1h-1.6v-.6h1.5c.4 0 .5-.1.5-.4c-.03-.05 0-1 0-1l-2.4-5.3h.8l1.9 4.4l1.9-4.4h.8zm2.5 4c0-1.2 1-1.6 1.9-1.7l1.7-.1v-.2c0-1-.5-1.5-1.4-1.5c-.7 0-1.3.3-1.4 1h-.7c0-1 .9-1.6 2.1-1.6c1.4 0 2.1.9 2.1 2.1v2.3c0 .3 0 .8.1 1.2h-.7v-.9c-.3.5-1 1-2 1c-1 0-1.7-.7-1.7-1.6zm1.9 1c.8 0 1.7-.7 1.7-1.5v-.7s-1.59.07-1.6.1c-.8 0-1.3.4-1.3 1c0 .6.5 1.1 1.1 1.1h.1zm3.9 2.7v-7.7h.7s.02.86 0 .9c.4-.6 1.1-1 1.9-1c1.4 0 2.4 1.1 2.4 2.8c0 1.8-1 2.9-2.4 2.9c-.8 0-1.5-.4-1.9-1c.02 0 0 3.1 0 3.1h-.7zm2.5-2.7c1.2 0 1.8-1.1 1.8-2.3c0-1.2-.6-2.2-1.8-2.2c-1.2 0-1.8 1-1.8 2.2c0 1.2.6 2.3 1.8 2.3zm3.8 2.7v-7.7h.7s-.03.86 0 .9c.3-.6 1.1-1 1.8-1c1.4 0 2.5 1.1 2.5 2.8c0 1.8-1.1 2.9-2.5 2.9c-.7 0-1.5-.4-1.8-1c-.03 0 0 3.1 0 3.1h-.7zm2.5-2.7c1.2 0 1.7-1.1 1.7-2.3c0-1.2-.5-2.2-1.7-2.2h-.1c-1.2 0-1.7 1-1.7 2.2c0 1.2.5 2.3 1.7 2.3h.1zm3.4-2.3c0-1.7 1.1-2.8 2.5-2.8c1.4 0 2.6 1.1 2.6 2.8c0 1.7-1.2 2.9-2.6 2.9c-1.4 0-2.5-1.2-2.5-2.9zm2.6 2.3c1 0 1.7-.9 1.7-2.3c0-1.4-.7-2.2-1.7-2.2h-.1c-1 0-1.8.8-1.8 2.2c0 1.4.8 2.3 1.8 2.3h.1zm3.6-6v-.9h.8v.9h-.8zm.1 6.5v-5.5h.7v5.5h-.7zm2.2 0v-5.5h.7s.03.9 0 .9c.3-.6 1-1 2-1c1.1 0 1.9.7 1.9 2c-.02-.02 0 3.6 0 3.6h-.7s-.04-3.4 0-3.4c0-1.1-.5-1.6-1.4-1.6c-1.2 0-1.8 1-1.8 2.2c.03.03 0 2.8 0 2.8h-.7zm7.6 0c-.7 0-1-.3-1-1V34h-1.3v-.6h1.3v-1.8h.7v1.8h1.4v.6h-1.4v3.8c0 .4.1.5.5.5c-.05-.02 1.1 0 1.1 0v.6s-1.26-.02-1.3 0zm1.7-2.8c0-1.9 1.2-2.8 2.5-2.8c1.3 0 2.2 1 2.2 2.4v.5s-3.95-.02-4 0c.1 1.5.9 2.2 1.8 2.2c.8 0 1.3-.4 1.5-1.1h.7c-.2 1.1-1.1 1.7-2.2 1.7c-1.4 0-2.5-1-2.5-2.9zm4-.5c0-1-.6-1.7-1.5-1.7h-.1c-.7 0-1.5.4-1.6 1.7h3.2zm1.7.5c0-1.7 1-2.8 2.4-2.8c.7 0 1.5.4 1.9 1c-.03-.04 0-3.1 0-3.1h.7v7.7h-.7s-.03-.9 0-.9c-.4.6-1.2 1-1.9 1c-1.4 0-2.4-1.1-2.4-2.9zm2.5 2.3c1.2 0 1.8-1.1 1.8-2.3c0-1.2-.6-2.2-1.8-2.2c-1.2 0-1.8 1-1.8 2.2c0 1.2.6 2.3 1.8 2.3zm6 .5v-5.5h.7v1.2c.3-.8.9-1.3 1.7-1.3c.01.03.5 0 .5 0v.7s-.44-.02-.4 0c-1.1 0-1.7.8-1.7 2.2c-.04.01 0 2.7 0 2.7h-.8zm3.4-2.8c0-1.9 1.2-2.8 2.4-2.8c1.4 0 2.3 1 2.3 2.4c-.05.05 0 .5 0 .5c0 0-4.01-.02-4 0c0 1.5.8 2.2 1.7 2.2h.1c.7 0 1.2-.4 1.4-1.1h.7c-.2 1.1-1 1.7-2.2 1.7c-1.3 0-2.4-1-2.4-2.9zm3.9-.5c0-1-.6-1.7-1.4-1.7h-.1c-.7 0-1.5.4-1.7 1.7h3.2zm1.6 1.6h.8c0 .8.6 1.2 1.4 1.2h.1c.8 0 1.2-.4 1.2-1c0-.4-.2-.7-.9-.9l-.8-.1c-.9-.2-1.5-.6-1.5-1.5c0-1.1.9-1.6 1.9-1.6c1.4 0 2 .8 2.1 1.7h-.7c-.1-.6-.6-1.1-1.3-1.1h-.1c-.8 0-1.2.4-1.2.9c0 .5.3.7 1 .9l.8.2c.8.2 1.4.5 1.4 1.4c0 1.1-.8 1.7-2 1.7c-1.4 0-2.1-.8-2.2-1.8zm5.5-4.8v-.9h.8v.9h-.8zm0 6.5v-5.5h.7v5.5h-.7zm2-2.8c0-1.7 1-2.8 2.4-2.8c.7 0 1.5.4 1.9 1c-.04-.04 0-3.1 0-3.1h.7v7.7h-.7s-.04-.9 0-.9c-.4.6-1.2 1-1.9 1c-1.4 0-2.4-1.1-2.4-2.9zm2.5 2.3c1.2 0 1.8-1.1 1.8-2.3c0-1.2-.6-2.2-1.8-2.2h-.1c-1.1 0-1.7 1-1.7 2.2c0 1.2.6 2.3 1.7 2.3h.1zm3.7-2.3c0-1.9 1.2-2.8 2.5-2.8c1.3 0 2.2 1 2.2 2.4v.5s-3.96-.02-4 0c.1 1.5.9 2.2 1.8 2.2c.8 0 1.3-.4 1.5-1.1h.7c-.3 1.1-1.1 1.7-2.2 1.7c-1.4 0-2.5-1-2.5-2.9zm4-.5c0-1-.6-1.7-1.5-1.7h-.1c-.7 0-1.5.4-1.6 1.7h3.2zm2 3.3v-5.5h.7s-.02.9 0 .9c.3-.6 1-1 1.9-1c1.1 0 1.9.7 1.9 2c.03-.02 0 3.6 0 3.6h-.7s.02-3.4 0-3.4c0-1.1-.4-1.6-1.3-1.6h-.1c-1.2 0-1.7 1-1.7 2.2c-.02.03 0 2.8 0 2.8h-.7zm5.7-2.8c0-1.6.9-2.8 2.6-2.8c1.2 0 2 .7 2.1 1.8h-.7c-.1-.7-.6-1.2-1.4-1.2h-.1c-1.2 0-1.8 1-1.8 2.2c0 1.2.6 2.3 1.8 2.3h.1c.8 0 1.3-.6 1.4-1.3h.7c-.2 1.2-.9 1.9-2.1 1.9c-1.7 0-2.6-1.3-2.6-2.9zm5.6 0c0-1.9 1.2-2.8 2.4-2.8c1.4 0 2.3 1 2.3 2.4c-.03.05 0 .5 0 .5c0 0-3.99-.02-4 0c0 1.5.8 2.2 1.7 2.2h.1c.7 0 1.2-.4 1.4-1.1h.8c-.3 1.1-1.1 1.7-2.3 1.7c-1.3 0-2.4-1-2.4-2.9zm4-.5c-.1-1-.6-1.7-1.5-1.7h-.1c-.7 0-1.5.4-1.7 1.7h3.3zm1.6 1.6h.7c0 .8.6 1.2 1.4 1.2h.1c.8 0 1.2-.4 1.2-1c0-.4-.2-.7-.9-.9l-.8-.1c-.8-.2-1.5-.6-1.5-1.5c0-1.1.9-1.6 1.9-1.6c1.4 0 2.1.8 2.1 1.7h-.7c-.1-.6-.5-1.1-1.3-1.1h-.1c-.8 0-1.2.4-1.2.9c0 .5.3.7 1 .9l.9.2c.7.2 1.4.5 1.4 1.4c0 1.1-.8 1.7-2.1 1.7c-1.4 0-2.1-.8-2.1-1.8zm5.4 1.7v-1.1h1.1v1.1h-1.1z" stroke="none" fill="#dcddce"/></g><g id="Polygon16521"><path d="m.6 22.2c0-1.2 1-1.6 1.9-1.6c-.05-.04 1.7-.2 1.7-.2v-.2c0-.9-.5-1.5-1.4-1.5c-.7 0-1.3.4-1.4 1.1h-.7c0-1 .9-1.7 2.1-1.7c1.4 0 2.1 1 2.1 2.1v2.3c0 .3 0 .8.1 1.2h-.7c0-.2-.1-.6-.1-.8c-.2.5-.9.9-1.9.9c-1 0-1.7-.7-1.7-1.6zm1.9 1c.7 0 1.7-.6 1.7-1.5v-.7s-1.6.12-1.6.1c-.8.1-1.3.5-1.3 1.1c0 .6.4 1 1.1 1h.1zm7.7-7.2h.5v7.7h-.7v-6.6l-1.9 1.8v-.9l2.1-2zm2.9 7h4.1v.7h-5v-.7s3.1-3.18 3.1-3.2c.9-.9 1-1.2 1-1.8c0-.7-.6-1.4-1.5-1.4h-.1c-1 0-1.6.7-1.7 1.7h-.7c0-1.4 1-2.4 2.4-2.4c1.4 0 2.4.9 2.4 2.1c0 .9-.5 1.5-1.1 2.2c-.05-.02-2.9 2.8-2.9 2.8zm5.2-3.1c0-2.6 1-4 2.9-4c1.8 0 2.9 1.4 2.9 4c0 2.6-1.1 3.9-2.9 3.9c-1.9 0-2.9-1.3-2.9-3.9zm2.9 3.2c1 0 2.2-.7 2.2-3.2c0-2.6-1.2-3.3-2.2-3.3h-.1c-.9 0-2.1.7-2.1 3.3c0 2.5 1.2 3.2 2.1 3.2h.1zm4.3-2.4v-.6h2.7v.6h-2.7zm4.2 5.2v-7.7h.7s-.03.91 0 .9c.3-.6 1.1-1 1.8-1c1.4 0 2.5 1.1 2.5 2.9c0 1.7-1.1 2.8-2.5 2.8c-.7 0-1.5-.3-1.8-.9c-.03-.05 0 3 0 3h-.7zm2.5-2.7c1.2 0 1.7-1 1.7-2.2c0-1.2-.5-2.3-1.7-2.3h-.1c-1.2 0-1.7 1.1-1.7 2.3c0 1.2.5 2.2 1.7 2.2h.1zm3.9.5V16h.7v7.7h-.7zm2.1-1.5c0-1.2 1-1.6 1.9-1.6c-.03-.04 1.7-.2 1.7-.2v-.2c0-.9-.5-1.5-1.4-1.5c-.7 0-1.3.4-1.4 1.1h-.7c.1-1 .9-1.7 2.1-1.7c1.4 0 2.1 1 2.1 2.1v2.3c0 .3 0 .8.1 1.2h-.7v-.8c-.3.5-1 .9-2 .9c-1 0-1.7-.7-1.7-1.6zm1.9 1c.8 0 1.7-.6 1.7-1.5v-.7s-1.59.12-1.6.1c-.8.1-1.3.5-1.3 1.1c0 .6.5 1 1.1 1h.1zm3.7-2.2c0-1.6.9-2.9 2.6-2.9c1.2 0 2 .7 2.1 1.9h-.7c-.1-.7-.6-1.3-1.4-1.3h-.1c-1.2 0-1.8 1.1-1.8 2.3c0 1.2.6 2.2 1.8 2.2h.1c.8 0 1.3-.5 1.4-1.2h.7c-.2 1.1-.9 1.8-2.1 1.8c-1.7 0-2.6-1.2-2.6-2.8zm5.7 0c0-2 1.2-2.9 2.5-2.9c1.3 0 2.2 1.1 2.2 2.5v.4s-3.95.03-4 0c.1 1.6.9 2.2 1.8 2.2c.8 0 1.3-.3 1.5-1h.7c-.2 1.1-1.1 1.6-2.2 1.6c-1.4 0-2.5-.9-2.5-2.8zm4-.6c0-.9-.6-1.7-1.5-1.7h-.1c-.7 0-1.5.4-1.6 1.7h3.2zm3.9.6c0-1.6.9-2.9 2.5-2.9c1.2 0 2.1.7 2.2 1.9h-.7c-.1-.7-.7-1.3-1.4-1.3h-.1c-1.2 0-1.8 1.1-1.8 2.3c0 1.2.6 2.2 1.8 2.2h.1c.7 0 1.2-.5 1.4-1.2h.7c-.2 1.1-1 1.8-2.2 1.8c-1.6 0-2.5-1.2-2.5-2.8zm6 2.7V16h.8s-.05 3.16 0 3.2c.3-.7 1-1.1 1.9-1.1c1.3 0 1.9.8 1.9 2v3.6h-.7s-.01-3.38 0-3.4c0-1-.5-1.6-1.3-1.6h-.1c-.9 0-1.7.8-1.7 2.1c-.05-.04 0 2.9 0 2.9h-.8zm6.2-6.5v-.9h.8v.9h-.8zm0 6.5v-5.5h.8v5.5h-.8zm2.4 0V16h.7v7.7h-.7zm2.1-2.7c0-1.8 1-2.9 2.5-2.9c.7 0 1.5.4 1.8 1c.02.01 0-3.1 0-3.1h.7v7.7h-.7s.02-.85 0-.8c-.3.6-1.1.9-1.8.9c-1.5 0-2.5-1.1-2.5-2.8zm2.6 2.2c1.1 0 1.7-1 1.7-2.2c0-1.2-.6-2.3-1.7-2.3h-.1c-1.2 0-1.8 1.1-1.8 2.3c0 1.2.6 2.2 1.8 2.2h.1zm3.8-2.2c0-1.6.9-2.9 2.5-2.9c1.2 0 2.1.7 2.2 1.9h-.7c-.1-.7-.7-1.3-1.4-1.3h-.1c-1.2 0-1.8 1.1-1.8 2.3c0 1.2.6 2.2 1.8 2.2h.1c.7 0 1.2-.5 1.4-1.2h.7c-.2 1.1-1 1.8-2.2 1.8c-1.6 0-2.5-1.2-2.5-2.8zm5.8 1.2c0-1.2 1-1.6 1.9-1.6c-.05-.04 1.7-.2 1.7-.2v-.2c0-.9-.5-1.5-1.4-1.5c-.7 0-1.3.4-1.4 1.1h-.7c0-1 .9-1.7 2.1-1.7c1.4 0 2.1 1 2.1 2.1v2.3c0 .3 0 .8.1 1.2h-.7c0-.2-.1-.6-.1-.8c-.2.5-.9.9-1.9.9c-1 0-1.7-.7-1.7-1.6zm1.9 1c.7 0 1.7-.6 1.7-1.5v-.7s-1.61.12-1.6.1c-.8.1-1.3.5-1.3 1.1c0 .6.4 1 1.1 1h.1zm4 .5v-5.5h.7v1.3c.3-.9.9-1.3 1.7-1.3c0-.02.5 0 .5 0v.6s-.44.03-.4 0c-1.1 0-1.7.9-1.7 2.3c-.05-.04 0 2.6 0 2.6h-.8zm3.5-2.7c0-2 1.2-2.9 2.5-2.9c1.3 0 2.2 1.1 2.2 2.5v.4s-3.97.03-4 0c.1 1.6.9 2.2 1.8 2.2c.8 0 1.3-.3 1.5-1h.7c-.3 1.1-1.1 1.6-2.2 1.6c-1.4 0-2.5-.9-2.5-2.8zm4-.6c-.1-.9-.6-1.7-1.5-1.7h-.1c-.7 0-1.5.4-1.6 1.7h3.2zm3.9.6c0-1.6.9-2.9 2.5-2.9c1.2 0 2.1.7 2.2 1.9h-.7c-.2-.7-.7-1.3-1.4-1.3h-.1c-1.2 0-1.8 1.1-1.8 2.3c0 1.2.6 2.2 1.8 2.2h.1c.7 0 1.2-.5 1.4-1.2h.7c-.2 1.1-1 1.8-2.2 1.8c-1.6 0-2.5-1.2-2.5-2.8zm5.7 0c0-2 1.2-2.9 2.4-2.9c1.4 0 2.3 1.1 2.3 2.5c-.03 0 0 .4 0 .4c0 0-3.99.03-4 0c0 1.6.8 2.2 1.7 2.2h.1c.7 0 1.2-.3 1.4-1h.8c-.3 1.1-1.1 1.6-2.3 1.6c-1.3 0-2.4-.9-2.4-2.8zm4-.6c-.1-.9-.6-1.7-1.5-1.7h-.1c-.7 0-1.5.4-1.7 1.7h3.3zm2.1 3.3v-5.5h.7v1c.3-.7 1-1.1 1.9-1.1c1.1 0 1.9.7 1.9 2c.04.03 0 3.6 0 3.6h-.7s.03-3.35 0-3.3c0-1.1-.4-1.7-1.3-1.7h-.1c-1.1 0-1.7 1.1-1.7 2.3v2.7h-.7zm7.8 0c-.8 0-1.1-.2-1.1-1v-3.9h-1.3v-.6h1.3v-1.8h.7v1.8h1.4v.6h-1.4s.02 3.89 0 3.9c0 .3.1.4.5.4c-.04.03 1.1 0 1.1 0v.6s-1.25.03-1.2 0zm2.2 0v-5.5h.7v1.3c.3-.9 1-1.3 1.7-1.3c.01-.02.5 0 .5 0v.6s-.43.03-.4 0c-1.1 0-1.7.9-1.7 2.3c-.04-.04 0 2.6 0 2.6h-.8zm3.5-2.7c0-2 1.2-2.9 2.5-2.9c1.3 0 2.2 1.1 2.2 2.5v.4s-3.96.03-4 0c.1 1.6.9 2.2 1.8 2.2c.8 0 1.3-.3 1.5-1h.7c-.3 1.1-1.1 1.6-2.2 1.6c-1.4 0-2.5-.9-2.5-2.8zm4-.6c-.1-.9-.6-1.7-1.5-1.7h-.1c-.7 0-1.5.4-1.6 1.7h3.2zm1.6 4.6v-.4s.35-.04.4 0c.4 0 .6-.3.6-.7v-.2h-.6v-1.1h1.1v1.3c0 .7-.4 1.1-1 1.1h-.5zm4.9-2.8c0-1.2 1.1-1.6 1.9-1.6c.02-.04 1.8-.2 1.8-.2c0 0-.04-.19 0-.2c0-.9-.6-1.5-1.4-1.5h-.1c-.7 0-1.3.4-1.3 1.1h-.8c.1-1 1-1.7 2.1-1.7c1.5 0 2.2 1 2.2 2.1v3.5h-.6c-.1-.2-.1-.6-.1-.8c-.2.5-1 .9-1.9.9c-1 0-1.8-.7-1.8-1.6zm2 1c.7 0 1.7-.6 1.7-1.5c-.04.05 0-.7 0-.7c0 0-1.64.12-1.6.1c-.8.1-1.4.5-1.4 1.1c0 .6.5 1 1.1 1h.2zm4 .5V16h.7v7.7h-.7zm2.4 0V16h.7v7.7h-.7zM152 21c0-1.7 1.1-2.9 2.5-2.9c1.5 0 2.6 1.2 2.6 2.9c0 1.7-1.1 2.8-2.6 2.8c-1.4 0-2.5-1.1-2.5-2.8zm2.6 2.2c1 0 1.8-.8 1.8-2.2c0-1.4-.8-2.3-1.8-2.3h-.1c-1 0-1.8.9-1.8 2.3c0 1.4.8 2.2 1.8 2.2h.1zm4.3.5v-4.9h-1.2v-.6h1.2s.05-1.18 0-1.2c0-.7.4-1 1.1-1c-.01.03 1.4 0 1.4 0v.6s-1.3.03-1.3 0c-.3 0-.4.1-.4.5c-.04-.03 0 1.1 0 1.1h1.4v.6h-1.4v4.9h-.8zm12-5.5h.7l-1.8 5.5h-.9l-1.3-4.7l-1.2 4.7h-1l-1.7-5.5h.7l1.5 4.9l1.3-4.9h.9l1.3 5l1.5-5zm1.8 5.5V16h.7v3.2c.4-.7 1.1-1.1 2-1.1c1.2 0 1.8.8 1.8 2c.05 0 0 3.6 0 3.6h-.7s.03-3.38 0-3.4c0-1-.4-1.6-1.3-1.6h-.1c-.8 0-1.7.8-1.7 2.1v2.9h-.7zm6.1-6.5v-.9h.9v.9h-.9zm.1 6.5v-5.5h.7v5.5h-.7zM181 21c0-1.6.9-2.9 2.5-2.9c1.2 0 2 .7 2.1 1.9h-.7c-.1-.7-.6-1.3-1.3-1.3h-.2c-1.2 0-1.7 1.1-1.7 2.3c0 1.2.5 2.2 1.7 2.2h.2c.7 0 1.2-.5 1.3-1.2h.7c-.2 1.1-.9 1.8-2.1 1.8c-1.6 0-2.5-1.2-2.5-2.8zm6 2.7V16h.7v3.2c.4-.7 1.1-1.1 2-1.1c1.2 0 1.9.8 1.9 2c-.04 0 0 3.6 0 3.6h-.8s.05-3.38 0-3.4c0-1-.4-1.6-1.3-1.6h-.1c-.8 0-1.7.8-1.7 2.1v2.9h-.7zm14.9-5.5h.7l-1.7 5.5h-1l-1.2-4.7l-1.3 4.7h-.9l-1.8-5.5h.8l1.5 4.9l1.2-4.9h1l1.2 5l1.5-5zm1.8-1v-.9h.8v.9h-.8zm.1 6.5v-5.5h.7v5.5h-.7zm2.3 0V16h.8v7.7h-.8zm2.4 0V16h.7v7.7h-.7zm4.3-2.7c0-2 1.1-2.9 2.4-2.9c1.4 0 2.2 1.1 2.2 2.5c.03 0 0 .4 0 .4c0 0-3.93.03-3.9 0c0 1.6.8 2.2 1.7 2.2h.1c.7 0 1.2-.3 1.4-1h.7c-.2 1.1-1.1 1.6-2.2 1.6c-1.4 0-2.4-.9-2.4-2.8zm3.9-.6c0-.9-.6-1.7-1.4-1.7h-.2c-.6 0-1.5.4-1.6 1.7h3.2zm2.2 3.3V16h.7v7.7h-.7zM221 21c0-2 1.1-2.9 2.4-2.9c1.4 0 2.2 1.1 2.2 2.5c.03 0 0 .4 0 .4c0 0-3.93.03-3.9 0c0 1.6.8 2.2 1.7 2.2h.1c.7 0 1.2-.3 1.4-1h.7c-.2 1.1-1.1 1.6-2.2 1.6c-1.4 0-2.4-.9-2.4-2.8zm3.9-.6c0-.9-.6-1.7-1.4-1.7h-.2c-.6 0-1.5.4-1.6 1.7h3.2zm5.7-2.2h.8l-2.1 5.5h-.9l-2.1-5.5h.7l1.8 4.9l1.8-4.9zm1.4 4c0-1.2 1.1-1.6 1.9-1.6c.01-.04 1.7-.2 1.7-.2c0 0 .04-.19 0-.2c0-.9-.5-1.5-1.3-1.5h-.1c-.7 0-1.3.4-1.4 1.1h-.7c.1-1 1-1.7 2.1-1.7c1.5 0 2.2 1 2.2 2.1v3.5h-.6c-.1-.2-.1-.6-.1-.8c-.2.5-1 .9-1.9.9c-1 0-1.8-.7-1.8-1.6zm1.9 1c.8 0 1.7-.6 1.7-1.5c.04.05 0-.7 0-.7c0 0-1.55.12-1.6.1c-.7.1-1.3.5-1.3 1.1c0 .6.5 1 1.1 1h.1zm5.6.5c-.7 0-1-.2-1-1v-3.9h-1.3v-.6h1.3v-1.8h.7v1.8h1.4v.6h-1.4v3.9c0 .3.1.4.4.4c.05.03 1.1 0 1.1 0v.6s-1.16.03-1.2 0zm1.9-2.7c0-2 1.2-2.9 2.4-2.9c1.4 0 2.2 1.1 2.2 2.5c.04 0 0 .4 0 .4c0 0-3.92.03-3.9 0c0 1.6.8 2.2 1.7 2.2h.1c.7 0 1.2-.3 1.4-1h.7c-.2 1.1-1.1 1.6-2.2 1.6c-1.4 0-2.4-.9-2.4-2.8zm3.9-.6c0-.9-.6-1.7-1.4-1.7h-.1c-.7 0-1.5.4-1.7 1.7h3.2zm9-2.2l-2.3 5.3s-.01 1.09 0 1.1c0 .7-.3.9-1 .9c-.05.04-1.7 0-1.7 0v-.6s1.54.04 1.5 0c.4 0 .5-.1.5-.4c-.02 0 0-.9 0-.9l-2.4-5.4h.8l1.9 4.5l1.9-4.5h.8zm.3 2.8c0-1.7 1.1-2.9 2.5-2.9c1.5 0 2.6 1.2 2.6 2.9c0 1.7-1.1 2.8-2.6 2.8c-1.4 0-2.5-1.1-2.5-2.8zm2.6 2.2c1 0 1.7-.8 1.7-2.2c0-1.4-.7-2.3-1.7-2.3h-.1c-1 0-1.8.9-1.8 2.3c0 1.4.8 2.2 1.8 2.2h.1zm3.7-1.3c-.05-.04 0-3.7 0-3.7h.7s-.03 3.44 0 3.4c0 1.1.4 1.6 1.3 1.6h.1c.8 0 1.6-.7 1.6-2v-3h.7v5.5h-.7v-1c-.3.7-.9 1.1-1.8 1.1c-1.3 0-1.9-.8-1.9-1.9zm5.9 1.8v-5.5h.7v1.3c.3-.9.9-1.3 1.7-1.3c.01-.02.5 0 .5 0v.6s-.44.03-.4 0c-1.1 0-1.7.9-1.7 2.3c-.04-.04 0 2.6 0 2.6h-.8z" stroke="none" fill="#dcddce"/></g><g id="Polygon16520"><path d="m.6 7.1c0-1.2 1-1.6 1.9-1.7l1.7-.1v-.2c0-1-.5-1.5-1.4-1.5c-.7 0-1.3.3-1.4 1h-.7c0-1 .9-1.6 2.1-1.6c1.4 0 2.1.9 2.1 2.1v2.3c0 .3 0 .8.1 1.2h-.7c0-.3-.1-.6-.1-.9c-.2.5-.9 1-1.9 1c-1 0-1.7-.7-1.7-1.6zm1.9 1c.7 0 1.7-.7 1.7-1.5v-.7s-1.6.07-1.6.1c-.8 0-1.3.4-1.3 1c0 .6.4 1.1 1.1 1.1h.1zm10-5h.8l-2.2 5.5h-.8L8.1 3.1h.8l1.8 4.8l1.8-4.8zm1.8-1v-.9h.9v.9h-.9zm.1 6.5V3.1h.7v5.5h-.7zm3.1-.9c.04 0 0 .9 0 .9h-.7V.9h.7s.04 3.06 0 3.1c.4-.6 1.2-1 1.9-1c1.4 0 2.4 1.1 2.4 2.8c0 1.8-1 2.9-2.4 2.9c-.7 0-1.5-.4-1.9-1zm1.9.4c1.1 0 1.7-1.1 1.7-2.3c0-1.2-.6-2.2-1.7-2.2h-.1c-1.2 0-1.8 1-1.8 2.2c0 1.2.6 2.3 1.8 2.3h.1zm3.9.5V3.1h.6s.03 1.23 0 1.2c.3-.8 1-1.3 1.7-1.3c.04.03.5 0 .5 0v.7s-.41-.02-.4 0c-1.1 0-1.7.8-1.7 2.2v2.7h-.7zm3.6-1.5c0-1.2 1.1-1.6 1.9-1.7c.02.01 1.8-.1 1.8-.1c0 0-.05-.24 0-.2c0-1-.6-1.5-1.4-1.5h-.1c-.7 0-1.3.3-1.4 1h-.7c.1-1 1-1.6 2.1-1.6c1.5 0 2.2.9 2.2 2.1v3.5h-.6c-.1-.3-.1-.6-.1-.9c-.2.5-1 1-1.9 1c-1 0-1.8-.7-1.8-1.6zm1.9 1c.8 0 1.8-.7 1.8-1.5c-.05 0 0-.7 0-.7c0 0-1.64.07-1.6.1c-.8 0-1.4.4-1.4 1c0 .6.5 1.1 1.1 1.1h.1zm4.2.5V3.1h.7s-.03.9 0 .9c.3-.6 1-1 1.9-1c1.1 0 1.9.7 1.9 2c.02-.02 0 3.6 0 3.6h-.7s.01-3.4 0-3.4c0-1.1-.4-1.6-1.3-1.6h-.1c-1.2 0-1.7 1-1.7 2.2c-.03.03 0 2.8 0 2.8h-.7zm7.8 0c-.7 0-1.1-.3-1.1-1c.05-.01 0-3.9 0-3.9h-1.2v-.6h1.2V1.3h.8v1.8h1.3v.6h-1.3s-.04 3.84 0 3.8c0 .4.1.5.4.5c0-.02 1.1 0 1.1 0v.6s-1.21-.02-1.2 0zm4.5 0V3.1h.7s.03.9 0 .9c.3-.6 1-1 2-1c1.1 0 1.9.7 1.9 2c-.02-.02 0 3.6 0 3.6h-.7s-.04-3.4 0-3.4c0-1.1-.5-1.6-1.4-1.6c-1.2 0-1.8 1-1.8 2.2c.03.03 0 2.8 0 2.8h-.7zm6-2.8c0-1.9 1.2-2.8 2.4-2.8c1.4 0 2.2 1 2.2 2.4c.05.05 0 .5 0 .5c0 0-3.91-.02-3.9 0c0 1.5.8 2.2 1.7 2.2h.1c.7 0 1.2-.4 1.4-1.1h.7c-.2 1.1-1 1.7-2.2 1.7c-1.3 0-2.4-1-2.4-2.9zm3.9-.5c0-1-.6-1.7-1.4-1.7h-.1c-.7 0-1.5.4-1.7 1.7h3.2zm8.7-2.2h.7l-1.8 5.5h-.9l-1.3-4.8l-1.2 4.8h-.9l-1.8-5.5h.7l1.5 4.8l1.3-4.8h.9L62.4 8l1.5-4.9zm4 5.5V3.1h.7v1.2c.2-.8.9-1.3 1.7-1.3c0 .03.5 0 .5 0v.7s-.45-.02-.4 0c-1.1 0-1.8.8-1.8 2.2c.05.01 0 2.7 0 2.7h-.7zm3.6-2.8c0-1.9 1.2-2.8 2.4-2.8c1.4 0 2.2 1 2.2 2.4c.04.05 0 .5 0 .5c0 0-3.92-.02-3.9 0c0 1.5.8 2.2 1.7 2.2h.1c.7 0 1.2-.4 1.4-1.1h.7c-.2 1.1-1.1 1.7-2.2 1.7c-1.4 0-2.4-1-2.4-2.9zm3.9-.5c0-1-.6-1.7-1.4-1.7h-.1c-.7 0-1.5.4-1.7 1.7h3.2zm3.8 3.3c-.7 0-1.1-.3-1.1-1c.03-.01 0-3.9 0-3.9h-1.2v-.6h1.2V1.3h.7v1.8h1.4v.6h-1.4s.04 3.84 0 3.8c0 .4.2.5.5.5c-.02-.02 1.1 0 1.1 0v.6s-1.23-.02-1.2 0zm2.1-1.5c0-1.2 1-1.6 1.9-1.7l1.7-.1v-.2c0-1-.5-1.5-1.4-1.5c-.7 0-1.3.3-1.4 1h-.7c0-1 .9-1.6 2.1-1.6c1.4 0 2.1.9 2.1 2.1v2.3c0 .3 0 .8.1 1.2h-.7v-.9c-.3.5-1 1-2 1c-1 0-1.7-.7-1.7-1.6zm1.9 1c.8 0 1.7-.7 1.7-1.5v-.7s-1.6.07-1.6.1c-.8 0-1.3.4-1.3 1c0 .6.5 1.1 1.1 1.1h.1zm4-6v-.9h.9v.9h-.9zm.1 6.5V3.1h.7v5.5h-.7zm2.4 0V.9h.7v7.7h-.7zm4.4-2.8c0-1.7 1-2.8 2.4-2.8c.7 0 1.5.4 1.9 1c-.03-.04 0-3.1 0-3.1h.7v7.7h-.7s-.03-.9 0-.9c-.4.6-1.2 1-1.9 1c-1.4 0-2.4-1.1-2.4-2.9zm2.5 2.3c1.2 0 1.8-1.1 1.8-2.3c0-1.2-.6-2.2-1.8-2.2c-1.2 0-1.8 1-1.8 2.2c0 1.2.6 2.3 1.8 2.3zm4-2.3c0-1.9 1.2-2.8 2.5-2.8c1.3 0 2.2 1 2.2 2.4v.5s-3.95-.02-3.9 0c0 1.5.8 2.2 1.7 2.2c.8 0 1.3-.4 1.5-1.1h.7c-.2 1.1-1.1 1.7-2.2 1.7c-1.4 0-2.5-1-2.5-2.9zm4-.5c0-1-.6-1.7-1.5-1.7h-.1c-.7 0-1.5.4-1.6 1.7h3.2zm1.9 1.6h.7c.1.8.7 1.2 1.4 1.2h.2c.7 0 1.2-.4 1.2-1c0-.4-.2-.7-1-.9l-.8-.1c-.8-.2-1.5-.6-1.5-1.5c0-1.1 1-1.6 2-1.6c1.4 0 2 .8 2.1 1.7h-.7c-.1-.6-.6-1.1-1.3-1.1h-.2c-.7 0-1.2.4-1.2.9c0 .5.3.7 1 .9l.9.2c.8.2 1.4.5 1.4 1.4c0 1.1-.8 1.7-2 1.7c-1.4 0-2.1-.8-2.2-1.8zm7.5 1.7c-.7 0-1-.3-1-1c-.05-.01 0-3.9 0-3.9h-1.3v-.6h1.3V1.3h.7v1.8h1.3v.6h-1.3s-.03 3.84 0 3.8c0 .4.1.5.4.5c.01-.02 1.1 0 1.1 0v.6s-1.2-.02-1.2 0zm2.4-6.5v-.9h.8v.9h-.8zm.1 6.5V3.1h.7v5.5h-.7zm2.5 0V3.1h.7s.02.9 0 .9c.3-.6 1-1 1.9-1c1.1 0 2 .7 2 2c-.03-.02 0 3.6 0 3.6h-.7s-.05-3.4 0-3.4c0-1.1-.5-1.6-1.4-1.6c-1.2 0-1.8 1-1.8 2.2c.02.03 0 2.8 0 2.8h-.7zm6.1-1.5c0-1.2 1-1.6 1.9-1.7l1.7-.1v-.2c0-1-.5-1.5-1.4-1.5c-.7 0-1.3.3-1.4 1h-.7c0-1 .9-1.6 2.1-1.6c1.4 0 2.1.9 2.1 2.1v2.3c0 .3 0 .8.1 1.2h-.7v-.9c-.3.5-1 1-2 1c-1 0-1.7-.7-1.7-1.6zm1.9 1c.7 0 1.7-.7 1.7-1.5v-.7s-1.6.07-1.6.1c-.8 0-1.3.4-1.3 1c0 .6.5 1.1 1.1 1.1h.1zm5.8.5c-.8 0-1.1-.3-1.1-1V3.7h-1.3v-.6h1.3V1.3h.7v1.8h1.4v.6h-1.4s.02 3.84 0 3.8c0 .4.1.5.5.5c-.04-.02 1.1 0 1.1 0v.6s-1.25-.02-1.2 0zm2.4-6.5v-.9h.8v.9h-.8zm0 6.5V3.1h.7v5.5h-.7zm2.2-2.8c0-1.7 1.1-2.8 2.6-2.8c1.4 0 2.5 1.1 2.5 2.8c0 1.7-1.1 2.9-2.5 2.9c-1.5 0-2.6-1.2-2.6-2.9zm2.6 2.3c1 0 1.8-.9 1.8-2.3c0-1.4-.8-2.2-1.8-2.2h-.1c-1 0-1.7.8-1.7 2.2c0 1.4.7 2.3 1.7 2.3h.1zm4 .5V3.1h.7s.04.9 0 .9c.4-.6 1.1-1 2-1c1.1 0 1.9.7 1.9 2c-.01-.02 0 3.6 0 3.6h-.7s-.02-3.4 0-3.4c0-1.1-.5-1.6-1.3-1.6h-.1c-1.2 0-1.8 1-1.8 2.2c.04.03 0 2.8 0 2.8h-.7zm8.7 0V.9h.7s.03 3.11 0 3.1c.4-.6 1.1-1 2-1c1.2 0 1.9.8 1.9 1.9c-.02.05 0 3.7 0 3.7h-.7s-.03-3.43 0-3.4c0-1.1-.5-1.6-1.3-1.6h-.2c-.8 0-1.7.7-1.7 2c.03.01 0 3 0 3h-.7zm6.1-2.8c0-1.7 1.1-2.8 2.5-2.8c1.4 0 2.5 1.1 2.5 2.8c0 1.7-1.1 2.9-2.5 2.9c-1.4 0-2.5-1.2-2.5-2.9zm2.6 2.3c.9 0 1.7-.9 1.7-2.3c0-1.4-.8-2.2-1.7-2.2h-.2c-.9 0-1.7.8-1.7 2.2c0 1.4.8 2.3 1.7 2.3h.2zm4 .5V3.1h.7s-.02.86 0 .9c.3-.6.9-1 1.8-1c.8 0 1.5.4 1.7 1.1c.4-.7 1.1-1.1 2-1.1c1 0 1.8.7 1.8 2c.05-.02 0 3.6 0 3.6h-.7s.03-3.4 0-3.4c0-1.1-.4-1.6-1.2-1.6h-.1c-1.1 0-1.6 1-1.6 2.2c-.04.03 0 2.8 0 2.8h-.8s.05-3.4 0-3.4c0-1.1-.4-1.6-1.2-1.6h-.1c-1.1 0-1.6 1-1.6 2.2c-.02.03 0 2.8 0 2.8h-.7zm9.6-2.8c0-1.9 1.2-2.8 2.4-2.8c1.4 0 2.2 1 2.2 2.4c.04.05 0 .5 0 .5c0 0-3.92-.02-3.9 0c0 1.5.8 2.2 1.7 2.2h.1c.7 0 1.2-.4 1.4-1.1h.7c-.2 1.1-1.1 1.7-2.2 1.7c-1.4 0-2.4-1-2.4-2.9zm3.9-.5c0-1-.6-1.7-1.4-1.7h-.1c-.7 0-1.5.4-1.7 1.7h3.2zm6.2 3.3c-.7 0-1-.3-1-1c-.04-.01 0-3.9 0-3.9h-1.3v-.6h1.3V1.3h.7v1.8h1.3v.6h-1.3s-.03 3.84 0 3.8c0 .4.1.5.4.5c.01-.02 1.1 0 1.1 0v.6s-1.2-.02-1.2 0zm2-2.8c0-1.7 1.1-2.8 2.5-2.8c1.4 0 2.5 1.1 2.5 2.8c0 1.7-1.1 2.9-2.5 2.9c-1.4 0-2.5-1.2-2.5-2.9zm2.5 2.3c1 0 1.8-.9 1.8-2.3c0-1.4-.8-2.2-1.8-2.2h-.1c-1 0-1.7.8-1.7 2.2c0 1.4.7 2.3 1.7 2.3h.1zm5.9-1.2h.7c.1.8.7 1.2 1.5 1.2h.1c.7 0 1.2-.4 1.2-1c0-.4-.2-.7-1-.9l-.8-.1c-.8-.2-1.5-.6-1.5-1.5c0-1.1 1-1.6 2-1.6c1.4 0 2 .8 2.1 1.7h-.7c-.1-.6-.6-1.1-1.3-1.1h-.1c-.8 0-1.2.4-1.2.9c0 .5.3.7 1 .9l.8.2c.8.2 1.4.5 1.4 1.4c0 1.1-.8 1.7-2 1.7c-1.4 0-2.1-.8-2.2-1.8zm5.8 1.7V.9h.7s.05 3.11 0 3.1c.4-.6 1.1-1 2-1c1.3 0 1.9.8 1.9 1.9v3.7h-.7s-.02-3.43 0-3.4c0-1.1-.5-1.6-1.3-1.6h-.1c-.9 0-1.8.7-1.8 2c.05.01 0 3 0 3h-.7zm6.1-2.8c0-1.7 1.1-2.8 2.5-2.8c1.4 0 2.5 1.1 2.5 2.8c0 1.7-1.1 2.9-2.5 2.9c-1.4 0-2.5-1.2-2.5-2.9zm2.6 2.3c1 0 1.7-.9 1.7-2.3c0-1.4-.7-2.2-1.7-2.2h-.1c-1 0-1.8.8-1.8 2.2c0 1.4.8 2.3 1.8 2.3h.1zm4 2.7V3.1h.7s-.01.86 0 .9c.3-.6 1.1-1 1.8-1c1.5 0 2.5 1.1 2.5 2.8c0 1.8-1 2.9-2.5 2.9c-.7 0-1.5-.4-1.8-1v3.1h-.7zm2.5-2.7c1.2 0 1.8-1.1 1.8-2.3c0-1.2-.6-2.2-1.8-2.2c-1.2 0-1.8 1-1.8 2.2c0 1.2.6 2.3 1.8 2.3zm3.6-1.2h.7c.1.8.7 1.2 1.5 1.2h.1c.7 0 1.2-.4 1.2-1c0-.4-.2-.7-1-.9l-.8-.1c-.8-.2-1.4-.6-1.4-1.5c0-1.1.9-1.6 1.9-1.6c1.4 0 2 .8 2.1 1.7h-.7c-.1-.6-.6-1.1-1.3-1.1h-.1c-.8 0-1.2.4-1.2.9c0 .5.3.7 1 .9l.8.2c.8.2 1.4.5 1.4 1.4c0 1.1-.8 1.7-2 1.7c-1.4 0-2.1-.8-2.2-1.8zm5.4 2.9v-.4h.3c.5 0 .7-.2.7-.7c-.02.04 0-.1 0-.1h-.6V7.5h1.1s-.02 1.3 0 1.3c0 .7-.4 1-1.1 1c.03.04-.4 0-.4 0zm5.2-4c0-1.6.9-2.8 2.5-2.8c1.2 0 2.1.7 2.2 1.8h-.7c-.1-.7-.7-1.2-1.4-1.2h-.1c-1.2 0-1.8 1-1.8 2.2c0 1.2.6 2.3 1.8 2.3h.1c.7 0 1.2-.6 1.4-1.3h.7c-.2 1.2-1 1.9-2.2 1.9c-1.6 0-2.5-1.3-2.5-2.9zm5.9 1.3c0-1.2 1.1-1.6 1.9-1.7c.01.01 1.8-.1 1.8-.1c0 0-.05-.24 0-.2c0-1-.6-1.5-1.4-1.5h-.1c-.7 0-1.3.3-1.4 1h-.7c.1-1 1-1.6 2.1-1.6c1.5 0 2.2.9 2.2 2.1v3.5h-.6c-.1-.3-.1-.6-.1-.9c-.2.5-1 1-1.9 1c-1 0-1.8-.7-1.8-1.6zm1.9 1c.8 0 1.8-.7 1.8-1.5c-.05 0 0-.7 0-.7c0 0-1.64.07-1.6.1c-.8 0-1.4.4-1.4 1c0 .6.5 1.1 1.1 1.1h.1zm4.8.5V3.7H242v-.6h1.3V1.9c0-.7.3-1 1-1c.05-.02 1.4 0 1.4 0v.6s-1.24-.02-1.2 0c-.4 0-.5.1-.5.4c.02.02 0 1.2 0 1.2h1.4v.6H244v4.9h-.7zm2.9-2.8c0-1.9 1.2-2.8 2.5-2.8c1.3 0 2.2 1 2.2 2.4v.5s-3.95-.02-3.9 0c0 1.5.8 2.2 1.7 2.2c.8 0 1.3-.4 1.5-1.1h.7c-.2 1.1-1.1 1.7-2.2 1.7c-1.4 0-2.5-1-2.5-2.9zm4-.5c0-1-.6-1.7-1.5-1.7h-.1c-.7 0-1.5.4-1.6 1.7h3.2zm1.9 1.6h.7c.1.8.7 1.2 1.4 1.2h.2c.7 0 1.2-.4 1.2-1c0-.4-.2-.7-1-.9l-.8-.1c-.8-.2-1.5-.6-1.5-1.5c0-1.1 1-1.6 2-1.6c1.4 0 2 .8 2.1 1.7h-.7c-.1-.6-.6-1.1-1.3-1.1h-.2c-.7 0-1.2.4-1.2.9c0 .5.3.7 1 .9l.9.2c.8.2 1.4.5 1.4 1.4c0 1.1-.8 1.7-2 1.7c-1.4 0-2.1-.8-2.2-1.8zm7.8.2c0-1.2 1-1.6 1.9-1.7l1.7-.1s.02-.24 0-.2c0-1-.5-1.5-1.4-1.5c-.7 0-1.3.3-1.4 1h-.7c.1-1 .9-1.6 2.1-1.6c1.4 0 2.1.9 2.1 2.1v2.3c0 .3 0 .8.1 1.2h-.7v-.9c-.2.5-1 1-2 1c-.9 0-1.7-.7-1.7-1.6zm1.9 1c.8 0 1.7-.7 1.7-1.5c.02 0 0-.7 0-.7c0 0-1.58.07-1.6.1c-.8 0-1.3.4-1.3 1c0 .6.5 1.1 1.1 1.1h.1zm4.2.5V3.1h.7s.05.9 0 .9c.4-.6 1.1-1 2-1c1.1 0 1.9.7 1.9 2v3.6h-.7s-.02-3.4 0-3.4c0-1.1-.5-1.6-1.3-1.6h-.1c-1.2 0-1.8 1-1.8 2.2c.05.03 0 2.8 0 2.8h-.7zm6.1-2.8c0-1.7 1-2.8 2.5-2.8c.7 0 1.5.4 1.8 1V.9h.7v7.7h-.7v-.9c-.3.6-1.1 1-1.8 1c-1.5 0-2.5-1.1-2.5-2.9zm2.5 2.3c1.2 0 1.8-1.1 1.8-2.3c0-1.2-.6-2.2-1.8-2.2c-1.2 0-1.8 1-1.8 2.2c0 1.2.6 2.3 1.8 2.3z" stroke="none" fill="#dcddce"/></g></svg>