<?xml version="1.0" standalone="no"?><!DOCTYPE svg PUBLIC "-//W3C//DTD SVG 1.1//EN" "http://www.w3.org/Graphics/SVG/1.1/DTD/svg11.dtd"><svg xmlns="http://www.w3.org/2000/svg" version="1.1" width="652px" height="41.5px" viewBox="0 -2 652 41.5" style="top:-2px"><desc>Disclaimer: The publication is intended as a general introduction to Trilogy only and does not form an offer, guarant...</desc><defs/><g id="Polygon23268"><path d="m205.1 35.5v-4.9s2.08-.04 2.1 0c.7 0 1.3.4 1.3 1.2c0 .6-.3 1.1-.8 1.2c.4 0 .9.4.9 1.1c0 .8-.6 1.4-1.4 1.4c.02-.04-2.1 0-2.1 0zm.5-2.7s1.53-.05 1.5 0c.6 0 .9-.4.9-.9c0-.6-.3-.9-.9-.9h-1.5v1.8zm0 2.2h1.5c.6 0 1-.3 1-.9c0-.6-.4-.9-1-.9h-1.5v1.8zm4.1-.7c-.04-.03 0-2.3 0-2.3h.4v2.1c0 .7.3 1 .9 1c.5 0 1-.4 1-1.3c.04.05 0-1.8 0-1.8h.5v3.5h-.5s.04-.7 0-.7c-.1.5-.6.7-1.1.7c-.8 0-1.2-.5-1.2-1.2zm3.9-3v-.6h.5v.6h-.5zm.1 4.2V32h.4v3.5h-.4zm1.6 0v-4.9h.4v4.9h-.4zm1.4-1.8c0-1.1.7-1.8 1.6-1.8c.4 0 .9.2 1.1.6c.04.02 0-1.9 0-1.9h.5v4.9h-.5s.04-.6 0-.6c-.2.4-.7.6-1.1.6c-.9 0-1.6-.7-1.6-1.8zm1.6 1.4c.8 0 1.1-.6 1.1-1.4c0-.7-.3-1.4-1.1-1.4c-.8 0-1.1.7-1.1 1.4c0 .8.3 1.4 1.1 1.4zm2.6-1.4c0-1.2.7-1.8 1.5-1.8c.9 0 1.4.7 1.4 1.6c.05-.03 0 .2 0 .2c0 0-2.47.04-2.5 0c0 1 .6 1.4 1.1 1.4h.1c.4 0 .8-.2.9-.6h.4c-.1.7-.6 1-1.4 1c-.8 0-1.5-.6-1.5-1.8zm2.5-.3c0-.7-.4-1.1-.9-1.1h-.1c-.4 0-1 .2-1.1 1.1h2.1zm1.4 2.1V32h.5s-.04.76 0 .8c.1-.6.6-.9 1-.9c.05.03.4 0 .4 0v.4s-.32.04-.3 0c-.7 0-1.1.6-1.1 1.5v1.7h-.5zm2.6-2.8v-.7h.7v.7h-.7zm0 2.8v-.7h.7v.7h-.7zm6.4 0l-1.7-2.6l-1.1 1v1.6h-.5v-4.9h.5v2.7l2.8-2.7h.6l-2 1.9l2.1 3h-.7zm1.2-1c0-.8.6-1 1.2-1.1c-.04.04 1.1 0 1.1 0c0 0-.04-.18 0-.2c0-.6-.4-.9-.9-.9c-.5 0-.9.2-.9.6h-.5c.1-.6.6-1 1.4-1c.9 0 1.3.6 1.3 1.3v1.5c0 .2 0 .5.1.8h-.5v-.6c-.1.3-.6.6-1.2.6c-.7 0-1.1-.4-1.1-1zm1.2.6c.5 0 1.1-.4 1.1-.9c-.04 0 0-.5 0-.5l-1.1.1c-.4 0-.8.3-.8.7c0 .4.3.6.7.6h.1zm2.7.4V32h.4s-.03.76 0 .8c.1-.6.6-.9 1.1-.9c-.04.03.3 0 .3 0v.4s-.31.04-.3 0c-.7 0-1.1.6-1.1 1.5c.01-.04 0 1.7 0 1.7h-.4zm2.5-4.2v-.6h.5v.6h-.5zm0 4.2V32h.5v3.5h-.5zm1.7 0V32h.4s.02.52 0 .5c.2-.3.6-.6 1.2-.6c.5 0 .9.2 1.1.7c.2-.5.7-.7 1.2-.7c.7 0 1.2.4 1.2 1.3v2.3h-.4s-.05-2.19 0-2.2c0-.7-.3-1-.9-1c-.7 0-1 .7-1 1.4c-.04.01 0 1.8 0 1.8h-.5s.01-2.19 0-2.2c0-.7-.3-1-.8-1c-.7 0-1.1.7-1.1 1.4c.02.01 0 1.8 0 1.8h-.4zm6.7-.6v.6h-.4v-4.9h.4v1.9c.2-.4.7-.6 1.2-.6c.9 0 1.5.7 1.5 1.8c0 1.1-.6 1.8-1.5 1.8c-.5 0-1-.2-1.2-.6zm1.2.2c.7 0 1.1-.6 1.1-1.4c0-.7-.4-1.4-1.1-1.4h-.1c-.7 0-1.1.7-1.1 1.4c0 .8.4 1.4 1.1 1.4h.1zm2.5.4v-4.9h.5v4.9h-.5zm1.5-1c0-.8.6-1 1.2-1.1c-.03.04 1.1 0 1.1 0c0 0-.02-.18 0-.2c0-.6-.4-.9-.9-.9c-.5 0-.9.2-.9.6h-.5c.1-.6.6-1 1.4-1c.9 0 1.3.6 1.3 1.3v1.5c0 .2 0 .5.1.8h-.5v-.6c-.1.3-.6.6-1.2.6c-.6 0-1.1-.4-1.1-1zm1.2.6c.5 0 1.1-.4 1.1-.9c-.02 0 0-.5 0-.5l-1 .1c-.5 0-.9.3-.9.7c0 .4.3.6.7.6h.1zm3.7-2.1c0-1.4.8-2.5 2.2-2.5c1.1 0 1.9.7 1.9 1.6h-.5c0-.6-.5-1.2-1.3-1.2h-.1c-1.1 0-1.7 1-1.7 2.1c0 1.1.6 2.1 1.7 2.1h.1c.8 0 1.3-.6 1.3-1.1h.5c0 .9-.8 1.5-1.9 1.5c-1.4 0-2.2-1.1-2.2-2.5zm4.9.7c0-1.1.7-1.8 1.6-1.8c.9 0 1.6.7 1.6 1.8c0 1.1-.7 1.8-1.6 1.8c-.9 0-1.6-.7-1.6-1.8zm1.7 1.4c.6 0 1.1-.5 1.1-1.4c0-.9-.5-1.4-1.1-1.4h-.1c-.6 0-1.1.5-1.1 1.4c0 .9.5 1.4 1.1 1.4h.1zm2.5.4V32h.5s-.04.55 0 .5c.2-.3.6-.6 1.2-.6c.7 0 1.2.4 1.2 1.3v2.3h-.4s-.04-2.19 0-2.2c0-.7-.3-1-.9-1c-.8 0-1.1.7-1.1 1.4c-.04.01 0 1.8 0 1.8h-.5zm3.8-1.1h.5c0 .5.4.7.9.7c.5 0 .8-.2.8-.6c0-.3-.1-.4-.6-.5l-.5-.1c-.5-.1-1-.4-1-1c0-.6.6-1 1.3-1c.9 0 1.3.5 1.3 1.1h-.4c-.1-.4-.4-.7-.9-.7c-.5 0-.8.3-.8.6c0 .3.2.4.6.5l.6.2c.5.1.9.3.9.9c0 .6-.5 1-1.3 1c-.9 0-1.4-.4-1.4-1.1zm4.7 1.1c-.4 0-.6-.2-.6-.7c-.02.03 0-2.5 0-2.5h-.8v-.3h.8v-1.2h.4v1.2h.9v.3h-.9s.04 2.5 0 2.5c0 .2.1.3.3.3c.02-.02.7 0 .7 0v.4s-.75-.04-.8 0zm1.6 0V32h.4s.02.76 0 .8c.2-.6.6-.9 1.1-.9c.01.03.3 0 .3 0v.4s-.26.04-.3 0c-.6 0-1 .6-1 1.5c-.04-.04 0 1.7 0 1.7h-.5zm2.6-1.2c-.02-.03 0-2.3 0-2.3h.4s.03 2.13 0 2.1c0 .7.3 1 .9 1c.6 0 1.1-.4 1.1-1.3c-.04.05 0-1.8 0-1.8h.4v3.5h-.4s-.04-.7 0-.7c-.2.5-.6.7-1.2.7c-.8 0-1.2-.5-1.2-1.2zm3.8-.6c0-1 .6-1.8 1.6-1.8c.8 0 1.3.4 1.4 1.2h-.5c-.1-.5-.4-.8-.9-.8c-.8 0-1.2.6-1.2 1.4c0 .8.4 1.4 1.2 1.4c.5 0 .8-.3.9-.8h.5c-.2.8-.6 1.2-1.4 1.2c-1 0-1.6-.8-1.6-1.8zm5 1.8c-.5 0-.7-.2-.7-.7c.02.03 0-2.5 0-2.5h-.8v-.3h.8v-1.2h.5v1.2h.8v.3h-.8s-.03 2.5 0 2.5c0 .2 0 .3.2.3c.05-.02.7 0 .7 0v.4s-.72-.04-.7 0zm1.5-4.2v-.6h.5v.6h-.5zm0 4.2V32h.5v3.5h-.5zm1.4-1.8c0-1.1.7-1.8 1.7-1.8c.9 0 1.6.7 1.6 1.8c0 1.1-.7 1.8-1.6 1.8c-1 0-1.7-.7-1.7-1.8zm1.7 1.4c.6 0 1.1-.5 1.1-1.4c0-.9-.5-1.4-1.1-1.4h-.1c-.6 0-1.1.5-1.1 1.4c0 .9.5 1.4 1.1 1.4h.1zm2.5.4V32h.5s-.02.55 0 .5c.2-.3.6-.6 1.2-.6c.7 0 1.2.4 1.2 1.3c.03-.03 0 2.3 0 2.3h-.4s-.02-2.19 0-2.2c0-.7-.3-1-.9-1c-.8 0-1.1.7-1.1 1.4c-.02.01 0 1.8 0 1.8h-.5zm3.8-1.1h.5c0 .5.4.7.9.7c.5 0 .8-.2.8-.6c0-.3-.1-.4-.6-.5l-.5-.1c-.5-.1-.9-.4-.9-1c0-.6.5-1 1.2-1c.9 0 1.3.5 1.3 1.1h-.4c-.1-.4-.4-.7-.9-.7c-.5 0-.8.3-.8.6c0 .3.2.4.6.5l.6.2c.5.1.9.3.9.9c0 .6-.5 1-1.3 1c-.9 0-1.3-.4-1.4-1.1zm4.6-.5h.5c0 .8.6 1.2 1.4 1.2h.1c.7 0 1.1-.4 1.1-.9c0-.5-.3-.7-.9-.9l-.8-.1c-.7-.2-1.1-.6-1.1-1.3c0-.8.6-1.4 1.6-1.4c1.1 0 1.8.6 1.8 1.5h-.5c0-.6-.5-1.1-1.2-1.1h-.1c-.7 0-1.1.5-1.1 1c0 .4.3.7.8.8l.8.1c.8.2 1.2.6 1.2 1.3c0 .9-.6 1.4-1.7 1.4c-1.2 0-1.9-.6-1.9-1.6zm4.5-.2c0-1.2.7-1.8 1.5-1.8c.9 0 1.5.7 1.5 1.6c-.05-.03 0 .2 0 .2c0 0-2.57.04-2.6 0c0 1 .6 1.4 1.1 1.4h.1c.4 0 .8-.2.9-.6h.4c-.1.7-.6 1-1.4 1c-.8 0-1.5-.6-1.5-1.8zm2.5-.3c0-.7-.4-1.1-.9-1.1h-.1c-.4 0-1 .2-1.1 1.1h2.1zm1.4 2.1V32h.5s-.04.76 0 .8c.1-.6.6-.9 1-.9c.05.03.4 0 .4 0v.4s-.32.04-.3 0c-.7 0-1.1.6-1.1 1.5v1.7h-.5zm5.2-3.5h.5l-1.4 3.5h-.6l-1.3-3.5h.5l1.1 3l1.2-3zm1.2-.7v-.6h.5v.6h-.5zm0 4.2V32h.5v3.5h-.5zm1.5-1.8c0-1 .5-1.8 1.6-1.8c.7 0 1.3.4 1.3 1.2h-.4c-.1-.5-.4-.8-.9-.8h-.1c-.7 0-1.1.6-1.1 1.4c0 .8.4 1.4 1.1 1.4h.1c.5 0 .8-.3.9-.8h.4c-.1.8-.6 1.2-1.3 1.2c-1.1 0-1.6-.8-1.6-1.8zm3.7 0c0-1.2.7-1.8 1.5-1.8c.9 0 1.5.7 1.5 1.6c-.04-.03 0 .2 0 .2c0 0-2.56.04-2.6 0c.1 1 .6 1.4 1.1 1.4h.1c.5 0 .8-.2.9-.6h.5c-.2.7-.7 1-1.5 1c-.8 0-1.5-.6-1.5-1.8zm2.5-.3c0-.7-.4-1.1-.9-1.1h-.1c-.4 0-.9.2-1 1.1h2zm1.2 1h.5c0 .5.4.7.9.7c.5 0 .8-.2.8-.6c0-.3-.1-.4-.6-.5l-.5-.1c-.5-.1-.9-.4-.9-1c0-.6.5-1 1.2-1c.9 0 1.3.5 1.3 1.1h-.4c-.1-.4-.4-.7-.9-.7c-.5 0-.8.3-.8.6c0 .3.2.4.6.5l.6.2c.5.1.9.3.9.9c0 .6-.5 1-1.3 1c-.9 0-1.4-.4-1.4-1.1zm6.5 2.1c-1.1-.1-1.8-1.5-1.8-3.5c0-2 .7-3.4 1.8-3.5v.4c-.8.1-1.4 1.4-1.4 3.1c0 1.7.6 3 1.4 3.1v.4zm3.9-5.9h.5v4.9h-.6l-2.7-4.3v4.3h-.5v-4.9h.6l2.7 4.1v-4.1zm1.5 3.3h.5c0 .8.6 1.2 1.4 1.2h.1c.7 0 1.2-.4 1.2-.9c0-.5-.3-.7-1-.9l-.7-.1c-.8-.2-1.2-.6-1.2-1.3c0-.8.6-1.4 1.7-1.4c1 0 1.7.6 1.7 1.5h-.5c0-.6-.5-1.1-1.2-1.1h-.1c-.6 0-1.1.5-1.1 1c0 .4.3.7.8.8l.8.1c.8.2 1.2.6 1.2 1.3c0 .9-.6 1.4-1.7 1.4c-1.2 0-1.9-.6-1.9-1.6zm9.9-3.3h.5l-1.2 4.9h-.8l-1-4.4l-1.1 4.4h-.8l-1.2-4.9h.5l1.1 4.5l1.1-4.5h.7l1.1 4.4l1.1-4.4zm.7-1.1c1.1.1 1.9 1.6 1.9 3.5c0 2-.8 3.4-1.9 3.5v-.4c.9-.1 1.4-1.4 1.4-3.1c0-1.7-.5-3-1.4-3.1v-.4zm4.2 6v-4.9s1.95-.04 1.9 0c.9 0 1.6.5 1.6 1.4c0 1-.7 1.4-1.6 1.4c.05.04-1.4 0-1.4 0v2.1h-.5zm.5-2.5h1.3c.7 0 1.2-.3 1.2-1c0-.7-.5-1-1.2-1h-1.3v2zm5.1 2.5c-.5 0-.7-.2-.7-.7c.02.03 0-2.5 0-2.5h-.8v-.3h.8v-1.2h.5v1.2h.8v.3h-.8s-.03 2.5 0 2.5c0 .2 0 .3.2.3c.05-.02.7 0 .7 0v.4s-.72-.04-.7 0zm4.6-3.5l-1.4 3.3v.7c0 .4-.2.6-.7.6h-1v-.4s.97.03 1 0c.2 0 .3 0 .3-.2c-.05-.05 0-.6 0-.6l-1.5-3.4h.5l1.2 2.8l1.2-2.8h.4zm2.1 3.5v-4.9h.5v4.4h2.9v.5h-3.4zm4.2-4.2v-.6h.5v.6h-.5zm0 4.2V32h.5v3.5h-.5zm1.6 0V32h.5s-.03.52 0 .5c.2-.3.6-.6 1.1-.6c.5 0 1 .2 1.1.7c.3-.5.7-.7 1.3-.7c.6 0 1.2.4 1.2 1.3c-.04-.03 0 2.3 0 2.3h-.5v-2.2c0-.7-.3-1-.8-1c-.8 0-1.1.7-1.1 1.4c.01.01 0 1.8 0 1.8h-.4s-.04-2.19 0-2.2c0-.7-.3-1-.8-1h-.1c-.7 0-1 .7-1 1.4c-.03.01 0 1.8 0 1.8h-.5zm6.3-4.2v-.6h.5v.6h-.5zm0 4.2V32h.5v3.5h-.5zm2.7 0c-.5 0-.7-.2-.7-.7c.02.03 0-2.5 0-2.5h-.8v-.3h.8v-1.2h.5v1.2h.9v.3h-.9s-.02 2.5 0 2.5c0 .2 0 .3.3.3c-.04-.02.7 0 .7 0v.4s-.81-.04-.8 0zm1.3-1.8c0-1.2.7-1.8 1.5-1.8c.9 0 1.4.7 1.4 1.6c.03-.03 0 .2 0 .2c0 0-2.49.04-2.5 0c0 1 .5 1.4 1.1 1.4c.5 0 .8-.2 1-.6h.4c-.1.7-.7 1-1.4 1c-.9 0-1.5-.6-1.5-1.8zm2.5-.3c0-.7-.4-1.1-1-1.1c-.5 0-1 .2-1.1 1.1h2.1zm1.2.3c0-1.1.7-1.8 1.6-1.8c.4 0 .9.2 1.2.6c-.04.02 0-1.9 0-1.9h.4v4.9h-.4s-.04-.6 0-.6c-.3.4-.8.6-1.2.6c-.9 0-1.6-.7-1.6-1.8zm1.6 1.4c.8 0 1.2-.6 1.2-1.4c0-.7-.4-1.4-1.2-1.4c-.7 0-1.1.7-1.1 1.4c0 .8.4 1.4 1.1 1.4zm7.6.4l-.6-1.4h-2.5l-.5 1.4h-.5l2-4.9h.6l2 4.9h-.5zm-2.9-1.8h2.2l-1.1-2.7l-1.1 2.7zm3.8-.7c0-1.4.8-2.5 2.2-2.5c1.1 0 1.8.7 1.9 1.6h-.5c-.1-.6-.5-1.2-1.3-1.2h-.1c-1.1 0-1.7 1-1.7 2.1c0 1.1.6 2.1 1.7 2.1h.1c.8 0 1.2-.6 1.3-1.1h.5c-.1.9-.8 1.5-1.9 1.5c-1.4 0-2.2-1.1-2.2-2.5zm8.5-2.4h.5v4.9h-.6l-2.7-4.3v4.3h-.5v-4.9h.6l2.7 4.1v-4.1zm3.9 0h.4v4.9h-.5v-4.2l-1.1 1.1v-.6l1.2-1.2zm1.4 3.6h.5c.1.6.6.9 1.2.9c.7 0 1.2-.5 1.2-1.2c0-.6-.5-1.1-1.1-1.1h-.1c-.3 0-.8.2-1 .6h-.5l.6-2.8h2.5v.4h-2.1l-.4 1.8c.3-.3.6-.4 1-.4c.9 0 1.5.6 1.5 1.5c0 1-.7 1.6-1.6 1.6c-.9 0-1.6-.4-1.7-1.3zm4.6.8h2.6v.5h-3.1v-.5l1.9-2c.6-.6.7-.8.7-1.2c0-.5-.5-.9-1-.9h-.1c-.6 0-1 .5-1 1.1h-.5c0-.9.6-1.5 1.5-1.5c.9 0 1.6.5 1.6 1.3c0 .6-.3 1-.8 1.4c.03 0-1.8 1.8-1.8 1.8zm5.2 0h2.6v.5h-3.2v-.5s1.97-2.03 2-2c.5-.6.6-.8.6-1.2c0-.5-.4-.9-1-.9c-.7 0-1.1.5-1.1 1.1h-.4c0-.9.6-1.5 1.5-1.5c.9 0 1.5.5 1.5 1.3c0 .6-.3 1-.7 1.4c-.02 0-1.8 1.8-1.8 1.8zm4.6-4.4h.3v4.9h-.4v-4.2l-1.2 1.1v-.6l1.3-1.2zm2 4.4h2.6v.5h-3.2v-.5s1.95-2.03 2-2c.5-.6.6-.8.6-1.2c0-.5-.4-.9-1-.9c-.7 0-1.1.5-1.1 1.1h-.5c0-.9.7-1.5 1.6-1.5c.9 0 1.5.5 1.5 1.3c0 .6-.3 1-.7 1.4c-.04 0-1.8 1.8-1.8 1.8zm4.7-.8c0-.6.4-1 .8-1.1c-.5-.2-.9-.6-.9-1.2c0-.9.6-1.4 1.6-1.4c.9 0 1.5.5 1.5 1.4c0 .6-.4 1-.9 1.2c.4.1.8.5.8 1.1c0 .8-.6 1.3-1.4 1.3c-.9 0-1.5-.5-1.5-1.3zm1.5-1.4c.6 0 1-.4 1-.9c0-.6-.4-1-1-1h-.1c-.6 0-1 .4-1 1c0 .5.4.9 1 .9h.1zm0 2.3c.5 0 .9-.4.9-.9c0-.5-.4-.9-.9-.9h-.1c-.5 0-.9.4-.9.9c0 .5.4.9.9.9h.1zm2.4-2.1c0-1.6.7-2.5 1.9-2.5c1.1 0 1.8.9 1.8 2.5c0 1.7-.7 2.5-1.8 2.5c-1.2 0-1.9-.8-1.9-2.5zm1.9 2.1c.6 0 1.4-.5 1.4-2.1c0-1.6-.8-2.1-1.4-2.1h-.1c-.6 0-1.3.5-1.3 2.1c0 1.6.7 2.1 1.3 2.1h.1zm6.2-2.2c0 1.5-.8 2.6-2 2.6c-.8 0-1.4-.4-1.5-1.2h.5c.1.5.5.8 1 .8h.1c.8 0 1.4-.9 1.4-2.2c-.2.6-.8.9-1.4.9c-.9 0-1.5-.7-1.5-1.6c0-1.1.7-1.7 1.6-1.7c1.1 0 1.8.9 1.8 2.4zm-1.8.4c.7 0 1.2-.5 1.2-1.2c0-.6-.5-1.2-1.2-1.2h-.1c-.6 0-1.1.5-1.1 1.2c0 .7.5 1.2 1.1 1.2h.1zm2.6 2.2v-.7h.7v.7h-.7z" stroke="none" fill="#dcddce"/></g><g id="Polygon23267"><path d="m9.7 24.5c0-.8.7-1 1.2-1.1c.01.04 1.1 0 1.1 0v-.2c0-.6-.3-.9-.9-.9c-.4 0-.8.2-.9.6h-.4c0-.6.6-1 1.3-1c.9 0 1.4.6 1.4 1.3v2.3h-.4c0-.2-.1-.4-.1-.6c-.1.3-.6.6-1.2.6c-.6 0-1.1-.4-1.1-1zm1.2.6c.5 0 1.1-.4 1.1-.9v-.5l-1 .1c-.5 0-.8.3-.8.7c0 .4.3.6.7.6zm2.5-.7h.4c.1.5.4.7.9.7h.1c.5 0 .8-.2.8-.6c0-.3-.2-.4-.6-.5l-.6-.1c-.5-.1-.9-.4-.9-1c0-.6.6-1 1.2-1c.9 0 1.3.5 1.4 1.1h-.5c0-.4-.3-.7-.8-.7h-.1c-.5 0-.7.3-.7.6c0 .3.1.4.6.5l.5.2c.5.1.9.3.9.9c0 .6-.5 1-1.3 1c-.9 0-1.3-.4-1.3-1.1zm4.6.1c0-.8.7-1 1.2-1.1c.03.04 1.1 0 1.1 0c0 0 .04-.18 0-.2c0-.6-.3-.9-.8-.9h-.1c-.4 0-.8.2-.9.6h-.4c0-.6.6-1 1.3-1c.9 0 1.4.6 1.4 1.3v2.3h-.4v-.6c-.2.3-.7.6-1.3.6c-.6 0-1.1-.4-1.1-1zm1.3.6c.4 0 1-.4 1-.9c.04 0 0-.5 0-.5l-1 .1c-.5 0-.8.3-.8.7c0 .4.3.6.7.6h.1zm3.6.8h.4c.1.5.5.7 1.1.7h.1c.6 0 1.1-.3 1.1-1.2v-.6c-.2.4-.6.7-1.2.7c-.8 0-1.5-.7-1.5-1.8c0-1.1.7-1.8 1.5-1.8c.6 0 1 .2 1.2.6v-.5h.5s-.05 3.43 0 3.4c0 .9-.6 1.6-1.7 1.6c-1 0-1.5-.4-1.5-1.1zm1.6-.8c.7 0 1.1-.5 1.1-1.4c0-.9-.4-1.4-1.1-1.4c-.7 0-1.1.5-1.1 1.4c0 .9.4 1.4 1.1 1.4zm2.7-.8V22h.5s-.05 2.13 0 2.1c0 .7.2 1 .8 1h.1c.5 0 1-.4 1-1.3c-.02.05 0-1.8 0-1.8h.4v3.5h-.4s-.02-.7 0-.7c-.2.5-.6.7-1.2.7c-.8 0-1.2-.5-1.2-1.2zm4-3v-.6h.5v.6h-.5zm0 4.2V22h.5v3.5h-.5zm1.4-1.8c0-1.1.7-1.8 1.6-1.8c.4 0 .9.2 1.2.6c-.05.02 0-1.9 0-1.9h.4v4.9h-.4s-.05-.6 0-.6c-.3.4-.8.6-1.2.6c-.9 0-1.6-.7-1.6-1.8zm1.6 1.4c.8 0 1.2-.6 1.2-1.4c0-.7-.4-1.4-1.2-1.4c-.8 0-1.1.7-1.1 1.4c0 .8.3 1.4 1.1 1.4zm2.6-1.4c0-1.2.7-1.8 1.5-1.8c.9 0 1.5.7 1.5 1.6c-.04-.03 0 .2 0 .2c0 0-2.56.04-2.6 0c.1 1 .6 1.4 1.1 1.4h.1c.5 0 .8-.2.9-.6h.5c-.2.7-.7 1-1.5 1c-.8 0-1.5-.6-1.5-1.8zm2.5-.3c0-.7-.4-1.1-.9-1.1h-.1c-.4 0-.9.2-1 1.1h2zm2.4.3c0-1.1.7-1.8 1.6-1.8c.9 0 1.6.7 1.6 1.8c0 1.1-.7 1.8-1.6 1.8c-.9 0-1.6-.7-1.6-1.8zm1.7 1.4c.6 0 1.1-.5 1.1-1.4c0-.9-.5-1.4-1.1-1.4h-.1c-.6 0-1.1.5-1.1 1.4c0 .9.5 1.4 1.1 1.4h.1zm2.5.4V22h.5s-.04.55 0 .5c.2-.3.6-.6 1.2-.6c.7 0 1.2.4 1.2 1.3v2.3h-.4s-.04-2.19 0-2.2c0-.7-.3-1-.9-1c-.8 0-1.1.7-1.1 1.4c-.04.01 0 1.8 0 1.8h-.5zm4.1 0v-4.9h.4v4.9h-.4zm4.6-3.5l-1.5 3.3s.04.71 0 .7c0 .4-.2.6-.6.6c-.03.01-1.1 0-1.1 0v-.4s1 .03 1 0c.2 0 .3 0 .3-.2c-.02-.05 0-.6 0-.6L51.2 22h.5l1.2 2.8l1.2-2.8h.5zm.3 3.5v-.7h.7v.7h-.7zm4.3 0V21h-1.7v-.4h4v.4h-1.8v4.5h-.5zm3.1 0v-4.9h.5s-.04 1.95 0 2c.2-.5.6-.7 1.2-.7c.8 0 1.2.5 1.2 1.2v2.4h-.4s-.04-2.21 0-2.2c0-.7-.3-1-.9-1h-.1c-.5 0-1 .5-1 1.3c-.04-.03 0 1.9 0 1.9h-.5zm3.9-1.8c0-1.2.7-1.8 1.5-1.8c.9 0 1.4.7 1.4 1.6c.04-.03 0 .2 0 .2c0 0-2.48.04-2.5 0c0 1 .5 1.4 1.1 1.4h.1c.4 0 .7-.2.9-.6h.4c-.1.7-.7 1-1.4 1c-.9 0-1.5-.6-1.5-1.8zm2.5-.3c0-.7-.4-1.1-.9-1.1h-.1c-.5 0-1 .2-1.1 1.1h2.1zm2.6-2.1v-.6h.5v.6h-.5zm0 4.2V22h.5v3.5h-.5zm1.6 0V22h.5s-.02.55 0 .5c.2-.3.6-.6 1.2-.6c.7 0 1.2.4 1.2 1.3c.03-.03 0 2.3 0 2.3h-.4s-.02-2.19 0-2.2c0-.7-.3-1-.9-1c-.8 0-1.1.7-1.1 1.4c-.02.01 0 1.8 0 1.8h-.5zm4.4 0v-3.2h-.8v-.3h.8s.03-.81 0-.8c0-.5.2-.6.7-.6c0-.04.9 0 .9 0v.3s-.83.04-.8 0c-.2 0-.3.1-.3.3v.8h.9v.3h-.9v3.2h-.5zm1.9-1.8c0-1.1.7-1.8 1.6-1.8c.9 0 1.6.7 1.6 1.8c0 1.1-.7 1.8-1.6 1.8c-.9 0-1.6-.7-1.6-1.8zm1.6 1.4c.7 0 1.1-.5 1.1-1.4c0-.9-.4-1.4-1.1-1.4c-.7 0-1.2.5-1.2 1.4c0 .9.5 1.4 1.2 1.4zm2.6.4V22h.4s-.02.76 0 .8c.1-.6.6-.9 1.1-.9c-.03.03.3 0 .3 0v.4s-.3.04-.3 0c-.7 0-1.1.6-1.1 1.5c.02-.04 0 1.7 0 1.7h-.4zm2.6 0V22h.4v.5c.2-.3.6-.6 1.2-.6c.5 0 .9.2 1.1.7c.2-.5.6-.7 1.2-.7c.7 0 1.2.4 1.2 1.3v2.3h-.5s.05-2.19 0-2.2c0-.7-.2-1-.8-1c-.7 0-1 .7-1 1.4c-.04.01 0 1.8 0 1.8h-.5v-2.2c0-.7-.3-1-.8-1c-.8 0-1.1.7-1.1 1.4c.01.01 0 1.8 0 1.8h-.4zm6.1-1c0-.8.6-1 1.2-1.1c-.04.04 1.1 0 1.1 0c0 0-.04-.18 0-.2c0-.6-.4-.9-.9-.9c-.5 0-.9.2-.9.6h-.5c.1-.6.6-1 1.4-1c.9 0 1.3.6 1.3 1.3v1.5c0 .2 0 .5.1.8h-.5v-.6c-.1.3-.6.6-1.2.6c-.7 0-1.1-.4-1.1-1zm1.2.6c.5 0 1.1-.4 1.1-.9c-.04 0 0-.5 0-.5l-1.1.1c-.5 0-.8.3-.8.7c0 .4.3.6.7.6h.1zm3.6.4c-.4 0-.6-.2-.6-.7c-.03.03 0-2.5 0-2.5h-.8v-.3h.8v-1.2h.4v1.2h.9v.3h-.9s.03 2.5 0 2.5c0 .2.1.3.3.3c.01-.02.7 0 .7 0v.4s-.76-.04-.8 0zm1.6-4.2v-.6h.5v.6h-.5zm0 4.2V22h.4v3.5h-.4zm1.4-1.8c0-1.1.7-1.8 1.6-1.8c.9 0 1.6.7 1.6 1.8c0 1.1-.7 1.8-1.6 1.8c-.9 0-1.6-.7-1.6-1.8zm1.6 1.4c.7 0 1.2-.5 1.2-1.4c0-.9-.5-1.4-1.2-1.4c-.7 0-1.1.5-1.1 1.4c0 .9.4 1.4 1.1 1.4zm2.6.4V22h.4s.04.55 0 .5c.2-.3.7-.6 1.3-.6c.7 0 1.2.4 1.2 1.3v2.3h-.5s.04-2.19 0-2.2c0-.7-.2-1-.8-1c-.8 0-1.2.7-1.2 1.4c.04.01 0 1.8 0 1.8h-.4zm3.8.8v-.3h.2c.3 0 .4-.2.4-.4v-.1h-.4v-.7h.7s.02.8 0 .8c0 .4-.2.7-.6.7c-.05-.04-.3 0-.3 0zm3-2.6c0-1.1.7-1.8 1.6-1.8c.4 0 .9.2 1.1.6c.05.02 0-1.9 0-1.9h.5v4.9h-.5s.05-.6 0-.6c-.2.4-.7.6-1.1.6c-.9 0-1.6-.7-1.6-1.8zm1.6 1.4c.8 0 1.1-.6 1.1-1.4c0-.7-.3-1.4-1.1-1.4c-.8 0-1.1.7-1.1 1.4c0 .8.3 1.4 1.1 1.4zm2.7-3.8v-.6h.6v.6h-.6zm.1 4.2V22h.4v3.5h-.4zm1.6 0V22h.4s.04.52 0 .5c.2-.3.7-.6 1.2-.6c.5 0 .9.2 1.1.7c.2-.5.7-.7 1.2-.7c.7 0 1.2.4 1.2 1.3c.03-.03 0 2.3 0 2.3h-.4s-.03-2.19 0-2.2c0-.7-.3-1-.8-1h-.1c-.7 0-1 .7-1 1.4c-.02.01 0 1.8 0 1.8h-.5s.03-2.19 0-2.2c0-.7-.2-1-.8-1c-.7 0-1.1.7-1.1 1.4c.04.01 0 1.8 0 1.8h-.4zm6.1-1.8c0-1.2.7-1.8 1.5-1.8c.9 0 1.5.7 1.5 1.6c-.04-.03 0 .2 0 .2c0 0-2.56.04-2.6 0c.1 1 .6 1.4 1.1 1.4h.1c.5 0 .8-.2.9-.6h.5c-.2.7-.7 1-1.5 1c-.8 0-1.5-.6-1.5-1.8zm2.5-.3c0-.7-.4-1.1-.9-1.1h-.1c-.4 0-.9.2-1 1.1h2zm1.5 2.1V22h.4v.5c.2-.3.7-.6 1.2-.6c.7 0 1.3.4 1.3 1.3c-.04-.03 0 2.3 0 2.3h-.5v-2.2c0-.7-.3-1-.8-1h-.1c-.7 0-1.1.7-1.1 1.4c.01.01 0 1.8 0 1.8h-.4zm3.7-1.1h.5c0 .5.4.7.9.7h.1c.5 0 .8-.2.8-.6c0-.3-.2-.4-.7-.5l-.5-.1c-.5-.1-.9-.4-.9-1c0-.6.6-1 1.2-1c.9 0 1.3.5 1.3 1.1h-.4c0-.4-.3-.7-.8-.7h-.1c-.5 0-.8.3-.8.6c0 .3.2.4.7.5l.5.2c.5.1.9.3.9.9c0 .6-.5 1-1.3 1c-.9 0-1.3-.4-1.4-1.1zm3.7-3.1v-.6h.5v.6h-.5zm0 4.2V22h.5v3.5h-.5zm1.4-1.8c0-1.1.7-1.8 1.6-1.8c.9 0 1.7.7 1.7 1.8c0 1.1-.8 1.8-1.7 1.8c-.9 0-1.6-.7-1.6-1.8zm1.7 1.4c.6 0 1.1-.5 1.1-1.4c0-.9-.5-1.4-1.1-1.4h-.1c-.6 0-1.1.5-1.1 1.4c0 .9.5 1.4 1.1 1.4h.1zm2.5.4V22h.5s-.03.55 0 .5c.2-.3.6-.6 1.2-.6c.7 0 1.2.4 1.2 1.3c.02-.03 0 2.3 0 2.3h-.4s-.03-2.19 0-2.2c0-.7-.3-1-.9-1c-.8 0-1.1.7-1.1 1.4c-.03.01 0 1.8 0 1.8h-.5zm3.8-1.1h.5c0 .5.4.7.9.7c.5 0 .8-.2.8-.6c0-.3-.1-.4-.6-.5l-.5-.1c-.5-.1-1-.4-1-1c0-.6.6-1 1.3-1c.9 0 1.3.5 1.3 1.1h-.4c-.1-.4-.4-.7-.9-.7c-.5 0-.8.3-.8.6c0 .3.2.4.6.5l.6.2c.5.1.9.3.9.9c0 .6-.5 1-1.3 1c-.9 0-1.4-.4-1.4-1.1zm3.4 1.9v-.3h.2c.3 0 .4-.2.4-.4c.04-.04 0-.1 0-.1h-.3v-.7h.7s-.05.8 0 .8c0 .4-.3.7-.7.7c-.01-.04-.3 0-.3 0zm3-1.9h.4c.1.5.5.7.9.7h.1c.5 0 .8-.2.8-.6c0-.3-.1-.4-.6-.5l-.5-.1c-.5-.1-1-.4-1-1c0-.6.6-1 1.3-1c.9 0 1.3.5 1.3 1.1h-.5c0-.4-.3-.7-.8-.7h-.1c-.4 0-.7.3-.7.6c0 .3.2.4.6.5l.6.2c.5.1.9.3.9.9c0 .6-.5 1-1.3 1c-.9 0-1.4-.4-1.4-1.1zm3.7 2.5V22h.4s.03.52 0 .5c.2-.4.7-.6 1.2-.6c.9 0 1.6.7 1.6 1.8c0 1.1-.7 1.8-1.6 1.8c-.5 0-1-.2-1.2-.6c.03 0 0 2 0 2h-.4zm1.6-1.8c.7 0 1.1-.6 1.1-1.4c0-.7-.4-1.4-1.1-1.4c-.8 0-1.2.7-1.2 1.4c0 .8.4 1.4 1.2 1.4zm2.4-1.4c0-1.2.7-1.8 1.5-1.8c.9 0 1.4.7 1.4 1.6c.03-.03 0 .2 0 .2c0 0-2.49.04-2.5 0c0 1 .5 1.4 1.1 1.4h.1c.4 0 .7-.2.9-.6h.4c-.1.7-.7 1-1.4 1c-.9 0-1.5-.6-1.5-1.8zm2.5-.3c0-.7-.4-1.1-1-1.1c-.5 0-1 .2-1.1 1.1h2.1zm1.2.3c0-1 .6-1.8 1.6-1.8c.8 0 1.3.4 1.4 1.2h-.4c-.1-.5-.5-.8-.9-.8h-.1c-.8 0-1.1.6-1.1 1.4c0 .8.3 1.4 1.1 1.4h.1c.4 0 .8-.3.9-.8h.4c-.1.8-.6 1.2-1.4 1.2c-1 0-1.6-.8-1.6-1.8zm3.9-2.4v-.6h.5v.6h-.5zm.1 4.2V22h.4v3.5h-.4zm2 0v-3.2h-.8v-.3h.8s.02-.81 0-.8c0-.5.2-.6.7-.6c-.02-.04.9 0 .9 0v.3s-.85.04-.8 0c-.3 0-.3.1-.3.3c-.03.02 0 .8 0 .8h2.3v3.5h-.4v-3.2h-1.9v3.2h-.5zm2.3-4.2v-.6h.6v.6h-.6zm1.5 2.4c0-1 .6-1.8 1.6-1.8c.8 0 1.3.4 1.4 1.2h-.5c0-.5-.4-.8-.8-.8h-.1c-.8 0-1.1.6-1.1 1.4c0 .8.3 1.4 1.1 1.4h.1c.4 0 .7-.3.8-.8h.5c-.1.8-.6 1.2-1.4 1.2c-1 0-1.6-.8-1.6-1.8zm3.8.8c0-.8.6-1 1.2-1.1c-.04.04 1.1 0 1.1 0c0 0-.03-.18 0-.2c0-.6-.4-.9-.9-.9c-.5 0-.9.2-.9.6h-.5c.1-.6.6-1 1.4-1c.9 0 1.3.6 1.3 1.3v1.5c0 .2 0 .5.1.8h-.5v-.6c-.1.3-.6.6-1.2.6c-.7 0-1.1-.4-1.1-1zm1.2.6c.5 0 1.1-.4 1.1-.9c-.03 0 0-.5 0-.5l-1 .1c-.5 0-.9.3-.9.7c0 .4.3.6.7.6h.1zm3.6.4c-.4 0-.6-.2-.6-.7c-.02.03 0-2.5 0-2.5h-.8v-.3h.8v-1.2h.4v1.2h.9v.3h-.9s.03 2.5 0 2.5c0 .2.1.3.3.3c.01-.02.7 0 .7 0v.4s-.76-.04-.8 0zm1.6-4.2v-.6h.5v.6h-.5zm0 4.2V22h.5v3.5h-.5zm1.4-1.8c0-1.1.7-1.8 1.6-1.8c.9 0 1.6.7 1.6 1.8c0 1.1-.7 1.8-1.6 1.8c-.9 0-1.6-.7-1.6-1.8zm1.7 1.4c.6 0 1.1-.5 1.1-1.4c0-.9-.5-1.4-1.1-1.4h-.1c-.6 0-1.1.5-1.1 1.4c0 .9.5 1.4 1.1 1.4h.1zm2.5.4V22h.4s.05.55 0 .5c.2-.3.7-.6 1.3-.6c.7 0 1.2.4 1.2 1.3v2.3h-.5s.04-2.19 0-2.2c0-.7-.2-1-.8-1c-.8 0-1.2.7-1.2 1.4c.05.01 0 1.8 0 1.8h-.4zm3.8-1.1h.4c.1.5.5.7.9.7h.1c.5 0 .8-.2.8-.6c0-.3-.1-.4-.6-.5l-.5-.1c-.5-.1-1-.4-1-1c0-.6.6-1 1.3-1c.8 0 1.3.5 1.3 1.1h-.5c0-.4-.3-.7-.8-.7h-.1c-.5 0-.7.3-.7.6c0 .3.2.4.6.5l.6.2c.5.1.9.3.9.9c0 .6-.6 1-1.3 1c-.9 0-1.4-.4-1.4-1.1zm3.4 1.9v-.3h.2c.3 0 .4-.2.4-.4v-.1h-.4v-.7h.7s.03.8 0 .8c0 .4-.2.7-.6.7c-.04-.04-.3 0-.3 0zm3.2-5v-.6h.5v.6h-.5zm0 4.2V22h.5v3.5h-.5zm1.7 0V22h.4v.5c.2-.3.7-.6 1.2-.6c.7 0 1.3.4 1.3 1.3c-.04-.03 0 2.3 0 2.3h-.5v-2.2c0-.7-.3-1-.8-1h-.1c-.7 0-1.1.7-1.1 1.4c.01.01 0 1.8 0 1.8h-.4zm3.8-1.8c0-1 .6-1.8 1.6-1.8c.8 0 1.3.4 1.4 1.2h-.5c0-.5-.4-.8-.8-.8h-.1c-.8 0-1.1.6-1.1 1.4c0 .8.3 1.4 1.1 1.4h.1c.4 0 .7-.3.8-.8h.5c-.1.8-.6 1.2-1.4 1.2c-1 0-1.6-.8-1.6-1.8zm3.9 1.8v-4.9h.5v4.9h-.5zm1.6-1.2c.03-.03 0-2.3 0-2.3h.5s-.02 2.13 0 2.1c0 .7.3 1 .8 1h.1c.5 0 1-.4 1-1.3c.01.05 0-1.8 0-1.8h.5v3.5h-.5v-.7c-.2.5-.6.7-1.2.7c-.7 0-1.2-.5-1.2-1.2zm3.8.1h.4c.1.5.5.7.9.7h.1c.5 0 .8-.2.8-.6c0-.3-.1-.4-.6-.5l-.5-.1c-.5-.1-1-.4-1-1c0-.6.6-1 1.3-1c.9 0 1.3.5 1.3 1.1h-.5c0-.4-.3-.7-.8-.7h-.1c-.4 0-.7.3-.7.6c0 .3.2.4.6.5l.6.2c.5.1.9.3.9.9c0 .6-.6 1-1.3 1c-.9 0-1.4-.4-1.4-1.1zm3.6-3.1v-.6h.6v.6h-.6zm.1 4.2V22h.4v3.5h-.4zm1.4-1.8c0-1.1.7-1.8 1.6-1.8c.9 0 1.6.7 1.6 1.8c0 1.1-.7 1.8-1.6 1.8c-.9 0-1.6-.7-1.6-1.8zm1.6 1.4c.7 0 1.1-.5 1.1-1.4c0-.9-.4-1.4-1.1-1.4c-.7 0-1.2.5-1.2 1.4c0 .9.5 1.4 1.2 1.4zm2.6.4V22h.4s.02.55 0 .5c.2-.3.7-.6 1.2-.6c.7 0 1.3.4 1.3 1.3c-.03-.03 0 2.3 0 2.3h-.5s.01-2.19 0-2.2c0-.7-.3-1-.8-1h-.1c-.7 0-1.1.7-1.1 1.4c.02.01 0 1.8 0 1.8h-.4zm3.8-1.1h.4c.1.5.4.7.9.7h.1c.5 0 .8-.2.8-.6c0-.3-.2-.4-.6-.5l-.6-.1c-.5-.1-.9-.4-.9-1c0-.6.6-1 1.2-1c.9 0 1.3.5 1.4 1.1h-.5c0-.4-.3-.7-.8-.7h-.1c-.5 0-.8.3-.8.6c0 .3.2.4.7.5l.5.2c.5.1.9.3.9.9c0 .6-.5 1-1.3 1c-.9 0-1.3-.4-1.3-1.1zm3.4 1.9v-.3h.2c.2 0 .4-.2.4-.4c-.02-.04 0-.1 0-.1h-.4v-.7h.7v.8c0 .4-.2.7-.7.7c.03-.04-.2 0-.2 0zm3.2-.8v-4.9h.5v4.9h-.5zm1.4-1c0-.8.7-1 1.3-1.1c-.05.04 1.1 0 1.1 0c0 0-.04-.18 0-.2c0-.6-.4-.9-.9-.9h-.1c-.4 0-.8.2-.8.6h-.5c.1-.6.6-1 1.4-1c.9 0 1.3.6 1.3 1.3v2.3h-.4v-.6c-.1.3-.6.6-1.2.6c-.7 0-1.2-.4-1.2-1zm1.3.6c.5 0 1.1-.4 1.1-.9c-.04 0 0-.5 0-.5l-1.1.1c-.5 0-.8.3-.8.7c0 .4.3.6.7.6h.1zm2.6.4V22h.5v.5c.2-.3.7-.6 1.2-.6c.7 0 1.3.4 1.3 1.3c-.05-.03 0 2.3 0 2.3h-.5v-2.2c0-.7-.3-1-.8-1h-.1c-.7 0-1.1.7-1.1 1.4v1.8h-.5zm3.9-1.8c0-1.1.7-1.8 1.6-1.8c.4 0 .9.2 1.1.6c.04.02 0-1.9 0-1.9h.5v4.9h-.5s.04-.6 0-.6c-.2.4-.7.6-1.1.6c-.9 0-1.6-.7-1.6-1.8zm1.6 1.4c.8 0 1.1-.6 1.1-1.4c0-.7-.3-1.4-1.1-1.4c-.8 0-1.1.7-1.1 1.4c0 .8.3 1.4 1.1 1.4zm2.5-.7h.5c0 .5.4.7.9.7c.5 0 .8-.2.8-.6c0-.3-.1-.4-.6-.5l-.5-.1c-.5-.1-.9-.4-.9-1c0-.6.5-1 1.2-1c.9 0 1.3.5 1.3 1.1h-.4c-.1-.4-.4-.7-.9-.7c-.5 0-.8.3-.8.6c0 .3.2.4.6.5l.6.2c.5.1.9.3.9.9c0 .6-.5 1-1.3 1c-.9 0-1.3-.4-1.4-1.1zm3.5-.7c0-1 .6-1.8 1.6-1.8c.8 0 1.3.4 1.4 1.2h-.5c-.1-.5-.4-.8-.9-.8c-.8 0-1.2.6-1.2 1.4c0 .8.4 1.4 1.2 1.4c.5 0 .8-.3.9-.8h.5c-.2.8-.6 1.2-1.4 1.2c-1 0-1.6-.8-1.6-1.8zm3.7.8c0-.8.7-1 1.2-1.1c.04.04 1.1 0 1.1 0c0 0 .05-.18 0-.2c0-.6-.3-.9-.8-.9h-.1c-.4 0-.8.2-.8.6h-.5c0-.6.6-1 1.4-1c.9 0 1.3.6 1.3 1.3v2.3h-.4v-.6c-.2.3-.6.6-1.3.6c-.6 0-1.1-.4-1.1-1zm1.3.6c.4 0 1-.4 1-.9c.05 0 0-.5 0-.5l-1 .1c-.5 0-.8.3-.8.7c0 .4.3.6.7.6h.1zm2.6 1.8V22h.5v.5c.2-.4.7-.6 1.2-.6c.9 0 1.5.7 1.5 1.8c0 1.1-.6 1.8-1.5 1.8c-.5 0-1-.2-1.2-.6v2h-.5zm1.6-1.8c.8 0 1.2-.6 1.2-1.4c0-.7-.4-1.4-1.2-1.4c-.7 0-1.1.7-1.1 1.4c0 .8.4 1.4 1.1 1.4zm2.6-3.8v-.6h.5v.6h-.5zm0 4.2V22h.5v3.5h-.5zm1.6 0V22h.5s-.03.55 0 .5c.2-.3.6-.6 1.2-.6c.7 0 1.2.4 1.2 1.3c.02-.03 0 2.3 0 2.3h-.4s-.04-2.19 0-2.2c0-.7-.3-1-.9-1c-.8 0-1.1.7-1.1 1.4c-.03.01 0 1.8 0 1.8h-.5zm3.8.4h.4c.1.5.5.7 1.1.7h.1c.6 0 1.1-.3 1.1-1.2v-.6c-.2.4-.6.7-1.1.7c-.9 0-1.5-.7-1.5-1.8c0-1.1.6-1.8 1.5-1.8c.5 0 .9.2 1.1.6c.03.02 0-.5 0-.5h.5s-.02 3.43 0 3.4c0 .9-.6 1.6-1.6 1.6c-1 0-1.5-.4-1.6-1.1zm1.7-.8c.6 0 1-.5 1-1.4c0-.9-.4-1.4-1-1.4h-.1c-.6 0-1.1.5-1.1 1.4c0 .9.5 1.4 1.1 1.4h.1zm3.7-.6c0-.8.6-1 1.2-1.1c-.04.04 1.1 0 1.1 0c0 0-.03-.18 0-.2c0-.6-.4-.9-.9-.9c-.5 0-.9.2-.9.6h-.5c.1-.6.6-1 1.4-1c.9 0 1.3.6 1.3 1.3v1.5c0 .2 0 .5.1.8h-.5v-.6c-.1.3-.6.6-1.2.6c-.6 0-1.1-.4-1.1-1zm1.2.6c.5 0 1.1-.4 1.1-.9c-.03 0 0-.5 0-.5l-1 .1c-.5 0-.9.3-.9.7c0 .4.3.6.7.6h.1zm2.7.4V22h.4s.02.55 0 .5c.2-.3.7-.6 1.2-.6c.7 0 1.3.4 1.3 1.3c-.03-.03 0 2.3 0 2.3h-.5s.01-2.19 0-2.2c0-.7-.3-1-.8-1h-.1c-.7 0-1.1.7-1.1 1.4c.02.01 0 1.8 0 1.8h-.4zm3.8-1.8c0-1.1.7-1.8 1.6-1.8c.4 0 .9.2 1.1.6c.05.02 0-1.9 0-1.9h.5v4.9h-.5s.05-.6 0-.6c-.2.4-.7.6-1.1.6c-.9 0-1.6-.7-1.6-1.8zm1.6 1.4c.8 0 1.1-.6 1.1-1.4c0-.7-.3-1.4-1.1-1.4c-.8 0-1.1.7-1.1 1.4c0 .8.3 1.4 1.1 1.4zm4 .4V22h.4s.04.52 0 .5c.2-.3.7-.6 1.2-.6c.5 0 .9.2 1.1.7c.2-.5.7-.7 1.2-.7c.7 0 1.2.4 1.2 1.3c.03-.03 0 2.3 0 2.3h-.4s-.03-2.19 0-2.2c0-.7-.3-1-.8-1h-.1c-.7 0-1 .7-1 1.4c-.02.01 0 1.8 0 1.8h-.5s.03-2.19 0-2.2c0-.7-.2-1-.8-1c-.7 0-1.1.7-1.1 1.4c.04.01 0 1.8 0 1.8h-.4zm6.1-1c0-.8.6-1 1.2-1.1c-.02.04 1.1 0 1.1 0v-.2c0-.6-.3-.9-.9-.9c-.5 0-.8.2-.9.6h-.4c0-.6.5-1 1.3-1c.9 0 1.3.6 1.3 1.3v1.5c0 .2 0 .5.1.8h-.4c-.1-.2-.1-.4-.1-.6c-.1.3-.6.6-1.2.6c-.6 0-1.1-.4-1.1-1zm1.2.6c.5 0 1.1-.4 1.1-.9v-.5l-1 .1c-.5 0-.9.3-.9.7c0 .4.3.6.7.6h.1zm3.7.4c-.5 0-.7-.2-.7-.7v-2.5h-.8v-.3h.8v-1.2h.5v1.2h.8v.3h-.8s-.04 2.5 0 2.5c0 .2 0 .3.2.3c.04-.02.7 0 .7 0v.4s-.73-.04-.7 0zm1.2-1.8c0-1.2.8-1.8 1.6-1.8c.8 0 1.4.7 1.4 1.6v.2s-2.51.04-2.5 0c0 1 .5 1.4 1.1 1.4c.5 0 .8-.2.9-.6h.5c-.2.7-.7 1-1.4 1c-.9 0-1.6-.6-1.6-1.8zm2.6-.3c-.1-.7-.4-1.1-1-1.1c-.5 0-1 .2-1.1 1.1h2.1zm1.4 2.1V22h.4s.02.76 0 .8c.2-.6.6-.9 1.1-.9c.01.03.3 0 .3 0v.4s-.26.04-.3 0c-.6 0-1 .6-1 1.5c-.04-.04 0 1.7 0 1.7h-.5zm2.6-4.2v-.6h.5v.6h-.5zm0 4.2V22h.4v3.5h-.4zm1.4-1c0-.8.7-1 1.2-1.1c.03.04 1.1 0 1.1 0c0 0 .03-.18 0-.2c0-.6-.3-.9-.8-.9h-.1c-.4 0-.8.2-.9.6h-.4c0-.6.6-1 1.3-1c.9 0 1.4.6 1.4 1.3v2.3h-.4v-.6c-.2.3-.7.6-1.3.6c-.6 0-1.1-.4-1.1-1zm1.2.6c.5 0 1.1-.4 1.1-.9c.03 0 0-.5 0-.5l-1 .1c-.5 0-.8.3-.8.7c0 .4.3.6.7.6zm2.7.4v-4.9h.5v4.9h-.5zm1.4-1.1h.5c0 .5.4.7.9.7c.5 0 .8-.2.8-.6c0-.3-.1-.4-.6-.5l-.5-.1c-.5-.1-1-.4-1-1c0-.6.6-1 1.3-1c.9 0 1.3.5 1.3 1.1h-.4c-.1-.4-.4-.7-.9-.7c-.5 0-.8.3-.8.6c0 .3.2.4.6.5l.6.2c.5.1.9.3.9.9c0 .6-.5 1-1.3 1c-.9 0-1.4-.4-1.4-1.1zm4.9 1.1V22h.4s.02.52 0 .5c.2-.3.6-.6 1.2-.6c.5 0 .9.2 1.1.7c.2-.5.7-.7 1.2-.7c.7 0 1.2.4 1.2 1.3v2.3h-.4s-.04-2.19 0-2.2c0-.7-.3-1-.8-1h-.1c-.7 0-1 .7-1 1.4c-.03.01 0 1.8 0 1.8h-.5s.01-2.19 0-2.2c0-.7-.3-1-.8-1c-.7 0-1.1.7-1.1 1.4c.02.01 0 1.8 0 1.8h-.4zm6.1-1c0-.8.6-1 1.2-1.1c-.03.04 1.1 0 1.1 0c0 0-.02-.18 0-.2c0-.6-.4-.9-.9-.9c-.5 0-.9.2-.9.6h-.5c.1-.6.6-1 1.4-1c.9 0 1.3.6 1.3 1.3v1.5c0 .2 0 .5.1.8h-.5v-.6c-.1.3-.6.6-1.2.6c-.6 0-1.1-.4-1.1-1zm1.2.6c.5 0 1.1-.4 1.1-.9c-.02 0 0-.5 0-.5l-1 .1c-.5 0-.9.3-.9.7c0 .4.3.6.7.6h.1zM328 22l-1.4 3.3s-.02.71 0 .7c0 .4-.2.6-.7.6h-1v-.4s.95.03.9 0c.3 0 .3 0 .3-.2c.03-.05 0-.6 0-.6l-1.5-3.4h.5l1.2 2.8l1.2-2.8h.5zm2.4 2.9v.6h-.5v-4.9h.5v1.9c.2-.4.7-.6 1.2-.6c.9 0 1.5.7 1.5 1.8c0 1.1-.6 1.8-1.5 1.8c-.5 0-1-.2-1.2-.6zm1.2.2c.7 0 1.1-.6 1.1-1.4c0-.7-.4-1.4-1.1-1.4h-.1c-.7 0-1.1.7-1.1 1.4c0 .8.4 1.4 1.1 1.4h.1zm2.3-1.4c0-1.2.8-1.8 1.6-1.8c.8 0 1.4.7 1.4 1.6v.2s-2.52.04-2.5 0c0 1 .5 1.4 1.1 1.4c.5 0 .8-.2.9-.6h.5c-.2.7-.7 1-1.4 1c-.9 0-1.6-.6-1.6-1.8zm2.5-.3c0-.7-.3-1.1-.9-1.1h-.1c-.4 0-.9.2-1 1.1h2zm2.5.3c0-1 .5-1.8 1.6-1.8c.7 0 1.3.4 1.3 1.2h-.4c-.1-.5-.4-.8-.9-.8h-.1c-.7 0-1.1.6-1.1 1.4c0 .8.4 1.4 1.1 1.4h.1c.5 0 .8-.3.9-.8h.4c-.1.8-.6 1.2-1.3 1.2c-1.1 0-1.6-.8-1.6-1.8zm3.9 1.8v-4.9h.5s-.05 1.95 0 2c.2-.5.6-.7 1.2-.7c.8 0 1.2.5 1.2 1.2v2.4h-.5s.05-2.21 0-2.2c0-.7-.2-1-.8-1h-.1c-.5 0-1 .5-1 1.3c-.05-.03 0 1.9 0 1.9h-.5zm3.8-1c0-.8.7-1 1.3-1.1c-.05.04 1.1 0 1.1 0c0 0-.04-.18 0-.2c0-.6-.4-.9-.9-.9h-.1c-.4 0-.8.2-.8.6h-.5c.1-.6.6-1 1.4-1c.9 0 1.3.6 1.3 1.3v2.3h-.4v-.6c-.1.3-.6.6-1.2.6c-.7 0-1.2-.4-1.2-1zm1.3.6c.5 0 1.1-.4 1.1-.9c-.04 0 0-.5 0-.5l-1.1.1c-.5 0-.8.3-.8.7c0 .4.3.6.7.6h.1zm2.6.4V22h.5v.5c.2-.3.7-.6 1.2-.6c.7 0 1.3.4 1.3 1.3c-.05-.03 0 2.3 0 2.3h-.5v-2.2c0-.7-.3-1-.8-1h-.1c-.7 0-1.1.7-1.1 1.4v1.8h-.5zm3.8.4h.5c.1.5.5.7 1.1.7c.6 0 1.2-.3 1.2-1.2v-.6c-.2.4-.6.7-1.2.7c-.9 0-1.5-.7-1.5-1.8c0-1.1.6-1.8 1.5-1.8c.6 0 1 .2 1.2.6c-.03.02 0-.5 0-.5h.4s.02 3.43 0 3.4c0 .9-.6 1.6-1.6 1.6c-1 0-1.5-.4-1.6-1.1zm1.7-.8c.6 0 1.1-.5 1.1-1.4c0-.9-.5-1.4-1.1-1.4h-.1c-.6 0-1.1.5-1.1 1.4c0 .9.5 1.4 1.1 1.4h.1zm2.5-1.4c0-1.2.8-1.8 1.6-1.8c.8 0 1.4.7 1.4 1.6c-.02-.03 0 .2 0 .2c0 0-2.54.04-2.5 0c0 1 .5 1.4 1.1 1.4c.5 0 .8-.2.9-.6h.5c-.2.7-.7 1-1.4 1c-.9 0-1.6-.6-1.6-1.8zm2.5-.3c0-.7-.4-1.1-.9-1.1h-.1c-.4 0-.9.2-1 1.1h2zm1.3.3c0-1.1.6-1.8 1.5-1.8c.5 0 1 .2 1.2.6v-1.9h.5v4.9h-.5v-.6c-.2.4-.7.6-1.2.6c-.9 0-1.5-.7-1.5-1.8zm1.6 1.4c.7 0 1.1-.6 1.1-1.4c0-.7-.4-1.4-1.1-1.4c-.8 0-1.2.7-1.2 1.4c0 .8.4 1.4 1.2 1.4zM372 22h.5l-1.1 3.5h-.6l-.8-3.1l-.8 3.1h-.6l-1.2-3.5h.5l1 3.1l.8-3.1h.6l.8 3.1l.9-3.1zm1.2-.7v-.6h.6v.6h-.6zm.1 4.2V22h.4v3.5h-.4zm2.7 0c-.5 0-.7-.2-.7-.7v-2.5h-.8v-.3h.8v-1.2h.5v1.2h.8v.3h-.8s-.04 2.5 0 2.5c0 .2 0 .3.2.3c.04-.02.7 0 .7 0v.4s-.73-.04-.7 0zm1.5 0v-4.9h.5s-.03 1.95 0 2c.2-.5.6-.7 1.2-.7c.8 0 1.2.5 1.2 1.2c.02.05 0 2.4 0 2.4h-.4s-.03-2.21 0-2.2c0-.7-.3-1-.9-1c-.6 0-1.1.5-1.1 1.3c-.03-.03 0 1.9 0 1.9h-.5zm3.9-1.8c0-1.1.7-1.8 1.6-1.8c.9 0 1.6.7 1.6 1.8c0 1.1-.7 1.8-1.6 1.8c-.9 0-1.6-.7-1.6-1.8zm1.6 1.4c.6 0 1.1-.5 1.1-1.4c0-.9-.5-1.4-1.1-1.4h-.1c-.6 0-1.1.5-1.1 1.4c0 .9.5 1.4 1.1 1.4h.1zm2.5-.8c.02-.03 0-2.3 0-2.3h.5s-.03 2.13 0 2.1c0 .7.3 1 .8 1h.1c.5 0 1-.4 1-1.3V22h.5v3.5h-.5v-.7c-.2.5-.6.7-1.2.7c-.7 0-1.2-.5-1.2-1.2zm5.1 1.2c-.5 0-.7-.2-.7-.7c.02.03 0-2.5 0-2.5h-.8v-.3h.8v-1.2h.5v1.2h.9v.3h-.9s-.02 2.5 0 2.5c0 .2 0 .3.3.3c-.04-.02.7 0 .7 0v.4s-.81-.04-.8 0zm2.7 0V22h.5s-.02.55 0 .5c.2-.3.6-.6 1.2-.6c.7 0 1.2.4 1.2 1.3c.03-.03 0 2.3 0 2.3h-.4s-.03-2.19 0-2.2c0-.7-.3-1-.9-1c-.8 0-1.1.7-1.1 1.4c-.02.01 0 1.8 0 1.8h-.5zm3.9-1.8c0-1.1.7-1.8 1.6-1.8c.9 0 1.6.7 1.6 1.8c0 1.1-.7 1.8-1.6 1.8c-.9 0-1.6-.7-1.6-1.8zm1.6 1.4c.6 0 1.1-.5 1.1-1.4c0-.9-.5-1.4-1.1-1.4h-.1c-.6 0-1.1.5-1.1 1.4c0 .9.5 1.4 1.1 1.4h.1zm3.5.4c-.4 0-.6-.2-.6-.7c-.04.03 0-2.5 0-2.5h-.8v-.3h.8v-1.2h.4v1.2h.9v.3h-.9s.01 2.5 0 2.5c0 .2.1.3.3.3c-.01-.02.7 0 .7 0v.4s-.78-.04-.8 0zm1.5-4.2v-.6h.6v.6h-.6zm.1 4.2V22h.4v3.5h-.4zm1.4-1.8c0-1 .6-1.8 1.6-1.8c.8 0 1.3.4 1.4 1.2h-.5c-.1-.5-.4-.8-.9-.8c-.8 0-1.1.6-1.1 1.4c0 .8.3 1.4 1.1 1.4c.5 0 .8-.3.9-.8h.5c-.2.8-.6 1.2-1.4 1.2c-1 0-1.6-.8-1.6-1.8zm3.7 0c0-1.2.8-1.8 1.6-1.8c.8 0 1.4.7 1.4 1.6v.2s-2.52.04-2.5 0c0 1 .5 1.4 1.1 1.4c.5 0 .8-.2.9-.6h.5c-.2.7-.7 1-1.4 1c-.9 0-1.6-.6-1.6-1.8zm2.5-.3c0-.7-.3-1.1-.9-1.1h-.1c-.4 0-.9.2-1 1.1h2zm1.4 2.1v-.7h.7v.7h-.7zm3.2 0v-4.9s1.64-.04 1.6 0c1.4 0 2.2.9 2.2 2.4c0 1.6-.8 2.5-2.2 2.5c.04-.04-1.6 0-1.6 0zm.5-.5s1.07.01 1.1 0c1.1 0 1.8-.7 1.8-2c0-1.3-.7-2-1.8-2c-.03.01-1.1 0-1.1 0v4zm4.2-1.3c0-1.2.7-1.8 1.6-1.8c.8 0 1.4.7 1.4 1.6c-.04-.03 0 .2 0 .2c0 0-2.56.04-2.6 0c.1 1 .6 1.4 1.1 1.4h.1c.5 0 .8-.2.9-.6h.5c-.2.7-.7 1-1.4 1c-.9 0-1.6-.6-1.6-1.8zm2.5-.3c0-.7-.4-1.1-.9-1.1h-.1c-.4 0-.9.2-1 1.1h2zM427 22h.5l-1.3 3.5h-.6l-1.3-3.5h.4l1.2 3l1.1-3zm1 1.7c0-1.2.7-1.8 1.5-1.8c.9 0 1.5.7 1.5 1.6c-.05-.03 0 .2 0 .2c0 0-2.57.04-2.6 0c0 1 .6 1.4 1.1 1.4h.1c.4 0 .8-.2.9-.6h.4c-.1.7-.6 1-1.4 1c-.8 0-1.5-.6-1.5-1.8zm2.5-.3c0-.7-.4-1.1-.9-1.1h-.1c-.4 0-1 .2-1.1 1.1h2.1zm1.4 2.1v-4.9h.5v4.9h-.5zm1.5-1.8c0-1.1.7-1.8 1.6-1.8c.9 0 1.6.7 1.6 1.8c0 1.1-.7 1.8-1.6 1.8c-.9 0-1.6-.7-1.6-1.8zm1.6 1.4c.6 0 1.1-.5 1.1-1.4c0-.9-.5-1.4-1.1-1.4h-.1c-.6 0-1.1.5-1.1 1.4c0 .9.5 1.4 1.1 1.4h.1zm2.6 1.8V22h.4v.5c.2-.4.7-.6 1.2-.6c.9 0 1.5.7 1.5 1.8c0 1.1-.6 1.8-1.5 1.8c-.5 0-1-.2-1.2-.6v2h-.4zm1.6-1.8c.7 0 1.1-.6 1.1-1.4c0-.7-.4-1.4-1.1-1.4h-.1c-.7 0-1.1.7-1.1 1.4c0 .8.4 1.4 1.1 1.4h.1zm2.3-1.4c0-1.2.8-1.8 1.6-1.8c.9 0 1.4.7 1.4 1.6v.2s-2.51.04-2.5 0c0 1 .5 1.4 1.1 1.4c.5 0 .8-.2 1-.6h.4c-.1.7-.7 1-1.4 1c-.9 0-1.6-.6-1.6-1.8zm2.6-.3c-.1-.7-.4-1.1-1-1.1c-.5 0-1 .2-1.1 1.1h2.1zm1.4 2.1V22h.4s.03.76 0 .8c.2-.6.6-.9 1.1-.9c.01.03.3 0 .3 0v.4s-.25.04-.3 0c-.6 0-1 .6-1 1.5c-.04-.04 0 1.7 0 1.7h-.5zm2.6-2.8v-.7h.7v.7h-.7zm0 2.8v-.7h.7v.7h-.7zm6.4 0l-1.8-2.6l-1 1v1.6h-.5v-4.9h.5v2.7l2.7-2.7h.7l-2 1.9l2 3h-.6zm1.1-1c0-.8.7-1 1.2-1.1c.02.04 1.1 0 1.1 0c0 0 .03-.18 0-.2c0-.6-.3-.9-.8-.9h-.1c-.4 0-.8.2-.9.6h-.4c0-.6.6-1 1.3-1c.9 0 1.4.6 1.4 1.3v2.3h-.4v-.6c-.2.3-.7.6-1.3.6c-.6 0-1.1-.4-1.1-1zm1.2.6c.5 0 1.1-.4 1.1-.9c.03 0 0-.5 0-.5l-1 .1c-.5 0-.8.3-.8.7c0 .4.3.6.7.6zm2.7.4V22h.4s.04.76 0 .8c.2-.6.6-.9 1.1-.9c.02.03.3 0 .3 0v.4s-.24.04-.2 0c-.7 0-1.1.6-1.1 1.5c-.03-.04 0 1.7 0 1.7h-.5zm2.6-4.2v-.6h.5v.6h-.5zm0 4.2V22h.5v3.5h-.5zm1.6 0V22h.5s-.02.52 0 .5c.2-.3.6-.6 1.1-.6c.5 0 1 .2 1.1.7c.3-.5.7-.7 1.3-.7c.7 0 1.2.4 1.2 1.3c-.03-.03 0 2.3 0 2.3h-.5s.02-2.19 0-2.2c0-.7-.2-1-.8-1c-.7 0-1.1.7-1.1 1.4c.03.01 0 1.8 0 1.8h-.4s-.03-2.19 0-2.2c0-.7-.3-1-.8-1h-.1c-.7 0-1 .7-1 1.4c-.02.01 0 1.8 0 1.8h-.5zm6.8-.6c-.02 0 0 .6 0 .6h-.5v-4.9h.5s-.02 1.92 0 1.9c.2-.4.7-.6 1.1-.6c1 0 1.6.7 1.6 1.8c0 1.1-.6 1.8-1.6 1.8c-.4 0-.9-.2-1.1-.6zm1.1.2c.8 0 1.1-.6 1.1-1.4c0-.7-.3-1.4-1.1-1.4c-.8 0-1.1.7-1.1 1.4c0 .8.3 1.4 1.1 1.4zm2.6.4v-4.9h.4v4.9h-.4zm1.4-1c0-.8.7-1 1.2-1.1c.04.04 1.1 0 1.1 0c0 0 .04-.18 0-.2c0-.6-.3-.9-.8-.9h-.1c-.4 0-.8.2-.8.6h-.5c0-.6.6-1 1.3-1c1 0 1.4.6 1.4 1.3v2.3h-.4v-.6c-.2.3-.6.6-1.3.6c-.6 0-1.1-.4-1.1-1zm1.3.6c.4 0 1-.4 1-.9c.04 0 0-.5 0-.5l-1 .1c-.5 0-.8.3-.8.7c0 .4.3.6.7.6h.1zm4 .4v-4.9s1.92-.04 1.9 0c.9 0 1.6.5 1.6 1.4c0 1-.7 1.4-1.6 1.4c.02.04-1.4 0-1.4 0v2.1h-.5zm.5-2.5h1.3c.7 0 1.2-.3 1.2-1c0-.7-.5-1-1.2-1h-1.3v2zm3.8 2.5V22h.4s.05.76 0 .8c.2-.6.7-.9 1.1-.9c.03.03.3 0 .3 0v.4s-.23.04-.2 0c-.7 0-1.1.6-1.1 1.5c-.02-.04 0 1.7 0 1.7h-.5zm2.3-1.8c0-1.1.7-1.8 1.6-1.8c.9 0 1.6.7 1.6 1.8c0 1.1-.7 1.8-1.6 1.8c-.9 0-1.6-.7-1.6-1.8zm1.7 1.4c.6 0 1.1-.5 1.1-1.4c0-.9-.5-1.4-1.1-1.4h-.1c-.6 0-1.1.5-1.1 1.4c0 .9.5 1.4 1.1 1.4h.1zm2.5 1.8V22h.5s-.04.52 0 .5c.2-.4.7-.6 1.1-.6c.9 0 1.6.7 1.6 1.8c0 1.1-.7 1.8-1.6 1.8c-.4 0-.9-.2-1.1-.6c-.04 0 0 2 0 2h-.5zm1.6-1.8c.8 0 1.1-.6 1.1-1.4c0-.7-.3-1.4-1.1-1.4c-.8 0-1.1.7-1.1 1.4c0 .8.3 1.4 1.1 1.4zm2.4-1.4c0-1.2.7-1.8 1.6-1.8c.8 0 1.4.7 1.4 1.6c-.03-.03 0 .2 0 .2c0 0-2.55.04-2.6 0c.1 1 .6 1.4 1.1 1.4h.1c.5 0 .8-.2.9-.6h.5c-.2.7-.7 1-1.4 1c-.9 0-1.6-.6-1.6-1.8zm2.5-.3c0-.7-.4-1.1-.9-1.1h-.1c-.4 0-.9.2-1 1.1h2zm1.5 2.1V22h.4s-.02.76 0 .8c.1-.6.6-.9 1.1-.9c-.04.03.3 0 .3 0v.4s-.3.04-.3 0c-.7 0-1.1.6-1.1 1.5c.01-.04 0 1.7 0 1.7h-.4zm3.8 0c-.5 0-.7-.2-.7-.7c.01.03 0-2.5 0-2.5h-.8v-.3h.8v-1.2h.5v1.2h.8v.3h-.8s-.04 2.5 0 2.5c0 .2 0 .3.2.3c.04-.02.7 0 .7 0v.4s-.73-.04-.7 0zm1.5-4.2v-.6h.5v.6h-.5zm0 4.2V22h.5v3.5h-.5zm1.5-1.8c0-1.2.7-1.8 1.5-1.8c.9 0 1.4.7 1.4 1.6c.03-.03 0 .2 0 .2c0 0-2.49.04-2.5 0c0 1 .5 1.4 1.1 1.4c.5 0 .8-.2 1-.6h.4c-.1.7-.7 1-1.4 1c-.9 0-1.5-.6-1.5-1.8zm2.5-.3c0-.7-.4-1.1-1-1.1c-.5 0-1 .2-1.1 1.1h2.1zm1.2 1h.4c.1.5.5.7.9.7h.1c.5 0 .8-.2.8-.6c0-.3-.2-.4-.6-.5l-.5-.1c-.5-.1-1-.4-1-1c0-.6.6-1 1.3-1c.8 0 1.3.5 1.3 1.1h-.5c0-.4-.3-.7-.8-.7h-.1c-.5 0-.7.3-.7.6c0 .3.2.4.6.5l.6.2c.5.1.9.3.9.9c0 .6-.6 1-1.3 1c-.9 0-1.4-.4-1.4-1.1zm6.5 2.1c-1.1-.1-1.8-1.5-1.8-3.5c0-2 .7-3.4 1.8-3.5v.4c-.8.1-1.4 1.4-1.4 3.1c0 1.7.6 3 1.4 3.1v.4zm3.9-5.9h.5v4.9h-.6l-2.8-4.3v4.3h-.4v-4.9h.6l2.7 4.1v-4.1zm1.5 3.1c0-1.1.8-1.8 1.7-1.8c.9 0 1.6.7 1.6 1.8c0 1.1-.7 1.8-1.6 1.8c-.9 0-1.7-.7-1.7-1.8zm1.7 1.4c.6 0 1.1-.5 1.1-1.4c0-.9-.5-1.4-1.1-1.4h-.1c-.6 0-1.1.5-1.1 1.4c0 .9.5 1.4 1.1 1.4h.1zm2.4.4v-.7h.7v.7h-.7zm2.8-1.3h.4c.1.6.6.9 1.2.9h.1c.6 0 1.1-.5 1.1-1.2c0-.6-.4-1.1-1.1-1.1c-.4 0-.9.2-1.1.6h-.5l.6-2.8h2.5v.4h-2.1s-.36 1.78-.4 1.8c.3-.3.7-.4 1.1-.4c.9 0 1.5.6 1.5 1.5c0 1-.8 1.6-1.7 1.6c-.8 0-1.6-.4-1.6-1.3zm7.5-.4c0 1.1-.7 1.7-1.6 1.7c-1.1 0-1.8-.9-1.8-2.4c0-1.5.8-2.6 2-2.6c.8 0 1.3.4 1.5 1.2h-.5c-.1-.4-.5-.8-1-.8h-.1c-.8 0-1.4.9-1.5 2.2c.3-.6.9-.9 1.4-.9c1 0 1.6.7 1.6 1.6zm-1.6 1.3c.7 0 1.1-.5 1.1-1.2c0-.7-.4-1.2-1.1-1.2c-.7 0-1.2.5-1.2 1.2c0 .7.5 1.2 1.2 1.2zm2-5.6c1.1.1 1.8 1.6 1.8 3.5c0 2-.7 3.4-1.8 3.5v-.4c.8-.1 1.4-1.4 1.4-3.1c0-1.7-.6-3-1.4-3.1v-.4zm4.1 6v-4.9s1.97-.04 2 0c.8 0 1.5.5 1.5 1.4c0 1-.7 1.4-1.5 1.4c-.03.04-1.5 0-1.5 0v2.1h-.5zm.5-2.5h1.4c.7 0 1.1-.3 1.1-1c0-.7-.4-1-1.1-1h-1.4v2zm5.1 2.5c-.4 0-.7-.2-.7-.7c.04.03 0-2.5 0-2.5h-.8v-.3h.8v-1.2h.5v1.2h.9v.3h-.9v2.5c0 .2.1.3.3.3c-.02-.02.7 0 .7 0v.4s-.79-.04-.8 0zm4.7-3.5l-1.5 3.3s.03.71 0 .7c0 .4-.2.6-.6.6c-.03.01-1.1 0-1.1 0v-.4s1 .03 1 0c.2 0 .3 0 .3-.2c-.02-.05 0-.6 0-.6l-1.5-3.4h.5l1.2 2.8l1.2-2.8h.5zm2 3.5v-4.9h.5v4.4h2.9v.5h-3.4zm4.2-4.2v-.6h.5v.6h-.5zm0 4.2V22h.5v3.5h-.5zm1.6 0V22h.5v.5c.2-.3.6-.6 1.2-.6c.5 0 .9.2 1.1.7c.2-.5.6-.7 1.2-.7c.7 0 1.2.4 1.2 1.3c-.02-.03 0 2.3 0 2.3h-.5s.03-2.19 0-2.2c0-.7-.2-1-.8-1c-.7 0-1.1.7-1.1 1.4c.04.01 0 1.8 0 1.8h-.4s-.01-2.19 0-2.2c0-.7-.3-1-.8-1h-.1c-.7 0-1 .7-1 1.4c-.01.01 0 1.8 0 1.8h-.5zm6.3-4.2v-.6h.5v.6h-.5zm0 4.2V22h.5v3.5h-.5zm2.7 0c-.4 0-.7-.2-.7-.7c.05.03 0-2.5 0-2.5h-.8v-.3h.8v-1.2h.5v1.2h.9v.3h-.9v2.5c0 .2.1.3.3.3c-.02-.02.7 0 .7 0v.4s-.79-.04-.8 0zm1.3-1.8c0-1.2.7-1.8 1.5-1.8c.9 0 1.5.7 1.5 1.6c-.05-.03 0 .2 0 .2c0 0-2.57.04-2.6 0c0 1 .6 1.4 1.1 1.4h.1c.5 0 .8-.2.9-.6h.4c-.1.7-.6 1-1.4 1c-.8 0-1.5-.6-1.5-1.8zm2.5-.3c0-.7-.4-1.1-.9-1.1h-.1c-.4 0-1 .2-1.1 1.1h2.1zm1.3.3c0-1.1.6-1.8 1.5-1.8c.5 0 1 .2 1.2.6v-1.9h.4v4.9h-.4v-.6c-.2.4-.7.6-1.2.6c-.9 0-1.5-.7-1.5-1.8zm1.6 1.4c.7 0 1.1-.6 1.1-1.4c0-.7-.4-1.4-1.1-1.4h-.1c-.7 0-1.1.7-1.1 1.4c0 .8.4 1.4 1.1 1.4h.1zm7.5.4l-.5-1.4h-2.5l-.6 1.4h-.5l2-4.9h.6l2 4.9h-.5zm-2.9-1.8h2.2l-1.1-2.7l-1.1 2.7zm4.3 1.8v-4.9s2.02-.04 2 0c.8 0 1.4.4 1.4 1.2c0 .6-.4 1.1-.8 1.2c.4 0 .9.4.9 1.1c0 .8-.6 1.4-1.4 1.4c-.03-.04-2.1 0-2.1 0zm.5-2.7s1.47-.05 1.5 0c.5 0 .9-.4.9-.9c0-.6-.4-.9-.9-.9h-1.5v1.8zm0 2.2h1.5c.6 0 1-.3 1-.9c0-.6-.4-.9-1-.9h-1.5v1.8zm7.5-4.4h.5v4.9h-.6l-2.8-4.3v4.3h-.5v-4.9h.7l2.7 4.1v-4.1zm6.2 2.3c0 1.5-.8 2.6-1.9 2.6c-.8 0-1.4-.4-1.5-1.2h.4c.2.5.6.8 1.1.8c.8 0 1.4-.9 1.5-2.2c-.2.6-.8.9-1.4.9c-.9 0-1.6-.7-1.6-1.6c0-1.1.7-1.7 1.6-1.7c1.2 0 1.8.9 1.8 2.4zm-1.7.4c.6 0 1.1-.5 1.1-1.2c0-.6-.5-1.2-1.1-1.2h-.1c-.6 0-1.1.5-1.1 1.2c0 .7.4 1.2 1.1 1.2h.1zm3.1 1.7h2.6v.5h-3.2v-.5s1.99-2.03 2-2c.5-.6.7-.8.7-1.2c0-.5-.5-.9-1-.9h-.1c-.6 0-1 .5-1.1 1.1h-.4c0-.9.6-1.5 1.5-1.5c.9 0 1.5.5 1.5 1.3c0 .6-.3 1-.7 1.4l-1.8 1.8zm5.7-4.4h.4v4.9h-.5v-4.2l-1.2 1.1v-.6l1.3-1.2zm4.9 3.2c0 1.1-.7 1.7-1.6 1.7c-1.1 0-1.8-.9-1.8-2.4c0-1.5.8-2.6 1.9-2.6c.9 0 1.4.4 1.6 1.2h-.5c-.1-.4-.5-.8-1-.8h-.1c-.8 0-1.4.9-1.5 2.2c.3-.6.9-.9 1.4-.9c1 0 1.6.7 1.6 1.6zm-1.6 1.3c.7 0 1.1-.5 1.1-1.2c0-.7-.4-1.2-1.1-1.2c-.7 0-1.2.5-1.2 1.2c0 .7.5 1.2 1.2 1.2zm2.7-.9c0-.6.4-1 .8-1.1c-.5-.2-.9-.6-.9-1.2c0-.9.6-1.4 1.5-1.4c.9 0 1.6.5 1.6 1.4c0 .6-.5 1-.9 1.2c.4.1.8.5.8 1.1c0 .8-.6 1.3-1.5 1.3c-.8 0-1.4-.5-1.4-1.3zm1.5-1.4c.5 0 1-.4 1-.9c0-.6-.4-1-1-1h-.1c-.6 0-1.1.4-1.1 1c0 .5.5.9 1.1.9h.1zm0 2.3c.5 0 .9-.4.9-.9c0-.5-.4-.9-.9-.9h-.1c-.6 0-1 .4-1 .9c0 .5.4.9 1 .9h.1zm7-1.3c0 1.1-.7 1.7-1.7 1.7c-1.1 0-1.7-.9-1.7-2.4c0-1.5.8-2.6 1.9-2.6c.8 0 1.4.4 1.5 1.2h-.4c-.2-.4-.6-.8-1.1-.8c-.9 0-1.5.9-1.5 2.2c.2-.6.8-.9 1.4-.9c.9 0 1.6.7 1.6 1.6zm-1.6 1.3c.6 0 1.1-.5 1.1-1.2c0-.7-.4-1.2-1.1-1.2h-.1c-.7 0-1.2.5-1.2 1.2c0 .7.5 1.2 1.2 1.2h.1zm2.5-2.1c0-1.6.7-2.5 1.8-2.5c1.2 0 1.9.9 1.9 2.5c0 1.7-.7 2.5-1.9 2.5c-1.1 0-1.8-.8-1.8-2.5zm1.9 2.1c.6 0 1.3-.5 1.3-2.1c0-1.6-.7-2.1-1.3-2.1h-.1c-.6 0-1.3.5-1.3 2.1c0 1.6.7 2.1 1.3 2.1h.1zm3.8-4.5h.4v4.9h-.5v-4.2l-1.1 1.1v-.6l1.2-1.2zm3.3 4.4h2.6v.5h-3.2v-.5s1.97-2.03 2-2c.5-.6.6-.8.6-1.2c0-.5-.4-.9-1-.9c-.7 0-1.1.5-1.1 1.1h-.4c0-.9.6-1.5 1.5-1.5c.9 0 1.5.5 1.5 1.3c0 .6-.3 1-.7 1.4l-1.8 1.8zm3.2-.8h.5c.1.6.6.9 1.2.9c.7 0 1.2-.5 1.2-1.2c0-.6-.5-1.1-1.1-1.1h-.1c-.3 0-.8.2-1 .6h-.5l.6-2.8h2.5v.4h-2.1s-.37 1.78-.4 1.8c.3-.3.6-.4 1.1-.4c.9 0 1.5.6 1.5 1.5c0 1-.8 1.6-1.7 1.6c-.9 0-1.6-.4-1.7-1.3zm4.2-1.2c0-1.6.7-2.5 1.9-2.5c1.1 0 1.8.9 1.8 2.5c0 1.7-.7 2.5-1.8 2.5c-1.2 0-1.9-.8-1.9-2.5zm1.9 2.1c.6 0 1.3-.5 1.3-2.1c0-1.6-.7-2.1-1.3-2.1h-.1c-.6 0-1.3.5-1.3 2.1c0 1.6.7 2.1 1.3 2.1h.1zm2.7.4v-.7h.7v.7h-.7z" stroke="none" fill="#dcddce"/></g><g id="Polygon23266"><path d="m.9 16.9V12h.4s.04.52 0 .5c.3-.4.8-.6 1.2-.6c.9 0 1.6.7 1.6 1.8c0 1.1-.7 1.8-1.6 1.8c-.4 0-.9-.2-1.2-.6c.04 0 0 2 0 2h-.4zm1.6-1.8c.7 0 1.1-.6 1.1-1.4c0-.7-.4-1.4-1.1-1.4c-.8 0-1.2.7-1.2 1.4c0 .8.4 1.4 1.2 1.4zm2.6.4V12h.4s-.03.76 0 .8c.1-.6.6-.9 1.1-.9c-.04.03.3 0 .3 0v.4s-.31.04-.3 0c-.7 0-1.1.6-1.1 1.5c.01-.04 0 1.7 0 1.7h-.4zm2.2-1.8c0-1.1.8-1.8 1.7-1.8c.9 0 1.6.7 1.6 1.8c0 1.1-.7 1.8-1.6 1.8c-.9 0-1.7-.7-1.7-1.8zM9 15.1c.6 0 1.1-.5 1.1-1.4c0-.9-.5-1.4-1.1-1.4h-.1c-.6 0-1.1.5-1.1 1.4c0 .9.5 1.4 1.1 1.4h.1zm4.8-3.1h.5l-1.4 3.5h-.5L11 12h.5l1.1 3l1.2-3zm1.2-.7v-.6h.5v.6h-.5zm.1 4.2V12h.4v3.5h-.4zm1.4-1.8c0-1.1.6-1.8 1.5-1.8c.5 0 1 .2 1.2.6v-1.9h.5v4.9h-.5v-.6c-.2.4-.7.6-1.2.6c-.9 0-1.5-.7-1.5-1.8zm1.6 1.4c.7 0 1.1-.6 1.1-1.4c0-.7-.4-1.4-1.1-1.4c-.8 0-1.2.7-1.2 1.4c0 .8.4 1.4 1.2 1.4zm2.5-1.4c0-1.2.8-1.8 1.6-1.8c.9 0 1.4.7 1.4 1.6c.02-.03 0 .2 0 .2c0 0-2.5.04-2.5 0c0 1 .5 1.4 1.1 1.4c.5 0 .8-.2 1-.6h.4c-.1.7-.7 1-1.4 1c-.9 0-1.6-.6-1.6-1.8zm2.6-.3c-.1-.7-.4-1.1-1-1.1c-.5 0-1 .2-1.1 1.1h2.1zm1.2.3c0-1.1.7-1.8 1.6-1.8c.4 0 .9.2 1.1.6c.05.02 0-1.9 0-1.9h.5v4.9h-.5s.05-.6 0-.6c-.2.4-.7.6-1.1.6c-.9 0-1.6-.7-1.6-1.8zm1.6 1.4c.8 0 1.1-.6 1.1-1.4c0-.7-.3-1.4-1.1-1.4c-.8 0-1.1.7-1.1 1.4c0 .8.3 1.4 1.1 1.4zm3.9-3.8v-.6h.6v.6h-.6zm.1 4.2V12h.4v3.5h-.4zm1.6 0V12h.5s-.05.55 0 .5c.2-.3.6-.6 1.2-.6c.7 0 1.2.4 1.2 1.3v2.3h-.5s.05-2.19 0-2.2c0-.7-.2-1-.8-1c-.8 0-1.1.7-1.1 1.4c-.05.01 0 1.8 0 1.8h-.5zm6.3 0c-.5 0-.7-.2-.7-.7v-2.5h-.8v-.3h.8v-1.2h.5v1.2h.8v.3h-.8s-.05 2.5 0 2.5c0 .2 0 .3.2.3c.03-.02.7 0 .7 0v.4s-.74-.04-.7 0zm1.5 0v-4.9h.5s-.03 1.95 0 2c.2-.5.6-.7 1.2-.7c.8 0 1.2.5 1.2 1.2c.02.05 0 2.4 0 2.4h-.4s-.03-2.21 0-2.2c0-.7-.3-1-.9-1c-.6 0-1.1.5-1.1 1.3c-.03-.03 0 1.9 0 1.9h-.5zm3.9-1.8c0-1.2.7-1.8 1.5-1.8c.9 0 1.4.7 1.4 1.6c.05-.03 0 .2 0 .2c0 0-2.47.04-2.5 0c0 1 .6 1.4 1.1 1.4h.1c.4 0 .8-.2.9-.6h.4c-.1.7-.7 1-1.4 1c-.8 0-1.5-.6-1.5-1.8zm2.5-.3c0-.7-.4-1.1-.9-1.1h-.1c-.4 0-1 .2-1.1 1.1h2.1zm2.4-.4c0-1.4.9-2.5 2.3-2.5c1.1 0 1.8.7 1.9 1.6h-.5c-.1-.6-.5-1.2-1.4-1.2h-.1c-1.1 0-1.7 1-1.7 2.1c0 1.1.6 2.1 1.7 2.1h.1c.9 0 1.3-.6 1.4-1.1h.5c-.1.9-.8 1.5-1.9 1.5c-1.4 0-2.3-1.1-2.3-2.5zm5 .7c0-1.1.7-1.8 1.6-1.8c.9 0 1.6.7 1.6 1.8c0 1.1-.7 1.8-1.6 1.8c-.9 0-1.6-.7-1.6-1.8zm1.6 1.4c.6 0 1.1-.5 1.1-1.4c0-.9-.5-1.4-1.1-1.4h-.1c-.6 0-1.1.5-1.1 1.4c0 .9.5 1.4 1.1 1.4h.1zm2.6.4V12h.4v.5c.2-.3.7-.6 1.2-.6c.7 0 1.3.4 1.3 1.3c-.04-.03 0 2.3 0 2.3h-.5s.01-2.19 0-2.2c0-.7-.3-1-.8-1h-.1c-.7 0-1.1.7-1.1 1.4c.01.01 0 1.8 0 1.8h-.4zm5 0c-.5 0-.7-.2-.7-.7c.04.03 0-2.5 0-2.5h-.8v-.3h.8v-1.2h.5v1.2h.9v.3h-.9s-.01 2.5 0 2.5c0 .2.1.3.3.3c-.03-.02.7 0 .7 0v.4s-.8-.04-.8 0zm1.6 0V12h.4s-.02.76 0 .8c.1-.6.6-.9 1.1-.9c-.04.03.3 0 .3 0v.4s-.3.04-.3 0c-.7 0-1.1.6-1.1 1.5c.01-.04 0 1.7 0 1.7h-.4zm2.3-1c0-.8.7-1 1.2-1.1c.04.04 1.1 0 1.1 0c0 0 .05-.18 0-.2c0-.6-.3-.9-.8-.9h-.1c-.4 0-.8.2-.8.6h-.5c.1-.6.6-1 1.4-1c.9 0 1.3.6 1.3 1.3v2.3h-.4v-.6c-.2.3-.6.6-1.3.6c-.6 0-1.1-.4-1.1-1zm1.3.6c.4 0 1-.4 1-.9c.05 0 0-.5 0-.5l-1 .1c-.5 0-.8.3-.8.7c0 .4.3.6.7.6h.1zm2.4-1.4c0-1 .6-1.8 1.6-1.8c.8 0 1.3.4 1.4 1.2h-.4c-.1-.5-.4-.8-.9-.8h-.1c-.8 0-1.1.6-1.1 1.4c0 .8.3 1.4 1.1 1.4h.1c.5 0 .8-.3.9-.8h.4c-.1.8-.6 1.2-1.4 1.2c-1 0-1.6-.8-1.6-1.8zm5 1.8c-.4 0-.6-.2-.6-.7c-.04.03 0-2.5 0-2.5h-.8v-.3h.8v-1.2h.4v1.2h.9v.3h-.9s.01 2.5 0 2.5c0 .2.1.3.3.3c-.01-.02.7 0 .7 0v.4s-.78-.04-.8 0zm3.2 0v-3.2h-.9v-.3h.9s-.05-.81 0-.8c0-.5.2-.6.6-.6c.02-.04.9 0 .9 0v.3s-.81.04-.8 0c-.2 0-.3.1-.3.3v.8h.9v.3h-.9v3.2h-.4zm1.8-1.8c0-1.1.7-1.8 1.6-1.8c.9 0 1.6.7 1.6 1.8c0 1.1-.7 1.8-1.6 1.8c-.9 0-1.6-.7-1.6-1.8zm1.6 1.4c.7 0 1.2-.5 1.2-1.4c0-.9-.5-1.4-1.2-1.4c-.7 0-1.1.5-1.1 1.4c0 .9.4 1.4 1.1 1.4zm2.6.4V12h.4v.8c.2-.6.6-.9 1.1-.9c-.01.03.3 0 .3 0v.4s-.28.04-.3 0c-.6 0-1.1.6-1.1 1.5c.04-.04 0 1.7 0 1.7h-.4zm3.5-1.6h.5c0 .8.5 1.2 1.4 1.2c.8 0 1.2-.4 1.2-.9c0-.5-.3-.7-.9-.9l-.8-.1c-.7-.2-1.2-.6-1.2-1.3c0-.8.7-1.4 1.7-1.4c1.1 0 1.7.6 1.8 1.5h-.5c-.1-.6-.6-1.1-1.3-1.1c-.7 0-1.2.5-1.2 1c0 .4.3.7.8.8l.8.1c.8.2 1.3.6 1.3 1.3c0 .9-.7 1.4-1.7 1.4c-1.2 0-1.9-.6-1.9-1.6zm4.4.6c0-.8.7-1 1.2-1.1c.04.04 1.2 0 1.2 0c0 0-.05-.18 0-.2c0-.6-.4-.9-.9-.9h-.1c-.4 0-.8.2-.8.6h-.5c.1-.6.6-1 1.4-1c.9 0 1.3.6 1.3 1.3v2.3h-.4v-.6c-.2.3-.6.6-1.3.6c-.6 0-1.1-.4-1.1-1zm1.3.6c.4 0 1.1-.4 1.1-.9c-.05 0 0-.5 0-.5l-1.1.1c-.5 0-.8.3-.8.7c0 .4.3.6.7.6h.1zm2.6.4v-4.9h.5v4.9h-.5zm1.5-1.8c0-1.2.7-1.8 1.5-1.8c.9 0 1.5.7 1.5 1.6c-.05-.03 0 .2 0 .2c0 0-2.57.04-2.6 0c0 1 .6 1.4 1.1 1.4h.1c.5 0 .8-.2.9-.6h.4c-.1.7-.6 1-1.4 1c-.8 0-1.5-.6-1.5-1.8zm2.5-.3c0-.7-.4-1.1-.9-1.1h-.1c-.4 0-1 .2-1.1 1.1h2.1zm1.4 2.1v-.7h.7v.7h-.7zm4.3 0V11h-1.8v-.4h4.1v.4h-1.8v4.5h-.5zm3.1 0v-4.9h.4s.05 1.95 0 2c.3-.5.7-.7 1.3-.7c.8 0 1.2.5 1.2 1.2v2.4h-.5s.04-2.21 0-2.2c0-.7-.2-1-.8-1h-.1c-.5 0-1.1.5-1.1 1.3c.05-.03 0 1.9 0 1.9h-.4zm3.8-1.8c0-1.2.8-1.8 1.6-1.8c.9 0 1.4.7 1.4 1.6c.02-.03 0 .2 0 .2c0 0-2.5.04-2.5 0c0 1 .5 1.4 1.1 1.4c.5 0 .8-.2 1-.6h.4c-.1.7-.7 1-1.4 1c-.9 0-1.6-.6-1.6-1.8zm2.6-.3c-.1-.7-.4-1.1-1-1.1c-.5 0-1 .2-1.1 1.1h2.1zm2.4.3c0-1 .6-1.8 1.6-1.8c.8 0 1.3.4 1.4 1.2h-.5c-.1-.5-.4-.8-.9-.8c-.8 0-1.2.6-1.2 1.4c0 .8.4 1.4 1.2 1.4c.5 0 .8-.3.9-.8h.5c-.2.8-.6 1.2-1.4 1.2c-1 0-1.6-.8-1.6-1.8zm3.7 0c0-1.1.7-1.8 1.6-1.8c.9 0 1.6.7 1.6 1.8c0 1.1-.7 1.8-1.6 1.8c-.9 0-1.6-.7-1.6-1.8zm1.6 1.4c.7 0 1.2-.5 1.2-1.4c0-.9-.5-1.4-1.2-1.4c-.7 0-1.1.5-1.1 1.4c0 .9.4 1.4 1.1 1.4zm2.6.4V12h.4s.04.55 0 .5c.2-.3.7-.6 1.3-.6c.7 0 1.2.4 1.2 1.3v2.3h-.5s.04-2.19 0-2.2c0-.7-.2-1-.8-1c-.8 0-1.2.7-1.2 1.4c.04.01 0 1.8 0 1.8h-.4zm5 0c-.4 0-.6-.2-.6-.7c-.03.03 0-2.5 0-2.5h-.8v-.3h.8v-1.2h.4v1.2h.9v.3h-.9s.03 2.5 0 2.5c0 .2.1.3.3.3c.01-.02.7 0 .7 0v.4s-.76-.04-.8 0zm1.3-1.8c0-1.2.8-1.8 1.6-1.8c.8 0 1.4.7 1.4 1.6c-.02-.03 0 .2 0 .2c0 0-2.54.04-2.5 0c0 1 .5 1.4 1.1 1.4c.5 0 .8-.2.9-.6h.5c-.2.7-.7 1-1.4 1c-.9 0-1.6-.6-1.6-1.8zm2.5-.3c0-.7-.4-1.1-.9-1.1h-.1c-.4 0-.9.2-1 1.1h2zm1.5 2.1V12h.4s.03.55 0 .5c.2-.3.7-.6 1.3-.6c.7 0 1.2.4 1.2 1.3c-.02-.03 0 2.3 0 2.3h-.5s.02-2.19 0-2.2c0-.7-.3-1-.8-1h-.1c-.7 0-1.1.7-1.1 1.4c.03.01 0 1.8 0 1.8h-.4zm5 0c-.4 0-.6-.2-.6-.7c-.05.03 0-2.5 0-2.5h-.9v-.3h.9v-1.2h.4v1.2h.9v.3h-.9s.01 2.5 0 2.5c0 .2.1.3.3.3c-.01-.02.7 0 .7 0v.4s-.78-.04-.8 0zm1.3-1.1h.5c.1.5.4.7.9.7h.1c.5 0 .8-.2.8-.6c0-.3-.2-.4-.6-.5l-.6-.1c-.5-.1-.9-.4-.9-1c0-.6.6-1 1.2-1c.9 0 1.3.5 1.4 1.1h-.5c0-.4-.3-.7-.8-.7h-.1c-.5 0-.8.3-.8.6c0 .3.2.4.7.5l.5.2c.5.1.9.3.9.9c0 .6-.5 1-1.3 1c-.9 0-1.3-.4-1.4-1.1zm4.7-.7c0-1.1.7-1.8 1.6-1.8c.9 0 1.6.7 1.6 1.8c0 1.1-.7 1.8-1.6 1.8c-.9 0-1.6-.7-1.6-1.8zm1.6 1.4c.7 0 1.2-.5 1.2-1.4c0-.9-.5-1.4-1.2-1.4c-.7 0-1.1.5-1.1 1.4c0 .9.4 1.4 1.1 1.4zm2.9.4v-3.2h-.8v-.3h.8s.02-.81 0-.8c0-.5.2-.6.7-.6c-.02-.04.9 0 .9 0v.3s-.85.04-.9 0c-.2 0-.2.1-.2.3c-.03.02 0 .8 0 .8h.9v.3h-.9v3.2h-.5zm4.4 0c-.5 0-.7-.2-.7-.7c-.01.03 0-2.5 0-2.5h-.8v-.3h.8v-1.2h.4v1.2h.9v.3h-.9s.04 2.5 0 2.5c0 .2.1.3.3.3c.02-.02.7 0 .7 0v.4s-.75-.04-.7 0zm1.5 0v-4.9h.5s-.04 1.95 0 2c.2-.5.6-.7 1.2-.7c.8 0 1.2.5 1.2 1.2v2.4h-.4s-.04-2.21 0-2.2c0-.7-.3-1-.9-1h-.1c-.5 0-1 .5-1 1.3c-.04-.03 0 1.9 0 1.9h-.5zm4-4.2v-.6h.5v.6h-.5zm.1 4.2V12h.4v3.5h-.4zm1.3-1.1h.5c0 .5.4.7.9.7c.5 0 .8-.2.8-.6c0-.3-.1-.4-.6-.5l-.5-.1c-.5-.1-.9-.4-.9-1c0-.6.5-1 1.2-1c.9 0 1.3.5 1.3 1.1h-.4c-.1-.4-.4-.7-.9-.7c-.5 0-.8.3-.8.6c0 .3.2.4.7.5l.5.2c.5.1.9.3.9.9c0 .6-.5 1-1.3 1c-.9 0-1.3-.4-1.4-1.1zm4.9 2.5V12h.4s.05.52 0 .5c.3-.4.8-.6 1.2-.6c.9 0 1.6.7 1.6 1.8c0 1.1-.7 1.8-1.6 1.8c-.4 0-.9-.2-1.2-.6c.05 0 0 2 0 2h-.4zm1.6-1.8c.8 0 1.1-.6 1.1-1.4c0-.7-.3-1.4-1.1-1.4c-.8 0-1.2.7-1.2 1.4c0 .8.4 1.4 1.2 1.4zm2.5-.8c.03-.03 0-2.3 0-2.3h.5s-.02 2.13 0 2.1c0 .7.3 1 .8 1h.1c.5 0 1-.4 1-1.3c.01.05 0-1.8 0-1.8h.5v3.5h-.5v-.7c-.2.5-.6.7-1.2.7c-.7 0-1.2-.5-1.2-1.2zm4.5.6c-.02 0 0 .6 0 .6h-.5v-4.9h.5s-.02 1.92 0 1.9c.2-.4.7-.6 1.2-.6c.9 0 1.5.7 1.5 1.8c0 1.1-.6 1.8-1.5 1.8c-.5 0-1-.2-1.2-.6zm1.1.2c.8 0 1.2-.6 1.2-1.4c0-.7-.4-1.4-1.2-1.4c-.8 0-1.1.7-1.1 1.4c0 .8.3 1.4 1.1 1.4zm2.6.4v-4.9h.5v4.9h-.5zm1.6-4.2v-.6h.5v.6h-.5zm0 4.2V12h.5v3.5h-.5zm1.4-1.8c0-1 .6-1.8 1.6-1.8c.8 0 1.3.4 1.4 1.2h-.4c-.1-.5-.4-.8-.9-.8h-.1c-.8 0-1.1.6-1.1 1.4c0 .8.3 1.4 1.1 1.4h.1c.5 0 .8-.3.9-.8h.4c-.1.8-.6 1.2-1.4 1.2c-1 0-1.6-.8-1.6-1.8zm3.8.8c0-.8.6-1 1.2-1.1c-.01.04 1.1 0 1.1 0v-.2c0-.6-.3-.9-.9-.9c-.5 0-.8.2-.9.6h-.4c0-.6.5-1 1.3-1c.9 0 1.3.6 1.3 1.3v1.5c0 .2 0 .5.1.8h-.4c-.1-.2-.1-.4-.1-.6c-.1.3-.6.6-1.2.6c-.6 0-1.1-.4-1.1-1zm1.2.6c.5 0 1.1-.4 1.1-.9v-.5l-1 .1c-.5 0-.9.3-.9.7c0 .4.3.6.7.6h.1zm3.7.4c-.5 0-.7-.2-.7-.7c.01.03 0-2.5 0-2.5h-.8v-.3h.8v-1.2h.5v1.2h.8v.3h-.8s-.04 2.5 0 2.5c0 .2 0 .3.2.3c.04-.02.7 0 .7 0v.4s-.73-.04-.7 0zm1.5-4.2v-.6h.5v.6h-.5zm0 4.2V12h.5v3.5h-.5zm1.4-1.8c0-1.1.7-1.8 1.6-1.8c.9 0 1.7.7 1.7 1.8c0 1.1-.8 1.8-1.7 1.8c-.9 0-1.6-.7-1.6-1.8zm1.7 1.4c.6 0 1.1-.5 1.1-1.4c0-.9-.5-1.4-1.1-1.4h-.1c-.6 0-1.1.5-1.1 1.4c0 .9.5 1.4 1.1 1.4h.1zm2.5.4V12h.5s-.02.55 0 .5c.2-.3.6-.6 1.2-.6c.7 0 1.2.4 1.2 1.3c.03-.03 0 2.3 0 2.3h-.4s-.03-2.19 0-2.2c0-.7-.3-1-.9-1c-.8 0-1.1.7-1.1 1.4c-.02.01 0 1.8 0 1.8h-.5zm5.3 0v-4.9h.4s.03 1.95 0 2c.3-.5.7-.7 1.3-.7c.8 0 1.2.5 1.2 1.2c-.02.05 0 2.4 0 2.4h-.5s.02-2.21 0-2.2c0-.7-.3-1-.8-1h-.1c-.5 0-1.1.5-1.1 1.3c.03-.03 0 1.9 0 1.9h-.4zm3.8-1c0-.8.7-1 1.2-1.1c.02.04 1.1 0 1.1 0c0 0 .03-.18 0-.2c0-.6-.3-.9-.8-.9h-.1c-.4 0-.8.2-.9.6h-.4c0-.6.6-1 1.3-1c.9 0 1.4.6 1.4 1.3v2.3h-.4v-.6c-.2.3-.7.6-1.3.6c-.6 0-1.1-.4-1.1-1zm1.2.6c.5 0 1.1-.4 1.1-.9c.03 0 0-.5 0-.5l-1 .1c-.5 0-.8.3-.8.7c0 .4.3.6.7.6zm5-3.1h.5l-1.4 3.5h-.6l-1.3-3.5h.5l1.1 3l1.2-3zm.9 1.7c0-1.2.8-1.8 1.6-1.8c.8 0 1.4.7 1.4 1.6v.2s-2.53.04-2.5 0c0 1 .5 1.4 1.1 1.4c.5 0 .8-.2.9-.6h.5c-.2.7-.7 1-1.4 1c-.9 0-1.6-.6-1.6-1.8zm2.5-.3c0-.7-.3-1.1-.9-1.1h-.1c-.4 0-.9.2-1 1.1h2zm3.1 1.5c.02 0 0 .6 0 .6h-.4v-4.9h.4s.02 1.92 0 1.9c.2-.4.7-.6 1.2-.6c.9 0 1.6.7 1.6 1.8c0 1.1-.7 1.8-1.6 1.8c-.5 0-1-.2-1.2-.6zm1.2.2c.7 0 1.1-.6 1.1-1.4c0-.7-.4-1.4-1.1-1.4h-.1c-.7 0-1.1.7-1.1 1.4c0 .8.4 1.4 1.1 1.4h.1zm2.4-1.4c0-1.2.7-1.8 1.5-1.8c.9 0 1.4.7 1.4 1.6c.03-.03 0 .2 0 .2c0 0-2.49.04-2.5 0c0 1 .5 1.4 1.1 1.4c.5 0 .8-.2 1-.6h.4c-.1.7-.7 1-1.4 1c-.9 0-1.5-.6-1.5-1.8zm2.5-.3c-.1-.7-.4-1.1-1-1.1c-.5 0-1 .2-1.1 1.1h2.1zm1.2.3c0-1.2.8-1.8 1.6-1.8c.8 0 1.4.7 1.4 1.6v.2s-2.52.04-2.5 0c0 1 .5 1.4 1.1 1.4c.5 0 .8-.2.9-.6h.5c-.2.7-.7 1-1.4 1c-.9 0-1.6-.6-1.6-1.8zm2.5-.3c0-.7-.3-1.1-.9-1.1h-.1c-.4 0-.9.2-1 1.1h2zm1.5 2.1V12h.4s.05.55 0 .5c.3-.3.7-.6 1.3-.6c.7 0 1.2.4 1.2 1.3v2.3h-.5s.04-2.19 0-2.2c0-.7-.2-1-.8-1c-.8 0-1.2.7-1.2 1.4c.05.01 0 1.8 0 1.8h-.4zm5.2 1.4V12h.5v.5c.2-.4.7-.6 1.2-.6c.9 0 1.5.7 1.5 1.8c0 1.1-.6 1.8-1.5 1.8c-.5 0-1-.2-1.2-.6v2h-.5zm1.7-1.8c.7 0 1.1-.6 1.1-1.4c0-.7-.4-1.4-1.1-1.4h-.1c-.7 0-1.1.7-1.1 1.4c0 .8.4 1.4 1.1 1.4h.1zm2.5.4V12h.4s.03.76 0 .8c.2-.6.6-.9 1.1-.9c.01.03.3 0 .3 0v.4s-.25.04-.3 0c-.6 0-1 .6-1 1.5c-.04-.04 0 1.7 0 1.7h-.5zm2.3-1.8c0-1.1.7-1.8 1.6-1.8c.9 0 1.6.7 1.6 1.8c0 1.1-.7 1.8-1.6 1.8c-.9 0-1.6-.7-1.6-1.8zm1.6 1.4c.7 0 1.2-.5 1.2-1.4c0-.9-.5-1.4-1.2-1.4c-.7 0-1.1.5-1.1 1.4c0 .9.4 1.4 1.1 1.4zm2.4-1.4c0-1.1.7-1.8 1.6-1.8c.4 0 .9.2 1.1.6c.03.02 0-1.9 0-1.9h.5v4.9h-.5s.03-.6 0-.6c-.2.4-.7.6-1.1.6c-.9 0-1.6-.7-1.6-1.8zm1.6 1.4c.8 0 1.1-.6 1.1-1.4c0-.7-.3-1.4-1.1-1.4c-.8 0-1.1.7-1.1 1.4c0 .8.3 1.4 1.1 1.4zm2.7-.8c.03-.03 0-2.3 0-2.3h.5s-.02 2.13 0 2.1c0 .7.3 1 .8 1h.1c.5 0 1-.4 1-1.3c.01.05 0-1.8 0-1.8h.5v3.5h-.5v-.7c-.2.5-.6.7-1.2.7c-.7 0-1.2-.5-1.2-1.2zm3.8-.6c0-1 .6-1.8 1.7-1.8c.7 0 1.2.4 1.3 1.2h-.4c-.1-.5-.4-.8-.9-.8h-.1c-.7 0-1.1.6-1.1 1.4c0 .8.4 1.4 1.1 1.4h.1c.5 0 .8-.3.9-.8h.4c-.1.8-.6 1.2-1.3 1.2c-1.1 0-1.7-.8-1.7-1.8zm3.8 0c0-1.2.7-1.8 1.5-1.8c.9 0 1.4.7 1.4 1.6c.04-.03 0 .2 0 .2c0 0-2.48.04-2.5 0c0 1 .5 1.4 1.1 1.4h.1c.4 0 .7-.2.9-.6h.4c-.1.7-.7 1-1.4 1c-.8 0-1.5-.6-1.5-1.8zm2.5-.3c0-.7-.4-1.1-.9-1.1h-.1c-.5 0-1 .2-1.1 1.1h2.1zm1.2.3c0-1.1.7-1.8 1.6-1.8c.5 0 1 .2 1.2.6c-.03.02 0-1.9 0-1.9h.4v4.9h-.4s-.03-.6 0-.6c-.2.4-.7.6-1.2.6c-.9 0-1.6-.7-1.6-1.8zm1.7 1.4c.7 0 1.1-.6 1.1-1.4c0-.7-.4-1.4-1.1-1.4h-.1c-.7 0-1.1.7-1.1 1.4c0 .8.4 1.4 1.1 1.4h.1zm3.9 1.8V12h.5s-.04.52 0 .5c.2-.4.7-.6 1.1-.6c.9 0 1.6.7 1.6 1.8c0 1.1-.7 1.8-1.6 1.8c-.4 0-.9-.2-1.1-.6c-.04 0 0 2 0 2h-.5zm1.6-1.8c.8 0 1.1-.6 1.1-1.4c0-.7-.3-1.4-1.1-1.4c-.8 0-1.1.7-1.1 1.4c0 .8.3 1.4 1.1 1.4zm2.6.4V12h.4v.8c.2-.6.6-.9 1.1-.9c-.02.03.3 0 .3 0v.4s-.29.04-.3 0c-.7 0-1.1.6-1.1 1.5c.03-.04 0 1.7 0 1.7h-.4zm2.5-4.2v-.6h.6v.6h-.6zm.1 4.2V12h.4v3.5h-.4zm1.4-1.8c0-1.1.7-1.8 1.6-1.8c.9 0 1.6.7 1.6 1.8c0 1.1-.7 1.8-1.6 1.8c-.9 0-1.6-.7-1.6-1.8zm1.6 1.4c.7 0 1.1-.5 1.1-1.4c0-.9-.4-1.4-1.1-1.4c-.7 0-1.2.5-1.2 1.4c0 .9.5 1.4 1.2 1.4zm2.6.4V12h.4s-.02.76 0 .8c.1-.6.6-.9 1.1-.9c-.03.03.3 0 .3 0v.4s-.3.04-.3 0c-.7 0-1.1.6-1.1 1.5c.02-.04 0 1.7 0 1.7h-.4zm4.7 0c-.4 0-.6-.2-.6-.7c-.02.03 0-2.5 0-2.5h-.8v-.3h.8v-1.2h.4v1.2h.9v.3h-.9s.03 2.5 0 2.5c0 .2.1.3.3.3c.01-.02.7 0 .7 0v.4s-.76-.04-.8 0zm1.3-1.8c0-1.1.7-1.8 1.6-1.8c.9 0 1.6.7 1.6 1.8c0 1.1-.7 1.8-1.6 1.8c-.9 0-1.6-.7-1.6-1.8zm1.6 1.4c.7 0 1.1-.5 1.1-1.4c0-.9-.4-1.4-1.1-1.4c-.7 0-1.2.5-1.2 1.4c0 .9.5 1.4 1.2 1.4zm4.8.4c-.5 0-.7-.2-.7-.7c.02.03 0-2.5 0-2.5h-.8v-.3h.8v-1.2h.5v1.2h.8v.3h-.8s-.03 2.5 0 2.5c0 .2 0 .3.3.3c-.05-.02.7 0 .7 0v.4s-.82-.04-.8 0zm1.5 0v-4.9h.5v2c.2-.5.7-.7 1.3-.7c.7 0 1.1.5 1.1 1.2c.04.05 0 2.4 0 2.4h-.4s-.01-2.21 0-2.2c0-.7-.3-1-.9-1c-.6 0-1.1.5-1.1 1.3v1.9h-.5zm3.9-1.8c0-1.2.8-1.8 1.6-1.8c.8 0 1.4.7 1.4 1.6c-.03-.03 0 .2 0 .2c0 0-2.55.04-2.6 0c.1 1 .6 1.4 1.1 1.4h.1c.5 0 .8-.2.9-.6h.5c-.2.7-.7 1-1.4 1c-.9 0-1.6-.6-1.6-1.8zm2.5-.3c0-.7-.4-1.1-.9-1.1h-.1c-.4 0-.9.2-1 1.1h2zm2.4.3c0-1 .6-1.8 1.6-1.8c.8 0 1.3.4 1.4 1.2h-.4c-.1-.5-.4-.8-.9-.8h-.1c-.8 0-1.1.6-1.1 1.4c0 .8.3 1.4 1.1 1.4h.1c.5 0 .8-.3.9-.8h.4c-.1.8-.6 1.2-1.4 1.2c-1 0-1.6-.8-1.6-1.8zm3.8 0c0-1.1.7-1.8 1.6-1.8c.9 0 1.6.7 1.6 1.8c0 1.1-.7 1.8-1.6 1.8c-.9 0-1.6-.7-1.6-1.8zm1.6 1.4c.6 0 1.1-.5 1.1-1.4c0-.9-.5-1.4-1.1-1.4h-.1c-.6 0-1.1.5-1.1 1.4c0 .9.5 1.4 1.1 1.4h.1zm2.5.4V12h.5v.5c.2-.3.6-.6 1.1-.6c.6 0 1 .2 1.2.7c.2-.5.6-.7 1.2-.7c.7 0 1.2.4 1.2 1.3c-.02-.03 0 2.3 0 2.3h-.5s.03-2.19 0-2.2c0-.7-.2-1-.8-1c-.7 0-1.1.7-1.1 1.4c.04.01 0 1.8 0 1.8h-.4s-.02-2.19 0-2.2c0-.7-.3-1-.8-1h-.1c-.7 0-1 .7-1 1.4c-.01.01 0 1.8 0 1.8h-.5zm6.3 1.4V12h.5v.5c.2-.4.7-.6 1.2-.6c.9 0 1.5.7 1.5 1.8c0 1.1-.6 1.8-1.5 1.8c-.5 0-1-.2-1.2-.6v2h-.5zm1.6-1.8c.8 0 1.2-.6 1.2-1.4c0-.7-.4-1.4-1.2-1.4c-.7 0-1.1.7-1.1 1.4c0 .8.4 1.4 1.1 1.4zm2.6.4v-4.9h.5v4.9h-.5zm1.4-1.8c0-1.2.8-1.8 1.6-1.8c.9 0 1.4.7 1.4 1.6v.2s-2.51.04-2.5 0c0 1 .5 1.4 1.1 1.4c.5 0 .8-.2 1-.6h.4c-.1.7-.7 1-1.4 1c-.9 0-1.6-.6-1.6-1.8zm2.6-.3c-.1-.7-.4-1.1-1-1.1c-.5 0-1 .2-1.1 1.1h2.1zm2.4 2.1c-.4 0-.7-.2-.7-.7c.04.03 0-2.5 0-2.5h-.8v-.3h.8v-1.2h.5v1.2h.9v.3h-.9v2.5c0 .2.1.3.3.3c-.02-.02.7 0 .7 0v.4s-.79-.04-.8 0zm1.5-4.2v-.6h.5v.6h-.5zm.1 4.2V12h.4v3.5h-.4zm1.4-1.8c0-1.1.7-1.8 1.6-1.8c.9 0 1.6.7 1.6 1.8c0 1.1-.7 1.8-1.6 1.8c-.9 0-1.6-.7-1.6-1.8zm1.6 1.4c.6 0 1.1-.5 1.1-1.4c0-.9-.5-1.4-1.1-1.4h-.1c-.6 0-1.1.5-1.1 1.4c0 .9.5 1.4 1.1 1.4h.1zm2.6.4V12h.4v.5c.2-.3.7-.6 1.2-.6c.7 0 1.3.4 1.3 1.3c-.04-.03 0 2.3 0 2.3h-.5s.01-2.19 0-2.2c0-.7-.3-1-.8-1h-.1c-.7 0-1.1.7-1.1 1.4c.01.01 0 1.8 0 1.8h-.4zm5-1.8c0-1.1.7-1.8 1.6-1.8c.9 0 1.6.7 1.6 1.8c0 1.1-.7 1.8-1.6 1.8c-.9 0-1.6-.7-1.6-1.8zm1.6 1.4c.7 0 1.1-.5 1.1-1.4c0-.9-.4-1.4-1.1-1.4c-.7 0-1.2.5-1.2 1.4c0 .9.5 1.4 1.2 1.4zm2.9.4v-3.2h-.8v-.3h.8v-.8c0-.5.2-.6.7-.6c-.04-.04.8 0 .8 0v.3s-.77.04-.8 0c-.2 0-.2.1-.2.3c-.05.02 0 .8 0 .8h.9v.3h-.9v3.2h-.5zm4.3 0c-.4 0-.6-.2-.6-.7c-.02.03 0-2.5 0-2.5h-.8v-.3h.8v-1.2h.4v1.2h.9v.3h-.9s.03 2.5 0 2.5c0 .2.1.3.3.3c.01-.02.7 0 .7 0v.4s-.76-.04-.8 0zm1.6 0v-4.9h.4s.05 1.95 0 2c.3-.5.7-.7 1.3-.7c.8 0 1.2.5 1.2 1.2v2.4h-.5s.04-2.21 0-2.2c0-.7-.2-1-.8-1h-.1c-.5 0-1.1.5-1.1 1.3c.05-.03 0 1.9 0 1.9h-.4zm3.8-1.8c0-1.2.8-1.8 1.6-1.8c.9 0 1.4.7 1.4 1.6c.02-.03 0 .2 0 .2c0 0-2.5.04-2.5 0c0 1 .5 1.4 1.1 1.4c.5 0 .8-.2 1-.6h.4c-.1.7-.7 1-1.4 1c-.9 0-1.6-.6-1.6-1.8zm2.6-.3c-.1-.7-.4-1.1-1-1.1c-.5 0-1 .2-1.1 1.1h2.1zm2.4.3c0-1.1.6-1.8 1.6-1.8c.4 0 .9.2 1.1.6c.02.02 0-1.9 0-1.9h.5v4.9h-.5s.02-.6 0-.6c-.2.4-.7.6-1.1.6c-1 0-1.6-.7-1.6-1.8zm1.6 1.4c.8 0 1.1-.6 1.1-1.4c0-.7-.3-1.4-1.1-1.4c-.8 0-1.1.7-1.1 1.4c0 .8.3 1.4 1.1 1.4zm2.6-1.4c0-1.2.7-1.8 1.5-1.8c.9 0 1.4.7 1.4 1.6c.03-.03 0 .2 0 .2c0 0-2.49.04-2.5 0c0 1 .5 1.4 1.1 1.4h.1c.4 0 .7-.2.9-.6h.4c-.1.7-.7 1-1.4 1c-.9 0-1.5-.6-1.5-1.8zm2.5-.3c0-.7-.4-1.1-1-1.1c-.5 0-1 .2-1.1 1.1h2.1zm3.7-1.4h.5l-1.4 3.5h-.5l-1.4-3.5h.5l1.2 3l1.1-3zm.9 1.7c0-1.2.8-1.8 1.6-1.8c.9 0 1.4.7 1.4 1.6c.02-.03 0 .2 0 .2c0 0-2.5.04-2.5 0c0 1 .5 1.4 1.1 1.4c.5 0 .8-.2 1-.6h.4c-.1.7-.7 1-1.4 1c-.9 0-1.6-.6-1.6-1.8zm2.6-.3c-.1-.7-.4-1.1-1-1.1c-.5 0-1 .2-1.1 1.1h2.1zm1.4 2.1v-4.9h.5v4.9h-.5zm1.4-1.8c0-1.1.7-1.8 1.6-1.8c1 0 1.7.7 1.7 1.8c0 1.1-.7 1.8-1.7 1.8c-.9 0-1.6-.7-1.6-1.8zm1.7 1.4c.6 0 1.1-.5 1.1-1.4c0-.9-.5-1.4-1.1-1.4h-.1c-.6 0-1.1.5-1.1 1.4c0 .9.5 1.4 1.1 1.4h.1zm2.5 1.8V12h.5s-.02.52 0 .5c.2-.4.7-.6 1.1-.6c1 0 1.6.7 1.6 1.8c0 1.1-.6 1.8-1.6 1.8c-.4 0-.9-.2-1.1-.6c-.02 0 0 2 0 2h-.5zm1.6-1.8c.8 0 1.1-.6 1.1-1.4c0-.7-.3-1.4-1.1-1.4c-.8 0-1.1.7-1.1 1.4c0 .8.3 1.4 1.1 1.4zm2.6.4V12h.4s.04.52 0 .5c.3-.3.7-.6 1.2-.6c.5 0 .9.2 1.1.7c.3-.5.7-.7 1.2-.7c.7 0 1.2.4 1.2 1.3c.03-.03 0 2.3 0 2.3h-.4s-.02-2.19 0-2.2c0-.7-.3-1-.8-1h-.1c-.7 0-1 .7-1 1.4c-.01.01 0 1.8 0 1.8h-.5s.04-2.19 0-2.2c0-.7-.2-1-.8-1c-.7 0-1.1.7-1.1 1.4c.04.01 0 1.8 0 1.8h-.4zm6.1-1.8c0-1.2.7-1.8 1.6-1.8c.8 0 1.4.7 1.4 1.6c-.03-.03 0 .2 0 .2c0 0-2.55.04-2.6 0c.1 1 .6 1.4 1.1 1.4h.1c.5 0 .8-.2.9-.6h.5c-.2.7-.7 1-1.4 1c-.9 0-1.6-.6-1.6-1.8zm2.5-.3c0-.7-.4-1.1-.9-1.1h-.1c-.4 0-.9.2-1 1.1h2zm1.5 2.1V12h.4s.02.55 0 .5c.2-.3.7-.6 1.2-.6c.7 0 1.3.4 1.3 1.3c-.03-.03 0 2.3 0 2.3h-.5s.01-2.19 0-2.2c0-.7-.3-1-.8-1h-.1c-.7 0-1.1.7-1.1 1.4c.02.01 0 1.8 0 1.8h-.4zm5 0c-.4 0-.7-.2-.7-.7c.04.03 0-2.5 0-2.5h-.8v-.3h.8v-1.2h.5v1.2h.9v.3h-.9v2.5c0 .2.1.3.3.3c-.02-.02.7 0 .7 0v.4s-.79-.04-.8 0zm1.6 0v-.7h.7v.7h-.7zm3.1 0v-4.9h.5v4.9h-.5zm1.8 0V12h.4v.5c.2-.3.7-.6 1.2-.6c.7 0 1.3.4 1.3 1.3c-.04-.03 0 2.3 0 2.3h-.5s.01-2.19 0-2.2c0-.7-.3-1-.8-1h-.1c-.7 0-1.1.7-1.1 1.4c.01.01 0 1.8 0 1.8h-.4zm4.4 0v-3.2h-.8v-.3h.8s-.04-.81 0-.8c0-.5.2-.6.6-.6c.02-.04.9 0 .9 0v.3s-.81.04-.8 0c-.2 0-.3.1-.3.3v.8h.9v.3h-.9v3.2h-.4zm1.8-1.8c0-1.1.7-1.8 1.6-1.8c.9 0 1.6.7 1.6 1.8c0 1.1-.7 1.8-1.6 1.8c-.9 0-1.6-.7-1.6-1.8zm1.6 1.4c.7 0 1.2-.5 1.2-1.4c0-.9-.5-1.4-1.2-1.4c-.7 0-1.1.5-1.1 1.4c0 .9.4 1.4 1.1 1.4zm2.6.4V12h.4v.8c.2-.6.6-.9 1.1-.9c-.01.03.3 0 .3 0v.4s-.27.04-.3 0c-.6 0-1.1.6-1.1 1.5c.04-.04 0 1.7 0 1.7h-.4zm2.6 0V12h.4s.04.52 0 .5c.2-.3.7-.6 1.2-.6c.5 0 .9.2 1.1.7c.2-.5.7-.7 1.2-.7c.7 0 1.2.4 1.2 1.3c.03-.03 0 2.3 0 2.3h-.4s-.03-2.19 0-2.2c0-.7-.3-1-.8-1h-.1c-.7 0-1 .7-1 1.4c-.02.01 0 1.8 0 1.8h-.5s.03-2.19 0-2.2c0-.7-.2-1-.8-1c-.7 0-1.1.7-1.1 1.4c.04.01 0 1.8 0 1.8h-.4zm6.1-1c0-.8.6-1 1.2-1.1c-.02.04 1.1 0 1.1 0v-.2c0-.6-.3-.9-.9-.9c-.5 0-.8.2-.9.6h-.5c.1-.6.6-1 1.4-1c.9 0 1.3.6 1.3 1.3v1.5c0 .2 0 .5.1.8h-.4c-.1-.2-.1-.4-.1-.6c-.1.3-.6.6-1.2.6c-.6 0-1.1-.4-1.1-1zm1.2.6c.5 0 1.1-.4 1.1-.9v-.5l-1 .1c-.5 0-.9.3-.9.7c0 .4.3.6.7.6h.1zm3.7.4c-.5 0-.7-.2-.7-.7v-2.5h-.8v-.3h.8v-1.2h.5v1.2h.8v.3h-.8s-.04 2.5 0 2.5c0 .2 0 .3.2.3c.04-.02.7 0 .7 0v.4s-.73-.04-.7 0zm1.5-4.2v-.6h.5v.6h-.5zm0 4.2V12h.5v3.5h-.5zm1.4-1.8c0-1.1.7-1.8 1.6-1.8c.9 0 1.6.7 1.6 1.8c0 1.1-.7 1.8-1.6 1.8c-.9 0-1.6-.7-1.6-1.8zm1.7 1.4c.6 0 1.1-.5 1.1-1.4c0-.9-.5-1.4-1.1-1.4h-.1c-.6 0-1.1.5-1.1 1.4c0 .9.5 1.4 1.1 1.4h.1zm2.5.4V12h.5s-.03.55 0 .5c.2-.3.6-.6 1.2-.6c.7 0 1.2.4 1.2 1.3c.02-.03 0 2.3 0 2.3h-.4s-.03-2.19 0-2.2c0-.7-.3-1-.9-1c-.8 0-1.1.7-1.1 1.4c-.03.01 0 1.8 0 1.8h-.5zm3.8.8v-.3h.2c.3 0 .4-.2.4-.4c.03-.04 0-.1 0-.1h-.4v-.7h.7s.04.8 0 .8c0 .4-.2.7-.6.7c-.02-.04-.3 0-.3 0zm3.2-5v-.6h.5v.6h-.5zm.1 4.2V12h.4v3.5h-.4zm1.6 0V12h.4s.02.52 0 .5c.2-.3.6-.6 1.2-.6c.5 0 .9.2 1.1.7c.2-.5.7-.7 1.2-.7c.7 0 1.2.4 1.2 1.3v2.3h-.4s-.04-2.19 0-2.2c0-.7-.3-1-.8-1h-.1c-.7 0-1 .7-1 1.4c-.03.01 0 1.8 0 1.8h-.5s.01-2.19 0-2.2c0-.7-.3-1-.8-1c-.7 0-1.1.7-1.1 1.4c.02.01 0 1.8 0 1.8h-.4zm6.1-1c0-.8.6-1 1.2-1.1c-.03.04 1.1 0 1.1 0c0 0-.03-.18 0-.2c0-.6-.4-.9-.9-.9c-.5 0-.9.2-.9.6h-.5c.1-.6.6-1 1.4-1c.9 0 1.3.6 1.3 1.3v1.5c0 .2 0 .5.1.8h-.5v-.6c-.1.3-.6.6-1.2.6c-.6 0-1.1-.4-1.1-1zm1.2.6c.5 0 1.1-.4 1.1-.9c-.03 0 0-.5 0-.5l-1 .1c-.5 0-.9.3-.9.7c0 .4.3.6.7.6h.1zm2.4.8h.4c.1.5.5.7 1.1.7h.1c.6 0 1.1-.3 1.1-1.2v-.6c-.2.4-.6.7-1.1.7c-.9 0-1.5-.7-1.5-1.8c0-1.1.6-1.8 1.5-1.8c.5 0 .9.2 1.1.6c.03.02 0-.5 0-.5h.5s-.02 3.43 0 3.4c0 .9-.6 1.6-1.6 1.6c-1 0-1.5-.4-1.6-1.1zm1.6-.8c.7 0 1.1-.5 1.1-1.4c0-.9-.4-1.4-1.1-1.4c-.7 0-1.1.5-1.1 1.4c0 .9.4 1.4 1.1 1.4zm2.6-1.4c0-1.2.7-1.8 1.5-1.8c.9 0 1.4.7 1.4 1.6c.04-.03 0 .2 0 .2c0 0-2.48.04-2.5 0c0 1 .5 1.4 1.1 1.4h.1c.4 0 .7-.2.9-.6h.4c-.1.7-.7 1-1.4 1c-.9 0-1.5-.6-1.5-1.8zm2.5-.3c0-.7-.4-1.1-.9-1.1h-.1c-.5 0-1 .2-1.1 1.1h2.1zm1.2 1h.4c.1.5.5.7.9.7h.1c.5 0 .8-.2.8-.6c0-.3-.1-.4-.6-.5l-.5-.1c-.5-.1-1-.4-1-1c0-.6.6-1 1.3-1c.9 0 1.3.5 1.3 1.1h-.5c0-.4-.3-.7-.8-.7h-.1c-.4 0-.7.3-.7.6c0 .3.2.4.6.5l.6.2c.5.1.9.3.9.9c0 .6-.5 1-1.3 1c-.9 0-1.4-.4-1.4-1.1zm4.7.1c0-.8.6-1 1.2-1.1c-.04.04 1.1 0 1.1 0c0 0-.03-.18 0-.2c0-.6-.4-.9-.9-.9c-.5 0-.9.2-.9.6h-.5c.1-.6.6-1 1.4-1c.9 0 1.3.6 1.3 1.3v1.5c0 .2 0 .5.1.8h-.5v-.6c-.1.3-.6.6-1.2.6c-.7 0-1.1-.4-1.1-1zm1.2.6c.5 0 1.1-.4 1.1-.9c-.03 0 0-.5 0-.5l-1 .1c-.5 0-.9.3-.9.7c0 .4.3.6.7.6h.1zm2.7.4V12h.4v.5c.2-.3.7-.6 1.2-.6c.7 0 1.3.4 1.3 1.3c-.04-.03 0 2.3 0 2.3h-.5s.01-2.19 0-2.2c0-.7-.3-1-.8-1h-.1c-.7 0-1.1.7-1.1 1.4c.01.01 0 1.8 0 1.8h-.4zm3.8-1.8c0-1.1.7-1.8 1.6-1.8c.4 0 .9.2 1.1.6c.05.02 0-1.9 0-1.9h.5v4.9h-.5s.05-.6 0-.6c-.2.4-.7.6-1.1.6c-.9 0-1.6-.7-1.6-1.8zm1.6 1.4c.8 0 1.1-.6 1.1-1.4c0-.7-.3-1.4-1.1-1.4c-.8 0-1.1.7-1.1 1.4c0 .8.3 1.4 1.1 1.4zm3.8-.6c0-.8.6-1 1.2-1.1c-.02.04 1.1 0 1.1 0v-.2c0-.6-.3-.9-.9-.9c-.5 0-.8.2-.9.6h-.5c.1-.6.6-1 1.4-1c.9 0 1.3.6 1.3 1.3v1.5c0 .2 0 .5.1.8h-.4c-.1-.2-.1-.4-.1-.6c-.1.3-.6.6-1.2.6c-.6 0-1.1-.4-1.1-1zm1.2.6c.5 0 1.1-.4 1.1-.9v-.5l-1 .1c-.5 0-.9.3-.9.7c0 .4.3.6.7.6h.1zm2.7.4V12h.4v.8c.2-.6.6-.9 1.1-.9c-.02.03.3 0 .3 0v.4s-.28.04-.3 0c-.7 0-1.1.6-1.1 1.5c.03-.04 0 1.7 0 1.7h-.4zm3.8 0c-.5 0-.7-.2-.7-.7c.03.03 0-2.5 0-2.5h-.8v-.3h.8v-1.2h.5v1.2h.9v.3h-.9s-.01 2.5 0 2.5c0 .2.1.3.3.3c-.03-.02.7 0 .7 0v.4s-.8-.04-.8 0zm1.5-4.2v-.6h.5v.6h-.5zm.1 4.2V12h.4v3.5h-.4zm1.3-1.1h.5c0 .5.4.7.9.7c.5 0 .8-.2.8-.6c0-.3-.1-.4-.6-.5l-.5-.1c-.5-.1-.9-.4-.9-1c0-.6.5-1 1.2-1c.9 0 1.3.5 1.3 1.1h-.4c-.1-.4-.4-.7-.9-.7c-.5 0-.8.3-.8.6c0 .3.2.4.6.5l.6.2c.5.1.9.3.9.9c0 .6-.5 1-1.3 1c-.9 0-1.3-.4-1.4-1.1zm4.8 1.1c-.5 0-.7-.2-.7-.7v-2.5h-.8v-.3h.8v-1.2h.5v1.2h.8v.3h-.8s-.04 2.5 0 2.5c0 .2 0 .3.2.3c.04-.02.7 0 .7 0v.4s-.73-.04-.7 0zm2.7-4.2v-.6h.5v.6h-.5zm0 4.2V12h.5v3.5h-.5zm1.6 0V12h.5s-.02.52 0 .5c.2-.3.6-.6 1.1-.6c.5 0 1 .2 1.1.7c.3-.5.7-.7 1.3-.7c.7 0 1.2.4 1.2 1.3c-.03-.03 0 2.3 0 2.3h-.5s.01-2.19 0-2.2c0-.7-.3-1-.8-1c-.7 0-1.1.7-1.1 1.4c.02.01 0 1.8 0 1.8h-.4s-.03-2.19 0-2.2c0-.7-.3-1-.8-1h-.1c-.7 0-1 .7-1 1.4c-.02.01 0 1.8 0 1.8h-.5zm6.3 1.4V12h.5s-.03.52 0 .5c.2-.4.7-.6 1.1-.6c1 0 1.6.7 1.6 1.8c0 1.1-.6 1.8-1.6 1.8c-.4 0-.9-.2-1.1-.6c-.03 0 0 2 0 2h-.5zm1.6-1.8c.8 0 1.1-.6 1.1-1.4c0-.7-.3-1.4-1.1-1.4c-.8 0-1.1.7-1.1 1.4c0 .8.3 1.4 1.1 1.4zm2.6.4V12h.4v.8c.2-.6.6-.9 1.1-.9c-.01.03.3 0 .3 0v.4s-.28.04-.3 0c-.7 0-1.1.6-1.1 1.5c.04-.04 0 1.7 0 1.7h-.4zm2.3-1.8c0-1.2.7-1.8 1.6-1.8c.8 0 1.4.7 1.4 1.6c-.03-.03 0 .2 0 .2c0 0-2.55.04-2.6 0c.1 1 .6 1.4 1.1 1.4h.1c.5 0 .8-.2.9-.6h.5c-.2.7-.7 1-1.4 1c-.9 0-1.6-.6-1.6-1.8zm2.5-.3c0-.7-.4-1.1-.9-1.1h-.1c-.4 0-.9.2-1 1.1h2zm1.2 1h.5c0 .5.4.7.9.7c.5 0 .8-.2.8-.6c0-.3-.1-.4-.6-.5l-.5-.1c-.5-.1-.9-.4-.9-1c0-.6.5-1 1.2-1c.9 0 1.3.5 1.3 1.1h-.4c-.1-.4-.4-.7-.9-.7c-.5 0-.8.3-.8.6c0 .3.2.4.7.5l.5.2c.5.1.9.3.9.9c0 .6-.5 1-1.3 1c-.9 0-1.3-.4-1.4-1.1zm3.5 0h.4c.1.5.4.7.9.7h.1c.5 0 .8-.2.8-.6c0-.3-.2-.4-.6-.5l-.5-.1c-.6-.1-1-.4-1-1c0-.6.6-1 1.3-1c.8 0 1.2.5 1.3 1.1h-.5c0-.4-.3-.7-.8-.7h-.1c-.5 0-.7.3-.7.6c0 .3.1.4.6.5l.5.2c.5.1.9.3.9.9c0 .6-.5 1-1.2 1c-1 0-1.4-.4-1.4-1.1zm3.6-3.1v-.6h.5v.6h-.5zm0 4.2V12h.5v3.5h-.5zm1.4-1.8c0-1.1.8-1.8 1.7-1.8c.9 0 1.6.7 1.6 1.8c0 1.1-.7 1.8-1.6 1.8c-.9 0-1.7-.7-1.7-1.8zm1.7 1.4c.6 0 1.1-.5 1.1-1.4c0-.9-.5-1.4-1.1-1.4h-.1c-.6 0-1.1.5-1.1 1.4c0 .9.5 1.4 1.1 1.4h.1zm2.5.4V12h.5v.5c.2-.3.6-.6 1.2-.6c.7 0 1.2.4 1.2 1.3c.04-.03 0 2.3 0 2.3h-.4s-.02-2.19 0-2.2c0-.7-.3-1-.9-1c-.8 0-1.1.7-1.1 1.4c-.01.01 0 1.8 0 1.8h-.5zm3.8-1.1h.5c0 .5.4.7.9.7h.1c.4 0 .7-.2.7-.6c0-.3-.1-.4-.6-.5l-.5-.1c-.5-.1-.9-.4-.9-1c0-.6.5-1 1.2-1c.9 0 1.3.5 1.3 1.1h-.4c-.1-.4-.4-.7-.8-.7h-.1c-.5 0-.8.3-.8.6c0 .3.2.4.7.5l.5.2c.5.1.9.3.9.9c0 .6-.5 1-1.3 1c-.9 0-1.3-.4-1.4-1.1zm4.7-.7c0-1.1.7-1.8 1.6-1.8c.9 0 1.6.7 1.6 1.8c0 1.1-.7 1.8-1.6 1.8c-.9 0-1.6-.7-1.6-1.8zm1.6 1.4c.7 0 1.1-.5 1.1-1.4c0-.9-.4-1.4-1.1-1.4c-.7 0-1.2.5-1.2 1.4c0 .9.5 1.4 1.2 1.4zm2.9.4v-3.2h-.8v-.3h.8v-.8c0-.5.2-.6.7-.6c-.05-.04.8 0 .8 0v.3s-.78.04-.8 0c-.2 0-.3.1-.3.3c.04.02 0 .8 0 .8h1v.3h-1v3.2h-.4zm3.1-1.8c0-1.2.8-1.8 1.6-1.8c.8 0 1.4.7 1.4 1.6c-.02-.03 0 .2 0 .2c0 0-2.54.04-2.5 0c0 1 .5 1.4 1.1 1.4c.5 0 .8-.2.9-.6h.5c-.2.7-.7 1-1.4 1c-.9 0-1.6-.6-1.6-1.8zm2.5-.3c0-.7-.4-1.1-.9-1.1h-.1c-.4 0-.9.2-1 1.1h2zm.9 2.1l1.4-1.8l-1.3-1.7h.5l1.1 1.3l1-1.3h.5l-1.3 1.7l1.4 1.8h-.6l-1.1-1.5l-1.1 1.5h-.5zm5.2 0c-.4 0-.6-.2-.6-.7c-.02.03 0-2.5 0-2.5h-.8v-.3h.8v-1.2h.4v1.2h.9v.3h-.9s.03 2.5 0 2.5c0 .2.1.3.3.3c.01-.02.7 0 .7 0v.4s-.76-.04-.8 0zm1.3-1.8c0-1.2.8-1.8 1.6-1.8c.8 0 1.4.7 1.4 1.6c-.02-.03 0 .2 0 .2c0 0-2.54.04-2.5 0c0 1 .5 1.4 1.1 1.4c.5 0 .8-.2.9-.6h.5c-.2.7-.7 1-1.4 1c-.9 0-1.6-.6-1.6-1.8zm2.5-.3c0-.7-.3-1.1-.9-1.1h-.1c-.4 0-.9.2-1 1.1h2zm1.5 2.1V12h.4v.8c.2-.6.6-.9 1.1-.9c-.02.03.3 0 .3 0v.4s-.28.04-.3 0c-.7 0-1.1.6-1.1 1.5c.03-.04 0 1.7 0 1.7h-.4zm2.5-4.2v-.6h.6v.6h-.6zm.1 4.2V12h.4v3.5h-.4zm1.4-1.8c0-1.1.7-1.8 1.6-1.8c.9 0 1.6.7 1.6 1.8c0 1.1-.7 1.8-1.6 1.8c-.9 0-1.6-.7-1.6-1.8zm1.6 1.4c.7 0 1.1-.5 1.1-1.4c0-.9-.4-1.4-1.1-1.4c-.7 0-1.2.5-1.2 1.4c0 .9.5 1.4 1.2 1.4zm2.6.4V12h.4s-.02.76 0 .8c.1-.6.6-.9 1.1-.9c-.03.03.3 0 .3 0v.4s-.3.04-.3 0c-.7 0-1.1.6-1.1 1.5c.02-.04 0 1.7 0 1.7h-.4zm3.5-1c0-.8.7-1 1.2-1.1c.03.04 1.1 0 1.1 0c0 0 .04-.18 0-.2c0-.6-.3-.9-.8-.9h-.1c-.4 0-.8.2-.8.6h-.5c0-.6.6-1 1.3-1c1 0 1.4.6 1.4 1.3v2.3h-.4v-.6c-.2.3-.7.6-1.3.6c-.6 0-1.1-.4-1.1-1zm1.3.6c.4 0 1-.4 1-.9c.04 0 0-.5 0-.5l-1 .1c-.5 0-.8.3-.8.7c0 .4.3.6.7.6h.1zm2.6.4V12h.5s-.02.55 0 .5c.2-.3.6-.6 1.2-.6c.7 0 1.2.4 1.2 1.3c.03-.03 0 2.3 0 2.3h-.4s-.02-2.19 0-2.2c0-.7-.3-1-.9-1c-.8 0-1.1.7-1.1 1.4c-.02.01 0 1.8 0 1.8h-.5zm3.9-1.8c0-1.1.6-1.8 1.5-1.8c.5 0 1 .2 1.2.6c.02.02 0-1.9 0-1.9h.5v4.9h-.5s.02-.6 0-.6c-.2.4-.7.6-1.2.6c-.9 0-1.5-.7-1.5-1.8zm1.6 1.4c.8 0 1.1-.6 1.1-1.4c0-.7-.3-1.4-1.1-1.4c-.8 0-1.2.7-1.2 1.4c0 .8.4 1.4 1.2 1.4zm3.9-3.8v-.6h.5v.6h-.5zm.1 4.2V12h.4v3.5h-.4zm1.6 0V12h.4s.02.55 0 .5c.2-.3.7-.6 1.2-.6c.7 0 1.3.4 1.3 1.3c-.03-.03 0 2.3 0 2.3h-.5s.02-2.19 0-2.2c0-.7-.3-1-.8-1h-.1c-.7 0-1.1.7-1.1 1.4c.02.01 0 1.8 0 1.8h-.4zm5 0c-.4 0-.7-.2-.7-.7c.05.03 0-2.5 0-2.5h-.8v-.3h.8v-1.2h.5v1.2h.9v.3h-.9v2.5c0 .2.1.3.3.3c-.02-.02.7 0 .7 0v.4s-.79-.04-.8 0zm1.3-1.8c0-1.2.7-1.8 1.5-1.8c.9 0 1.5.7 1.5 1.6c-.05-.03 0 .2 0 .2c0 0-2.57.04-2.6 0c0 1 .6 1.4 1.1 1.4h.1c.5 0 .8-.2.9-.6h.4c-.1.7-.6 1-1.4 1c-.8 0-1.5-.6-1.5-1.8zm2.5-.3c0-.7-.4-1.1-.9-1.1h-.1c-.4 0-1 .2-1.1 1.1h2.1zm1.4 2.1V12h.5s-.03.76 0 .8c.1-.6.6-.9 1.1-.9c-.05.03.3 0 .3 0v.4s-.31.04-.3 0c-.7 0-1.1.6-1.1 1.5v1.7h-.5zm2.6-4.2v-.6h.5v.6h-.5zm0 4.2V12h.5v3.5h-.5zm1.4-1.8c0-1.1.8-1.8 1.7-1.8c.9 0 1.6.7 1.6 1.8c0 1.1-.7 1.8-1.6 1.8c-.9 0-1.7-.7-1.7-1.8zm1.7 1.4c.6 0 1.1-.5 1.1-1.4c0-.9-.5-1.4-1.1-1.4h-.1c-.6 0-1.1.5-1.1 1.4c0 .9.5 1.4 1.1 1.4h.1zm2.5.4V12h.5s-.05.76 0 .8c.1-.6.6-.9 1-.9c.04.03.4 0 .4 0v.4s-.33.04-.3 0c-.7 0-1.1.6-1.1 1.5c-.01-.04 0 1.7 0 1.7h-.5zm2.4-1.1h.4c.1.5.4.7.9.7h.1c.5 0 .8-.2.8-.6c0-.3-.2-.4-.6-.5l-.5-.1c-.6-.1-1-.4-1-1c0-.6.6-1 1.3-1c.8 0 1.2.5 1.3 1.1h-.5c0-.4-.3-.7-.8-.7h-.1c-.5 0-.7.3-.7.6c0 .3.2.4.6.5l.5.2c.5.1.9.3.9.9c0 .6-.5 1-1.2 1c-.9 0-1.4-.4-1.4-1.1zm4.6.1c0-.8.7-1 1.2-1.1c.04.04 1.1 0 1.1 0c0 0 .05-.18 0-.2c0-.6-.3-.9-.8-.9h-.1c-.4 0-.8.2-.8.6h-.5c0-.6.6-1 1.4-1c.9 0 1.3.6 1.3 1.3v2.3h-.4v-.6c-.2.3-.6.6-1.3.6c-.6 0-1.1-.4-1.1-1zm1.3.6c.4 0 1-.4 1-.9c.05 0 0-.5 0-.5l-1 .1c-.5 0-.8.3-.8.7c0 .4.3.6.7.6h.1zm2.6.4V12h.5s-.04.76 0 .8c.1-.6.6-.9 1-.9c.04.03.4 0 .4 0v.4s-.32.04-.3 0c-.7 0-1.1.6-1.1 1.5c-.01-.04 0 1.7 0 1.7h-.5zm2.4-1.8c0-1.2.7-1.8 1.5-1.8c.9 0 1.4.7 1.4 1.6c.03-.03 0 .2 0 .2c0 0-2.49.04-2.5 0c0 1 .5 1.4 1.1 1.4c.5 0 .8-.2 1-.6h.4c-.1.7-.7 1-1.4 1c-.9 0-1.5-.6-1.5-1.8zm2.5-.3c0-.7-.4-1.1-1-1.1c-.5 0-1 .2-1.1 1.1h2.1zm2.6-2.1v-.6h.5v.6h-.5zm0 4.2V12h.5v3.5h-.5zm1.6 0V12h.5s-.03.55 0 .5c.2-.3.6-.6 1.2-.6c.7 0 1.2.4 1.2 1.3c.02-.03 0 2.3 0 2.3h-.4s-.03-2.19 0-2.2c0-.7-.3-1-.9-1c-.8 0-1.1.7-1.1 1.4c-.03.01 0 1.8 0 1.8h-.5zm5.1 0c-.5 0-.7-.2-.7-.7v-2.5h-.8v-.3h.8v-1.2h.5v1.2h.8v.3h-.8s-.05 2.5 0 2.5c0 .2 0 .3.2.3c.03-.02.7 0 .7 0v.4s-.74-.04-.7 0zm1.2-1.8c0-1.2.8-1.8 1.6-1.8c.8 0 1.4.7 1.4 1.6v.2s-2.51.04-2.5 0c0 1 .5 1.4 1.1 1.4c.5 0 .8-.2.9-.6h.5c-.2.7-.7 1-1.4 1c-.9 0-1.6-.6-1.6-1.8zm2.6-.3c-.1-.7-.4-1.1-1-1.1c-.5 0-1 .2-1.1 1.1h2.1zm1.4 2.1V12h.5s-.05.55 0 .5c.2-.3.6-.6 1.2-.6c.7 0 1.2.4 1.2 1.3v2.3h-.5s.05-2.19 0-2.2c0-.7-.2-1-.8-1c-.8 0-1.1.7-1.1 1.4c-.05.01 0 1.8 0 1.8h-.5zm3.9-1.8c0-1.1.6-1.8 1.5-1.8c.5 0 1 .2 1.2.6v-1.9h.4v4.9h-.4v-.6c-.2.4-.7.6-1.2.6c-.9 0-1.5-.7-1.5-1.8zm1.6 1.4c.7 0 1.1-.6 1.1-1.4c0-.7-.4-1.4-1.1-1.4h-.1c-.7 0-1.1.7-1.1 1.4c0 .8.4 1.4 1.1 1.4h.1zm2.5-1.4c0-1.2.8-1.8 1.6-1.8c.8 0 1.4.7 1.4 1.6v.2s-2.52.04-2.5 0c0 1 .5 1.4 1.1 1.4c.5 0 .8-.2.9-.6h.5c-.2.7-.7 1-1.4 1c-.9 0-1.6-.6-1.6-1.8zm2.5-.3c0-.7-.3-1.1-.9-1.1h-.1c-.4 0-.9.2-1 1.1h2zm1.3.3c0-1.1.6-1.8 1.6-1.8c.4 0 .9.2 1.1.6c.03.02 0-1.9 0-1.9h.5v4.9h-.5s.03-.6 0-.6c-.2.4-.7.6-1.1.6c-1 0-1.6-.7-1.6-1.8zm1.6 1.4c.8 0 1.1-.6 1.1-1.4c0-.7-.3-1.4-1.1-1.4c-.8 0-1.1.7-1.1 1.4c0 .8.3 1.4 1.1 1.4z" stroke="none" fill="#dcddce"/></g><g id="Polygon23265"><path d="m8.9 5.5V.6s1.68-.04 1.7 0c1.3 0 2.2.9 2.2 2.4c0 1.6-.9 2.5-2.2 2.5c-.02-.04-1.7 0-1.7 0zm.5-.5s1.11.01 1.1 0c1.1 0 1.8-.7 1.8-2c0-1.3-.7-2-1.8-2c.01.01-1.1 0-1.1 0v4zm4.4-3.7v-.6h.5v.6h-.5zm0 4.2V2h.5v3.5h-.5zm1.4-1.1h.4c.1.5.5.7.9.7h.1c.5 0 .8-.2.8-.6c0-.3-.1-.4-.6-.5l-.5-.1c-.5-.1-1-.4-1-1c0-.6.6-1 1.3-1c.9 0 1.3.5 1.3 1.1h-.5c0-.4-.3-.7-.8-.7h-.1c-.4 0-.7.3-.7.6c0 .3.2.4.6.5l.6.2c.5.1.9.3.9.9c0 .6-.6 1-1.3 1c-.9 0-1.4-.4-1.4-1.1zm3.5-.7c0-1 .5-1.8 1.6-1.8c.7 0 1.3.4 1.3 1.2h-.4c-.1-.5-.4-.8-.9-.8h-.1c-.7 0-1.1.6-1.1 1.4c0 .8.4 1.4 1.1 1.4h.1c.5 0 .8-.3.9-.8h.4c-.1.8-.6 1.2-1.3 1.2c-1.1 0-1.6-.8-1.6-1.8zm3.9 1.8V.6h.4v4.9h-.4zm1.4-1c0-.8.7-1 1.2-1.1c.03.04 1.1 0 1.1 0c0 0 .03-.18 0-.2c0-.6-.3-.9-.8-.9h-.1c-.4 0-.8.2-.9.6h-.4c0-.6.6-1 1.3-1c.9 0 1.4.6 1.4 1.3v2.3h-.4v-.6c-.2.3-.7.6-1.3.6c-.6 0-1.1-.4-1.1-1zm1.2.6c.5 0 1.1-.4 1.1-.9c.03 0 0-.5 0-.5l-1 .1c-.5 0-.8.3-.8.7c0 .4.3.6.7.6zm2.7-3.8v-.6h.5v.6h-.5zm0 4.2V2h.5v3.5h-.5zm1.6 0V2h.5v.5c.2-.3.6-.6 1.1-.6c.6 0 1 .2 1.2.7c.2-.5.6-.7 1.2-.7c.7 0 1.2.4 1.2 1.3c-.02-.03 0 2.3 0 2.3h-.5s.03-2.19 0-2.2c0-.7-.2-1-.8-1c-.7 0-1.1.7-1.1 1.4c.04.01 0 1.8 0 1.8h-.4s-.02-2.19 0-2.2c0-.7-.3-1-.8-1h-.1c-.7 0-1 .7-1 1.4c-.01.01 0 1.8 0 1.8h-.5zm6.1-1.8c0-1.2.8-1.8 1.6-1.8c.9 0 1.4.7 1.4 1.6v.2s-2.51.04-2.5 0c0 1 .5 1.4 1.1 1.4c.5 0 .8-.2 1-.6h.4c-.1.7-.7 1-1.4 1c-.9 0-1.6-.6-1.6-1.8zm2.6-.3c-.1-.7-.4-1.1-1-1.1c-.5 0-1 .2-1.1 1.1h2.1zm1.4 2.1V2h.4s.03.76 0 .8c.2-.6.6-.9 1.1-.9c.01.03.3 0 .3 0v.4s-.25.04-.3 0c-.6 0-1 .6-1 1.5c-.04-.04 0 1.7 0 1.7h-.5zm2.6-2.8v-.7h.7v.7h-.7zm0 2.8v-.7h.7v.7h-.7zm4.3 0V1h-1.8v-.4h4.1v.4H47v4.5h-.5zm3.1 0V.6h.4s.02 1.95 0 2c.3-.5.7-.7 1.3-.7c.8 0 1.2.5 1.2 1.2c-.03.05 0 2.4 0 2.4h-.5s.02-2.21 0-2.2c0-.7-.3-1-.8-1h-.1c-.5 0-1.1.5-1.1 1.3c.02-.03 0 1.9 0 1.9h-.4zm3.8-1.8c0-1.2.8-1.8 1.6-1.8c.8 0 1.4.7 1.4 1.6v.2s-2.52.04-2.5 0c0 1 .5 1.4 1.1 1.4c.5 0 .8-.2.9-.6h.5c-.2.7-.7 1-1.4 1c-.9 0-1.6-.6-1.6-1.8zm2.5-.3c0-.7-.3-1.1-.9-1.1h-.1c-.4 0-.9.2-1 1.1h2zm2.7 3.5V2h.4s.03.52 0 .5c.2-.4.7-.6 1.2-.6c.9 0 1.6.7 1.6 1.8c0 1.1-.7 1.8-1.6 1.8c-.5 0-1-.2-1.2-.6c.03 0 0 2 0 2h-.4zm1.6-1.8c.7 0 1.1-.6 1.1-1.4c0-.7-.4-1.4-1.1-1.4c-.8 0-1.2.7-1.2 1.4c0 .8.4 1.4 1.2 1.4zm2.5-.8V2h.5s-.03 2.13 0 2.1c0 .7.2 1 .8 1h.1c.5 0 1-.4 1-1.3c-.01.05 0-1.8 0-1.8h.4v3.5h-.4v-.7c-.2.5-.6.7-1.2.7c-.8 0-1.2-.5-1.2-1.2zm4.5.6c-.03 0 0 .6 0 .6h-.5V.6h.5s-.03 1.92 0 1.9c.2-.4.7-.6 1.1-.6c.9 0 1.6.7 1.6 1.8c0 1.1-.7 1.8-1.6 1.8c-.4 0-.9-.2-1.1-.6zm1.1.2c.8 0 1.1-.6 1.1-1.4c0-.7-.3-1.4-1.1-1.4c-.8 0-1.1.7-1.1 1.4c0 .8.3 1.4 1.1 1.4zm2.6.4V.6h.4v4.9h-.4zm1.6-4.2v-.6h.5v.6h-.5zm0 4.2V2h.5v3.5h-.5zm1.4-1.8c0-1 .6-1.8 1.6-1.8c.8 0 1.3.4 1.4 1.2h-.5c0-.5-.4-.8-.8-.8h-.1c-.8 0-1.1.6-1.1 1.4c0 .8.3 1.4 1.1 1.4h.1c.4 0 .8-.3.8-.8h.5c-.1.8-.6 1.2-1.4 1.2c-1 0-1.6-.8-1.6-1.8zm3.8.8c0-.8.6-1 1.2-1.1c-.03.04 1.1 0 1.1 0c0 0-.02-.18 0-.2c0-.6-.4-.9-.9-.9c-.5 0-.9.2-.9.6h-.5c.1-.6.6-1 1.4-1c.9 0 1.3.6 1.3 1.3v1.5c0 .2 0 .5.1.8h-.4c-.1-.2-.1-.4-.1-.6c-.1.3-.6.6-1.2.6c-.6 0-1.1-.4-1.1-1zm1.2.6c.5 0 1.1-.4 1.1-.9c-.02 0 0-.5 0-.5l-1 .1c-.5 0-.9.3-.9.7c0 .4.3.6.7.6h.1zm3.7.4c-.5 0-.7-.2-.7-.7c-.01.03 0-2.5 0-2.5h-.8v-.3h.8V.8h.4v1.2h.9v.3h-.9s.05 2.5 0 2.5c0 .2.1.3.3.3c.03-.02.7 0 .7 0v.4s-.74-.04-.7 0zm1.5-4.2v-.6h.5v.6h-.5zm0 4.2V2h.5v3.5h-.5zm1.4-1.8c0-1.1.7-1.8 1.6-1.8c.9 0 1.6.7 1.6 1.8c0 1.1-.7 1.8-1.6 1.8c-.9 0-1.6-.7-1.6-1.8zm1.7 1.4c.6 0 1.1-.5 1.1-1.4c0-.9-.5-1.4-1.1-1.4h-.1c-.6 0-1.1.5-1.1 1.4c0 .9.5 1.4 1.1 1.4h.1zm2.5.4V2h.5s-.04.55 0 .5c.2-.3.6-.6 1.2-.6c.7 0 1.2.4 1.2 1.3v2.3h-.4s-.04-2.19 0-2.2c0-.7-.3-1-.9-1c-.8 0-1.1.7-1.1 1.4c-.04.01 0 1.8 0 1.8h-.5zm5.2-4.2v-.6h.5v.6h-.5zm.1 4.2V2h.4v3.5h-.4zm1.3-1.1h.5c0 .5.4.7.9.7h.1c.4 0 .7-.2.7-.6c0-.3-.1-.4-.6-.5l-.5-.1c-.5-.1-.9-.4-.9-1c0-.6.6-1 1.2-1c.9 0 1.3.5 1.3 1.1h-.4c-.1-.4-.4-.7-.8-.7h-.1c-.5 0-.8.3-.8.6c0 .3.2.4.7.5l.5.2c.5.1.9.3.9.9c0 .6-.5 1-1.3 1c-.9 0-1.3-.4-1.4-1.1zm4.9-3.1v-.6h.5v.6h-.5zm0 4.2V2h.4v3.5h-.4zm1.6 0V2h.5s-.04.55 0 .5c.2-.3.6-.6 1.2-.6c.7 0 1.2.4 1.2 1.3v2.3h-.4s-.04-2.19 0-2.2c0-.7-.3-1-.9-1c-.8 0-1.1.7-1.1 1.4c-.04.01 0 1.8 0 1.8h-.5zm5.1 0c-.5 0-.7-.2-.7-.7c-.01.03 0-2.5 0-2.5h-.8v-.3h.8V.8h.4v1.2h.9v.3h-.9s.05 2.5 0 2.5c0 .2.1.3.3.3c.03-.02.7 0 .7 0v.4s-.74-.04-.7 0zm1.2-1.8c0-1.2.8-1.8 1.6-1.8c.8 0 1.4.7 1.4 1.6v.2s-2.52.04-2.5 0c0 1 .5 1.4 1.1 1.4c.5 0 .8-.2.9-.6h.5c-.2.7-.7 1-1.4 1c-.9 0-1.6-.6-1.6-1.8zm2.5-.3c0-.7-.3-1.1-.9-1.1h-.1c-.4 0-.9.2-1 1.1h2zm1.5 2.1V2h.4s.05.55 0 .5c.2-.3.7-.6 1.3-.6c.7 0 1.2.4 1.2 1.3v2.3h-.5s.04-2.19 0-2.2c0-.7-.2-1-.8-1c-.8 0-1.2.7-1.2 1.4c.05.01 0 1.8 0 1.8h-.4zm3.8-1.8c0-1.1.7-1.8 1.6-1.8c.5 0 1 .2 1.2.6c-.02.02 0-1.9 0-1.9h.4v4.9h-.4s-.02-.6 0-.6c-.2.4-.7.6-1.2.6c-.9 0-1.6-.7-1.6-1.8zm1.7 1.4c.7 0 1.1-.6 1.1-1.4c0-.7-.4-1.4-1.1-1.4h-.1c-.7 0-1.1.7-1.1 1.4c0 .8.4 1.4 1.1 1.4h.1zm2.5-1.4c0-1.2.8-1.8 1.6-1.8c.8 0 1.4.7 1.4 1.6v.2s-2.53.04-2.5 0c0 1 .5 1.4 1.1 1.4c.5 0 .8-.2.9-.6h.5c-.2.7-.7 1-1.4 1c-.9 0-1.6-.6-1.6-1.8zm2.5-.3c0-.7-.3-1.1-.9-1.1h-.1c-.4 0-.9.2-1 1.1h2zm1.3.3c0-1.1.6-1.8 1.6-1.8c.4 0 .9.2 1.1.6c.02.02 0-1.9 0-1.9h.5v4.9h-.5s.02-.6 0-.6c-.2.4-.7.6-1.1.6c-1 0-1.6-.7-1.6-1.8zm1.6 1.4c.8 0 1.1-.6 1.1-1.4c0-.7-.3-1.4-1.1-1.4c-.8 0-1.1.7-1.1 1.4c0 .8.3 1.4 1.1 1.4zm3.8-.6c0-.8.6-1 1.2-1.1c-.05.04 1.1 0 1.1 0c0 0-.04-.18 0-.2c0-.6-.4-.9-.9-.9c-.5 0-.9.2-.9.6h-.5c.1-.6.6-1 1.4-1c.9 0 1.3.6 1.3 1.3v1.5c0 .2 0 .5.1.8h-.5v-.6c-.1.3-.6.6-1.2.6c-.7 0-1.1-.4-1.1-1zm1.2.6c.5 0 1.1-.4 1.1-.9c-.04 0 0-.5 0-.5l-1.1.1c-.5 0-.8.3-.8.7c0 .4.3.6.7.6h.1zm2.4-.7h.5c0 .5.4.7.9.7c.5 0 .8-.2.8-.6c0-.3-.1-.4-.6-.5l-.5-.1c-.5-.1-1-.4-1-1c0-.6.6-1 1.3-1c.9 0 1.3.5 1.3 1.1h-.4c-.1-.4-.4-.7-.9-.7c-.5 0-.8.3-.8.6c0 .3.2.4.6.5l.6.2c.5.1.9.3.9.9c0 .6-.5 1-1.3 1c-.9 0-1.4-.4-1.4-1.1zm4.7.1c0-.8.6-1 1.2-1.1c-.02.04 1.1 0 1.1 0c0 0-.02-.18 0-.2c0-.6-.4-.9-.9-.9c-.5 0-.9.2-.9.6h-.5c.1-.6.6-1 1.4-1c.9 0 1.3.6 1.3 1.3v1.5c0 .2 0 .5.1.8h-.4c-.1-.2-.1-.4-.1-.6c-.1.3-.6.6-1.2.6c-.6 0-1.1-.4-1.1-1zm1.2.6c.5 0 1.1-.4 1.1-.9c-.02 0 0-.5 0-.5l-1 .1c-.5 0-.9.3-.9.7c0 .4.3.6.7.6h.1zm3.6.8h.5c0 .5.5.7 1 .7h.1c.6 0 1.1-.3 1.1-1.2v-.6c-.2.4-.6.7-1.1.7c-.9 0-1.5-.7-1.5-1.8c0-1.1.6-1.8 1.5-1.8c.5 0 .9.2 1.1.6c.05.02 0-.5 0-.5h.5v3.4c0 .9-.6 1.6-1.6 1.6c-1 0-1.5-.4-1.6-1.1zm1.7-.8c.6 0 1-.5 1-1.4c0-.9-.4-1.4-1-1.4h-.1c-.6 0-1.1.5-1.1 1.4c0 .9.5 1.4 1.1 1.4h.1zm2.5-1.4c0-1.2.7-1.8 1.5-1.8c.9 0 1.5.7 1.5 1.6c-.04-.03 0 .2 0 .2c0 0-2.56.04-2.6 0c.1 1 .6 1.4 1.1 1.4h.1c.5 0 .8-.2.9-.6h.4c-.1.7-.6 1-1.4 1c-.8 0-1.5-.6-1.5-1.8zm2.5-.3c0-.7-.4-1.1-.9-1.1h-.1c-.4 0-1 .2-1 1.1h2zm1.5 2.1V2h.4v.5c.2-.3.7-.6 1.2-.6c.7 0 1.3.4 1.3 1.3c-.05-.03 0 2.3 0 2.3h-.5V3.3c0-.7-.3-1-.8-1h-.1c-.7 0-1.1.7-1.1 1.4v1.8h-.4zm3.8-1.8c0-1.2.8-1.8 1.6-1.8c.8 0 1.4.7 1.4 1.6c-.02-.03 0 .2 0 .2c0 0-2.54.04-2.5 0c0 1 .5 1.4 1.1 1.4c.5 0 .8-.2.9-.6h.5c-.2.7-.7 1-1.4 1c-.9 0-1.6-.6-1.6-1.8zm2.5-.3c0-.7-.4-1.1-.9-1.1h-.1c-.4 0-.9.2-1 1.1h2zm1.5 2.1V2h.4v.8c.2-.6.6-.9 1.1-.9c-.02.03.3 0 .3 0v.4s-.29.04-.3 0c-.7 0-1.1.6-1.1 1.5c.03-.04 0 1.7 0 1.7h-.4zm2.4-1c0-.8.6-1 1.2-1.1c-.04.04 1.1 0 1.1 0c0 0-.03-.18 0-.2c0-.6-.4-.9-.9-.9c-.5 0-.9.2-.9.6h-.5c.1-.6.6-1 1.4-1c.9 0 1.3.6 1.3 1.3v1.5c0 .2 0 .5.1.8h-.5v-.6c-.1.3-.6.6-1.2.6c-.7 0-1.1-.4-1.1-1zm1.2.6c.5 0 1.1-.4 1.1-.9c-.03 0 0-.5 0-.5l-1 .1c-.5 0-.9.3-.9.7c0 .4.3.6.7.6h.1zm2.7.4V.6h.4v4.9h-.4zm2.8-4.2v-.6h.5v.6h-.5zm0 4.2V2h.5v3.5h-.5zm1.6 0V2h.5s-.03.55 0 .5c.2-.3.6-.6 1.2-.6c.7 0 1.2.4 1.2 1.3c.02-.03 0 2.3 0 2.3h-.4s-.04-2.19 0-2.2c0-.7-.3-1-.9-1c-.8 0-1.1.7-1.1 1.4c-.03.01 0 1.8 0 1.8h-.5zm5.1 0c-.5 0-.7-.2-.7-.7c-.01.03 0-2.5 0-2.5h-.8v-.3h.8V.8h.4v1.2h.9v.3h-.9s.05 2.5 0 2.5c0 .2.1.3.3.3c.03-.02.7 0 .7 0v.4s-.74-.04-.7 0zm1.5 0V2h.4s.03.76 0 .8c.2-.6.6-.9 1.1-.9c.02.03.3 0 .3 0v.4s-.25.04-.2 0c-.7 0-1.1.6-1.1 1.5c-.03-.04 0 1.7 0 1.7h-.5zm2.3-1.8c0-1.1.7-1.8 1.6-1.8c.9 0 1.6.7 1.6 1.8c0 1.1-.7 1.8-1.6 1.8c-.9 0-1.6-.7-1.6-1.8zm1.6 1.4c.7 0 1.2-.5 1.2-1.4c0-.9-.5-1.4-1.2-1.4c-.7 0-1.1.5-1.1 1.4c0 .9.4 1.4 1.1 1.4zm2.4-1.4c0-1.1.7-1.8 1.6-1.8c.4 0 .9.2 1.1.6c.03.02 0-1.9 0-1.9h.5v4.9h-.5s.03-.6 0-.6c-.2.4-.7.6-1.1.6c-.9 0-1.6-.7-1.6-1.8zm1.6 1.4c.8 0 1.1-.6 1.1-1.4c0-.7-.3-1.4-1.1-1.4c-.8 0-1.1.7-1.1 1.4c0 .8.3 1.4 1.1 1.4zm2.7-.8c.03-.03 0-2.3 0-2.3h.5s-.02 2.13 0 2.1c0 .7.3 1 .8 1h.1c.5 0 1-.4 1-1.3c.01.05 0-1.8 0-1.8h.5v3.5h-.5v-.7c-.2.5-.6.7-1.2.7c-.7 0-1.2-.5-1.2-1.2zm3.8-.6c0-1 .6-1.8 1.7-1.8c.7 0 1.3.4 1.3 1.2h-.4c-.1-.5-.4-.8-.9-.8h-.1c-.7 0-1.1.6-1.1 1.4c0 .8.4 1.4 1.1 1.4h.1c.5 0 .8-.3.9-.8h.4c-.1.8-.6 1.2-1.3 1.2c-1.1 0-1.7-.8-1.7-1.8zm5 1.8c-.4 0-.6-.2-.6-.7c-.03.03 0-2.5 0-2.5h-.8v-.3h.8V.8h.4v1.2h.9v.3h-.9s.02 2.5 0 2.5c0 .2.1.3.3.3c0-.02.7 0 .7 0v.4s-.77-.04-.8 0zm1.6-4.2v-.6h.5v.6h-.5zm0 4.2V2h.4v3.5h-.4zm1.4-1.8c0-1.1.7-1.8 1.6-1.8c.9 0 1.6.7 1.6 1.8c0 1.1-.7 1.8-1.6 1.8c-.9 0-1.6-.7-1.6-1.8zm1.6 1.4c.7 0 1.2-.5 1.2-1.4c0-.9-.5-1.4-1.2-1.4c-.7 0-1.1.5-1.1 1.4c0 .9.4 1.4 1.1 1.4zm2.6.4V2h.4s.04.55 0 .5c.2-.3.7-.6 1.3-.6c.7 0 1.2.4 1.2 1.3v2.3h-.5s.03-2.19 0-2.2c0-.7-.2-1-.8-1c-.8 0-1.2.7-1.2 1.4c.04.01 0 1.8 0 1.8h-.4zm6.2 0c-.4 0-.6-.2-.6-.7c-.02.03 0-2.5 0-2.5h-.8v-.3h.8V.8h.4v1.2h.9v.3h-.9s.04 2.5 0 2.5c0 .2.1.3.3.3c.02-.02.7 0 .7 0v.4s-.75-.04-.8 0zm1.3-1.8c0-1.1.7-1.8 1.6-1.8c.9 0 1.6.7 1.6 1.8c0 1.1-.7 1.8-1.6 1.8c-.9 0-1.6-.7-1.6-1.8zm1.6 1.4c.7 0 1.1-.5 1.1-1.4c0-.9-.4-1.4-1.1-1.4c-.7 0-1.1.5-1.1 1.4c0 .9.4 1.4 1.1 1.4zm5.1.4V1h-1.8v-.4h4.1v.4H218v4.5h-.5zm2.4 0V2h.5s-.03.76 0 .8c.1-.6.6-.9 1.1-.9c-.05.03.3 0 .3 0v.4s-.31.04-.3 0c-.7 0-1.1.6-1.1 1.5v1.7h-.5zm2.6-4.2v-.6h.5v.6h-.5zm0 4.2V2h.5v3.5h-.5zm1.7 0V.6h.4v4.9h-.4zm1.4-1.8c0-1.1.7-1.8 1.6-1.8c.9 0 1.6.7 1.6 1.8c0 1.1-.7 1.8-1.6 1.8c-.9 0-1.6-.7-1.6-1.8zm1.6 1.4c.7 0 1.1-.5 1.1-1.4c0-.9-.4-1.4-1.1-1.4c-.7 0-1.2.5-1.2 1.4c0 .9.5 1.4 1.2 1.4zm2.3.8h.5c.1.5.5.7 1.1.7c.6 0 1.2-.3 1.2-1.2v-.6c-.3.4-.7.7-1.2.7c-.9 0-1.5-.7-1.5-1.8c0-1.1.6-1.8 1.5-1.8c.5 0 .9.2 1.2.6c-.05.02 0-.5 0-.5h.4s.01 3.43 0 3.4c0 .9-.6 1.6-1.6 1.6c-1 0-1.5-.4-1.6-1.1zm1.7-.8c.6 0 1.1-.5 1.1-1.4c0-.9-.5-1.4-1.1-1.4h-.1c-.6 0-1.1.5-1.1 1.4c0 .9.5 1.4 1.1 1.4h.1zm5.7-3.1l-1.5 3.3s.04.71 0 .7c0 .4-.2.6-.6.6c-.02.01-1.1 0-1.1 0v-.4s1.01.03 1 0c.2 0 .3 0 .3-.2v-.6L233.5 2h.5l1.2 2.8l1.2-2.8h.5zm1.7 1.7c0-1.1.7-1.8 1.6-1.8c.9 0 1.6.7 1.6 1.8c0 1.1-.7 1.8-1.6 1.8c-.9 0-1.6-.7-1.6-1.8zm1.6 1.4c.7 0 1.1-.5 1.1-1.4c0-.9-.4-1.4-1.1-1.4c-.7 0-1.2.5-1.2 1.4c0 .9.5 1.4 1.2 1.4zm2.6.4V2h.4s.02.55 0 .5c.2-.3.7-.6 1.2-.6c.7 0 1.3.4 1.3 1.3c-.03-.03 0 2.3 0 2.3h-.5s.02-2.19 0-2.2c0-.7-.3-1-.8-1h-.1c-.7 0-1.1.7-1.1 1.4c.02.01 0 1.8 0 1.8h-.4zm4 0V.6h.5v4.9h-.5zm4.6-3.5L250 5.3v.7c0 .4-.2.6-.7.6h-1v-.4s.96.03 1 0c.2 0 .2 0 .2-.2c.04-.05 0-.6 0-.6L248.1 2h.5l1.2 2.8L251 2h.4zm1.8 2.5c0-.8.6-1 1.2-1.1c-.04.04 1.1 0 1.1 0c0 0-.03-.18 0-.2c0-.6-.4-.9-.9-.9c-.5 0-.9.2-.9.6h-.5c.1-.6.6-1 1.4-1c.9 0 1.3.6 1.3 1.3v1.5c0 .2 0 .5.1.8h-.5v-.6c-.1.3-.6.6-1.2.6c-.7 0-1.1-.4-1.1-1zm1.2.6c.5 0 1.1-.4 1.1-.9c-.03 0 0-.5 0-.5l-1 .1c-.5 0-.9.3-.9.7c0 .4.3.6.7.6h.1zm2.7.4V2h.4v.5c.2-.3.7-.6 1.2-.6c.7 0 1.3.4 1.3 1.3c-.04-.03 0 2.3 0 2.3h-.5s.01-2.19 0-2.2c0-.7-.3-1-.8-1h-.1c-.7 0-1.1.7-1.1 1.4c.01.01 0 1.8 0 1.8h-.4zm3.8-1.8c0-1.1.7-1.8 1.6-1.8c.4 0 .9.2 1.1.6c.04.02 0-1.9 0-1.9h.5v4.9h-.5s.04-.6 0-.6c-.2.4-.7.6-1.1.6c-.9 0-1.6-.7-1.6-1.8zm1.6 1.4c.8 0 1.1-.6 1.1-1.4c0-.7-.3-1.4-1.1-1.4c-.8 0-1.1.7-1.1 1.4c0 .8.3 1.4 1.1 1.4zm3.8-1.4c0-1.1.6-1.8 1.5-1.8c.5 0 1 .2 1.2.6V.6h.5v4.9h-.5v-.6c-.2.4-.7.6-1.2.6c-.9 0-1.5-.7-1.5-1.8zm1.6 1.4c.7 0 1.1-.6 1.1-1.4c0-.7-.4-1.4-1.1-1.4h-.1c-.7 0-1.1.7-1.1 1.4c0 .8.4 1.4 1.1 1.4h.1zm2.5-1.4c0-1.1.7-1.8 1.6-1.8c.9 0 1.6.7 1.6 1.8c0 1.1-.7 1.8-1.6 1.8c-.9 0-1.6-.7-1.6-1.8zm1.7 1.4c.6 0 1.1-.5 1.1-1.4c0-.9-.5-1.4-1.1-1.4h-.1c-.6 0-1.1.5-1.1 1.4c0 .9.5 1.4 1.1 1.4h.1zm2.3-1.4c0-1.2.8-1.8 1.6-1.8c.8 0 1.4.7 1.4 1.6v.2s-2.53.04-2.5 0c0 1 .5 1.4 1.1 1.4c.5 0 .8-.2.9-.6h.5c-.2.7-.7 1-1.4 1c-.9 0-1.6-.6-1.6-1.8zm2.5-.3c0-.7-.3-1.1-.9-1.1h-.1c-.4 0-.9.2-1 1.1h2zm1.2 1h.5c0 .5.4.7.9.7h.1c.5 0 .8-.2.8-.6c0-.3-.2-.4-.7-.5l-.5-.1c-.5-.1-.9-.4-.9-1c0-.6.6-1 1.2-1c.9 0 1.3.5 1.4 1.1h-.5c0-.4-.3-.7-.8-.7h-.1c-.5 0-.8.3-.8.6c0 .3.2.4.7.5l.5.2c.5.1.9.3.9.9c0 .6-.5 1-1.3 1c-.9 0-1.3-.4-1.4-1.1zm4.9 1.1V2h.5s-.03.55 0 .5c.2-.3.6-.6 1.2-.6c.7 0 1.2.4 1.2 1.3c.02-.03 0 2.3 0 2.3h-.4s-.03-2.19 0-2.2c0-.7-.3-1-.9-1c-.8 0-1.1.7-1.1 1.4c-.03.01 0 1.8 0 1.8h-.5zm3.9-1.8c0-1.1.7-1.8 1.6-1.8c.9 0 1.6.7 1.6 1.8c0 1.1-.7 1.8-1.6 1.8c-.9 0-1.6-.7-1.6-1.8zm1.6 1.4c.6 0 1.1-.5 1.1-1.4c0-.9-.5-1.4-1.1-1.4h-.1c-.6 0-1.1.5-1.1 1.4c0 .9.5 1.4 1.1 1.4h.1zm3.5.4c-.4 0-.7-.2-.7-.7c.05.03 0-2.5 0-2.5h-.8v-.3h.8V.8h.5v1.2h.9v.3h-.9v2.5c0 .2.1.3.3.3c-.02-.02.7 0 .7 0v.4s-.79-.04-.8 0zm3.1 0V2.3h-.8v-.3h.8s.04-.81 0-.8c0-.5.3-.6.7-.6c.01-.04.9 0 .9 0v.3s-.82.04-.8 0c-.2 0-.3.1-.3.3v.8h.9v.3h-.9v3.2h-.5zm1.9-1.8c0-1.1.7-1.8 1.6-1.8c.9 0 1.6.7 1.6 1.8c0 1.1-.7 1.8-1.6 1.8c-.9 0-1.6-.7-1.6-1.8zm1.6 1.4c.7 0 1.1-.5 1.1-1.4c0-.9-.4-1.4-1.1-1.4c-.7 0-1.2.5-1.2 1.4c0 .9.5 1.4 1.2 1.4zm2.6.4V2h.4v.8c.2-.6.6-.9 1.1-.9c-.02.03.3 0 .3 0v.4s-.29.04-.3 0c-.7 0-1.1.6-1.1 1.5c.03-.04 0 1.7 0 1.7h-.4zm2.6 0V2h.4s.02.52 0 .5c.2-.3.6-.6 1.2-.6c.5 0 .9.2 1.1.7c.2-.5.7-.7 1.2-.7c.7 0 1.2.4 1.2 1.3v2.3h-.4s-.05-2.19 0-2.2c0-.7-.3-1-.9-1c-.7 0-1 .7-1 1.4c-.04.01 0 1.8 0 1.8h-.5s.01-2.19 0-2.2c0-.7-.3-1-.8-1c-.7 0-1.1.7-1.1 1.4c.02.01 0 1.8 0 1.8h-.4zm7.3-1c0-.8.6-1 1.2-1.1c-.04.04 1.1 0 1.1 0c0 0-.04-.18 0-.2c0-.6-.4-.9-.9-.9c-.5 0-.9.2-.9.6h-.5c.1-.6.6-1 1.4-1c.9 0 1.3.6 1.3 1.3v1.5c0 .2 0 .5.1.8h-.5v-.6c-.1.3-.6.6-1.2.6c-.7 0-1.1-.4-1.1-1zm1.2.6c.5 0 1.1-.4 1.1-.9c-.04 0 0-.5 0-.5l-1.1.1c-.5 0-.8.3-.8.7c0 .4.3.6.7.6h.1zm2.7.4V2h.4v.5c.2-.3.7-.6 1.2-.6c.7 0 1.3.4 1.3 1.3c-.04-.03 0 2.3 0 2.3h-.5V3.3c0-.7-.3-1-.8-1h-.1c-.7 0-1.1.7-1.1 1.4c.01.01 0 1.8 0 1.8h-.4zm5-1.8c0-1.1.7-1.8 1.6-1.8c.9 0 1.6.7 1.6 1.8c0 1.1-.7 1.8-1.6 1.8c-.9 0-1.6-.7-1.6-1.8zm1.6 1.4c.7 0 1.1-.5 1.1-1.4c0-.9-.4-1.4-1.1-1.4c-.7 0-1.2.5-1.2 1.4c0 .9.5 1.4 1.2 1.4zm2.9.4V2.3h-.8v-.3h.8s.02-.81 0-.8c0-.5.2-.6.7-.6c-.02-.04.9 0 .9 0v.3s-.85.04-.8 0c-.3 0-.3.1-.3.3c-.03.02 0 .8 0 .8h1.9s-.04-.81 0-.8c0-.5.2-.6.6-.6c.03-.04.9 0 .9 0v.3s-.8.04-.8 0c-.2 0-.3.1-.3.3c.02.02 0 .8 0 .8h.9v.3h-.9v3.2h-.4V2.3H325v3.2h-.5zm4.3-1.8c0-1.2.7-1.8 1.5-1.8c.9 0 1.4.7 1.4 1.6c.02-.03 0 .2 0 .2c0 0-2.5.04-2.5 0c0 1 .5 1.4 1.1 1.4c.5 0 .8-.2 1-.6h.4c-.1.7-.7 1-1.4 1c-.9 0-1.5-.6-1.5-1.8zm2.5-.3c-.1-.7-.4-1.1-1-1.1c-.5 0-1 .2-1.1 1.1h2.1zm1.4 2.1V2h.4s.04.76 0 .8c.2-.6.6-.9 1.1-.9c.02.03.3 0 .3 0v.4s-.24.04-.2 0c-.7 0-1.1.6-1.1 1.5c-.03-.04 0 1.7 0 1.7h-.5zm1.9.8v-.3h.2c.3 0 .4-.2.4-.4v-.1h-.4v-.7h.7s.02.8 0 .8c0 .4-.2.7-.6.7c-.05-.04-.3 0-.3 0zm2.9-.4h.5c.1.5.5.7 1.1.7h.1c.6 0 1.1-.3 1.1-1.2v-.6c-.2.4-.6.7-1.2.7c-.8 0-1.5-.7-1.5-1.8c0-1.1.7-1.8 1.5-1.8c.6 0 1 .2 1.2.6v-.5h.4s.05 3.43 0 3.4c0 .9-.6 1.6-1.6 1.6c-1 0-1.5-.4-1.6-1.1zm1.7-.8c.6 0 1.1-.5 1.1-1.4c0-.9-.5-1.4-1.1-1.4h-.1c-.6 0-1 .5-1 1.4c0 .9.4 1.4 1 1.4h.1zm2.7-.8V2h.4s.04 2.13 0 2.1c0 .7.3 1 .9 1h.1c.5 0 1-.4 1-1.3c-.03.05 0-1.8 0-1.8h.4v3.5h-.4s-.03-.7 0-.7c-.2.5-.6.7-1.2.7c-.8 0-1.2-.5-1.2-1.2zm3.8.2c0-.8.7-1 1.2-1.1c.01.04 1.1 0 1.1 0c0 0 .02-.18 0-.2c0-.6-.3-.9-.9-.9c-.4 0-.8.2-.9.6h-.4c0-.6.6-1 1.3-1c.9 0 1.4.6 1.4 1.3v2.3h-.4v-.6c-.2.3-.7.6-1.3.6c-.6 0-1.1-.4-1.1-1zm1.2.6c.5 0 1.1-.4 1.1-.9c.02 0 0-.5 0-.5l-1 .1c-.5 0-.8.3-.8.7c0 .4.3.6.7.6zm2.7.4V2h.4s.03.76 0 .8c.2-.6.6-.9 1.1-.9c.01.03.3 0 .3 0v.4s-.25.04-.3 0c-.6 0-1 .6-1 1.5c-.04-.04 0 1.7 0 1.7h-.5zm2.4-1c0-.8.7-1 1.2-1.1c0 .04 1.1 0 1.1 0v-.2c0-.6-.3-.9-.9-.9c-.5 0-.8.2-.9.6h-.4c0-.6.6-1 1.3-1c.9 0 1.4.6 1.4 1.3v2.3h-.4c-.1-.2-.1-.4-.1-.6c-.1.3-.6.6-1.2.6c-.6 0-1.1-.4-1.1-1zm1.2.6c.5 0 1.1-.4 1.1-.9v-.5l-1 .1c-.5 0-.9.3-.9.7c0 .4.3.6.7.6h.1zm2.7.4V2h.5s-.05.55 0 .5c.2-.3.6-.6 1.2-.6c.7 0 1.2.4 1.2 1.3v2.3h-.5s.05-2.19 0-2.2c0-.7-.2-1-.8-1c-.8 0-1.1.7-1.1 1.4c-.05.01 0 1.8 0 1.8h-.5zm5 0c-.4 0-.6-.2-.6-.7c-.02.03 0-2.5 0-2.5h-.8v-.3h.8V.8h.4v1.2h.9v.3h-.9s.03 2.5 0 2.5c0 .2.1.3.3.3c.01-.02.7 0 .7 0v.4s-.76-.04-.8 0zm1.3-1.8c0-1.2.8-1.8 1.6-1.8c.8 0 1.4.7 1.4 1.6c-.02-.03 0 .2 0 .2c0 0-2.54.04-2.5 0c0 1 .5 1.4 1.1 1.4c.5 0 .8-.2.9-.6h.5c-.2.7-.7 1-1.4 1c-.9 0-1.6-.6-1.6-1.8zm2.5-.3c0-.7-.3-1.1-.9-1.1h-.1c-.4 0-.9.2-1 1.1h2zm1.3.3c0-1.2.7-1.8 1.5-1.8c.9 0 1.5.7 1.5 1.6c-.04-.03 0 .2 0 .2c0 0-2.56.04-2.6 0c.1 1 .6 1.4 1.1 1.4h.1c.5 0 .8-.2.9-.6h.5c-.2.7-.7 1-1.5 1c-.8 0-1.5-.6-1.5-1.8zm2.5-.3c0-.7-.4-1.1-.9-1.1h-.1c-.4 0-.9.2-1 1.1h2zm2.4.3c0-1.1.7-1.8 1.6-1.8c.9 0 1.6.7 1.6 1.8c0 1.1-.7 1.8-1.6 1.8c-.9 0-1.6-.7-1.6-1.8zm1.7 1.4c.6 0 1.1-.5 1.1-1.4c0-.9-.5-1.4-1.1-1.4h-.1c-.6 0-1.1.5-1.1 1.4c0 .9.5 1.4 1.1 1.4h.1zm2.5.4V2h.4s.03.76 0 .8c.2-.6.6-.9 1.1-.9c.01.03.3 0 .3 0v.4s-.25.04-.3 0c-.6 0-1 .6-1 1.5c-.04-.04 0 1.7 0 1.7h-.5zm3.6-1.8c0-1 .5-1.8 1.6-1.8c.7 0 1.3.4 1.3 1.2h-.4c-.1-.5-.4-.8-.9-.8h-.1c-.7 0-1.1.6-1.1 1.4c0 .8.4 1.4 1.1 1.4h.1c.5 0 .8-.3.9-.8h.4c-.1.8-.6 1.2-1.3 1.2c-1.1 0-1.6-.8-1.6-1.8zm3.7 0c0-1.1.7-1.8 1.6-1.8c.9 0 1.6.7 1.6 1.8c0 1.1-.7 1.8-1.6 1.8c-.9 0-1.6-.7-1.6-1.8zm1.6 1.4c.7 0 1.1-.5 1.1-1.4c0-.9-.4-1.4-1.1-1.4c-.7 0-1.2.5-1.2 1.4c0 .9.5 1.4 1.2 1.4zm2.6.4V2h.4s.02.55 0 .5c.2-.3.7-.6 1.2-.6c.7 0 1.3.4 1.3 1.3c-.03-.03 0 2.3 0 2.3h-.5s.01-2.19 0-2.2c0-.7-.3-1-.8-1h-.1c-.7 0-1.1.7-1.1 1.4c.02.01 0 1.8 0 1.8h-.4zm5 0c-.4 0-.7-.2-.7-.7c.04.03 0-2.5 0-2.5h-.8v-.3h.8V.8h.5v1.2h.9v.3h-.9v2.5c0 .2.1.3.3.3c-.02-.02.7 0 .7 0v.4s-.79-.04-.8 0zm1.6 0V2h.4s-.02.76 0 .8c.1-.6.6-.9 1.1-.9c-.03.03.3 0 .3 0v.4s-.3.04-.3 0c-.7 0-1.1.6-1.1 1.5c.02-.04 0 1.7 0 1.7h-.4zm2.3-1c0-.8.7-1 1.3-1.1c-.05.04 1.1 0 1.1 0c0 0-.04-.18 0-.2c0-.6-.4-.9-.9-.9h-.1c-.4 0-.8.2-.8.6h-.5c.1-.6.6-1 1.4-1c.9 0 1.3.6 1.3 1.3v2.3h-.4v-.6c-.1.3-.6.6-1.2.6c-.7 0-1.2-.4-1.2-1zm1.3.6c.5 0 1.1-.4 1.1-.9c-.04 0 0-.5 0-.5l-1.1.1c-.5 0-.8.3-.8.7c0 .4.3.6.7.6h.1zm2.4-1.4c0-1 .6-1.8 1.7-1.8c.7 0 1.2.4 1.3 1.2h-.4c-.1-.5-.4-.8-.9-.8h-.1c-.7 0-1.1.6-1.1 1.4c0 .8.4 1.4 1.1 1.4h.1c.5 0 .8-.3.9-.8h.4c-.1.8-.6 1.2-1.3 1.2c-1.1 0-1.7-.8-1.7-1.8zm5 1.8c-.4 0-.6-.2-.6-.7c-.03.03 0-2.5 0-2.5h-.8v-.3h.8V.8h.4v1.2h.9v.3h-.9s.02 2.5 0 2.5c0 .2.1.3.3.3c0-.02.7 0 .7 0v.4s-.77-.04-.8 0zm1.6 0v-.7h.7v.7h-.7zm3.1 0V.6h.5v4.9h-.5zm1.8 0V2h.4s.03.55 0 .5c.2-.3.7-.6 1.3-.6c.7 0 1.2.4 1.2 1.3c-.02-.03 0 2.3 0 2.3h-.5s.03-2.19 0-2.2c0-.7-.3-1-.8-1h-.1c-.7 0-1.1.7-1.1 1.4c.03.01 0 1.8 0 1.8h-.4zm5 0c-.4 0-.6-.2-.6-.7c-.04.03 0-2.5 0-2.5h-.8v-.3h.8V.8h.4v1.2h.9v.3h-.9s.02 2.5 0 2.5c0 .2.1.3.3.3c0-.02.7 0 .7 0v.4s-.77-.04-.8 0zm1.3-1.8c0-1.2.7-1.8 1.6-1.8c.8 0 1.4.7 1.4 1.6c-.03-.03 0 .2 0 .2c0 0-2.55.04-2.6 0c.1 1 .6 1.4 1.1 1.4h.1c.5 0 .8-.2.9-.6h.5c-.2.7-.7 1-1.4 1c-.9 0-1.6-.6-1.6-1.8zm2.5-.3c0-.7-.4-1.1-.9-1.1h-.1c-.4 0-.9.2-1 1.1h2zm1.5 2.1V2h.4s-.02.76 0 .8c.1-.6.6-.9 1.1-.9c-.03.03.3 0 .3 0v.4s-.3.04-.3 0c-.7 0-1.1.6-1.1 1.5c.02-.04 0 1.7 0 1.7h-.4zm2.3-1.8c0-1.2.7-1.8 1.5-1.8c.9 0 1.4.7 1.4 1.6c.05-.03 0 .2 0 .2c0 0-2.47.04-2.5 0c0 1 .6 1.4 1.1 1.4h.1c.4 0 .8-.2.9-.6h.4c-.1.7-.7 1-1.4 1c-.8 0-1.5-.6-1.5-1.8zm2.5-.3c0-.7-.4-1.1-.9-1.1h-.1c-.4 0-1 .2-1.1 1.1h2.1zm1.2 1h.5c0 .5.4.7.9.7c.5 0 .8-.2.8-.6c0-.3-.1-.4-.6-.5l-.5-.1c-.5-.1-1-.4-1-1c0-.6.6-1 1.3-1c.9 0 1.3.5 1.3 1.1h-.4c-.1-.4-.4-.7-.9-.7c-.5 0-.8.3-.8.6c0 .3.2.4.6.5l.6.2c.5.1.9.3.9.9c0 .6-.5 1-1.3 1c-.9 0-1.4-.4-1.4-1.1zm4.7 1.1c-.4 0-.6-.2-.6-.7c-.01.03 0-2.5 0-2.5h-.8v-.3h.8V.8h.4v1.2h.9v.3h-.9s.04 2.5 0 2.5c0 .2.1.3.3.3c.02-.02.7 0 .7 0v.4s-.75-.04-.8 0zm1.3-1.8c0-1.2.8-1.8 1.6-1.8c.8 0 1.4.7 1.4 1.6v.2s-2.53.04-2.5 0c0 1 .5 1.4 1.1 1.4c.5 0 .8-.2.9-.6h.5c-.2.7-.7 1-1.4 1c-.9 0-1.6-.6-1.6-1.8zm2.5-.3c0-.7-.3-1.1-.9-1.1h-.1c-.4 0-.9.2-1 1.1h2zm1.3.3c0-1.1.6-1.8 1.6-1.8c.4 0 .9.2 1.1.6c.02.02 0-1.9 0-1.9h.5v4.9h-.5s.02-.6 0-.6c-.2.4-.7.6-1.1.6c-1 0-1.6-.7-1.6-1.8zm1.6 1.4c.8 0 1.1-.6 1.1-1.4c0-.7-.3-1.4-1.1-1.4c-.8 0-1.1.7-1.1 1.4c0 .8.3 1.4 1.1 1.4zm4 1.8V2h.4v.5c.2-.4.7-.6 1.2-.6c.9 0 1.5.7 1.5 1.8c0 1.1-.6 1.8-1.5 1.8c-.5 0-1-.2-1.2-.6v2h-.4zm1.6-1.8c.7 0 1.1-.6 1.1-1.4c0-.7-.4-1.4-1.1-1.4h-.1c-.7 0-1.1.7-1.1 1.4c0 .8.4 1.4 1.1 1.4h.1zm2.3-.6c0-.8.7-1 1.2-1.1c.02.04 1.1 0 1.1 0c0 0 .03-.18 0-.2c0-.6-.3-.9-.9-.9c-.4 0-.8.2-.9.6h-.4c0-.6.6-1 1.3-1c.9 0 1.4.6 1.4 1.3v2.3h-.4v-.6c-.2.3-.7.6-1.3.6c-.6 0-1.1-.4-1.1-1zm1.2.6c.5 0 1.1-.4 1.1-.9c.03 0 0-.5 0-.5l-1 .1c-.5 0-.8.3-.8.7c0 .4.3.6.7.6zm2.7.4V2h.4s.04.76 0 .8c.2-.6.6-.9 1.1-.9c.02.03.3 0 .3 0v.4s-.24.04-.2 0c-.7 0-1.1.6-1.1 1.5c-.03-.04 0 1.7 0 1.7h-.5zm3.8 0c-.4 0-.6-.2-.6-.7c-.03.03 0-2.5 0-2.5h-.8v-.3h.8V.8h.4v1.2h.9v.3h-.9s.02 2.5 0 2.5c0 .2.1.3.3.3c0-.02.7 0 .7 0v.4s-.77-.04-.8 0zm1.6-4.2v-.6h.5v.6h-.5zm0 4.2V2h.4v3.5h-.4zm1.4-1.8c0-1.2.8-1.8 1.6-1.8c.8 0 1.4.7 1.4 1.6v.2s-2.53.04-2.5 0c0 1 .5 1.4 1.1 1.4c.5 0 .8-.2.9-.6h.5c-.2.7-.7 1-1.4 1c-.9 0-1.6-.6-1.6-1.8zm2.5-.3c0-.7-.3-1.1-.9-1.1h-.1c-.4 0-.9.2-1 1.1h2zm1.2 1h.5c0 .5.4.7.9.7h.1c.5 0 .8-.2.8-.6c0-.3-.2-.4-.7-.5l-.5-.1c-.5-.1-.9-.4-.9-1c0-.6.6-1 1.2-1c.9 0 1.3.5 1.3 1.1h-.4c-.1-.4-.4-.7-.8-.7h-.1c-.5 0-.8.3-.8.6c0 .3.2.4.7.5l.5.2c.5.1.9.3.9.9c0 .6-.5 1-1.3 1c-.9 0-1.3-.4-1.4-1.1zm4.7.1c0-.8.7-1 1.2-1.1c.01.04 1.1 0 1.1 0c0 0 .02-.18 0-.2c0-.6-.3-.9-.9-.9c-.4 0-.8.2-.9.6h-.4c0-.6.6-1 1.3-1c.9 0 1.4.6 1.4 1.3v2.3h-.4v-.6c-.2.3-.7.6-1.3.6c-.6 0-1.1-.4-1.1-1zm1.2.6c.5 0 1.1-.4 1.1-.9c.02 0 0-.5 0-.5l-1 .1c-.5 0-.8.3-.8.7c0 .4.3.6.7.6zm2.7.4V2h.4s.03.76 0 .8c.2-.6.6-.9 1.1-.9c.01.03.3 0 .3 0v.4s-.25.04-.3 0c-.6 0-1 .6-1 1.5c-.04-.04 0 1.7 0 1.7h-.5zm2.3-1.8c0-1.2.8-1.8 1.6-1.8c.8 0 1.4.7 1.4 1.6v.2s-2.53.04-2.5 0c0 1 .5 1.4 1.1 1.4c.5 0 .8-.2.9-.6h.5c-.2.7-.7 1-1.4 1c-.9 0-1.6-.6-1.6-1.8zm2.5-.3c0-.7-.3-1.1-.9-1.1h-.1c-.4 0-.9.2-1 1.1h2zm2.5.3c0-1.1.6-1.8 1.5-1.8c.5 0 1 .2 1.2.6V.6h.4v4.9h-.4v-.6c-.2.4-.7.6-1.2.6c-.9 0-1.5-.7-1.5-1.8zm1.6 1.4c.7 0 1.1-.6 1.1-1.4c0-.7-.4-1.4-1.1-1.4h-.1c-.7 0-1.1.7-1.1 1.4c0 .8.4 1.4 1.1 1.4h.1zm2.7-3.8v-.6h.5v.6h-.5zm0 4.2V2h.5v3.5h-.5zm1.6 0V2h.4s.05.76 0 .8c.2-.6.6-.9 1.1-.9c.03.03.3 0 .3 0v.4s-.23.04-.2 0c-.7 0-1.1.6-1.1 1.5c-.02-.04 0 1.7 0 1.7h-.5zm2.3-1.8c0-1.2.8-1.8 1.6-1.8c.9 0 1.4.7 1.4 1.6v.2s-2.51.04-2.5 0c0 1 .5 1.4 1.1 1.4c.5 0 .8-.2 1-.6h.4c-.1.7-.7 1-1.4 1c-.9 0-1.6-.6-1.6-1.8zm2.6-.3c-.1-.7-.4-1.1-1-1.1c-.5 0-1 .2-1.1 1.1h2.1zm1.2.3c0-1 .6-1.8 1.6-1.8c.8 0 1.3.4 1.4 1.2h-.5c0-.5-.4-.8-.8-.8h-.1c-.8 0-1.1.6-1.1 1.4c0 .8.3 1.4 1.1 1.4h.1c.4 0 .7-.3.8-.8h.5c-.1.8-.6 1.2-1.4 1.2c-1 0-1.6-.8-1.6-1.8zm5 1.8c-.5 0-.7-.2-.7-.7c.04.03 0-2.5 0-2.5h-.8v-.3h.8V.8h.5v1.2h.9v.3h-.9s-.01 2.5 0 2.5c0 .2.1.3.3.3c-.03-.02.7 0 .7 0v.4s-.8-.04-.8 0zm1.3-1.8c0-1.2.7-1.8 1.5-1.8c.9 0 1.4.7 1.4 1.6c.04-.03 0 .2 0 .2c0 0-2.48.04-2.5 0c0 1 .5 1.4 1.1 1.4h.1c.4 0 .7-.2.9-.6h.4c-.1.7-.7 1-1.4 1c-.8 0-1.5-.6-1.5-1.8zm2.5-.3c0-.7-.4-1.1-.9-1.1h-.1c-.5 0-1 .2-1.1 1.1h2.1zm1.2.3c0-1.1.7-1.8 1.6-1.8c.5 0 1 .2 1.2.6c-.02.02 0-1.9 0-1.9h.4v4.9h-.4s-.02-.6 0-.6c-.2.4-.7.6-1.2.6c-.9 0-1.6-.7-1.6-1.8zm1.7 1.4c.7 0 1.1-.6 1.1-1.4c0-.7-.4-1.4-1.1-1.4h-.1c-.7 0-1.1.7-1.1 1.4c0 .8.4 1.4 1.1 1.4h.1zm4.9.4c-.4 0-.6-.2-.6-.7c-.04.03 0-2.5 0-2.5h-.8v-.3h.8V.8h.4v1.2h.9v.3h-.9s.01 2.5 0 2.5c0 .2.1.3.3.3c-.01-.02.7 0 .7 0v.4s-.78-.04-.8 0zm1.3-1.8c0-1.1.7-1.8 1.6-1.8c.9 0 1.6.7 1.6 1.8c0 1.1-.7 1.8-1.6 1.8c-.9 0-1.6-.7-1.6-1.8zm1.6 1.4c.6 0 1.1-.5 1.1-1.4c0-.9-.5-1.4-1.1-1.4h-.1c-.6 0-1.1.5-1.1 1.4c0 .9.5 1.4 1.1 1.4h.1zm3.8.4V2h.4s-.03.76 0 .8c.1-.6.6-.9 1.1-.9c-.04.03.3 0 .3 0v.4s-.31.04-.3 0c-.7 0-1.1.6-1.1 1.5c.01-.04 0 1.7 0 1.7h-.4zm2.3-1.8c0-1.2.7-1.8 1.5-1.8c.9 0 1.4.7 1.4 1.6c.04-.03 0 .2 0 .2c0 0-2.48.04-2.5 0c0 1 .5 1.4 1.1 1.4h.1c.4 0 .7-.2.9-.6h.4c-.1.7-.7 1-1.4 1c-.9 0-1.5-.6-1.5-1.8zm2.5-.3c0-.7-.4-1.1-.9-1.1h-.1c-.5 0-1 .2-1.1 1.1h2.1zm1.4 2.1V.6h.5v4.9h-.5zm4.7-3.5l-1.5 3.3s.02.71 0 .7c0 .4-.2.6-.6.6c-.04.01-1.1 0-1.1 0v-.4s.99.03 1 0c.2 0 .3 0 .3-.2c-.03-.05 0-.6 0-.6L519.4 2h.5l1.2 2.8l1.2-2.8h.5zm1.7 1.7c0-1.1.7-1.8 1.6-1.8c.9 0 1.6.7 1.6 1.8c0 1.1-.7 1.8-1.6 1.8c-.9 0-1.6-.7-1.6-1.8zm1.6 1.4c.6 0 1.1-.5 1.1-1.4c0-.9-.5-1.4-1.1-1.4h-.1c-.6 0-1.1.5-1.1 1.4c0 .9.5 1.4 1.1 1.4h.1zm2.5.4V2h.5v.5c.2-.3.7-.6 1.2-.6c.7 0 1.3.4 1.3 1.3c-.05-.03 0 2.3 0 2.3h-.5V3.3c0-.7-.3-1-.8-1h-.1c-.7 0-1.1.7-1.1 1.4v1.8h-.5zm6.3 0c-.4 0-.7-.2-.7-.7c.05.03 0-2.5 0-2.5h-.8v-.3h.8V.8h.5v1.2h.9v.3h-.9v2.5c0 .2.1.3.3.3c-.02-.02.7 0 .7 0v.4s-.79-.04-.8 0zm1.6 0V.6h.4s.02 1.95 0 2c.3-.5.7-.7 1.3-.7c.8 0 1.2.5 1.2 1.2c-.03.05 0 2.4 0 2.4h-.5s.02-2.21 0-2.2c0-.7-.3-1-.8-1h-.1c-.5 0-1.1.5-1.1 1.3c.02-.03 0 1.9 0 1.9h-.4zm3.8-1.8c0-1.2.8-1.8 1.6-1.8c.8 0 1.4.7 1.4 1.6v.2s-2.52.04-2.5 0c0 1 .5 1.4 1.1 1.4c.5 0 .8-.2.9-.6h.5c-.2.7-.7 1-1.4 1c-.9 0-1.6-.6-1.6-1.8zm2.5-.3c0-.7-.3-1.1-.9-1.1h-.1c-.4 0-.9.2-1 1.1h2zm1.5-2.1v-.6h.5v.6h-.5zm0 4.2V2h.4v3.5h-.4zm1.6 0V2h.4s.02.76 0 .8c.2-.6.6-.9 1.1-.9c.01.03.3 0 .3 0v.4s-.26.04-.3 0c-.6 0-1 .6-1 1.5c-.04-.04 0 1.7 0 1.7h-.5zm3.6-1.8c0-1.1.7-1.8 1.6-1.8c.9 0 1.6.7 1.6 1.8c0 1.1-.7 1.8-1.6 1.8c-.9 0-1.6-.7-1.6-1.8zm1.6 1.4c.6 0 1.1-.5 1.1-1.4c0-.9-.5-1.4-1.1-1.4h-.1c-.6 0-1.1.5-1.1 1.4c0 .9.5 1.4 1.1 1.4h.1zm6.7-3.1h.4l-1.1 3.5h-.6l-.8-3.1l-.8 3.1h-.6L553.2 2h.4l1 3.1l.8-3.1h.6l.8 3.1l1-3.1zm1.2 3.5V2h.5s-.04.55 0 .5c.2-.3.6-.6 1.2-.6c.7 0 1.2.4 1.2 1.3v2.3h-.4s-.04-2.19 0-2.2c0-.7-.3-1-.9-1c-.8 0-1.1.7-1.1 1.4c-.04.01 0 1.8 0 1.8h-.5zm5-1.8c0-1.2.8-1.8 1.6-1.8c.9 0 1.4.7 1.4 1.6c.02-.03 0 .2 0 .2c0 0-2.5.04-2.5 0c0 1 .5 1.4 1.1 1.4c.5 0 .8-.2 1-.6h.4c-.1.7-.7 1-1.4 1c-.9 0-1.6-.6-1.6-1.8zm2.6-.3c-.1-.7-.4-1.1-1-1.1c-.5 0-1 .2-1.1 1.1h2.1zm1.4 2.1V2h.5s-.03.55 0 .5c.2-.3.6-.6 1.2-.6c.7 0 1.2.4 1.2 1.3c.02-.03 0 2.3 0 2.3h-.4s-.04-2.19 0-2.2c0-.7-.3-1-.9-1c-.8 0-1.1.7-1.1 1.4c-.03.01 0 1.8 0 1.8h-.5zm6.6 1.4v-2c-.2.4-.7.6-1.2.6c-.9 0-1.5-.7-1.5-1.8c0-1.1.6-1.8 1.5-1.8c.5 0 1 .2 1.2.6v-.5h.5v4.9h-.5zm-1.1-1.8c.7 0 1.1-.6 1.1-1.4c0-.7-.4-1.4-1.1-1.4h-.1c-.7 0-1.1.7-1.1 1.4c0 .8.4 1.4 1.1 1.4h.1zm2.7-.8V2h.5s-.05 2.13 0 2.1c0 .7.2 1 .8 1h.1c.5 0 1-.4 1-1.3c-.02.05 0-1.8 0-1.8h.4v3.5h-.4s-.02-.7 0-.7c-.2.5-.6.7-1.2.7c-.8 0-1.2-.5-1.2-1.2zm4-3v-.6h.5v.6h-.5zm0 4.2V2h.5v3.5h-.5zm1.6 0V2h.4s.03.76 0 .8c.2-.6.6-.9 1.1-.9c.02.03.3 0 .3 0v.4s-.25.04-.2 0c-.7 0-1.1.6-1.1 1.5c-.03-.04 0 1.7 0 1.7h-.5zm2.6-4.2v-.6h.5v.6h-.5zm0 4.2V2h.5v3.5h-.5zm1.4-1.8c0-1.2.8-1.8 1.6-1.8c.8 0 1.4.7 1.4 1.6v.2s-2.52.04-2.5 0c0 1 .5 1.4 1.1 1.4c.5 0 .8-.2.9-.6h.5c-.2.7-.7 1-1.4 1c-.9 0-1.6-.6-1.6-1.8zm2.5-.3c0-.7-.3-1.1-.9-1.1h-.1c-.4 0-.9.2-1 1.1h2zm1.3 1h.4c.1.5.4.7.9.7h.1c.5 0 .8-.2.8-.6c0-.3-.2-.4-.6-.5l-.6-.1c-.5-.1-.9-.4-.9-1c0-.6.6-1 1.2-1c.9 0 1.3.5 1.4 1.1h-.5c0-.4-.3-.7-.8-.7h-.1c-.5 0-.8.3-.8.6c0 .3.2.4.7.5l.5.2c.5.1.9.3.9.9c0 .6-.5 1-1.3 1c-.9 0-1.3-.4-1.3-1.1zm4.6.1c0-.8.7-1 1.2-1.1c.03.04 1.1 0 1.1 0c0 0 .03-.18 0-.2c0-.6-.3-.9-.8-.9h-.1c-.4 0-.8.2-.9.6h-.4c0-.6.6-1 1.3-1c.9 0 1.4.6 1.4 1.3v2.3h-.4v-.6c-.2.3-.7.6-1.3.6c-.6 0-1.1-.4-1.1-1zm1.2.6c.5 0 1.1-.4 1.1-.9c.03 0 0-.5 0-.5l-1 .1c-.5 0-.8.3-.8.7c0 .4.3.6.7.6zm2.7.4V2h.5s-.02.55 0 .5c.2-.3.6-.6 1.2-.6c.7 0 1.2.4 1.2 1.3c.03-.03 0 2.3 0 2.3h-.4s-.02-2.19 0-2.2c0-.7-.3-1-.9-1c-.8 0-1.1.7-1.1 1.4c-.02.01 0 1.8 0 1.8h-.5zm3.9-1.8c0-1.1.6-1.8 1.5-1.8c.5 0 1 .2 1.2.6V.6h.5v4.9h-.5v-.6c-.2.4-.7.6-1.2.6c-.9 0-1.5-.7-1.5-1.8zm1.6 1.4c.7 0 1.1-.6 1.1-1.4c0-.7-.4-1.4-1.1-1.4c-.8 0-1.2.7-1.2 1.4c0 .8.4 1.4 1.2 1.4zm3.9-3.8v-.6h.5v.6h-.5zm0 4.2V2h.5v3.5h-.5zm1.7 0V2h.4s.02.55 0 .5c.2-.3.7-.6 1.2-.6c.7 0 1.3.4 1.3 1.3c-.04-.03 0 2.3 0 2.3h-.5s.01-2.19 0-2.2c0-.7-.3-1-.8-1h-.1c-.7 0-1.1.7-1.1 1.4c.02.01 0 1.8 0 1.8h-.4zm4.4 0V2.3h-.8v-.3h.8s-.03-.81 0-.8c0-.5.2-.6.6-.6c.03-.04.9 0 .9 0v.3s-.8.04-.8 0c-.2 0-.3.1-.3.3c.02.02 0 .8 0 .8h.9v.3h-.9v3.2h-.4zm1.8-1.8c0-1.1.7-1.8 1.6-1.8c.9 0 1.6.7 1.6 1.8c0 1.1-.7 1.8-1.6 1.8c-.9 0-1.6-.7-1.6-1.8zm1.7 1.4c.6 0 1.1-.5 1.1-1.4c0-.9-.5-1.4-1.1-1.4h-.1c-.6 0-1.1.5-1.1 1.4c0 .9.5 1.4 1.1 1.4h.1zm2.5.4V2h.4v.8c.2-.6.6-.9 1.1-.9c0 .03.3 0 .3 0v.4s-.27.04-.3 0c-.6 0-1.1.6-1.1 1.5c.05-.04 0 1.7 0 1.7h-.4zm2.6 0V2h.4s.04.52 0 .5c.3-.3.7-.6 1.2-.6c.5 0 .9.2 1.1.7c.2-.5.7-.7 1.2-.7c.7 0 1.2.4 1.2 1.3c.03-.03 0 2.3 0 2.3h-.4s-.02-2.19 0-2.2c0-.7-.3-1-.8-1h-.1c-.7 0-1 .7-1 1.4c-.01.01 0 1.8 0 1.8h-.5s.03-2.19 0-2.2c0-.7-.2-1-.8-1c-.7 0-1.1.7-1.1 1.4c.04.01 0 1.8 0 1.8h-.4zm6.1-1c0-.8.6-1 1.2-1.1c-.01.04 1.1 0 1.1 0v-.2c0-.6-.3-.9-.9-.9c-.5 0-.8.2-.9.6h-.4c0-.6.5-1 1.3-1c.9 0 1.3.6 1.3 1.3v1.5c0 .2 0 .5.1.8h-.4c-.1-.2-.1-.4-.1-.6c-.1.3-.6.6-1.2.6c-.6 0-1.1-.4-1.1-1zm1.2.6c.5 0 1.1-.4 1.1-.9v-.5l-1 .1c-.5 0-.9.3-.9.7c0 .4.3.6.7.6h.1zm3.7.4c-.5 0-.7-.2-.7-.7c.01.03 0-2.5 0-2.5h-.8v-.3h.8V.8h.5v1.2h.8v.3h-.8s-.04 2.5 0 2.5c0 .2 0 .3.2.3c.04-.02.7 0 .7 0v.4s-.73-.04-.7 0zm1.5-4.2v-.6h.5v.6h-.5zm0 4.2V2h.5v3.5h-.5zm1.4-1.8c0-1.1.7-1.8 1.6-1.8c.9 0 1.7.7 1.7 1.8c0 1.1-.8 1.8-1.7 1.8c-.9 0-1.6-.7-1.6-1.8zm1.7 1.4c.6 0 1.1-.5 1.1-1.4c0-.9-.5-1.4-1.1-1.4h-.1c-.6 0-1.1.5-1.1 1.4c0 .9.5 1.4 1.1 1.4h.1zm2.5.4V2h.5s-.03.55 0 .5c.2-.3.6-.6 1.2-.6c.7 0 1.2.4 1.2 1.3c.02-.03 0 2.3 0 2.3h-.4s-.03-2.19 0-2.2c0-.7-.3-1-.9-1c-.8 0-1.1.7-1.1 1.4c-.03.01 0 1.8 0 1.8h-.5z" stroke="none" fill="#dcddce"/></g></svg>