<?xml version="1.0" standalone="no"?><!DOCTYPE svg PUBLIC "-//W3C//DTD SVG 1.1//EN" "http://www.w3.org/Graphics/SVG/1.1/DTD/svg11.dtd"><svg xmlns="http://www.w3.org/2000/svg" version="1.1" width="203px" height="176.8px" viewBox="0 -3 203 176.8" style="top:-3px"><desc>Level 39 rooftop deck capturing spectacular 270 degree views, boasting a BBQ pavilion and lush lawns, perfect for ent...</desc><defs/><g class="svg-tables"><g class="svg-table-background"/></g><g id="Polygon20124"><path d="m13.7 138.5h.5v7.7h-.7v-6.6l-1.8 1.7v-.9l2-1.9zm3 6.9h4.1v.8h-5v-.8s3.08-3.13 3.1-3.1c.8-.9 1-1.2 1-1.9c0-.7-.7-1.3-1.5-1.3h-.2c-.9 0-1.6.6-1.6 1.6h-.7c0-1.4 1-2.3 2.4-2.3c1.4 0 2.4.8 2.4 2c0 .9-.5 1.5-1.2 2.2c.03.02-2.8 2.8-2.8 2.8zm5.2-3.1c0-2.6 1.1-3.9 2.9-3.9c1.9 0 2.9 1.3 2.9 3.9c0 2.6-1 4-2.9 4c-1.8 0-2.9-1.4-2.9-4zm3 3.3c.9 0 2.1-.7 2.1-3.3c0-2.5-1.2-3.2-2.1-3.2h-.1c-1 0-2.2.7-2.2 3.2c0 2.6 1.2 3.3 2.2 3.3h.1zm4.3-2.5v-.6h2.7v.6h-2.7zm4.2 5.3v-7.7h.7s.01.85 0 .9c.3-.7 1.1-1 1.8-1c1.5 0 2.5 1.1 2.5 2.8c0 1.8-1 2.9-2.5 2.9c-.7 0-1.5-.4-1.8-1v3.1h-.7zm2.5-2.7c1.2 0 1.8-1.1 1.8-2.3c0-1.2-.6-2.2-1.8-2.2c-1.2 0-1.8 1-1.8 2.2c0 1.2.6 2.3 1.8 2.3zm4 .5v-7.7h.7v7.7h-.7zm2.1-1.5c0-1.3 1.1-1.6 1.9-1.7l1.8-.1s-.05-.25 0-.2c0-1-.6-1.5-1.4-1.5h-.1c-.7 0-1.3.3-1.4 1h-.7c.1-1 1-1.6 2.1-1.6c1.5 0 2.2.9 2.2 2.1v3.5h-.6c-.1-.3-.1-.6-.1-.9c-.2.5-1 1-1.9 1c-1 0-1.8-.7-1.8-1.6zm1.9 1c.8 0 1.8-.7 1.8-1.5c-.05-.01 0-.7 0-.7c0 0-1.64.06-1.6.1c-.8 0-1.4.4-1.4 1c0 .6.5 1.1 1.1 1.1h.1zm3.8-2.3c0-1.6.9-2.8 2.6-2.8c1.2 0 2 .7 2.1 1.8h-.7c-.1-.7-.6-1.2-1.4-1.2h-.1c-1.2 0-1.7 1-1.7 2.2c0 1.2.5 2.3 1.7 2.3h.1c.8 0 1.3-.6 1.4-1.3h.7c-.2 1.1-.9 1.9-2.1 1.9c-1.7 0-2.6-1.3-2.6-2.9zm5.8 0c0-1.9 1.2-2.8 2.4-2.8c1.4 0 2.3 1 2.3 2.4c-.03.04 0 .5 0 .5c0 0-3.99-.02-4 0c0 1.5.8 2.2 1.7 2.2h.1c.7 0 1.2-.4 1.4-1.1h.8c-.3 1.1-1.1 1.7-2.3 1.7c-1.3 0-2.4-1-2.4-2.9zm4-.5c-.1-1-.6-1.7-1.5-1.7h-.1c-.7 0-1.5.4-1.7 1.7h3.3zm4 .5c0-1.7 1.1-2.8 2.5-2.8c1.4 0 2.5 1.1 2.5 2.8c0 1.7-1.1 2.9-2.5 2.9c-1.4 0-2.5-1.2-2.5-2.9zm2.6 2.3c.9 0 1.7-.9 1.7-2.3c0-1.4-.8-2.2-1.7-2.2h-.2c-.9 0-1.7.8-1.7 2.2c0 1.4.8 2.3 1.7 2.3h.2zm3.9.5v-5.5h.7s-.04.9 0 .9c.3-.6 1-1 1.9-1c1.1 0 1.9.7 1.9 2c.01-.03 0 3.6 0 3.6h-.7v-3.4c0-1.1-.4-1.6-1.3-1.6h-.1c-1.2 0-1.7 1-1.7 2.2c-.04.02 0 2.8 0 2.8h-.7zm5.8-1.7h.7c.1.8.7 1.2 1.4 1.2h.2c.7 0 1.2-.4 1.2-1c0-.4-.2-.7-1-.9l-.8-.1c-.8-.2-1.5-.6-1.5-1.5c0-1.1 1-1.6 2-1.6c1.4 0 2 .8 2.1 1.7h-.8c0-.6-.5-1.1-1.2-1.1h-.2c-.7 0-1.2.4-1.2.9c0 .5.3.7 1 .9l.9.2c.8.1 1.4.5 1.4 1.4c0 1.1-.8 1.7-2 1.7c-1.4 0-2.1-.8-2.2-1.8zm5.6-4.8v-1h.9v1h-.9zm.1 6.5v-5.5h.7v5.5h-.7zm4.1 0c-.7 0-1-.3-1-1c-.03-.02 0-3.9 0-3.9h-1.3v-.6h1.3v-1.8h.7v1.8h1.4v.6h-1.4v3.8c0 .4.1.5.4.5c.03-.03 1.1 0 1.1 0v.6s-1.18-.03-1.2 0zm1.9-2.8c0-1.9 1.2-2.8 2.5-2.8c1.3 0 2.2 1 2.2 2.4c-.02.04 0 .5 0 .5c0 0-3.98-.02-4 0c0 1.5.8 2.2 1.7 2.2h.1c.8 0 1.2-.4 1.5-1.1h.7c-.3 1.1-1.1 1.7-2.2 1.7c-1.4 0-2.5-1-2.5-2.9zm4-.5c-.1-1-.6-1.7-1.5-1.7h-.1c-.7 0-1.5.4-1.7 1.7h3.3zm4 .5c0-1.6.9-2.8 2.5-2.8c1.2 0 2.1.7 2.2 1.8h-.7c-.2-.7-.7-1.2-1.4-1.2h-.1c-1.2 0-1.8 1-1.8 2.2c0 1.2.6 2.3 1.8 2.3h.1c.7 0 1.2-.6 1.4-1.3h.7c-.2 1.1-1 1.9-2.2 1.9c-1.6 0-2.5-1.3-2.5-2.9zm6.1 2.8v-7.7h.7s-.02 3.11 0 3.1c.4-.6 1-1 2-1c1.2 0 1.8.8 1.8 1.9c.03.04 0 3.7 0 3.7h-.7s.02-3.44 0-3.4c0-1.1-.4-1.6-1.3-1.6h-.1c-.9 0-1.7.7-1.7 2c-.02 0 0 3 0 3h-.7zm6.2-6.5v-1h.8v1h-.8zm0 6.5v-5.5h.7v5.5h-.7zm2.5 0v-7.7h.7v7.7h-.7zm2.1-2.8c0-1.7 1-2.8 2.5-2.8c.7 0 1.5.3 1.8 1v-3.1h.7v7.7h-.7s.01-.91 0-.9c-.3.6-1.1 1-1.8 1c-1.5 0-2.5-1.1-2.5-2.9zm2.6 2.3c1.1 0 1.7-1.1 1.7-2.3c0-1.2-.6-2.2-1.7-2.2h-.1c-1.2 0-1.8 1-1.8 2.2c0 1.2.6 2.3 1.8 2.3h.1zm3.9-2.3c0-1.6.9-2.8 2.5-2.8c1.2 0 2 .7 2.1 1.8h-.7c-.1-.7-.6-1.2-1.3-1.2h-.2c-1.2 0-1.7 1-1.7 2.2c0 1.2.5 2.3 1.7 2.3h.2c.7 0 1.2-.6 1.3-1.3h.7c-.2 1.1-.9 1.9-2.1 1.9c-1.6 0-2.5-1.3-2.5-2.9zm5.8 1.3c0-1.3 1-1.6 1.9-1.7l1.7-.1v-.2c0-1-.5-1.5-1.4-1.5c-.7 0-1.3.3-1.4 1h-.7c0-1 .9-1.6 2.1-1.6c1.4 0 2.1.9 2.1 2.1v2.3c0 .3 0 .8.1 1.2h-.7v-.9c-.3.5-1 1-2 1c-1 0-1.7-.7-1.7-1.6zm1.9 1c.8 0 1.7-.7 1.7-1.5v-.7s-1.6.06-1.6.1c-.8 0-1.3.4-1.3 1c0 .6.5 1.1 1.1 1.1h.1zm4.1.5v-5.5h.7s-.04 1.23 0 1.2c.2-.9.9-1.3 1.7-1.3c-.03.02.5 0 .5 0v.7s-.48-.02-.5 0c-1 0-1.7.8-1.7 2.2c.02 0 0 2.7 0 2.7h-.7zm3.5-2.8c0-1.9 1.2-2.8 2.5-2.8c1.3 0 2.2 1 2.2 2.4v.5s-3.95-.02-4 0c.1 1.5.9 2.2 1.8 2.2c.8 0 1.3-.4 1.5-1.1h.7c-.2 1.1-1.1 1.7-2.2 1.7c-1.4 0-2.5-1-2.5-2.9zm4-.5c0-1-.6-1.7-1.5-1.7h-.1c-.7 0-1.5.4-1.6 1.7h3.2zm4 .5c0-1.6.9-2.8 2.5-2.8c1.2 0 2.1.7 2.2 1.8h-.7c-.1-.7-.7-1.2-1.4-1.2h-.1c-1.2 0-1.8 1-1.8 2.2c0 1.2.6 2.3 1.8 2.3h.1c.7 0 1.2-.6 1.4-1.3h.7c-.2 1.1-1 1.9-2.2 1.9c-1.6 0-2.5-1.3-2.5-2.9zm5.8 0c0-1.9 1.2-2.8 2.4-2.8c1.4 0 2.2 1 2.2 2.4c.05.04 0 .5 0 .5c0 0-3.91-.02-3.9 0c0 1.5.8 2.2 1.7 2.2h.1c.7 0 1.2-.4 1.4-1.1h.7c-.2 1.1-1 1.7-2.2 1.7c-1.3 0-2.4-1-2.4-2.9zm3.9-.5c0-1-.6-1.7-1.4-1.7h-.1c-.7 0-1.5.4-1.7 1.7h3.2zm2.2 3.3v-5.5h.7s.03.9 0 .9c.3-.6 1.1-1 2-1c1.1 0 1.9.7 1.9 2c-.02-.03 0 3.6 0 3.6h-.7s-.03-3.41 0-3.4c0-1.1-.5-1.6-1.4-1.6c-1.2 0-1.8 1-1.8 2.2c.03.02 0 2.8 0 2.8h-.7zm7.8 0c-.7 0-1-.3-1-1v-3.9h-1.3v-.6h1.3v-1.8h.7v1.8h1.4v.6h-1.4s.02 3.83 0 3.8c0 .4.1.5.5.5c-.04-.03 1.1 0 1.1 0v.6s-1.25-.03-1.3 0zm2.4 0v-5.5h.7s-.05 1.23 0 1.2c.2-.9.9-1.3 1.7-1.3c-.04.02.5 0 .5 0v.7s-.49-.02-.5 0c-1 0-1.7.8-1.7 2.2v2.7h-.7zm3.5-2.8c0-1.9 1.2-2.8 2.5-2.8c1.3 0 2.2 1 2.2 2.4v.5s-3.96-.02-4 0c.1 1.5.9 2.2 1.8 2.2c.8 0 1.3-.4 1.5-1.1h.7c-.3 1.1-1.1 1.7-2.2 1.7c-1.4 0-2.5-1-2.5-2.9zm4-.5c0-1-.6-1.7-1.5-1.7h-.1c-.7 0-1.5.4-1.6 1.7h3.2zm2.1 3.3v-1.1h1.1v1.1h-1.1z" stroke="none" fill="#dcddce"/></g><g id="Polygon20123"><path d="m11.9 119c0-1.2 1-1.6 1.9-1.7c-.01.04 1.7-.1 1.7-.1c0 0 .03-.21 0-.2c0-1-.5-1.5-1.3-1.5h-.1c-.7 0-1.3.4-1.4 1h-.7c.1-.9.9-1.6 2.1-1.6c1.5 0 2.1 1 2.1 2.1v2.3c0 .3 0 .8.1 1.2h-.7v-.9c-.2.5-1 1-2 1c-.9 0-1.7-.7-1.7-1.6zm1.9 1c.8 0 1.7-.7 1.7-1.5c.03.03 0-.7 0-.7l-1.6.1c-.7.1-1.3.4-1.3 1c0 .7.5 1.1 1.1 1.1h.1zm4.1.5V115h.7s.05.93 0 .9c.4-.6 1.1-1 2-1c1.1 0 1.9.7 1.9 2v3.6h-.7s-.02-3.37 0-3.4c0-1.1-.5-1.6-1.3-1.6h-.1c-1.2 0-1.8 1.1-1.8 2.3c.05-.04 0 2.7 0 2.7h-.7zm6-2.7c0-1.8 1-2.9 2.5-2.9c.7 0 1.5.4 1.8 1v-3.1h.7v7.7h-.7s-.01-.87 0-.9c-.3.6-1.1 1-1.8 1c-1.5 0-2.5-1.1-2.5-2.8zm2.5 2.2c1.2 0 1.8-1.1 1.8-2.2c0-1.2-.6-2.3-1.8-2.3c-1.2 0-1.8 1.1-1.8 2.3c0 1.1.6 2.2 1.8 2.2zm6-1.1h.7c.1.7.7 1.1 1.5 1.1h.1c.7 0 1.2-.4 1.2-1c0-.4-.2-.7-.9-.8l-.9-.2c-.8-.2-1.4-.6-1.4-1.5c0-1 .9-1.6 1.9-1.6c1.4 0 2 .9 2.1 1.8h-.7c-.1-.6-.6-1.2-1.3-1.2h-.1c-.8 0-1.2.5-1.2.9c0 .5.3.8 1 .9l.8.2c.8.2 1.4.5 1.4 1.5c0 1-.8 1.6-2 1.6c-1.4 0-2.1-.7-2.2-1.7zm5.4.1c0-1.2 1.1-1.6 1.9-1.7c.02.04 1.8-.1 1.8-.1c0 0-.04-.21 0-.2c0-1-.6-1.5-1.4-1.5h-.1c-.7 0-1.3.4-1.3 1h-.8c.1-.9 1-1.6 2.1-1.6c1.5 0 2.2 1 2.2 2.1v3.5h-.6c-.1-.2-.1-.6-.1-.9c-.2.5-1 1-1.9 1c-1 0-1.8-.7-1.8-1.6zm2 1c.7 0 1.7-.7 1.7-1.5c-.04.03 0-.7 0-.7l-1.6.1c-.8.1-1.4.4-1.4 1c0 .7.5 1.1 1.1 1.1h.2zm4-1.4c-.01.04 0-3.6 0-3.6h.7v3.4c0 1.1.4 1.6 1.3 1.6h.1c.8 0 1.6-.7 1.6-2c.03-.02 0-3 0-3h.7v5.5h-.7s.03-1.03 0-1c-.3.7-.9 1.1-1.8 1.1c-1.2 0-1.9-.8-1.9-2zm6.2 1.9V115h.7s-.01.93 0 .9c.3-.6 1-1 1.9-1c1.1 0 1.9.7 1.9 2c.04.01 0 3.6 0 3.6h-.7s.03-3.37 0-3.4c0-1.1-.4-1.6-1.3-1.6h-.1c-1.1 0-1.7 1.1-1.7 2.3v2.7h-.7zm5.9-1.5c0-1.2 1.1-1.6 1.9-1.7c.02.04 1.8-.1 1.8-.1c0 0-.04-.21 0-.2c0-1-.6-1.5-1.4-1.5h-.1c-.7 0-1.3.4-1.3 1h-.8c.1-.9 1-1.6 2.1-1.6c1.5 0 2.2 1 2.2 2.1v3.5h-.6c-.1-.2-.1-.6-.1-.9c-.2.5-1 1-1.9 1c-1 0-1.8-.7-1.8-1.6zm2 1c.7 0 1.7-.7 1.7-1.5c-.04.03 0-.7 0-.7l-1.6.1c-.8.1-1.4.4-1.4 1c0 .7.5 1.1 1.1 1.1h.2zm4.1.5v-1.1h1v1.1h-1z" stroke="none" fill="#dcddce"/></g><g id="Polygon20122"><path d="m11.8 102.9h.8c0 1.2.9 1.9 2.2 1.9h.1c1.1 0 1.8-.7 1.8-1.5c0-.7-.5-1.1-1.4-1.3l-1.3-.3c-1.1-.2-1.8-.8-1.8-2c0-1.2 1-2.2 2.6-2.2c1.7 0 2.7 1 2.8 2.4h-.8c-.1-1-.9-1.6-1.9-1.6h-.1c-1.1 0-1.8.6-1.8 1.4c0 .7.5 1.1 1.2 1.3l1.3.2c1.2.3 2 .9 2 2.1c0 1.3-1.1 2.2-2.7 2.2c-1.9 0-3-1-3-2.6zm7.2.6c-.04-.01 0-3.6 0-3.6h.7s-.02 3.37 0 3.4c0 1 .4 1.6 1.3 1.6h.1c.8 0 1.6-.8 1.6-2.1v-2.9h.7v5.5h-.7v-1.1c-.3.8-.9 1.2-1.8 1.2c-1.3 0-1.9-.9-1.9-2zm6.2 4.1v-7.7h.7s-.03.84 0 .8c.3-.6 1.1-1 1.8-1c1.4 0 2.5 1.1 2.5 2.9c0 1.8-1.1 2.9-2.5 2.9c-.7 0-1.5-.4-1.8-1c-.03-.02 0 3.1 0 3.1h-.7zm2.5-2.7c1.2 0 1.7-1.1 1.7-2.3c0-1.2-.5-2.2-1.7-2.2h-.1c-1.2 0-1.7 1-1.7 2.2c0 1.2.5 2.3 1.7 2.3h.1zm3.6-2.3c0-1.9 1.2-2.9 2.5-2.9c1.3 0 2.2 1.1 2.2 2.5v.5s-3.97-.04-4 0c.1 1.5.9 2.2 1.8 2.2c.8 0 1.3-.4 1.5-1.1h.7c-.3 1.1-1.1 1.7-2.2 1.7c-1.4 0-2.5-1-2.5-2.9zm4-.5c-.1-1-.6-1.7-1.5-1.7h-.1c-.7 0-1.5.3-1.6 1.7h3.2zm2.2 3.3v-5.5h.6s.02 1.21 0 1.2c.3-.9 1-1.3 1.7-1.3h.5v.7s-.42-.04-.4 0c-1.1 0-1.7.8-1.7 2.2c-.03-.02 0 2.7 0 2.7h-.7zm4.7-.9c-.05-.02 0 .9 0 .9h-.8v-7.7h.8s-.05 3.04 0 3c.3-.6 1.1-1 1.8-1c1.4 0 2.4 1.1 2.4 2.9c0 1.8-1 2.9-2.4 2.9c-.7 0-1.5-.4-1.8-1zm1.8.4c1.1 0 1.7-1.1 1.7-2.3c0-1.2-.6-2.2-1.7-2.2h-.1c-1.2 0-1.7 1-1.7 2.2c0 1.2.5 2.3 1.7 2.3h.1zm3.9.5v-7.7h.7v7.7h-.7zm7.2-5.5l-2.3 5.3v1c0 .7-.3 1-1 1c-.04-.03-1.7 0-1.7 0v-.6s1.55-.03 1.5 0c.4 0 .5-.1.5-.5c-.01.03 0-.9 0-.9l-2.3-5.3h.7l1.9 4.4l1.9-4.4h.8zm2.9 2.7c0-1.9 1.2-2.9 2.4-2.9c1.4 0 2.2 1.1 2.2 2.5c.05.02 0 .5 0 .5c0 0-3.91-.04-3.9 0c0 1.5.8 2.2 1.7 2.2h.1c.7 0 1.2-.4 1.4-1.1h.7c-.2 1.1-1.1 1.7-2.2 1.7c-1.4 0-2.4-1-2.4-2.9zm3.9-.5c0-1-.6-1.7-1.4-1.7h-.1c-.7 0-1.5.3-1.7 1.7h3.2zm6.2 5.5v-3.1c-.3.6-1.1 1-1.8 1c-1.5 0-2.5-1.1-2.5-2.9c0-1.8 1-2.9 2.5-2.9c.7 0 1.5.4 1.8 1v-.8h.7v7.7h-.7zm-1.8-2.7c1.2 0 1.8-1.1 1.8-2.3c0-1.2-.6-2.2-1.8-2.2c-1.2 0-1.8 1-1.8 2.2c0 1.2.6 2.3 1.8 2.3zm4.2-1.4c.01-.01 0-3.6 0-3.6h.7s.03 3.37 0 3.4c0 1 .5 1.6 1.3 1.6h.2c.8 0 1.6-.8 1.6-2.1c-.05.03 0-2.9 0-2.9h.7v5.5h-.7s-.05-1.08 0-1.1c-.3.8-1 1.2-1.9 1.2c-1.2 0-1.9-.9-1.9-2zm6.1-4.6v-1h.9v1h-.9zm.1 6.5v-5.5h.7v5.5h-.7zm2.4 2.2v-7.7h.8s-.04.84 0 .8c.3-.6 1.1-1 1.8-1c1.4 0 2.4 1.1 2.4 2.9c0 1.8-1 2.9-2.4 2.9c-.7 0-1.5-.4-1.8-1c-.04-.02 0 3.1 0 3.1h-.8zm2.6-2.7c1.1 0 1.7-1.1 1.7-2.3c0-1.2-.6-2.2-1.7-2.2h-.1c-1.2 0-1.7 1-1.7 2.2c0 1.2.5 2.3 1.7 2.3h.1zm3.9 2.7v-7.7h.7v.8c.3-.6 1.1-1 1.8-1c1.5 0 2.5 1.1 2.5 2.9c0 1.8-1 2.9-2.5 2.9c-.7 0-1.5-.4-1.8-1v3.1h-.7zm2.5-2.7c1.2 0 1.8-1.1 1.8-2.3c0-1.2-.6-2.2-1.8-2.2c-1.2 0-1.8 1-1.8 2.2c0 1.2.6 2.3 1.8 2.3zm3.7-2.3c0-1.9 1.1-2.9 2.4-2.9c1.4 0 2.2 1.1 2.2 2.5c.03.02 0 .5 0 .5c0 0-3.93-.04-3.9 0c0 1.5.8 2.2 1.7 2.2h.1c.7 0 1.2-.4 1.4-1.1h.7c-.2 1.1-1.1 1.7-2.2 1.7c-1.4 0-2.4-1-2.4-2.9zm3.9-.5c0-1-.6-1.7-1.4-1.7h-.2c-.7 0-1.5.3-1.6 1.7h3.2zm1.9.5c0-1.8 1-2.9 2.4-2.9c.8 0 1.6.4 1.9 1v-3h.7v7.7h-.7s-.01-.92 0-.9c-.3.6-1.1 1-1.9 1c-1.4 0-2.4-1.1-2.4-2.9zm2.5 2.3c1.2 0 1.8-1.1 1.8-2.3c0-1.2-.6-2.2-1.8-2.2c-1.2 0-1.8 1-1.8 2.2c0 1.2.6 2.3 1.8 2.3zm6.4-6v-1h.8v1h-.8zm.1 6.5v-5.5h.7v5.5h-.7zm2.4 0v-5.5h.7s.01.88 0 .9c.3-.6 1-1.1 1.9-1.1c1.1 0 2 .7 2 2.1c-.04-.04 0 3.6 0 3.6h-.8s.05-3.42 0-3.4c0-1.1-.4-1.6-1.3-1.6c-1.2 0-1.8 1-1.8 2.2v2.8h-.7zm6-2.8c0-1.8 1-2.9 2.4-2.9c.7 0 1.5.4 1.9 1c-.05.04 0-3 0-3h.7v7.7h-.7s-.05-.92 0-.9c-.4.6-1.2 1-1.9 1c-1.4 0-2.4-1.1-2.4-2.9zm2.5 2.3c1.2 0 1.8-1.1 1.8-2.3c0-1.2-.6-2.2-1.8-2.2h-.1c-1.1 0-1.7 1-1.7 2.2c0 1.2.6 2.3 1.7 2.3h.1zm3.9-2.3c0-1.7 1.1-2.9 2.5-2.9c1.4 0 2.5 1.2 2.5 2.9c0 1.7-1.1 2.9-2.5 2.9c-1.4 0-2.5-1.2-2.5-2.9zm2.6 2.3c1 0 1.7-.9 1.7-2.3c0-1.4-.7-2.2-1.7-2.2h-.1c-1 0-1.8.8-1.8 2.2c0 1.4.8 2.3 1.8 2.3h.1zm3.6-2.3c0-1.7 1.1-2.9 2.5-2.9c1.4 0 2.5 1.2 2.5 2.9c0 1.7-1.1 2.9-2.5 2.9c-1.4 0-2.5-1.2-2.5-2.9zm2.6 2.3c1 0 1.7-.9 1.7-2.3c0-1.4-.7-2.2-1.7-2.2h-.2c-.9 0-1.7.8-1.7 2.2c0 1.4.8 2.3 1.7 2.3h.2zm3.9.5v-5.5h.6s.02 1.21 0 1.2c.3-.9 1-1.3 1.7-1.3h.5v.7s-.42-.04-.4 0c-1.1 0-1.7.8-1.7 2.2c-.03-.02 0 2.7 0 2.7h-.7zm5.7.7h.7c.1.7.8 1.1 1.7 1.1h.1c.9 0 1.8-.6 1.8-1.9v-.9c-.4.6-1 1-1.9 1c-1.3 0-2.3-1-2.3-2.8c0-1.8 1-2.9 2.3-2.9c.9 0 1.5.4 1.9 1c-.03.04 0-.8 0-.8h.7s-.02 5.41 0 5.4c0 1.4-1 2.5-2.6 2.5c-1.6 0-2.3-.7-2.4-1.7zm2.6-1.3c1 0 1.7-.8 1.7-2.2c0-1.4-.7-2.2-1.7-2.2h-.1c-1 0-1.7.8-1.7 2.2c0 1.4.7 2.2 1.7 2.2h.1zm8.8-4.9l-2.2 5.3s-.02 1.02 0 1c0 .7-.3 1-1.1 1c.04-.03-1.6 0-1.6 0v-.6s1.53-.03 1.5 0c.4 0 .5-.1.5-.5c-.03.03 0-.9 0-.9l-2.4-5.3h.8l1.9 4.4l1.9-4.4h.7zm1.2 5.5v-5.5h.7s-.03.84 0 .8c.3-.5.9-1 1.8-1c.8 0 1.4.4 1.7 1.2c.4-.7 1.1-1.2 2-1.2c1 0 1.8.7 1.8 2.1c.04-.04 0 3.6 0 3.6h-.7s.02-3.42 0-3.4c0-1.1-.4-1.6-1.2-1.6h-.1c-1.1 0-1.6 1-1.6 2.2c-.05.01 0 2.8 0 2.8h-.8s.04-3.42 0-3.4c0-1.1-.4-1.6-1.2-1.6h-.1c-1.1 0-1.6 1-1.6 2.2c-.03.01 0 2.8 0 2.8h-.7zm9.8 0v-5.5h.7s-.04.88 0 .9c.3-.6 1-1.1 1.9-1.1c1.1 0 1.9.7 1.9 2.1c.01-.04 0 3.6 0 3.6h-.7V102c0-1.1-.4-1.6-1.3-1.6h-.1c-1.2 0-1.7 1-1.7 2.2c-.04.01 0 2.8 0 2.8h-.7zm5.9-1.6c0-1.2 1-1.5 1.9-1.6c-.01-.01 1.7-.1 1.7-.1c0 0 .03-.26 0-.3c0-.9-.5-1.4-1.3-1.4h-.1c-.7 0-1.3.3-1.4 1h-.7c.1-1 .9-1.7 2.1-1.7c1.5 0 2.1 1 2.1 2.1v2.3c0 .4 0 .9.1 1.3h-.7v-.9c-.2.5-1 1-2 1c-.9 0-1.7-.7-1.7-1.7zm1.9 1.1c.8 0 1.7-.7 1.7-1.5c.03-.02 0-.8 0-.8c0 0-1.56.15-1.6.2c-.7 0-1.3.4-1.3 1c0 .6.5 1.1 1.1 1.1h.1zm3.7-1.2h.8c0 .8.6 1.2 1.4 1.2h.1c.8 0 1.2-.4 1.2-1c0-.5-.2-.7-.9-.9l-.8-.2c-.9-.1-1.5-.5-1.5-1.4c0-1.1.9-1.7 1.9-1.7c1.4 0 2 .9 2.1 1.8h-.7c-.1-.6-.6-1.1-1.3-1.1h-.1c-.8 0-1.2.4-1.2.9c0 .5.3.7 1 .9l.8.2c.8.1 1.4.5 1.4 1.4c0 1.1-.8 1.7-2 1.7c-1.4 0-2.1-.8-2.2-1.8zm5.7-4.8v-1h.8v1h-.8zm0 6.5v-5.5h.7v5.5h-.7zm2.4-1.9c.02-.01 0-3.6 0-3.6h.7s.03 3.37 0 3.4c0 1 .5 1.6 1.4 1.6h.1c.8 0 1.6-.8 1.6-2.1c-.04.03 0-2.9 0-2.9h.7v5.5h-.7s-.04-1.08 0-1.1c-.3.8-1 1.2-1.9 1.2c-1.2 0-1.9-.9-1.9-2zm6.2 1.9v-5.5h.7s.02.84 0 .8c.4-.5 1-1 1.8-1c.8 0 1.5.4 1.8 1.2c.4-.7 1-1.2 1.9-1.2c1.1 0 1.9.7 1.9 2.1c-.01-.04 0 3.6 0 3.6h-.7s-.02-3.42 0-3.4c0-1.1-.4-1.6-1.3-1.6h-.1c-1.1 0-1.6 1-1.6 2.2v2.8h-.7s-.01-3.42 0-3.4c0-1.1-.4-1.6-1.3-1.6c-1.2 0-1.7 1-1.7 2.2c.02.01 0 2.8 0 2.8h-.7z" stroke="none" fill="#dcddce"/></g><g id="Polygon20121"><path d="m12.4 79.7V72h.8v7.7h-.8zm2.7 0v-5.5h.7s-.01.92 0 .9c.3-.6 1-1 1.9-1c1.1 0 1.9.7 1.9 2c.04 0 0 3.6 0 3.6h-.7s.02-3.38 0-3.4c0-1.1-.4-1.6-1.3-1.6h-.1c-1.2 0-1.7 1.1-1.7 2.2v2.8h-.7zm5.9-2.8c0-1.7 1.1-2.8 2.5-2.8c.7 0 1.5.4 1.8 1c.03-.03 0-3.1 0-3.1h.7v7.7h-.7s.03-.89 0-.9c-.3.6-1.1 1-1.8 1c-1.4 0-2.5-1.1-2.5-2.9zm2.6 2.3c1.2 0 1.7-1.1 1.7-2.3c0-1.1-.5-2.2-1.7-2.2h-.1c-1.2 0-1.7 1.1-1.7 2.2c0 1.2.5 2.3 1.7 2.3h.1zm3.9-2.3c0-1.7 1.1-2.8 2.5-2.8c1.4 0 2.5 1.1 2.5 2.8c0 1.7-1.1 2.9-2.5 2.9c-1.4 0-2.5-1.2-2.5-2.9zm2.5 2.3c1 0 1.8-.8 1.8-2.3c0-1.4-.8-2.2-1.8-2.2h-.1c-1 0-1.7.8-1.7 2.2c0 1.5.7 2.3 1.7 2.3h.1zm3.6-2.3c0-1.7 1.2-2.8 2.6-2.8c1.4 0 2.5 1.1 2.5 2.8c0 1.7-1.1 2.9-2.5 2.9c-1.4 0-2.6-1.2-2.6-2.9zm2.6 2.3c1 0 1.8-.8 1.8-2.3c0-1.4-.8-2.2-1.8-2.2h-.1c-1 0-1.7.8-1.7 2.2c0 1.5.7 2.3 1.7 2.3h.1zm3.9.5v-5.5h.7v1.2c.2-.8.9-1.3 1.7-1.3c-.01.04.5 0 .5 0v.7h-.5c-1 0-1.7.8-1.7 2.2c.04.02 0 2.7 0 2.7h-.7zm6.8-.7h4v.7h-5v-.8s3.14-3.11 3.1-3.1c.9-.9 1.1-1.2 1.1-1.9c0-.7-.7-1.3-1.6-1.3h-.1c-1 0-1.6.6-1.6 1.6h-.8c0-1.3 1-2.3 2.4-2.3c1.5 0 2.4.9 2.4 2c0 1-.4 1.6-1.1 2.2c-.01.04-2.8 2.9-2.8 2.9zm5.2-3.2c0-2.5 1-3.9 2.9-3.9c1.8 0 2.9 1.4 2.9 3.9c0 2.6-1.1 4-2.9 4c-1.9 0-2.9-1.4-2.9-4zm2.9 3.3c1 0 2.1-.7 2.1-3.3c0-2.5-1.1-3.2-2.1-3.2h-.1c-.9 0-2.1.7-2.1 3.2c0 2.6 1.2 3.3 2.1 3.3h.1zm4.5.6v-5.5h.7s.01.87 0 .9c.3-.6 1-1 1.8-1c.8 0 1.5.4 1.8 1.1c.4-.7 1-1.1 1.9-1.1c1.1 0 1.9.7 1.9 2c-.02 0 0 3.6 0 3.6h-.7s-.03-3.38 0-3.4c0-1.1-.4-1.6-1.3-1.6h-.1c-1.1 0-1.6 1.1-1.6 2.2v2.8h-.7s-.01-3.38 0-3.4c0-1.1-.4-1.6-1.3-1.6c-1.2 0-1.7 1.1-1.7 2.2v2.8h-.7zm12 2.2v-7.7h.7v.9c.3-.6 1.1-1 1.8-1c1.5 0 2.5 1.1 2.5 2.8c0 1.8-1 2.9-2.5 2.9c-.7 0-1.5-.4-1.8-1v3.1h-.7zm2.5-2.7c1.2 0 1.8-1.1 1.8-2.3c0-1.1-.6-2.2-1.8-2.2c-1.2 0-1.8 1.1-1.8 2.2c0 1.2.6 2.3 1.8 2.3zm3.6-2.3c0-1.7 1.1-2.8 2.6-2.8c1.4 0 2.5 1.1 2.5 2.8c0 1.7-1.1 2.9-2.5 2.9c-1.5 0-2.6-1.2-2.6-2.9zm2.6 2.3c1 0 1.8-.8 1.8-2.3c0-1.4-.8-2.2-1.8-2.2h-.1c-1 0-1.7.8-1.7 2.2c0 1.5.7 2.3 1.7 2.3h.1zm3.6-2.3c0-1.7 1.1-2.8 2.5-2.8c1.5 0 2.6 1.1 2.6 2.8c0 1.7-1.1 2.9-2.6 2.9c-1.4 0-2.5-1.2-2.5-2.9zm2.6 2.3c1 0 1.7-.8 1.7-2.3c0-1.4-.7-2.2-1.7-2.2h-.1c-1 0-1.8.8-1.8 2.2c0 1.5.8 2.3 1.8 2.3h.1zm3.9.5V72h.7v7.7h-.7zm6.5 0c-1.2 0-2.1-.8-2.1-2c0-.9.5-1.6 1.3-1.9c-.7-.3-1.2-.9-1.2-1.8c0-1.3.9-2 2.1-2h1.4v.7H97c-.8 0-1.5.5-1.5 1.4c0 .8.7 1.3 1.5 1.3c.05.03 1.8 0 1.8 0V74h.8v1.4h1.2v.7h-1.2v3.6h-2.8zm2-.7v-2.9s-1.75.04-1.8 0c-.9 0-1.5.5-1.5 1.4c0 1 .6 1.5 1.6 1.5c-.04-.02 1.7 0 1.7 0zm5-1h.7c.1.8.7 1.2 1.4 1.2h.2c.7 0 1.2-.4 1.2-1c0-.4-.2-.7-1-.8l-.8-.2c-.8-.2-1.5-.6-1.5-1.5c0-1 1-1.6 2-1.6c1.4 0 2 .8 2.1 1.7h-.7c-.1-.6-.6-1.1-1.3-1.1h-.2c-.7 0-1.2.5-1.2.9c0 .5.3.8 1 .9l.9.2c.8.2 1.4.5 1.4 1.5c0 1-.8 1.6-2 1.6c-1.4 0-2.1-.7-2.2-1.8zm5.7 3.9v-7.7h.7s.02.87 0 .9c.4-.6 1.1-1 1.9-1c1.4 0 2.4 1.1 2.4 2.8c0 1.8-1 2.9-2.4 2.9c-.8 0-1.5-.4-1.9-1c.02.01 0 3.1 0 3.1h-.7zm2.5-2.7c1.2 0 1.8-1.1 1.8-2.3c0-1.1-.6-2.2-1.8-2.2c-1.2 0-1.8 1.1-1.8 2.2c0 1.2.6 2.3 1.8 2.3zm3.6-1c0-1.2 1.1-1.6 1.9-1.7c.02.03 1.8-.1 1.8-.1c0 0-.04-.23 0-.2c0-1-.6-1.5-1.4-1.5h-.1c-.7 0-1.3.3-1.3 1h-.8c.1-.9 1-1.6 2.2-1.6c1.4 0 2.1 1 2.1 2.1v3.5h-.6c-.1-.2-.1-.6-.1-.9c-.2.5-1 1-1.9 1c-1 0-1.8-.7-1.8-1.6zm2 1c.7 0 1.7-.7 1.7-1.5c-.04.01 0-.7 0-.7c0 0-1.64.09-1.6.1c-.8 0-1.4.4-1.4 1c0 .6.5 1.1 1.1 1.1h.2zm4.1.5v-1.1h1.1v1.1h-1.1z" stroke="none" fill="#dcddce"/></g><g id="Polygon20120"><path d="m12.8 54v-4.9h-1.2v-.6h1.2s.04-1.18 0-1.2c0-.7.4-1 1.1-1c-.02.03 1.4 0 1.4 0v.6s-1.31.03-1.3 0c-.3 0-.5.1-.5.5c.05-.03 0 1.1 0 1.1h1.5v.6h-1.5v4.9h-.7zm2.7-2.7c0-1.7 1.1-2.9 2.5-2.9c1.5 0 2.6 1.2 2.6 2.9c0 1.7-1.1 2.8-2.6 2.8c-1.4 0-2.5-1.1-2.5-2.8zm2.6 2.2c1 0 1.8-.8 1.8-2.2c0-1.4-.8-2.3-1.8-2.3h-.1c-1 0-1.8.9-1.8 2.3c0 1.4.8 2.2 1.8 2.2h.1zm3.8.5v-5.5h.7s-.05 1.28 0 1.3c.2-.9.9-1.3 1.7-1.3c-.04-.02.5 0 .5 0v.6s-.49.03-.5 0c-1 0-1.7.9-1.7 2.3v2.6h-.7zm5.6-2.7c0-2 1.2-2.9 2.4-2.9c1.4 0 2.3 1.1 2.3 2.5c-.05 0 0 .4 0 .4c0 0-4.01.03-4 0c0 1.6.8 2.2 1.7 2.2h.1c.7 0 1.2-.3 1.4-1h.7c-.2 1.1-1 1.6-2.2 1.6c-1.3 0-2.4-.9-2.4-2.8zm3.9-.6c0-.9-.6-1.7-1.4-1.7h-.1c-.7 0-1.5.4-1.7 1.7h3.2zm2.1 3.3v-5.5h.7s.03.95 0 1c.3-.7 1-1.1 2-1.1c1.1 0 1.9.7 1.9 2c-.02.03 0 3.6 0 3.6h-.7s-.04-3.35 0-3.3c0-1.1-.5-1.7-1.4-1.7c-1.2 0-1.8 1.1-1.8 2.3c.03-.02 0 2.7 0 2.7h-.7zm7.7 0c-.7 0-1-.2-1-1v-3.9h-1.3v-.6h1.3v-1.8h.7v1.8h1.4v.6h-1.4v3.9c0 .3.1.4.4.4c.04.03 1.1 0 1.1 0v.6s-1.17.03-1.2 0zm1.8-2.7c0-2 1.2-2.9 2.5-2.9c1.3 0 2.2 1.1 2.2 2.5c-.02 0 0 .4 0 .4c0 0-3.98.03-4 0c0 1.6.8 2.2 1.8 2.2c.8 0 1.2-.3 1.5-1h.7c-.3 1.1-1.1 1.6-2.2 1.6c-1.4 0-2.5-.9-2.5-2.8zm4-.6c-.1-.9-.6-1.7-1.5-1.7h-.1c-.7 0-1.5.4-1.7 1.7h3.3zm2 3.3v-5.5h.7v1.3c.3-.9.9-1.3 1.7-1.3c0-.02.5 0 .5 0v.6s-.44.03-.4 0c-1.1 0-1.7.9-1.7 2.3c-.05-.04 0 2.6 0 2.6h-.8zm5.9 0c-.8 0-1.1-.2-1.1-1v-3.9h-1.3v-.6h1.3v-1.8h.7v1.8h1.4v.6h-1.4s.03 3.89 0 3.9c0 .3.1.4.5.4c-.03.03 1.1 0 1.1 0v.6s-1.24.03-1.2 0zm1.9-1.5c0-1.2 1.1-1.6 1.9-1.6c.03-.04 1.8-.2 1.8-.2c0 0-.03-.19 0-.2c0-.9-.6-1.5-1.4-1.5h-.1c-.7 0-1.3.4-1.3 1.1h-.8c.1-1 1-1.7 2.2-1.7c1.4 0 2.1 1 2.1 2.1v3.5h-.6c-.1-.2-.1-.6-.1-.8c-.2.5-1 .9-1.9.9c-1 0-1.8-.7-1.8-1.6zm2 1c.7 0 1.7-.6 1.7-1.5c-.03.05 0-.7 0-.7c0 0-1.63.12-1.6.1c-.8.1-1.3.5-1.3 1.1c0 .6.4 1 1.1 1h.1zm3.9-6v-.9h.8v.9h-.8zm.1 6.5v-5.5h.7v5.5h-.7zm2.3 0v-5.5h.7v1c.3-.7 1-1.1 1.9-1.1c1.1 0 1.9.7 1.9 2c.05.03 0 3.6 0 3.6h-.7s.04-3.35 0-3.3c0-1.1-.4-1.7-1.3-1.7h-.1c-1.1 0-1.7 1.1-1.7 2.3v2.7h-.7zm6.1-6.5v-.9h.8v.9h-.8zm0 6.5v-5.5h.7v5.5h-.7zm2.4 0v-5.5h.7s-.03.95 0 1c.3-.7 1-1.1 1.9-1.1c1.1 0 1.9.7 1.9 2c.02.03 0 3.6 0 3.6h-.7s.01-3.35 0-3.3c0-1.1-.4-1.7-1.3-1.7h-.1c-1.2 0-1.7 1.1-1.7 2.3c-.03-.02 0 2.7 0 2.7h-.7zm5.7.8h.7c.1.7.8 1 1.7 1h.1c1 0 1.8-.5 1.8-1.9v-.9c-.3.6-1 1-1.8 1c-1.4 0-2.4-1-2.4-2.7c0-1.8 1-2.9 2.4-2.9c.8 0 1.5.4 1.8 1c-.01.01 0-.9 0-.9h.7v5.5c0 1.4-.9 2.4-2.5 2.4c-1.6 0-2.4-.6-2.5-1.6zm2.6-1.4c1 0 1.7-.7 1.7-2.1c0-1.4-.7-2.3-1.7-2.3h-.1c-1 0-1.7.9-1.7 2.3c0 1.4.7 2.1 1.7 2.1h.1zm6.8.6v-4.9h-1.3v-.6h1.3s-.04-1.18 0-1.2c0-.7.3-1 1-1c.01.03 1.4 0 1.4 0v.6s-1.28.03-1.3 0c-.3 0-.4.1-.4.5c-.02-.03 0 1.1 0 1.1h1.4v.6h-1.4v4.9h-.7zm3.1 0v-5.5h.7v1.3c.2-.9.9-1.3 1.7-1.3c-.01-.02.5 0 .5 0v.6s-.45.03-.5 0c-1 0-1.7.9-1.7 2.3c.04-.04 0 2.6 0 2.6h-.7zm3.8-6.5v-.9h.9v.9h-.9zm.1 6.5v-5.5h.7v5.5h-.7zm2-2.7c0-2 1.2-2.9 2.5-2.9c1.3 0 2.2 1.1 2.2 2.5v.4s-3.96.03-4 0c.1 1.6.9 2.2 1.8 2.2c.8 0 1.3-.3 1.5-1h.7c-.2 1.1-1.1 1.6-2.2 1.6c-1.4 0-2.5-.9-2.5-2.8zm4-.6c0-.9-.6-1.7-1.5-1.7h-.1c-.7 0-1.5.4-1.6 1.7h3.2zm2.1 3.3v-5.5h.7s-.03.95 0 1c.3-.7 1-1.1 1.9-1.1c1.1 0 1.9.7 1.9 2c.02.03 0 3.6 0 3.6h-.7s.01-3.35 0-3.3c0-1.1-.4-1.7-1.3-1.7h-.1c-1.2 0-1.7 1.1-1.7 2.3c-.03-.02 0 2.7 0 2.7h-.7zm5.8-2.7c0-1.8 1-2.9 2.5-2.9c.7 0 1.5.4 1.8 1v-3.1h.7v7.7h-.7v-.8c-.3.6-1.1.9-1.8.9c-1.5 0-2.5-1.1-2.5-2.8zm2.5 2.2c1.2 0 1.8-1 1.8-2.2c0-1.2-.6-2.3-1.8-2.3c-1.2 0-1.8 1.1-1.8 2.3c0 1.2.6 2.2 1.8 2.2zm3.8-1.1h.7c.1.7.6 1.1 1.4 1.1h.1c.8 0 1.3-.3 1.3-1c0-.4-.3-.6-1-.8l-.8-.2c-.8-.2-1.5-.5-1.5-1.5c0-1 .9-1.6 2-1.6c1.3 0 2 .9 2 1.8h-.7c-.1-.6-.5-1.2-1.3-1.2h-.1c-.8 0-1.2.5-1.2 1c0 .5.3.7 1 .9l.9.1c.7.2 1.4.6 1.4 1.5c0 1-.8 1.6-2 1.6c-1.5 0-2.2-.7-2.2-1.7zm7.3.1c0-1.2 1-1.6 1.9-1.6c0-.04 1.7-.2 1.7-.2c0 0 .04-.19 0-.2c0-.9-.5-1.5-1.3-1.5h-.1c-.7 0-1.3.4-1.4 1.1h-.7c.1-1 .9-1.7 2.1-1.7c1.5 0 2.1 1 2.1 2.1v2.3c0 .3 0 .8.1 1.2h-.7v-.8c-.2.5-1 .9-2 .9c-.9 0-1.7-.7-1.7-1.6zm1.9 1c.8 0 1.7-.6 1.7-1.5c.04.05 0-.7 0-.7c0 0-1.56.12-1.6.1c-.7.1-1.3.5-1.3 1.1c0 .6.5 1 1.1 1h.1zm4 .5v-5.5h.7s.04.95 0 1c.4-.7 1.1-1.1 2-1.1c1.1 0 1.9.7 1.9 2c-.01.03 0 3.6 0 3.6h-.7s-.02-3.35 0-3.3c0-1.1-.5-1.7-1.3-1.7h-.1c-1.2 0-1.8 1.1-1.8 2.3c.04-.02 0 2.7 0 2.7h-.7zm5.9-2.7c0-1.8 1-2.9 2.4-2.9c.8 0 1.5.4 1.9 1c-.03.01 0-3.1 0-3.1h.7v7.7h-.7s-.03-.85 0-.8c-.4.6-1.1.9-1.9.9c-1.4 0-2.4-1.1-2.4-2.8zm2.5 2.2c1.2 0 1.8-1 1.8-2.2c0-1.2-.6-2.3-1.8-2.3c-1.2 0-1.8 1.1-1.8 2.3c0 1.2.6 2.2 1.8 2.2zm6.8.5v-4.9h-1.2v-.6h1.2s.05-1.18 0-1.2c0-.7.4-1 1.1-1c-.01.03 1.4 0 1.4 0v.6s-1.3.03-1.3 0c-.3 0-.4.1-.4.5c-.04-.03 0 1.1 0 1.1h1.4v.6h-1.4v4.9h-.8zm2.9-1.5c0-1.2 1-1.6 1.9-1.6c-.03-.04 1.7-.2 1.7-.2v-.2c0-.9-.5-1.5-1.4-1.5c-.7 0-1.3.4-1.4 1.1h-.7c.1-1 .9-1.7 2.1-1.7c1.4 0 2.1 1 2.1 2.1v2.3c0 .3 0 .8.1 1.2h-.7v-.8c-.3.5-1 .9-2 .9c-.9 0-1.7-.7-1.7-1.6zm1.9 1c.8 0 1.7-.6 1.7-1.5v-.7s-1.58.12-1.6.1c-.8.1-1.3.5-1.3 1.1c0 .6.5 1 1.1 1h.1zm4 .5v-5.5h.7s.02.91 0 .9c.4-.6 1-1 1.8-1c.8 0 1.5.4 1.8 1.2c.4-.8 1-1.2 1.9-1.2c1.1 0 1.9.7 1.9 2c-.01.03 0 3.6 0 3.6h-.7s-.02-3.35 0-3.3c0-1.1-.4-1.7-1.3-1.7h-.1c-1.1 0-1.6 1.1-1.6 2.3v2.7h-.7s-.01-3.35 0-3.3c0-1.1-.4-1.7-1.3-1.7c-1.2 0-1.7 1.1-1.7 2.3c.02-.02 0 2.7 0 2.7h-.7zm9.6-6.5v-.9h.9v.9h-.9zm.1 6.5v-5.5h.7v5.5h-.7zm2.3 0v-7.7h.7v7.7h-.7zm7.1-5.5l-2.3 5.3v1.1c0 .7-.3.9-1 .9c-.04.04-1.7 0-1.7 0v-.6s1.55.04 1.6 0c.3 0 .4-.1.4-.4c-.01 0 0-.9 0-.9l-2.3-5.4h.7l1.9 4.5l1.9-4.5h.8zm.2 5.5v-1.1h1.1v1.1h-1.1z" stroke="none" fill="#dcddce"/></g><g id="Polygon20119"><path d="m11.9 37.4c0-1.2 1-1.6 1.9-1.7l1.7-.1s.03-.24 0-.2c0-1-.5-1.5-1.3-1.5h-.1c-.7 0-1.3.3-1.4 1h-.7c.1-1 .9-1.6 2.1-1.6c1.5 0 2.1.9 2.1 2.1v2.3c0 .3 0 .8.1 1.2h-.7v-.9c-.2.5-1 1-2 1c-.9 0-1.7-.7-1.7-1.6zm1.9 1c.8 0 1.7-.7 1.7-1.5c.03 0 0-.7 0-.7c0 0-1.57.07-1.6.1c-.7 0-1.3.4-1.3 1c0 .6.5 1.1 1.1 1.1h.1zm6.3.5v-7.7s3.23-.02 3.2 0c1.2 0 2.2.7 2.2 2c0 .9-.6 1.6-1.3 1.8c.6.1 1.4.6 1.4 1.8c0 1.3-1 2.1-2.2 2.1c.01-.02-3.3 0-3.3 0zm.8-4.3s2.35.02 2.4 0c.8 0 1.4-.5 1.4-1.3c0-.9-.6-1.4-1.4-1.4h-2.4v2.7zm0 3.6s2.34-.03 2.3 0c1 0 1.6-.5 1.6-1.5c0-.9-.6-1.4-1.5-1.4c-.05.04-2.4 0-2.4 0v2.9zm6.3.7v-7.7s3.23-.02 3.2 0c1.2 0 2.2.7 2.2 2c0 .9-.6 1.6-1.3 1.8c.6.1 1.4.6 1.4 1.8c0 1.3-1 2.1-2.2 2.1c.01-.02-3.3 0-3.3 0zm.8-4.3s2.36.02 2.4 0c.8 0 1.4-.5 1.4-1.3c0-.9-.6-1.4-1.4-1.4H28v2.7zm0 3.6s2.35-.03 2.3 0c1 0 1.7-.5 1.7-1.5c0-.9-.7-1.4-1.6-1.4c-.04.04-2.4 0-2.4 0v2.9zm9.8 1.3c0 .4.1.6.5.6h1.6v.7h-1.8c-.7 0-1.1-.4-1.1-1.2v-.6c-1.8-.2-3.2-1.6-3.2-4c0-2.4 1.5-3.9 3.6-3.9c2 0 3.5 1.5 3.5 3.9c0 2.3-1.3 3.8-3.1 4v.5zm-.5-1.2h.1c1.6 0 2.7-1.3 2.7-3.3c0-2-1.1-3.2-2.7-3.2h-.1c-1.6 0-2.7 1.2-2.7 3.2c0 2 1.1 3.3 2.7 3.3zm7 2.8v-7.7h.8s-.05.86 0 .9c.3-.6 1.1-1 1.8-1c1.4 0 2.4 1.1 2.4 2.8c0 1.8-1 2.9-2.4 2.9c-.7 0-1.5-.4-1.8-1c-.05 0 0 3.1 0 3.1h-.8zm2.6-2.7c1.1 0 1.7-1.1 1.7-2.3c0-1.2-.6-2.2-1.7-2.2h-.1c-1.2 0-1.7 1-1.7 2.2c0 1.2.5 2.3 1.7 2.3h.1zm3.5-1c0-1.2 1-1.6 1.8-1.7c.04.01 1.8-.1 1.8-.1c0 0-.02-.24 0-.2c0-1-.5-1.5-1.4-1.5c-.8 0-1.3.3-1.4 1h-.7c0-1 .9-1.6 2.1-1.6c1.4 0 2.1.9 2.1 2.1v2.3c0 .3 0 .8.1 1.2h-.7c-.1-.3-.1-.6-.1-.9c-.2.5-.9 1-1.9 1c-1 0-1.7-.7-1.7-1.6zm1.9 1c.7 0 1.7-.7 1.7-1.5c-.02 0 0-.7 0-.7c0 0-1.61.07-1.6.1c-.8 0-1.3.4-1.3 1c0 .6.4 1.1 1.1 1.1h.1zm7.5-5h.8l-2.2 5.5h-.8l-2.2-5.5h.8l1.8 4.8l1.8-4.8zm1.7-1v-.9h.8v.9h-.8zm.1 6.5v-5.5h.7v5.5h-.7zm2.3 0v-7.7h.7v7.7h-.7zm2.3-6.5v-.9h.8v.9h-.8zm0 6.5v-5.5h.7v5.5h-.7zm2-2.8c0-1.7 1.2-2.8 2.6-2.8c1.4 0 2.5 1.1 2.5 2.8c0 1.7-1.1 2.9-2.5 2.9c-1.4 0-2.6-1.2-2.6-2.9zm2.6 2.3c1 0 1.8-.9 1.8-2.3c0-1.4-.8-2.2-1.8-2.2h-.1c-1 0-1.7.8-1.7 2.2c0 1.4.7 2.3 1.7 2.3h.1zm3.8.5v-5.5h.7s.03.9 0 .9c.3-.6 1.1-1 2-1c1.1 0 1.9.7 1.9 2c-.02-.02 0 3.6 0 3.6h-.7s-.03-3.4 0-3.4c0-1.1-.5-1.6-1.4-1.6c-1.2 0-1.8 1-1.8 2.2c.03.03 0 2.8 0 2.8h-.7zm7.9-1.5c0-1.2 1.1-1.6 1.9-1.7c.04.01 1.8-.1 1.8-.1c0 0-.02-.24 0-.2c0-1-.6-1.5-1.4-1.5h-.1c-.7 0-1.3.3-1.3 1h-.7c0-1 .9-1.6 2.1-1.6c1.4 0 2.1.9 2.1 2.1v3.5h-.6c-.1-.3-.1-.6-.1-.9c-.2.5-.9 1-1.9 1c-1 0-1.8-.7-1.8-1.6zm2 1c.7 0 1.7-.7 1.7-1.5c-.02 0 0-.7 0-.7c0 0-1.62.07-1.6.1c-.8 0-1.3.4-1.3 1c0 .6.4 1.1 1.1 1.1h.1zm4 .5v-5.5h.7s-.02.9 0 .9c.3-.6 1-1 1.9-1c1.1 0 1.9.7 1.9 2c.03-.02 0 3.6 0 3.6h-.7s.02-3.4 0-3.4c0-1.1-.4-1.6-1.3-1.6h-.1c-1.2 0-1.7 1-1.7 2.2c-.02.03 0 2.8 0 2.8h-.7zm5.8-2.8c0-1.7 1-2.8 2.5-2.8c.7 0 1.5.4 1.8 1c.02-.04 0-3.1 0-3.1h.7v7.7h-.7s.02-.9 0-.9c-.3.6-1.1 1-1.8 1c-1.5 0-2.5-1.1-2.5-2.9zm2.6 2.3c1.1 0 1.7-1.1 1.7-2.3c0-1.2-.6-2.2-1.7-2.2h-.1c-1.2 0-1.7 1-1.7 2.2c0 1.2.5 2.3 1.7 2.3h.1zm6.2.5v-7.7h.7v7.7h-.7zm2.3-1.9c-.04.01 0-3.6 0-3.6h.7s-.02 3.39 0 3.4c0 1 .4 1.6 1.3 1.6h.1c.8 0 1.6-.8 1.6-2.1v-2.9h.7v5.5h-.7v-1.1c-.3.8-.9 1.2-1.8 1.2c-1.3 0-1.9-.8-1.9-2zm5.7.2h.7c.1.8.6 1.2 1.4 1.2h.1c.8 0 1.3-.4 1.3-1c0-.4-.3-.7-1-.9l-.8-.1c-.8-.2-1.5-.6-1.5-1.5c0-1.1.9-1.6 2-1.6c1.3 0 2 .8 2 1.7h-.7c-.1-.6-.5-1.1-1.3-1.1h-.1c-.8 0-1.2.4-1.2.9c0 .5.3.7 1 .9l.9.2c.7.2 1.4.5 1.4 1.4c0 1.1-.8 1.7-2 1.7c-1.5 0-2.2-.8-2.2-1.8zm5.6 1.7v-7.7h.7s-.03 3.11 0 3.1c.3-.6 1-1 1.9-1c1.3 0 1.9.8 1.9 1.9c.02.05 0 3.7 0 3.7h-.7v-3.4c0-1.1-.4-1.6-1.3-1.6h-.1c-.9 0-1.7.7-1.7 2c-.03.01 0 3 0 3h-.7zm8.2 0v-7.7h.7v7.7h-.7zm2.1-1.5c0-1.2 1-1.6 1.8-1.7c.05.01 1.8-.1 1.8-.1v-.2c0-1-.5-1.5-1.4-1.5c-.7 0-1.3.3-1.4 1h-.7c0-1 .9-1.6 2.1-1.6c1.4 0 2.1.9 2.1 2.1v2.3c0 .3 0 .8.1 1.2h-.7c0-.3-.1-.6-.1-.9c-.2.5-.9 1-1.9 1c-1 0-1.7-.7-1.7-1.6zm1.9 1c.7 0 1.7-.7 1.7-1.5v-.7s-1.61.07-1.6.1c-.8 0-1.3.4-1.3 1c0 .6.4 1.1 1.1 1.1h.1zm10.4-5h.7l-1.7 5.5h-1l-1.2-4.8l-1.3 4.8h-.9l-1.8-5.5h.8l1.5 4.8l1.2-4.8h.9l1.3 4.9l1.5-4.9zm1.8 5.5v-5.5h.7s.01.9 0 .9c.3-.6 1-1 1.9-1c1.1 0 2 .7 2 2c-.04-.02 0 3.6 0 3.6h-.8s.04-3.4 0-3.4c0-1.1-.4-1.6-1.3-1.6c-1.2 0-1.8 1-1.8 2.2v2.8h-.7zm5.7-1.7h.8c0 .8.6 1.2 1.4 1.2h.1c.8 0 1.2-.4 1.2-1c0-.4-.2-.7-.9-.9l-.8-.1c-.9-.2-1.5-.6-1.5-1.5c0-1.1.9-1.6 1.9-1.6c1.4 0 2 .8 2.1 1.7h-.7c-.1-.6-.6-1.1-1.3-1.1h-.1c-.8 0-1.2.4-1.2.9c0 .5.3.7 1 .9l.8.2c.8.2 1.4.5 1.4 1.4c0 1.1-.8 1.7-2 1.7c-1.4 0-2.1-.8-2.2-1.8zm5.2 2.9v-.4h.3c.5 0 .7-.2.7-.7c-.03.04 0-.1 0-.1h-.6v-1.1h1.1s-.03 1.3 0 1.3c0 .7-.4 1-1.1 1c.02.04-.4 0-.4 0zm5.1 1v-7.7h.7s.01.86 0 .9c.3-.6 1.1-1 1.8-1c1.5 0 2.5 1.1 2.5 2.8c0 1.8-1 2.9-2.5 2.9c-.7 0-1.5-.4-1.8-1v3.1h-.7zm2.5-2.7c1.2 0 1.8-1.1 1.8-2.3c0-1.2-.6-2.2-1.8-2.2c-1.2 0-1.8 1-1.8 2.2c0 1.2.6 2.3 1.8 2.3zm3.6-2.3c0-1.9 1.1-2.8 2.4-2.8c1.3 0 2.2 1 2.2 2.4c.03.05 0 .5 0 .5c0 0-3.93-.02-3.9 0c0 1.5.8 2.2 1.7 2.2h.1c.7 0 1.2-.4 1.4-1.1h.7c-.2 1.1-1.1 1.7-2.2 1.7c-1.4 0-2.4-1-2.4-2.9zm3.9-.5c0-1-.6-1.7-1.5-1.7h-.1c-.7 0-1.5.4-1.6 1.7h3.2zm2.1 3.3v-5.5h.6s.04 1.23 0 1.2c.3-.8 1-1.3 1.7-1.3c.05.03.5 0 .5 0v.7s-.4-.02-.4 0c-1.1 0-1.7.8-1.7 2.2v2.7h-.7zm4.8 0V34h-1.3v-.6h1.3v-1.2c0-.7.3-1 1-1c.03-.02 1.4 0 1.4 0v.6s-1.26-.02-1.3 0c-.3 0-.4.1-.4.4v1.2h1.4v.6h-1.4v4.9h-.7zm2.7-2.8c0-1.9 1.2-2.8 2.5-2.8c1.3 0 2.2 1 2.2 2.4c-.02.05 0 .5 0 .5c0 0-3.98-.02-4 0c0 1.5.8 2.2 1.7 2.2h.1c.8 0 1.2-.4 1.5-1.1h.7c-.3 1.1-1.1 1.7-2.2 1.7c-1.4 0-2.5-1-2.5-2.9zm4-.5c-.1-1-.6-1.7-1.5-1.7h-.1c-.7 0-1.5.4-1.7 1.7h3.3zm1.7.5c0-1.6.9-2.8 2.6-2.8c1.2 0 2 .7 2.1 1.8h-.7c-.1-.7-.6-1.2-1.4-1.2h-.1c-1.2 0-1.8 1-1.8 2.2c0 1.2.6 2.3 1.8 2.3h.1c.8 0 1.3-.6 1.4-1.3h.7c-.2 1.2-.9 1.9-2.1 1.9c-1.7 0-2.6-1.3-2.6-2.9zm7.7 2.8c-.7 0-1.1-.3-1.1-1c.03-.01 0-3.9 0-3.9h-1.2v-.6h1.2v-1.8h.7v1.8h1.4v.6h-1.4s.04 3.84 0 3.8c0 .4.1.5.5.5c-.02-.02 1.1 0 1.1 0v.6s-1.23-.02-1.2 0z" stroke="none" fill="#dcddce"/></g><g id="Polygon20118"><path d="m11.8 22.1h.7c.1.7.7 1.1 1.4 1.1h.1c.8 0 1.3-.3 1.3-1c0-.4-.3-.6-1-.8l-.8-.2c-.8-.2-1.5-.5-1.5-1.5c0-1 .9-1.6 2-1.6c1.4 0 2 .9 2 1.8h-.7c0-.6-.5-1.2-1.3-1.2h-.1c-.7 0-1.2.5-1.2 1c0 .5.3.7 1 .9l.9.1c.8.2 1.4.6 1.4 1.5c0 1-.8 1.6-2 1.6c-1.4 0-2.2-.7-2.2-1.7zm5.6 3.8v-7.7h.7s-.01.91 0 .9c.3-.6 1.1-1 1.8-1c1.5 0 2.5 1.1 2.5 2.9c0 1.7-1 2.8-2.5 2.8c-.7 0-1.5-.3-1.8-.9v3h-.7zm2.5-2.7c1.2 0 1.8-1 1.8-2.2c0-1.2-.6-2.3-1.8-2.3c-1.2 0-1.8 1.1-1.8 2.3c0 1.2.6 2.2 1.8 2.2zm3.5-2.2c0-2 1.2-2.9 2.5-2.9c1.3 0 2.2 1.1 2.2 2.5v.4s-3.96.03-4 0c.1 1.6.9 2.2 1.8 2.2c.8 0 1.3-.3 1.5-1h.7c-.2 1.1-1.1 1.6-2.2 1.6c-1.4 0-2.5-.9-2.5-2.8zm4-.6c0-.9-.6-1.7-1.5-1.7h-.1c-.7 0-1.5.4-1.6 1.7h3.2zm1.8.6c0-1.6.9-2.9 2.5-2.9c1.2 0 2 .7 2.1 1.9h-.7c-.1-.7-.6-1.3-1.4-1.3h-.1c-1.2 0-1.7 1.1-1.7 2.3c0 1.2.5 2.2 1.7 2.2h.1c.8 0 1.3-.5 1.4-1.2h.7c-.2 1.1-.9 1.8-2.1 1.8c-1.6 0-2.5-1.2-2.5-2.8zm7.6 2.7c-.7 0-1-.2-1-1c-.05.04 0-3.9 0-3.9h-1.3v-.6h1.3v-1.8h.7v1.8h1.3v.6h-1.3s-.04 3.89 0 3.9c0 .3.1.4.4.4c0 .03 1.1 0 1.1 0v.6s-1.21.03-1.2 0zm2-1.5c0-1.2 1-1.6 1.9-1.6c-.03-.04 1.7-.2 1.7-.2v-.2c0-.9-.5-1.5-1.4-1.5c-.7 0-1.3.4-1.4 1.1h-.7c.1-1 .9-1.7 2.1-1.7c1.4 0 2.1 1 2.1 2.1v2.3c0 .3 0 .8.1 1.2h-.7v-.8c-.3.5-1 .9-2 .9c-1 0-1.7-.7-1.7-1.6zm1.9 1c.8 0 1.7-.6 1.7-1.5v-.7s-1.59.12-1.6.1c-.8.1-1.3.5-1.3 1.1c0 .6.5 1 1.1 1h.1zm3.7-2.2c0-1.6.9-2.9 2.5-2.9c1.2 0 2 .7 2.2 1.9h-.8c-.1-.7-.6-1.3-1.3-1.3h-.1c-1.2 0-1.8 1.1-1.8 2.3c0 1.2.6 2.2 1.8 2.2h.1c.7 0 1.2-.5 1.3-1.2h.8c-.2 1.1-1 1.8-2.2 1.8c-1.6 0-2.5-1.2-2.5-2.8zm5.9.9c-.01-.04 0-3.7 0-3.7h.7v3.4c0 1.1.4 1.6 1.3 1.6h.1c.8 0 1.6-.7 1.6-2c.03 0 0-3 0-3h.7v5.5h-.7s.03-1 0-1c-.3.7-.9 1.1-1.8 1.1c-1.2 0-1.9-.8-1.9-1.9zm6.1 1.8V16h.7v7.7h-.7zm2-1.5c0-1.2 1.1-1.6 1.9-1.6c.01-.04 1.8-.2 1.8-.2c0 0-.05-.19 0-.2c0-.9-.6-1.5-1.4-1.5h-.1c-.7 0-1.3.4-1.4 1.1h-.7c.1-1 1-1.7 2.1-1.7c1.5 0 2.2 1 2.2 2.1v3.5h-.6c-.1-.2-.1-.6-.1-.8c-.2.5-1 .9-1.9.9c-1 0-1.8-.7-1.8-1.6zm1.9 1c.8 0 1.8-.6 1.8-1.5c-.05.05 0-.7 0-.7c0 0-1.65.12-1.6.1c-.8.1-1.4.5-1.4 1.1c0 .6.5 1 1.1 1h.1zm4 .5v-5.5h.7v1.3c.3-.9.9-1.3 1.7-1.3c.01-.02.5 0 .5 0v.6s-.44.03-.4 0c-1.1 0-1.7.9-1.7 2.3c-.04-.04 0 2.6 0 2.6h-.8zm6.6-.7h4v.7h-5v-.7s3.13-3.18 3.1-3.2c.9-.9 1.1-1.2 1.1-1.8c0-.7-.7-1.4-1.6-1.4h-.1c-1 0-1.6.7-1.6 1.7h-.8c0-1.4 1-2.4 2.4-2.4c1.4 0 2.4.9 2.4 2.1c0 .9-.4 1.5-1.1 2.2c-.02-.02-2.8 2.8-2.8 2.8zm4.8-7h5.1s-.01.91 0 .9c-1.9 1.2-3 3.3-3 6.6c.03.01 0 .2 0 .2h-.7s-.02-.29 0-.3c0-3.3 1.2-5.6 2.9-6.6c.04-.03-4.3 0-4.3 0v-.8zm5.8 3.9c0-2.6 1.1-4 2.9-4c1.8 0 2.9 1.4 2.9 4c0 2.6-1.1 3.9-2.9 3.9c-1.8 0-2.9-1.3-2.9-3.9zm3 3.2c.9 0 2.1-.7 2.1-3.2c0-2.6-1.2-3.3-2.1-3.3h-.2c-.9 0-2.1.7-2.1 3.3c0 2.5 1.2 3.2 2.1 3.2h.2zm4.1-2.4v-.6h2.8v.6h-2.8zm4 .3c0-1.8 1-2.9 2.4-2.9c.7 0 1.5.4 1.8 1c.04.01 0-3.1 0-3.1h.8v7.7h-.8s.04-.85 0-.8c-.3.6-1.1.9-1.8.9c-1.4 0-2.4-1.1-2.4-2.8zm2.5 2.2c1.2 0 1.7-1 1.7-2.2c0-1.2-.5-2.3-1.7-2.3h-.1c-1.2 0-1.7 1.1-1.7 2.3c0 1.2.5 2.2 1.7 2.2h.1zm3.8-2.2c0-2 1.2-2.9 2.4-2.9c1.4 0 2.3 1.1 2.3 2.5c-.04 0 0 .4 0 .4c0 0-4 .03-4 0c0 1.6.8 2.2 1.7 2.2h.1c.7 0 1.2-.3 1.4-1h.8c-.3 1.1-1.1 1.6-2.3 1.6c-1.3 0-2.4-.9-2.4-2.8zm4-.6c-.1-.9-.6-1.7-1.5-1.7h-.1c-.7 0-1.5.4-1.7 1.7h3.3zm1.6 4.1h.7c.1.7.8 1 1.7 1h.1c1 0 1.8-.5 1.8-1.9v-.9c-.3.6-.9 1-1.8 1c-1.4 0-2.4-1-2.4-2.7c0-1.8 1-2.9 2.4-2.9c.9 0 1.5.4 1.8 1v-.9h.7s.02 5.49 0 5.5c0 1.4-.9 2.4-2.5 2.4c-1.6 0-2.4-.6-2.5-1.6zm2.6-1.4c1 0 1.7-.7 1.7-2.1c0-1.4-.7-2.3-1.7-2.3h-.1c-1 0-1.7.9-1.7 2.3c0 1.4.7 2.1 1.7 2.1h.1zm4 .6v-5.5h.7v1.3c.3-.9.9-1.3 1.7-1.3c.01-.02.5 0 .5 0v.6s-.44.03-.4 0c-1.1 0-1.7.9-1.7 2.3c-.04-.04 0 2.6 0 2.6h-.8zm3.5-2.7c0-2 1.2-2.9 2.4-2.9c1.4 0 2.2 1.1 2.2 2.5c.04 0 0 .4 0 .4c0 0-3.92.03-3.9 0c0 1.6.8 2.2 1.7 2.2h.1c.7 0 1.2-.3 1.4-1h.7c-.2 1.1-1.1 1.6-2.2 1.6c-1.4 0-2.4-.9-2.4-2.8zm3.9-.6c0-.9-.6-1.7-1.4-1.7h-.1c-.7 0-1.5.4-1.7 1.7h3.2zm1.8.6c0-2 1.2-2.9 2.4-2.9c1.4 0 2.3 1.1 2.3 2.5c-.03 0 0 .4 0 .4c0 0-3.99.03-4 0c0 1.6.8 2.2 1.7 2.2h.1c.7 0 1.2-.3 1.4-1h.8c-.3 1.1-1.1 1.6-2.3 1.6c-1.3 0-2.4-.9-2.4-2.8zm4-.6c-.1-.9-.6-1.7-1.5-1.7h-.1c-.7 0-1.5.4-1.7 1.7h3.3zm7.8-2.2h.7l-2.1 5.5h-.9l-2.1-5.5h.8l1.8 4.9l1.8-4.9zm1.7-1v-.9h.8v.9h-.8zm.1 6.5v-5.5h.7v5.5h-.7zm2-2.7c0-2 1.2-2.9 2.4-2.9c1.4 0 2.3 1.1 2.3 2.5c-.04 0 0 .4 0 .4c0 0-4 .03-4 0c0 1.6.8 2.2 1.7 2.2h.1c.7 0 1.2-.3 1.4-1h.7c-.2 1.1-1 1.6-2.2 1.6c-1.3 0-2.4-.9-2.4-2.8zm3.9-.6c0-.9-.5-1.7-1.4-1.7h-.1c-.7 0-1.5.4-1.7 1.7h3.2zm8.6-2.2h.7l-1.8 5.5h-.9l-1.3-4.7l-1.2 4.7h-.9l-1.8-5.5h.7l1.5 4.9l1.3-4.9h.9l1.3 5l1.5-5zm1.3 3.9h.7c.1.7.6 1.1 1.4 1.1h.1c.8 0 1.2-.3 1.2-1c0-.4-.2-.6-.9-.8l-.8-.2c-.8-.2-1.5-.5-1.5-1.5c0-1 .9-1.6 2-1.6c1.3 0 2 .9 2 1.8h-.7c-.1-.6-.5-1.2-1.3-1.2h-.1c-.8 0-1.2.5-1.2 1c0 .5.3.7 1 .9l.9.1c.7.2 1.4.6 1.4 1.5c0 1-.8 1.6-2 1.6c-1.5 0-2.2-.7-2.2-1.7zm5.1 2.9v-.4s.33-.04.3 0c.5 0 .7-.3.7-.7v-.2h-.6v-1.1h1.1v1.3c0 .7-.4 1.1-1.1 1.1h-.4zm5.8-2.1c.03-.05 0 .8 0 .8h-.7V16h.7s.03 3.11 0 3.1c.4-.6 1.2-1 1.9-1c1.4 0 2.4 1.1 2.4 2.9c0 1.7-1 2.8-2.4 2.8c-.7 0-1.5-.3-1.9-.9zm1.8.3c1.2 0 1.8-1 1.8-2.2c0-1.2-.6-2.3-1.8-2.3c-1.2 0-1.8 1.1-1.8 2.3c0 1.2.6 2.2 1.8 2.2zm3.5-2.2c0-1.7 1.2-2.9 2.6-2.9c1.4 0 2.5 1.2 2.5 2.9c0 1.7-1.1 2.8-2.5 2.8c-1.4 0-2.6-1.1-2.6-2.8zm2.6 2.2c1 0 1.8-.8 1.8-2.2c0-1.4-.8-2.3-1.8-2.3h-.1c-1 0-1.7.9-1.7 2.3c0 1.4.7 2.2 1.7 2.2h.1zm3.5-1c0-1.2 1-1.6 1.9-1.6c-.03-.04 1.7-.2 1.7-.2v-.2c0-.9-.5-1.5-1.4-1.5c-.7 0-1.3.4-1.4 1.1h-.7c.1-1 .9-1.7 2.1-1.7c1.4 0 2.1 1 2.1 2.1v2.3c0 .3 0 .8.1 1.2h-.7v-.8c-.3.5-1 .9-2 .9c-.9 0-1.7-.7-1.7-1.6zm1.9 1c.8 0 1.7-.6 1.7-1.5v-.7s-1.58.12-1.6.1c-.8.1-1.3.5-1.3 1.1c0 .6.5 1 1.1 1h.1zm3.6-1.1h.7c.1.7.7 1.1 1.4 1.1h.2c.7 0 1.2-.3 1.2-1c0-.4-.2-.6-1-.8l-.8-.2c-.8-.2-1.5-.5-1.5-1.5c0-1 1-1.6 2-1.6c1.4 0 2 .9 2.1 1.8h-.7c-.1-.6-.6-1.2-1.3-1.2h-.2c-.7 0-1.2.5-1.2 1c0 .5.3.7 1.1.9l.8.1c.8.2 1.4.6 1.4 1.5c0 1-.8 1.6-2 1.6c-1.4 0-2.1-.7-2.2-1.7zm7.3 1.6c-.7 0-1.1-.2-1.1-1c.04.04 0-3.9 0-3.9h-1.2v-.6h1.2v-1.8h.8v1.8h1.3v.6h-1.3s-.05 3.89 0 3.9c0 .3.1.4.4.4c-.01.03 1.1 0 1.1 0v.6s-1.22.03-1.2 0zm2.2-6.5v-.9h.8v.9h-.8zm0 6.5v-5.5h.7v5.5h-.7zm2.3 0v-5.5h.8s-.04.95 0 1c.3-.7 1-1.1 1.9-1.1c1.1 0 1.9.7 1.9 2c.01.03 0 3.6 0 3.6h-.7v-3.3c0-1.1-.4-1.7-1.3-1.7h-.1c-1.2 0-1.7 1.1-1.7 2.3c-.04-.02 0 2.7 0 2.7h-.8zm5.8.8h.7c.1.7.8 1 1.7 1h.1c.9 0 1.8-.5 1.8-1.9v-.9c-.3.6-1 1-1.8 1c-1.4 0-2.4-1-2.4-2.7c0-1.8 1-2.9 2.4-2.9c.8 0 1.5.4 1.8 1c-.02.01 0-.9 0-.9h.7v5.5c0 1.4-1 2.4-2.5 2.4c-1.6 0-2.4-.6-2.5-1.6zm2.6-1.4c1 0 1.7-.7 1.7-2.1c0-1.4-.7-2.3-1.7-2.3h-.1c-1 0-1.7.9-1.7 2.3c0 1.4.7 2.1 1.7 2.1h.1z" stroke="none" fill="#dcddce"/></g><g id="Polygon20117"><path d="m12.4 8.6V.9h.8v7h4.6v.7h-5.4zm6.2-2.8C18.6 3.9 19.7 3 21 3c1.4 0 2.2 1 2.2 2.4c.04.05 0 .5 0 .5c0 0-3.92-.02-3.9 0c0 1.5.8 2.2 1.7 2.2h.1c.7 0 1.2-.4 1.4-1.1h.7C23 8.1 22.1 8.7 21 8.7c-1.4 0-2.4-1-2.4-2.9zm3.9-.5c0-1-.6-1.7-1.4-1.7h-.2c-.6 0-1.4.4-1.6 1.7h3.2zm5.8-2.2h.8L27 8.6h-.9L24 3.1h.7l1.8 4.8l1.8-4.8zm1.5 2.7c0-1.9 1.1-2.8 2.4-2.8c1.4 0 2.2 1 2.2 2.4c.03.05 0 .5 0 .5c0 0-3.93-.02-3.9 0c0 1.5.8 2.2 1.7 2.2h.1c.7 0 1.2-.4 1.4-1.1h.7c-.2 1.1-1.1 1.7-2.2 1.7c-1.4 0-2.4-1-2.4-2.9zm3.9-.5c0-1-.6-1.7-1.4-1.7h-.2c-.6 0-1.5.4-1.6 1.7h3.2zM36 8.6V.9h.7v7.7h-.7zm4.4-2h.8c.1.9.7 1.4 1.7 1.4h.1c.9 0 1.7-.5 1.7-1.5c0-.9-.7-1.4-1.7-1.4h-.4v-.7s.55-.02.5 0c1 0 1.6-.7 1.6-1.4c0-1-.8-1.5-1.7-1.5h-.1c-.9 0-1.5.6-1.6 1.4h-.7c0-1.2 1-2.1 2.3-2.1c1.4 0 2.5.7 2.5 2.1c0 .8-.6 1.5-1.3 1.8c.7.3 1.4.9 1.4 1.8c0 1.5-1.2 2.2-2.6 2.2c-1.4 0-2.3-.8-2.5-2.1zm11.9-2.1c0 2.5-1.3 4.2-3.1 4.2c-1.3 0-2.1-.7-2.4-1.9h.8c.1.7.8 1.2 1.6 1.2h.1c1.3 0 2.2-1.4 2.3-3.4c-.4.9-1.3 1.3-2.2 1.3c-1.5 0-2.5-1-2.5-2.4c0-1.7 1.1-2.7 2.6-2.7c1.7 0 2.8 1.4 2.8 3.7zm-2.8.7c1.1 0 1.9-.8 1.9-1.8c0-1.1-.8-1.9-1.9-1.9h-.1c-1 0-1.7.8-1.7 1.9c0 1 .7 1.8 1.7 1.8h.1zm6.6 3.4V3.1h.6s.05 1.23 0 1.2c.3-.8 1-1.3 1.8-1.3c-.05.03.4 0 .4 0v.7s-.39-.02-.4 0c-1 0-1.7.8-1.7 2.2v2.7h-.7zm3.5-2.8c0-1.7 1.2-2.8 2.6-2.8c1.4 0 2.5 1.1 2.5 2.8c0 1.7-1.1 2.9-2.5 2.9c-1.4 0-2.6-1.2-2.6-2.9zm2.6 2.3c1 0 1.8-.9 1.8-2.3c0-1.4-.8-2.2-1.8-2.2h-.1c-1 0-1.7.8-1.7 2.2c0 1.4.7 2.3 1.7 2.3h.1zm3.7-2.3C65.9 4.1 67 3 68.4 3c1.4 0 2.5 1.1 2.5 2.8c0 1.7-1.1 2.9-2.5 2.9c-1.4 0-2.5-1.2-2.5-2.9zm2.6 2.3c1 0 1.7-.9 1.7-2.3c0-1.4-.7-2.2-1.7-2.2h-.1c-1 0-1.8.8-1.8 2.2c0 1.4.8 2.3 1.8 2.3h.1zm4.4.5V3.7h-1.2v-.6h1.2s.02-1.23 0-1.2c0-.7.4-1 1.1-1c-.03-.02 1.3 0 1.3 0v.6s-1.22-.02-1.2 0c-.4 0-.5.1-.5.4c.04.02 0 1.2 0 1.2h1.5v.6h-1.5v4.9h-.7zm5.3 0c-.7 0-1-.3-1-1c-.04-.01 0-3.9 0-3.9h-1.3v-.6h1.3V1.3h.7v1.8h1.3v.6h-1.3s-.03 3.84 0 3.8c0 .4.1.5.4.5c.01-.02 1.1 0 1.1 0v.6s-1.2-.02-1.2 0zm1.9-2.8c0-1.7 1.1-2.8 2.5-2.8c1.5 0 2.6 1.1 2.6 2.8c0 1.7-1.1 2.9-2.6 2.9c-1.4 0-2.5-1.2-2.5-2.9zm2.6 2.3c1 0 1.7-.9 1.7-2.3c0-1.4-.7-2.2-1.7-2.2h-.1c-1 0-1.8.8-1.8 2.2c0 1.4.8 2.3 1.8 2.3h.1zm3.9 2.7V3.1h.8s-.04.86 0 .9c.3-.6 1.1-1 1.8-1c1.4 0 2.4 1.1 2.4 2.8c0 1.8-1 2.9-2.4 2.9c-.7 0-1.5-.4-1.8-1c-.04 0 0 3.1 0 3.1h-.8zm2.6-2.7c1.1 0 1.7-1.1 1.7-2.3c0-1.2-.6-2.2-1.7-2.2h-.1c-1.2 0-1.7 1-1.7 2.2c0 1.2.5 2.3 1.7 2.3h.1zm5.9-2.3c0-1.7 1-2.8 2.4-2.8c.7 0 1.5.4 1.8 1c.05-.04 0-3.1 0-3.1h.8v7.7h-.8s.05-.9 0-.9c-.3.6-1.1 1-1.8 1c-1.4 0-2.4-1.1-2.4-2.9zm2.5 2.3c1.2 0 1.7-1.1 1.7-2.3c0-1.2-.5-2.2-1.7-2.2h-.1c-1.1 0-1.7 1-1.7 2.2c0 1.2.6 2.3 1.7 2.3h.1zm4-2.3c0-1.9 1.1-2.8 2.4-2.8c1.4 0 2.2 1 2.2 2.4c.03.05 0 .5 0 .5c0 0-3.93-.02-3.9 0c0 1.5.8 2.2 1.7 2.2h.1c.7 0 1.2-.4 1.4-1.1h.7c-.2 1.1-1.1 1.7-2.2 1.7c-1.4 0-2.4-1-2.4-2.9zm3.9-.5c0-1-.6-1.7-1.4-1.7h-.2c-.6 0-1.4.4-1.6 1.7h3.2zm2 .5c0-1.6.9-2.8 2.5-2.8c1.2 0 2 .7 2.1 1.8h-.7c-.1-.7-.6-1.2-1.4-1.2h-.1c-1.2 0-1.7 1-1.7 2.2c0 1.2.5 2.3 1.7 2.3h.1c.8 0 1.3-.6 1.4-1.3h.7c-.2 1.2-.9 1.9-2.1 1.9c-1.6 0-2.5-1.3-2.5-2.9zm6.1 2.8V.9h.7v5l2.9-2.8h1l-2.3 2.2l2.4 3.3h-.9l-2-2.8l-1.1 1v1.8h-.7zm7.7-2.8c0-1.6.9-2.8 2.6-2.8c1.2 0 2 .7 2.1 1.8h-.7c-.1-.7-.6-1.2-1.4-1.2h-.1c-1.2 0-1.8 1-1.8 2.2c0 1.2.6 2.3 1.8 2.3h.1c.8 0 1.3-.6 1.4-1.3h.7c-.2 1.2-.9 1.9-2.1 1.9c-1.7 0-2.6-1.3-2.6-2.9zm5.9 1.3c0-1.2 1-1.6 1.9-1.7l1.7-.1s.02-.24 0-.2c0-1-.5-1.5-1.4-1.5c-.7 0-1.3.3-1.4 1h-.7c.1-1 .9-1.6 2.1-1.6c1.4 0 2.1.9 2.1 2.1v2.3c0 .3 0 .8.1 1.2h-.7v-.9c-.2.5-1 1-2 1c-.9 0-1.7-.7-1.7-1.6zm1.9 1c.8 0 1.7-.7 1.7-1.5c.02 0 0-.7 0-.7c0 0-1.58.07-1.6.1c-.8 0-1.3.4-1.3 1c0 .6.5 1.1 1.1 1.1h.1zm4.2 2.7V3.1h.7s-.01.86 0 .9c.3-.6 1.1-1 1.8-1c1.5 0 2.5 1.1 2.5 2.8c0 1.8-1 2.9-2.5 2.9c-.7 0-1.5-.4-1.8-1v3.1h-.7zm2.5-2.7c1.2 0 1.8-1.1 1.8-2.3c0-1.2-.6-2.2-1.8-2.2h-.1c-1.1 0-1.7 1-1.7 2.2c0 1.2.6 2.3 1.7 2.3h.1zm5.5.5c-.7 0-1-.3-1-1c-.04-.01 0-3.9 0-3.9H139v-.6h1.3V1.3h.7v1.8h1.3v.6H141s-.03 3.84 0 3.8c0 .4.1.5.4.5c.01-.02 1.1 0 1.1 0v.6s-1.2-.02-1.2 0zm2.3-1.9V3.1h.7s.01 3.39 0 3.4c0 1 .4 1.6 1.3 1.6h.1c.8 0 1.6-.8 1.6-2.1c.04.05 0-2.9 0-2.9h.7v5.5h-.7s.04-1.05 0-1.1c-.3.8-.9 1.2-1.8 1.2c-1.2 0-1.9-.8-1.9-2zm6.2 1.9V3.1h.7v1.2c.3-.8.9-1.3 1.7-1.3c0 .03.5 0 .5 0v.7s-.44-.02-.4 0c-1.1 0-1.7.8-1.7 2.2c-.05.01 0 2.7 0 2.7h-.8zm4-6.5v-.9h.8v.9h-.8zm.1 6.5V3.1h.7v5.5h-.7zm2.5 0V3.1h.7s-.02.9 0 .9c.3-.6 1-1 1.9-1c1.1 0 1.9.7 1.9 2c.03-.02 0 3.6 0 3.6h-.7s.02-3.4 0-3.4c0-1.1-.4-1.6-1.3-1.6h-.1c-1.2 0-1.7 1-1.7 2.2c-.02.03 0 2.8 0 2.8h-.7zm5.9.7h.7c.1.7.7 1.1 1.7 1.1h.1c.9 0 1.8-.5 1.8-1.9v-.9c-.4.6-1 1-1.9 1c-1.3 0-2.3-1-2.3-2.8c0-1.7 1-2.8 2.3-2.8c.9 0 1.5.4 1.9 1c-.03-.04 0-.9 0-.9h.7s-.02 5.44 0 5.4c0 1.5-1 2.5-2.6 2.5c-1.6 0-2.3-.7-2.4-1.7zm2.6-1.3c1 0 1.7-.8 1.7-2.2c0-1.3-.7-2.2-1.7-2.2h-.1c-1 0-1.7.9-1.7 2.2c0 1.4.7 2.2 1.7 2.2h.1z" stroke="none" fill="#dcddce"/></g></svg>