<?xml version="1.0" standalone="no"?><!DOCTYPE svg PUBLIC "-//W3C//DTD SVG 1.1//EN" "http://www.w3.org/Graphics/SVG/1.1/DTD/svg11.dtd"><svg xmlns="http://www.w3.org/2000/svg" version="1.1" width="75px" height="19.5px" viewBox="0 -3 75 19.5" style="top:-3px"><desc>Christie Park</desc><defs/><g id="Polygon20566"><path d="m.5 5C.5 2.5 1.9.8 4.4.8C6.3.8 7.6 2 7.7 3.5H6.3C6.2 2.6 5.5 2 4.4 2h-.1C2.8 2 1.9 3.2 1.9 5c0 1.7.9 2.9 2.4 2.9h.1c1.1 0 1.8-.6 1.9-1.5h1.4C7.6 8 6.3 9.1 4.4 9.1C1.9 9.1.5 7.4.5 5zM9 9V.9h1.3s.05 3.16 0 3.2c.4-.6 1-1 1.8-1c1.4 0 2.1.9 2.1 2.1c-.02.04 0 3.8 0 3.8h-1.3s-.05-3.56 0-3.6c0-.7-.4-1.2-1.1-1.2h-.1c-.7 0-1.4.6-1.4 1.6c.05-.02 0 3.2 0 3.2H9zm6.8 0V3.2h1.3s-.05 1.23 0 1.2c.2-.8.8-1.2 1.6-1.2c.03-.02.4 0 .4 0v1.2s-.48.02-.5 0c-1 0-1.5.6-1.5 1.6c-.02.04 0 3 0 3h-1.3zm4.3-6.6V.9h1.4v1.5h-1.4zm0 6.6V3.2h1.4v5.8h-1.4zm2.6-1.9h1.3c.1.6.5 1 1.1 1h.1c.5 0 .9-.3.9-.7c0-.3-.2-.5-.7-.6l-.7-.2c-1.1-.3-1.8-.7-1.8-1.7c0-1.1 1-1.8 2.3-1.8c1.5 0 2.3.8 2.3 2h-1.3c-.1-.6-.4-.9-1-.9h-.1c-.5 0-.9.2-.9.6c0 .4.3.5.8.7l.8.2c1 .2 1.6.7 1.6 1.7c0 1-.8 1.7-2.3 1.7c-1.5 0-2.4-.8-2.4-2zM30.9 9c-.9 0-1.4-.5-1.4-1.4c.02.01 0-3.3 0-3.3h-1.2V3.2h1.2V1.4h1.3v1.8h1.4v1.1h-1.4s.05 3 0 3c0 .4.2.6.6.6c.01-.04.9 0 .9 0v1.1h-1.4zm2.5-6.6V.9h1.4v1.5h-1.4zm0 6.6V3.2h1.3v5.8h-1.3zM36 6.1c0-1.8 1.2-3 2.7-3c1.7 0 2.6 1.2 2.6 2.8v.6h-4c.1 1 .8 1.5 1.5 1.5h.1c.5 0 .9-.3 1.1-.8h1.3c-.3 1.2-1.2 1.9-2.5 1.9c-1.5 0-2.8-1-2.8-3zm4-.7c0-.8-.6-1.2-1.2-1.2h-.1c-.7 0-1.2.4-1.3 1.2h2.6zM45 9V.9s3.54.02 3.5 0c1.6 0 2.6.9 2.6 2.5c0 1.6-1 2.5-2.6 2.5c.04.03-2.1 0-2.1 0v3.1H45zm1.4-4.3h2c.9 0 1.3-.5 1.3-1.3c0-.8-.4-1.2-1.3-1.2c-.04-.04-2 0-2 0v2.5zm5.5 2.7c0-1.3 1.1-1.8 2.1-1.8c.02-.04 1.5-.2 1.5-.2c0 0 .04-.13 0-.1c0-.7-.4-1.1-1-1.1h-.1c-.6 0-1 .3-1 .8H52c.1-1.1 1.1-1.9 2.4-1.9c1.5 0 2.4.9 2.4 2.1v2.5c0 .4 0 .9.1 1.3h-1.3v-.8c-.3.5-1 .9-1.8.9c-1.1 0-1.9-.7-1.9-1.7zm2.2.6c.7 0 1.4-.5 1.4-1.2c.04-.04 0-.4 0-.4c0 0-1.3.14-1.3.1c-.5.1-1 .3-1 .8c0 .4.4.7.8.7h.1zm4.3 1V3.2h1.3v1.2c.2-.8.9-1.2 1.7-1.2c-.03-.02.4 0 .4 0v1.2s-.53.02-.5 0c-1 0-1.6.6-1.6 1.6c.02.04 0 3 0 3h-1.3zm4.4 0V.9h1.3v4.6l2.3-2.3h1.7l-2.3 2.3L68.2 9h-1.6l-1.8-2.5l-.7.7v1.8h-1.3z" stroke="none" fill="#192d39"/></g></svg>