<?xml version="1.0" standalone="no"?><!DOCTYPE svg PUBLIC "-//W3C//DTD SVG 1.1//EN" "http://www.w3.org/Graphics/SVG/1.1/DTD/svg11.dtd"><svg xmlns="http://www.w3.org/2000/svg" version="1.1" width="76.4px" height="18.5px" viewBox="0 -3 76.4 18.5" style="top:-3px"><desc>Metro Station</desc><defs/><g id="Polygon20833"><path d="m8.8.9h2.2v8.1H9.7V2.3L7.5 9H5.9L3.7 2.3v6.7H2.3V.9h2.2l2.2 6.7L8.8.9zm3.7 5.2c0-1.8 1.2-3 2.7-3c1.7 0 2.6 1.2 2.6 2.8v.6h-4c.1 1 .8 1.5 1.4 1.5h.1c.6 0 1-.3 1.2-.8h1.3c-.3 1.2-1.2 1.9-2.6 1.9c-1.4 0-2.7-1-2.7-3zm4-.7c-.1-.8-.6-1.2-1.3-1.2c-.7 0-1.3.4-1.4 1.2h2.7zM21.1 9c-.9 0-1.4-.5-1.4-1.4c.03.01 0-3.3 0-3.3h-1.2V3.2h1.2V1.4h1.4v1.8h1.3v1.1h-1.3s-.05 3 0 3c0 .4.1.6.5.6c.02-.04 1 0 1 0v1.1h-1.5zm2.5 0V3.2h1.4s-.05 1.23 0 1.2c.2-.8.8-1.2 1.6-1.2c.03-.02.4 0 .4 0v1.2s-.48.02-.5 0c-1 0-1.5.6-1.5 1.6c-.02.04 0 3 0 3h-1.4zm4.1-2.9c0-1.7 1.2-3 2.8-3c1.7 0 2.9 1.3 2.9 3c0 1.8-1.2 3-2.9 3c-1.6 0-2.8-1.2-2.8-3zM30.6 8c.8 0 1.4-.7 1.4-1.9c0-1.2-.6-1.9-1.4-1.9h-.1c-.9 0-1.5.7-1.5 1.9c0 1.2.6 1.9 1.5 1.9h.1zm5.8-1.7h1.4c0 1 .7 1.6 1.9 1.6h.2c.9 0 1.4-.5 1.4-1.1c0-.5-.3-.9-1-1l-1.4-.3c-1.4-.3-2.1-1.1-2.1-2.3c0-1.2 1.1-2.4 3-2.4c1.9 0 3 1.1 3 2.6h-1.4c0-.9-.7-1.4-1.6-1.4h-.1c-.9 0-1.5.5-1.5 1.1c0 .6.3.9 1 1.1l1.3.2c1.4.3 2.2 1 2.2 2.3c0 1.4-1.1 2.4-3 2.4c-2.1 0-3.2-1-3.3-2.8zM46.3 9c-.9 0-1.4-.5-1.4-1.4c.03.01 0-3.3 0-3.3h-1.2V3.2h1.2V1.4h1.4v1.8h1.3v1.1h-1.3s-.05 3 0 3c0 .4.1.6.5.6c.02-.04 1 0 1 0v1.1h-1.5zm2.3-1.6c0-1.3 1.1-1.8 2.2-1.8c-.05-.04 1.5-.2 1.5-.2c0 0-.03-.13 0-.1c0-.7-.4-1.1-1.1-1.1h-.1c-.6 0-1 .3-1 .8h-1.3c.1-1.1 1-1.9 2.4-1.9c1.5 0 2.4.9 2.4 2.1v3.8h-1.2c-.1-.2-.1-.6-.1-.8c-.3.5-.9.9-1.8.9c-1 0-1.9-.7-1.9-1.7zm2.3.6c.6 0 1.4-.5 1.4-1.2c-.03-.04 0-.4 0-.4c0 0-1.37.14-1.4.1c-.5.1-.9.3-.9.8c0 .4.3.7.8.7h.1zm6.2 1c-.9 0-1.4-.5-1.4-1.4c.01.01 0-3.3 0-3.3h-1.2V3.2h1.2V1.4h1.3v1.8h1.4v1.1H57s.03 3 0 3c0 .4.1.6.6.6c0-.04.9 0 .9 0v1.1h-1.4zm2.4-6.6V.9h1.5v1.5h-1.5zm.1 6.6V3.2h1.3v5.8h-1.3zm2.6-2.9c0-1.7 1.2-3 2.8-3c1.7 0 2.9 1.3 2.9 3c0 1.8-1.2 3-2.9 3c-1.6 0-2.8-1.2-2.8-3zM65.1 8c.8 0 1.4-.7 1.4-1.9c0-1.2-.6-1.9-1.4-1.9h-.1c-.9 0-1.5.7-1.5 1.9c0 1.2.6 1.9 1.5 1.9h.1zm4.1 1V3.2h1.3s-.01.86 0 .9c.3-.6 1-1 1.8-1c1.3 0 2 .9 2 2.1c.03.04 0 3.8 0 3.8H73V5.4c0-.7-.3-1.2-1-1.2h-.1c-.8 0-1.4.6-1.4 1.6v3.2h-1.3z" stroke="none" fill="#192d39"/></g></svg>