<?xml version="1.0" standalone="no"?><!DOCTYPE svg PUBLIC "-//W3C//DTD SVG 1.1//EN" "http://www.w3.org/Graphics/SVG/1.1/DTD/svg11.dtd"><svg xmlns="http://www.w3.org/2000/svg" version="1.1" width="507px" height="149px" viewBox="0 -4 507 149" style="top:-4px"><desc>A smart investment</desc><defs/><g id="Polygon21501"><path d="m7.3 95H3.8V60.9h3.5V95zm8.1 0V60.9h1.4l28.1 28.7V60.9h1.7V95h-1.4l-28-28.7V95h-1.8zM56 60.9l14.8 28.8l14.9-28.8h2L69.9 95.4l-17.8-34.5h3.9zm60.7 0v2.5l-20.1-1.2v14.7h15.7l-.3 2.6l-15.4-1.2v15.4l20.4-1.2l-.3 2.5H93.1V60.9h23.6zM135.8 95c-4.6 0-9.6-1.5-12.6-4.1v-4.7c2.9 4.7 7.7 7.4 12.6 7.4c6.2 0 9.9-2.7 9.9-6.4c0-4.1-2.2-6.5-10.8-10.1c-8.8-3.8-11.2-6.1-11.2-9.5c0-3.7 4.2-6.7 13.3-6.7c5.1 0 9.1 1.8 11.6 4v4.6c-2.9-4.7-7.8-7.1-12.6-7.3c-6 0-9 1.7-9 4.4c0 2.6 2.4 4.6 9.7 7.6c8.4 3.5 12.5 7 12.5 11.7c0 5.1-3.8 9.1-13.4 9.1zm49.4-31.6l-14.3-1.2V95h-3.4V62.2l-14.3 1.2v-2.5h32v2.5zm43.6-2.5V95h-3.4V63.7l-14.6 24l-2 3.4l-1-1.7l-15.4-25.2V95h-1.7V60.9h3.9l15.2 25.2l15.3-25.2h3.7zm31.2 0v2.5l-20.1-1.2v14.7h15.8l-.4 2.6l-15.4-1.2v15.4l20.4-1.2l-.3 2.5h-23.5V60.9H260zm8 34.1V60.9h1.3l28.1 28.7V60.9h1.8V95h-1.4l-28.1-28.7V95H268zm68.6-31.6l-14.3-1.2V95h-3.5V62.2l-14.2 1.2v-2.5h32v2.5z" stroke="none" fill="#192d39"/></g><g id="Polygon21500"><path d="m.5 45l17.7-34.6L36 45h-3.9l-4.9-9.5H7.3L2.4 45H.5zm7.7-11.2h18.1l-9-17.6l-9.1 17.6zM70.1 45c-4.6 0-9.6-1.5-12.6-4.1v-4.7c2.9 4.7 7.7 7.4 12.6 7.4c6.2 0 9.9-2.7 9.9-6.4c0-4.1-2.2-6.5-10.8-10.1C60.4 23.3 58 21 58 17.6c0-3.7 4.2-6.7 13.3-6.7c5.1 0 9.1 1.8 11.6 4v4.6c-2.9-4.7-7.8-7.1-12.6-7.3c-6 0-9 1.7-9 4.4c0 2.6 2.4 4.6 9.7 7.6c8.4 3.5 12.5 7 12.5 11.7c0 5.1-3.8 9.1-13.4 9.1zm57.8-34.1V45h-3.5V13.7l-14.5 24l-2.1 3.4l-.9-1.7l-15.5-25.2V45h-1.7V10.9h3.9l15.2 25.2l15.3-25.2h3.8zm4.7 34.1l17.8-34.6L168.1 45h-3.9l-4.8-9.5h-20l-4.9 9.5h-1.9zm7.7-11.2h18.2l-9.1-17.6l-9.1 17.6zm58.4 8.9c1.64 2 3.3 2.1 3.3 2.1c0 0-.88.56-2.3.6c-2.8 0-4-.9-6.6-4.2c0 0-5.8-7.4-7.4-9.3c-1.4-1.8-2.3-2.3-3.5-2.3c.02-.02-5.4 0-5.4 0V45h-3.5V10.9s8.2-.04 8.2 0c10.2 0 16.7 3.7 16.7 9.3c0 4.8-4.7 8.2-12.3 9.1c2 .5 3.2 1.3 4.2 2.4c1.4 1.9 8.6 11 8.6 11zm-21.9-30.5v16.1s4.7-.04 4.7 0c6.8 0 13.1-2.4 13.1-8.1c-.1-5.6-6.3-8-13.1-8c0 .04-4.7 0-4.7 0zm56.7 1.2l-14.3-1.2V45h-3.5V12.2l-14.2 1.2v-2.5h32v2.5z" stroke="none" fill="#192d39"/></g></svg>