<?xml version="1.0" standalone="no"?><!DOCTYPE svg PUBLIC "-//W3C//DTD SVG 1.1//EN" "http://www.w3.org/Graphics/SVG/1.1/DTD/svg11.dtd"><svg xmlns="http://www.w3.org/2000/svg" version="1.1" width="429px" height="72.2px" viewBox="0 0 429 72.2"><desc>100 Talavera Road Macquarie Park NSW 2113 meriton.com.au/trilogy</desc><defs/><g id="Polygon23211"><path d="m149.2 65.2V59h1.4s-.01.86 0 .9c.4-.7 1.1-1 1.8-1c.9 0 1.6.3 2 1.1c.5-.8 1.3-1.1 2-1.1c1.6 0 2.2.9 2.2 2.3c.04-.04 0 4 0 4h-1.4s.02-3.82 0-3.8c0-.9-.3-1.3-1.1-1.3h-.1c-.7 0-1.4.6-1.4 1.6v3.5h-1.4v-3.8c0-.9-.3-1.3-1.1-1.3h-.1c-.7 0-1.4.6-1.4 1.6v3.5h-1.4zm10.8-3.1c0-2 1.2-3.2 2.9-3.2c1.7 0 2.7 1.2 2.7 2.9v.6h-4.3c.1 1.1.9 1.7 1.6 1.7h.1c.6 0 1.1-.3 1.2-.8h1.4c-.3 1.2-1.3 2-2.7 2c-1.6 0-2.9-1.1-2.9-3.2zm4.2-.8c0-.8-.6-1.3-1.3-1.3h-.1c-.7 0-1.3.4-1.4 1.3h2.8zm2.8 3.9V59h1.4v1.3c.3-.9.9-1.4 1.8-1.4c0 .02.4 0 .4 0v1.4s-.51-.04-.5 0c-1.1 0-1.7.6-1.7 1.7c.04-.01 0 3.2 0 3.2H167zm4.7-7.2v-1.5h1.5v1.5h-1.5zm0 7.2V59h1.5v6.2h-1.5zm5.4 0c-1 0-1.5-.6-1.5-1.5c-.03-.03 0-3.5 0-3.5h-1.3V59h1.3v-2h1.4v2h1.4v1.2H177s-.02 3.13 0 3.1c0 .5.1.6.6.6c-.01.04 1 0 1 0v1.3s-1.54-.04-1.5 0zm2.3-3.1c0-1.9 1.3-3.2 3-3.2c1.8 0 3.1 1.3 3.1 3.2c0 1.9-1.3 3.2-3.1 3.2c-1.7 0-3-1.3-3-3.2zm3.1 2c.9 0 1.5-.7 1.5-2c0-1.3-.6-2.1-1.5-2.1h-.1c-.9 0-1.6.8-1.6 2.1c0 1.3.7 2 1.6 2h.1zm4.3 1.1V59h1.5s-.04.87 0 .9c.3-.6 1-1 1.9-1c1.4 0 2.2.9 2.2 2.2c-.04.03 0 4.1 0 4.1h-1.5s.04-3.86 0-3.9c0-.8-.3-1.3-1.1-1.3h-.1c-.7 0-1.4.7-1.4 1.7c-.04.01 0 3.5 0 3.5h-1.5zm7.2 0v-1.7h1.6v1.7H194zm2.9-3.1c0-1.9 1.2-3.2 3-3.2c1.5 0 2.5.7 2.7 2.2h-1.5c-.1-.6-.5-1.1-1.2-1.1h-.1c-1 0-1.5 1-1.5 2.1c0 1.1.5 2 1.5 2h.1c.7 0 1.1-.4 1.2-1.1h1.5c-.2 1.5-1.2 2.3-2.7 2.3c-1.8 0-3-1.3-3-3.2zm6.6 0c0-1.9 1.3-3.2 3.1-3.2c1.7 0 3 1.3 3 3.2c0 1.9-1.3 3.2-3 3.2c-1.8 0-3.1-1.3-3.1-3.2zm3.1 2c.9 0 1.6-.7 1.6-2c0-1.3-.7-2.1-1.6-2.1h-.1c-.9 0-1.5.8-1.5 2.1c0 1.3.6 2 1.5 2h.1zm4.4 1.1V59h1.4s-.01.86 0 .9c.4-.7 1.1-1 1.8-1c.9 0 1.6.3 2 1.1c.5-.8 1.3-1.1 2-1.1c1.6 0 2.2.9 2.2 2.3c.04-.04 0 4 0 4H219s.02-3.82 0-3.8c0-.9-.3-1.3-1.1-1.3h-.1c-.7 0-1.4.6-1.4 1.6v3.5H215v-3.8c0-.9-.3-1.3-1.1-1.3h-.1c-.7 0-1.4.6-1.4 1.6v3.5H211zm11 0v-1.7h1.7v1.7H222zm3-1.7c0-1.4 1.1-1.9 2.2-2c.05-.03 1.7-.2 1.7-.2c0 0-.03-.13 0-.1c0-.7-.5-1.2-1.2-1.2h-.1c-.6 0-1 .4-1.1.8h-1.4c.1-1.1 1.1-1.9 2.6-1.9c1.6 0 2.5.9 2.5 2.2v2.7c0 .4 0 .9.1 1.4H229c-.1-.3-.1-.7-.1-.9c-.3.6-1 1-1.9 1c-1.1 0-2-.8-2-1.8zm2.4.6c.7 0 1.5-.6 1.5-1.3c-.03-.04 0-.4 0-.4c0 0-1.47.12-1.5.1c-.5.1-1 .3-1 .9c0 .4.4.7.9.7h.1zm4.5-1.1c-.03-.01 0-4 0-4h1.4v3.8c0 .9.4 1.3 1.1 1.3h.1c.7 0 1.3-.7 1.3-1.7c.05-.02 0-3.4 0-3.4h1.5v6.2h-1.5s.05-1.05 0-1.1c-.3.7-.9 1.2-1.8 1.2c-1.5 0-2.1-1-2.1-2.3zm6.6 2.2l3.3-8.7h1.5l-3.3 8.7h-1.5zm8.2 0c-1 0-1.5-.6-1.5-1.5v-3.5h-1.3V59h1.3v-2h1.4v2h1.4v1.2h-1.4v3.1c0 .5.1.6.6.6c.01.04 1 0 1 0v1.3s-1.52-.04-1.5 0zm2.7 0V59h1.4s.04 1.27 0 1.3c.3-.9 1-1.4 1.8-1.4c.03.02.5 0 .5 0v1.4s-.58-.04-.6 0c-1.1 0-1.6.6-1.6 1.7c-.03-.01 0 3.2 0 3.2h-1.5zm4.7-7.2v-1.5h1.6v1.5h-1.6zm.1 7.2V59h1.4v6.2h-1.4zm3.1 0v-8.7h1.5v8.7h-1.5zm2.8-3.1c0-1.9 1.3-3.2 3.1-3.2c1.8 0 3 1.3 3 3.2c0 1.9-1.2 3.2-3 3.2c-1.8 0-3.1-1.3-3.1-3.2zm3.1 2c.9 0 1.6-.7 1.6-2c0-1.3-.7-2.1-1.6-2.1h-.1c-.9 0-1.5.8-1.5 2.1c0 1.3.6 2 1.5 2h.1zm3.9 1.8h1.4c.1.5.7.8 1.5.8h.1c.9 0 1.6-.5 1.6-1.6v-.9c-.3.6-1 1-1.8 1c-1.4 0-2.7-1.1-2.7-3.2c0-2.1 1.3-3.1 2.7-3.1c.8 0 1.5.3 1.8.9c.02-.03 0-.8 0-.8h1.4s.04 6.25 0 6.2c0 1.4-1 2.7-3.1 2.7c-1.7 0-2.8-.8-2.9-2zm3.1-1.9c.8 0 1.5-.7 1.5-2c0-1.2-.6-2-1.4-2h-.1c-.9 0-1.5.7-1.5 2c0 1.3.6 2 1.4 2h.1zm10.6-5l-2.6 5.8s.02 1.29 0 1.3c0 1-.5 1.5-1.5 1.5c.05-.03-2.1 0-2.1 0v-1.3s1.67.02 1.7 0c.4 0 .6-.1.6-.6c-.03.03 0-.8 0-.8l-2.7-5.9h1.6l1.7 4.1l1.8-4.1h1.5z" stroke="none" fill="#dcddce"/></g><g id="Polygon23210"><path d="m148.8 38h2.4v8.6h-1.5v-7.1l-2.3 7.1h-1.8l-2.3-7.1v7.1h-1.5V38h2.4l2.3 7.1l2.3-7.1zm3.9 6.9c0-1.3 1.1-1.9 2.2-2c.04.04 1.7-.1 1.7-.1c0 0-.05-.16 0-.2c0-.7-.5-1.1-1.2-1.1h-.1c-.6 0-1 .3-1.1.8h-1.4c.1-1.1 1.1-2 2.6-2c1.6 0 2.5.9 2.5 2.3v2.7c0 .3 0 .9.1 1.3h-1.3c-.1-.2-.1-.6-.1-.8c-.3.5-1 1-1.9 1c-1.1 0-2-.8-2-1.9zm2.3.7c.8 0 1.6-.6 1.6-1.4c-.05.03 0-.3 0-.3l-1.5.1c-.5 0-1 .3-1 .8c0 .5.4.8.8.8h.1zm4.3-2.1c0-1.9 1.2-3.2 2.9-3.2c1.6 0 2.6.8 2.7 2.3h-1.4c-.1-.7-.5-1.1-1.2-1.1h-.1c-1.1 0-1.5.9-1.5 2c0 1.1.4 2.1 1.5 2.1h.1c.7 0 1.1-.4 1.2-1.1h1.4c-.1 1.5-1.1 2.3-2.7 2.3c-1.7 0-2.9-1.4-2.9-3.3zm11.2 5.6s-.02-3.3 0-3.3c-.3.5-1 1-1.9 1c-1.6 0-2.7-1.4-2.7-3.3c0-1.8 1-3.2 2.7-3.2c.9 0 1.6.5 1.9 1c-.02-.02 0-.8 0-.8h1.4v8.6h-1.4zm-1.6-3.5c.8 0 1.6-.7 1.6-2.1c0-1.3-.8-2-1.6-2h-.1c-.8 0-1.5.7-1.5 2.1c0 1.3.7 2 1.5 2h.1zm4.7-1.1c-.02-.04 0-4 0-4h1.4v3.7c0 .9.4 1.4 1.1 1.4h.1c.7 0 1.4-.7 1.4-1.7c-.05-.05 0-3.4 0-3.4h1.4v6.1h-1.4s-.05-.98 0-1c-.4.7-1 1.2-1.9 1.2c-1.4 0-2.1-1-2.1-2.3zm6.7.4c0-1.3 1.2-1.9 2.3-2c.01.04 1.6-.1 1.6-.1c0 0 .02-.16 0-.2c0-.7-.4-1.1-1.1-1.1h-.1c-.6 0-1.1.3-1.1.8h-1.4c.1-1.1 1.1-2 2.6-2c1.5 0 2.5.9 2.5 2.3v2.7c0 .3 0 .9.1 1.3h-1.4v-.8c-.3.5-1 1-1.9 1c-1.2 0-2.1-.8-2.1-1.9zm2.4.7c.7 0 1.5-.6 1.5-1.4c.02.03 0-.3 0-.3c0 0-1.41.09-1.4.1c-.5 0-1 .3-1 .8c0 .5.3.8.8.8h.1zm4.6 1v-6.1h1.4s-.02 1.24 0 1.2c.2-.8.9-1.3 1.8-1.3h.4v1.3s-.54.03-.5 0c-1.1 0-1.7.6-1.7 1.8v3.1h-1.4zm4.7-7.1V38h1.5v1.5H192zm0 7.1v-6.1h1.4v6.1H192zm2.8-3.1c0-1.9 1.3-3.2 2.9-3.2c1.8 0 2.8 1.3 2.8 3v.6h-4.3c.1 1.1.9 1.7 1.6 1.7h.1c.6 0 1-.4 1.1-.9h1.5c-.3 1.3-1.3 2.1-2.7 2.1c-1.6 0-3-1.2-3-3.3zm4.3-.7c-.1-.9-.7-1.3-1.3-1.3h-.1c-.7 0-1.3.4-1.4 1.3h2.8zm5.9 3.8V38h3.8c1.6 0 2.8 1 2.8 2.7c0 1.7-1.2 2.6-2.8 2.6c.01.04-2.3 0-2.3 0v3.3H205zm1.5-4.6s2.12.02 2.1 0c1 0 1.5-.5 1.5-1.3c0-.9-.5-1.4-1.5-1.4h-2.1v2.7zm5.9 2.9c0-1.3 1.1-1.9 2.2-2c.02.04 1.6-.1 1.6-.1c0 0 .04-.16 0-.2c0-.7-.4-1.1-1.1-1.1h-.1c-.6 0-1 .3-1.1.8h-1.4c.1-1.1 1.1-2 2.6-2c1.6 0 2.5.9 2.5 2.3v2.7c0 .3 0 .9.1 1.3h-1.3c-.1-.2-.1-.6-.1-.8c-.3.5-1 1-1.9 1c-1.1 0-2-.8-2-1.9zm2.3.7c.8 0 1.5-.6 1.5-1.4c.04.03 0-.3 0-.3l-1.4.1c-.5 0-1 .3-1 .8c0 .5.3.8.8.8h.1zm4.6 1v-6.1h1.4v1.2c.2-.8.9-1.3 1.8-1.3h.4v1.3s-.52.03-.5 0c-1.1 0-1.7.6-1.7 1.8c.03-.04 0 3.1 0 3.1h-1.4zm4.7 0V38h1.5v4.9l2.4-2.4h1.8l-2.5 2.4l2.6 3.7h-1.7l-1.9-2.7l-.7.8v1.9H224zm15.4-8.6h1.5v8.6h-2l-3.6-6.7v6.7h-1.5V38h2l3.6 6.7V38zm3 5.8h1.4c.1 1 .8 1.6 2.1 1.6h.1c1.1 0 1.6-.5 1.6-1.1c0-.6-.3-1-1.1-1.1l-1.5-.3c-1.5-.3-2.2-1.2-2.2-2.5c0-1.3 1.2-2.5 3.2-2.5c2 0 3.2 1.1 3.2 2.8h-1.5c0-1-.7-1.5-1.7-1.5h-.1c-1 0-1.6.5-1.6 1.2c0 .6.3.9 1.1 1l1.3.3c1.5.3 2.4 1.1 2.4 2.5c0 1.5-1.2 2.6-3.3 2.6c-2.2 0-3.4-1.2-3.4-3zm17.1-5.8h1.6l-2.2 8.6H257l-1.5-6.7l-1.5 6.7h-2l-2.1-8.6h1.5l1.7 7l1.5-7h1.9l1.5 7.1l1.5-7.1zm6.9 7.3h4.2v1.3h-6v-1.4s2.89-2.71 2.9-2.7c.9-.9 1.5-1.4 1.5-2.2c0-.7-.5-1.2-1.3-1.2h-.1c-.8 0-1.4.6-1.4 1.5h-1.5c0-1.7 1.3-2.7 3-2.7c1.6 0 2.8.9 2.8 2.3c0 1.3-.8 2.1-1.8 3c-.03.05-2.3 2.1-2.3 2.1zm7.4-7.3h1.2v8.6h-1.4v-6.5l-2 1.8v-1.8l2.2-2.1zm4.9 0h1.1v8.6h-1.4v-6.5l-1.9 1.8v-1.8l2.2-2.1zm2.8 6.3h1.4c.1.7.7 1.2 1.5 1.2h.2c.9 0 1.5-.6 1.5-1.3c0-.8-.7-1.3-1.6-1.3c.02.04-.6 0-.6 0v-1.2s.58-.02.6 0c.9 0 1.5-.6 1.5-1.3c0-.8-.6-1.3-1.4-1.3h-.1c-.7 0-1.4.5-1.4 1.2h-1.5c.1-1.4 1.3-2.4 3-2.4c1.7 0 2.9 1 2.9 2.3c0 1.1-.7 1.8-1.5 2.1c.8.2 1.5.9 1.5 2c0 1.5-1.3 2.5-3 2.5c-1.8 0-3-1-3-2.5z" stroke="none" fill="#dcddce"/></g><g id="Polygon23209"><path d="m165.3 19.5h1.2v8.6h-1.4v-6.6l-2 1.9v-1.8l2.2-2.1zm2.9 4.3c0-2.8 1.3-4.5 3.5-4.5c2.2 0 3.4 1.7 3.4 4.5c0 2.7-1.2 4.4-3.4 4.4c-2.2 0-3.5-1.7-3.5-4.4zm3.5 3.2c1.2 0 2-1.1 2-3.2c0-2.2-.8-3.2-2-3.2h-.1c-1.2 0-1.9 1-1.9 3.2c0 2.1.7 3.2 1.9 3.2h.1zm4.8-3.2c0-2.8 1.2-4.5 3.4-4.5c2.2 0 3.5 1.7 3.5 4.5c0 2.7-1.2 4.4-3.5 4.4c-2.2 0-3.4-1.7-3.4-4.4zM180 27c1.2 0 1.9-1.1 1.9-3.2c0-2.2-.7-3.2-1.9-3.2h-.1c-1.2 0-2 1-2 3.2c0 2.1.8 3.2 2 3.2h.1zm9.9 1.1v-7.3h-3v-1.3h7.5v1.3h-3v7.3h-1.5zm3.9-1.7c0-1.4 1.1-1.9 2.2-2c.03.02 1.6-.1 1.6-.1c0 0 .05-.19 0-.2c0-.7-.4-1.1-1.1-1.1h-.1c-.6 0-1 .3-1.1.8h-1.4c.1-1.2 1.1-2 2.6-2c1.6 0 2.5.9 2.5 2.3v2.6c0 .4 0 1 .1 1.4h-1.3c-.1-.2-.1-.7-.1-.8c-.3.5-1 .9-1.9.9c-1.1 0-2-.7-2-1.8zm2.3.7c.8 0 1.5-.6 1.5-1.4c.05 0 0-.4 0-.4c0 0-1.39.16-1.4.2c-.5 0-1 .3-1 .8c0 .5.3.8.8.8h.1zm4.6 1v-8.6h1.4v8.6h-1.4zm2.8-1.7c0-1.4 1.1-1.9 2.3-2c-.03.02 1.6-.1 1.6-.1v-.2c0-.7-.4-1.1-1.1-1.1h-.1c-.6 0-1.1.3-1.1.8h-1.5c.1-1.2 1.1-2 2.6-2c1.6 0 2.6.9 2.6 2.3v4h-1.3c0-.2-.1-.7-.1-.8c-.3.5-1 .9-1.9.9c-1.1 0-2-.7-2-1.8zm2.4.7c.7 0 1.5-.6 1.5-1.4v-.4s-1.44.16-1.4.2c-.6 0-1.1.3-1.1.8c0 .5.4.8.9.8h.1zm8.6-5.2h1.5l-2.2 6.2h-1.9l-2.2-6.2h1.4l1.7 5l1.7-5zm2 3.1c0-2 1.3-3.2 2.9-3.2c1.8 0 2.8 1.2 2.8 3v.6h-4.3c.1 1.1.9 1.7 1.6 1.7h.1c.6 0 1-.4 1.1-.9h1.5c-.3 1.2-1.3 2-2.7 2c-1.6 0-3-1.1-3-3.2zm4.3-.7c-.1-.9-.7-1.3-1.3-1.3h-.1c-.7 0-1.3.4-1.4 1.3h2.8zm2.8 3.8v-6.2h1.4s-.02 1.31 0 1.3c.2-.8.9-1.3 1.8-1.3c-.03-.04.4 0 .4 0v1.3h-.5c-1.1 0-1.7.6-1.7 1.7v3.2h-1.4zm4.2-1.7c0-1.4 1.1-1.9 2.3-2c-.02.02 1.6-.1 1.6-.1v-.2c0-.7-.4-1.1-1.1-1.1h-.1c-.6 0-1.1.3-1.1.8h-1.5c.1-1.2 1.2-2 2.6-2c1.6 0 2.6.9 2.6 2.3v4h-1.3v-.8c-.4.5-1.1.9-2 .9c-1.1 0-2-.7-2-1.8zm2.4.7c.7 0 1.5-.6 1.5-1.4v-.4s-1.43.16-1.4.2c-.6 0-1.1.3-1.1.8c0 .5.4.8.9.8h.1zm7.7 1v-8.6s3.88-.04 3.9 0c1.5 0 2.7.9 2.7 2.3c0 1.1-.6 1.9-1.5 2.2c1 0 1.3.4 1.3 1.2c.04.01 0 2.9 0 2.9h-1.4s-.04-2.52 0-2.5c0-.7-.2-.8-.9-.8c.03-.05-2.6 0-2.6 0v3.3h-1.5zm1.5-4.7s2.01.05 2 0c1 0 1.6-.5 1.6-1.3c0-.9-.6-1.3-1.6-1.3c.01-.02-2 0-2 0v2.6zm6.3 1.6c0-1.9 1.3-3.2 3-3.2c1.8 0 3.1 1.3 3.1 3.2c0 1.9-1.3 3.2-3.1 3.2c-1.7 0-3-1.3-3-3.2zm3.1 2.1c.9 0 1.5-.8 1.5-2.1c0-1.3-.6-2-1.5-2h-.1c-.9 0-1.6.7-1.6 2c0 1.3.7 2.1 1.6 2.1h.1zm4-.7c0-1.4 1.1-1.9 2.2-2c.05.02 1.7-.1 1.7-.1c0 0-.03-.19 0-.2c0-.7-.5-1.1-1.2-1.1h-.1c-.6 0-1 .3-1.1.8h-1.4c.1-1.2 1.1-2 2.6-2c1.6 0 2.5.9 2.5 2.3v2.6c0 .4 0 1 .1 1.4h-1.3c-.1-.2-.1-.7-.1-.8c-.3.5-1 .9-1.9.9c-1.1 0-2-.7-2-1.8zm2.4.7c.7 0 1.5-.6 1.5-1.4c-.03 0 0-.4 0-.4c0 0-1.47.16-1.5.2c-.5 0-1 .3-1 .8c0 .5.4.8.9.8h.1zm4.2-2.1c0-1.8 1-3.2 2.7-3.2c.9 0 1.6.5 1.9 1c-.03-.05 0-3.3 0-3.3h1.4v8.6H264s-.03-.83 0-.8c-.3.5-1.1.9-1.9.9c-1.7 0-2.7-1.4-2.7-3.2zm3 2.1c.8 0 1.6-.8 1.6-2.1c0-1.3-.8-2-1.6-2h-.1c-.8 0-1.5.7-1.5 2c0 1.3.7 2.1 1.5 2.1h.1z" stroke="none" fill="#dcddce"/></g></svg>