<?xml version="1.0" standalone="no"?><!DOCTYPE svg PUBLIC "-//W3C//DTD SVG 1.1//EN" "http://www.w3.org/Graphics/SVG/1.1/DTD/svg11.dtd"><svg xmlns="http://www.w3.org/2000/svg" version="1.1" width="172px" height="73.4px" viewBox="0 -3 172 73.4" style="top:-3px"><desc>1% Meriton residential vacancy rate.</desc><defs/><g id="Polygon21831"><path d="m.9 23.7v-5.5h.6s.04 1.28 0 1.3c.3-.9 1-1.3 1.7-1.3c.04-.02.5 0 .5 0v.6s-.4.03-.4 0c-1.1 0-1.7.9-1.7 2.3v2.6h-.7zm3.6-1.5c0-1.2 1.1-1.6 1.9-1.6c.02-.04 1.8-.2 1.8-.2c0 0-.04-.19 0-.2c0-.9-.6-1.5-1.4-1.5h-.1c-.7 0-1.3.4-1.3 1.1h-.8c.1-1 1-1.7 2.2-1.7c1.4 0 2.1 1 2.1 2.1v3.5h-.6c-.1-.2-.1-.6-.1-.8c-.2.5-1 .9-1.9.9c-1 0-1.8-.7-1.8-1.6zm2 1c.7 0 1.7-.6 1.7-1.5c-.04.05 0-.7 0-.7c0 0-1.63.12-1.6.1c-.8.1-1.4.5-1.4 1.1c0 .6.5 1 1.1 1h.2zm5.6.5c-.7 0-1-.2-1-1c-.03.04 0-3.9 0-3.9H9.8v-.6h1.3v-1.8h.7v1.8h1.4v.6h-1.4s-.02 3.89 0 3.9c0 .3.1.4.4.4c.02.03 1.1 0 1.1 0v.6s-1.19.03-1.2 0zM14 21c0-2 1.2-2.9 2.4-2.9c1.4 0 2.3 1.1 2.3 2.5c-.03 0 0 .4 0 .4c0 0-3.99.03-4 0c0 1.6.8 2.2 1.7 2.2h.1c.8 0 1.2-.3 1.4-1h.8c-.3 1.1-1.1 1.6-2.3 1.6c-1.3 0-2.4-.9-2.4-2.8zm4-.6c-.1-.9-.6-1.7-1.5-1.7h-.1c-.7 0-1.5.4-1.7 1.7h3.3zm2.1 3.3v-1.1h1v1.1h-1z" stroke="none" fill="#192d39"/></g><g id="Polygon21830"><path d="m2.3.9h.6v7.7h-.7V2L.3 3.7v-.9l2-1.9zm2 2.2C4.3 1.7 5 .8 6.1.8c1.1 0 1.8.9 1.8 2.3c0 1.3-.7 2.2-1.8 2.2c-1.1 0-1.8-.9-1.8-2.2zm1.9 5.5L10.8.9h.7L6.9 8.6h-.7zm-.1-3.9c.7 0 1.1-.8 1.1-1.6c0-.9-.4-1.7-1.1-1.7c-.8 0-1.1.8-1.1 1.7c0 .8.3 1.6 1.1 1.6zm3.8 1.7c0-1.3.7-2.2 1.8-2.2c1.1 0 1.8.9 1.8 2.2c0 1.4-.7 2.2-1.8 2.2c-1.1 0-1.8-.8-1.8-2.2zm1.8 1.7c.7 0 1.1-.9 1.1-1.7c0-.8-.4-1.7-1.1-1.7c-.8 0-1.1.9-1.1 1.7c0 .8.3 1.7 1.1 1.7zM23.8.9h1.3v7.7h-.8V1.5l-2.6 7.1h-1.1l-2.7-7.1v7.1h-.8V.9h1.3L21.1 8L23.8.9zm2.9 4.9c0-1.9 1.2-2.8 2.5-2.8c1.3 0 2.2 1 2.2 2.4v.5s-3.96-.02-4 0c.1 1.5.9 2.2 1.8 2.2c.8 0 1.3-.4 1.5-1.1h.7c-.3 1.1-1.1 1.7-2.2 1.7c-1.4 0-2.5-1-2.5-2.9zm4-.5c-.1-1-.6-1.7-1.5-1.7h-.1c-.7 0-1.5.4-1.6 1.7h3.2zm2.2 3.3V3.1h.6s.02 1.23 0 1.2c.3-.8 1-1.3 1.7-1.3c.03.03.5 0 .5 0v.7s-.42-.02-.4 0c-1.1 0-1.7.8-1.7 2.2c-.02.01 0 2.7 0 2.7h-.7zm3.9-6.5v-.9h.8v.9h-.8zm0 6.5V3.1h.8v5.5h-.8zm4.2 0c-.8 0-1.1-.3-1.1-1c.02-.01 0-3.9 0-3.9h-1.2v-.6h1.2V1.3h.7v1.8h1.4v.6h-1.4s.03 3.84 0 3.8c0 .4.1.5.5.5c-.03-.02 1.1 0 1.1 0v.6s-1.24-.02-1.2 0zm1.8-2.8c0-1.7 1.1-2.8 2.5-2.8c1.5 0 2.6 1.1 2.6 2.8c0 1.7-1.1 2.9-2.6 2.9c-1.4 0-2.5-1.2-2.5-2.9zm2.6 2.3c1 0 1.7-.9 1.7-2.3c0-1.4-.7-2.2-1.7-2.2h-.1c-1 0-1.8.8-1.8 2.2c0 1.4.8 2.3 1.8 2.3h.1zm3.9.5V3.1h.7s.01.9 0 .9c.3-.6 1-1 1.9-1c1.1 0 2 .7 2 2c-.04-.02 0 3.6 0 3.6h-.8s.05-3.4 0-3.4c0-1.1-.4-1.6-1.3-1.6c-1.2 0-1.8 1-1.8 2.2v2.8h-.7zm8.5 0V3.1h.6s.02 1.23 0 1.2c.3-.8 1-1.3 1.7-1.3c.03.03.5 0 .5 0v.7s-.42-.02-.4 0c-1.1 0-1.7.8-1.7 2.2c-.02.01 0 2.7 0 2.7h-.7zm3.5-2.8c0-1.9 1.2-2.8 2.4-2.8C65.1 3 66 4 66 5.4c-.03.05 0 .5 0 .5c0 0-3.99-.02-4 0c0 1.5.8 2.2 1.7 2.2h.1c.8 0 1.2-.4 1.4-1.1h.8c-.3 1.1-1.1 1.7-2.3 1.7c-1.3 0-2.4-1-2.4-2.9zm4-.5c-.1-1-.6-1.7-1.5-1.7h-.1c-.7 0-1.5.4-1.7 1.7h3.3zm1.8 1.6h.7c0 .8.6 1.2 1.4 1.2h.1c.8 0 1.2-.4 1.2-1c0-.4-.2-.7-.9-.9l-.8-.1c-.8-.2-1.5-.6-1.5-1.5c0-1.1.9-1.6 1.9-1.6c1.4 0 2.1.8 2.1 1.7h-.7c-.1-.6-.5-1.1-1.3-1.1h-.1c-.8 0-1.2.4-1.2.9c0 .5.3.7 1 .9l.9.2c.7.2 1.4.5 1.4 1.4c0 1.1-.8 1.7-2.1 1.7c-1.4 0-2.1-.8-2.1-1.8zm5.6-4.8v-.9h.8v.9h-.8zm0 6.5V3.1h.8v5.5h-.8zm2.2-2.8c0-1.7 1-2.8 2.4-2.8c.8 0 1.5.4 1.9 1c-.02-.04 0-3.1 0-3.1h.7v7.7h-.7s-.02-.9 0-.9c-.4.6-1.1 1-1.9 1c-1.4 0-2.4-1.1-2.4-2.9zm2.5 2.3c1.2 0 1.8-1.1 1.8-2.3c0-1.2-.6-2.2-1.8-2.2c-1.2 0-1.8 1-1.8 2.2c0 1.2.6 2.3 1.8 2.3zm3.9-2.3c0-1.9 1.2-2.8 2.5-2.8C85.1 3 86 4 86 5.4v.5s-3.95-.02-3.9 0c0 1.5.8 2.2 1.7 2.2c.8 0 1.3-.4 1.5-1.1h.7c-.2 1.1-1.1 1.7-2.2 1.7c-1.4 0-2.5-1-2.5-2.9zm4-.5c0-1-.6-1.7-1.5-1.7h-.1c-.7 0-1.5.4-1.6 1.7h3.2zm2.2 3.3V3.1h.7s-.01.9 0 .9c.3-.6 1-1 1.9-1c1.1 0 1.9.7 1.9 2c.04-.02 0 3.6 0 3.6h-.7s.03-3.4 0-3.4c0-1.1-.4-1.6-1.3-1.6h-.1c-1.1 0-1.7 1-1.7 2.2v2.8h-.7zm7.8 0c-.7 0-1-.3-1-1c-.03-.01 0-3.9 0-3.9H93v-.6h1.3V1.3h.7v1.8h1.4v.6H95s-.02 3.84 0 3.8c0 .4.1.5.4.5c.02-.02 1.1 0 1.1 0v.6s-1.19-.02-1.2 0zm2.3-6.5v-.9h.8v.9h-.8zm.1 6.5V3.1h.7v5.5h-.7zm2.1-1.5c0-1.2 1-1.6 1.9-1.7l1.7-.1s.03-.24 0-.2c0-1-.5-1.5-1.3-1.5h-.1c-.7 0-1.3.3-1.4 1h-.7c.1-1 .9-1.6 2.1-1.6c1.5 0 2.1.9 2.1 2.1v2.3c0 .3 0 .8.1 1.2h-.7v-.9c-.2.5-1 1-2 1c-.9 0-1.7-.7-1.7-1.6zm1.9 1c.8 0 1.7-.7 1.7-1.5c.03 0 0-.7 0-.7c0 0-1.56.07-1.6.1c-.7 0-1.3.4-1.3 1c0 .6.5 1.1 1.1 1.1h.1zm4.1.5V.9h.8v7.7h-.8zm8.4-5.5h.8l-2.2 5.5h-.8l-2.2-5.5h.8l1.8 4.8l1.8-4.8zm1.5 4c0-1.2 1-1.6 1.9-1.7l1.7-.1v-.2c0-1-.5-1.5-1.4-1.5c-.7 0-1.3.3-1.4 1h-.7c0-1 .9-1.6 2.1-1.6c1.4 0 2.1.9 2.1 2.1v2.3c0 .3 0 .8.1 1.2h-.7v-.9c-.3.5-1 1-2 1c-1 0-1.7-.7-1.7-1.6zm1.9 1c.7 0 1.7-.7 1.7-1.5v-.7s-1.6.07-1.6.1c-.8 0-1.3.4-1.3 1c0 .6.5 1.1 1.1 1.1h.1zm3.8-2.3c0-1.6.9-2.8 2.5-2.8c1.2 0 2 .7 2.2 1.8h-.8c-.1-.7-.6-1.2-1.3-1.2h-.1c-1.2 0-1.8 1-1.8 2.2c0 1.2.6 2.3 1.8 2.3h.1c.7 0 1.2-.6 1.3-1.3h.8c-.2 1.2-1 1.9-2.2 1.9c-1.6 0-2.5-1.3-2.5-2.9zm5.8 1.3c0-1.2 1-1.6 1.9-1.7l1.7-.1v-.2c0-1-.5-1.5-1.4-1.5c-.7 0-1.3.3-1.4 1h-.7c.1-1 .9-1.6 2.1-1.6c1.4 0 2.1.9 2.1 2.1v2.3c0 .3 0 .8.1 1.2h-.7v-.9c-.3.5-1 1-2 1c-1 0-1.7-.7-1.7-1.6zm1.9 1c.8 0 1.7-.7 1.7-1.5v-.7s-1.59.07-1.6.1c-.8 0-1.3.4-1.3 1c0 .6.5 1.1 1.1 1.1h.1zm4.1.5V3.1h.7s.02.9 0 .9c.3-.6 1-1 1.9-1c1.1 0 2 .7 2 2c-.03-.02 0 3.6 0 3.6h-.7s-.04-3.4 0-3.4c0-1.1-.5-1.6-1.4-1.6c-1.2 0-1.8 1-1.8 2.2c.02.03 0 2.8 0 2.8h-.7zm6-2.8c0-1.6.9-2.8 2.5-2.8c1.2 0 2 .7 2.1 1.8h-.7c-.1-.7-.6-1.2-1.3-1.2h-.2c-1.2 0-1.7 1-1.7 2.2c0 1.2.5 2.3 1.7 2.3h.2c.7 0 1.2-.6 1.3-1.3h.7c-.2 1.2-.9 1.9-2.1 1.9c-1.6 0-2.5-1.3-2.5-2.9zm10.7-2.7l-2.3 5.3v1c0 .7-.3 1-1.1 1h-1.6v-.6h1.5c.4 0 .5-.1.5-.4c-.03-.05 0-1 0-1l-2.4-5.3h.8l1.9 4.4l1.9-4.4h.8z" stroke="none" fill="#192d39"/></g></svg>